<?xml version="1.0" encoding="UTF-8" standalone="no"?>
<svg width="160px" height="160px" viewBox="0 0 160 160" version="1.1" xmlns="http://www.w3.org/2000/svg" xmlns:xlink="http://www.w3.org/1999/xlink">
    <!-- Generator: Sketch 3.8.3 (29802) - http://www.bohemiancoding.com/sketch -->
    <title>Group 6</title>
    <desc>Created with Sketch.</desc>
    <defs></defs>
    <g id="--UI" stroke="none" stroke-width="1" fill="none" fill-rule="evenodd">
        <g id="2-4-Logo-Package" transform="translate(-733.000000, -1245.000000)">
            <g id="Group-6" transform="translate(733.000000, 1245.000000)">
                <rect id="Rectangle-112-Copy" fill="#FFFFFF" x="0" y="0" width="160" height="160"></rect>
                <g id="ic-experts" transform="translate(20.000000, 20.000000)">
                    <rect id="Rectangle-476-Copy-2" fill-opacity="0" fill="#FF5D5D" x="0" y="0" width="120" height="120"></rect>
                    <rect id="Rectangle-690" stroke="#4B5C65" stroke-width="2" fill="#9FB0BD" x="10" y="24" width="100" height="72"></rect>
                    <rect id="Rectangle-690" stroke="#4B5C65" stroke-width="2" fill="#F1F5F8" x="16" y="30" width="88" height="60"></rect>
                    <polygon id="Rectangle-179" stroke="#4B5C65" stroke-width="2" fill="#F18848" transform="translate(71.696152, 62.794229) rotate(-330.000000) translate(-71.696152, -62.794229) " points="65.6961524 53.7942286 77.6961524 53.7942286 77.6961524 71.7942286 71.6961524 69.2228001 65.6961524 71.7942286"></polygon>
                    <rect id="Rectangle-693" fill="#4B5C65" x="24" y="50" width="32" height="2"></rect>
                    <rect id="Rectangle-693" fill="#4B5C65" x="24" y="56" width="32" height="2"></rect>
                    <rect id="Rectangle-693" fill="#4B5C65" x="24" y="62" width="32" height="2"></rect>
                    <rect id="Rectangle-693" fill="#4B5C65" x="24" y="68" width="22" height="2"></rect>
                    <polygon id="Rectangle-179-Copy" stroke="#4B5C65" stroke-width="2" fill="#F18848" transform="translate(87.696152, 62.794229) rotate(-30.000000) translate(-87.696152, -62.794229) " points="81.6961524 53.7942286 93.6961524 53.7942286 93.6961524 71.7942286 87.6961524 69.2228001 81.6961524 71.7942286"></polygon>
                    <circle id="Oval-93" stroke="#4B5C65" stroke-width="2" stroke-linejoin="round" fill="#F2B835" cx="79" cy="51" r="9"></circle>
                </g>
            </g>
        </g>
    </g>
</svg>