<?xml version="1.0" encoding="UTF-8" standalone="no"?>
<svg width="160px" height="160px" viewBox="0 0 160 160" version="1.1" xmlns="http://www.w3.org/2000/svg" xmlns:xlink="http://www.w3.org/1999/xlink">
    <!-- Generator: Sketch 3.8.3 (29802) - http://www.bohemiancoding.com/sketch -->
    <title>Group 5</title>
    <desc>Created with Sketch.</desc>
    <defs></defs>
    <g id="--UI" stroke="none" stroke-width="1" fill="none" fill-rule="evenodd">
        <g id="2-4-Logo-Package" transform="translate(-173.000000, -1245.000000)">
            <g id="Group-5" transform="translate(173.000000, 1245.000000)">
                <rect id="Rectangle-112" fill="#FFFFFF" x="0" y="0" width="160" height="160"></rect>
                <g id="ic-rush" transform="translate(20.000000, 20.000000)">
                    <rect id="Rectangle-476-Copy" fill-opacity="0" fill="#FF5D5D" x="0" y="0" width="120" height="120"></rect>
                    <circle id="Oval-88" stroke="#4B5C65" stroke-width="2" fill="#F1F5F8" cx="82" cy="60" r="28"></circle>
                    <path d="M53,41 L11,41" id="Line" stroke="#4B5C65" stroke-width="2"></path>
                    <path d="M47,51 L15,51" id="Line-Copy" stroke="#4B5C65" stroke-width="2"></path>
                    <path d="M43,61 L20.909278,61" id="Line-Copy" stroke="#4B5C65" stroke-width="2"></path>
                    <path d="M45,71 L33,71" id="Line-Copy" stroke="#4B5C65" stroke-width="2"></path>
                    <path d="M82,36 L82,39.84 M94,39.2153903 L92.08,42.5409279 M102.78461,48 L99.4590721,49.92 M106,60 L102.16,60 M102.78461,72 L99.4590721,70.08 M94,80.7846097 L92.08,77.4590721 M82,84 L82,80.16 M70,80.7846097 L71.92,77.4590721 M61.2153903,72 L64.5409279,70.08 M58,60 L61.84,60 M61.2153903,48 L64.5409279,49.92 M70,39.2153903 L71.92,42.5409279" id="Line" stroke="#4B5C65" stroke-width="2"></path>
                    <rect id="Rectangle-570" fill="#4B5C65" x="81" y="46" width="2" height="15"></rect>
                    <rect id="Rectangle-570" fill="#4B5C65" transform="translate(87.000000, 60.000000) rotate(90.000000) translate(-87.000000, -60.000000) " x="86" y="55" width="2" height="10"></rect>
                </g>
            </g>
        </g>
    </g>
</svg>