<?xml version="1.0" encoding="UTF-8" standalone="no"?>
<svg width="160px" height="160px" viewBox="0 0 160 160" version="1.1" xmlns="http://www.w3.org/2000/svg" xmlns:xlink="http://www.w3.org/1999/xlink">
    <!-- Generator: Sketch 3.8.3 (29802) - http://www.bohemiancoding.com/sketch -->
    <title>Group 6</title>
    <desc>Created with Sketch.</desc>
    <defs></defs>
    <g id="UI" stroke="none" stroke-width="1" fill="none" fill-rule="evenodd">
        <g id="2-2-Logo-colour" transform="translate(-174.000000, -2056.000000)">
            <g id="combination" transform="translate(174.000000, 2056.000000)">
                <g id="Group-6">
                    <rect id="Rectangle-38-Copy-5" fill="#FFFFFF" x="0" y="0" width="160" height="160"></rect>
                    <path d="M35.1,106.96 C31.04,106.96 27.8,110.06 27.8,113.98 C27.8,117.94 31,121.08 35.04,121.08 C36.98,121.08 38.86,120.22 40.24,118.92 L39.26,117.82 C38.16,118.86 36.66,119.5 35.12,119.5 C31.96,119.5 29.42,117.04 29.42,113.98 C29.42,110.9 31.96,108.46 35.12,108.46 C36.66,108.46 38.18,109.12 39.26,110.22 L40.22,109 C38.88,107.74 37.02,106.96 35.1,106.96 L35.1,106.96 Z M49.1999997,106.96 C45.0999997,106.96 41.8599997,110.04 41.8599997,114 C41.8599997,117.94 45.0999997,121.08 49.1999997,121.08 C53.2799997,121.08 56.5199997,117.94 56.5199997,114 C56.5199997,110.06 53.2799997,106.96 49.1999997,106.96 L49.1999997,106.96 Z M49.1999997,108.48 C52.3199997,108.48 54.8799997,110.92 54.8799997,114 C54.8799997,117.08 52.3199997,119.54 49.1999997,119.54 C46.0799997,119.54 43.4799997,117.08 43.4799997,114 C43.4799997,110.92 46.0799997,108.48 49.1999997,108.48 L49.1999997,108.48 Z M73.9999995,121 L73.9999995,107 L72.0399995,107 L66.9399995,117.08 L61.8199995,107 L59.8399995,107 L59.8399995,121 L61.3599995,121 L61.3599995,109.46 L66.4399995,119.52 L67.3999995,119.52 L72.4999995,109.46 L72.5199995,121 L73.9999995,121 Z M78.6599992,107 L78.6599992,121 L80.2599992,121 L80.2599992,116.58 L83.9199992,116.58 C87.3799992,116.58 89.3799992,114.8 89.3799992,111.7 C89.3799992,108.72 87.3799992,107 83.9199992,107 L78.6599992,107 Z M80.2599992,108.54 L83.8599992,108.54 C86.3799992,108.54 87.8399992,109.62 87.8399992,111.74 C87.8399992,113.92 86.3799992,115.04 83.8599992,115.04 L80.2599992,115.04 L80.2599992,108.54 Z M100.519999,117.46 L102.079999,121 L103.819999,121 L97.559999,107 L95.899999,107 L89.619999,121 L91.319999,121 L92.879999,117.46 L100.519999,117.46 Z M99.839999,115.92 L93.559999,115.92 L96.679999,108.82 L99.839999,115.92 Z M118.059999,121 L118.059999,107 L116.479999,107 L116.479999,118.26 L108.079999,107 L106.419999,107 L106.419999,121 L108.019999,121 L108.019999,109.76 L116.419999,121 L118.059999,121 Z M127.679998,116.2 L132.999998,107 L131.359998,107 L126.879998,114.3 L122.339998,107 L120.679998,107 L126.099998,116.26 L126.099998,121 L127.679998,121 L127.679998,116.2 Z" id="COMPANY" fill="#515E64"></path>
                    <g id="ic-badge" transform="translate(47.000000, 36.000000)" stroke-width="2">
                        <polygon id="Star-2" stroke="#4B5C65" stroke-linecap="round" stroke-linejoin="round" fill="#9FB0BC" transform="translate(33.000000, 33.842106) scale(1, -1) translate(-33.000000, -33.842106) " points="33 56.4905144 2 60.6842112 21.1324815 35.938954 33 7 44.8675185 35.938954 64 60.6842112"></polygon>
                        <g id="Group-2">
                            <polygon id="Triangle-19" stroke="#4B5C65" stroke-linejoin="round" fill="#F1F6F9" points="44.8276367 0 15.2385254 32.8308105 0 27.2531738"></polygon>
                            <path id="Path-129" stroke="#979797"></path>
                            <polygon id="Triangle-20" stroke="#4B5C65" stroke-linejoin="round" fill="#F1F6F9" points="44.78125 1.33517735e-17 44.2736816 42.4746094 22.9042969 34.746582"></polygon>
                            <polygon id="Path-130" stroke="#4B5C65" stroke-linejoin="round" fill="#D3DFE6" points="22.8276367 34.9638672 22.8276367 45.4355469 27.9211426 36.9130859"></polygon>
                            <polygon id="Path-131" stroke="#4B5C65" stroke-linejoin="round" fill="#9FB0BD" points="15.3510742 32.9501953 22.7451172 45.1147461 22.7451172 35.3131211 44.5393066 0.482421875"></polygon>
                        </g>
                    </g>
                </g>
            </g>
        </g>
    </g>
</svg>