<?xml version="1.0" encoding="UTF-8" standalone="no"?>
<svg width="160px" height="160px" viewBox="0 0 160 160" version="1.1" xmlns="http://www.w3.org/2000/svg" xmlns:xlink="http://www.w3.org/1999/xlink">
    <!-- Generator: Sketch 3.8.3 (29802) - http://www.bohemiancoding.com/sketch -->
    <title>Group 8</title>
    <desc>Created with Sketch.</desc>
    <defs>
        <rect id="path-1" x="26" y="67" width="107" height="24"></rect>
        <filter x="-50%" y="-50%" width="200%" height="200%" filterUnits="objectBoundingBox" id="filter-2">
            <feOffset dx="0" dy="2" in="SourceAlpha" result="shadowOffsetOuter1"></feOffset>
            <feColorMatrix values="0 0 0 0 0.294117647   0 0 0 0 0.360784314   0 0 0 0 0.396078431  0 0 0 1 0" type="matrix" in="shadowOffsetOuter1" result="shadowMatrixOuter1"></feColorMatrix>
            <feOffset dx="0" dy="-2" in="SourceAlpha" result="shadowOffsetOuter2"></feOffset>
            <feColorMatrix values="0 0 0 0 0.29372257   0 0 0 0 0.360636765   0 0 0 0 0.397135417  0 0 0 1 0" type="matrix" in="shadowOffsetOuter2" result="shadowMatrixOuter2"></feColorMatrix>
            <feMerge>
                <feMergeNode in="shadowMatrixOuter1"></feMergeNode>
                <feMergeNode in="shadowMatrixOuter2"></feMergeNode>
            </feMerge>
        </filter>
    </defs>
    <g id="UI" stroke="none" stroke-width="1" fill="none" fill-rule="evenodd">
        <g id="2-2-Logo-colour" transform="translate(-173.000000, -1870.000000)">
            <g id="emblem" transform="translate(173.000000, 1870.000000)">
                <g id="Group-8">
                    <rect id="Rectangle-38-Copy-3" fill="#FFFFFF" x="0" y="0" width="160" height="160"></rect>
                    <g id="ic-badge" transform="translate(33.000000, 32.000000)" stroke="#4B5C65" stroke-width="2">
                        <polygon id="Star-2" fill="#9FB0BC" points="47 90.8272737 33.8787581 93.6582992 24.3384697 84.0285953 11.802176 79.1621118 8.87181516 65.7910925 0.90065423 54.7721741 5.51058991 41.9050435 4.63534906 28.232119 15.3219592 19.9541001 21.8205212 7.96822639 35.1908826 6.90753182 47 0.414139088 58.8091174 6.90753182 72.1794788 7.96822639 78.6780408 19.9541001 89.3646509 28.232119 88.4894101 41.9050435 93.0993458 54.7721741 85.1281848 65.7910925 82.197824 79.1621118 69.6615303 84.0285953 60.1212419 93.6582992"></polygon>
                        <rect id="Rectangle-66-Copy" fill="#F1F5F8" x="10" y="10" width="75" height="75" rx="37.5"></rect>
                        <rect id="Rectangle-66-Copy" x="15" y="15" width="64" height="64" rx="32"></rect>
                    </g>
                    <g id="Rectangle-557">
                        <use fill="black" fill-opacity="1" filter="url(#filter-2)" xlink:href="#path-1"></use>
                        <use fill="#FFFFFF" fill-rule="evenodd" xlink:href="#path-1"></use>
                    </g>
                    <path d="M42.9041148,73 C39.5830502,73 37,75.3771186 37,78.4689266 C37,81.5918079 39.5509627,84 42.8399397,84 C44.4282749,84 46.0486977,83.3008475 47.1878068,82.2132768 L46.0647415,81.0014124 C45.2144206,81.7937853 44.0592677,82.2909605 42.9362024,82.2909605 C40.6900718,82.2909605 38.9252548,80.5974576 38.9252548,78.4533898 C38.9252548,76.309322 40.6900718,74.6313559 42.9362024,74.6313559 C44.0753115,74.6313559 45.2465082,75.1596045 46.0647415,76.0141243 L47.171763,74.6779661 C46.0807853,73.6370056 44.4924501,73 42.9041148,73 L42.9041148,73 Z M54.2149868,73 C50.8618347,73 48.2627406,75.3615819 48.2627406,78.4844633 C48.2627406,81.5918079 50.8618347,84 54.2149868,84 C57.568139,84 60.167233,81.5918079 60.167233,78.4844633 C60.167233,75.3771186 57.568139,73 54.2149868,73 L54.2149868,73 Z M54.2310306,74.6468927 C56.4290299,74.6468927 58.2259344,76.3248588 58.2259344,78.4844633 C58.2259344,80.6440678 56.4290299,82.3531073 54.2310306,82.3531073 C52.0330313,82.3531073 50.1879955,80.6440678 50.1879955,78.4844633 C50.1879955,76.3248588 52.0169876,74.6468927 54.2310306,74.6468927 L54.2310306,74.6468927 Z M74.3820311,83.9223164 L74.3820311,73.0466102 L72.1519442,73.0466102 L68.4618724,80.2711864 L64.7557569,73.0466102 L62.5096262,73.0466102 L62.5096262,83.9223164 L64.290487,83.9223164 L64.290487,75.7966102 L67.8361646,82.7881356 L69.0715365,82.7881356 L72.6172141,75.7966102 L72.6332579,83.9223164 L74.3820311,83.9223164 Z M77.6710079,73.0466102 L77.6710079,83.9223164 L79.5641752,83.9223164 L79.5641752,80.6440678 L82.1472254,80.6440678 C84.9709325,80.6440678 86.5913553,79.2146893 86.5913553,76.759887 C86.5913553,74.3983051 84.9709325,73.0466102 82.1472254,73.0466102 L77.6710079,73.0466102 Z M79.5641752,74.6935028 L82.0670064,74.6935028 C83.7997358,74.6935028 84.778407,75.3771186 84.778407,76.8064972 C84.778407,78.2824859 83.7997358,78.9971751 82.0670064,78.9971751 L79.5641752,78.9971751 L79.5641752,74.6935028 Z M95.3352209,81.4675141 L96.4101548,83.9223164 L98.4316724,83.9223164 L93.5222726,73.0466102 L91.5809739,73.0466102 L86.6234427,83.9223164 L88.5968289,83.9223164 L89.6717629,81.4675141 L95.3352209,81.4675141 Z M94.6132503,79.8361582 L90.3776897,79.8361582 L92.49547,75.0042373 L94.6132503,79.8361582 Z M109.983201,83.9223164 L109.983201,73.0466102 L108.122122,73.0466102 L108.122122,80.8615819 L102.1057,73.0466102 L100.244621,73.0466102 L100.244621,83.9223164 L102.137788,83.9223164 L102.137788,76.1228814 L108.122122,83.9223164 L109.983201,83.9223164 Z M117.876746,80.3022599 L122,73.0466102 L120.074745,73.0466102 L116.930162,78.3446328 L113.721404,73.0466102 L111.812193,73.0466102 L115.999622,80.3644068 L115.999622,83.9223164 L117.876746,83.9223164 L117.876746,80.3022599 Z" id="COMPANY" fill="#4B5C65"></path>
                </g>
            </g>
        </g>
    </g>
</svg>