<?xml version="1.0" encoding="UTF-8" standalone="no"?>
<svg width="160px" height="160px" viewBox="0 0 160 160" version="1.1" xmlns="http://www.w3.org/2000/svg" xmlns:xlink="http://www.w3.org/1999/xlink">
    <!-- Generator: Sketch 3.8.3 (29802) - http://www.bohemiancoding.com/sketch -->
    <title>Group 9</title>
    <desc>Created with Sketch.</desc>
    <defs></defs>
    <g id="UI" stroke="none" stroke-width="1" fill="none" fill-rule="evenodd">
        <g id="2-2-Logo-colour" transform="translate(-733.000000, -1870.000000)">
            <g id="lettermark" transform="translate(733.000000, 1870.000000)">
                <g id="Group-9">
                    <rect id="Rectangle-38-Copy-4" fill="#FFFFFF" x="0" y="0" width="160" height="160"></rect>
                    <g id="Group-5" transform="translate(34.000000, 34.000000)" stroke="#4B5C65" stroke-width="2">
                        <polygon id="Star-2" fill="#9FB0BC" points="46 90.1763875 41.4448467 94.6939755 37.8402059 89.3556283 32.5095919 92.8788486 29.9939882 86.9248919 24.0927661 89.3183492 22.7628725 82.9775901 16.5178229 84.1493051 16.4247466 77.6654155 10.0758632 77.57036 11.2231811 71.1925121 5.01444802 69.834339 7.35806923 63.8076299 1.52808458 61.2385329 4.9779451 55.7945657 -0.249248087 52.1132739 4.17427553 47.4612572 -0.249248087 42.8092405 4.9779451 39.1279487 1.52808458 33.6839815 7.35806923 31.1148845 5.01444802 25.0881754 11.2231811 23.7300023 10.0758632 17.3521544 16.4247466 17.2570989 16.5178229 10.7732093 22.7628725 11.9449243 24.0927661 5.60416524 29.9939882 7.99762254 32.5095919 2.0436658 37.8402059 5.5668861 41.4448467 0.228538926 46 4.74612685 50.5551533 0.228538926 54.1597941 5.5668861 59.4904081 2.0436658 62.0060118 7.99762254 67.9072339 5.60416524 69.2371275 11.9449243 75.4821771 10.7732093 75.5752534 17.2570989 81.9241368 17.3521544 80.7768189 23.7300023 86.985552 25.0881754 84.6419308 31.1148845 90.4719154 33.6839815 87.0220549 39.1279487 92.2492481 42.8092405 87.8257245 47.4612572 92.2492481 52.1132739 87.0220549 55.7945657 90.4719154 61.2385329 84.6419308 63.8076299 86.985552 69.834339 80.7768189 71.1925121 81.9241368 77.57036 75.5752534 77.6654155 75.4821771 84.1493051 69.2371275 82.9775901 67.9072339 89.3183492 62.0060118 86.9248919 59.4904081 92.8788486 54.1597941 89.3556283 50.5551533 94.6939755"></polygon>
                        <rect id="Rectangle-66-Copy" fill="#F1F5F8" x="9" y="9" width="75" height="75" rx="37.5"></rect>
                        <rect id="Rectangle-66-Copy" x="14" y="15" width="64" height="64" rx="32"></rect>
                    </g>
                    <path d="M69.956,90.616 L62,90.616 L62,72.442 L69.072,72.442 C70.3026728,72.442 71.3643289,72.5893319 72.257,72.884 C73.1496711,73.1786681 73.8126645,73.5773308 74.246,74.08 C75.0780042,75.0160047 75.494,76.0733274 75.494,77.252 C75.494,78.6733404 75.0433378,79.7306632 74.142,80.424 C73.812665,80.6666679 73.5873339,80.818333 73.466,80.879 C73.3446661,80.939667 73.1280016,81.0393326 72.816,81.178 C73.9426723,81.4206679 74.8396633,81.9276628 75.507,82.699 C76.1743367,83.4703372 76.508,84.4279943 76.508,85.572 C76.508,86.8373397 76.074671,87.9553285 75.208,88.926 C74.1853282,90.0526723 72.4346791,90.616 69.956,90.616 L69.956,90.616 Z M65.068,79.982 L68.968,79.982 C71.1866778,79.982 72.296,79.2280075 72.296,77.72 C72.296,76.853329 72.027336,76.2293352 71.49,75.848 C70.952664,75.4666648 70.1206723,75.276 68.994,75.276 L65.068,75.276 L65.068,79.982 Z M65.068,87.782 L69.878,87.782 C71.0046723,87.782 71.866997,87.6043351 72.465,87.249 C73.063003,86.8936649 73.362,86.2220049 73.362,85.234 C73.362,83.6219919 72.0706796,82.816 69.488,82.816 L65.068,82.816 L65.068,87.782 Z M80.4278824,90.616 L80.4278824,80.164 C80.4278824,77.4946533 81.1038756,75.4666736 82.4558824,74.08 C83.8078891,72.6933264 85.6928703,72 88.1108824,72 C90.5288945,72 92.4095423,72.6846598 93.7528824,74.054 C95.0962224,75.4233402 95.7678824,77.407987 95.7678824,80.008 L95.7678824,90.616 L92.6738824,90.616 L92.6738824,86.118 L83.4958824,86.118 L83.4958824,90.616 L80.4278824,90.616 Z M83.4958824,80.034 L83.4958824,83.258 L92.6738824,83.258 L92.6738824,80.164 C92.6738824,78.4826583 92.2665531,77.1826713 91.4518824,76.264 C90.6372116,75.3453287 89.5105562,74.886 88.0718824,74.886 C86.6332085,74.886 85.5108864,75.3279956 84.7048824,76.212 C83.8988783,77.0960044 83.4958824,78.3699917 83.4958824,80.034 L83.4958824,80.034 Z" id="BA" fill="#4B5C65"></path>
                </g>
            </g>
        </g>
    </g>
</svg>