<?xml version="1.0" encoding="UTF-8" standalone="no"?>
<svg width="160px" height="160px" viewBox="0 0 160 160" version="1.1" xmlns="http://www.w3.org/2000/svg" xmlns:xlink="http://www.w3.org/1999/xlink">
    <!-- Generator: Sketch 3.8.3 (29802) - http://www.bohemiancoding.com/sketch -->
    <title>Group 11</title>
    <desc>Created with Sketch.</desc>
    <defs>
        <path d="M29,14 L20.4686147,3.14187327 C19.1052365,1.40666458 17.203337,1.59332603 16.2082844,3.58343124 L1.79171562,32.4165688 C0.802178408,34.3956432 1.16845205,37.3529445 2.61189389,39.0242982 L35.3881061,76.9757018 C36.8306153,78.6459756 39.1684521,78.6470555 40.6118939,76.9757018 L73.3881061,39.0242982 C74.8306153,37.3540244 75.203337,34.406674 74.2082844,32.4165688 L59.7917156,3.58343124 C58.8021784,1.60435682 56.8949137,1.40647346 55.5313853,3.14187327 L47,14 L29,14 Z" id="path-1"></path>
        <path d="M29,14 L20.4686147,3.14187327 C19.1052365,1.40666458 17.203337,1.59332603 16.2082844,3.58343124 L1.79171562,32.4165688 C0.802178408,34.3956432 1.16845205,37.3529445 2.61189389,39.0242982 L35.3881061,76.9757018 C36.8306153,78.6459756 39.1684521,78.6470555 40.6118939,76.9757018 L73.3881061,39.0242982 C74.8306153,37.3540244 75.203337,34.406674 74.2082844,32.4165688 L59.7917156,3.58343124 C58.8021784,1.60435682 56.8949137,1.40647346 55.5313853,3.14187327 L47,14 L29,14 Z" id="path-3"></path>
    </defs>
    <g id="UI" stroke="none" stroke-width="1" fill="none" fill-rule="evenodd">
        <g id="2-2-Logo-colour" transform="translate(-734.000000, -2056.000000)">
            <g id="mascot" transform="translate(734.000000, 2056.000000)">
                <g id="Group-11">
                    <rect id="Rectangle-38-Copy-6" fill="#FFFFFF" x="0" y="0" width="160" height="160"></rect>
                    <g id="Group-2-Copy-2" transform="translate(42.000000, 40.000000)">
                        <g id="Oval-69">
                            <mask id="mask-2" fill="white">
                                <use xlink:href="#path-1"></use>
                            </mask>
                            <use id="Mask" stroke="#4B5C65" stroke-width="2" fill="#F1F5F8" xlink:href="#path-1"></use>
                            <path d="M36,75.7035116 L32.0264014,73.4221809 C32.0264014,73.4221809 41.9639469,44.856273 29.1217209,32.130391 C16.2794948,19.4045089 2,32.3606655 2,32.3606655 C2,32.3606655 16.1287981,2 18.3308717,2 C21.4821177,2.87514223 29.6726074,13.6552734 29.6726074,13.6552734 L40,13.6552734 L40,13.8847763 L47.2272949,13.4455566 C47.2272949,13.4455566 54.5178823,2.87514223 57.6691283,2 C59.8712019,2 74,32.3606655 74,32.3606655 C74,32.3606655 59.7205052,19.4045089 46.8782791,32.130391 C34.0360531,44.856273 43.9735986,73.4221809 43.9735986,73.4221809 L40,75.7035116 L40,78 L38,76.8517558 L36,78 L36,75.7035116 Z" id="Combined-Shape" stroke="#4B5C65" stroke-width="2" stroke-linecap="round" stroke-linejoin="round" fill="#9FB0BD" mask="url(#mask-2)"></path>
                            <circle fill="#4B5C65" mask="url(#mask-2)" cx="38" cy="78" r="8"></circle>
                            <mask id="mask-4" fill="white">
                                <use xlink:href="#path-3"></use>
                            </mask>
                            <use id="Mask" stroke="#4B5C65" stroke-width="2" xlink:href="#path-3"></use>
                        </g>
                        <circle id="Oval-67" fill="#4B5C65" cx="24" cy="44" r="4"></circle>
                        <circle id="Oval-67-Copy" fill="#4B5C65" cx="52" cy="44" r="4"></circle>
                    </g>
                </g>
            </g>
        </g>
    </g>
</svg>