<?xml version="1.0" encoding="UTF-8" standalone="no"?>
<svg width="160px" height="160px" viewBox="0 0 160 160" version="1.1" xmlns="http://www.w3.org/2000/svg" xmlns:xlink="http://www.w3.org/1999/xlink">
    <!-- Generator: Sketch 3.8.3 (29802) - http://www.bohemiancoding.com/sketch -->
    <title>Group 6</title>
    <desc>Created with Sketch.</desc>
    <defs></defs>
    <g id="UI" stroke="none" stroke-width="1" fill="none" fill-rule="evenodd">
        <g id="2-2-Logo-colour" transform="translate(-173.000000, -1683.000000)">
            <g id="wordmark" transform="translate(173.000000, 1683.000000)">
                <g id="Group-6">
                    <rect id="Rectangle-38-Copy" fill="#FFFFFF" x="0" y="0" width="160" height="160"></rect>
                    <path d="M35.1,71.96 C31.04,71.96 27.8,75.06 27.8,78.98 C27.8,82.94 31,86.08 35.04,86.08 C36.98,86.08 38.86,85.22 40.24,83.92 L39.26,82.82 C38.16,83.86 36.66,84.5 35.12,84.5 C31.96,84.5 29.42,82.04 29.42,78.98 C29.42,75.9 31.96,73.46 35.12,73.46 C36.66,73.46 38.18,74.12 39.26,75.22 L40.22,74 C38.88,72.74 37.02,71.96 35.1,71.96 L35.1,71.96 Z M49.1999997,71.96 C45.0999997,71.96 41.8599997,75.04 41.8599997,79 C41.8599997,82.94 45.0999997,86.08 49.1999997,86.08 C53.2799997,86.08 56.5199997,82.94 56.5199997,79 C56.5199997,75.06 53.2799997,71.96 49.1999997,71.96 L49.1999997,71.96 Z M49.1999997,73.48 C52.3199997,73.48 54.8799997,75.92 54.8799997,79 C54.8799997,82.08 52.3199997,84.54 49.1999997,84.54 C46.0799997,84.54 43.4799997,82.08 43.4799997,79 C43.4799997,75.92 46.0799997,73.48 49.1999997,73.48 L49.1999997,73.48 Z M73.9999995,86 L73.9999995,72 L72.0399995,72 L66.9399995,82.08 L61.8199995,72 L59.8399995,72 L59.8399995,86 L61.3599995,86 L61.3599995,74.46 L66.4399995,84.52 L67.3999995,84.52 L72.4999995,74.46 L72.5199995,86 L73.9999995,86 Z M78.6599992,72 L78.6599992,86 L80.2599992,86 L80.2599992,81.58 L83.9199992,81.58 C87.3799992,81.58 89.3799992,79.8 89.3799992,76.7 C89.3799992,73.72 87.3799992,72 83.9199992,72 L78.6599992,72 Z M80.2599992,73.54 L83.8599992,73.54 C86.3799992,73.54 87.8399992,74.62 87.8399992,76.74 C87.8399992,78.92 86.3799992,80.04 83.8599992,80.04 L80.2599992,80.04 L80.2599992,73.54 Z M100.519999,82.46 L102.079999,86 L103.819999,86 L97.559999,72 L95.899999,72 L89.619999,86 L91.319999,86 L92.879999,82.46 L100.519999,82.46 Z M99.839999,80.92 L93.559999,80.92 L96.679999,73.82 L99.839999,80.92 Z M118.059999,86 L118.059999,72 L116.479999,72 L116.479999,83.26 L108.079999,72 L106.419999,72 L106.419999,86 L108.019999,86 L108.019999,74.76 L116.419999,86 L118.059999,86 Z M127.679998,81.2 L132.999998,72 L131.359998,72 L126.879998,79.3 L122.339998,72 L120.679998,72 L126.099998,81.26 L126.099998,86 L127.679998,86 L127.679998,81.2 Z" id="COMPANY" fill="#515E64"></path>
                </g>
            </g>
        </g>
    </g>
</svg>