<svg id="Layer_1" data-name="Layer 1" xmlns="http://www.w3.org/2000/svg" xmlns:xlink="http://www.w3.org/1999/xlink" viewBox="0 0 732.96 75.79"><defs><style>.cls-1{fill:none;}.cls-2{clip-path:url(#clip-path);}.cls-3{fill:url(#linear-gradient);}.cls-4{clip-path:url(#clip-path-2);}.cls-5{fill:url(#linear-gradient-2);}.cls-6{clip-path:url(#clip-path-3);}.cls-7{fill:url(#linear-gradient-3);}.cls-8{clip-path:url(#clip-path-4);}.cls-9{fill:url(#linear-gradient-4);}.cls-10{clip-path:url(#clip-path-5);}.cls-11{fill:url(#linear-gradient-5);}.cls-12{clip-path:url(#clip-path-6);}.cls-13{fill:url(#linear-gradient-6);}.cls-14{fill:#535353;}</style><clipPath id="clip-path" transform="translate(-63.75 -37.54)"><path class="cls-1" d="M133.43,48.49l5.62,5.7a28.54,28.54,0,0,1,41.74.11l5.83-5.92a37.9,37.9,0,0,0-53.2.11"/></clipPath><linearGradient id="linear-gradient" x1="-60.5" y1="714" x2="-59.5" y2="714" gradientTransform="matrix(66.6, 0, 0, -66.6, 4101.76, 47558.49)" gradientUnits="userSpaceOnUse"><stop offset="0" stop-color="#ef5363"/><stop offset="1" stop-color="#f0dd30"/></linearGradient><clipPath id="clip-path-2" transform="translate(-63.75 -37.54)"><path class="cls-1" d="M122.63,75.41v.21c0,20.19,15,37.66,37.24,37.66h.1v-7.64c-16.68-.06-28.77-13.63-28.77-30.23V75.2a30.92,30.92,0,0,1,7.85-21l-5.62-5.7a38.41,38.41,0,0,0-10.8,26.92"/></clipPath><linearGradient id="linear-gradient-2" x1="-60.49" y1="714" x2="-59.49" y2="714" gradientTransform="matrix(0, 43.28, 43.28, 0, -30824.21, 2646.05)" gradientUnits="userSpaceOnUse"><stop offset="0" stop-color="#36c7e9"/><stop offset="1" stop-color="#73e7b1"/></linearGradient><clipPath id="clip-path-3" transform="translate(-63.75 -37.54)"><path class="cls-1" d="M294.78,48.49l5.63,5.7a28.54,28.54,0,0,1,41.74.11L348,48.39a37.91,37.91,0,0,0-53.2.11"/></clipPath><linearGradient id="linear-gradient-3" x1="-60.5" y1="714" x2="-59.5" y2="714" gradientTransform="matrix(49.62, 0, 0, -49.62, 3237.12, 35439.01)" xlink:href="#linear-gradient"/><clipPath id="clip-path-4" transform="translate(-63.75 -37.54)"><path class="cls-1" d="M342.14,54.3a31.11,31.11,0,0,1,8,21.11v.21c0,16.64-11.93,30-28.66,30h-.11v7.64c22.22-.06,37.35-17.71,37.35-37.86V75.2A38.21,38.21,0,0,0,348,48.39Z"/></clipPath><linearGradient id="linear-gradient-4" x1="-60.5" y1="714" x2="-59.5" y2="714" gradientTransform="matrix(0, 67.4, 67.4, 0, -47846.08, 4091.44)" gradientUnits="userSpaceOnUse"><stop offset="0" stop-color="#d93fb7"/><stop offset="1" stop-color="#d9386f"/></linearGradient><clipPath id="clip-path-5" transform="translate(-63.75 -37.54)"><path class="cls-1" d="M538.48,54.3a31.11,31.11,0,0,1,7.95,21.11v.21c0,16.64-11.92,30-28.66,30h-.1v7.64C539.88,113.22,555,95.57,555,75.41V75.2a38.21,38.21,0,0,0-10.7-26.81Z"/></clipPath><linearGradient id="linear-gradient-5" x1="-60.5" y1="714" x2="-59.5" y2="714" gradientTransform="matrix(0, -63.64, -63.64, 0, 45909.42, -3771.02)" xlink:href="#linear-gradient-4"/><clipPath id="clip-path-6" transform="translate(-63.75 -37.54)"><path class="cls-1" d="M480.32,75.41v.21c0,20.19,15,37.66,37.24,37.66h.1v-7.64C501,105.58,488.89,92,488.89,75.41V75.2a30.91,30.91,0,0,1,7.85-21l-5.62-5.7a38.41,38.41,0,0,0-10.8,26.92"/></clipPath><linearGradient id="linear-gradient-6" x1="-60.5" y1="714" x2="-59.5" y2="714" gradientTransform="matrix(37.35, 0, 0, -37.35, 2675.98, 26708.16)" xlink:href="#linear-gradient-2"/></defs><title>Logoworks-Color</title><g class="cls-2"><rect class="cls-3" x="69.69" width="53.2" height="16.76"/></g><g class="cls-4"><rect class="cls-5" x="58.89" y="10.95" width="37.35" height="64.79"/></g><g class="cls-6"><rect class="cls-7" x="231.03" width="53.2" height="16.76"/></g><g class="cls-8"><rect class="cls-9" x="257.57" y="10.85" width="37.35" height="64.89"/></g><g class="cls-10"><rect class="cls-11" x="453.92" y="10.85" width="37.35" height="64.89"/></g><g class="cls-12"><rect class="cls-13" x="416.57" y="10.95" width="37.35" height="64.79"/></g><path class="cls-14" d="M747.67,71.49C731.56,68,727.8,64.16,727.8,57.26V57c0-6.59,6.07-11.82,15.59-11.82,7.53,0,14.33,2.41,21.13,7.95l4.81-6.38c-7.42-6-15.06-9-25.73-9-13.92,0-24.06,8.47-24.06,20V58c0,12,7.74,17.47,24.59,21.13,15.38,3.24,19,7.11,19,13.91v.21c0,7.22-6.49,12.45-16.32,12.45-10.15,0-17.47-3.45-25.11-10.36l-5.13,6.07c8.79,7.85,18.31,11.72,29.92,11.72,14.54,0,25-8.16,25-20.72V92.2C771.53,81,764,75,747.67,71.49" transform="translate(-63.75 -37.54)"/><path class="cls-14" d="M791.61,101.5c0-2-1.57-3-3.69-3h-4.34v9.6h1.84v-3.31h2l2.28,3.31h2.22l-2.55-3.63a2.9,2.9,0,0,0,2.22-2.93m-3.85,1.73h-2.33v-3.15h2.33c1.25,0,2,.54,2,1.57s-.71,1.57-2,1.57" transform="translate(-63.75 -37.54)"/><path class="cls-14" d="M787.27,94a9.49,9.49,0,0,0-9.44,9.5v.05a9.44,9.44,0,1,0,18.88-.05v-.05A9.41,9.41,0,0,0,787.27,94m8.35,9.5a8.35,8.35,0,1,1-16.71.05v-.05a8.35,8.35,0,1,1,16.71-.05Z" transform="translate(-63.75 -37.54)"/><path class="cls-14" d="M72,99.44V97h0V38.84H63.75v73.23h49.48v-7.64H77a5,5,0,0,1-5-5" transform="translate(-63.75 -37.54)"/><path class="cls-14" d="M240.54,80.38h17.33a5,5,0,0,1,4.94,5v2.46h0V98.58a34.47,34.47,0,0,1-21.13,7.32c-17.78,0-29-13-29-30.44v-.21c0-16.32,11.61-30,27.83-30,10.35,0,16.63,3.45,22.28,8.37l5.34-6.28c-7.32-6.17-15-9.73-27.3-9.73-22,0-36.72,17.79-36.72,37.87v.21c0,20.92,14.23,37.66,37.24,37.66a44.37,44.37,0,0,0,29.4-11.19V73H240.54Z" transform="translate(-63.75 -37.54)"/><path class="cls-14" d="M680,74.73c-1.88-2.36-2-4.88-.25-6.81l28.5-29.07H697.56L655.51,82.58V38.84h-8.27v73.23h8.27V92.41l15.58-15.8,28.14,35.46h10.36l-27.16-34.2s-.5-.72-2.44-3.15" transform="translate(-63.75 -37.54)"/><path class="cls-14" d="M441.89,99.84,421.8,38.64H415l-20.09,61.2L374,38.84h-9l26.16,73.75h6.9l18.43-54.23a1.84,1.84,0,0,1,1.76-1.22A1.82,1.82,0,0,1,420,58.36l18.34,54.24h7L471.5,38.84h-8.68Z" transform="translate(-63.75 -37.54)"/><path class="cls-14" d="M629.57,61v-.21a20.22,20.22,0,0,0-5.65-14.44c-4.6-4.6-11.82-7.33-20.82-7.33H571.61v73.23h8.27V51.61a5,5,0,0,1,4.93-5h17.67c11.82,0,18.73,5.44,18.73,14.44v.21c0,8.54-6.48,13.71-15.86,14.9l-.54.09c-2.64.34-5.64.51-9.15.65l21.2,28.38,5.18,6.94h10.15L609.69,82.31c11.51-2.09,19.88-9.21,19.88-21.34" transform="translate(-63.75 -37.54)"/></svg>