<?xml version="1.0" encoding="UTF-8" standalone="no"?>
<svg width="60px" height="60px" viewBox="0 0 60 60" version="1.1" xmlns="http://www.w3.org/2000/svg" xmlns:xlink="http://www.w3.org/1999/xlink">
    <!-- Generator: Sketch 3.8.3 (29802) - http://www.bohemiancoding.com/sketch -->
    <title>ic-banner</title>
    <desc>Created with Sketch.</desc>
    <defs></defs>
    <g id="logoworks" stroke="none" stroke-width="1" fill="none" fill-rule="evenodd">
        <g id="ic-colour" transform="translate(-409.000000, -233.000000)">
            <g id="ic-banner" transform="translate(409.000000, 233.000000)">
                <rect id="Rectangle-431-Copy-16" fill-opacity="0" fill="#FF5D5D" x="0" y="0" width="60" height="60"></rect>
                <polygon id="Rectangle-179" stroke="#4B5C65" fill="#66D6E3" points="9 5 27 5 27 28 18 25.4285714 9 28"></polygon>
                <rect id="Rectangle-441" fill="#4B5C65" x="11" y="18" width="12" height="1"></rect>
                <circle id="Oval-68" fill="#4B5C65" cx="18" cy="12" r="3"></circle>
                <rect id="Rectangle-441-Copy" fill="#4B5C65" x="11" y="20" width="5" height="1"></rect>
                <rect id="Rectangle-443" stroke="#4B5C65" fill="#F1F5F8" x="34" y="5" width="16" height="50"></rect>
                <rect id="Rectangle-441" fill="#4B5C65" x="37" y="47" width="10" height="1"></rect>
                <rect id="Rectangle-448" fill="#66D6E3" x="37" y="8" width="10" height="33"></rect>
                <rect id="Rectangle-441-Copy" fill="#4B5C65" x="37" y="49" width="5" height="1"></rect>
                <rect id="Rectangle-441" fill="#4B5C65" x="37" y="43" width="6" height="1"></rect>
                <rect id="Rectangle-441-Copy" fill="#4B5C65" x="37" y="45" width="8" height="1"></rect>
                <rect id="Rectangle-449" stroke="#4B5C65" fill="#66D6E3" x="9" y="33" width="18" height="22"></rect>
                <rect id="Rectangle-441" fill="#4B5C65" x="11" y="39" width="10" height="1"></rect>
                <rect id="Rectangle-441" fill="#4B5C65" x="11" y="35" width="6" height="1"></rect>
                <rect id="Rectangle-441-Copy" fill="#4B5C65" x="11" y="37" width="8" height="1"></rect>
                <rect id="Rectangle-441" fill="#4B5C65" x="11" y="51" width="10" height="1"></rect>
                <rect id="Rectangle-441" fill="#4B5C65" x="11" y="47" width="9" height="1"></rect>
                <rect id="Rectangle-441-Copy" fill="#4B5C65" x="11" y="49" width="8" height="1"></rect>
                <rect id="Rectangle-456" fill="#4B5C65" x="11" y="42" width="14" height="3"></rect>
            </g>
        </g>
    </g>
</svg>