<?xml version="1.0" encoding="UTF-8" standalone="no"?>
<svg width="60px" height="60px" viewBox="0 0 60 60" version="1.1" xmlns="http://www.w3.org/2000/svg" xmlns:xlink="http://www.w3.org/1999/xlink">
    <!-- Generator: Sketch 3.8.3 (29802) - http://www.bohemiancoding.com/sketch -->
    <title>ic-bookcover</title>
    <desc>Created with Sketch.</desc>
    <defs>
        <path d="M16,9 L43.7696334,9 C45.0014309,9 46,9.90185079 46,11.0028592 L46,44.9971408 C46,46.1032894 45.0018463,47 43.7696334,47 L16,47" id="path-1"></path>
        <mask id="mask-2" maskContentUnits="userSpaceOnUse" maskUnits="objectBoundingBox" x="-1" y="-1" width="32" height="40">
            <rect x="15" y="8" width="32" height="40" fill="white"></rect>
            <use xlink:href="#path-1" fill="black"></use>
        </mask>
    </defs>
    <g id="logoworks" stroke="none" stroke-width="1" fill="none" fill-rule="evenodd">
        <g id="ic-colour" transform="translate(-328.000000, -143.000000)">
            <g id="ic-bookcover" transform="translate(328.000000, 143.000000)">
                <rect id="Rectangle-431-Copy-9" fill-opacity="0" fill="#FF5D5D" x="0" y="0" width="60" height="60"></rect>
                <rect id="Rectangle-177-Copy" stroke="#4B5C65" fill="#F1F5F8" x="13" y="40" width="34" height="10" rx="1"></rect>
                <g id="Rectangle-177-Copy-2">
                    <use fill="#F1F5F8" fill-rule="evenodd" xlink:href="#path-1"></use>
                    <use stroke="#4B5C65" mask="url(#mask-2)" stroke-width="2" xlink:href="#path-1"></use>
                </g>
                <rect id="Rectangle-177" stroke="#4B5C65" fill="#9FB0BD" x="13" y="6" width="34" height="38"></rect>
                <rect id="Rectangle-139" stroke="#4B5C65" fill="#6CE7B2" x="22" y="17" width="12" height="12"></rect>
                <circle id="Oval-19" stroke="#4B5C65" fill="#F2B835" cx="34" cy="29" r="5"></circle>
                <polygon id="Rectangle-179" stroke="#4B5C65" fill="#F1555F" points="19 47.5 25 47.5 25 54.5 22 53.5 19 54.5"></polygon>
            </g>
        </g>
    </g>
</svg>