<?xml version="1.0" encoding="UTF-8" standalone="no"?>
<svg width="60px" height="60px" viewBox="0 0 60 60" version="1.1" xmlns="http://www.w3.org/2000/svg" xmlns:xlink="http://www.w3.org/1999/xlink">
    <!-- Generator: Sketch 3.8.3 (29802) - http://www.bohemiancoding.com/sketch -->
    <title>ic-brochure</title>
    <desc>Created with Sketch.</desc>
    <defs></defs>
    <g id="logoworks" stroke="none" stroke-width="1" fill="none" fill-rule="evenodd">
        <g id="ic-colour" transform="translate(-231.000000, -143.000000)">
            <g id="ic-brochure" transform="translate(231.000000, 143.000000)">
                <rect id="Rectangle-431-Copy-8" fill-opacity="0" fill="#FF5D5D" x="0" y="0" width="60" height="60"></rect>
                <polygon id="Rectangle-161" stroke="#4B5C65" stroke-linecap="round" stroke-linejoin="round" fill="#9FB0BD" points="4 11 21 7 21 49 4 53"></polygon>
                <polygon id="Rectangle-161-Copy" stroke="#4B5C65" stroke-linecap="round" stroke-linejoin="round" fill="#D3DFE6" points="21 7 38 11 38 53 21 49"></polygon>
                <rect id="Rectangle-161-Copy-2" stroke="#4B5C65" stroke-linecap="round" stroke-linejoin="round" fill="#F1F5F8" x="38" y="11" width="17" height="42"></rect>
                <rect id="Rectangle-164" stroke="#4B5C65" fill="#9FB0BD" x="41" y="45" width="3" height="3"></rect>
                <rect id="Rectangle-165" fill="#4B5C65" x="47" y="44" width="6" height="1"></rect>
                <rect id="Rectangle-165-Copy" fill="#4B5C65" x="47" y="46" width="6" height="1"></rect>
                <rect id="Rectangle-165-Copy-2" fill="#4B5C65" x="47" y="48" width="6" height="1"></rect>
                <rect id="Rectangle-165" fill="#4B5C65" x="40" y="15" width="13" height="1"></rect>
                <rect id="Rectangle-165-Copy-3" fill="#4B5C65" x="40" y="24" width="13" height="1"></rect>
                <rect id="Rectangle-165-Copy" fill="#4B5C65" x="40" y="17" width="13" height="1"></rect>
                <rect id="Rectangle-165-Copy-4" fill="#4B5C65" x="40" y="26" width="13" height="1"></rect>
                <rect id="Rectangle-165-Copy-5" fill="#4B5C65" x="40" y="28" width="10" height="1"></rect>
                <rect id="Rectangle-165-Copy-2" fill="#4B5C65" x="40" y="19" width="7" height="1"></rect>
                <polygon id="Rectangle-174" stroke="#4B5C65" stroke-linecap="round" stroke-linejoin="round" fill="#6CE7B2" points="24 11 35 14 35 31 24 28"></polygon>
                <polygon id="Rectangle-174-Copy-2" stroke="#4B5C65" stroke-linecap="round" stroke-linejoin="round" fill="#F2B835" transform="translate(12.500000, 29.750000) scale(-1, 1) translate(-12.500000, -29.750000) " points="7 11 18 13.5 18 48.5 7 46"></polygon>
                <polygon id="Rectangle-174-Copy" stroke="#4B5C65" stroke-linecap="round" stroke-linejoin="round" fill="#F18848" points="24 33 35 36 35 48 24 45"></polygon>
            </g>
        </g>
    </g>
</svg>