<?xml version="1.0" encoding="UTF-8" standalone="no"?>
<svg width="60px" height="60px" viewBox="0 0 60 60" version="1.1" xmlns="http://www.w3.org/2000/svg" xmlns:xlink="http://www.w3.org/1999/xlink">
    <!-- Generator: Sketch 3.8.3 (29802) - http://www.bohemiancoding.com/sketch -->
    <title>ic-icon</title>
    <desc>Created with Sketch.</desc>
    <defs></defs>
    <g id="logoworks" stroke="none" stroke-width="1" fill="none" fill-rule="evenodd">
        <g id="ic-colour" transform="translate(-326.000000, -327.000000)">
            <g id="ic-icon" transform="translate(326.000000, 327.000000)">
                <rect id="Rectangle-431-Copy-21" fill-opacity="0" fill="#FF5D5D" x="0" y="0" width="60" height="60"></rect>
                <rect id="Rectangle-559" stroke="#4B5C65" stroke-linejoin="round" fill="#D3DFE6" x="14" y="4" width="32" height="54"></rect>
                <path d="M24,17 C24,19.4 23.4,20 21,20 C18.6,20 18,19.4 18,17 C18,14.6 18.6,14 21,14 C23.4,14 24,14.6 24,17 Z" id="Page-1-Copy-5" stroke="#4B5C65" fill="#9FB0BD"></path>
                <path d="M33,17 C33,19.4 32.4,20 30,20 C27.6,20 27,19.4 27,17 C27,14.6 27.6,14 30,14 C32.4,14 33,14.6 33,17 Z" id="Page-1-Copy-6" stroke="#4B5C65" fill="#9FB0BD"></path>
                <path d="M42,17 C42,19.4 41.4,20 39,20 C36.6,20 36,19.4 36,17 C36,14.6 36.6,14 39,14 C41.4,14 42,14.6 42,17 Z" id="Page-1-Copy-7" stroke="#4B5C65" fill="#9FB0BD"></path>
                <path d="M24,26 C24,28.4 23.4,29 21,29 C18.6,29 18,28.4 18,26 C18,23.6 18.6,23 21,23 C23.4,23 24,23.6 24,26 Z" id="Page-1-Copy-10" stroke="#4B5C65" fill="#9FB0BD"></path>
                <path d="M33,26 C33,28.4 32.4,29 30,29 C27.6,29 27,28.4 27,26 C27,23.6 27.6,23 30,23 C32.4,23 33,23.6 33,26 Z" id="Page-1-Copy-9" stroke="#4B5C65" fill="#F18848"></path>
                <path d="M42,26 C42,28.4 41.4,29 39,29 C36.6,29 36,28.4 36,26 C36,23.6 36.6,23 39,23 C41.4,23 42,23.6 42,26 Z" id="Page-1-Copy-8" stroke="#4B5C65" fill="#9FB0BD"></path>
                <path d="M24,35 C24,37.4 23.4,38 21,38 C18.6,38 18,37.4 18,35 C18,32.6 18.6,32 21,32 C23.4,32 24,32.6 24,35 Z" id="Page-1-Copy-13" stroke="#4B5C65" fill="#9FB0BD"></path>
                <path d="M33,35 C33,37.4 32.4,38 30,38 C27.6,38 27,37.4 27,35 C27,32.6 27.6,32 30,32 C32.4,32 33,32.6 33,35 Z" id="Page-1-Copy-12" stroke="#4B5C65" fill="#9FB0BD"></path>
                <path d="M42,35 C42,37.4 41.4,38 39,38 C36.6,38 36,37.4 36,35 C36,32.6 36.6,32 39,32 C41.4,32 42,32.6 42,35 Z" id="Page-1-Copy-11" stroke="#4B5C65" fill="#9FB0BD"></path>
                <rect id="Rectangle-560" stroke="#4B5C65" stroke-linejoin="round" fill="#66D6E3" x="14" y="48" width="32" height="10"></rect>
                <rect id="Rectangle-560-Copy" stroke="#4B5C65" stroke-linejoin="round" fill="#66D6E3" x="14" y="3" width="32" height="7"></rect>
                <circle id="Oval-87" stroke="#4B5C65" fill="#56C3D0" cx="30" cy="53" r="2"></circle>
                <rect id="Rectangle-562" fill="#4B5C65" x="30" y="6" width="6" height="1"></rect>
                <circle id="Oval-88" fill="#4B5C65" cx="27.5" cy="6.5" r="0.5"></circle>
            </g>
        </g>
    </g>
</svg>