<?xml version="1.0" encoding="UTF-8" standalone="no"?>
<svg width="60px" height="60px" viewBox="0 0 60 60" version="1.1" xmlns="http://www.w3.org/2000/svg" xmlns:xlink="http://www.w3.org/1999/xlink">
    <!-- Generator: Sketch 3.8.3 (29802) - http://www.bohemiancoding.com/sketch -->
    <title>ic-infographics</title>
    <desc>Created with Sketch.</desc>
    <defs></defs>
    <g id="logoworks" stroke="none" stroke-width="1" fill="none" fill-rule="evenodd">
        <g id="ic-colour" transform="translate(-505.000000, -143.000000)">
            <g id="ic-infographics" transform="translate(505.000000, 143.000000)">
                <rect id="Rectangle-431-Copy-11" fill-opacity="0" fill="#FF5D5D" x="0" y="0" width="60" height="60"></rect>
                <rect id="Rectangle-144" stroke="#4B5C65" fill="#F1F5F8" x="12" y="7" width="36" height="46"></rect>
                <g id="Group-26" transform="translate(16.000000, 12.000000)">
                    <circle id="Mask" stroke="#4B5C65" fill="#FBFBFB" cx="4" cy="5" r="4"></circle>
                    <path d="M9,4 C9,1.790861 7.209139,1.0658141e-14 5,1.0658141e-14 L5,4 L9,4 Z" id="Combined-Shape" fill="#F1555F"></path>
                </g>
                <rect id="Rectangle-432" fill="#4B5C65" x="28" y="15" width="16" height="1"></rect>
                <rect id="Rectangle-432-Copy" fill="#4B5C65" x="28" y="17" width="8" height="1"></rect>
                <rect id="Rectangle-432-Copy-2" fill="#4B5C65" x="16" y="25" width="28" height="1"></rect>
                <rect id="Rectangle-432-Copy-3" fill="#4B5C65" x="16" y="27" width="12" height="1"></rect>
                <rect id="Rectangle-432-Copy-4" fill="#4B5C65" x="32" y="48" width="7" height="1"></rect>
                <rect id="Rectangle-432-Copy-5" fill="#4B5C65" x="32" y="46" width="12" height="1"></rect>
                <rect id="Rectangle-432-Copy-6" fill="#4B5C65" x="32" y="44" width="12" height="1"></rect>
                <rect id="Rectangle-436" fill="#66D6E3" x="16" y="39" width="4" height="10"></rect>
                <rect id="Rectangle-436-Copy" fill="#F2B835" x="21" y="44" width="4" height="5"></rect>
                <rect id="Rectangle-436-Copy-2" fill="#6CE7B2" x="26" y="42" width="4" height="7"></rect>
            </g>
        </g>
    </g>
</svg>