<?xml version="1.0" encoding="UTF-8" standalone="no"?>
<svg width="60px" height="60px" viewBox="0 0 60 60" version="1.1" xmlns="http://www.w3.org/2000/svg" xmlns:xlink="http://www.w3.org/1999/xlink">
    <!-- Generator: Sketch 3.8.3 (29802) - http://www.bohemiancoding.com/sketch -->
    <title>ic-landingpage</title>
    <desc>Created with Sketch.</desc>
    <defs>
        <rect id="path-1" x="5" y="34" width="10" height="1"></rect>
        <mask id="mask-2" maskContentUnits="userSpaceOnUse" maskUnits="objectBoundingBox" x="0" y="0" width="10" height="1" fill="white">
            <use xlink:href="#path-1"></use>
        </mask>
        <rect id="path-3" x="5" y="37" width="20" height="1"></rect>
        <mask id="mask-4" maskContentUnits="userSpaceOnUse" maskUnits="objectBoundingBox" x="0" y="0" width="20" height="1" fill="white">
            <use xlink:href="#path-3"></use>
        </mask>
        <rect id="path-5" x="5" y="40" width="20" height="1"></rect>
        <mask id="mask-6" maskContentUnits="userSpaceOnUse" maskUnits="objectBoundingBox" x="0" y="0" width="20" height="1" fill="white">
            <use xlink:href="#path-5"></use>
        </mask>
        <rect id="path-7" x="5" y="43" width="10" height="1"></rect>
        <mask id="mask-8" maskContentUnits="userSpaceOnUse" maskUnits="objectBoundingBox" x="0" y="0" width="10" height="1" fill="white">
            <use xlink:href="#path-7"></use>
        </mask>
        <rect id="path-9" x="3" y="17" width="54" height="1"></rect>
        <mask id="mask-10" maskContentUnits="userSpaceOnUse" maskUnits="objectBoundingBox" x="0" y="0" width="54" height="1" fill="white">
            <use xlink:href="#path-9"></use>
        </mask>
    </defs>
    <g id="logoworks" stroke="none" stroke-width="1" fill="none" fill-rule="evenodd">
        <g id="ic-colour" transform="translate(-49.000000, -52.000000)">
            <g id="ic-landingpage" transform="translate(49.000000, 52.000000)">
                <rect id="Rectangle-431" fill-opacity="0" fill="#FF5D5D" x="0" y="0" width="60" height="60"></rect>
                <rect id="Rectangle-88" fill="#F1F5F8" x="3" y="11" width="54" height="7"></rect>
                <rect id="Rectangle-87" fill="#66D6E3" x="3" y="18" width="54" height="11"></rect>
                <rect id="Rectangle-87" fill="#F1F6F9" x="3" y="29" width="54" height="20"></rect>
                <rect id="Rectangle-82" stroke="#4B5C65" x="3" y="11" width="54" height="38"></rect>
                <use id="Rectangle-31-Copy" stroke="#4B5C65" mask="url(#mask-2)" stroke-width="2" xlink:href="#path-1"></use>
                <use id="Rectangle-31-Copy" stroke="#4B5C65" mask="url(#mask-4)" stroke-width="2" xlink:href="#path-3"></use>
                <use id="Rectangle-31-Copy" stroke="#4B5C65" mask="url(#mask-6)" stroke-width="2" xlink:href="#path-5"></use>
                <use id="Rectangle-31-Copy" stroke="#4B5C65" mask="url(#mask-8)" stroke-width="2" xlink:href="#path-7"></use>
                <path d="M29.3215191,35.0216077 L34.4027563,38.7123736 C34.8196743,39.0218865 35.7880505,39.2331661 38.0408158,38.522144 L38.0744508,38.5065514 L57.8534169,30.290816 C57.8698433,30.2837993 57.8854875,30.2728845 57.8972207,30.2596308 C58.7756427,29.2765181 59.1557968,28.4953293 58.9414712,28.110972 C58.8272685,27.8412202 58.4275591,27.3531722 56.5471259,27.2299907 C56.5127087,27.2354481 56.4556073,27.244024 56.4204079,27.2494814 L48.4496864,30.4132178 C47.6432277,30.7320863 46.7452504,30.7632715 45.9208009,30.5036549 L34.8024657,27 C34.4848884,27.0725055 34.2963757,27.1917889 34.2424032,27.3539518 C34.1508846,27.5582147 34.2361456,27.8591517 34.4481245,28.2201201 L38.9309709,31.0244473 C39.504331,31.3822973 39.9282889,31.9794934 39.9541018,32.6530933 C39.984608,33.4545524 39.5575213,34.1538801 38.8480566,34.4937985 L37.2202773,35.2703095 C36.1854133,35.7645945 34.9901961,35.8027964 33.9256081,35.3763391 L30.1960301,33.882569 C29.4091267,33.7476931 29.0993714,33.8622986 29.038359,33.9535153 C28.9765644,34.0330375 28.9421472,34.3191615 29.3215191,35.0216077 L29.3215191,35.0216077 Z" id="Fill-25" stroke="#4B5C65" fill="#66D6E3"></path>
                <circle id="Oval-5" fill="#F1555F" cx="6" cy="14" r="1"></circle>
                <circle id="Oval-5-Copy" fill="#F2B835" cx="10" cy="14" r="1"></circle>
                <circle id="Oval-5-Copy-2" fill="#6CE7B2" cx="14" cy="14" r="1"></circle>
                <use id="Rectangle-31" stroke="#4B5C65" mask="url(#mask-10)" stroke-width="2" xlink:href="#path-9"></use>
            </g>
        </g>
    </g>
</svg>