<?xml version="1.0" encoding="UTF-8" standalone="no"?>
<svg width="60px" height="60px" viewBox="0 0 60 60" version="1.1" xmlns="http://www.w3.org/2000/svg" xmlns:xlink="http://www.w3.org/1999/xlink">
    <!-- Generator: Sketch 3.8.3 (29802) - http://www.bohemiancoding.com/sketch -->
    <title>ic-poster</title>
    <desc>Created with Sketch.</desc>
    <defs></defs>
    <g id="logoworks" stroke="none" stroke-width="1" fill="none" fill-rule="evenodd">
        <g id="ic-colour" transform="translate(-326.000000, -233.000000)">
            <g id="ic-poster" transform="translate(326.000000, 233.000000)">
                <rect id="Rectangle-431-Copy-15" fill-opacity="0" fill="#FF5D5D" x="0" y="0" width="60" height="60"></rect>
                <rect id="Rectangle-144" stroke="#4B5C65" fill="#F1F5F8" x="12" y="7" width="36" height="46"></rect>
                <polygon id="Triangle-19" stroke="#4B5C65" fill="#6B7A85" points="23 22 30 32 16 32"></polygon>
                <polygon id="Triangle-19-Copy" stroke="#4B5C65" fill="#6B7A85" points="30 25 35 32 25 32"></polygon>
                <polygon id="Triangle-19-Copy-2" stroke="#4B5C65" fill="#6B7A85" points="37 22 44 32 30 32"></polygon>
                <rect id="Rectangle-158" fill="#4B5C65" x="16" y="44" width="18" height="1"></rect>
                <rect id="Rectangle-158-Copy" fill="#4B5C65" x="16" y="46" width="18" height="1"></rect>
                <rect id="Rectangle-158-Copy-2" fill="#4B5C65" x="16" y="48" width="12" height="1"></rect>
                <circle id="Oval-67" fill="#F18848" cx="37" cy="15" r="3"></circle>
                <path d="M33,15.5 C33,15.2238576 33.2224731,15 33.5096658,15 L41.4903342,15 C41.7718148,15 42,15.2319336 42,15.5 C42,15.7761424 41.7775269,16 41.4903342,16 L33.5096658,16 C33.2281852,16 33,15.7680664 33,15.5 Z M28,16.5 C28,16.2238576 28.2224731,16 28.5096658,16 L36.4903342,16 C36.7718148,16 37,16.2319336 37,16.5 C37,16.7761424 36.7775269,17 36.4903342,17 L28.5096658,17 C28.2281852,17 28,16.7680664 28,16.5 Z M28,14.5 C28,14.2238576 28.2224731,14 28.5096658,14 L36.4903342,14 C36.7718148,14 37,14.2319336 37,14.5 C37,14.7761424 36.7775269,15 36.4903342,15 L28.5096658,15 C28.2281852,15 28,14.7680664 28,14.5 Z" id="Combined-Shape" fill="#66D6E3"></path>
            </g>
        </g>
    </g>
</svg>