<?xml version="1.0" encoding="UTF-8" standalone="no"?>
<svg width="60px" height="60px" viewBox="0 0 60 60" version="1.1" xmlns="http://www.w3.org/2000/svg" xmlns:xlink="http://www.w3.org/1999/xlink">
    <!-- Generator: Sketch 3.8.3 (29802) - http://www.bohemiancoding.com/sketch -->
    <title>ic-stationery</title>
    <desc>Created with Sketch.</desc>
    <defs>
        <rect id="path-1" x="15" y="9" width="8" height="1"></rect>
        <mask id="mask-2" maskContentUnits="userSpaceOnUse" maskUnits="objectBoundingBox" x="0" y="0" width="8" height="1" fill="white">
            <use xlink:href="#path-1"></use>
        </mask>
        <rect id="path-3" x="15" y="12" width="14" height="1"></rect>
        <mask id="mask-4" maskContentUnits="userSpaceOnUse" maskUnits="objectBoundingBox" x="0" y="0" width="14" height="1" fill="white">
            <use xlink:href="#path-3"></use>
        </mask>
    </defs>
    <g id="logoworks" stroke="none" stroke-width="1" fill="none" fill-rule="evenodd">
        <g id="ic-colour" transform="translate(-409.000000, -52.000000)">
            <g id="ic-stationery" transform="translate(409.000000, 52.000000)">
                <rect id="Rectangle-431-Copy-4" fill-opacity="0" fill="#FF5D5D" x="0" y="0" width="60" height="60"></rect>
                <rect id="Rectangle-134-Copy-4" fill="#D3DFE6" x="15" y="11" width="38" height="46"></rect>
                <rect id="Rectangle-144" stroke="#4B5C65" fill="#F1F5F8" x="12" y="6" width="36" height="46"></rect>
                <use id="Rectangle-31-Copy" stroke="#4B5C65" mask="url(#mask-2)" stroke-width="2" xlink:href="#path-1"></use>
                <use id="Rectangle-31-Copy" stroke="#4B5C65" mask="url(#mask-4)" stroke-width="2" xlink:href="#path-3"></use>
                <rect id="Rectangle-139" stroke="#4B5C65" fill="#6CE7B2" x="39" y="9" width="6" height="6"></rect>
                <g id="mail" transform="translate(6.000000, 29.000000)">
                    <rect id="Rectangle-134-Copy" fill="#D3DFE6" x="8" y="0" width="30" height="20"></rect>
                    <rect id="Rectangle-61" stroke="#4B5C65" fill="#F1F5F8" x="0" y="0" width="36" height="18"></rect>
                    <rect id="Rectangle-139" stroke="#4B5C65" fill="#6CE7B2" x="3" y="11" width="4" height="4"></rect>
                    <polygon id="Triangle-2" stroke="#4B5C65" stroke-linecap="round" stroke-linejoin="round" fill="#F1F5F8" transform="translate(18.000000, 6.000000) scale(-1, -1) translate(-18.000000, -6.000000) " points="18 3.55271368e-15 36 12 1.42108547e-14 12"></polygon>
                </g>
            </g>
        </g>
    </g>
</svg>