<?xml version="1.0" encoding="UTF-8" standalone="no"?>
<svg width="60px" height="60px" viewBox="0 0 60 60" version="1.1" xmlns="http://www.w3.org/2000/svg" xmlns:xlink="http://www.w3.org/1999/xlink">
    <!-- Generator: Sketch 3.8.3 (29802) - http://www.bohemiancoding.com/sketch -->
    <title>ic-website</title>
    <desc>Created with Sketch.</desc>
    <defs>
        <rect id="path-1" x="3" y="7" width="54" height="38"></rect>
        <mask id="mask-2" maskContentUnits="userSpaceOnUse" maskUnits="objectBoundingBox" x="-1" y="-1" width="56" height="40">
            <rect x="2" y="6" width="56" height="40" fill="white"></rect>
            <use xlink:href="#path-1" fill="black"></use>
        </mask>
        <path d="M23,52 C24.5771708,51 26.674394,48.7136028 26.5502645,46 L33.4560924,46 C33.3279611,48.7585505 35.4291861,51 36,52 C37.4022798,52 37.8523272,53.1634083 37.8523272,53.1634083 C38.1486277,53.6254451 37.940235,54 37.3899312,54 L22.6164257,54 C22.064751,54 21.8271648,53.5952702 22.0927171,53.1169491 C22.0927171,53.1169491 22.6064857,52 23,52 Z" id="path-3"></path>
        <mask id="mask-4" maskContentUnits="userSpaceOnUse" maskUnits="objectBoundingBox" x="-1" y="-1" width="18.0033964" height="10">
            <rect x="20.9838381" y="45" width="18.0033964" height="10" fill="white"></rect>
            <use xlink:href="#path-3" fill="black"></use>
        </mask>
        <rect id="path-5" x="23" y="51" width="13" height="1"></rect>
        <mask id="mask-6" maskContentUnits="userSpaceOnUse" maskUnits="objectBoundingBox" x="0" y="0" width="13" height="1" fill="white">
            <use xlink:href="#path-5"></use>
        </mask>
        <rect id="path-7" x="2" y="36" width="56" height="1"></rect>
        <mask id="mask-8" maskContentUnits="userSpaceOnUse" maskUnits="objectBoundingBox" x="0" y="0" width="56" height="1" fill="white">
            <use xlink:href="#path-7"></use>
        </mask>
        <rect id="path-9" x="8" y="17" width="10" height="1"></rect>
        <mask id="mask-10" maskContentUnits="userSpaceOnUse" maskUnits="objectBoundingBox" x="0" y="0" width="10" height="1" fill="white">
            <use xlink:href="#path-9"></use>
        </mask>
        <rect id="path-11" x="8" y="20" width="20" height="1"></rect>
        <mask id="mask-12" maskContentUnits="userSpaceOnUse" maskUnits="objectBoundingBox" x="0" y="0" width="20" height="1" fill="white">
            <use xlink:href="#path-11"></use>
        </mask>
        <rect id="path-13" x="8" y="23" width="20" height="1"></rect>
        <mask id="mask-14" maskContentUnits="userSpaceOnUse" maskUnits="objectBoundingBox" x="0" y="0" width="20" height="1" fill="white">
            <use xlink:href="#path-13"></use>
        </mask>
        <rect id="path-15" x="8" y="26" width="10" height="1"></rect>
        <mask id="mask-16" maskContentUnits="userSpaceOnUse" maskUnits="objectBoundingBox" x="0" y="0" width="10" height="1" fill="white">
            <use xlink:href="#path-15"></use>
        </mask>
        <circle id="path-17" cx="7.5" cy="7.5" r="7.5"></circle>
    </defs>
    <g id="logoworks" stroke="none" stroke-width="1" fill="none" fill-rule="evenodd">
        <g id="ic-colour" transform="translate(-52.000000, -233.000000)">
            <g id="ic-website" transform="translate(52.000000, 233.000000)">
                <rect id="Rectangle-431-Copy-12" fill-opacity="0" fill="#FF5D5D" x="0" y="0" width="60" height="60"></rect>
                <g id="Rectangle-29">
                    <use fill="#66D6E3" fill-rule="evenodd" xlink:href="#path-1"></use>
                    <use stroke="#4B5C65" mask="url(#mask-2)" stroke-width="2" xlink:href="#path-1"></use>
                </g>
                <rect id="Rectangle-59" fill="#F1F6F9" x="3" y="37" width="54" height="8"></rect>
                <circle id="Oval-2" fill="#56C3D0" cx="30" cy="41" r="1"></circle>
                <g id="Rectangle-29-Copy">
                    <use fill="#F1F6F9" fill-rule="evenodd" xlink:href="#path-3"></use>
                    <use stroke="#4B5C65" mask="url(#mask-4)" stroke-width="2" xlink:href="#path-3"></use>
                </g>
                <polygon id="Rectangle-59" fill="#D3DFE6" points="26.5300293 46 33.5350952 46 34.0143433 48.9223633"></polygon>
                <polygon id="Rectangle-60" fill="#56C3D0" points="39 7 57 7 57 36 24 36"></polygon>
                <use id="Rectangle-31" stroke="#4B5C65" mask="url(#mask-6)" stroke-width="2" xlink:href="#path-5"></use>
                <use id="Rectangle-31" stroke="#4B5C65" mask="url(#mask-8)" stroke-width="2" xlink:href="#path-7"></use>
                <use id="Rectangle-31-Copy" stroke="#4B5C65" mask="url(#mask-10)" stroke-width="2" xlink:href="#path-9"></use>
                <use id="Rectangle-31-Copy" stroke="#4B5C65" mask="url(#mask-12)" stroke-width="2" xlink:href="#path-11"></use>
                <use id="Rectangle-31-Copy" stroke="#4B5C65" mask="url(#mask-14)" stroke-width="2" xlink:href="#path-13"></use>
                <use id="Rectangle-31-Copy" stroke="#4B5C65" mask="url(#mask-16)" stroke-width="2" xlink:href="#path-15"></use>
                <g id="Group-28" transform="translate(37.000000, 14.000000)">
                    <mask id="mask-18" fill="white">
                        <use xlink:href="#path-17"></use>
                    </mask>
                    <use id="Oval-61" stroke="#4B5C65" fill="#F1F6F9" xlink:href="#path-17"></use>
                    <circle id="Oval-61-Copy" stroke="#4B5C65" mask="url(#mask-18)" cx="3.75" cy="7.5" r="7.5"></circle>
                    <circle id="Oval-61-Copy-3" stroke="#4B5C65" mask="url(#mask-18)" cx="7.5" cy="-10" r="15"></circle>
                    <circle id="Oval-61-Copy-3" stroke="#4B5C65" mask="url(#mask-18)" cx="7.5" cy="26.25" r="15"></circle>
                    <circle id="Oval-61-Copy-2" stroke="#4B5C65" mask="url(#mask-18)" cx="11.25" cy="7.5" r="7.5"></circle>
                    <path d="M7.5,0 L7.5,15" id="Line" stroke="#4B5C65" mask="url(#mask-18)"></path>
                    <path d="M15,8.125 L0,8.125" id="Line" stroke="#4B5C65" mask="url(#mask-18)"></path>
                </g>
            </g>
        </g>
    </g>
</svg>