<?xml version="1.0" encoding="UTF-8" standalone="no"?>
<svg width="30px" height="20px" viewBox="0 0 30 20" version="1.1" xmlns="http://www.w3.org/2000/svg" xmlns:xlink="http://www.w3.org/1999/xlink">
    <!-- Generator: Sketch 39 (31667) - http://www.bohemiancoding.com/sketch -->
    <title>paypal</title>
    <desc>Created with Sketch.</desc>
    <defs>
        <rect id="path-1" x="0" y="0" width="30" height="20" rx="2"></rect>
        <mask id="mask-2" maskContentUnits="userSpaceOnUse" maskUnits="objectBoundingBox" x="0" y="0" width="30" height="20" fill="white">
            <use xlink:href="#path-1"></use>
        </mask>
    </defs>
    <g id="UI" stroke="none" stroke-width="1" fill="none" fill-rule="evenodd">
        <g id="2-5-Logo-payment" transform="translate(-548.000000, -587.000000)">
            <g id="paypal" transform="translate(548.000000, 587.000000)">
                <use id="Rectangle-1406" stroke="#9FB0BD" mask="url(#mask-2)" fill="#FBFBFB" xlink:href="#path-1"></use>
                <path d="M12.8528207,15 L11.54019,15 C11.2592743,15 11.0810863,14.77875 11.1444984,14.50875 L11.2098129,14.2275 L12.0868024,14.2275 C12.3683522,14.2275 12.6511702,14.005625 12.7133141,13.735625 L13.1622718,11.821875 C13.2256839,11.551875 13.5072337,11.330625 13.7881494,11.330625 L14.1610126,11.330625 C15.7628026,11.330625 17.0082165,11.0075 17.8985226,10.36 C18.7900969,9.7125 19.2352499,8.86125 19.2352499,7.80375 C19.2352499,7.339375 19.1528142,6.95125 18.9866744,6.64 C18.9841379,6.63375 18.9803332,6.62875 18.9777967,6.623125 C18.9955521,6.633125 19.0126734,6.643125 19.0297947,6.654375 C19.3449529,6.848125 19.586553,7.10125 19.7514245,7.413125 C19.9175643,7.724375 20,8.113125 20,8.5775 C20,9.63375 19.554847,10.485625 18.6632727,11.13375 C17.7723325,11.780625 16.5275527,12.1025 14.9257627,12.1025 L14.5528995,12.1025 C14.2713497,12.1025 13.9897999,12.325 13.9263878,12.594375 L13.4786983,14.50875 C13.4152862,14.77875 13.1337364,15 12.8528207,15 L12.8528207,15 Z" id="Shape" fill="#179BD7"></path>
                <path d="M10.4082837,13.876875 C10.1280022,13.876875 9.94981416,13.65625 10.0125922,13.385625 L11.8616894,5.491875 C11.9251015,5.220625 12.2060172,5 12.4869328,5 L15.2199949,5 C15.8097276,5 16.3233657,5.040625 16.7628116,5.12 C17.2003552,5.199375 17.5795596,5.33625 17.8997908,5.5325 C18.2143149,5.72625 18.4565492,5.979375 18.6207865,6.290625 C18.785658,6.601875 18.869362,6.990625 18.869362,7.455625 C18.869362,8.511875 18.424209,9.361875 17.5326347,10.010625 C16.6429627,10.658125 15.3962806,10.98125 13.7957588,10.98125 L13.4216274,10.98125 C13.1413458,10.98125 12.8591619,11.201875 12.7963839,11.4725 L12.3480603,13.385 C12.2846482,13.65625 12.0024643,13.876875 11.7202804,13.876875 L10.4082837,13.876875 Z" id="Path" fill="#4978C8"></path>
            </g>
        </g>
    </g>
</svg>