<?xml version="1.0" encoding="UTF-8" standalone="no"?>
<svg width="150px" height="150px" viewBox="0 0 150 150" version="1.1" xmlns="http://www.w3.org/2000/svg" xmlns:xlink="http://www.w3.org/1999/xlink">
    <!-- Generator: Sketch 3.8.3 (29802) - http://www.bohemiancoding.com/sketch -->
    <title>box</title>
    <desc>Created with Sketch.</desc>
    <defs>
        <rect id="path-1" x="0" y="0" width="150" height="150" rx="30"></rect>
        <mask id="mask-2" maskContentUnits="userSpaceOnUse" maskUnits="objectBoundingBox" x="0" y="0" width="150" height="150" fill="white">
            <use xlink:href="#path-1"></use>
        </mask>
    </defs>
    <g id="UI" stroke="none" stroke-width="1" fill="none" fill-rule="evenodd">
        <g id="1-1-1-2-New-select-full" transform="translate(-271.000000, -539.000000)">
            <g id="Group-10-Copy" transform="translate(173.000000, 487.000000)">
                <g id="box" transform="translate(98.000000, 52.000000)">
                    <use id="Rectangle-8" stroke="#D3DFE6" mask="url(#mask-2)" stroke-width="2" fill="#F1F6F9" xlink:href="#path-1"></use>
                    <g id="ic/badge" transform="translate(45.000000, 45.000000)">
                        <g id="ic-badge">
                            <rect id="Rectangle-476" fill-opacity="0" fill="#FF5D5D" x="0" y="0" width="60" height="60"></rect>
                            <polygon id="Star-2" stroke="#4B5C65" fill="#6CE7B2" points="30 53.7089103 26.0891384 55.9455907 23.0471178 52.5853424 18.6502375 53.479513 16.7748322 49.3246214 12.3223305 48.7887545 11.7971181 44.2459292 7.7248369 42.3324794 8.60122895 37.8464038 5.30779149 34.7426727 7.5000006 30.7524752 5.30779149 26.7622778 8.60122895 23.6585467 7.7248369 19.1724711 11.7971181 17.2590213 12.3223305 12.716196 16.7748322 12.1803291 18.6502375 8.0254375 23.0471178 8.91960807 26.0891384 5.55935983 30 7.79604016 33.9108616 5.55935983 36.9528822 8.91960807 41.3497625 8.0254375 43.2251678 12.1803291 47.6776695 12.716196 48.2028819 17.2590213 52.2751631 19.1724711 51.398771 23.6585467 54.6922085 26.7622778 52.4999994 30.7524752 54.6922085 34.7426727 51.398771 37.8464038 52.2751631 42.3324794 48.2028819 44.2459292 47.6776695 48.7887545 43.2251678 49.3246214 41.3497625 53.479513 36.9528822 52.5853424 33.9108616 55.9455907"></polygon>
                            <rect id="Rectangle-66-Copy" stroke="#4B5C65" fill="#F1F5F8" x="11" y="11.5643564" width="38" height="38.3762376" rx="19"></rect>
                            <rect id="Rectangle-66-Copy" stroke="#4B5C65" x="14" y="14.5940594" width="32" height="32.3168317" rx="16"></rect>
                            <path d="M31.9503898,32.1018035 L30.0793763,27.0627747 C29.9872426,26.8392824 29.8915668,26.5738892 29.7923459,26.2665872 C29.6931249,25.9592853 29.5939055,25.6275438 29.4946846,25.2713529 C29.4025509,25.6275438 29.3068751,25.9610313 29.2076541,26.2718253 C29.1084332,26.5826194 29.0127574,26.8532506 28.9206237,27.083727 L27.060241,32.1018035 L31.9503898,32.1018035 Z M37,37.8217822 L34.7888023,37.8217822 C34.54075,37.8217822 34.3387676,37.7606719 34.182849,37.6384495 C34.0269305,37.5162272 33.9099933,37.3643245 33.832034,37.1827369 L32.6839121,34.0922723 L26.3160879,34.0922723 L25.167966,37.1827369 C25.1112683,37.3433721 25.0014182,37.4900367 24.8384125,37.6227353 C24.6754067,37.7554339 24.4734243,37.8217822 24.2324592,37.8217822 L22,37.8217822 L28.0489015,22.6732673 L30.9617293,22.6732673 L37,37.8217822 Z" id="A-Copy" fill="#4B5C65"></path>
                        </g>
                    </g>
                </g>
            </g>
        </g>
    </g>
</svg>