<svg id="Capa_1" data-name="Capa 1" xmlns="http://www.w3.org/2000/svg" viewBox="0 0 253 253"><title>adirondack</title><rect width="253" height="253" fill="#fff"/><rect x="83.77" y="87.63" width="81.18" height="81.18" transform="translate(-54.25 125.49) rotate(-45)" fill="#c26437"/><path d="M124.36,188.56,64,128.23l60.33-60.33,60.33,60.33ZM69.88,128.23l54.48,54.48,54.48-54.48L124.36,73.75Z" transform="translate(0 0)" fill="#7c5f47"/><path d="M146.35,101.34l-1.73-2.62-1.33.38L140,98.64l-2.53-1.91-3.42-2.83-1.38,1.35L128.78,92s-1.89,2.36-2.17,2.34-2.08-.44-2.08-.44v2.94l-5-2.94v2.26l-2.48-2.26-1.18,4-.47-3-2.83,3.66.71-2.34-1.42-.62-2.4,2.32-.65-2.32-2.61.72-1.78-.4-3.88,3.07-5,4.24,61.85-1-.83-.83Z" transform="translate(0 0)" fill="#7c5f47"/><path d="M108.86,95.55l.65,2.32,2.4-2.32,1.42.62-.71,2.34,2.83-3.66.47,3,1.18-4,2.48,2.26V93.91l5,2.94V93.91s1.8.42,2.08.44S128.78,92,128.78,92l3.93,3.24,1.38-1.35,3.42,2.83L140,98.64l3.25.45,1.33-.38-.57-.86L138.7,96.8,137,93.91l-2-3.19-2.29.83L131,90l-2.76-2.58-3.14,4.23-3.82-4.23-4.67,3.29-2.07,2.12-1.12-2.12-3.07,3.63-1.78-1.75-4.12,3.26,1.78.4Z" transform="translate(0 0)" fill="#fff"/><ellipse cx="123.61" cy="108.78" rx="35.41" ry="6.26" fill="#5ab9e5"/><path d="M164.27,169.51,89.39,106.34s-8.67-6.41-7-15.66,9.11-20.74,9.11-20.74,3-4.35-3.66-5.12c-4.48-.52-6.21-1-9.37,2.42s-6.78,20.69-6.86,27,8.12,11.7,8.12,11.7l82.68,67a2.41,2.41,0,0,0,3.2.14C167.13,171.72,166.52,171.44,164.27,169.51Z" transform="translate(0 0)" fill="#7c5f47"/><path d="M72.87,89.48A143.91,143.91,0,0,1,75.8,75.14l11,1.63L81.94,89.16Z" transform="translate(0 0)" fill="#fff"/><path d="M76.38,76.06l9.25,1.37L81.36,88.35l-7.5.27c.88-5.13,1.9-10.36,2.52-12.56m-1.07-1.83c-1,1.59-3.42,16.12-3.42,16.12L82.51,90,87.93,76.1,75.31,74.23Z" transform="translate(0 0)" fill="#7c5f47"/><polygon points="75.29 78.24 75.29 77.32 85.27 79.22 75.29 78.24" fill="#7c5f47"/><polygon points="84.92 79.96 75.29 79.96 84.41 81.07 84.92 79.96" fill="#7c5f47"/><polygon points="83.66 83.06 74.77 81.97 84.21 82.15 83.66 83.06" fill="#7c5f47"/><polygon points="82.92 84.55 74.77 83.06 74.37 84.15 82.92 84.55" fill="#7c5f47"/><polygon points="82.92 85.36 82.38 86.08 74.02 85.57 82.92 85.36" fill="#7c5f47"/><polygon points="74.02 86.79 73.75 87.43 82.28 86.79 74.02 86.79" fill="#7c5f47"/><path d="M84.45,169.51l74.87-63.18s8.67-6.41,7-15.66-9.11-20.74-9.11-20.74-3-4.35,3.66-5.12c4.48-.52,6.21-1,9.37,2.42s6.78,20.69,6.86,27-8.12,11.7-8.12,11.7l-82.68,67a2.41,2.41,0,0,1-3.2.14C81.59,171.72,82.2,171.44,84.45,169.51Z" transform="translate(0 0)" fill="#7c5f47"/><path d="M166.78,89.16l-4.84-12.39,11-1.63a143.69,143.69,0,0,1,2.93,14.35Z" transform="translate(0 0)" fill="#fff"/><path d="M172.34,76.06c.63,2.2,1.65,7.43,2.52,12.56l-7.5-.27-4.27-10.92,9.25-1.37m1.07-1.83L160.79,76.1,166.21,90l10.62.38s-2.38-14.53-3.42-16.12Z" transform="translate(0 0)" fill="#7c5f47"/><polygon points="173.43 78.24 173.43 77.32 163.45 79.22 173.43 78.24" fill="#7c5f47"/><polygon points="163.79 79.96 173.43 79.96 164.31 81.07 163.79 79.96" fill="#7c5f47"/><polygon points="165.06 83.06 173.94 81.97 164.51 82.15 165.06 83.06" fill="#7c5f47"/><polygon points="165.8 84.55 173.94 83.06 174.34 84.15 165.8 84.55" fill="#7c5f47"/><polygon points="165.8 85.36 166.34 86.08 174.7 85.57 165.8 85.36" fill="#7c5f47"/><polygon points="174.7 86.79 174.97 87.43 166.44 86.79 174.7 86.79" fill="#7c5f47"/><rect x="49.64" y="109.55" width="148.7" height="52.49" fill="#ffcf41"/><path d="M196.27,111.62V160H51.71V111.62H196.27m4.14-4.14H47.57v56.63H200.4V107.48Z" transform="translate(0 0)" fill="#7c5f47"/><rect x="52.53" y="112.44" width="142.9" height="46.7" fill="#ffcf41"/><path d="M194.61,113.27v45H53.36v-45H194.61m1.66-1.66H51.71V160H196.27V111.62Z" transform="translate(0 0)" fill="#fd9a2b"/><path d="M110.71,106.76l.38-.3-1.33-.44v-.12l.37-.25a5.61,5.61,0,0,1-.69-.37l-.11-.09H110l-1-.7h1.23c-.5-.45-.93-.82-1.35-1.21-.11-.1-.18-.23-.1-.34l.08,0,0-.08,0,0,0,0-.26-.38h.65l-.82-.55,0-.12h.82l-.39-.25.13.06,0-.1-.34-.42,0-.13h.75l-.87-.72,0-.16h.87a11.69,11.69,0,0,1-1-.84l.46,0-1-.53-.22-.25h.56l-.65-.71-.57-.34,0-.05.33-.08-.47-.53,0-.15c.16.06.32.13.49.18s.33.07.54.12l-1.39-1.35,0-.15.65-.34-.58-.24.06-.23-.89-.82,0-.17.52-.22-.56-.75h.27l-.92-2-.93,2,.25,0-.56.72.55.21,0,.17-.9.81.06.24-.58.25.67.34,0,.15-1.33,1.28v.08l1-.3,0,.15-.48.51.32.1-.66.4-.65.71h.62l-.15.18-1.13.6.58,0a6.84,6.84,0,0,1-.91.82H102l0,.14-.85.69V101h.73l0,.11-.39.4,0,.1.38-.17a5.75,5.75,0,0,1-.53.36h.75l0,.11-.8.53v.06h.58l-.24.35,0,0,0,0,0,.08.1,0,.09.06a3,3,0,0,1-1.56,1.3v.17h1.31a2.64,2.64,0,0,1-1.06.58v.13h.57l-.71.51.38.18V106l-1.37.44.33.25h0l.18.11h0l-.52.2.12.26-.85.25h12.83A1.67,1.67,0,0,1,110.71,106.76Z" transform="translate(0 0)" fill="#347863"/><path d="M103.89,107.05h0l-.38-.18,1.08-.61,0-.34-.25-.06.74-.8-.54.11a2.9,2.9,0,0,0,.54-.55l.26-.34-1.32.27a3.44,3.44,0,0,0,1-1.47l.06-.15-.24-.1.23-.52-.45.09.47-.47-.15-.32-.34.07.09-.1.86-1-.94.66.06-.09-.12-.3L104,101l.55-.68-.14-.34-.46.09a7.81,7.81,0,0,0,.45-.66l.18-.3-.34.06.53-.45.29-.55-.58.12.3-.5.81-.76-.44,0,.27-.45-.16-.37-.58.32.81-1.19-.12-.3-.47-.13.35-.24-.12-.26.71-1-.07-.17-.1-.16-.43-.07.42-.87h-.31l.23-1L105,92.45l.31.05-.59.76.41.15.06.18,0,.18-.9.8.06.27L104,95l.43.22.06.31-1,1,.63-.19.08.4-.36.39.42.13-1,.58-.39.43h.59l-.4.48-.61.33h.34l-.24.25a7.8,7.8,0,0,1-.57.55h.47l.07.36-.68.55h.53l.06.32-.08.08,1.05-.46-1,.79-.11.08h.35l.08.34-.55.36h.46l-.33.46.22.15-.09.13a3.44,3.44,0,0,1-1.3,1.23h1.35l-.32.28a2.9,2.9,0,0,1-.64.43h.55l-.89.64.23.11,0,.34-1.18.38.33.25h0l.12.09-.37.18-.22.09.13.27h3.53l.3-.23Z" transform="translate(0 0)" fill="#679a8a"/><path d="M104.6,106.56l.48-.38-1.7-.57v-.15l.47-.32a7.15,7.15,0,0,1-.88-.48l-.14-.11h.8l-1.23-.89H104c-.64-.57-1.18-1-1.72-1.55-.14-.13-.24-.29-.13-.43l.1,0,0-.1,0,0,.06,0-.33-.48h.82l-1-.7,0-.15h1.05l-.5-.32.16.07,0-.13-.44-.53,0-.17h1L102,98.24l0-.2h1.11A14.92,14.92,0,0,1,101.86,97l.59,0-1.27-.68-.28-.32h.71l-.83-.91-.72-.44,0-.07.43-.11-.6-.68.06-.19c.21.08.41.17.62.23s.42.09.69.15l-1.77-1.72,0-.19.83-.43-.74-.31.08-.29-1.13-1,.05-.22.67-.28-.72-1h.35L97.73,86l-1.19,2.53.32.05-.71.92.71.27,0,.22-1.14,1,.07.3-.74.31.85.43,0,.19-1.7,1.64v.1l1.25-.38,0,.19L95,94.4l.41.12-.85.51-.83.91h.79l-.19.23-1.44.77.74,0a8.71,8.71,0,0,1-1.16,1h1l0,.18-1.08.88v.11h.93l0,.14-.5.51,0,.13.49-.21a7.32,7.32,0,0,1-.68.46h1l0,.14-1,.68v.08h.73l-.31.44,0,0,0,0,0,.1.13,0,.12.08a3.88,3.88,0,0,1-2,1.66v.22h1.67a3.36,3.36,0,0,1-1.35.73v.17h.73l-.9.65.48.23v.17l-1.75.56.41.31h0l.23.14h0l-.66.26.16.34-1.09.32h16.35A2.13,2.13,0,0,1,104.6,106.56Z" transform="translate(0 0)" fill="#347863"/><path d="M95.9,106.93h0l-.48-.23,1.38-.78-.06-.44-.31-.08.94-1-.68.14a3.7,3.7,0,0,0,.69-.7l.33-.43-1.68.35a4.39,4.39,0,0,0,1.31-1.87l.08-.19-.31-.13.29-.66-.58.12.6-.6-.19-.4-.43.09.11-.13L98,98.73l-1.2.84.07-.11-.16-.38-.66.14.71-.86-.18-.44L96,98a10,10,0,0,0,.57-.84l.23-.38-.43.07.68-.57.38-.7-.74.15.38-.64,1-1-.56,0,.35-.57-.21-.48-.74.4L98,92l-.15-.38-.59-.16.44-.31-.15-.33.91-1.23-.09-.21-.12-.2-.55-.09.54-1.1h-.4l.3-1.25-.75,1.6.39.07-.75,1,.52.2.08.22,0,.23-1.14,1,.08.35-.5.21.55.28.07.4-1.32,1.27.8-.25.11.51-.46.49.54.16-1.21.73-.5.55h.75l-.51.61-.78.42.44,0-.31.32a9.93,9.93,0,0,1-.73.7h.59l.09.46-.87.7H94l.08.41-.1.1,1.34-.58L94,99.9l-.14.1h.44l.1.43-.7.46h.59l-.42.59.28.19-.11.17a4.39,4.39,0,0,1-1.66,1.57h1.72l-.41.35a3.7,3.7,0,0,1-.81.55h.7l-1.13.81.29.14,0,.44-1.51.48.43.32h0l.15.11-.47.22L91,107l.16.34h4.5l.38-.29Z" transform="translate(0 0)" fill="#679a8a"/><path d="M157.88,106.76l.38-.3-1.33-.44v-.12l.37-.25a5.61,5.61,0,0,1-.69-.37l-.11-.09h.63l-1-.7h1.23c-.5-.45-.93-.82-1.35-1.21-.11-.1-.18-.23-.1-.34l.08,0,0-.08,0,0,0,0-.26-.38h.65l-.82-.55,0-.12h.82l-.39-.25.13.06,0-.1-.34-.42,0-.13h.75l-.87-.72,0-.16h.87a11.71,11.71,0,0,1-1-.84l.46,0-1-.53-.22-.25h.56l-.65-.71-.57-.34,0-.05.33-.08-.47-.53,0-.15c.16.06.32.13.49.18s.33.07.54.12l-1.39-1.35,0-.15.65-.34-.58-.24.06-.23-.89-.82,0-.17.52-.22-.56-.75h.27l-.92-2-.93,2,.25,0-.56.72.55.21,0,.17-.9.81.06.24-.58.25.67.34,0,.15-1.33,1.28v.08l1-.3,0,.15-.48.51.32.1-.66.4-.65.71h.62l-.15.18-1.13.6.58,0a6.84,6.84,0,0,1-.91.82h.79l0,.14-.85.69V101H149l0,.11-.39.4,0,.1.38-.17a5.74,5.74,0,0,1-.53.36h.75l0,.11-.8.53v.06h.58l-.24.35,0,0,0,0,0,.08.1,0,.09.06a3,3,0,0,1-1.56,1.3v.17h1.31a2.64,2.64,0,0,1-1.06.58v.13h.57l-.71.51.38.18V106l-1.37.44.33.25h0l.18.11h0l-.52.2.12.26-.85.25h12.83A1.67,1.67,0,0,1,157.88,106.76Z" transform="translate(0 0)" fill="#347863"/><path d="M151,107.05h0l-.38-.18,1.08-.61,0-.34-.25-.06.74-.8-.54.11a2.9,2.9,0,0,0,.54-.55l.26-.34-1.32.27a3.44,3.44,0,0,0,1-1.47l.06-.15-.24-.1.23-.52-.45.09.47-.47-.15-.32-.34.07.09-.1.86-1-.94.66.06-.09-.12-.3-.52.11.55-.68-.14-.34-.46.09a7.81,7.81,0,0,0,.45-.66l.18-.3-.34.06.53-.45.29-.55-.58.12.3-.5.81-.76-.44,0,.27-.45-.16-.37-.58.32.81-1.19-.12-.3-.47-.13.35-.24-.12-.26.71-1-.07-.17-.1-.16-.43-.07.42-.87h-.31l.23-1-.59,1.26.31.05-.59.76.41.15.06.18,0,.18-.9.8.06.27-.39.16.43.22.06.31-1,1,.63-.19.09.4-.36.39.42.13-1,.58-.39.43h.59l-.4.48-.61.33H150l-.24.25a7.8,7.8,0,0,1-.58.55h.47l.07.36-.68.55h.53l.06.32-.08.08,1.05-.46-1,.79-.11.08h.35l.08.34-.55.36h.46l-.33.46.22.15-.09.13a3.45,3.45,0,0,1-1.3,1.23h1.35l-.32.28a2.9,2.9,0,0,1-.64.43h.55l-.89.64.23.11,0,.34-1.18.38.33.25h0l.12.09-.37.18-.22.09.13.27h3.53l.3-.23Z" transform="translate(0 0)" fill="#679a8a"/><path d="M140.79,107l.28-.22-1-.33v-.09l.27-.18a4.12,4.12,0,0,1-.5-.27l-.08-.07h.46l-.71-.51h.9c-.37-.33-.68-.6-1-.89-.08-.07-.14-.17-.07-.25l.06,0v-.06h0l0,0-.19-.28h.47l-.6-.4,0-.09h.6l-.29-.19.09,0v-.07l-.25-.31,0-.1h.55l-.64-.53,0-.11h.64a8.58,8.58,0,0,1-.72-.62h.34l-.73-.39-.16-.19h.41l-.48-.52-.42-.25v0l.25-.06-.35-.39,0-.11.36.13.4.09-1-1,0-.11.48-.25-.43-.18,0-.17-.65-.6,0-.13.38-.16-.41-.55h.2l-.67-1.46-.68,1.45.18,0-.41.53.41.15,0,.12-.66.59,0,.17-.43.18.49.25,0,.11-1,.94v.06l.72-.22,0,.11-.35.38.24.07-.49.3-.48.52H135l-.11.13-.83.44.43,0a5,5,0,0,1-.67.6h.58l0,.11-.62.51v.06h.53l0,.08-.29.29,0,.08.28-.12a4.22,4.22,0,0,1-.39.27h.55l0,.08-.59.39v0h.42l-.18.25,0,0,0,0,0,.06.07,0,.07,0a2.24,2.24,0,0,1-1.14,1v.12h1a1.94,1.94,0,0,1-.78.42v.1h.42l-.52.37.28.13v.1l-1,.32.24.18h0l.13.08h0l-.38.15.09.19-.63.18h9.42A1.22,1.22,0,0,1,140.79,107Z" transform="translate(0 0)" fill="#347863"/><path d="M135.78,107.17h0l-.28-.13.79-.45,0-.25-.18,0,.54-.59-.39.08a2.13,2.13,0,0,0,.4-.4l.19-.25-1,.2a2.53,2.53,0,0,0,.75-1.08l0-.11-.18-.07.17-.38-.33.07.34-.34-.11-.23-.25.05.07-.07.63-.72-.69.48,0-.07-.09-.22-.38.08.41-.5-.11-.25-.33.07a5.72,5.72,0,0,0,.33-.48l.13-.22-.25,0,.39-.33.22-.4-.42.09.22-.37.6-.55-.32,0,.2-.33-.12-.27-.43.23.6-.87-.09-.22-.34-.09.26-.18-.09-.19.52-.71-.05-.12-.07-.12-.32,0,.31-.64h-.23l.17-.72-.43.92.22,0-.43.56.3.11,0,.13,0,.13-.66.59,0,.2-.29.12.32.16,0,.23-.76.73.46-.14.06.29-.26.28.31.09-.7.42-.29.31h.43l-.29.35-.45.24H135l-.18.19a5.71,5.71,0,0,1-.42.4h.34l.05.27-.5.41h.39l0,.23-.06.06.77-.33-.76.58-.08.06h.26l.06.25-.41.27h.34l-.24.34.16.11-.06.1a2.53,2.53,0,0,1-1,.9h1l-.23.2a2.13,2.13,0,0,1-.47.31h.4l-.65.47.17.08,0,.25-.87.28.25.19h0l.09.07-.27.13-.16.06.09.2h2.59l.22-.17Z" transform="translate(0 0)" fill="#679a8a"/><path d="M150.93,106.56l.48-.38-1.7-.57v-.15l.47-.32a7.15,7.15,0,0,1-.88-.48l-.14-.11h.8l-1.23-.89h1.57c-.64-.57-1.18-1-1.72-1.55-.14-.13-.24-.29-.13-.43l.1,0,0-.1,0,0,.06,0-.33-.48h.82l-1-.7,0-.15h1.05l-.5-.32.16.07,0-.13-.44-.53,0-.17h1l-1.11-.91,0-.2h1.11A14.91,14.91,0,0,1,148.19,97l.59,0-1.27-.68-.28-.32h.71l-.83-.91-.72-.44,0-.07.43-.11-.6-.68.06-.19c.21.08.41.17.62.23s.42.09.69.15l-1.77-1.72,0-.19.83-.43-.74-.31L146,91l-1.13-1,.05-.22.67-.28-.72-1h.35L144.06,86l-1.19,2.53.32.05-.71.92.71.27,0,.22-1.14,1,.07.3-.74.31.85.43,0,.19-1.7,1.64v.1l1.25-.38,0,.19-.61.65.41.12-.85.51-.83.91h.79l-.19.23-1.44.77.74,0a8.71,8.71,0,0,1-1.16,1h1l0,.18-1.08.88v.11h.93l0,.14-.5.51,0,.13.49-.21a7.31,7.31,0,0,1-.68.46h1l0,.14-1,.68v.08h.73l-.31.44,0,0,0,0,0,.1.13,0,.12.08a3.88,3.88,0,0,1-2,1.66v.22h1.67a3.36,3.36,0,0,1-1.35.73v.17h.73l-.9.65.48.23v.17l-1.75.56.41.31h0l.23.14h0l-.66.26.16.34-1.09.32H152A2.13,2.13,0,0,1,150.93,106.56Z" transform="translate(0 0)" fill="#347863"/><path d="M142.24,106.93h0l-.48-.23,1.38-.78-.06-.44-.31-.08.94-1-.68.14a3.7,3.7,0,0,0,.69-.7l.33-.43-1.68.35a4.39,4.39,0,0,0,1.31-1.87l.08-.19-.31-.13.29-.66-.58.12.6-.6-.19-.4-.43.09.11-.13,1.09-1.25-1.2.84.07-.11-.16-.38-.66.14.71-.86-.18-.44-.58.12a9.94,9.94,0,0,0,.57-.84l.23-.38-.43.07.68-.57.38-.7-.74.15.38-.64,1-1-.56,0,.35-.57-.21-.48-.74.4,1-1.51-.15-.38-.59-.16.44-.31-.15-.33.91-1.23-.09-.21-.12-.2-.55-.09.54-1.1h-.4l.3-1.25-.75,1.6.39.07-.75,1,.52.2.08.22,0,.23-1.14,1,.08.35-.5.21.55.28.07.4-1.32,1.27.8-.25.11.51-.46.49.54.16-1.21.73-.5.55h.75l-.51.61-.78.42.44,0-.31.32a9.93,9.93,0,0,1-.73.7h.59l.09.46-.87.7h.67l.08.41-.1.1,1.34-.58-1.32,1-.14.1h.44l.1.43-.7.46h.59l-.42.59.28.19-.11.17a4.39,4.39,0,0,1-1.66,1.57h1.72l-.41.35a3.7,3.7,0,0,1-.81.55h.7l-1.13.81.29.14,0,.44-1.51.48.43.32h0l.15.11-.47.22-.28.11.16.34H142l.38-.29Z" transform="translate(0 0)" fill="#679a8a"/><path d="M56,133.37V130l1.11,0,2.34-12.5h6.77L68.66,130l1.11,0v3.37H64.65l-.52-3.86H61.68l-.5,3.86ZM62,126.76h1.91l-1-6.2Z" transform="translate(0 0)" fill="#7c5f47"/><path d="M69.78,135H64.65A1.66,1.66,0,0,1,63,133.59l-.09-.7-.09.69A1.66,1.66,0,0,1,61.18,135H56a1.66,1.66,0,0,1-1.66-1.66V130a1.66,1.66,0,0,1,1.4-1.64l2.08-11.12a1.66,1.66,0,0,1,1.63-1.35h6.77a1.66,1.66,0,0,1,1.63,1.34L70,128.36A1.66,1.66,0,0,1,71.43,130v3.37A1.66,1.66,0,0,1,69.78,135Zm-3.68-3.31h2v-.11A1.66,1.66,0,0,1,67,130.35L64.88,119.2H63.83a1.65,1.65,0,0,1,.69,1.1l1,6.2a1.65,1.65,0,0,1-.38,1.33,1.63,1.63,0,0,1-.22.21,1.65,1.65,0,0,1,.86,1.24Zm-8.42,0h2l.31-2.42a1.65,1.65,0,0,1,.87-1.25,1.65,1.65,0,0,1-.59-1.53l.93-6.2a1.65,1.65,0,0,1,.69-1.11H60.85l-2.09,11.15a1.66,1.66,0,0,1-1.08,1.26Z" transform="translate(0 0)" fill="#fd9a2b"/><path d="M72,120.87l-1.11,0v-3.37h8.51a3.55,3.55,0,0,1,2.72.93,4.24,4.24,0,0,1,.86,2.94v8.08a7.09,7.09,0,0,1-.16,1.68,2.65,2.65,0,0,1-.55,1.08,3.63,3.63,0,0,1-2.88,1.11H70.84V130L72,130Zm6.7,9.17v-9.17H76.23V130Z" transform="translate(0 0)" fill="#7c5f47"/><path d="M79.35,135H70.84a1.66,1.66,0,0,1-1.66-1.66V130a1.65,1.65,0,0,1,1.11-1.56v-6a1.65,1.65,0,0,1-1.11-1.56v-3.37a1.66,1.66,0,0,1,1.66-1.66h8.51a5.13,5.13,0,0,1,3.94,1.46,5.81,5.81,0,0,1,1.3,4.07v8.08a8.57,8.57,0,0,1-.21,2.09,4.3,4.3,0,0,1-.89,1.74,5.22,5.22,0,0,1-4.12,1.7Zm-6.86-3.31h6.84a2.11,2.11,0,0,0,1.63-.53,1,1,0,0,0,.21-.41,5.4,5.4,0,0,0,.11-1.27v-8.08a2.94,2.94,0,0,0-.42-1.82,2.16,2.16,0,0,0-1.51-.4H72.5v.11a1.65,1.65,0,0,1,1.11,1.56V130a1.65,1.65,0,0,1-1.11,1.56Zm6.16,0H76.23A1.66,1.66,0,0,1,74.58,130v-9.17a1.66,1.66,0,0,1,1.66-1.66h2.42a1.66,1.66,0,0,1,1.66,1.66V130A1.66,1.66,0,0,1,78.66,131.69Z" transform="translate(0 0)" fill="#fd9a2b"/><path d="M84.33,133.37V130l1.11,0v-9.17l-1.11,0v-3.37h6.37v3.37l-1,0V130l1,0v3.37Z" transform="translate(0 0)" fill="#7c5f47"/><path d="M90.69,135H84.33a1.66,1.66,0,0,1-1.66-1.66V130a1.65,1.65,0,0,1,1.11-1.56v-6a1.65,1.65,0,0,1-1.11-1.56v-3.37a1.66,1.66,0,0,1,1.66-1.66h6.37a1.66,1.66,0,0,1,1.66,1.66v3.37a1.66,1.66,0,0,1-1,1.51v6.06a1.66,1.66,0,0,1,1,1.51v3.37A1.66,1.66,0,0,1,90.69,135ZM86,131.71H89v-.16a1.66,1.66,0,0,1-1-1.51v-9.17a1.66,1.66,0,0,1,1-1.51v-.16H86v.11a1.65,1.65,0,0,1,1.11,1.56V130A1.65,1.65,0,0,1,86,131.6Z" transform="translate(0 0)" fill="#fd9a2b"/><path d="M92,133.37V130l1.11,0v-9.17l-1.11,0v-3.37h8.63q3.62,0,3.52,3.33v1.59a3.14,3.14,0,0,1-.46,1.84,3.69,3.69,0,0,1-1.65,1.13,3,3,0,0,1,1.65,1,2.08,2.08,0,0,1,.38.82,8.56,8.56,0,0,1,.09,1.48V130l1.11,0v3.37h-3.47a1.53,1.53,0,0,1-1.92-1.91V127H97.35v6.41ZM97.35,124h2.48v-3.15H97.35Z" transform="translate(0 0)" fill="#7c5f47"/><path d="M105.22,135h-3.47a3.77,3.77,0,0,1-2.72-.86l-.15-.17a1.66,1.66,0,0,1-1.53,1H92a1.66,1.66,0,0,1-1.66-1.66V130a1.65,1.65,0,0,1,1.11-1.56v-6a1.65,1.65,0,0,1-1.11-1.56v-3.37A1.66,1.66,0,0,1,92,115.88h8.63a5.28,5.28,0,0,1,3.95,1.4,4.8,4.8,0,0,1,1.23,3.63v1.54a4.74,4.74,0,0,1-.76,2.8l-.1.13.05.07a3.78,3.78,0,0,1,.69,1.51,8.2,8.2,0,0,1,.12,1.47,1.65,1.65,0,0,1,1.12,1.56v3.37A1.66,1.66,0,0,1,105.22,135Zm-3.73-3.32h2.07v-.11a1.65,1.65,0,0,1-1.11-1.56v-1.26a7,7,0,0,0-.05-1.15.5.5,0,0,0-.09-.17,1.29,1.29,0,0,0-.73-.42l-.09,0v4.45C101.49,131.55,101.49,131.63,101.49,131.7Zm-7.88,0h2.08V127a1.66,1.66,0,0,1,.89-1.47,1.66,1.66,0,0,1-.89-1.47v-3.15a1.66,1.66,0,0,1,1.66-1.66h2.48a1.66,1.66,0,0,1,1.66,1.66v3a2,2,0,0,0,.82-.51,1.64,1.64,0,0,0,.15-.88v-1.59a1.88,1.88,0,0,0-.29-1.27,2.32,2.32,0,0,0-1.57-.4h-7v.11a1.65,1.65,0,0,1,1.11,1.56V130a1.65,1.65,0,0,1-1.11,1.56Z" transform="translate(0 0)" fill="#fd9a2b"/><path d="M110.33,117.54h3.77a3.55,3.55,0,0,1,2.72.93,4.24,4.24,0,0,1,.86,2.94v8.08a7.11,7.11,0,0,1-.16,1.68,2.65,2.65,0,0,1-.55,1.08,3.63,3.63,0,0,1-2.88,1.11h-3.77a3.55,3.55,0,0,1-2.72-.93,4.24,4.24,0,0,1-.86-2.94v-8.08a7.12,7.12,0,0,1,.16-1.68,2.65,2.65,0,0,1,.55-1.08A3.63,3.63,0,0,1,110.33,117.54Zm3.07,12.5v-9.17H111V130Z" transform="translate(0 0)" fill="#7c5f47"/><path d="M114.1,135h-3.77a5.12,5.12,0,0,1-3.94-1.46,5.81,5.81,0,0,1-1.3-4.07v-8.08a8.62,8.62,0,0,1,.21-2.09,4.3,4.3,0,0,1,.89-1.74,5.21,5.21,0,0,1,4.12-1.7h3.79a5.13,5.13,0,0,1,3.94,1.46,5.81,5.81,0,0,1,1.3,4.07v8.08a8.59,8.59,0,0,1-.21,2.09,4.31,4.31,0,0,1-.89,1.74,5.21,5.21,0,0,1-4.12,1.7Zm-3.77-15.83a2.11,2.11,0,0,0-1.61.53,1,1,0,0,0-.21.41,5.44,5.44,0,0,0-.11,1.27v8.08a2.94,2.94,0,0,0,.42,1.82,2.15,2.15,0,0,0,1.51.4h3.76a2.12,2.12,0,0,0,1.63-.53,1,1,0,0,0,.21-.41,5.43,5.43,0,0,0,.11-1.27v-8.08a2.94,2.94,0,0,0-.42-1.82,2.16,2.16,0,0,0-1.51-.4Zm3.07,12.5H111a1.66,1.66,0,0,1-1.66-1.66v-9.17a1.66,1.66,0,0,1,1.66-1.66h2.38a1.66,1.66,0,0,1,1.66,1.66V130A1.66,1.66,0,0,1,113.41,131.69Z" transform="translate(0 0)" fill="#fd9a2b"/><path d="M119.27,133.37V130l1.11,0v-9.17l-1.11,0v-3.37h5.09l3.9,7.79v-7.79h5.08v3.37l-1.11,0V130l1.11,0v3.37h-5.08l-3.86-7.73v7.73Z" transform="translate(0 0)" fill="#7c5f47"/><path d="M133.34,135h-5.08a1.66,1.66,0,0,1-1.48-.92l-.72-1.45v.71A1.66,1.66,0,0,1,124.4,135h-5.12a1.66,1.66,0,0,1-1.66-1.66V130a1.65,1.65,0,0,1,1.11-1.56v-6a1.65,1.65,0,0,1-1.11-1.56v-3.37a1.66,1.66,0,0,1,1.66-1.66h5.09a1.66,1.66,0,0,1,1.48.91l.76,1.52v-.78a1.66,1.66,0,0,1,1.66-1.66h5.08a1.66,1.66,0,0,1,1.66,1.66v3.37a1.65,1.65,0,0,1-1.11,1.56v6A1.65,1.65,0,0,1,135,130v3.37A1.66,1.66,0,0,1,133.34,135Zm-4.05-3.31h2.4v-.11a1.65,1.65,0,0,1-1.11-1.56v-9.17a1.65,1.65,0,0,1,1.11-1.56v-.11h-1.77v6.14a1.66,1.66,0,0,1-3.14.74l-3.44-6.88h-2.41v.11a1.65,1.65,0,0,1,1.11,1.56V130a1.65,1.65,0,0,1-1.11,1.56v.11h1.81v-6.08a1.66,1.66,0,0,1,3.14-.74Z" transform="translate(0 0)" fill="#fd9a2b"/><path d="M135.72,120.87l-1.11,0v-3.37h8.51a3.55,3.55,0,0,1,2.72.93,4.24,4.24,0,0,1,.86,2.94v8.08a7.07,7.07,0,0,1-.16,1.68,2.65,2.65,0,0,1-.55,1.08,3.63,3.63,0,0,1-2.88,1.11H134.6V130l1.11,0Zm6.7,9.17v-9.17H140V130Z" transform="translate(0 0)" fill="#7c5f47"/><path d="M143.11,135H134.6a1.66,1.66,0,0,1-1.66-1.66V130a1.65,1.65,0,0,1,1.11-1.56v-6a1.65,1.65,0,0,1-1.11-1.56v-3.37a1.66,1.66,0,0,1,1.66-1.66h8.51a5.13,5.13,0,0,1,3.94,1.46,5.81,5.81,0,0,1,1.3,4.07v8.08a8.55,8.55,0,0,1-.21,2.09,4.31,4.31,0,0,1-.89,1.74,5.21,5.21,0,0,1-4.12,1.7Zm-6.86-3.31h6.85a2.11,2.11,0,0,0,1.62-.53,1,1,0,0,0,.21-.41,5.38,5.38,0,0,0,.11-1.27v-8.08a2.94,2.94,0,0,0-.42-1.82,2.16,2.16,0,0,0-1.51-.4h-6.86v.11a1.65,1.65,0,0,1,1.11,1.56V130a1.65,1.65,0,0,1-1.11,1.56Zm6.16,0H140a1.66,1.66,0,0,1-1.66-1.66v-9.17a1.66,1.66,0,0,1,1.66-1.66h2.42a1.66,1.66,0,0,1,1.66,1.66V130A1.66,1.66,0,0,1,142.42,131.69Z" transform="translate(0 0)" fill="#fd9a2b"/><path d="M148.2,133.37V130l1.11,0,2.34-12.5h6.77l2.41,12.5,1.11,0v3.37h-5.12l-.52-3.86h-2.45l-.5,3.86Zm5.94-6.61h1.91l-1-6.2Z" transform="translate(0 0)" fill="#7c5f47"/><path d="M162,135h-5.12a1.66,1.66,0,0,1-1.64-1.43l-.09-.7-.09.69a1.66,1.66,0,0,1-1.64,1.44H148.2a1.66,1.66,0,0,1-1.66-1.66V130a1.66,1.66,0,0,1,1.4-1.64L150,117.23a1.66,1.66,0,0,1,1.63-1.35h6.77a1.66,1.66,0,0,1,1.63,1.34l2.15,11.13a1.66,1.66,0,0,1,1.41,1.64v3.37A1.66,1.66,0,0,1,162,135Zm-3.68-3.31h2v-.11a1.66,1.66,0,0,1-1.08-1.25l-2.15-11.16H156a1.66,1.66,0,0,1,.69,1.1l1,6.2a1.65,1.65,0,0,1-.6,1.55,1.66,1.66,0,0,1,.86,1.24Zm-8.42,0h2l.31-2.42a1.65,1.65,0,0,1,.87-1.25,1.74,1.74,0,0,1-.21-.2,1.66,1.66,0,0,1-.38-1.33l.93-6.2a1.66,1.66,0,0,1,.69-1.12H153l-2.09,11.15a1.66,1.66,0,0,1-1.08,1.26Z" transform="translate(0 0)" fill="#fd9a2b"/><path d="M174.12,127.52v5.84h-7q-3.65.07-3.58-3.33v-8.7a6.61,6.61,0,0,1,.2-1.86,2.44,2.44,0,0,1,.73-1.12,3.92,3.92,0,0,1,2.66-.82H174v5.07h-3.69v-1.74h-2.5V130h2.5v-2.52Z" transform="translate(0 0)" fill="#7c5f47"/><path d="M166.94,135a5.16,5.16,0,0,1-3.84-1.37,4.86,4.86,0,0,1-1.25-3.65v-8.66a8.1,8.1,0,0,1,.28-2.35,4.08,4.08,0,0,1,1.21-1.87,5.5,5.5,0,0,1,3.73-1.24H174a1.66,1.66,0,0,1,1.66,1.66v5.07a1.66,1.66,0,0,1-1.66,1.66h-3.69a1.65,1.65,0,0,1-.85-.23v2.07a1.65,1.65,0,0,1,.85-.23h3.84a1.66,1.66,0,0,1,1.66,1.66v5.84a1.66,1.66,0,0,1-1.66,1.66Zm.14-15.83a2.49,2.49,0,0,0-1.54.39.8.8,0,0,0-.26.38,5,5,0,0,0-.13,1.37V130a1.93,1.93,0,0,0,.31,1.29,2.17,2.17,0,0,0,1.47.38h5.53v-2.53h-.53V130a1.65,1.65,0,0,1-1.66,1.65h-2.5a1.65,1.65,0,0,1-1.66-1.65v-9.17a1.66,1.66,0,0,1,1.66-1.66h2.5a1.66,1.66,0,0,1,1.66,1.66V121h.38V119.2Z" transform="translate(0 0)" fill="#fd9a2b"/><path d="M175.63,133.37V130l1.11,0v-9.17l-1.11,0v-3.37h5.43v6.88l3.18-6.88h4.07v3.37l-1.44,0-2,3.55h2.77V130l1.11,0v3.37h-5.39V127.3h-2.3v6.06Z" transform="translate(0 0)" fill="#7c5f47"/><path d="M188.74,135h-5.39a1.65,1.65,0,0,1-1.15-.46,1.65,1.65,0,0,1-1.15.46h-5.43a1.66,1.66,0,0,1-1.66-1.66V130a1.65,1.65,0,0,1,1.11-1.56v-6a1.65,1.65,0,0,1-1.11-1.56v-3.37a1.66,1.66,0,0,1,1.66-1.66h5.43a1.66,1.66,0,0,1,1.58,1.16l.09-.2a1.66,1.66,0,0,1,1.5-1h4.07a1.66,1.66,0,0,1,1.66,1.66v3.37a1.66,1.66,0,0,1-1.71,1.65h-.44l-.12.21a1.66,1.66,0,0,1,1.59,1.65v4a1.65,1.65,0,0,1,1.11,1.56v3.37A1.66,1.66,0,0,1,188.74,135ZM185,131.71h2.08v-.11A1.65,1.65,0,0,1,186,130v-4h-1.12a1.65,1.65,0,0,1-.49-.07,1.65,1.65,0,0,1,.64,1.31Zm-7.72,0h2.12V127.3a1.65,1.65,0,0,1,.84-1.44,1.66,1.66,0,0,1-.84-1.44V119.2h-2.12v.11a1.65,1.65,0,0,1,1.11,1.56V130a1.65,1.65,0,0,1-1.11,1.56Zm4.88-6.06h1.19a1.65,1.65,0,0,1,.49.07,1.66,1.66,0,0,1-.42-2.12l2-3.55a1.66,1.66,0,0,1,1.22-.83v0h-1.36l-2.73,5.91A1.65,1.65,0,0,1,182.16,125.65Z" transform="translate(0 0)" fill="#fd9a2b"/><path d="M76.71,155.13v-3.37l1.11,0v-9.17l-1.11,0v-3.37h6.37v3.37l-1,0v9.17l1,0v3.37Z" transform="translate(0 0)" fill="#7c5f47"/><path d="M83.08,156.79H76.71a1.66,1.66,0,0,1-1.66-1.66v-3.37a1.65,1.65,0,0,1,1.11-1.56v-6a1.65,1.65,0,0,1-1.11-1.56v-3.37a1.66,1.66,0,0,1,1.66-1.66h6.37a1.66,1.66,0,0,1,1.66,1.66v3.37a1.65,1.65,0,0,1-1,1.51v6.06a1.65,1.65,0,0,1,1,1.51v3.37A1.66,1.66,0,0,1,83.08,156.79Zm-4.71-3.31h3.05v-.16a1.65,1.65,0,0,1-1-1.51v-9.17a1.65,1.65,0,0,1,1-1.51V141H78.37v.11a1.65,1.65,0,0,1,1.11,1.56v9.17a1.65,1.65,0,0,1-1.11,1.56Z" transform="translate(0 0)" fill="#fd9a2b"/><path d="M95.16,149.29v5.84h-7q-3.65.07-3.58-3.33v-8.7a6.6,6.6,0,0,1,.2-1.86,2.44,2.44,0,0,1,.72-1.12,3.92,3.92,0,0,1,2.66-.82H95v5.07H91.32v-1.74h-2.5v9.17h2.5v-2.52Z" transform="translate(0 0)" fill="#7c5f47"/><path d="M88,156.79a5.16,5.16,0,0,1-3.84-1.37,4.86,4.86,0,0,1-1.25-3.65v-8.66a8.07,8.07,0,0,1,.28-2.35,4.08,4.08,0,0,1,1.21-1.87,5.51,5.51,0,0,1,3.73-1.24H95a1.66,1.66,0,0,1,1.66,1.66v5.07A1.66,1.66,0,0,1,95,146H91.32a1.65,1.65,0,0,1-.85-.23v2.07a1.65,1.65,0,0,1,.85-.23h3.84a1.66,1.66,0,0,1,1.66,1.66v5.84a1.66,1.66,0,0,1-1.66,1.66ZM88.12,141a2.49,2.49,0,0,0-1.54.39.8.8,0,0,0-.26.38,5,5,0,0,0-.13,1.37v8.7a1.93,1.93,0,0,0,.31,1.29,2.17,2.17,0,0,0,1.47.38H93.5v-2.53H93v.86a1.66,1.66,0,0,1-1.66,1.66h-2.5a1.66,1.66,0,0,1-1.66-1.66v-9.17A1.66,1.66,0,0,1,88.81,141h2.5A1.66,1.66,0,0,1,93,142.63v.08h.38V141Z" transform="translate(0 0)" fill="#fd9a2b"/><path d="M96.33,155.13v-3.37l1.11,0v-9.17l-1.11,0v-3.37h11.41v5.07h-3.63v-1.74h-2.39v3H105v2.85h-3.3v3.32h2.39v-2h3.78v5.35Z" transform="translate(0 0)" fill="#7c5f47"/><path d="M107.89,156.79H96.33a1.66,1.66,0,0,1-1.66-1.66v-3.37a1.65,1.65,0,0,1,1.11-1.56v-6a1.65,1.65,0,0,1-1.11-1.56v-3.37a1.66,1.66,0,0,1,1.66-1.66h11.41a1.66,1.66,0,0,1,1.66,1.66v5.07a1.66,1.66,0,0,1-1.66,1.66h-1.06v2.1h1.21a1.66,1.66,0,0,1,1.66,1.66v5.35A1.66,1.66,0,0,1,107.89,156.79ZM98,153.48h8.25v-2h-.47v.36a1.66,1.66,0,0,1-1.66,1.66h-2.39a1.66,1.66,0,0,1-1.66-1.66v-3.32a1.66,1.66,0,0,1,.81-1.43,1.65,1.65,0,0,1-.81-1.43v-3a1.66,1.66,0,0,1,1.66-1.66h2.39a1.66,1.66,0,0,1,1.66,1.66v.08h.32V141H98v.11a1.65,1.65,0,0,1,1.11,1.56v9.17A1.65,1.65,0,0,1,98,153.37Z" transform="translate(0 0)" fill="#fd9a2b"/><path d="M114.94,155.13v-3.37l1.11,0v-9.17l-1.11,0v-3.37h8.66a6.93,6.93,0,0,1,1.52.13,2.78,2.78,0,0,1,1,.46,2.28,2.28,0,0,1,.79,1.05,4.87,4.87,0,0,1,.24,1.68V144a2.64,2.64,0,0,1-2.34,2.92,3.42,3.42,0,0,1,1.8,1.1,3.28,3.28,0,0,1,.54,2v1.55a3.86,3.86,0,0,1-.8,2.76,3.74,3.74,0,0,1-2.72.81Zm5.39-9.5h2.54v-3h-2.54Zm0,6.17h2.54v-3.32h-2.54Z" transform="translate(0 0)" fill="#7c5f47"/><path d="M123.62,156.79h-8.68a1.66,1.66,0,0,1-1.66-1.66v-3.37a1.65,1.65,0,0,1,1.11-1.56v-6a1.65,1.65,0,0,1-1.11-1.56v-3.37a1.66,1.66,0,0,1,1.66-1.66h8.66a8.4,8.4,0,0,1,1.9.17,4.45,4.45,0,0,1,1.59.73,3.94,3.94,0,0,1,1.37,1.81,6.41,6.41,0,0,1,.35,2.26V144a4.52,4.52,0,0,1-.91,3l0,0a4.88,4.88,0,0,1,.87,3v1.55a5.33,5.33,0,0,1-1.28,3.92A5.22,5.22,0,0,1,123.62,156.79Zm-7-3.31h7c1.2,0,1.51-.29,1.55-.32s.32-.36.32-1.6V150a1.72,1.72,0,0,0-.2-1,1.62,1.62,0,0,0-.76-.44v3.25a1.66,1.66,0,0,1-1.66,1.66h-2.54a1.66,1.66,0,0,1-1.66-1.66v-3.32a1.66,1.66,0,0,1,.81-1.43,1.65,1.65,0,0,1-.81-1.43v-3a1.66,1.66,0,0,1,1.66-1.66h2.54a1.66,1.66,0,0,1,1.66,1.66v2.63c.76-.17,1-.46,1-1.26v-1.38a3.24,3.24,0,0,0-.14-1.1.63.63,0,0,0-.23-.31,1.1,1.1,0,0,0-.39-.18,5.26,5.26,0,0,0-1.13-.08h-7v.11a1.65,1.65,0,0,1,1.11,1.56v9.17a1.65,1.65,0,0,1-1.11,1.56Z" transform="translate(0 0)" fill="#fd9a2b"/><path d="M132.5,139.31h3.77a3.55,3.55,0,0,1,2.72.93,4.24,4.24,0,0,1,.86,2.94v8.08a7.12,7.12,0,0,1-.16,1.68,2.65,2.65,0,0,1-.55,1.08,3.63,3.63,0,0,1-2.88,1.11H132.5a3.55,3.55,0,0,1-2.73-.93,4.24,4.24,0,0,1-.86-2.94v-8.08a7.12,7.12,0,0,1,.16-1.68,2.65,2.65,0,0,1,.55-1.08A3.63,3.63,0,0,1,132.5,139.31Zm3.07,12.5v-9.17H133.2v9.17Z" transform="translate(0 0)" fill="#7c5f47"/><path d="M136.27,156.79H132.5a5.12,5.12,0,0,1-3.94-1.46,5.81,5.81,0,0,1-1.3-4.07v-8.08a8.63,8.63,0,0,1,.21-2.09,4.3,4.3,0,0,1,.89-1.74,5.21,5.21,0,0,1,4.12-1.7h3.79a5.12,5.12,0,0,1,3.94,1.46,5.81,5.81,0,0,1,1.3,4.07v8.08a8.63,8.63,0,0,1-.21,2.09,4.31,4.31,0,0,1-.89,1.74,5.21,5.21,0,0,1-4.12,1.7ZM132.5,141a2.1,2.1,0,0,0-1.62.53,1,1,0,0,0-.21.41,5.43,5.43,0,0,0-.11,1.27v8.08a3,3,0,0,0,.42,1.82,2.16,2.16,0,0,0,1.51.4h3.76a2.11,2.11,0,0,0,1.62-.53,1,1,0,0,0,.21-.41,5.43,5.43,0,0,0,.11-1.27v-8.08a2.94,2.94,0,0,0-.42-1.82,2.16,2.16,0,0,0-1.51-.4Zm3.07,12.5H133.2a1.66,1.66,0,0,1-1.66-1.66v-9.17A1.66,1.66,0,0,1,133.2,141h2.38a1.66,1.66,0,0,1,1.66,1.66v9.17A1.66,1.66,0,0,1,135.58,153.46Z" transform="translate(0 0)" fill="#fd9a2b"/><path d="M144.64,155.13l-2.12-12.5-1.11,0v-3.37h6.45v3.37l-1.1,0,1.1,7.14L150,139.31h3.49l2.3,10.47.82-7.14-1.11,0v-3.37H162v3.37l-1.11,0L159,155.13h-5.22l-2-9-1.87,9Z" transform="translate(0 0)" fill="#7c5f47"/><path d="M159,156.79h-5.22a1.65,1.65,0,0,1-1.62-1.3l-.3-1.39-.28,1.38a1.66,1.66,0,0,1-1.62,1.32h-5.28a1.66,1.66,0,0,1-1.63-1.38l-1.88-11.1a1.65,1.65,0,0,1-1.37-1.63v-3.37a1.66,1.66,0,0,1,1.66-1.66h6.45a1.65,1.65,0,0,1,1.07.39,1.65,1.65,0,0,1,1.07-.39h3.49a1.65,1.65,0,0,1,1,.34,1.65,1.65,0,0,1,1-.34H162a1.66,1.66,0,0,1,1.66,1.66v3.37a1.65,1.65,0,0,1-1.35,1.63l-1.71,11.08A1.65,1.65,0,0,1,159,156.79Zm-3.88-3.31h2.46l1.71-11.1a1.65,1.65,0,0,1,1.09-1.31V141h-3.19v.11a1.66,1.66,0,0,1,1.1,1.75l-.82,7.14a1.66,1.66,0,0,1-2.93.86Zm-9,0h2.53l.54-2.63a1.64,1.64,0,0,1-1.3.58,1.65,1.65,0,0,1-1.6-1.4l-1.1-7.14a1.66,1.66,0,0,1,1.08-1.81V141h-3.14v.11a1.65,1.65,0,0,1,1.09,1.29ZM151.35,141l-.84,4.08a1.65,1.65,0,0,1,1.26-.59h0a1.65,1.65,0,0,1,1.27.59l-.89-4.07Z" transform="translate(0 0)" fill="#fd9a2b"/><path d="M163,155.13v-3.37l1.11,0v-9.17l-1.11,0v-3.37h6.49v3.37l-1.1,0v9.17h1.91V149h4v6.1Z" transform="translate(0 0)" fill="#7c5f47"/><path d="M174.28,156.79H163a1.66,1.66,0,0,1-1.66-1.66v-3.37a1.65,1.65,0,0,1,1.11-1.56v-6a1.65,1.65,0,0,1-1.11-1.56v-3.37a1.66,1.66,0,0,1,1.66-1.66h6.49a1.66,1.66,0,0,1,1.66,1.66v3.37a1.66,1.66,0,0,1-1.1,1.56v3.16l.26,0h4a1.66,1.66,0,0,1,1.66,1.66v6.1A1.66,1.66,0,0,1,174.28,156.79Zm-9.66-3.31h8v-2.79h-.7v1.12a1.66,1.66,0,0,1-1.66,1.66h-1.91a1.66,1.66,0,0,1-1.66-1.66v-9.17a1.66,1.66,0,0,1,1.1-1.56V141h-3.18v.11a1.65,1.65,0,0,1,1.11,1.56v9.17a1.65,1.65,0,0,1-1.11,1.56Z" transform="translate(0 0)" fill="#fd9a2b"/><path d="M54.24,131.59v-3.37l1.11,0,2.34-12.5h6.77l2.41,12.5,1.11,0v3.37H62.87l-.52-3.86H59.9l-.5,3.86ZM60.18,125h1.91l-1-6.2Z" transform="translate(0 0)" fill="#7c5f47"/><path d="M68,132.41H62.87a.83.83,0,0,1-.82-.72l-.42-3.14h-1l-.41,3.14a.83.83,0,0,1-.82.72H54.24a.83.83,0,0,1-.83-.83v-3.37a.83.83,0,0,1,.25-.6.82.82,0,0,1,.61-.23l.4,0,2.21-11.79a.83.83,0,0,1,.81-.68h6.77a.83.83,0,0,1,.81.67l2.28,11.8.4,0a.83.83,0,0,1,.86.83v3.37A.83.83,0,0,1,68,132.41Zm-4.4-1.66h3.57v-1.68h-.25a.81.81,0,0,1-.85-.67l-2.28-11.83h-5.4l-2.22,11.82a.82.82,0,0,1-.85.67h-.25v1.68h3.6l.41-3.14a.83.83,0,0,1,.82-.72h2.45a.83.83,0,0,1,.82.72Zm-1.5-5H60.18a.83.83,0,0,1-.82-1l.93-6.2a.83.83,0,0,1,.81-.71h0a.83.83,0,0,1,.82.7l1,6.2a.83.83,0,0,1-.82,1Z" transform="translate(0 0)" fill="#fff"/><path d="M70.18,119.09l-1.11,0v-3.37h8.51a3.55,3.55,0,0,1,2.72.93,4.24,4.24,0,0,1,.86,2.94v8.08a7.09,7.09,0,0,1-.16,1.68,2.65,2.65,0,0,1-.55,1.08,3.63,3.63,0,0,1-2.88,1.11H69.06v-3.37l1.11,0Zm6.7,9.17v-9.17H74.45v9.17Z" transform="translate(0 0)" fill="#7c5f47"/><path d="M77.57,132.41H69.06a.83.83,0,0,1-.83-.83v-3.37a.83.83,0,0,1,.86-.83h.25v-7.45H69.1a.82.82,0,0,1-.61-.23.83.83,0,0,1-.25-.6v-3.37a.83.83,0,0,1,.83-.83h8.51a4.34,4.34,0,0,1,3.33,1.19A5,5,0,0,1,82,119.63v8.08a7.8,7.8,0,0,1-.18,1.89,3.49,3.49,0,0,1-.72,1.41,4.43,4.43,0,0,1-3.5,1.4Zm-7.68-1.66h7.68a2.84,2.84,0,0,0,2.25-.82,1.82,1.82,0,0,0,.38-.75,6.35,6.35,0,0,0,.13-1.48v-8.08a3.51,3.51,0,0,0-.64-2.38,2.81,2.81,0,0,0-2.12-.66H69.89v1.68h.25a.83.83,0,0,1,.86.83v9.17a.83.83,0,0,1-.86.83h-.25Zm7-1.67H74.45a.83.83,0,0,1-.83-.83v-9.17a.83.83,0,0,1,.83-.83h2.42a.83.83,0,0,1,.83.83v9.17A.83.83,0,0,1,76.88,129.09Zm-1.6-1.66H76v-7.52h-.77Z" transform="translate(0 0)" fill="#fff"/><path d="M82.55,131.59v-3.37l1.11,0v-9.17l-1.11,0v-3.37h6.37v3.37l-1,0v9.17l1,0v3.37Z" transform="translate(0 0)" fill="#7c5f47"/><path d="M88.91,132.41H82.55a.83.83,0,0,1-.83-.83v-3.37a.83.83,0,0,1,.86-.83h.25v-7.45h-.25a.83.83,0,0,1-.86-.83v-3.37a.83.83,0,0,1,.83-.83h6.37a.83.83,0,0,1,.83.83v3.37a.83.83,0,0,1-.26.6.82.82,0,0,1-.61.23h-.11v7.44h.11a.84.84,0,0,1,.61.23.83.83,0,0,1,.26.6v3.37A.83.83,0,0,1,88.91,132.41Zm-5.54-1.66h4.71v-1.68H88a.83.83,0,0,1-.87-.83v-9.17a.83.83,0,0,1,.26-.6.85.85,0,0,1,.61-.23h.11v-1.68H83.37v1.68h.25a.83.83,0,0,1,.86.83v9.17a.83.83,0,0,1-.86.83h-.25Z" transform="translate(0 0)" fill="#fff"/><path d="M90.18,131.59v-3.37l1.11,0v-9.17l-1.11,0v-3.37H98.8q3.62,0,3.52,3.33v1.59a3.14,3.14,0,0,1-.46,1.84,3.69,3.69,0,0,1-1.65,1.13,3,3,0,0,1,1.65,1,2.08,2.08,0,0,1,.38.82,8.56,8.56,0,0,1,.09,1.48v1.26l1.11,0v3.37H100A1.53,1.53,0,0,1,98,129.67v-4.5H95.57v6.41Zm5.39-9.34H98v-3.15H95.57Z" transform="translate(0 0)" fill="#7c5f47"/><path d="M103.44,132.41H100a2.3,2.3,0,0,1-2.75-2.74V126H96.4v5.58a.83.83,0,0,1-.83.83H90.18a.83.83,0,0,1-.83-.83v-3.37a.83.83,0,0,1,.86-.83h.25v-7.45h-.25a.83.83,0,0,1-.86-.83v-3.37a.83.83,0,0,1,.83-.83H98.8a4.5,4.5,0,0,1,3.36,1.15,4,4,0,0,1,1,3v1.57a4,4,0,0,1-.61,2.32,3.11,3.11,0,0,1-.58.61,3.57,3.57,0,0,1,.56.58,2.93,2.93,0,0,1,.53,1.16,9,9,0,0,1,.1,1.65v.4h.25a.83.83,0,0,1,.86.83v3.37A.83.83,0,0,1,103.44,132.41ZM99,130.63a2.22,2.22,0,0,0,1,.13h2.64v-1.68h-.25a.83.83,0,0,1-.86-.83V127a7.56,7.56,0,0,0-.07-1.32,1.26,1.26,0,0,0-.23-.5,2.13,2.13,0,0,0-1.19-.73.83.83,0,0,1-.1-1.57,2.87,2.87,0,0,0,1.29-.84,2.43,2.43,0,0,0,.3-1.36v-1.59a2.47,2.47,0,0,0-.53-1.85,3,3,0,0,0-2.17-.65H91v1.68h.25a.83.83,0,0,1,.86.83v9.17a.83.83,0,0,1-.86.83H91v1.68h3.74v-5.58a.83.83,0,0,1,.83-.83H98a.83.83,0,0,1,.83.83v4.5a1.92,1.92,0,0,0,.14,1Zm-1-7.56H95.57a.83.83,0,0,1-.83-.83v-3.15a.83.83,0,0,1,.83-.83H98a.83.83,0,0,1,.83.83v3.15A.83.83,0,0,1,98,123.07Zm-1.65-1.66h.83v-1.5H96.4Z" transform="translate(0 0)" fill="#fff"/><path d="M108.55,115.76h3.77a3.55,3.55,0,0,1,2.72.93,4.24,4.24,0,0,1,.86,2.94v8.08a7.12,7.12,0,0,1-.16,1.68,2.65,2.65,0,0,1-.55,1.08,3.63,3.63,0,0,1-2.88,1.11h-3.77a3.55,3.55,0,0,1-2.72-.93,4.24,4.24,0,0,1-.86-2.94v-8.08a7.12,7.12,0,0,1,.16-1.68,2.65,2.65,0,0,1,.55-1.08A3.63,3.63,0,0,1,108.55,115.76Zm3.07,12.5v-9.17h-2.38v9.17Z" transform="translate(0 0)" fill="#7c5f47"/><path d="M112.32,132.41h-3.77a4.34,4.34,0,0,1-3.33-1.19,5,5,0,0,1-1.08-3.51v-8.08a7.83,7.83,0,0,1,.18-1.89,3.49,3.49,0,0,1,.72-1.41,4.43,4.43,0,0,1,3.5-1.4h3.78a4.34,4.34,0,0,1,3.33,1.19,5,5,0,0,1,1.08,3.51v8.08a7.83,7.83,0,0,1-.18,1.89,3.49,3.49,0,0,1-.72,1.41,4.43,4.43,0,0,1-3.5,1.4Zm-3.77-15.83a2.83,2.83,0,0,0-2.24.82,1.81,1.81,0,0,0-.38.75,6.38,6.38,0,0,0-.13,1.48v8.08a3.51,3.51,0,0,0,.64,2.38,2.81,2.81,0,0,0,2.12.66h3.76a2.83,2.83,0,0,0,2.25-.82,1.82,1.82,0,0,0,.38-.75,6.38,6.38,0,0,0,.13-1.48v-8.08a3.51,3.51,0,0,0-.64-2.38,2.81,2.81,0,0,0-2.12-.66Zm3.07,12.5h-2.38a.83.83,0,0,1-.83-.83v-9.17a.83.83,0,0,1,.83-.83h2.38a.83.83,0,0,1,.83.83v9.17A.83.83,0,0,1,111.63,129.09Zm-1.55-1.66h.72v-7.52h-.72Z" transform="translate(0 0)" fill="#fff"/><path d="M117.49,131.59v-3.37l1.11,0v-9.17l-1.11,0v-3.37h5.09l3.9,7.79v-7.79h5.08v3.37l-1.11,0v9.17l1.11,0v3.37h-5.08l-3.86-7.73v7.73Z" transform="translate(0 0)" fill="#7c5f47"/><path d="M131.56,132.41h-5.08a.83.83,0,0,1-.74-.46l-2.29-4.59v4.22a.83.83,0,0,1-.83.83h-5.12a.83.83,0,0,1-.83-.83v-3.37a.83.83,0,0,1,.86-.83h.25v-7.45h-.25a.83.83,0,0,1-.86-.83v-3.37a.83.83,0,0,1,.83-.83h5.09a.83.83,0,0,1,.74.46l2.33,4.66v-4.29a.83.83,0,0,1,.83-.83h5.08a.83.83,0,0,1,.83.83v3.37a.83.83,0,0,1-.86.83h-.25v7.45h.25a.83.83,0,0,1,.86.83v3.37A.83.83,0,0,1,131.56,132.41ZM127,130.76h3.74v-1.68h-.25a.83.83,0,0,1-.86-.83v-9.17a.83.83,0,0,1,.86-.83h.25v-1.68h-3.42v7a.83.83,0,0,1-1.57.37l-3.67-7.33h-3.75v1.68h.25a.83.83,0,0,1,.86.83v9.17a.83.83,0,0,1-.86.83h-.25v1.68h3.47v-6.91a.83.83,0,0,1,1.57-.37Z" transform="translate(0 0)" fill="#fff"/><path d="M133.94,119.09l-1.11,0v-3.37h8.51a3.55,3.55,0,0,1,2.72.93,4.24,4.24,0,0,1,.86,2.94v8.08a7.11,7.11,0,0,1-.16,1.68,2.65,2.65,0,0,1-.55,1.08,3.63,3.63,0,0,1-2.88,1.11h-8.51v-3.37l1.11,0Zm6.7,9.17v-9.17h-2.42v9.17Z" transform="translate(0 0)" fill="#7c5f47"/><path d="M141.33,132.41h-8.51a.83.83,0,0,1-.83-.83v-3.37a.83.83,0,0,1,.25-.6.86.86,0,0,1,.61-.23h.25v-7.45h-.25a.85.85,0,0,1-.61-.23.83.83,0,0,1-.25-.6v-3.37a.83.83,0,0,1,.83-.83h8.51a4.34,4.34,0,0,1,3.33,1.19,5,5,0,0,1,1.08,3.51v8.08a7.81,7.81,0,0,1-.18,1.89,3.49,3.49,0,0,1-.72,1.41,4.44,4.44,0,0,1-3.5,1.4Zm-7.68-1.66h7.68a2.84,2.84,0,0,0,2.25-.82,1.83,1.83,0,0,0,.38-.75,6.42,6.42,0,0,0,.13-1.48v-8.08a3.51,3.51,0,0,0-.64-2.38,2.81,2.81,0,0,0-2.12-.66h-7.68v1.68h.25a.85.85,0,0,1,.61.23.83.83,0,0,1,.25.6v9.17a.83.83,0,0,1-.25.6.84.84,0,0,1-.61.23h-.25Zm7-1.67h-2.42a.83.83,0,0,1-.83-.83v-9.17a.83.83,0,0,1,.83-.83h2.42a.83.83,0,0,1,.83.83v9.17A.83.83,0,0,1,140.64,129.09Zm-1.6-1.66h.77v-7.52H139Z" transform="translate(0 0)" fill="#fff"/><path d="M146.42,131.59v-3.37l1.11,0,2.34-12.5h6.77l2.41,12.5,1.11,0v3.37H155l-.52-3.86h-2.45l-.5,3.86Zm5.94-6.61h1.91l-1-6.2Z" transform="translate(0 0)" fill="#7c5f47"/><path d="M160.17,132.41H155a.83.83,0,0,1-.82-.72l-.42-3.14h-1l-.4,3.14a.83.83,0,0,1-.82.72h-5.16a.83.83,0,0,1-.83-.83v-3.37a.83.83,0,0,1,.25-.6.85.85,0,0,1,.61-.23l.4,0,2.21-11.79a.83.83,0,0,1,.81-.68h6.77a.83.83,0,0,1,.81.67l2.28,11.8.4,0a.86.86,0,0,1,.61.23.83.83,0,0,1,.25.6v3.37A.83.83,0,0,1,160.17,132.41Zm-4.4-1.66h3.57v-1.68h-.25a.83.83,0,0,1-.85-.67L156,116.59h-5.4l-2.22,11.82a.85.85,0,0,1-.85.67h-.25v1.68h3.6l.4-3.14a.83.83,0,0,1,.82-.72h2.45a.83.83,0,0,1,.82.72Zm-1.5-5h-1.91a.83.83,0,0,1-.82-1l.93-6.2a.83.83,0,0,1,.81-.71h0a.83.83,0,0,1,.82.7l1,6.2a.83.83,0,0,1-.82,1Z" transform="translate(0 0)" fill="#fff"/><path d="M172.34,125.74v5.84h-7q-3.65.07-3.58-3.33v-8.7a6.58,6.58,0,0,1,.2-1.86,2.44,2.44,0,0,1,.72-1.12,3.92,3.92,0,0,1,2.66-.82h6.89v5.07H168.5v-1.74H166v9.17h2.5v-2.52Z" transform="translate(0 0)" fill="#7c5f47"/><path d="M165.16,132.41a4.37,4.37,0,0,1-3.25-1.12,4.07,4.07,0,0,1-1-3v-8.68a7.28,7.28,0,0,1,.24-2.11,3.26,3.26,0,0,1,1-1.49,4.72,4.72,0,0,1,3.2-1h6.9a.83.83,0,0,1,.83.83v5.07a.83.83,0,0,1-.83.83H168.5a.83.83,0,0,1-.83-.83v-.91h-.85v7.52h.85v-1.69a.83.83,0,0,1,.83-.83h3.84a.83.83,0,0,1,.83.83v5.84a.83.83,0,0,1-.83.83Zm.14-15.83a3.16,3.16,0,0,0-2.1.61,1.62,1.62,0,0,0-.49.75,5.69,5.69,0,0,0-.17,1.62v8.7a2.53,2.53,0,0,0,.54,1.87,2.83,2.83,0,0,0,2.07.63h6.36v-4.19h-2.18v1.69a.83.83,0,0,1-.83.83H166a.83.83,0,0,1-.83-.83v-9.17a.83.83,0,0,1,.83-.83h2.5a.83.83,0,0,1,.83.83V120h2v-3.41Z" transform="translate(0 0)" fill="#fff"/><path d="M173.84,131.59v-3.37l1.11,0v-9.17l-1.11,0v-3.37h5.43v6.88l3.18-6.88h4.07v3.37l-1.44,0-2,3.55h2.77v5.62l1.11,0v3.37h-5.39v-6.06h-2.3v6.06Z" transform="translate(0 0)" fill="#7c5f47"/><path d="M187,132.41h-5.39a.83.83,0,0,1-.83-.83v-5.24h-.64v5.24a.83.83,0,0,1-.83.83h-5.43a.83.83,0,0,1-.83-.83v-3.37a.83.83,0,0,1,.25-.6.85.85,0,0,1,.61-.23h.25v-7.45h-.25a.84.84,0,0,1-.61-.23.83.83,0,0,1-.25-.6v-3.37a.83.83,0,0,1,.83-.83h5.43a.83.83,0,0,1,.83.83v3.11l1.6-3.46a.83.83,0,0,1,.75-.48h4.07a.83.83,0,0,1,.83.83v3.37a.83.83,0,0,1-.85.83l-.94,0-1.06,1.88h1.35a.83.83,0,0,1,.83.83v4.76h.25a.85.85,0,0,1,.61.23.83.83,0,0,1,.25.6v3.37A.83.83,0,0,1,187,132.41Zm-4.56-1.66h3.74v-1.68h-.25a.85.85,0,0,1-.61-.23.83.83,0,0,1-.25-.6v-4.8h-1.94a.83.83,0,0,1-.72-1.23l2-3.55a.82.82,0,0,1,.75-.42l.58,0v-1.69H183l-3,6.4a.83.83,0,0,1-1.58-.35v-6h-3.77v1.68h.25a.86.86,0,0,1,.61.23.83.83,0,0,1,.25.6v9.17a.83.83,0,0,1-.25.6.85.85,0,0,1-.61.23h-.25v1.68h3.77v-5.24a.83.83,0,0,1,.83-.83h2.3a.83.83,0,0,1,.83.83Z" transform="translate(0 0)" fill="#fff"/><path d="M74.93,153.35V150L76,150v-9.17l-1.11,0v-3.37H81.3v3.37l-1,0V150l1,0v3.37Z" transform="translate(0 0)" fill="#7c5f47"/><path d="M81.3,154.18H74.93a.83.83,0,0,1-.83-.83V150a.83.83,0,0,1,.25-.6.79.79,0,0,1,.61-.23h.25v-7.45H75a.81.81,0,0,1-.61-.23.83.83,0,0,1-.25-.6v-3.37a.83.83,0,0,1,.83-.83H81.3a.83.83,0,0,1,.83.83v3.37a.83.83,0,0,1-.26.6.8.8,0,0,1-.61.23h-.11v7.44h.11a.81.81,0,0,1,.61.23.83.83,0,0,1,.26.6v3.37A.83.83,0,0,1,81.3,154.18Zm-5.54-1.66h4.71v-1.68h-.11a.8.8,0,0,1-.61-.23.83.83,0,0,1-.26-.6v-9.17a.83.83,0,0,1,.26-.6.81.81,0,0,1,.61-.23h.11v-1.68H75.76V140H76a.79.79,0,0,1,.61.23.83.83,0,0,1,.25.6V150a.83.83,0,0,1-.25.6.8.8,0,0,1-.61.23h-.25Z" transform="translate(0 0)" fill="#fff"/><path d="M93.38,147.51v5.84h-7q-3.65.07-3.58-3.33v-8.7a6.6,6.6,0,0,1,.2-1.86,2.44,2.44,0,0,1,.72-1.12,3.92,3.92,0,0,1,2.66-.82h6.89v5.07H89.54v-1.74H87V150h2.5v-2.52Z" transform="translate(0 0)" fill="#7c5f47"/><path d="M86.19,154.18a4.37,4.37,0,0,1-3.25-1.12,4.07,4.07,0,0,1-1-3v-8.68a7.29,7.29,0,0,1,.24-2.11,3.27,3.27,0,0,1,1-1.49,4.72,4.72,0,0,1,3.19-1h6.9a.83.83,0,0,1,.83.83v5.07a.83.83,0,0,1-.83.83H89.54a.83.83,0,0,1-.83-.83v-.91h-.85v7.52h.85v-1.69a.83.83,0,0,1,.83-.83h3.84a.83.83,0,0,1,.83.83v5.84a.83.83,0,0,1-.83.83Zm.14-15.83a3.16,3.16,0,0,0-2.1.61,1.62,1.62,0,0,0-.49.75,5.69,5.69,0,0,0-.17,1.62V150a2.53,2.53,0,0,0,.55,1.87,2.83,2.83,0,0,0,2.07.63h6.35v-4.19H90.37V150a.83.83,0,0,1-.83.83H87a.83.83,0,0,1-.83-.83v-9.17A.83.83,0,0,1,87,140h2.5a.83.83,0,0,1,.83.83v.91h2v-3.41Z" transform="translate(0 0)" fill="#fff"/><path d="M94.55,153.35V150l1.11,0v-9.17l-1.11,0v-3.37H106v5.07h-3.63v-1.74H99.94v3h3.3v2.85h-3.3V150h2.39v-2h3.78v5.35Z" transform="translate(0 0)" fill="#7c5f47"/><path d="M106.11,154.18H94.55a.83.83,0,0,1-.83-.83V150a.83.83,0,0,1,.25-.6.79.79,0,0,1,.61-.23h.25v-7.45h-.25a.81.81,0,0,1-.61-.23.83.83,0,0,1-.25-.6v-3.37a.83.83,0,0,1,.83-.83H106a.83.83,0,0,1,.83.83v5.07a.83.83,0,0,1-.83.83h-2a.83.83,0,0,1,.12.44v2.85a.82.82,0,0,1-.15.47h2.18a.83.83,0,0,1,.83.83v5.35A.83.83,0,0,1,106.11,154.18Zm-10.73-1.66h9.9v-3.69h-2.12V150a.83.83,0,0,1-.83.83H99.94a.83.83,0,0,1-.83-.83v-3.32a.83.83,0,0,1,.83-.83h2.48v-1.2H99.94a.83.83,0,0,1-.83-.83v-3a.83.83,0,0,1,.83-.83h2.39a.83.83,0,0,1,.83.83v.91h2v-3.41H95.38V140h.25a.79.79,0,0,1,.61.23.83.83,0,0,1,.25.6V150a.83.83,0,0,1-.25.6.8.8,0,0,1-.61.23h-.25Zm5.39-3.33h.73V148a.82.82,0,0,1,.15-.47h-.88Zm0-6.17h.86a.82.82,0,0,1-.12-.44v-.91h-.73Z" transform="translate(0 0)" fill="#fff"/><path d="M113.16,153.35V150l1.11,0v-9.17l-1.11,0v-3.37h8.66a6.92,6.92,0,0,1,1.52.13,2.78,2.78,0,0,1,1,.46,2.28,2.28,0,0,1,.79,1.05,4.86,4.86,0,0,1,.24,1.68v1.34a2.64,2.64,0,0,1-2.34,2.92,3.42,3.42,0,0,1,1.8,1.1,3.28,3.28,0,0,1,.54,2v1.55a3.86,3.86,0,0,1-.8,2.76,3.74,3.74,0,0,1-2.72.81Zm5.39-9.5h2.54v-3h-2.54Zm0,6.17h2.54v-3.32h-2.54Z" transform="translate(0 0)" fill="#7c5f47"/><path d="M121.84,154.18h-8.68a.83.83,0,0,1-.83-.83V150a.83.83,0,0,1,.25-.6.79.79,0,0,1,.61-.23h.25v-7.45h-.25a.8.8,0,0,1-.61-.23.83.83,0,0,1-.25-.6v-3.37a.83.83,0,0,1,.83-.83h8.66a7.62,7.62,0,0,1,1.71.15,3.61,3.61,0,0,1,1.29.6,3.11,3.11,0,0,1,1.08,1.43,5.61,5.61,0,0,1,.3,2v1.34a3.5,3.5,0,0,1-1.25,3,3.12,3.12,0,0,1,.55.56,4.08,4.08,0,0,1,.71,2.51v1.55a4.57,4.57,0,0,1-1,3.34A4.45,4.45,0,0,1,121.84,154.18ZM114,152.52h7.86A3.08,3.08,0,0,0,124,152a3.2,3.2,0,0,0,.56-2.18v-1.55a2.51,2.51,0,0,0-.37-1.51,2.67,2.67,0,0,0-1.38-.8.83.83,0,0,1,.07-1.6,1.83,1.83,0,0,0,1.68-2.1v-1.36a4.09,4.09,0,0,0-.19-1.39,1.46,1.46,0,0,0-.51-.68,1.93,1.93,0,0,0-.7-.32,6,6,0,0,0-1.33-.11H114V140h.25a.79.79,0,0,1,.61.23.83.83,0,0,1,.25.6V150a.83.83,0,0,1-.25.6.81.81,0,0,1-.61.23H114Zm7.1-1.67h-2.54a.83.83,0,0,1-.83-.83v-3.32a.83.83,0,0,1,.83-.83h2.54a.83.83,0,0,1,.83.83V150A.83.83,0,0,1,121.09,150.85Zm-1.71-1.66h.88v-1.66h-.88Zm1.71-4.51h-2.54a.83.83,0,0,1-.83-.83v-3a.83.83,0,0,1,.83-.83h2.54a.83.83,0,0,1,.83.83v3A.83.83,0,0,1,121.09,144.68ZM119.38,143h.88v-1.35h-.88Z" transform="translate(0 0)" fill="#fff"/><path d="M130.72,137.53h3.77a3.55,3.55,0,0,1,2.72.93,4.24,4.24,0,0,1,.86,2.94v8.08a7.12,7.12,0,0,1-.16,1.68,2.65,2.65,0,0,1-.55,1.08,3.63,3.63,0,0,1-2.88,1.11h-3.77a3.55,3.55,0,0,1-2.72-.93,4.24,4.24,0,0,1-.86-2.94V141.4a7.12,7.12,0,0,1,.16-1.68,2.65,2.65,0,0,1,.55-1.08A3.63,3.63,0,0,1,130.72,137.53ZM133.8,150v-9.17h-2.38V150Z" transform="translate(0 0)" fill="#7c5f47"/><path d="M134.49,154.18h-3.77a4.34,4.34,0,0,1-3.33-1.19,5,5,0,0,1-1.08-3.51V141.4a7.82,7.82,0,0,1,.18-1.88,3.48,3.48,0,0,1,.72-1.41,4.43,4.43,0,0,1,3.5-1.4h3.78a4.34,4.34,0,0,1,3.33,1.19,5,5,0,0,1,1.08,3.51v8.08a7.81,7.81,0,0,1-.18,1.88,3.5,3.5,0,0,1-.72,1.41,4.43,4.43,0,0,1-3.5,1.4Zm-3.77-15.83a2.83,2.83,0,0,0-2.24.82,1.81,1.81,0,0,0-.38.75,6.38,6.38,0,0,0-.13,1.48v8.08a3.51,3.51,0,0,0,.64,2.38,2.8,2.8,0,0,0,2.12.66h3.76a2.83,2.83,0,0,0,2.25-.82,1.82,1.82,0,0,0,.38-.75,6.41,6.41,0,0,0,.13-1.48V141.4a3.51,3.51,0,0,0-.64-2.38,2.81,2.81,0,0,0-2.12-.66Zm3.07,12.5h-2.38a.83.83,0,0,1-.83-.83v-9.17a.83.83,0,0,1,.83-.83h2.38a.83.83,0,0,1,.83.83V150A.83.83,0,0,1,133.8,150.85Zm-1.55-1.66H133v-7.52h-.72Z" transform="translate(0 0)" fill="#fff"/><path d="M142.86,153.35l-2.12-12.5-1.11,0v-3.37h6.45v3.37l-1.1,0,1.1,7.14,2.15-10.47h3.49L154,148l.82-7.14-1.11,0v-3.37h6.5v3.37l-1.11,0-1.92,12.5H152l-2-9-1.87,9Z" transform="translate(0 0)" fill="#7c5f47"/><path d="M157.18,154.18H152a.83.83,0,0,1-.81-.65L150,148.31l-1.08,5.21a.83.83,0,0,1-.81.66h-5.28a.83.83,0,0,1-.82-.69l-2-11.78-.38,0a.79.79,0,0,1-.61-.23.83.83,0,0,1-.25-.6v-3.37a.83.83,0,0,1,.83-.83h6.45a.83.83,0,0,1,.83.83v2.31l.51-2.47a.83.83,0,0,1,.81-.66h3.49a.83.83,0,0,1,.81.65l.37,1.68v-1.51a.83.83,0,0,1,.83-.83h6.5a.83.83,0,0,1,.83.83v3.37a.83.83,0,0,1-.25.6.79.79,0,0,1-.61.23l-.37,0L158,153.48A.83.83,0,0,1,157.18,154.18Zm-4.55-1.66h3.84l1.82-11.8a.83.83,0,0,1,.85-.7h.25v-1.68h-4.85V140h.25a.8.8,0,0,1,.64.26.82.82,0,0,1,.22.66l-.82,7.14a.83.83,0,0,1-1.63.08L151,138.35H148.9l-2,9.81a.85.85,0,0,1-.83.66.83.83,0,0,1-.8-.7l-1.1-7.14a.83.83,0,0,1,.2-.68A.77.77,0,0,1,145,140h.24v-1.68h-4.79V140h.25a.85.85,0,0,1,.85.69l2,11.81h3.9l1.73-8.37a.83.83,0,0,1,.81-.66h0a.83.83,0,0,1,.81.65Zm-6.69-10.8.24,1.59.35-1.73a.77.77,0,0,1-.5.15Zm7.53,0,.28,1.28.14-1.25h-.15A.76.76,0,0,1,153.47,141.69Z" transform="translate(0 0)" fill="#fff"/><path d="M161.18,153.35V150l1.11,0v-9.17l-1.11,0v-3.37h6.49v3.37l-1.1,0V150h1.91v-2.77h4v6.1Z" transform="translate(0 0)" fill="#7c5f47"/><path d="M172.5,154.18H161.18a.83.83,0,0,1-.83-.83V150a.83.83,0,0,1,.25-.6.81.81,0,0,1,.61-.23h.25v-7.45h-.25a.79.79,0,0,1-.61-.23.83.83,0,0,1-.25-.6v-3.37a.83.83,0,0,1,.83-.83h6.49a.83.83,0,0,1,.83.83v3.37a.83.83,0,0,1-.25.6.77.77,0,0,1-.61.23h-.24v7.48h.26v-1.94a.83.83,0,0,1,.83-.83h4a.83.83,0,0,1,.83.83v6.1A.83.83,0,0,1,172.5,154.18ZM162,152.52h9.66v-4.44h-2.36V150a.83.83,0,0,1-.83.83h-1.91a.83.83,0,0,1-.83-.83v-9.17a.83.83,0,0,1,.25-.6.79.79,0,0,1,.61-.23h.24v-1.68H162V140h.25a.81.81,0,0,1,.61.23.83.83,0,0,1,.25.6V150a.83.83,0,0,1-.25.6.79.79,0,0,1-.61.23H162Z" transform="translate(0 0)" fill="#fff"/><path d="M54.24,131.59v-3.37l1.11,0,2.34-12.5h6.77l2.41,12.5,1.11,0v3.37H62.87l-.52-3.86H59.9l-.5,3.86ZM60.18,125h1.91l-1-6.2Z" transform="translate(0 0)" fill="#7c5f47"/><path d="M70.18,119.09l-1.11,0v-3.37h8.51a3.55,3.55,0,0,1,2.72.93,4.24,4.24,0,0,1,.86,2.94v8.08a7.09,7.09,0,0,1-.16,1.68,2.65,2.65,0,0,1-.55,1.08,3.63,3.63,0,0,1-2.88,1.11H69.06v-3.37l1.11,0Zm6.7,9.17v-9.17H74.45v9.17Z" transform="translate(0 0)" fill="#7c5f47"/><path d="M82.55,131.59v-3.37l1.11,0v-9.17l-1.11,0v-3.37h6.37v3.37l-1,0v9.17l1,0v3.37Z" transform="translate(0 0)" fill="#7c5f47"/><path d="M90.18,131.59v-3.37l1.11,0v-9.17l-1.11,0v-3.37H98.8q3.62,0,3.52,3.33v1.59a3.14,3.14,0,0,1-.46,1.84,3.69,3.69,0,0,1-1.65,1.13,3,3,0,0,1,1.65,1,2.08,2.08,0,0,1,.38.82,8.56,8.56,0,0,1,.09,1.48v1.26l1.11,0v3.37H100A1.53,1.53,0,0,1,98,129.67v-4.5H95.57v6.41Zm5.39-9.34H98v-3.15H95.57Z" transform="translate(0 0)" fill="#7c5f47"/><path d="M108.55,115.76h3.77a3.55,3.55,0,0,1,2.72.93,4.24,4.24,0,0,1,.86,2.94v8.08a7.12,7.12,0,0,1-.16,1.68,2.65,2.65,0,0,1-.55,1.08,3.63,3.63,0,0,1-2.88,1.11h-3.77a3.55,3.55,0,0,1-2.72-.93,4.24,4.24,0,0,1-.86-2.94v-8.08a7.12,7.12,0,0,1,.16-1.68,2.65,2.65,0,0,1,.55-1.08A3.63,3.63,0,0,1,108.55,115.76Zm3.07,12.5v-9.17h-2.38v9.17Z" transform="translate(0 0)" fill="#7c5f47"/><path d="M117.49,131.59v-3.37l1.11,0v-9.17l-1.11,0v-3.37h5.09l3.9,7.79v-7.79h5.08v3.37l-1.11,0v9.17l1.11,0v3.37h-5.08l-3.86-7.73v7.73Z" transform="translate(0 0)" fill="#7c5f47"/><path d="M133.94,119.09l-1.11,0v-3.37h8.51a3.55,3.55,0,0,1,2.72.93,4.24,4.24,0,0,1,.86,2.94v8.08a7.11,7.11,0,0,1-.16,1.68,2.65,2.65,0,0,1-.55,1.08,3.63,3.63,0,0,1-2.88,1.11h-8.51v-3.37l1.11,0Zm6.7,9.17v-9.17h-2.42v9.17Z" transform="translate(0 0)" fill="#7c5f47"/><path d="M146.42,131.59v-3.37l1.11,0,2.34-12.5h6.77l2.41,12.5,1.11,0v3.37H155l-.52-3.86h-2.45l-.5,3.86Zm5.94-6.61h1.91l-1-6.2Z" transform="translate(0 0)" fill="#7c5f47"/><path d="M172.34,125.74v5.84h-7q-3.65.07-3.58-3.33v-8.7a6.58,6.58,0,0,1,.2-1.86,2.44,2.44,0,0,1,.72-1.12,3.92,3.92,0,0,1,2.66-.82h6.89v5.07H168.5v-1.74H166v9.17h2.5v-2.52Z" transform="translate(0 0)" fill="#7c5f47"/><path d="M173.84,131.59v-3.37l1.11,0v-9.17l-1.11,0v-3.37h5.43v6.88l3.18-6.88h4.07v3.37l-1.44,0-2,3.55h2.77v5.62l1.11,0v3.37h-5.39v-6.06h-2.3v6.06Z" transform="translate(0 0)" fill="#7c5f47"/><path d="M74.93,153.35V150L76,150v-9.17l-1.11,0v-3.37H81.3v3.37l-1,0V150l1,0v3.37Z" transform="translate(0 0)" fill="#7c5f47"/><path d="M93.38,147.51v5.84h-7q-3.65.07-3.58-3.33v-8.7a6.6,6.6,0,0,1,.2-1.86,2.44,2.44,0,0,1,.72-1.12,3.92,3.92,0,0,1,2.66-.82h6.89v5.07H89.54v-1.74H87V150h2.5v-2.52Z" transform="translate(0 0)" fill="#7c5f47"/><path d="M94.55,153.35V150l1.11,0v-9.17l-1.11,0v-3.37H106v5.07h-3.63v-1.74H99.94v3h3.3v2.85h-3.3V150h2.39v-2h3.78v5.35Z" transform="translate(0 0)" fill="#7c5f47"/><path d="M113.16,153.35V150l1.11,0v-9.17l-1.11,0v-3.37h8.66a6.92,6.92,0,0,1,1.52.13,2.78,2.78,0,0,1,1,.46,2.28,2.28,0,0,1,.79,1.05,4.86,4.86,0,0,1,.24,1.68v1.34a2.64,2.64,0,0,1-2.34,2.92,3.42,3.42,0,0,1,1.8,1.1,3.28,3.28,0,0,1,.54,2v1.55a3.86,3.86,0,0,1-.8,2.76,3.74,3.74,0,0,1-2.72.81Zm5.39-9.5h2.54v-3h-2.54Zm0,6.17h2.54v-3.32h-2.54Z" transform="translate(0 0)" fill="#7c5f47"/><path d="M130.72,137.53h3.77a3.55,3.55,0,0,1,2.72.93,4.24,4.24,0,0,1,.86,2.94v8.08a7.12,7.12,0,0,1-.16,1.68,2.65,2.65,0,0,1-.55,1.08,3.63,3.63,0,0,1-2.88,1.11h-3.77a3.55,3.55,0,0,1-2.72-.93,4.24,4.24,0,0,1-.86-2.94V141.4a7.12,7.12,0,0,1,.16-1.68,2.65,2.65,0,0,1,.55-1.08A3.63,3.63,0,0,1,130.72,137.53ZM133.8,150v-9.17h-2.38V150Z" transform="translate(0 0)" fill="#7c5f47"/><path d="M142.86,153.35l-2.12-12.5-1.11,0v-3.37h6.45v3.37l-1.1,0,1.1,7.14,2.15-10.47h3.49L154,148l.82-7.14-1.11,0v-3.37h6.5v3.37l-1.11,0-1.92,12.5H152l-2-9-1.87,9Z" transform="translate(0 0)" fill="#7c5f47"/><path d="M161.18,153.35V150l1.11,0v-9.17l-1.11,0v-3.37h6.49v3.37l-1.1,0V150h1.91v-2.77h4v6.1Z" transform="translate(0 0)" fill="#7c5f47"/><path d="M164.67,106.36s137.39,29-68.15,61.33v15.92S314.76,133.58,164.67,106.36Z" transform="translate(0 0)" fill="#c26437"/><path d="M96.52,185.68a2.07,2.07,0,0,1-2.07-2.07V167.69a2.07,2.07,0,0,1,1.75-2c96.49-15.19,111.19-28.77,111.36-35.51.24-9.14-26.45-18.19-43.32-21.75a2.07,2.07,0,0,1,.8-4.06c36.35,6.59,54.14,15.08,54.39,26,.27,11.73-19.88,24.22-61.61,38.19-30,10.06-60.53,17.08-60.83,17.15A2,2,0,0,1,96.52,185.68Zm2.07-16.22V181c7.91-1.89,33.09-8.13,57.94-16.45,51.41-17.22,58.88-28.79,58.76-34.16-.05-2.39-1.78-5.9-9-9.81,3.41,2.88,5.55,6.11,5.46,9.67-.18,6.94-8.43,13.3-25.21,19.44C167.86,156.5,138.29,163.15,98.59,169.46Z" transform="translate(0 0)" fill="#7c5f47"/><path d="M164.67,106.36s137.39,29-68.15,61.33v15.92S314.76,133.58,164.67,106.36Z" transform="translate(0 0)" fill="#ffaf3a"/><path d="M112.48,168.8s21.32-4.49,32.67-7.13c0,0-22.35,9-34.27,9.77S112.48,168.8,112.48,168.8Z" transform="translate(0 0)" fill="#7c5f47"/><path d="M113,174.89s18.37-4.64,21.33-5.73A222.41,222.41,0,0,1,113,176.08C103.56,178.44,113,174.89,113,174.89Z" transform="translate(0 0)" fill="#7c5f47"/><path d="M93.61,186.36c-5.68,0-9.52-1.68-10-4.38l-1.11-6,1.49.75a18,18,0,0,0,7.91,1.51,34.47,34.47,0,0,0,6.26-.6c5.66-1,10.48-3.26,12.9-5.92l1.12-1.23,1.11,6c.35,1.88-1,3.9-3.72,5.66a28.36,28.36,0,0,1-9.9,3.64A33.23,33.23,0,0,1,93.61,186.36Z" transform="translate(0 0)" fill="#ffe083"/><path d="M111.63,172.28l.81,4.36c.59,3.17-5.21,6.9-13,8.33a32.5,32.5,0,0,1-5.88.56c-5,0-8.78-1.37-9.21-3.7l-.81-4.36a18.83,18.83,0,0,0,8.28,1.6,35.36,35.36,0,0,0,6.41-.62c6.06-1.12,10.89-3.47,13.36-6.18m1-3.58-2.24,2.47c-2.3,2.53-6.95,4.65-12.43,5.67a33.67,33.67,0,0,1-6.11.59A17.41,17.41,0,0,1,84.33,176l-3-1.5.61,3.28.81,4.36c.59,3.16,4.64,5.05,10.84,5.05a34,34,0,0,0,6.18-.59c7.78-1.44,15.18-5.43,14.28-10.26l-.81-4.36-.61-3.28Z" transform="translate(0 0)" fill="#7c5f47"/><path d="M92,177.73c-5.68,0-9.52-1.68-10-4.38-.69-3.73,5.16-7.73,13.62-9.3a33.23,33.23,0,0,1,6-.58c5.68,0,9.52,1.68,10,4.38.69,3.73-5.16,7.73-13.62,9.3a33.22,33.22,0,0,1-6,.58Z" transform="translate(0 0)" fill="#ffe083"/><path d="M101.63,164.31c5,0,8.78,1.37,9.21,3.7.59,3.17-5.21,6.9-13,8.33a32.5,32.5,0,0,1-5.88.56c-5,0-8.78-1.38-9.21-3.7-.59-3.17,5.21-6.9,13-8.33a32.51,32.51,0,0,1,5.88-.56m0-1.66a34,34,0,0,0-6.18.59A29.19,29.19,0,0,0,85.26,167c-3.05,2-4.5,4.27-4.09,6.51.59,3.16,4.64,5.05,10.84,5.05a34,34,0,0,0,6.18-.59,29.19,29.19,0,0,0,10.2-3.75c3.05-2,4.5-4.27,4.09-6.51-.59-3.16-4.64-5.05-10.84-5.05Z" transform="translate(0 0)" fill="#7c5f47"/><path d="M91.71,166.63s-10.52,8,6.84,8.71c0,0-11.16,3.21-14.36-1.68C81.59,169.67,91.71,166.63,91.71,166.63Z" transform="translate(0 0)" fill="#ffd454"/><path d="M208.58,122.4s12.69,6.21.67,16.06S222.32,130.63,208.58,122.4Z" transform="translate(0 0)" fill="#7c5f47"/></svg>