<svg id="Layer_1" data-name="Layer 1" xmlns="http://www.w3.org/2000/svg" viewBox="0 0 253 253"><title>arrrgh</title><rect width="253" height="253" fill="#fff"/><path d="M202.17,184.37l1.78,0c3.49,0,12.06-1.22,4.44-6.16-2.71-1.76-3.65-9-8.49-7.69s-12.8-.52-15.32-1.1-1.54-7.08-6.22-5.78a27.24,27.24,0,0,1-2.77.59c.23-.82.42-1.62.54-2.19v0a10.79,10.79,0,0,0,1.35-3.76,21.56,21.56,0,0,0-.33-3.46h4.91s.29-.85,0-.75l-.29,0L179.68,141l.17-.38-.65-.41-.42.92a28,28,0,0,0-3.21,2.85c-.11-1.3-.45-3-1.48-3.54,0,0-2-.06-4.45-.3l-.13-1.17H169V136.7a6.67,6.67,0,0,1,4.17,2.28c-.65-1.12-.53-4.23-.53-4.23a5.53,5.53,0,0,0-3.09-1.3h0l-.14-1.1-.53-.35s0-4.94-.29-2.58l-.32,2.76-.51.41v.75a16.81,16.81,0,0,0-2.81.25,11.39,11.39,0,0,1-1.59,4.12,12.55,12.55,0,0,1,2.25-.8c-.09.78-.19,1.79-.27,2.65a9.47,9.47,0,0,1-3.16-1.08s-.12,4.23-.82,4.93a8.09,8.09,0,0,1-2.25.24s.43,3.76-2.39,9.52a20,20,0,0,1,6.64-2.82v1.17l-.94.9h0a18.83,18.83,0,0,0-3.71.1,11.69,11.69,0,0,0-.55,2.07l-2.21.87c-.86.34.23.59.23.59a2.26,2.26,0,0,1,1.8.36,8.51,8.51,0,0,0,1.43,5.16l1.27-.23c-.69,1.17-1.56,3-1.15,4.17h0a5.65,5.65,0,0,0-.32,1.21l-11-4.29s-5.51-5.37-8.79-7.22-3.78,1.41-8.55,3.12-13.12-7.35-16-7-8.21,3.87-8.21,3.87-.51,7.38-.82,6.92-3.14-4.85-3.14-4.85l-13.48-.91H58.64l-7,7.74-.78,8.86-10.34,3.33,2.25,4.18,9.67,1.83,8.15-3.07,7.49,1c-3.09.55-5,1.27-5,2,0,1.76,9.57,3.2,21.38,3.2s21.38-1.43,21.38-3.2c0-.88-2.36-1.67-6.17-2.25l16.34-.82s9.57,4.6,19.52,4.91-.12-2.52,9.15-3.68,12.17,2.26,10.34,4.1c-.41.41.18.7,1.38.9q-1.93.42-3.77.93l-3.46.64s11.56,1.27,18.47,1.59,28-1.27,29.27,0,20.24-2.23,20.24-2.23S211.11,185.28,202.17,184.37Zm-27.78-20h-.05a5.65,5.65,0,0,0-.19-.95,4.08,4.08,0,0,0-.72-1.13l1.93-1.2a3.26,3.26,0,0,1,.49.46A6.57,6.57,0,0,1,174.39,164.37Zm-6.66-11.52-.47-.07-.3-2.56a7.65,7.65,0,0,1,.77.18Zm10.53-10.55-1.79,4a4.38,4.38,0,0,0-.85-.78s0-.43,0-1Zm-2.94,8.61,2.18,2.29-.41-2.52a14.91,14.91,0,0,1,1.76,2.22,15.51,15.51,0,0,0-1.9-6l2.09-4.53,2.41,11.72c-1,.07-3.08.14-4.36.19-.07-.4-.12-.68-.12-.68s-1-.14-2.24-.29C175,152.25,175.33,150.91,175.33,150.91Zm-2.59-2.56,1.36,2.85-.4,2-.5-.06-1.46-4.7A3,3,0,0,1,172.74,148.35ZM171.5,153c-.55,0-1.06-.08-1.47-.09,0-.46-.1-1-.15-1.48A7.7,7.7,0,0,1,171.5,153Zm-2.93-2.29.5.23c0,.61-.09,1.38-.09,2h-.41Zm0,9a2.52,2.52,0,0,1,2.35-.48,13.33,13.33,0,0,1,4,1.51c-.51.35-1.21.79-1.79,1.15a28.26,28.26,0,0,0-2-2s-1.25.89-2.53,1.59ZM166,136.82a8.92,8.92,0,0,1,2.17-.19V139h-.82v.89c-.51-.07-1-.15-1.5-.24Zm-.41,13.29a8.93,8.93,0,0,1,1.07.07l-.13,1.85-.94.34Zm.88,10.5a2.64,2.64,0,0,0,1.28-.3v1.61a3,3,0,0,1-1.51.39h0l-1-1.63C165.66,160.64,166.1,160.61,166.46,160.61Zm-2.35-10.41.7-.07v1.61l-.7-.41ZM164,160.82l.45,1.72a20.78,20.78,0,0,0-2.38.92l1-2.52Zm-2.36.35,1-.15-1.05,2.68-.71.32a2.19,2.19,0,0,0-.52.34A9.08,9.08,0,0,1,161.61,161.16Z" transform="translate(0 0)" fill="#b2c4cd"/><polygon points="187.13 183.47 183.58 123.17 194.44 123.17 192.9 183.47 187.13 183.47" fill="#231f20"/><polygon points="184.59 124.12 188.02 182.52 192.1 182.79 193.46 124.12 184.59 124.12" fill="#4d2c09"/><polygon points="193.22 134.08 191.23 140.23 189.95 160.11 188.98 143.13 188.11 146.98 186.83 142.44 186.74 159.39 184.59 129.61 193.38 127.8 193.22 134.08" fill="#361900"/><polygon points="187 163.59 188.98 168.84 188.11 155.18 190.83 171.15 193.05 142.03 192.1 182.79 188.98 178.15 187 163.59" fill="#88592d"/><path d="M161,180.45h-.5l-7.77,6H217.2l-2.73-5.21-4-3.21-4.32-6.55-3.69-6.58-6.65-2.44-2.35,1.27c-.09.05-5.57,5.22-10.18,5.22a4.25,4.25,0,0,1-.86-.08,9,9,0,0,0-1.86-.2,8.7,8.7,0,0,0-1.84.2c-1.89-.7-3.49-1.45-4-2a5,5,0,0,0-4.2-2c-2.53,0-5.35,1.34-7.62,2.42a16.76,16.76,0,0,1-2.82,1.18,1.73,1.73,0,0,1-.36,0c-2,0-5.44-2.62-6.57-3.62l-.39-.35-4.75,1.34-21.18-4.62-21.65-10.85-40-.36-10.83,5.52-4.32,8.05-7.71,11.79,10.93,3.21L116,175.93l8-.71,34.31,0,6.36,1.64-2.94,3.59C161.39,180.45,161.11,180.45,161,180.45Z" transform="translate(0 0)" fill="#231f20"/><path d="M192.05,126.88l3.87-1.65C193.2,124.56,192.72,125.16,192.05,126.88Z" transform="translate(0 0)" fill="#b6875b"/><path d="M96.11,140.42c-1.83,2.17.68.87,4.28-.15l5.34-2.57C101.65,137,98.41,137.71,96.11,140.42Z" transform="translate(0 0)" fill="#b6875b"/><path d="M181.44,124.62c2.06-2.38,5.55-1.9,7.14-2s5.55.06,6-1.26,1.19-3.6-.62-1.53-4.6,1.1-12.37,1.3-4.12,3.13-9.36,6.63l-.39.23,6.67.29C181.75,127.14,179.8,126.51,181.44,124.62Z" transform="translate(0 0)" fill="#b6875b"/><path d="M126.71,134.78c-1.71,2.28.61,1.81,3.78-.22l-3.43-.18A5,5,0,0,0,126.71,134.78Z" transform="translate(0 0)" fill="#b6875b"/><path d="M91.79,149.78c.59-.42,7.08-8.78,7.08-8.78l15.21-7.32L145,135.33l24.41-7.4,18.31.81,10.06-4.3,1.18-3.51-1.23-3-1-1,1.19-1.43.26-8.14-3.29-2.62a2,2,0,0,0-1.6,1.61l-3-.61,7.29-2.63-3.13-16.18L190,82.66l-99.54,17-15.75,4C58.92,132,73.72,149.41,86.47,158.3,86.74,155.21,88.28,152.26,91.79,149.78Z" transform="translate(0 0)" fill="#754d24"/><path d="M197,121.18l-1.8,4c-3.35-2.1-8.69-5.44-9-5.58-.48-.21-30.76,6.54-30.76,6.54s-32.9.22-33.37,0-21.79,12.27-21.79,12.27l1.62,5.7,13-5.3,29.94.94,25.11-8.49,19.87,0,8.14-4.41,1.07-5.94Z" transform="translate(0 0)" fill="#4d2c09"/><path d="M85.93,159.08C74.31,151,57.3,133,73.83,103.21l.2-.36,16.15-4.14L190.27,81.64l5,4.81,3.34,17.28-2.45.88,2.89,2.3-.28,8.94-.83,1,.53.5,1.41,3.48-1.2,6.66L190,132.24l-20,0-25.12,8.5L115,139.76l-13.75,5.63-1.12-3.93-.63.3c-3,3.83-6.56,8.39-7.14,8.79-3,2.11-4.66,4.75-4.92,7.83L87.28,160Z" transform="translate(0 0)" fill="#231f20"/><path d="M197.69,117.9l-1-1,1.19-1.43.26-8.14-3.29-2.62a2,2,0,0,0-1.6,1.61l-3-.61,7.29-2.63-3.13-16.18L190,82.66l-99.54,17-15.75,4C58.92,132,73.72,149.41,86.47,158.3c.27-3.09,1.81-6,5.32-8.52.59-.42,7.08-8.78,7.08-8.78l1.85-.89,1.14,4,13-5.3,29.94.94,25.11-8.49,19.87,0,8.14-4.41,1.07-5.94Z" transform="translate(0 0)" fill="#4d2c09"/><path d="M91.79,149.78c.59-.42,7.08-8.78,7.08-8.78l15.21-7.32L145,135.33l24.41-7.4,18.31.81,8.34-3.56.94-4-1.19-3.38-1.19-1.1,1.19-1.69-1-10.28-7.14-.63,7.14-2.15-5.24-18.36L99.26,99.39,71.37,101c-17.32,31.18,2.28,48,15.45,55.3A12,12,0,0,1,91.79,149.78Z" transform="translate(0 0)" fill="#c59b6c"/><path d="M190.59,87.1a82.67,82.67,0,0,0-16,2.46c-7.3,2.06-14.91,9.2-31.89,10.95s-21.92,1-27.62,3.14-12.6,5.33-14.94,5.54-1.58,1.72,2.72.41,6-1.24,8.94-2.78,8.07-3.62,10.68-3.53,16.25,1,20.22.37,15.7-.6,20.78-3.14,4-2.52.64-1.9-2.54-1.58,1.59-3.1,11.42-5.53,14.12-4.79,12.21-.5,4.76,2-11.58,2.44-13,5.18-.48,5.38-8.09,6.68-14.59.73-20.78,2.2-2.5,1.43,2,1,5-1.13,9.9,0,13.8.51,17.13-2.75,2.54-7.38,8.73-7.62,5-3.92,11.68-4.78Z" transform="translate(0 0)" fill="#b6875b"/><path d="M155.39,89.57s-.61,4.17-7.11,5.81-12.9.37-19.46,2-14.55,6.45-22.13,5.73-17.3-.13-14.27-1.06a20.32,20.32,0,0,1,7.82-.93c2.51.16,8.58.48,12.29-.63s4.59-3.09,1-2.58-.3-.88,5.18-.58,5.88-.19,9-1.83S135,94.33,138,94.65s12.86.33,7-3Z" transform="translate(0 0)" fill="#b6875b"/><path d="M109.9,134.37c-1.74-1.36,4-1.65,8.29-1.45,1.63.07,2.09.49,1.87,1.09l4,.21c1-1.27,2-2.56,2.77-3.66,2.7-3.74,5.08-2.44,6.93-.86s-4.13,1.88-6.73,4.67l3.43.18a29.65,29.65,0,0,0,3.95-3c4.69-4.27,7-3.74,11.71-1.47s4,1.86,0,4.31l-1.57.94.39,0,10.12-3.07a3.88,3.88,0,0,1,1.92-1.7c1-.47,2.72-.44,4.84-.35l2.4-.73a69.1,69.1,0,0,1-21.52-4c-9-3.31-13,.29-18.09,2.75s-7.93,1.35-16.41.51-6.59-1.54-11.2-3.27,3.14-2.69,4.75-4.5,5.1-.28,8.32,2.18,6.93-3.26,11.17-5.22,4.17,3.71,6.87,4.76,5.87.38,2.11-1.25-3.22-3.29-7.74-5.44-4.05,2.46-9.78,1.93,1.61-3.27,6.8-4.79,6.23.72,11.37,4.19,23.74,6.69,30.56,4.1,9.36-3.61,13-4.71,12.85,0,16.81-1.69a5.88,5.88,0,0,0,3.8-5.42v-2.21s-.78,4.55-2.9,6-8.19.79-11.37-.52-5.55-.11-14.28,3.13-8.25,1.2-13.64,1.93-11.11-1.05-14.28-1.93-7.14-.87-6.82-2.61,7.3.32,17.93,1.65,7.3-.7,11.1-2.18,9.52-2.49,11.9-4.08,7-2.06,8.25-3.24,6.72-1.41,6.72-1.41a13.65,13.65,0,0,0-6.88.5c-4.13,1.24-18.08,7.64-26.17,8.19s-11.27-1.19-16-1-11.9-1.11-19.08-1.55-20.4,9.65-20.4,9.65c-9.66,3.66-5.66,7.32-.66,8.15s9.53,2.63,5.67,3.51-2.49,1.82,2.56,4.49a13.77,13.77,0,0,0,1.29.6l2.73-1.31A3.18,3.18,0,0,0,109.9,134.37Z" transform="translate(0 0)" fill="#b6875b"/><path d="M107.29,102.57l.1,4.13c0,.56.06.63.68.51v.36l-2.5.46v-.36c.62-.11.67-.2.66-.76l-.1-4.13-.55.1c-.45.08-.52.14-.66,1.09l-.45.08.15-1.45,4.17-.76.21,1.38-.44.08c-.18-.9-.27-.92-.72-.84Z" transform="translate(0 0)" fill="#4d2c09"/><path d="M109.38,107c.41-.07.45-.15.44-.7l-.08-3.64c0-.51-.06-.57-.46-.5v-.29a7.08,7.08,0,0,0,1.4-.62l.13,0,.06,2.48h0a2,2,0,0,1,1.22-.84c1.07-.19,1.14.63,1.15,1.12l0,1.64c0,.5.05.59.4.53v.31l-1.82.33v-.31c.32-.06.35-.12.34-.68l0-1.58c0-.51-.07-.88-.49-.8-.27,0-.54.37-.8.77l0,1.86c0,.56.06.6.35.55V107l-1.87.34Z" transform="translate(0 0)" fill="#4d2c09"/><path d="M117.52,105a2,2,0,0,1-1.54,1.22c-1.2.22-1.92-.32-2-1.71a2.1,2.1,0,0,1,1.76-2.23c1.61-.29,1.72,1.28,1.73,1.67l-2.35.43a2.06,2.06,0,0,0,.28,1.13.73.73,0,0,0,.73.28,1.41,1.41,0,0,0,1-.88Zm-1.12-1.2c0-.47-.09-1.28-.62-1.19s-.63.84-.62,1.41Z" transform="translate(0 0)" fill="#4d2c09"/><path d="M123.19,101.46a1,1,0,0,1,.38.8c0,1-.72,1.54-1.69,1.72a2.05,2.05,0,0,1-.8,0,.61.61,0,0,0-.27.44c0,.2.2.29.63.21l.86-.16c1.25-.23,1.7.21,1.71.81,0,.86-.95,1.58-2.17,1.8s-1.94.06-2-.58c0-.47.43-.86.88-1.09-.33,0-.65-.21-.66-.56a1.26,1.26,0,0,1,.66-.94,1.06,1.06,0,0,1-.68-1c0-.89.68-1.52,1.7-1.71a2.06,2.06,0,0,1,1.09.06l1-.34v.5Zm-2,4a1.07,1.07,0,0,0-.41.77c0,.41.41.63,1.11.5s1.27-.57,1.26-1c0-.29-.23-.55-1-.4Zm1.3-3c0-.54-.22-1-.67-.93s-.64.63-.62,1.17.27,1,.68.94S122.48,103.06,122.47,102.46Z" transform="translate(0 0)" fill="#4d2c09"/><path d="M124.33,102.7a2.1,2.1,0,0,1,1.87-2.3c1.33-.24,1.94.41,2,1.61a2.09,2.09,0,0,1-1.87,2.36C124.79,104.63,124.36,103.78,124.33,102.7Zm1.86-2c-.58.1-.74.82-.72,1.78a2.44,2.44,0,0,0,.28,1.31.49.49,0,0,0,.51.19.7.7,0,0,0,.5-.37,2.85,2.85,0,0,0,.23-1.4,2.47,2.47,0,0,0-.28-1.31.49.49,0,0,0-.52-.2Z" transform="translate(0 0)" fill="#4d2c09"/><path d="M128.68,101.91a2.1,2.1,0,0,1,1.86-2.3c1.33-.24,1.94.41,2,1.61a2.09,2.09,0,0,1-1.87,2.36C129.13,103.84,128.7,103,128.68,101.91Zm1.86-2c-.58.11-.74.82-.71,1.78a2.46,2.46,0,0,0,.28,1.31.5.5,0,0,0,.52.19.7.7,0,0,0,.5-.37,2.84,2.84,0,0,0,.23-1.4,2.46,2.46,0,0,0-.28-1.31.49.49,0,0,0-.52-.19Z" transform="translate(0 0)" fill="#4d2c09"/><path d="M135.58,99l0-1c0-.5,0-.58-.48-.51v-.29a5.37,5.37,0,0,0,1.42-.62l.13,0,.11,4.9c0,.49.06.53.39.47v.27a7.22,7.22,0,0,0-1.33.36l-.08,0,0-.38h0a1.38,1.38,0,0,1-.93.61c-.9.16-1.6-.39-1.63-1.73a2,2,0,0,1,1.63-2.24,1,1,0,0,1,.84.2Zm0,.5a.65.65,0,0,0-.63-.33c-.68.12-.73,1.08-.72,1.73,0,1,.35,1.49.77,1.41a1,1,0,0,0,.62-.58Z" transform="translate(0 0)" fill="#4d2c09"/><path d="M142.91,97.29c-.16-.75-.3-1.31-1-1.18-1.17.21-1.26,1.85-1.24,2.63,0,2,.79,2.38,1.34,2.28a1.58,1.58,0,0,0,1.12-1.33l.45,0a2.15,2.15,0,0,1-1.76,1.85c-1.88.34-2.32-1.1-2.35-2.5,0-1.82.76-3,2.39-3.31a3.16,3.16,0,0,1,1.29,0c.05.42.13.89.23,1.36Z" transform="translate(0 0)" fill="#4d2c09"/><path d="M146.29,97.85c0-.61-.26-.72-.56-.66a.85.85,0,0,0-.63.69.53.53,0,0,1-.46.38c-.28.05-.4-.1-.41-.29s.24-.89,1.57-1.13c.68-.12,1.55-.19,1.58,1l0,1.69c0,.4.09.52.25.49a.47.47,0,0,0,.21-.1l.07.29a2.19,2.19,0,0,1-.77.27c-.44.08-.64,0-.77-.27h0a1.76,1.76,0,0,1-1.14.67.86.86,0,0,1-1.13-.8,1.22,1.22,0,0,1,.52-1,4.46,4.46,0,0,1,1.18-.68l.5-.22Zm0,.66c-.63.31-1.09.68-1.07,1.23s.22.61.52.56a1,1,0,0,0,.58-.41Z" transform="translate(0 0)" fill="#4d2c09"/><path d="M149.75,99.7l0,1.32c0,.53.06.58.43.52v.31l-1.95.35v-.31c.4-.07.44-.15.43-.67l-.08-3.64c0-.52,0-.59-.46-.51v-.3a5.93,5.93,0,0,0,1.35-.61l.12.05,0,.44h0a1.49,1.49,0,0,1,1-.71c.81-.15,1.5.37,1.53,1.67s-.61,2.13-1.52,2.3a1.08,1.08,0,0,1-1-.21Zm0-.49a.72.72,0,0,0,.69.32c.68-.12.68-1.23.67-1.73,0-.31,0-1.48-.72-1.36a1.15,1.15,0,0,0-.68.63Z" transform="translate(0 0)" fill="#4d2c09"/><path d="M152.64,96v-.29c.58-.17.94-.62,1.19-1.49l.3-.05,0,1.2.88-.16v.36l-.89.16.06,2.43c0,.47.16.61.41.56a.85.85,0,0,0,.47-.26l.19.25a1.7,1.7,0,0,1-1,.51c-.6.11-1.12,0-1.14-.91L153.08,96Z" transform="translate(0 0)" fill="#4d2c09"/><path d="M157.78,95.76c0-.61-.26-.72-.56-.66a.85.85,0,0,0-.63.69.53.53,0,0,1-.46.38c-.28.05-.4-.1-.41-.29s.24-.89,1.57-1.13c.68-.12,1.55-.19,1.58,1l0,1.69c0,.4.09.52.25.49a.47.47,0,0,0,.21-.1l.07.28a2.19,2.19,0,0,1-.77.27c-.44.08-.64,0-.77-.27h0a1.75,1.75,0,0,1-1.14.67c-.52.09-1.11-.11-1.13-.8a1.22,1.22,0,0,1,.52-1,4.44,4.44,0,0,1,1.18-.68l.5-.22Zm0,.66c-.63.31-1.09.68-1.08,1.23s.22.61.52.56a1,1,0,0,0,.58-.41Z" transform="translate(0 0)" fill="#4d2c09"/><path d="M161.2,94.1l.07,2.88c0,.54.06.6.45.53v.31l-2,.36v-.31c.44-.08.47-.15.46-.7l0-1.7c0-.55,0-.58-.49-.5v-.3a5.17,5.17,0,0,0,1.43-.62Zm0-1.09a.75.75,0,0,1-.6.76.52.52,0,0,1-.63-.54.74.74,0,0,1,.6-.76A.51.51,0,0,1,161.2,93Z" transform="translate(0 0)" fill="#4d2c09"/><path d="M163.55,94.23a1.89,1.89,0,0,1,1.19-.85c.87-.16,1.17.28,1.19,1l0,1.73c0,.48.06.58.39.52V97l-1.8.33V97c.31-.06.34-.11.33-.68l0-1.69c0-.41-.08-.77-.5-.7-.24,0-.53.34-.78.78l0,1.85c0,.56,0,.6.34.55v.31l-1.86.34v-.31c.41-.07.45-.15.44-.7l0-1.68c0-.53-.07-.6-.46-.52v-.3a5.49,5.49,0,0,0,1.34-.61l.14,0,0,.56Z" transform="translate(0 0)" fill="#4d2c09"/><path d="M168.93,95.32c.21.68.52.84,1,.76a.68.68,0,0,0,.63-.68.4.4,0,0,0-.14-.32,2.41,2.41,0,0,0-.67-.34,3.08,3.08,0,0,1-.77-.43.85.85,0,0,1-.27-.63c0-.59.54-1.1,1.5-1.28a3.08,3.08,0,0,1,1.06,0,8.92,8.92,0,0,0,.17.88l-.32.12c-.14-.57-.36-.73-.79-.65s-.59.24-.58.53a.47.47,0,0,0,.31.39c.21.1.5.18.7.29s.91.38.93,1-.5,1.27-1.6,1.46a3.26,3.26,0,0,1-1.26,0c0-.33-.1-.6-.19-1Z" transform="translate(0 0)" fill="#4d2c09"/><path d="M174.29,92.76c0-.61-.26-.72-.56-.66a.86.86,0,0,0-.63.69.53.53,0,0,1-.46.38c-.28.05-.4-.1-.4-.29s.24-.89,1.57-1.13c.68-.12,1.55-.19,1.58,1l0,1.69c0,.4.09.52.25.49a.47.47,0,0,0,.2-.1l.07.29a2.17,2.17,0,0,1-.77.27c-.44.08-.65,0-.77-.27h0a1.76,1.76,0,0,1-1.14.67.86.86,0,0,1-1.13-.8,1.22,1.22,0,0,1,.52-1,4.43,4.43,0,0,1,1.18-.68l.5-.22Zm0,.66c-.63.31-1.09.68-1.07,1.23s.22.61.52.56a1,1,0,0,0,.58-.41Z" transform="translate(0 0)" fill="#4d2c09"/><path d="M178,94.83l-1.42-2.66c-.23-.45-.28-.47-.55-.42v-.31l1.9-.35v.31c-.21,0-.31.09-.31.21a.67.67,0,0,0,.1.28l.76,1.65h0l.64-2a.64.64,0,0,0,0-.2c0-.1-.09-.12-.31-.08v-.31l1.2-.22V91c-.24,0-.32.1-.46.48l-1.45,4.29c-.22.55-.51,1.16-1.21,1.28s-.94-.15-1-.53a.4.4,0,0,1,.31-.4.38.38,0,0,1,.46.26c.08.19.15.31.3.28s.48-.5.63-.86Z" transform="translate(0 0)" fill="#4d2c09"/><path d="M180.62,93.19c.21.68.52.84,1,.76a.68.68,0,0,0,.63-.68.41.41,0,0,0-.14-.32,2.41,2.41,0,0,0-.67-.34,3.11,3.11,0,0,1-.77-.43.85.85,0,0,1-.27-.63c0-.59.55-1.1,1.5-1.28a3.13,3.13,0,0,1,1.07,0,8.77,8.77,0,0,0,.17.88l-.32.12c-.14-.57-.37-.73-.79-.65s-.59.24-.58.53a.47.47,0,0,0,.31.39c.21.1.5.18.7.29s.91.38.93,1-.5,1.27-1.6,1.47a3.27,3.27,0,0,1-1.26,0c0-.33-.1-.6-.18-1Z" transform="translate(0 0)" fill="#4d2c09"/><path d="M107.6,102.33l.09,4.13c0,.56.06.63.69.51v.36l-2.5.46v-.36c.62-.11.67-.2.66-.76l-.09-4.13-.55.1c-.45.08-.52.14-.66,1.09l-.45.08.15-1.45,4.17-.76.21,1.38-.44.08c-.18-.9-.27-.93-.72-.84Z" transform="translate(0 0)" fill="#fff"/><path d="M109.69,106.78c.4-.07.45-.16.44-.7l-.08-3.64c0-.51-.07-.57-.46-.49v-.29A7.09,7.09,0,0,0,111,101l.13,0,.06,2.48h0a2,2,0,0,1,1.22-.84c1.07-.19,1.14.63,1.15,1.12l0,1.64c0,.5.05.59.4.53v.31l-1.82.33v-.31c.32-.06.35-.12.34-.68l0-1.58c0-.51-.06-.88-.49-.8-.27,0-.54.37-.8.77l0,1.86c0,.56.06.6.35.55v.31l-1.87.34Z" transform="translate(0 0)" fill="#fff"/><path d="M117.83,104.77a2,2,0,0,1-1.54,1.22c-1.2.22-1.92-.32-2-1.71a2.1,2.1,0,0,1,1.76-2.23c1.61-.29,1.72,1.28,1.73,1.67l-2.35.43a2.06,2.06,0,0,0,.28,1.13.73.73,0,0,0,.72.28,1.4,1.4,0,0,0,1-.88Zm-1.12-1.2c0-.47-.09-1.28-.62-1.19s-.63.84-.62,1.41Z" transform="translate(0 0)" fill="#fff"/><path d="M123.5,101.22a1,1,0,0,1,.38.8c0,1-.72,1.54-1.69,1.72a2.05,2.05,0,0,1-.8,0,.61.61,0,0,0-.27.44c0,.2.2.29.63.21l.86-.16c1.25-.23,1.7.21,1.72.81,0,.86-.95,1.58-2.17,1.8s-1.94.06-2-.58c0-.47.43-.86.88-1.09-.34,0-.65-.21-.66-.56a1.26,1.26,0,0,1,.66-.94,1.06,1.06,0,0,1-.68-1c0-.89.67-1.52,1.7-1.71a2,2,0,0,1,1.09.06l1-.34v.5Zm-2,4a1.07,1.07,0,0,0-.41.77c0,.41.41.63,1.11.5s1.27-.58,1.26-1c0-.29-.23-.54-1-.4Zm1.3-3c0-.54-.22-1-.67-.93s-.64.63-.62,1.17.27,1,.68.94S122.8,102.81,122.78,102.22Z" transform="translate(0 0)" fill="#fff"/><path d="M124.64,102.45a2.1,2.1,0,0,1,1.86-2.3c1.33-.24,1.94.41,2,1.61a2.08,2.08,0,0,1-1.87,2.36C125.1,104.39,124.67,103.53,124.64,102.45Zm1.86-2c-.58.11-.74.82-.71,1.78a2.44,2.44,0,0,0,.28,1.31.49.49,0,0,0,.51.19.69.69,0,0,0,.5-.37,2.85,2.85,0,0,0,.23-1.4,2.47,2.47,0,0,0-.28-1.31.49.49,0,0,0-.52-.2Z" transform="translate(0 0)" fill="#fff"/><path d="M129,101.66a2.1,2.1,0,0,1,1.86-2.3c1.33-.24,1.94.41,2,1.61a2.09,2.09,0,0,1-1.87,2.36C129.44,103.6,129,102.74,129,101.66Zm1.86-2c-.58.11-.74.82-.71,1.78a2.46,2.46,0,0,0,.28,1.31.49.49,0,0,0,.52.19.7.7,0,0,0,.5-.37,2.84,2.84,0,0,0,.23-1.4,2.45,2.45,0,0,0-.28-1.31.49.49,0,0,0-.52-.2Z" transform="translate(0 0)" fill="#fff"/><path d="M135.89,98.79l0-1c0-.49,0-.59-.48-.51V97a5.33,5.33,0,0,0,1.41-.62l.13,0,.11,4.9c0,.49.06.53.39.47V102a7.21,7.21,0,0,0-1.32.36l-.08,0,0-.38h0a1.39,1.39,0,0,1-.93.61c-.9.16-1.6-.39-1.63-1.73A2,2,0,0,1,135,98.6a1,1,0,0,1,.84.2Zm0,.5a.65.65,0,0,0-.63-.33c-.68.12-.73,1.08-.72,1.73,0,1,.35,1.49.77,1.41a1,1,0,0,0,.62-.58Z" transform="translate(0 0)" fill="#fff"/><path d="M143.22,97c-.16-.75-.3-1.31-1-1.18-1.17.21-1.26,1.85-1.25,2.63,0,2,.79,2.38,1.34,2.28a1.58,1.58,0,0,0,1.12-1.33l.45,0a2.15,2.15,0,0,1-1.76,1.85c-1.88.34-2.32-1.1-2.35-2.5,0-1.82.76-3,2.39-3.31a3.14,3.14,0,0,1,1.29,0c.05.42.13.89.23,1.36Z" transform="translate(0 0)" fill="#fff"/><path d="M146.6,97.6c0-.61-.26-.72-.56-.66a.85.85,0,0,0-.63.69.53.53,0,0,1-.47.38c-.28.05-.4-.1-.41-.29s.24-.89,1.57-1.13c.68-.12,1.55-.19,1.58,1l0,1.69c0,.4.09.52.25.49a.48.48,0,0,0,.21-.1l.06.28a2.17,2.17,0,0,1-.77.27c-.44.08-.64,0-.77-.27h0a1.75,1.75,0,0,1-1.14.67c-.52.09-1.11-.11-1.13-.8a1.22,1.22,0,0,1,.52-1,4.43,4.43,0,0,1,1.18-.68l.5-.22Zm0,.66c-.63.32-1.09.68-1.07,1.23s.22.61.52.56a1,1,0,0,0,.58-.41Z" transform="translate(0 0)" fill="#fff"/><path d="M150.06,99.46l0,1.32c0,.53.06.59.43.52v.31l-1.95.35v-.31c.4-.07.44-.15.43-.67l-.08-3.64c0-.52,0-.59-.46-.51v-.3a5.91,5.91,0,0,0,1.35-.61l.12.05,0,.44h0a1.48,1.48,0,0,1,1-.71c.81-.15,1.5.37,1.53,1.67s-.61,2.13-1.52,2.3a1.08,1.08,0,0,1-1-.21Zm0-.49a.72.72,0,0,0,.69.32c.68-.12.68-1.23.66-1.73,0-.31,0-1.48-.72-1.36a1.14,1.14,0,0,0-.68.63Z" transform="translate(0 0)" fill="#fff"/><path d="M153,95.8v-.29c.58-.17.94-.62,1.19-1.5l.3-.06,0,1.2.89-.16v.36l-.89.16.05,2.43c0,.47.16.61.41.56a.87.87,0,0,0,.47-.26l.19.26a1.71,1.71,0,0,1-1,.51c-.6.11-1.12,0-1.14-.91l-.05-2.39Z" transform="translate(0 0)" fill="#fff"/><path d="M158.09,95.52c0-.61-.26-.72-.56-.66a.85.85,0,0,0-.63.69.53.53,0,0,1-.46.38c-.28.05-.4-.1-.41-.29s.24-.89,1.57-1.13c.68-.12,1.55-.19,1.58,1l0,1.69c0,.4.09.52.25.49a.47.47,0,0,0,.21-.1l.07.29a2.17,2.17,0,0,1-.77.27c-.44.08-.64,0-.77-.27h0a1.75,1.75,0,0,1-1.14.67.86.86,0,0,1-1.13-.8,1.22,1.22,0,0,1,.52-1,4.42,4.42,0,0,1,1.18-.68l.5-.22Zm0,.66c-.63.31-1.09.68-1.08,1.23s.22.61.52.56a1,1,0,0,0,.58-.41Z" transform="translate(0 0)" fill="#fff"/><path d="M161.51,93.85l.07,2.88c0,.54.06.6.45.53v.31l-2,.36v-.31c.44-.08.47-.15.46-.7l0-1.7c0-.55,0-.58-.49-.5v-.3a5.16,5.16,0,0,0,1.43-.63Zm0-1.09a.75.75,0,0,1-.6.76.51.51,0,0,1-.63-.54.74.74,0,0,1,.6-.76A.51.51,0,0,1,161.51,92.76Z" transform="translate(0 0)" fill="#fff"/><path d="M163.86,94a1.88,1.88,0,0,1,1.19-.85c.87-.16,1.17.28,1.19,1l0,1.73c0,.48.06.58.39.52v.31l-1.8.33v-.31c.31-.06.34-.11.33-.68l0-1.69c0-.41-.08-.77-.5-.7-.24,0-.53.34-.78.78l0,1.85c0,.56,0,.6.34.55v.31l-1.86.34v-.31c.41-.07.45-.15.44-.7l0-1.68c0-.53-.07-.6-.46-.52V94a5.41,5.41,0,0,0,1.34-.61l.14,0,0,.56Z" transform="translate(0 0)" fill="#fff"/><path d="M169.24,95.07c.21.68.52.84,1,.76a.68.68,0,0,0,.63-.68.41.41,0,0,0-.14-.32,2.44,2.44,0,0,0-.67-.34,3.06,3.06,0,0,1-.76-.43.85.85,0,0,1-.27-.63c0-.58.54-1.1,1.5-1.28a3.08,3.08,0,0,1,1.06,0,8.86,8.86,0,0,0,.17.88l-.32.12c-.14-.57-.36-.73-.79-.65s-.59.24-.58.53a.48.48,0,0,0,.31.39c.21.1.5.18.7.29s.91.38.93,1-.5,1.27-1.59,1.46a3.25,3.25,0,0,1-1.26,0c0-.33-.1-.6-.19-1Z" transform="translate(0 0)" fill="#fff"/><path d="M174.6,92.51c0-.61-.26-.72-.56-.66a.85.85,0,0,0-.63.69.53.53,0,0,1-.46.38c-.28.05-.4-.1-.41-.29s.24-.89,1.57-1.13c.68-.12,1.55-.19,1.58,1l0,1.69c0,.4.09.52.25.49a.48.48,0,0,0,.2-.1l.07.29a2.14,2.14,0,0,1-.77.27c-.44.08-.65,0-.77-.27h0a1.76,1.76,0,0,1-1.14.67.86.86,0,0,1-1.13-.8,1.22,1.22,0,0,1,.52-1,4.44,4.44,0,0,1,1.18-.68l.5-.22Zm0,.66c-.63.31-1.09.68-1.08,1.23s.22.61.52.56a1,1,0,0,0,.58-.41Z" transform="translate(0 0)" fill="#fff"/><path d="M178.26,94.59l-1.42-2.66c-.23-.45-.28-.47-.55-.42v-.31l1.9-.35v.31c-.21,0-.31.09-.31.21a.67.67,0,0,0,.1.28l.76,1.65h0l.64-2a.67.67,0,0,0,0-.2c0-.1-.09-.12-.31-.08v-.31l1.2-.22v.31c-.24,0-.32.1-.46.48l-1.45,4.29c-.22.55-.51,1.16-1.21,1.28s-.94-.15-1-.53a.4.4,0,0,1,.31-.4.38.38,0,0,1,.46.26c.08.19.15.31.3.28s.48-.5.63-.86Z" transform="translate(0 0)" fill="#fff"/><path d="M180.93,92.95c.21.68.52.84,1,.76a.68.68,0,0,0,.63-.68.41.41,0,0,0-.14-.32,2.42,2.42,0,0,0-.67-.34,3.11,3.11,0,0,1-.77-.43.85.85,0,0,1-.27-.63c0-.58.55-1.1,1.5-1.28a3.14,3.14,0,0,1,1.07,0c0,.24.07.48.17.88l-.32.12c-.14-.57-.36-.73-.79-.65s-.59.24-.58.53a.47.47,0,0,0,.31.39c.21.1.5.18.7.29s.91.38.93,1-.5,1.27-1.6,1.47a3.26,3.26,0,0,1-1.26,0c0-.33-.1-.6-.18-1Z" transform="translate(0 0)" fill="#fff"/><path d="M101.11,114.15a3.33,3.33,0,0,0-.47.35.64.64,0,0,0-.21.4.82.82,0,0,1,.66.16.76.76,0,0,1,.29.61,1.1,1.1,0,0,1-.22.7,1,1,0,0,1-.61.39.93.93,0,0,1-1.24-1,1.83,1.83,0,0,1,.47-1.26,3.32,3.32,0,0,1,1.19-.9Zm2.6-.49a3.29,3.29,0,0,0-.47.35.63.63,0,0,0-.21.4.83.83,0,0,1,.66.16.76.76,0,0,1,.29.61,1.11,1.11,0,0,1-.22.7,1,1,0,0,1-.61.39.93.93,0,0,1-1.24-1,1.83,1.83,0,0,1,.47-1.26,3.36,3.36,0,0,1,1.19-.9Z" transform="translate(0 0)" fill="#4d2c09"/><path d="M106.11,120.81l0-.91.75-.14-.17-6a1.4,1.4,0,0,0-.86.42,2,2,0,0,0-.36.94l-.84.16.1-2.42.89-.17v.19l4.6-.86v-.19l.89-.17.23,2.35-.84.16a1.4,1.4,0,0,0-.4-.8,1.08,1.08,0,0,0-.87-.1l.17,6,.73-.14,0,.91Z" transform="translate(0 0)" fill="#4d2c09"/><path d="M112.16,119.68l0-.91.56-.11-.18-6.13-.56.11,0-.91,3.69-.69,0,.91-.6.11.05,1.84,2-.38-.05-1.84-.54.1,0-.91,3.64-.68,0,.91-.56.11.18,6.13.56-.11,0,.91-3.64.68,0-.91.54-.1-.09-3.22-2,.38.09,3.22.6-.11,0,.91Z" transform="translate(0 0)" fill="#4d2c09"/><path d="M121.34,118l0-.91.49-.09-.18-6.13-.49.09,0-.91,3.55-.67,0,.91-.53.1.18,6.13.53-.1,0,.91Z" transform="translate(0 0)" fill="#4d2c09"/><path d="M132.28,108.41,131,110.7l-.19-.13a8.35,8.35,0,0,0-1.25-.75,1.82,1.82,0,0,0-1.12-.14.85.85,0,0,0-.42.24.56.56,0,0,0-.21.4.52.52,0,0,0,.39.49,6.61,6.61,0,0,0,1.22.26c.46.06.84.13,1.15.19a3.38,3.38,0,0,1,.9.33,1.91,1.91,0,0,1,.71.67,2.16,2.16,0,0,1,.3,1.11,2.26,2.26,0,0,1-.26,1.1,3.57,3.57,0,0,1-.75,1,4.74,4.74,0,0,1-1.1.77,4.64,4.64,0,0,1-1.27.44,4.32,4.32,0,0,1-1.77,0,7.78,7.78,0,0,1-1.76-.64l1.34-2.23q.4.34.75.58a6,6,0,0,0,.76.46,3.25,3.25,0,0,0,.86.3,2.33,2.33,0,0,0,.9,0,1,1,0,0,0,.52-.26.65.65,0,0,0,.2-.51.52.52,0,0,0-.4-.48,7.87,7.87,0,0,0-1.25-.3q-.7-.12-1.14-.22a4,4,0,0,1-.88-.33,1.93,1.93,0,0,1-.7-.61,1.75,1.75,0,0,1-.29-1,2.6,2.6,0,0,1,.2-1.08,3.11,3.11,0,0,1,.63-1,3.63,3.63,0,0,1,1-.72,4.28,4.28,0,0,1,1.19-.41,3.13,3.13,0,0,1,1,0,4,4,0,0,1,1,.28l.33-.52Z" transform="translate(0 0)" fill="#4d2c09"/><path d="M142.23,106.15a3.1,3.1,0,0,1,1.31.62,3.05,3.05,0,0,1,.87,1.15,4.19,4.19,0,0,1,.34,1.57,5.19,5.19,0,0,1-.23,1.72,4.68,4.68,0,0,1-.79,1.5,4.63,4.63,0,0,1-1.32,1.15,5.53,5.53,0,0,1-1.81.66,4,4,0,0,1-1.63,0,3.07,3.07,0,0,1-1.3-.63,3.15,3.15,0,0,1-.87-1.15,4,4,0,0,1-.34-1.56,5.19,5.19,0,0,1,.23-1.72,4.65,4.65,0,0,1,2.11-2.65,5.51,5.51,0,0,1,1.81-.66A4,4,0,0,1,142.23,106.15Zm-.18,3.52a5.32,5.32,0,0,0-.47-1.25,2.51,2.51,0,0,0-.69-.84,1,1,0,0,0-.84-.2,1.18,1.18,0,0,0-.88.59,3.49,3.49,0,0,0-.23,1.64,6.6,6.6,0,0,0,.19,1.41,5.33,5.33,0,0,0,.47,1.25,2.45,2.45,0,0,0,.7.84,1,1,0,0,0,.83.2,1.17,1.17,0,0,0,.89-.59,3.58,3.58,0,0,0,.22-1.64A6.86,6.86,0,0,0,142,109.67Z" transform="translate(0 0)" fill="#4d2c09"/><path d="M145.82,113.35l0-.91.48-.09-.17-6.13-.48.09,0-.91,2.67-.5,2.93,3.39h0l-.09-3-.6.11,0-.91,2.34-.44,0,.91-.54.1.2,7-1.52.29-3.63-4.54h0l.12,4.28.68-.13,0,.91Z" transform="translate(0 0)" fill="#4d2c09"/><path d="M159,105.07l.85-.16.06,2.17-.85.16v-.51l-2.11.4.09,3.22.38-.07a3.11,3.11,0,0,0,1.28-.49,1.12,1.12,0,0,0,.42-1l.85-.16.06,2.07-6,1.13,0-.91.54-.1-.17-6.13-.54.1,0-.91,6-1.13,0,1.65-.85.16v-.4a2.72,2.72,0,0,0-1.42-.08l-.7.13.05,1.84,2.11-.4Z" transform="translate(0 0)" fill="#4d2c09"/><path d="M160.92,104.84a3.08,3.08,0,0,0,.48-.35.65.65,0,0,0,.21-.4.82.82,0,0,1-.67-.16.77.77,0,0,1-.29-.61,1.12,1.12,0,0,1,.22-.7,1,1,0,0,1,.61-.39.93.93,0,0,1,1.24,1,1.83,1.83,0,0,1-.47,1.26,3.35,3.35,0,0,1-1.19.9Z" transform="translate(0 0)" fill="#4d2c09"/><path d="M170,101.32l-1.32,2.3-.19-.13a8,8,0,0,0-1.25-.75,1.82,1.82,0,0,0-1.12-.14.85.85,0,0,0-.42.24.54.54,0,0,0-.21.4.51.51,0,0,0,.38.49,6.67,6.67,0,0,0,1.22.26c.46.06.84.13,1.15.19a3.41,3.41,0,0,1,.9.33,1.92,1.92,0,0,1,.72.67,2.15,2.15,0,0,1,.29,1.11,2.26,2.26,0,0,1-.26,1.1,3.55,3.55,0,0,1-.75,1,4.85,4.85,0,0,1-1.1.77,4.73,4.73,0,0,1-1.27.44,4.36,4.36,0,0,1-1.77,0,7.81,7.81,0,0,1-1.76-.64l1.34-2.23c.27.22.52.42.75.59a5.66,5.66,0,0,0,.76.46,3.2,3.2,0,0,0,.86.3,2.31,2.31,0,0,0,.9,0,1,1,0,0,0,.52-.26.64.64,0,0,0,.2-.51.52.52,0,0,0-.4-.48,8,8,0,0,0-1.25-.3q-.7-.11-1.14-.22a4,4,0,0,1-.88-.33,1.92,1.92,0,0,1-.7-.61,1.77,1.77,0,0,1-.29-1,2.65,2.65,0,0,1,.21-1.09,3.14,3.14,0,0,1,.63-1,3.69,3.69,0,0,1,1-.72,4.23,4.23,0,0,1,1.19-.41,3.09,3.09,0,0,1,1,0,4,4,0,0,1,1,.28l.33-.52Z" transform="translate(0 0)" fill="#4d2c09"/><path d="M138.52,126.19l0-.92.48-.1,2.17-7.63,2.27-.45,2.81,6.63.45-.09,0,.92-3.73.74,0-.92.64-.13-.4-.93-2.68.54-.32,1.07.69-.14,0,.92Zm3.15-6.46h0l-.83,3,1.95-.39Z" transform="translate(0 0)" fill="#4d2c09"/><path d="M150.63,116.59l-.49.1,0-.92,4.15-.83a5.82,5.82,0,0,1,.93-.11,2.63,2.63,0,0,1,.82.09,1.21,1.21,0,0,1,.62.4,1.31,1.31,0,0,1,.26.81,1.54,1.54,0,0,1-.41,1.22,3.25,3.25,0,0,1-1.29.71v0a2.42,2.42,0,0,1,1.66.37,1.72,1.72,0,0,1,.7,1.43,3,3,0,0,1-.18,1.23,2.42,2.42,0,0,1-.6.9,3.25,3.25,0,0,1-.93.61,5.68,5.68,0,0,1-1.21.37l-4.24.85,0-.92.51-.1Zm2.64,1.48a2.21,2.21,0,0,0,1-.41,1,1,0,0,0,.32-.87c0-.4-.14-.64-.37-.72a2,2,0,0,0-1,0Zm.14,3.54a.85.85,0,0,0,.16.56.49.49,0,0,0,.45.08,1.27,1.27,0,0,0,.59-.27,1.19,1.19,0,0,0,.33-.47,2.09,2.09,0,0,0,.14-.57,4.65,4.65,0,0,0,0-.66,1.83,1.83,0,0,0-.36-1.16,1,1,0,0,0-1-.22l-.42.08Z" transform="translate(0 0)" fill="#4d2c09"/><path d="M163.71,120.54a2.34,2.34,0,0,1-.85.73,4.21,4.21,0,0,1-1.36.53,2.66,2.66,0,0,1-1.1,0,1.43,1.43,0,0,1-.75-.41,1.94,1.94,0,0,1-.43-.78,4.37,4.37,0,0,1-.17-1.08l-.18-4.61-.55.11,0-.92,3.11-.62.22,5.57a1.58,1.58,0,0,0,.25,1,.84.84,0,0,0,.8.13,1.11,1.11,0,0,0,.78-.45,1.89,1.89,0,0,0,.17-1l-.18-4.65-.52.1,0-.92,3.09-.62.28,7.14.53-.11,0,.92-2.91.58Z" transform="translate(0 0)" fill="#4d2c09"/><path d="M169.22,119.8l1.32-2.58-3.07-4-.37.07,0-.92,4-.79,0,.92-.64.13,1.38,1.94,1.2-2.45-.76.15,0-.92,2.45-.49,0,.92-.4.08-3.05,6.25,0,0a1,1,0,0,1,.31-.22,2.63,2.63,0,0,1,.5-.16,2.86,2.86,0,0,1,.51,0,1.22,1.22,0,0,0,.28,0,.6.6,0,0,0,.31-.17,2.68,2.68,0,0,0,.33-.46l.55,0-.45,2.2a5,5,0,0,1-1,.35,5.55,5.55,0,0,1-1,.08,4,4,0,0,0-.81.05,3.93,3.93,0,0,0-1,.4Z" transform="translate(0 0)" fill="#4d2c09"/><path d="M175.42,113.07a3.08,3.08,0,0,0,.48-.36.65.65,0,0,0,.21-.4.82.82,0,0,1-.68-.16.78.78,0,0,1-.3-.61,1.12,1.12,0,0,1,.22-.72,1,1,0,0,1,.61-.4.95.95,0,0,1,1.27,1,1.85,1.85,0,0,1-.46,1.28,3.37,3.37,0,0,1-1.2.93Zm2.64-.52a3,3,0,0,0,.48-.36.66.66,0,0,0,.21-.4.82.82,0,0,1-.68-.16.78.78,0,0,1-.3-.61,1.11,1.11,0,0,1,.22-.71,1,1,0,0,1,.61-.4.94.94,0,0,1,1.27,1,1.87,1.87,0,0,1-.46,1.28,3.39,3.39,0,0,1-1.19.93Z" transform="translate(0 0)" fill="#4d2c09"/><path d="M182.12,115a8.44,8.44,0,0,0-.19-1.61,15,15,0,0,0-.43-1.44q-.16-.46-.24-.74a2.63,2.63,0,0,1-.09-.58,1.36,1.36,0,0,1,.3-.93,1.49,1.49,0,0,1,.92-.53,1.12,1.12,0,0,1,.95.16,1,1,0,0,1,.37.79,2.92,2.92,0,0,1,0,.6q-.05.3-.18.84c-.13.56-.23,1.08-.3,1.57a9.31,9.31,0,0,0-.07,1.68Zm-.18,1a1.17,1.17,0,0,1,.7-.44.88.88,0,0,1,.73.16.82.82,0,0,1,.33.65,1.11,1.11,0,0,1-.27.77,1.2,1.2,0,0,1-.71.44.86.86,0,0,1-.72-.15.82.82,0,0,1-.32-.65A1.14,1.14,0,0,1,181.94,115.94Z" transform="translate(0 0)" fill="#4d2c09"/><path d="M186.52,114.09a8.53,8.53,0,0,0-.2-1.61q-.16-.66-.43-1.44c-.11-.3-.19-.55-.24-.74a2.53,2.53,0,0,1-.09-.58,1.35,1.35,0,0,1,.31-.93,1.49,1.49,0,0,1,.92-.53,1.11,1.11,0,0,1,.95.16,1,1,0,0,1,.37.79,2.68,2.68,0,0,1,0,.6c0,.2-.09.48-.18.84q-.2.84-.3,1.57a9.09,9.09,0,0,0-.07,1.68Zm-.18,1a1.17,1.17,0,0,1,.7-.44.87.87,0,0,1,.73.16.82.82,0,0,1,.33.65,1.12,1.12,0,0,1-.28.77,1.19,1.19,0,0,1-.71.44.86.86,0,0,1-.72-.15.82.82,0,0,1-.32-.65A1.15,1.15,0,0,1,186.34,115.06Z" transform="translate(0 0)" fill="#4d2c09"/><path d="M190.91,113.22a8.28,8.28,0,0,0-.2-1.61,14.79,14.79,0,0,0-.43-1.44c-.11-.3-.19-.55-.24-.74a2.79,2.79,0,0,1-.09-.58,1.36,1.36,0,0,1,.31-.93,1.5,1.5,0,0,1,.92-.53,1.12,1.12,0,0,1,.95.16,1,1,0,0,1,.37.8,2.75,2.75,0,0,1,0,.6c0,.2-.09.48-.18.84-.13.56-.23,1.08-.3,1.57a9.14,9.14,0,0,0-.07,1.68Zm-.18,1a1.17,1.17,0,0,1,.7-.44.87.87,0,0,1,.73.16.82.82,0,0,1,.33.65,1.12,1.12,0,0,1-.27.77,1.2,1.2,0,0,1-.71.44.86.86,0,0,1-.72-.15.81.81,0,0,1-.33-.65A1.14,1.14,0,0,1,190.73,114.19Z" transform="translate(0 0)" fill="#4d2c09"/><path d="M101.5,113.32a3.37,3.37,0,0,0-.47.35.63.63,0,0,0-.21.4.82.82,0,0,1,.66.16.76.76,0,0,1,.29.61,1.11,1.11,0,0,1-.22.7,1,1,0,0,1-.61.39.93.93,0,0,1-1.24-1,1.83,1.83,0,0,1,.47-1.26,3.33,3.33,0,0,1,1.19-.9Zm2.6-.49a3.33,3.33,0,0,0-.47.35.63.63,0,0,0-.21.4.83.83,0,0,1,.66.16.76.76,0,0,1,.29.61,1.11,1.11,0,0,1-.22.7,1,1,0,0,1-.61.39.93.93,0,0,1-1.24-1,1.84,1.84,0,0,1,.47-1.26,3.37,3.37,0,0,1,1.19-.9Z" transform="translate(0 0)" fill="#fff"/><path d="M106.5,120l0-.91.75-.14-.17-6a1.41,1.41,0,0,0-.85.42,2,2,0,0,0-.36.94l-.84.16.1-2.42.89-.17v.19l4.6-.86V111l.89-.17.23,2.35-.84.16a1.41,1.41,0,0,0-.4-.8,1.08,1.08,0,0,0-.88-.1l.17,6,.73-.14,0,.91Z" transform="translate(0 0)" fill="#fff"/><path d="M112.56,118.85l0-.91.56-.11-.18-6.13-.56.11,0-.91,3.69-.69,0,.91-.6.11.05,1.84,2-.38-.05-1.84-.54.1,0-.91,3.64-.68,0,.91-.56.11.18,6.13.56-.11,0,.91-3.64.68,0-.91.54-.1-.09-3.22-2,.38.09,3.22.6-.11,0,.91Z" transform="translate(0 0)" fill="#fff"/><path d="M121.73,117.13l0-.91.49-.09L122,110l-.49.09,0-.91,3.55-.67,0,.91-.53.1.18,6.13.53-.1,0,.91Z" transform="translate(0 0)" fill="#fff"/><path d="M132.67,107.58l-1.31,2.3-.19-.13a8.35,8.35,0,0,0-1.25-.75,1.82,1.82,0,0,0-1.12-.14.85.85,0,0,0-.42.24.55.55,0,0,0-.21.4.52.52,0,0,0,.38.49,6.68,6.68,0,0,0,1.22.26c.46.06.84.13,1.15.19a3.38,3.38,0,0,1,.9.33,1.93,1.93,0,0,1,.72.67,2.16,2.16,0,0,1,.3,1.11,2.27,2.27,0,0,1-.26,1.1,3.56,3.56,0,0,1-.75,1,4.74,4.74,0,0,1-1.1.77,4.67,4.67,0,0,1-1.27.44,4.32,4.32,0,0,1-1.77,0,7.77,7.77,0,0,1-1.76-.64l1.34-2.23c.27.22.52.42.75.59a5.87,5.87,0,0,0,.76.46,3.26,3.26,0,0,0,.86.3,2.35,2.35,0,0,0,.9,0,1,1,0,0,0,.52-.26.65.65,0,0,0,.2-.51.52.52,0,0,0-.4-.48,7.9,7.9,0,0,0-1.25-.3c-.47-.08-.85-.15-1.14-.22a4,4,0,0,1-.88-.33,1.92,1.92,0,0,1-.7-.61,1.75,1.75,0,0,1-.29-1,2.59,2.59,0,0,1,.2-1.08,3.12,3.12,0,0,1,.63-1,3.63,3.63,0,0,1,1-.72,4.27,4.27,0,0,1,1.19-.41,3.14,3.14,0,0,1,1,0,4,4,0,0,1,1,.28l.33-.52Z" transform="translate(0 0)" fill="#fff"/><path d="M142.62,105.32a3.11,3.11,0,0,1,1.31.62,3,3,0,0,1,.87,1.15,4.17,4.17,0,0,1,.34,1.57,5.19,5.19,0,0,1-.23,1.72,4.72,4.72,0,0,1-.79,1.5,4.61,4.61,0,0,1-1.32,1.15,5.49,5.49,0,0,1-1.81.66,4,4,0,0,1-1.63,0,3.06,3.06,0,0,1-1.3-.63,3.16,3.16,0,0,1-.87-1.15,4,4,0,0,1-.34-1.56,5.17,5.17,0,0,1,.23-1.72,4.76,4.76,0,0,1,.79-1.5,4.69,4.69,0,0,1,1.32-1.15,5.5,5.5,0,0,1,1.81-.66A4,4,0,0,1,142.62,105.32Zm-.18,3.52a5.3,5.3,0,0,0-.47-1.25,2.52,2.52,0,0,0-.69-.84,1,1,0,0,0-.84-.2,1.18,1.18,0,0,0-.88.59,3.48,3.48,0,0,0-.23,1.64,6.68,6.68,0,0,0,.19,1.41,5.3,5.3,0,0,0,.47,1.25,2.46,2.46,0,0,0,.7.84,1,1,0,0,0,.83.2,1.17,1.17,0,0,0,.88-.59,3.56,3.56,0,0,0,.22-1.64A6.82,6.82,0,0,0,142.44,108.84Z" transform="translate(0 0)" fill="#fff"/><path d="M146.21,112.52l0-.91.48-.09-.18-6.13-.48.09,0-.91,2.67-.5,2.93,3.39h0l-.09-3-.6.11,0-.91,2.34-.44,0,.91-.54.1.2,7-1.53.29L147.76,107h0l.12,4.28.68-.13,0,.91Z" transform="translate(0 0)" fill="#fff"/><path d="M159.34,104.24l.85-.16.06,2.17-.84.16,0-.51-2.11.4.09,3.22.37-.07A3.12,3.12,0,0,0,159,109a1.12,1.12,0,0,0,.42-1l.85-.16.06,2.07-6,1.13,0-.91.54-.1-.18-6.13-.54.1,0-.91,6-1.13,0,1.65-.85.16v-.4a2.72,2.72,0,0,0-1.42-.09l-.7.13.05,1.84,2.11-.4Z" transform="translate(0 0)" fill="#fff"/><path d="M161.31,104a3.07,3.07,0,0,0,.48-.35.64.64,0,0,0,.21-.4.81.81,0,0,1-.67-.16.77.77,0,0,1-.29-.61,1.11,1.11,0,0,1,.22-.7,1,1,0,0,1,.61-.39.93.93,0,0,1,1.24,1,1.83,1.83,0,0,1-.47,1.26,3.36,3.36,0,0,1-1.19.9Z" transform="translate(0 0)" fill="#fff"/><path d="M170.36,100.49l-1.32,2.3-.19-.13a8.12,8.12,0,0,0-1.25-.75,1.82,1.82,0,0,0-1.12-.14.85.85,0,0,0-.42.24.55.55,0,0,0-.21.4.51.51,0,0,0,.38.49,6.75,6.75,0,0,0,1.22.26c.46.06.84.13,1.15.19a3.42,3.42,0,0,1,.9.33,1.92,1.92,0,0,1,.72.67,2.15,2.15,0,0,1,.3,1.11,2.26,2.26,0,0,1-.26,1.1,3.56,3.56,0,0,1-.75,1,4.81,4.81,0,0,1-1.1.77,4.71,4.71,0,0,1-1.27.44,4.37,4.37,0,0,1-1.77,0,7.82,7.82,0,0,1-1.76-.64l1.34-2.23c.27.22.52.42.75.59a5.73,5.73,0,0,0,.76.46,3.21,3.21,0,0,0,.86.3,2.31,2.31,0,0,0,.9,0,1,1,0,0,0,.52-.26.64.64,0,0,0,.2-.51.52.52,0,0,0-.4-.48,8,8,0,0,0-1.25-.3q-.7-.11-1.14-.22a4,4,0,0,1-.87-.33,1.92,1.92,0,0,1-.7-.61,1.77,1.77,0,0,1-.29-1,2.64,2.64,0,0,1,.2-1.09,3.12,3.12,0,0,1,.63-1,3.67,3.67,0,0,1,1-.72,4.24,4.24,0,0,1,1.19-.41,3.11,3.11,0,0,1,1,0,4.07,4.07,0,0,1,1,.28l.33-.52Z" transform="translate(0 0)" fill="#fff"/><path d="M139.39,125.42l0-.92.48-.1,2.17-7.63,2.27-.45,2.81,6.63.45-.09,0,.92-3.73.74,0-.92.64-.13-.4-.93-2.68.53-.32,1.07.69-.14,0,.92Zm3.15-6.46h0l-.83,3,1.95-.39Z" transform="translate(0 0)" fill="#fff"/><path d="M151.51,115.81l-.49.1,0-.92,4.16-.83a5.8,5.8,0,0,1,.93-.11,2.61,2.61,0,0,1,.82.09,1.21,1.21,0,0,1,.62.4,1.32,1.32,0,0,1,.26.81,1.55,1.55,0,0,1-.41,1.22,3.25,3.25,0,0,1-1.29.71v0a2.42,2.42,0,0,1,1.66.37,1.72,1.72,0,0,1,.7,1.43,3,3,0,0,1-.18,1.22,2.41,2.41,0,0,1-.6.9,3.26,3.26,0,0,1-.93.61,5.7,5.7,0,0,1-1.21.37l-4.24.85,0-.92.51-.1Zm2.64,1.48a2.21,2.21,0,0,0,1-.41,1,1,0,0,0,.32-.87c0-.4-.14-.64-.37-.72a2,2,0,0,0-1,0Zm.14,3.54a.84.84,0,0,0,.16.56.48.48,0,0,0,.45.08,1.26,1.26,0,0,0,.59-.27,1.2,1.2,0,0,0,.34-.47,2.09,2.09,0,0,0,.14-.57,4.54,4.54,0,0,0,0-.66,1.82,1.82,0,0,0-.36-1.16,1,1,0,0,0-1-.22l-.42.08Z" transform="translate(0 0)" fill="#fff"/><path d="M164.59,119.77a2.34,2.34,0,0,1-.85.73,4.23,4.23,0,0,1-1.36.53,2.68,2.68,0,0,1-1.1,0,1.43,1.43,0,0,1-.75-.41,2,2,0,0,1-.43-.78,4.37,4.37,0,0,1-.17-1.08l-.18-4.61-.54.11,0-.92,3.11-.62.22,5.57a1.57,1.57,0,0,0,.25,1,.83.83,0,0,0,.8.13,1.11,1.11,0,0,0,.78-.45,1.89,1.89,0,0,0,.17-1l-.18-4.65-.52.1,0-.92,3.09-.62.28,7.14.53-.11,0,.92-2.91.58Z" transform="translate(0 0)" fill="#fff"/><path d="M170.1,119l1.32-2.58-3.07-4-.37.07,0-.92,4-.79,0,.92-.64.13,1.38,1.94,1.2-2.45-.76.15,0-.92,2.45-.49,0,.92-.4.08-3.06,6.25,0,0a1,1,0,0,1,.3-.22,2.6,2.6,0,0,1,.5-.16,2.84,2.84,0,0,1,.51,0,1.2,1.2,0,0,0,.28,0,.59.59,0,0,0,.31-.17,2.59,2.59,0,0,0,.33-.46l.55,0-.45,2.2a5,5,0,0,1-1,.35,5.59,5.59,0,0,1-1,.08,4.09,4.09,0,0,0-.81.05,4,4,0,0,0-1,.4Z" transform="translate(0 0)" fill="#fff"/><path d="M176.29,112.29a3.05,3.05,0,0,0,.48-.36.65.65,0,0,0,.21-.4.82.82,0,0,1-.68-.16.78.78,0,0,1-.3-.61,1.12,1.12,0,0,1,.22-.71,1,1,0,0,1,.61-.4,1.08,1.08,0,0,1,.92.14,1.09,1.09,0,0,1,.35.85,1.85,1.85,0,0,1-.47,1.28,3.36,3.36,0,0,1-1.2.93Zm2.63-.52a2.92,2.92,0,0,0,.48-.36.67.67,0,0,0,.21-.4.82.82,0,0,1-.67-.16.78.78,0,0,1-.3-.61,1.11,1.11,0,0,1,.22-.71,1,1,0,0,1,.61-.4.94.94,0,0,1,1.27,1,1.86,1.86,0,0,1-.46,1.28,3.4,3.4,0,0,1-1.19.93Z" transform="translate(0 0)" fill="#fff"/><path d="M183,114.19a8.48,8.48,0,0,0-.19-1.61q-.16-.66-.43-1.44c-.11-.3-.19-.55-.24-.74a2.59,2.59,0,0,1-.09-.58,1.36,1.36,0,0,1,.3-.93,1.49,1.49,0,0,1,.92-.53,1.11,1.11,0,0,1,.95.16,1,1,0,0,1,.37.79,2.93,2.93,0,0,1,0,.6q-.05.3-.18.84c-.13.56-.23,1.08-.3,1.57A9.26,9.26,0,0,0,184,114Zm-.18,1a1.17,1.17,0,0,1,.7-.44.87.87,0,0,1,.73.16.82.82,0,0,1,.33.65,1.11,1.11,0,0,1-.27.77,1.2,1.2,0,0,1-.71.44.86.86,0,0,1-.72-.15.82.82,0,0,1-.33-.65A1.14,1.14,0,0,1,182.82,115.16Z" transform="translate(0 0)" fill="#fff"/><path d="M187.39,113.32a8.48,8.48,0,0,0-.2-1.61q-.16-.66-.43-1.44c-.11-.3-.19-.55-.24-.74a2.47,2.47,0,0,1-.09-.58,1.36,1.36,0,0,1,.3-.93,1.49,1.49,0,0,1,.92-.53,1.11,1.11,0,0,1,.95.16,1,1,0,0,1,.37.79,2.61,2.61,0,0,1,0,.6c0,.2-.09.48-.18.84q-.2.84-.3,1.57a9,9,0,0,0-.07,1.68Zm-.18,1a1.16,1.16,0,0,1,.7-.44.87.87,0,0,1,.73.16.82.82,0,0,1,.33.65,1.11,1.11,0,0,1-.27.77,1.19,1.19,0,0,1-.71.44.86.86,0,0,1-.72-.15.82.82,0,0,1-.32-.65A1.16,1.16,0,0,1,187.21,114.29Z" transform="translate(0 0)" fill="#fff"/><path d="M191.78,112.44a8.33,8.33,0,0,0-.2-1.61,14.64,14.64,0,0,0-.43-1.44c-.11-.3-.19-.55-.24-.74a2.8,2.8,0,0,1-.09-.58,1.36,1.36,0,0,1,.3-.93,1.5,1.5,0,0,1,.92-.53,1.12,1.12,0,0,1,.95.16,1,1,0,0,1,.37.79,2.79,2.79,0,0,1,0,.6c0,.2-.09.48-.18.84q-.19.84-.3,1.57a9,9,0,0,0-.07,1.68Zm-.18,1a1.17,1.17,0,0,1,.7-.44.87.87,0,0,1,.73.16.82.82,0,0,1,.33.65,1.11,1.11,0,0,1-.27.77,1.21,1.21,0,0,1-.71.44.86.86,0,0,1-.72-.15.81.81,0,0,1-.32-.65A1.14,1.14,0,0,1,191.61,113.41Z" transform="translate(0 0)" fill="#fff"/><path d="M41.39,100.83c-1.56-6.44-2.87-12.63-4.26-18.45a83.57,83.57,0,0,1,7.78-5.82,72.61,72.61,0,0,0,6.76,16.2c-1.75,1.45-2.6,2.21-4.24,3.77-.5-1.12-.75-1.69-1.24-2.81-.55.48-.83.73-1.37,1.22.27.85.4,1.27.68,2.11C43.8,98.51,43,99.27,41.39,100.83Zm3.48-10.16c-1.44-3.43-2.14-5.16-3.49-8.63l0,0c.88,3.85,1.37,5.76,2.46,9.53Z" transform="translate(0 0)" fill="#b2c4cd"/><path d="M47.19,76.91a27.06,27.06,0,0,1,7-4.24c2.64-1,4.22-.7,4.69.75.67,2.09-2.59,6.68-2.47,7.94,0,.24,4.87,3.13,5.06,4.33.07.44-1.52,2.6-2.61,4.68-2-2.07-3.1-3.09-5.29-5.05l0,0h0A58.73,58.73,0,0,0,55,91.12c-1.32,1.09-2,1.65-3.22,2.8-.14-.33-.47-1.38-1-3.15C49.22,85.29,48.48,82.52,47.19,76.91Zm5.11,1.91a5.54,5.54,0,0,0,.22,1.71c.11.67.17,1,.29,1.68a12,12,0,0,0,1.39-1.85,5.79,5.79,0,0,0,.82-2,.87.87,0,0,0,0-.44c-.13-.33-.47-.39-1-.17S52.48,78.39,52.3,78.82Z" transform="translate(0 0)" fill="#b2c4cd"/><path d="M59,72.17a26.77,26.77,0,0,1,7.38-3.3c2.74-.66,4.26-.15,4.54,1.35.4,2.15-3.39,6.28-3.43,7.56,0,.25,4.41,3.72,4.45,4.94,0,.44-1.83,2.38-3.16,4.3-1.75-2.32-2.67-3.46-4.59-5.69H64.1a59.18,59.18,0,0,0,.84,5.92c-1.44.91-2.14,1.38-3.51,2.35-.09-.35-.3-1.43-.58-3.25C59.92,80.73,59.55,77.89,59,72.17Zm4.8,2.56a5.56,5.56,0,0,0,0,1.72c0,.68,0,1,.08,1.71a12,12,0,0,0,1.6-1.65,5.78,5.78,0,0,0,1.07-1.93.88.88,0,0,0,0-.44c-.09-.35-.41-.45-1-.3S64,74.33,63.76,74.73Z" transform="translate(0 0)" fill="#b2c4cd"/><path d="M71.18,69a26.62,26.62,0,0,1,7.71-2.34c2.79-.31,4.24.38,4.33,1.91.13,2.19-4.15,5.8-4.35,7.06,0,.24,3.9,4.25,3.79,5.47,0,.44-2.11,2.13-3.67,3.87-1.44-2.52-2.21-3.77-3.82-6.23H75.1a59,59,0,0,0,.09,6c-1.53.72-2.29,1.09-3.76,1.88,0-.36-.12-1.45-.17-3.29C71,77.6,71,74.74,71.18,69Zm4.42,3.15a5.56,5.56,0,0,0-.21,1.71c-.06.68-.08,1-.14,1.7A11.89,11.89,0,0,0,77,74.12a5.72,5.72,0,0,0,1.3-1.77.87.87,0,0,0,.1-.43c0-.35-.35-.5-.92-.42S75.88,71.77,75.6,72.14Z" transform="translate(0 0)" fill="#b2c4cd"/><path d="M86.51,85.09a4.14,4.14,0,0,1-4-2.52,8.1,8.1,0,0,1-.9-3.05,12.29,12.29,0,0,1,.24-3.63A13.73,13.73,0,0,1,85,69.53,9.13,9.13,0,0,1,92.08,66a4.58,4.58,0,0,1,4.53,3.08c-1.43,1.07-2.12,1.62-3.47,2.74a1.86,1.86,0,0,0-1.55-.7,4.63,4.63,0,0,0-3.74,2.31,11.26,11.26,0,0,0-1.77,3.9,5.29,5.29,0,0,0-.18,1.5,2.33,2.33,0,0,0,.64,1.59,2.25,2.25,0,0,0,1.73.63A3.41,3.41,0,0,0,90.59,80,13,13,0,0,0,92,77.91a23.23,23.23,0,0,0-3.76.75c.32-1.44.48-2.16.83-3.59a75.34,75.34,0,0,1,7.65-1.16,9.06,9.06,0,0,1-1,3.57,18.44,18.44,0,0,1-2,3.22C91.52,83.54,89.21,85,86.51,85.09Z" transform="translate(0 0)" fill="#b2c4cd"/><path d="M98.95,67.6c2.31-.11,3.47-.13,5.81-.1a73,73,0,0,0-3.54,8.11c1-.05,1.45-.07,2.42-.1,1-2.8,1.54-4.2,2.64-7,2.32.07,3.49.14,5.83.35a67,67,0,0,0-7.16,15.85c-1.84.1-2.76.18-4.56.39.8-2.57,1.22-3.86,2.1-6.42-.53,0-2.05-.13-2.39.14-.68.55-1,3.62-1.28,5-1.82.24-2.72.39-4.5.72C95.91,77.74,96.84,74.34,98.95,67.6Z" transform="translate(0 0)" fill="#b2c4cd"/><path d="M109.86,82.76a2.91,2.91,0,0,1,1.57.64,1.3,1.3,0,0,1,.52,1.4,2.66,2.66,0,0,1-1.77,1.66,4.8,4.8,0,0,1-2.29.36,2.9,2.9,0,0,1-1.52-.52,1.3,1.3,0,0,1-.55-1.36,2.59,2.59,0,0,1,1.63-1.79A4.45,4.45,0,0,1,109.86,82.76Zm7-13.88c2.49,1,3.71,1.6,6.12,2.8a46.43,46.43,0,0,0-5.35,4.24,31.89,31.89,0,0,0-4.3,5.08c-1.49-.47-2.23-.68-3.73-1.08A125,125,0,0,1,116.85,68.87Z" transform="translate(0 0)" fill="#b2c4cd"/><path d="M117.7,85a3,3,0,0,1,1.52.79,1.3,1.3,0,0,1,.39,1.45,2.66,2.66,0,0,1-1.93,1.48,4.9,4.9,0,0,1-2.33.13,3,3,0,0,1-1.47-.67,1.3,1.3,0,0,1-.43-1.4,2.58,2.58,0,0,1,1.8-1.62A4.51,4.51,0,0,1,117.7,85ZM126,71.86c2.4,1.28,3.58,2,5.89,3.39a46,46,0,0,0-5.77,3.69,31.67,31.67,0,0,0-4.79,4.64c-1.45-.61-2.18-.9-3.65-1.44A123.45,123.45,0,0,1,126,71.86Z" transform="translate(0 0)" fill="#b2c4cd"/><path d="M42.19,98.91c-1.56-6.44-2.87-12.63-4.26-18.45a83.66,83.66,0,0,1,7.78-5.82,72.62,72.62,0,0,0,6.76,16.2c-1.75,1.45-2.6,2.21-4.24,3.77-.5-1.12-.75-1.69-1.24-2.81-.55.48-.83.73-1.37,1.22.27.85.4,1.27.68,2.11C44.6,96.59,43.78,97.35,42.19,98.91Zm3.48-10.16c-1.44-3.43-2.14-5.16-3.49-8.63l0,0C43,84,43.52,85.9,44.61,89.67Z" transform="translate(0 0)" fill="#4e3529"/><path d="M48,75a27,27,0,0,1,7-4.24c2.64-1,4.22-.7,4.69.75.67,2.09-2.59,6.68-2.47,7.94,0,.24,4.87,3.13,5.06,4.33.07.44-1.52,2.6-2.61,4.68-2-2.07-3.1-3.09-5.29-5.05l0,0h0a58.52,58.52,0,0,0,1.58,5.77c-1.32,1.09-2,1.65-3.22,2.8-.14-.33-.47-1.38-1-3.15C50,83.37,49.28,80.6,48,75Zm5.11,1.91a5.57,5.57,0,0,0,.22,1.71c.12.67.18,1,.3,1.68A12,12,0,0,0,55,78.45a5.79,5.79,0,0,0,.82-2,.86.86,0,0,0,0-.44c-.13-.33-.47-.39-1-.17S53.27,76.47,53.09,76.9Z" transform="translate(0 0)" fill="#4e3529"/><path d="M59.76,70.25a26.74,26.74,0,0,1,7.38-3.3c2.74-.66,4.26-.15,4.54,1.35.4,2.15-3.39,6.28-3.43,7.56,0,.25,4.41,3.72,4.45,4.94,0,.44-1.83,2.38-3.16,4.3-1.75-2.32-2.67-3.46-4.59-5.69H64.9a58.79,58.79,0,0,0,.84,5.92c-1.44.91-2.14,1.38-3.51,2.35-.09-.35-.3-1.43-.58-3.25C60.72,78.81,60.34,76,59.76,70.25Zm4.8,2.56a5.56,5.56,0,0,0,0,1.73c0,.68,0,1,.08,1.71a11.83,11.83,0,0,0,1.6-1.65,5.75,5.75,0,0,0,1.07-1.93.87.87,0,0,0,0-.44c-.09-.35-.41-.45-1-.3S64.79,72.41,64.56,72.81Z" transform="translate(0 0)" fill="#4e3529"/><path d="M72,67.07a26.62,26.62,0,0,1,7.71-2.34c2.79-.31,4.24.38,4.33,1.91.13,2.19-4.15,5.8-4.35,7.06,0,.24,3.9,4.25,3.79,5.47,0,.44-2.11,2.13-3.67,3.87-1.44-2.52-2.21-3.77-3.82-6.23h-.06a59.1,59.1,0,0,0,.08,6c-1.53.72-2.29,1.09-3.76,1.88,0-.36-.12-1.45-.17-3.29C71.84,75.68,71.83,72.82,72,67.07Zm4.42,3.15a5.56,5.56,0,0,0-.21,1.71c-.06.68-.08,1-.14,1.7a11.85,11.85,0,0,0,1.79-1.43,5.74,5.74,0,0,0,1.3-1.77.89.89,0,0,0,.1-.43c0-.35-.35-.5-.92-.42S76.67,69.85,76.39,70.22Z" transform="translate(0 0)" fill="#4e3529"/><path d="M87.3,83.17a4.14,4.14,0,0,1-4-2.52,8.09,8.09,0,0,1-.9-3.05A12.27,12.27,0,0,1,82.6,74a13.71,13.71,0,0,1,3.21-6.37,9.13,9.13,0,0,1,7.07-3.51,4.58,4.58,0,0,1,4.53,3.08c-1.43,1.07-2.12,1.62-3.47,2.74a1.86,1.86,0,0,0-1.55-.7,4.64,4.64,0,0,0-3.74,2.31,11.25,11.25,0,0,0-1.77,3.89,5.32,5.32,0,0,0-.18,1.5,2.33,2.33,0,0,0,.64,1.59,2.25,2.25,0,0,0,1.73.63,3.41,3.41,0,0,0,2.32-1.07A12.93,12.93,0,0,0,92.83,76a23.17,23.17,0,0,0-3.76.75c.32-1.44.48-2.16.83-3.59A75.17,75.17,0,0,1,97.55,72a9.1,9.1,0,0,1-1,3.57,18.37,18.37,0,0,1-2,3.22C92.31,81.62,90,83.05,87.3,83.17Z" transform="translate(0 0)" fill="#4e3529"/><path d="M99.74,65.67c2.31-.11,3.47-.13,5.81-.1A73,73,0,0,0,102,73.68c1-.05,1.45-.07,2.42-.1,1-2.8,1.54-4.2,2.64-7,2.32.07,3.49.14,5.83.34a67,67,0,0,0-7.16,15.85c-1.84.1-2.76.18-4.56.39.8-2.58,1.22-3.86,2.1-6.42-.53,0-2.05-.13-2.39.14-.68.55-1,3.62-1.28,5-1.82.24-2.72.39-4.5.72C96.71,75.81,97.63,72.41,99.74,65.67Z" transform="translate(0 0)" fill="#4e3529"/><path d="M110.66,80.83a2.9,2.9,0,0,1,1.57.64,1.3,1.3,0,0,1,.52,1.4A2.66,2.66,0,0,1,111,84.53a4.81,4.81,0,0,1-2.29.36,2.89,2.89,0,0,1-1.52-.52,1.29,1.29,0,0,1-.55-1.35,2.58,2.58,0,0,1,1.62-1.79A4.45,4.45,0,0,1,110.66,80.83Zm7-13.88c2.49,1,3.71,1.6,6.12,2.8A46.23,46.23,0,0,0,118.41,74a31.9,31.9,0,0,0-4.3,5.08c-1.49-.46-2.23-.68-3.73-1.08A124.84,124.84,0,0,1,117.64,67Z" transform="translate(0 0)" fill="#4e3529"/><path d="M118.5,83.09a3,3,0,0,1,1.52.79,1.3,1.3,0,0,1,.4,1.45,2.66,2.66,0,0,1-1.93,1.48,4.9,4.9,0,0,1-2.33.13,2.94,2.94,0,0,1-1.47-.67,1.3,1.3,0,0,1-.43-1.4,2.58,2.58,0,0,1,1.8-1.62A4.51,4.51,0,0,1,118.5,83.09Zm8.3-13.14c2.4,1.28,3.58,2,5.89,3.39A46.13,46.13,0,0,0,126.93,77a31.72,31.72,0,0,0-4.79,4.64c-1.45-.61-2.18-.9-3.65-1.44A123.37,123.37,0,0,1,126.8,69.94Z" transform="translate(0 0)" fill="#4e3529"/><path d="M50.71,87.55l-.62.65L40.54,92c.52,2.3,1.06,4.62,1.63,7,1.59-1.57,2.41-2.33,4.1-3.78-.28-.84-.41-1.26-.68-2.11.54-.5.82-.74,1.37-1.22.49,1.13.74,1.69,1.24,2.81,1.58-1.5,2.43-2.26,4.06-3.62-.1-.32-.22-.72-.36-1.18Q51.28,88.7,50.71,87.55Z" transform="translate(0 0)" fill="#442d21"/><path d="M61.33,82.69a29.13,29.13,0,0,0-2.78-2.13l-1.9.77-2.18,2.28c2.08,1.87,3.14,2.89,5.13,4.91.68-1.3,1.56-2.63,2.1-3.56l-.07-.45Z" transform="translate(0 0)" fill="#442d21"/><path d="M51.1,87.14l.52,1.78.28,1,.54,1-.18.15c.16.51.28.84.34,1,1.25-1.15,1.9-1.71,3.22-2.8-.55-1.65-1.06-3.48-1.52-5.49Z" transform="translate(0 0)" fill="#442d21"/><path d="M72,79.6a40.78,40.78,0,0,0-3.22-3.14l-7.88,3.17c.14,1,.29,2,.47,3.06a2.64,2.64,0,0,1,.88,1.15A2.91,2.91,0,0,1,61.7,85c.25,1.54.43,2.48.51,2.8,1.37-1,2.07-1.44,3.51-2.35a58.65,58.65,0,0,1-.84-5.92h.06c1.92,2.23,2.83,3.37,4.59,5.69.83-1.2,1.86-2.41,2.52-3.25,0-.15,0-.3,0-.46C72,80.81,72,80.19,72,79.6Z" transform="translate(0 0)" fill="#442d21"/><path d="M82.32,77.18c-1.39-.91-2.61-1.83-2.61-1.83l-7.83.7c0,1.1,0,2.26.09,3.55a2.66,2.66,0,0,1,.72,1.26A2.9,2.9,0,0,1,72,81.92c.05,1.56.11,2.51.16,2.84,1.48-.79,2.23-1.16,3.76-1.88a59,59,0,0,1-.09-6h.06c1.61,2.46,2.38,3.71,3.82,6.23,1.09-1.21,2.41-2.39,3.13-3.15a8.3,8.3,0,0,1-.55-2.29C82.33,77.52,82.33,77.35,82.32,77.18Z" transform="translate(0 0)" fill="#442d21"/><path d="M96.34,73s-2.93,1.82-5.68,3.44a9.34,9.34,0,0,1,2.16-.37,12.86,12.86,0,0,1-1.45,2.08,3.42,3.42,0,0,1-2.32,1.07,2.25,2.25,0,0,1-1.73-.63,2.11,2.11,0,0,1-.14-.18,7.43,7.43,0,0,1-1.1.51c-.62.17-2.21-.72-3.64-1.64a4.11,4.11,0,0,1,1,2,2,2,0,0,1-.54.72,7.64,7.64,0,0,0,.35.77,4.13,4.13,0,0,0,4,2.52c2.7-.12,5-1.56,7.21-4.39a18.46,18.46,0,0,0,2-3.22,11.4,11.4,0,0,0,.79-2.08Z" transform="translate(0 0)" fill="#442d21"/><path d="M101.9,76.32l-4.52-2.71C96.62,76.36,96,79,95.1,82.71c1.78-.34,2.68-.48,4.5-.72.29-1.39.6-4.47,1.28-5,.33-.27,1.86-.11,2.39-.14-.88,2.56-1.3,3.84-2.1,6.42,1.81-.2,2.72-.28,4.56-.39a60.29,60.29,0,0,1,3-8.06Z" transform="translate(0 0)" fill="#442d21"/><path d="M112.21,81.54a2.91,2.91,0,0,0-1.57-.64,4.46,4.46,0,0,0-2.4.39,2.58,2.58,0,0,0-1.62,1.79,1.3,1.3,0,0,0,.55,1.35,2.9,2.9,0,0,0,1.52.52A4.82,4.82,0,0,0,111,84.6a2.66,2.66,0,0,0,1.77-1.66A1.3,1.3,0,0,0,112.21,81.54Z" transform="translate(0 0)" fill="#442d21"/><path d="M112.7,74.24c-.71,1.13-1.46,2.36-2.33,3.82,1.5.4,2.25.61,3.73,1.08a32.45,32.45,0,0,1,3.79-4.58Z" transform="translate(0 0)" fill="#442d21"/><path d="M120,83.95a3,3,0,0,0-1.52-.79,4.52,4.52,0,0,0-2.45.16,2.58,2.58,0,0,0-1.8,1.62,1.29,1.29,0,0,0,.43,1.4,3,3,0,0,0,1.47.67,4.91,4.91,0,0,0,2.33-.13,2.65,2.65,0,0,0,1.92-1.48A1.3,1.3,0,0,0,120,83.95Z" transform="translate(0 0)" fill="#442d21"/><path d="M124.62,77.37l-2-2.51c-1.31,1.61-2.54,3.23-4.17,5.44,1.47.54,2.2.83,3.65,1.44a33.1,33.1,0,0,1,3.4-3.48Z" transform="translate(0 0)" fill="#442d21"/><polygon points="194.82 101.95 197.55 103.11 193.38 104.61 187.68 104.1 194.82 101.95" fill="#4d2c09"/><polygon points="195.78 115.01 197.85 115.5 196.66 116.93 194.59 116.71 195.78 115.01" fill="#4d2c09"/><path d="M99.26,99.39s3,12.25-1.48,15.74-2.67,4.3-1.71,7.3,1.75,5.58,1.71,7.72,2.12,4.37,4.07,4.32,1.71,4.13,3.5,2.47,5.09-4.58,7.7-4.33,7.19.95,8.6-1.4,9.89-8.15,9.89-8.15l.49,11.48-18-.85-18.57,9.45s-10.84-9-11.8-22.48,5.83-20.28,5.83-20.28l3.68-.63,2.85-.24Z" transform="translate(0 0)" fill="#4d2c09" opacity="0.4"/><polygon points="135.15 134.81 129.87 139.37 120.71 138.85 108.16 142.03 102.83 139.09 114.08 133.68 135.15 134.81" fill="#361900"/><polygon points="195.78 117.8 197.69 117.9 196.66 116.93 194.59 116.71 195.78 117.8" fill="#88592d"/><path d="M69,89.42h0c-5.35,1.11-8.78,3.33-10.19,6.6a8.93,8.93,0,0,0-.7,3.55,12.83,12.83,0,0,0,.9,4.53,7.19,7.19,0,0,0-3.92.32,6,6,0,0,0-4.28,3,8.49,8.49,0,0,0-.93,4.13,19.92,19.92,0,0,0,1.6,7.23,6.1,6.1,0,0,0,3.39,3.49,9.19,9.19,0,0,0,3.85.61,3.87,3.87,0,0,0-1.33,3.34c0,.28,0,.53,0,.75v.22a1.73,1.73,0,0,0,.69,1.36l.17.11a16.24,16.24,0,0,0-2,8.15,22.87,22.87,0,0,0,.23,3.23,2.1,2.1,0,0,0-.67,1.27v0a3,3,0,0,1-.47,0,6.12,6.12,0,0,1-1,0,1.84,1.84,0,0,0-.07-.27,1,1,0,0,0-.38-.48l-2.08-1.38a7.66,7.66,0,0,0,.2-1.81c0-.41,0-.81,0-1.19l0-.23a2.41,2.41,0,0,0-1.36-2.19l-1.7-2.35-.24-.38a3.94,3.94,0,0,0-2.22-2.09,2.13,2.13,0,0,0-2.55,2.18c0,.07,0,.14,0,.21A4.31,4.31,0,0,0,44,132s.18.6.43,1.2a2.7,2.7,0,0,0-.92.69A2.73,2.73,0,0,0,43,135a3,3,0,0,0-1.72,1.18,2.21,2.21,0,0,0-.52,1.48c0,1.94,1.94,4.33,2.85,5.12a2.9,2.9,0,0,0,1.33.64l.78,3.34a1,1,0,0,0,.52.65,2.6,2.6,0,0,0,1.43.16c3.05,6.24,7,7.3,9,7.39,0,.12,0,.25,0,.36a23.66,23.66,0,0,0,1.4,8.57l-1.15.77a1,1,0,0,0-.29,1.34L60,171.49l-.29.58a1,1,0,0,0-.1.44,1,1,0,0,0,.92,1l3.12.2A14.11,14.11,0,0,0,71,176.14a3.78,3.78,0,0,0,3.38,2.44c0,.08,0,.15,0,.23a2.88,2.88,0,0,0-2.23,2.92,3.76,3.76,0,0,0,.15,1.06,1,1,0,0,0,.94.69H76.7a1,1,0,0,0,.62-.23,1,1,0,0,0,.43.15c1.26.09,1.78-.06,2.05-.59a1.9,1.9,0,0,0,.18-.88,4.9,4.9,0,0,0-.27-1.48,9.28,9.28,0,0,1-.38-2A3.56,3.56,0,0,0,81.62,177l.89-1.32c.63-.05,1.76-.14,2.6-.14a43.05,43.05,0,0,0,4.46-.22,3.18,3.18,0,0,0,3,2.25l1.32,4.14a1,1,0,0,0,.94.68h2.57a1,1,0,0,0,1-1,1,1,0,0,0,0-.12s-.49-3.89-.63-5a3.86,3.86,0,0,0,1.59-2.52,4.25,4.25,0,0,0,2.42-2l1.58-.45a1,1,0,0,0,.69-.93,1,1,0,0,0-.2-.59l-.53-.7a1,1,0,0,0,.33-.64l.35-4.22s0-.06,0-.08a1,1,0,0,0-.35-.75h0a34.19,34.19,0,0,0,.39-5.34c0-.25,0-.5,0-.76a31.1,31.1,0,0,0-.88-6.87,9,9,0,0,0,4.78-3.49.93.93,0,0,0,.36-.05l.77-.27,1,1.36a.88.88,0,0,0,.57.35,1,1,0,0,0,.74-.17l.57-.41a1.64,1.64,0,0,0,.9.58,2.23,2.23,0,0,0,1.77-.5,2.49,2.49,0,0,0,.58-.58,2.38,2.38,0,0,0,1.5-.66,2.46,2.46,0,0,0,.41-.5h.12a3.26,3.26,0,0,0,1.7-1.32,1.54,1.54,0,0,0,.71.34,2,2,0,0,0,1.57-.46,5.4,5.4,0,0,0,2.32-4,3.87,3.87,0,0,0-.06-.46,64.94,64.94,0,0,0,8.64-5.64c4.55-3.35,5.83-6.84,5.83-9.72a10.87,10.87,0,0,0-1-4.46c-.78-1.73-1.29-2.26-2-2.11a1,1,0,0,0-.69.55c-2.67,5.87-12.52,15.38-14.38,17.15a5.28,5.28,0,0,0-4.77,1.44,2.59,2.59,0,0,0-.45.54,14.11,14.11,0,0,0-2,.19,4.23,4.23,0,0,0-1.68.66.91.91,0,0,0-.31-.16c-1.17-.32-5.23-.8-5.69.5l0,.25a16.19,16.19,0,0,1-2.5-.33,4.89,4.89,0,0,1-1.89-.81,6.87,6.87,0,0,0-.75-.44l0-.06a1,1,0,0,0,.1-.44,1,1,0,0,0-.58-.89L96.14,135A24,24,0,0,0,95,132.2a1,1,0,0,0,1-1,1,1,0,0,0,0-.18,7,7,0,0,0-2-3.75,2.14,2.14,0,0,0-1.26-.45,23.87,23.87,0,0,0-1.5-4.44,3.5,3.5,0,0,0,.28-1.32,3.54,3.54,0,0,0-1.63-3l-.28-1.49c4.5-1.33,5.23-2.17,5.56-2.85a15.36,15.36,0,0,0,1-5.91c0-1.63-.21-4.68-1.62-6.72a4.53,4.53,0,0,0-4.27-2.06,7.64,7.64,0,0,0-3.43,1.17C87,99.62,87,99,87,98.42c0-3.09-.83-5.42-2.55-7.11C81.63,88.53,76.44,87.89,69,89.42Zm35.84,50.15Zm-6.48,33.5h0Z" transform="translate(0 0)" fill="#231f20"/><path d="M134.64,118.66c-3,6.63-14.73,17.62-14.85,17.73a.48.48,0,0,0-.14.49l.8,3a.47.47,0,0,0,.18.26c1.11.84,6.66-2.92,11.12-6.23,7.07-5.24,6-10.81,4.67-13.66-.89-2-1.23-1.88-1.44-1.84A.48.48,0,0,0,134.64,118.66Z" transform="translate(0 0)" fill="#231f20"/><path d="M120.12,136.75s11.88-11.09,15-17.89c0,0,5.85,7.6-3.63,14.62s-10.53,6.23-10.53,6.23Z" transform="translate(0 0)" fill="#b2c4cd"/><path d="M120.47,137.67c.12-.11,11.84-11.1,14.85-17.73a.49.49,0,0,1,.28-.26,6.94,6.94,0,0,0-.52-.82c-3.08,6.79-15,17.89-15,17.89l.28,1Z" transform="translate(0 0)" fill="#fff"/><path d="M121.41,137.35c-2.07-2.48-4.9-.89-6,.16s-.25,1.87-.25,1.87l1,1.19L118,142.8l1,1.19s.64,1,1.89.09,3.31-3.44,1.24-5.91Z" transform="translate(0 0)" fill="#231f20"/><path d="M96.67,137.52a1.88,1.88,0,0,0-1.69.92c-1.5,2.56,2.36,10,3.14,11.48a.51.51,0,0,0,.33.25c.08,0,7.86,1.55,10.58-6.84a.49.49,0,0,0,0-.32l-1.1-3a.49.49,0,0,0-.49-.32,21.4,21.4,0,0,1-5.16-.37,5.33,5.33,0,0,1-2-.89A5.09,5.09,0,0,0,96.67,137.52Z" transform="translate(0 0)" fill="#231f20"/><path d="M98.57,149.69s7.4,1.55,10-6.51l-1.1-3a21.71,21.71,0,0,1-5.3-.38c-2.77-.62-2.07-1.84-5.49-1.77C92.3,138.11,98.57,149.69,98.57,149.69Z" transform="translate(0 0)" fill="#600000"/><path d="M108.11,144.41a6.3,6.3,0,0,0-.94.42c-4.8,2.58-6.66-.05-6.66-.05a22.57,22.57,0,0,1,1.71,4.77A8.42,8.42,0,0,0,108.11,144.41Z" transform="translate(0 0)" fill="#4f0000"/><path d="M96.07,138.93a5.1,5.1,0,0,1,3.56.89,5.34,5.34,0,0,0,2,.89,21.32,21.32,0,0,0,5.16.37.49.49,0,0,1,.49.32l.95,2.59q.16-.39.3-.82l-1.1-3a21.71,21.71,0,0,1-5.3-.38c-2.77-.62-2.07-1.84-5.49-1.77a1.39,1.39,0,0,0-1.45,1.09A2.23,2.23,0,0,1,96.07,138.93Z" transform="translate(0 0)" fill="#961b1e"/><path d="M105.38,139.06a.52.52,0,0,0,0,.22,27.7,27.7,0,0,0,2.11,6.74.49.49,0,0,0,.61.26l2.37-.84a.49.49,0,0,0,.33-.46l.06-5.63a.49.49,0,0,0-.36-.48C108.87,138.43,105.63,138.35,105.38,139.06Z" transform="translate(0 0)" fill="#231f20"/><path d="M110.28,145l-2.37.84a27.7,27.7,0,0,1-2.07-6.59,10.12,10.12,0,0,1,4.5.12Z" transform="translate(0 0)" fill="#2b2737"/><path d="M110.33,140.34v-1a10.12,10.12,0,0,0-4.5-.12c0,.32.1.66.17,1A11,11,0,0,1,110.33,140.34Z" transform="translate(0 0)" fill="#535166"/><path d="M112.68,138.37h0a3.6,3.6,0,0,0-2.47,1.59.5.5,0,0,0-.07.27l.15,3.66a.49.49,0,0,0,.67.44l4.45-1.7a4,4,0,0,0,3.23.49c1.08-.28,1.23-1,1.25-1.24a1.46,1.46,0,0,0-1-1.37,7.59,7.59,0,0,1-2.11-1.71C116.26,138.15,114.9,138,112.68,138.37Z" transform="translate(0 0)" fill="#231f20"/><path d="M110.63,140.2a3.1,3.1,0,0,1,2.13-1.35c1.49-.24,3.16-.34,3.7.26a8,8,0,0,0,2.3,1.84c.71.28,1.08,1.33-.24,1.68a3.54,3.54,0,0,1-3-.56l-4.69,1.8Z" transform="translate(0 0)" fill="#cc9886"/><path d="M112.23,139.52c2.2-.46,3.56-.38,4.16.24a7.61,7.61,0,0,0,2.19,1.61,1.56,1.56,0,0,1,.8.63.91.91,0,0,0-.61-1,8,8,0,0,1-2.3-1.84c-.54-.6-2.21-.5-3.7-.26a3.1,3.1,0,0,0-2.13,1.35v.07A3.66,3.66,0,0,1,112.23,139.52Z" transform="translate(0 0)" fill="#ecb89d"/><path d="M117.07,142.78a.44.44,0,0,1-.14.61l-5.9,4.22a.45.45,0,0,1-.63-.07L109.26,146a.45.45,0,0,1,.14-.61l5.9-4.22a.45.45,0,0,1,.63.07Z" transform="translate(0 0)" fill="#231f20"/><path d="M56.35,141.15c-.05.31-.07.44-.94.47-2.48.09-3.24-1-3.27-1.07a.5.5,0,0,0-.73-.12L47.1,144a.49.49,0,0,0-.15.54c3.94,11,10.44,9.8,10.71,9.74A.49.49,0,0,0,58,154c.5-1.12,4.85-11,3-13.74a1.76,1.76,0,0,0-1.6-.78C57.07,139.58,56.51,140.17,56.35,141.15Z" transform="translate(0 0)" fill="#231f20"/><path d="M57.57,153.83s-6.31,1.25-10.15-9.43l4.31-3.59s.86,1.41,3.7,1.3-.36-2,4-2.11S57.57,153.83,57.57,153.83Z" transform="translate(0 0)" fill="#600000"/><path d="M59.45,140c-3.79.11-1.9,1.53-3.17,2a1.24,1.24,0,0,0,.51.47,1.23,1.23,0,0,0,.74.09,15.44,15.44,0,0,0,1.82,6.83C60.78,145.3,62.18,139.93,59.45,140Z" transform="translate(0 0)" fill="#450000"/><path d="M57.32,153.86c.1-1.62.29-4.67.42-5,0,0-6.19,2.63-8.33-2.7a3.81,3.81,0,0,0-1.64-2.09l-.35.29C50.8,153.81,56.1,154,57.32,153.86Z" transform="translate(0 0)" fill="#4f0000"/><path d="M45.21,141.46a.49.49,0,0,0-.12.44l1.07,4.6a.49.49,0,0,0,.26.33c.15.08,1.59.7,4.79-1.51s2.7-4.13,2.63-4.34a.5.5,0,0,0-.19-.24l-3.18-2.13a.5.5,0,0,0-.17-.07C50.1,138.49,48.22,138.18,45.21,141.46Z" transform="translate(0 0)" fill="#231f20"/><path d="M45.57,141.79l1.07,4.6s1.24.63,4.29-1.48,2.44-3.76,2.44-3.76L50.2,139S48.48,138.63,45.57,141.79Z" transform="translate(0 0)" fill="#2b2737"/><path d="M49.73,139.87a.47.47,0,0,1,.17.07l3.18,2.13a.49.49,0,0,1,.19.24h0a1.82,1.82,0,0,0,.11-1.18L50.2,139s-1.72-.38-4.63,2.77v0C48,139.58,49.55,139.83,49.73,139.87Z" transform="translate(0 0)" fill="#535166"/><path d="M45.1,129.39h0a1.68,1.68,0,0,0-.69,1.63,3.67,3.67,0,0,0,.1.64,12.83,12.83,0,0,0,.61,1.6,2.3,2.3,0,0,0-1.2.73,2.18,2.18,0,0,0-.53,1.26c-.52-.07-1.06.19-1.77,1-1.35,1.59,1.09,4.91,2.28,6s3.46.32,3.7.22l0,0a23.78,23.78,0,0,0,2.53-1.66c1.53-1.14,1.42-3.4,1.33-4.83,0,0,0-.23,0-.23a1.92,1.92,0,0,0-1.19-1.83l-1.79-2.49-.25-.39c-.43-.71-1-1.68-1.92-1.88A1.58,1.58,0,0,0,45.1,129.39Z" transform="translate(0 0)" fill="#231f20"/><path d="M47.21,138.12a1.14,1.14,0,0,0,.93-.91h-.22a2,2,0,0,1-1.24-.62,2.15,2.15,0,0,1-.26-1.94v0a.52.52,0,0,1,.29-.31,7.18,7.18,0,0,0-1.26-.61,1.87,1.87,0,0,0-1.18.62,1.66,1.66,0,0,0-.42,1.19C45,136.78,46.63,138.23,47.21,138.12Z" transform="translate(0 0)" fill="#cc9886"/><path d="M46,133.91l-.53-.23a1.87,1.87,0,0,0-1.18.62,1.66,1.66,0,0,0-.42,1.19l.34.36A4.7,4.7,0,0,1,46,133.91Z" transform="translate(0 0)" fill="#ecb89d"/><path d="M47.26,134.11a12.12,12.12,0,0,1,2.44-.21l-1.59-2.21c-.47-.66-1.38-2.79-2.74-1.89-1,.67-.19,2.52.29,3.43A5.23,5.23,0,0,1,47.26,134.11Z" transform="translate(0 0)" fill="#cc9886"/><path d="M47.44,130.62c-.51-.73-1.19-1.4-2.07-.82a1.48,1.48,0,0,0-.41,1.65A1.78,1.78,0,0,1,47.44,130.62Z" transform="translate(0 0)" fill="#ecb89d"/><path d="M51,135.76a1.46,1.46,0,0,0-.76-1.36,10.79,10.79,0,0,0-3.3.33l-.06.22a1.67,1.67,0,0,0-.07.52,1.17,1.17,0,0,0,.26.79c.36.42,1.11.58,2.24.48a.86.86,0,0,1-.64.42,1.65,1.65,0,0,1-1.35,1.44,1.16,1.16,0,0,1-.64-.11,1.34,1.34,0,0,1-.09.58,1.9,1.9,0,0,1-1.28,1.07,1.56,1.56,0,0,1-1.4-.46,1.68,1.68,0,0,1-.69-1.49c.3.44,1.3,1.66,2,1.48a1.41,1.41,0,0,0,1-.78.79.79,0,0,0-.06-.72h0a16.1,16.1,0,0,1-2.64-2.43c-.36-.1-.77.07-1.43.86-1,1.23,1.09,4.27,2.23,5.27s3.19.14,3.19.14a23,23,0,0,0,2.47-1.62C51.27,139.35,51.08,137.08,51,135.76Z" transform="translate(0 0)" fill="#cc9886"/><path d="M43.87,136.23l-.45-.49c-.36-.1-.77.07-1.43.86a1.5,1.5,0,0,0-.24,1.26A6.82,6.82,0,0,1,43.87,136.23Z" transform="translate(0 0)" fill="#ecb89d"/><path d="M50.23,134.39a10.79,10.79,0,0,0-3.3.33l-.06.22a1.9,1.9,0,0,0-.06.27c.73-.11,3.35-.47,4.09,0A1.28,1.28,0,0,0,50.23,134.39Z" transform="translate(0 0)" fill="#ecb89d"/><path d="M58.63,115.78c6.92-2.55,11.86-4.37,16.8-5.36s12.28-1.41,16.13-.63c2.14.43,3.17-1.55,3.66-3.39-.2-3.57-1.48-7-4.81-6.76a7.66,7.66,0,0,0-4.84,2.61c1.61-8.29-.46-15.66-16.35-12.36s-8.29,15.51-8.29,15.51a6.29,6.29,0,0,0-5.53-.46c-4.16.78-5.14,4.66-4.18,9.26C52.11,115.65,54.15,117.43,58.63,115.78Z" transform="translate(0 0)" fill="#2b2737"/><path d="M59.59,97.59c1.34-3.13,4.65-5.27,9.84-6.34,7.24-1.5,12.28-.91,15,1.77a7.31,7.31,0,0,1,1.11,1.42c-1.38-4.28-5.86-6.72-16.3-4.55-8.09,1.68-10.09,5.67-10.11,9.18A8.06,8.06,0,0,1,59.59,97.59Z" transform="translate(0 0)" fill="#535166"/><path d="M62.63,122.21l-1,.47a3.16,3.16,0,0,0-2.57.27c-1.23.85-1.15,2.7-1.11,3.7v.22a1.24,1.24,0,0,0,.5,1,2.28,2.28,0,0,0,1.43.35l1,.43a.49.49,0,0,0,.17,0l1.89.06a.46.46,0,0,0,.41-.2l1.92-3a.37.37,0,0,0,0-.28l-.46-2a.4.4,0,0,0-.16-.24l-1-.67a.47.47,0,0,0-.25-.08l-.64,0A.49.49,0,0,0,62.63,122.21Z" transform="translate(0 0)" fill="#231f20"/><path d="M61.66,123.1c-3.7-1-3.31,2.61-3.28,3.75s1.57,1,1.57,1l1.14.48,1.89.06,1.92-3-.46-2-1-.67-.64,0Z" transform="translate(0 0)" fill="#cc9886"/><path d="M75.59,175.36a1.2,1.2,0,0,0-.69.88,5.09,5.09,0,0,0-.1,1.09,8.54,8.54,0,0,0,.2,1.8,2.8,2.8,0,0,0-1.88,1.1,2.63,2.63,0,0,0-.42,1.49,3.4,3.4,0,0,0,.12.92.49.49,0,0,0,.47.34H76.7a.48.48,0,0,0,.33-.13l.26-.24.2.17a.49.49,0,0,0,.29.12c1.26.09,1.46-.1,1.59-.34a3.23,3.23,0,0,0-.11-2,21.8,21.8,0,0,1-.59-4.27.49.49,0,0,0-.25-.4C78.11,175.75,76.56,174.93,75.59,175.36Zm-.44,4.29a.75.75,0,0,0,.16.27A.49.49,0,0,1,75.14,179.65Z" transform="translate(0 0)" fill="#231f20"/><path d="M78.17,176.35a22.06,22.06,0,0,0,.62,4.43s.36,1.12.13,1.55c-.08.15-1.12.07-1.12.07l-.53-.46-.59.54H73.28s-.85-2.72,2.33-3a7.5,7.5,0,0,1-.23-3.19C75.69,174.95,78.17,176.35,78.17,176.35Z" transform="translate(0 0)" fill="#231f20"/><path d="M96.4,174.42l-3.5,1.07a.49.49,0,0,0-.32.62l1.75,5.5a.49.49,0,0,0,.47.34h2.57a.49.49,0,0,0,.37-.17.5.5,0,0,0,.12-.39L97,174.82a.49.49,0,0,0-.63-.41Z" transform="translate(0 0)" fill="#231f20"/><polygon points="93.04 175.96 94.79 181.46 97.36 181.46 96.54 174.88 93.04 175.96" fill="#886539"/><path d="M101.77,165.91l-40.29,2.46a.49.49,0,0,0-.46.57c0,.25,1.08,6,10.35,6.7a3.33,3.33,0,0,0,3.21,2.44c2.54.2,5.6.23,6.61-1.33.53-.81.86-1.29,1-1.52.52,0,1.89-.16,2.88-.16a40.68,40.68,0,0,0,4.78-.26c1,2.94,3.05,2.42,4.87,1.95.44-.12.9-.24,1.35-.31a3.26,3.26,0,0,0,2.75-3c3.43-.76,3.5-5.85,3.5-6.23v-.06l-.08-.77A.49.49,0,0,0,101.77,165.91Zm-2.9,7a.4.4,0,0,1,0,.05h0S98.88,173,98.87,173Z" transform="translate(0 0)" fill="#231f20"/><path d="M61.52,168.87s.92,5.83,10.29,6.32a2.78,2.78,0,0,0,2.83,2.4c2.68.21,5.34.15,6.16-1.11S82,174.75,82,174.75s1.87-.18,3.14-.18a37.22,37.22,0,0,0,5.11-.31c1,3.66,3.37,2.1,5.8,1.69A2.88,2.88,0,0,0,98.39,173c3.52-.38,3.49-5.84,3.49-5.84l-.07-.77Z" transform="translate(0 0)" fill="#5c6b0a"/><path d="M101.88,167.17l-.07-.77-40.29,2.46s.53,3.32,4.82,5.16c4.69.27,11.21.57,15.57.53a1.23,1.23,0,0,0,.92-.43,1.22,1.22,0,0,0,.27-.66,2.11,2.11,0,0,0,1.12.21l5.27-.49.34-.06a1.21,1.21,0,0,0,1.13.71,49.82,49.82,0,0,0,8.85-1.34C101.9,171,101.88,167.17,101.88,167.17Z" transform="translate(0 0)" fill="#414f00"/><path d="M81.31,168.89l-19.59.81a.49.49,0,0,0-.42.27l-1.13,2.26a.5.5,0,0,0,0,.46.49.49,0,0,0,.39.25c.14,0,13.89,1,21.32.89a.48.48,0,0,0,.37-.17.49.49,0,0,0,.11-.39l-.57-4A.49.49,0,0,0,81.31,168.89Z" transform="translate(0 0)" fill="#231f20"/><path d="M61.74,170.18l-1.13,2.26s13.78,1,21.28.89l-.56-4Z" transform="translate(0 0)" fill="#450000"/><path d="M100.67,166.88l-10.72,2a.49.49,0,0,0-.38.61l.89,3.22a.49.49,0,0,0,.49.36,51.65,51.65,0,0,0,12.22-2.28.49.49,0,0,0,.25-.77l-2.26-3A.49.49,0,0,0,100.67,166.88Z" transform="translate(0 0)" fill="#231f20"/><path d="M90,169.38l.89,3.23A50.54,50.54,0,0,0,103,170.35l-2.26-3Z" transform="translate(0 0)" fill="#450000"/><path d="M80.55,132.7a27.47,27.47,0,0,0-10.27,3,.52.52,0,0,1,.12-.11l-10.91,5.15a11.19,11.19,0,0,0-.67,1.9c-.4,2-5.08,18.67,2.81,25.84a1.34,1.34,0,0,0,.46.19c.2,0,20.45,2.29,39.81-1.76a.49.49,0,0,0,.37-.33c.05-.16,1.32-2.83,1.22-9.35a28,28,0,0,0-6.94-18.45C92.45,134.18,87.07,132.14,80.55,132.7Z" transform="translate(0 0)" fill="#231f20"/><path d="M59.32,139.41s-5.4,21.75,2.82,28.74c0,0,20.15,2.32,39.65-1.75,0,0,4.25-16.57-5-27.62C87,127.11,70.61,136,70.61,136Z" transform="translate(0 0)" fill="#600000"/><path d="M70.61,136l-11.28,3.39a67.34,67.34,0,0,0-1.23,6.88c2.11,7.45,9.28,11.2,9.36,11.25a1.23,1.23,0,0,0,1,0,1.21,1.21,0,0,0,.54-.49,28.3,28.3,0,0,0,12.51,4.66,1.23,1.23,0,0,0,1.19-.65l2.53-4.8.54.49A1.22,1.22,0,0,0,87,157c6.3-2.26,7.88-10.79,8.27-14.61a1.2,1.2,0,0,0,1.59-1.07l0-.84a14.58,14.58,0,0,0-.1-1.69l0,0C87,127.11,70.61,136,70.61,136Z" transform="translate(0 0)" fill="#450000"/><path d="M71.67,164.32c-8.87-.72-13.19-12.15-13.95-14.35-.47,6.57.05,14.46,4.42,18.18,0,0,20.15,2.32,39.65-1.75a41,41,0,0,0,.8-12.63C101.11,164.42,81,165.08,71.67,164.32Z" transform="translate(0 0)" fill="#4f0000"/><polygon points="81.04 168.11 79.14 155.1 83.46 150.63 88.65 150.27 91.06 168.04 81.04 168.11" fill="#d1dfe7"/><path d="M88.65,150.27l-5.19.37-4.32,4.46.94,6.45c.85.15,1.38.19,1.46.2a1.23,1.23,0,0,0,1.19-.65l2.53-4.8.54.49A1.22,1.22,0,0,0,87,157a9,9,0,0,0,2.36-1.28Z" transform="translate(0 0)" fill="#91aebe"/><path d="M89.8,158.73l-10,1.06.25,1.7,10-1.06Zm.48,3.55-9.94,1.06.25,1.7L90.51,164Zm-1-7.1-10,1.06.25,1.7,10-1.06Z" transform="translate(0 0)" fill="#231f20"/><path d="M87.69,147.2l3,20.09h2.07L97.54,156,94.3,155l3.49-10.14v-.07a14,14,0,0,0-6.66-9.28l-.27-.14Zm3.47-11.14a13.63,13.63,0,0,1,6.12,8.73l-3.6,10.48,3.21,1-4.43,10.49H91.13l-2.94-19.57Z" transform="translate(0 0)" fill="#231f20"/><path d="M71.07,137.19a14,14,0,0,0-3.55,9.33,14.27,14.27,0,0,0,.08,1.55v.07l6.45,8.57-2.76,2,8,9.26,2-.64-3.33-20L71.28,137ZM68,146.52a13.61,13.61,0,0,1,3.2-8.76l6.27,9.71L80.73,167l-1.25.41L72,158.8l2.73-2L68.09,148A14,14,0,0,1,68,146.52Z" transform="translate(0 0)" fill="#231f20"/><path d="M102.85,163.61c-20.7,5.39-43.05,2-43.28,1.93a.49.49,0,0,0-.54.65,30.76,30.76,0,0,0,2.22,4.65.5.5,0,0,0,.37.24c5.37.53,24.22,1.92,41.11-2.28a.49.49,0,0,0,.37-.43l.35-4.24a.49.49,0,0,0-.61-.52Z" transform="translate(0 0)" fill="#231f20"/><path d="M102.62,168.33c-15.86,3.95-33.73,3-40.95,2.27A30.35,30.35,0,0,1,59.49,166s22.44,3.54,43.48-1.94Z" transform="translate(0 0)" fill="#352005"/><path d="M92.69,134.2C83.58,147.42,57.38,164.84,57.12,165a.49.49,0,0,0-.14.67l3.63,5.72a.49.49,0,0,0,.68.15c1.25-.78,30.59-19.35,38.06-34.29a.49.49,0,0,0-.24-.67L93.3,134A.49.49,0,0,0,92.69,134.2Z" transform="translate(0 0)" fill="#231f20"/><path d="M57.39,165.43s26.44-17.49,35.71-31l5.8,2.58C91.41,152,61,171.15,61,171.15Z" transform="translate(0 0)" fill="#352005"/><path d="M96.21,135.86l-3.11-1.38C87.91,142,77.34,150.81,69,157.1a27.66,27.66,0,0,0,7.05,3.45c6.76-5.19,14.29-11.66,19.19-17.92l0-.2.11,0q.81-1,1.51-2.07A16.88,16.88,0,0,0,96.21,135.86ZM68.49,157.58a1.17,1.17,0,0,0,.52-.46l-.68.51Z" transform="translate(0 0)" fill="#261100"/><path d="M67,156.34l-4.09,3.1a1.78,1.78,0,0,0-.34,2.49l4.25,5.6a1.78,1.78,0,0,0,2.49.34l4.09-3.1a1.78,1.78,0,0,0,.34-2.49l-4.25-5.6A1.78,1.78,0,0,0,67,156.34Zm.95,2.37,3.43,4.52-3,2.28L64.9,161Z" transform="translate(0 0)" fill="#231f20"/><path d="M67.11,156.54,63,159.64a1.54,1.54,0,0,0-.29,2.15l4.25,5.6a1.53,1.53,0,0,0,2.15.29l4.09-3.1a1.54,1.54,0,0,0,.29-2.15l-4.25-5.6A1.53,1.53,0,0,0,67.11,156.54Zm.84,1.83,3.73,4.91-3.4,2.58-3.73-4.91Zm4,5.26Z" transform="translate(0 0)" fill="#c38c0f"/><path d="M87.06,110.4c-.57,0-14,.62-21.42,4.63l-.07,0a5.53,5.53,0,0,0-1.89,2.9c-.33,1.54-1,9-1.07,9.49a40.89,40.89,0,0,0-1.14,7.64c0,1.45.34,1.6.53,1.69s.95.28,3.17,0a9,9,0,0,0,2.47-.46l0,0,4.85-3.24,1.83-.76,13.45-.65a.49.49,0,0,0,.32-.14l2.8-2.72c.18-.1.73-.39,1.38-.8a.49.49,0,0,0,.23-.41.42.42,0,0,0,0-.06,26.08,26.08,0,0,0-2.64-7.36c-.12-.81-1.13-7.62-2.34-9.57A.49.49,0,0,0,87.06,110.4Z" transform="translate(0 0)" fill="#231f20"/><path d="M89.36,120.35s-1.06-7.5-2.28-9.46c0,0-13.78.57-21.21,4.57a5.06,5.06,0,0,0-1.71,2.61c-.33,1.55-1.06,9.46-1.06,9.46s-1.8,8.4-.9,8.81,5.14-.41,5.14-.41l4.89-3.26,2-.82,13.54-.65,2.86-2.77s.64-.33,1.4-.81A26.36,26.36,0,0,0,89.36,120.35Z" transform="translate(0 0)" fill="#ecb89d"/><path d="M87.08,110.89s-13.78.57-21.21,4.57a4.68,4.68,0,0,0-.41.37l.33.16s12.57-3.82,21.69-4.25A5.17,5.17,0,0,0,87.08,110.89Z" transform="translate(0 0)" fill="#cc9886"/><path d="M66.07,114.65c-3.54.95-5.39,5.65-5.47,5.84a.49.49,0,0,0,.59.65l.24-.07a4.46,4.46,0,0,0-.46,1.43v0a.51.51,0,0,0,.38.48c.28.08.77.58.77,1.95,0,.12,0,.26,0,.4-.13,2.15-2.55,2.39-2.65,2.39a.5.5,0,0,0-.36.21,15.25,15.25,0,0,0-2.31,8.56,21.13,21.13,0,0,0,.44,4.38.49.49,0,0,0,.26.33.49.49,0,0,0,.42,0l.74-.33c0,.21,0,.42,0,.63,0,9.77,9.45,14.73,9.55,14.78a.49.49,0,0,0,.69-.29l.2-.64A27.38,27.38,0,0,0,82,160.48a.49.49,0,0,0,.47-.26l3-5.64,1.24,1.13a.49.49,0,0,0,.49.1c6.55-2.35,7.68-12.18,7.87-15l.82.36a.49.49,0,0,0,.69-.42c0-.26,0-.53,0-.79a19.84,19.84,0,0,0-2.35-8.58l.84,0a.49.49,0,0,0,.51-.58,6.62,6.62,0,0,0-1.81-3.48c-1-.8-2.48-.11-4.2.69a20.17,20.17,0,0,1-3.17,1.25c-1.92.52-5.44-.34-8.27-1a33.93,33.93,0,0,0-3.62-.77c-2.94-.35-7.49,4.5-8,5a.5.5,0,0,0-.13.33.47.47,0,0,0,.43.47l-.84.36a9.7,9.7,0,0,1-1.06-4.49,13.53,13.53,0,0,1,.75-4.33l.39.25a.49.49,0,0,0,.66-.12c1.36-1.82.48-4.23-.16-6l-.33-1a3.54,3.54,0,0,1,.43-2.68.5.5,0,0,0,0-.56A.49.49,0,0,0,66.07,114.65Z" transform="translate(0 0)" fill="#231f20"/><path d="M61.46,122.55a4.62,4.62,0,0,1,1.06-2.28l-1.47.41s1.79-4.65,5.14-5.55a4,4,0,0,0-.49,3.1c.49,1.63,2,4.57.57,6.53l-.9-.57s-2.45,5.47.33,10.2l3.83-1.63-2.69.16s4.81-5.22,7.59-4.89,9.05,2.61,12.07,1.79,5.71-3,6.93-2A6.19,6.19,0,0,1,95.07,131l-1.71-.08s3,5,2.69,9.87l-1.47-.65s-.33,12.64-7.59,15.25l-1.71-1.55L82,160a27,27,0,0,1-13.21-5.38l-.41,1.3s-10.2-5.22-9.22-15.74l-1.47.65S56,133.4,59.51,128.26c0,0,2.94-.24,3.1-2.85S61.46,122.55,61.46,122.55Z" transform="translate(0 0)" fill="#442d21"/><path d="M95.07,131a6.19,6.19,0,0,0-1.63-3.18c-1.22-1-3.92,1.22-6.93,2s-9.3-1.47-12.07-1.79-7.59,4.89-7.59,4.89l2.69-.16-3.83,1.63c-2.77-4.73-.33-10.2-.33-10.2l.9.57c1.47-2-.08-4.89-.57-6.53a4,4,0,0,1,.49-3.1l-.21.06a3.13,3.13,0,0,0-1.06,3.68,10.11,10.11,0,0,1,.79,4.34l-.89-.73c-3.66,5.39-.37,12.82-.37,12.82s2.93,7.84,5.86,10.61L71,145s4.81,3.76,9,4.81l3.09-2.56,4.24,1.67a9.2,9.2,0,0,0,6.93-6.25c.21-1.53.23-2.56.23-2.56l1.47.65c.33-4.89-2.69-9.87-2.69-9.87Z" transform="translate(0 0)" fill="#4e3529"/><path d="M60.64,124.12c-.92-.63-1.5.47-1.5.47a1.06,1.06,0,0,1,1.25-.37,2.78,2.78,0,0,0-.94,1.24,1,1,0,0,0,.23,1c-.43-1.09.65-2,.91-2.14.7.51.68.9.68.9S61.52,124.74,60.64,124.12Z" transform="translate(0 0)" fill="#231f20"/><path d="M89.14,130.65s.82,1.05.68,1.69c-.08.38-1.12.63-1.94.73v0l-.86-.74s-.85,2.37-2,2.57-1.71-1.09-1.71-1.09-.78,1.79-1.87,2.14-2.14-1.44-2.14-1.44a1.14,1.14,0,0,1-.43.86c-.31.23-1.87-.22-2.7-.49a12.59,12.59,0,0,1-2.93-1.54,1.79,1.79,0,0,1,.89-.89s-2.22-.55-1.44,2.53a6.3,6.3,0,0,1,.44-1.42,11.35,11.35,0,0,0,2.52,1.37c-.13,9,6,7.2,9.61,6.54s3.62-1.71,3-3.39a16.08,16.08,0,0,1-.4-4.72c.66-.08,2.06-.31,2.19-.93S89.14,130.65,89.14,130.65Z" transform="translate(0 0)" fill="#231f20"/><path d="M73.5,114.25a.49.49,0,0,0-.44.49.56.56,0,0,0,0,.09l0,.17a4.07,4.07,0,0,0-2.53.09c-2.46.78-2.46,3.68-2.46,3.81a.49.49,0,0,0,.49.48l10.39.11a.49.49,0,0,0,.49-.57C78.67,114.07,73.55,114.24,73.5,114.25Z" transform="translate(0 0)" fill="#231f20"/><path d="M79,119l-10.39-.11s0-2.65,2.11-3.33,3.06.39,3.06.39l-.24-1.22S78.26,114.56,79,119Z" transform="translate(0 0)" fill="#442d21"/><path d="M87,112.19a.48.48,0,0,0-.75-.24,4.25,4.25,0,0,0-1.5,5.48c.28.63.46.91.85.83a.52.52,0,0,0,.16-.07l5-3.29a.49.49,0,0,0,.21-.53c-.54-2.22-1.74-2.69-2.65-2.69A2.17,2.17,0,0,0,87,112.19Z" transform="translate(0 0)" fill="#231f20"/><path d="M90.58,114.48l-5,3.29a3.87,3.87,0,0,1,1.05-5.43l.21.84a2.1,2.1,0,0,1,1.61-1C89.43,112.17,90.2,112.9,90.58,114.48Z" transform="translate(0 0)" fill="#442d21"/><circle cx="74.92" cy="122.87" r="3.27"/><ellipse cx="75" cy="122.76" rx="2.94" ry="2.92" fill="#c9ebfc"/><path d="M74.55,120.74a2.93,2.93,0,0,1,2.94,2.92,2.9,2.9,0,0,1-.12.82,2.89,2.89,0,0,0,.57-1.71,2.95,2.95,0,0,0-5.76-.82A3,3,0,0,1,74.55,120.74Z" transform="translate(0 0)" fill="#fff"/><circle cx="88" cy="120.76" r="3.07"/><ellipse cx="88.07" cy="120.66" rx="2.77" ry="2.74" fill="#c9ebfc"/><path d="M87.66,118.75a2.76,2.76,0,0,1,2.77,2.74,2.69,2.69,0,0,1-.11.77,2.7,2.7,0,0,0,.53-1.61,2.77,2.77,0,0,0-5.42-.77A2.77,2.77,0,0,1,87.66,118.75Z" transform="translate(0 0)" fill="#fff"/><path d="M59.78,118.18s10.21-7,31-7.75C90.8,110.43,72,108.44,59.78,118.18Z" transform="translate(0 0)" fill="#231f20"/><path d="M81,103.86c-.24-.78-1.59-.41-1.59-.41l-2-1h0A4,4,0,0,0,77,100l1.46-1.6s1.39-.15,1.32-1-1.33-.72-1.33-.72c.12-.87-.77-1.43-1.58-.74s.46,1.47.46,1.47L76,99a2.92,2.92,0,0,0-2.06-.36,2.58,2.58,0,0,0-2,1.21L70.32,99s0-2.23-1.12-1.75-.35,1.28-.35,1.28-1.37.32-1,1,.8.65,1.48.19l2.25,1.2a7.53,7.53,0,0,0,0,1.57,1.7,1.7,0,0,0,.45,1.09l-1.59,1.89c-.8-.18-1.18-.08-1.3.72s1.27.59,1.27.59-.45,1,.8,1.06.4-2,.4-2l1.58-1.74a1.94,1.94,0,0,0,.3,0s0,.94.37,1a1.06,1.06,0,0,0,.69-.06s.92.2,1.28-.16a.65.65,0,0,0,.64-.06c.26-.23.15-1.2.14-1.23l2.07,1.1s-.88,1.19.12,1.54,1.63-.51,1.19-1.27C80,105,81.22,104.64,81,103.86Zm-8.25-1.29c-.78-.64-.62-1.34.05-1.54s1.19-.05,1.39,1C74.18,102,73.52,103.2,72.74,102.56Zm3,.93c-.15.15-.63,0-.63,0s-1,.62-.81.11c0,0,.16-1,.65-1.06S75.88,103.34,75.74,103.49Zm.72-1.17s-1.37,0-1.2-1,.86-1.2,1.37-.72S77.25,101.64,76.45,102.32Z" transform="translate(0 0)" fill="#fff"/><path d="M111.41,143.84h0c-.66.58-.09,1.79.55,3l.06.11a1.4,1.4,0,0,0,.86.77,1.78,1.78,0,0,0,1.38-.42,1.57,1.57,0,0,0,.72-1,.91.91,0,0,0,0-.16,1,1,0,0,0-.14-.51c-.79-1.39-1.49-2.09-2.19-2.21A1.49,1.49,0,0,0,111.41,143.84Z" transform="translate(0 0)" fill="#231f20"/><path d="M114.43,145.85s.35.46-.45,1-1.2.43-1.52-.17-1.17-2.11-.72-2.5S112.93,143.23,114.43,145.85Z" transform="translate(0 0)" fill="#cc9886"/><path d="M112.09,144.73h0a1.52,1.52,0,0,1,1.19-.45c-.77-.71-1.23-.34-1.54-.06s-.12.66.07,1.16A.88.88,0,0,1,112.09,144.73Z" transform="translate(0 0)" fill="#ecb89d"/><path d="M113.06,142.73a1,1,0,0,0-.34.81,5.14,5.14,0,0,0,1.33,2.63,1.26,1.26,0,0,0,.9.45,1.83,1.83,0,0,0,1.34-.53,1.3,1.3,0,0,0,.5-1.44l-.07-.12c-1.09-1.51-1.82-2.15-2.53-2.22A1.43,1.43,0,0,0,113.06,142.73Z" transform="translate(0 0)" fill="#231f20"/><path d="M116.33,144.81s.2.39-.37.91-1.21.52-1.53.13-1.7-2.16-1-2.76S114.74,142.61,116.33,144.81Z" transform="translate(0 0)" fill="#cc9886"/><path d="M113.74,143.62a1.43,1.43,0,0,1,1.14-.43h.06c-.68-.57-1.12-.49-1.55-.1s-.19.72,0,1.2A1,1,0,0,1,113.74,143.62Z" transform="translate(0 0)" fill="#ecb89d"/><path d="M115.35,141.13a1.76,1.76,0,0,0-1,1.23.84.84,0,0,0,0,.15c0,.8,1.12,2,1.82,2.69a1,1,0,0,0,.93.26,3.32,3.32,0,0,0,1.8-1.82c.22-.71-.65-1.43-2.22-2.42A1.37,1.37,0,0,0,115.35,141.13Z" transform="translate(0 0)" fill="#231f20"/><path d="M116.47,144.84s-1.79-1.74-1.66-2.39a1.11,1.11,0,0,1,1.56-.82c.63.4,2.16,1.38,2,1.86S117.06,145.46,116.47,144.84Z" transform="translate(0 0)" fill="#cc9886"/><path d="M116,142a1.43,1.43,0,0,1,.78-.1l-.44-.28a1.11,1.11,0,0,0-1.56.82,1.1,1.1,0,0,0,.23.68A1.77,1.77,0,0,1,116,142Z" transform="translate(0 0)" fill="#ecb89d"/><path d="M114.7,142.09c-2.64,1-2.85-.46-2.85-.46,1,1.09,3.31-.14,3.31-.14Z" transform="translate(0 0)" fill="#231f20"/><path d="M80.31,117.91l3.62-.91A5.49,5.49,0,0,0,80.31,117.91Z" transform="translate(0 0)" fill="#231f20"/><path d="M80.89,116.23l1.62-.32S81.34,115.39,80.89,116.23Z" transform="translate(0 0)" fill="#231f20"/><polygon points="95.6 181.6 95.19 179.22 96.11 181.69 95.6 181.6" fill="#231f20"/><polygon points="95.42 176.52 96.26 178.93 95.93 176.28 95.42 176.52" fill="#231f20"/><polygon points="96.73 181.66 96.76 180.86 97.09 181.63 96.73 181.66" fill="#231f20"/><path d="M82,174.75H79.77s.23.47,2.46.47Z" transform="translate(0 0)" fill="#231f20"/><path d="M90.23,174.26l1.66-.25a2.74,2.74,0,0,1-2,.79Z" transform="translate(0 0)" fill="#231f20"/><path d="M85.75,171.88a23.37,23.37,0,0,1,.26,3h.25a23.68,23.68,0,0,0-.26-3Z" transform="translate(0 0)" fill="#231f20"/><path d="M87.93,171.88a23.59,23.59,0,0,1,.26,3h.24a23.44,23.44,0,0,0-.26-3Z" transform="translate(0 0)" fill="#231f20"/><path d="M88.73,164.73h0l-5.29.49a1.4,1.4,0,0,0-1.27,1.39s0,.09,0,.13l.46,4.93a1.4,1.4,0,0,0,1.52,1.26l5.27-.49a1.4,1.4,0,0,0,1.26-1.52L90.23,166A1.4,1.4,0,0,0,88.73,164.73Zm-.41,2c0,.42.33,3.51.35,3.8l-4.14.38-.35-3.8Z" transform="translate(0 0)" fill="#231f20"/><path d="M88.73,165l-5.27.49a1.15,1.15,0,0,0-1,1.25l.46,4.93a1.15,1.15,0,0,0,1.25,1l5.27-.49a1.15,1.15,0,0,0,1-1.25h0L90,166A1.15,1.15,0,0,0,88.73,165Zm-.19,1.5.4,4.29-4.63.43c-.08-.89-.32-3.41-.4-4.29Z" transform="translate(0 0)" fill="#c38c0f"/><circle cx="93.01" cy="168.22" r="0.71"/><circle cx="97.05" cy="167.56" r="0.71"/><circle cx="79.88" cy="169.17" r="0.71"/><circle cx="75.55" cy="169.29" r="0.71"/><circle cx="62.06" cy="166.26" r="0.71"/><path d="M83.46,119.6a.49.49,0,0,0-.31.25l-4.08,8.3a.49.49,0,0,0,.07.54c.15.17,3.77,4.23,7.83,2.81a2.1,2.1,0,0,0,1.43-1.87c.37-3.3-4.31-9.82-4.54-10A.49.49,0,0,0,83.46,119.6Z" transform="translate(0 0)" fill="#231f20"/><path d="M83.11,118.9S90.59,129.7,86.8,131s-7.73-3.11-7.73-3.11Z" transform="translate(0 0)" fill="#ecb89d"/><path d="M86.8,131c1-.35,1.21-1.33,1-2.58-2.17,3.87-8.74-.52-8.74-.52S83,132.37,86.8,131Z" transform="translate(0 0)" fill="#cc9886"/><path d="M155.39,173.82" transform="translate(0 0)" fill="#361900"/><path d="M171.75,180.17c5.35-6.86,6-11.38,10.47-10.42s15.15-5.21,15.15-5.21l3,4.18,2.45,7.64,5.4,2.74,5.52,2.71,1.9,3.64H155.49l6.1-3.15S169.37,183.23,171.75,180.17Z" transform="translate(0 0)" fill="#4d2c09"/><path d="M198,173.47l-1.73-4.76s-3.53.94-6.22,1.38-5.09,4.1-6,6.83-7.42,6.92-11.09,6.54a10,10,0,0,0-6.57,2h49.22l-1.9-3.64-5.52-2.71-5.4-2.74Z" transform="translate(0 0)" fill="#88592d"/><path d="M174,167.36c-3.34-4.29-10.87,1.39-13.69,2s-7.77-3.81-7.77-3.81l-4.48,1.26L123,162.41l-15.14-1.86-4.37,15,12.35-.52,7.58-2.39,35.07,1.64,9.76,1.18S175.5,169.27,174,167.36Z" transform="translate(0 0)" fill="#361900"/><polygon points="55.83 169.38 55.83 159.19 50.88 164.09 43.87 174.8 53.42 177.6 63.54 177.18 55.83 169.38" fill="#361900"/><circle cx="74.11" cy="122.98" r="0.54"/><circle cx="87.24" cy="120.86" r="0.51"/><path d="M87.7,138.15a3.45,3.45,0,0,0-2.82-.81,1.65,1.65,0,0,0-1.3,1.54s-.25-1-2.42-.6c-1.43.25-2,1.75-2.3,2.75,1.6.73,3.69.32,5.43,0l.69-.14c1.59-.3,2.47-.69,2.77-1.22a1.09,1.09,0,0,0,.13-.55A3.33,3.33,0,0,0,87.7,138.15Z" transform="translate(0 0)" fill="#f69789"/></svg>