<svg id="Layer_1" data-name="Layer 1" xmlns="http://www.w3.org/2000/svg" viewBox="0 0 253 253"><title>ascent</title><rect width="253" height="253" fill="#fff"/><path d="M53.6,168.11H39.94l-2.3,4.64H30.26l12.82-24.51h7.38l12.82,24.51H55.91Zm-11.29-4.78h9l-4.46-9Z" transform="translate(0 0)" fill="#002d56"/><path d="M89.15,155.15q-.7-.34-1.84-.77a27,27,0,0,0-2.59-.81,29.53,29.53,0,0,0-3.14-.64,23.24,23.24,0,0,0-3.48-.26c-1,0-1.76,0-2.43.09A15.27,15.27,0,0,0,74,153a5.07,5.07,0,0,0-1.09.33,2.49,2.49,0,0,0-.61.38.93.93,0,0,0-.28.39,1.2,1.2,0,0,0-.06.36,1.16,1.16,0,0,0,.54.94,5.19,5.19,0,0,0,1.46.72,22.18,22.18,0,0,0,2.16.59l2.61.57q1.38.3,2.85.64t2.85.81A20.49,20.49,0,0,1,87,159.79a9.87,9.87,0,0,1,2.16,1.44,6.2,6.2,0,0,1,1.46,1.89,5.39,5.39,0,0,1,.53,2.44,6.79,6.79,0,0,1-.62,3,6.54,6.54,0,0,1-1.67,2.14,8.4,8.4,0,0,1-2.42,1.4,16.8,16.8,0,0,1-2.88.81,23.39,23.39,0,0,1-3,.38q-1.54.09-2.93.09a35.5,35.5,0,0,1-6.73-.6,33.82,33.82,0,0,1-5.47-1.49v-5.85A22.49,22.49,0,0,0,71,167.6a28.1,28.1,0,0,0,6.7.77,21.66,21.66,0,0,0,3.43-.22,8.43,8.43,0,0,0,2.08-.57,2.39,2.39,0,0,0,1-.76,1.45,1.45,0,0,0,.27-.79,1.3,1.3,0,0,0-.54-1,5,5,0,0,0-1.46-.77,19,19,0,0,0-2.16-.61q-1.23-.28-2.61-.55l-2.84-.6q-1.46-.32-2.84-.76a21,21,0,0,1-2.61-1,9.49,9.49,0,0,1-2.16-1.37,6,6,0,0,1-1.46-1.84,5.23,5.23,0,0,1-.53-2.42,6.36,6.36,0,0,1,.57-2.8,6.11,6.11,0,0,1,1.54-2,8.11,8.11,0,0,1,2.25-1.34,15.07,15.07,0,0,1,2.68-.8,23.53,23.53,0,0,1,2.85-.39q1.44-.11,2.75-.11t2.93.14q1.51.14,3,.4t2.83.6q1.37.34,2.52.71Z" transform="translate(0 0)" fill="#002d56"/><path d="M121.13,172q-1.3.43-2.69.74a25.23,25.23,0,0,1-2.93.47,32.32,32.32,0,0,1-3.31.16,27.82,27.82,0,0,1-6.89-.8,16.14,16.14,0,0,1-5.42-2.41,11.34,11.34,0,0,1-3.54-4,13.22,13.22,0,0,1,0-11.29,11.32,11.32,0,0,1,3.54-4,16.14,16.14,0,0,1,5.42-2.42,27.82,27.82,0,0,1,6.89-.8,32.61,32.61,0,0,1,3.31.16,25.79,25.79,0,0,1,2.93.47q1.39.31,2.69.74t2.59,1v6q-1-.55-2.14-1.1a19.39,19.39,0,0,0-2.48-1,21.65,21.65,0,0,0-3-.71,21.9,21.9,0,0,0-3.65-.28,17.75,17.75,0,0,0-5.18.64A9.06,9.06,0,0,0,104,155.2a5.88,5.88,0,0,0-1.73,2.45,8.37,8.37,0,0,0-.5,2.86,8.81,8.81,0,0,0,.21,1.94,6.14,6.14,0,0,0,.71,1.8,6.55,6.55,0,0,0,1.3,1.56,7.41,7.41,0,0,0,2,1.23,13.08,13.08,0,0,0,2.79.81,20.41,20.41,0,0,0,3.68.3,23.55,23.55,0,0,0,3.65-.26,20.79,20.79,0,0,0,3-.69,18.23,18.23,0,0,0,2.48-1q1.12-.54,2.14-1.11v6Q122.43,171.61,121.13,172Z" transform="translate(0 0)" fill="#002d56"/><path d="M129.89,172.75V148.24H154.7v5.23h-18v4h17.09v5.23H136.68v4.78h18.26v5.23Z" transform="translate(0 0)" fill="#002d56"/><path d="M183.75,172.75l-16.53-16.84v16.84H160.6V148.24h7.19l16.55,16.91V148.24h6.58v24.51Z" transform="translate(0 0)" fill="#002d56"/><path d="M212.33,153.58v19.17h-6.62V153.58h-10.4v-5.33h27.43v5.33Z" transform="translate(0 0)" fill="#002d56"/><path d="M69.32,188.6q-.38.13-.78.22a7.31,7.31,0,0,1-.85.14,9.29,9.29,0,0,1-1,0,8.06,8.06,0,0,1-2-.23,4.7,4.7,0,0,1-1.57-.7,3.32,3.32,0,0,1-1-1.17,3.83,3.83,0,0,1,0-3.27,3.31,3.31,0,0,1,1-1.17,4.72,4.72,0,0,1,1.57-.7,8.1,8.1,0,0,1,2-.23,9.5,9.5,0,0,1,1,0,7.91,7.91,0,0,1,.85.14c.27.06.53.13.78.22s.5.18.75.28v1.73l-.62-.32a5.72,5.72,0,0,0-.72-.29,6.46,6.46,0,0,0-.86-.21,6.31,6.31,0,0,0-1.06-.08,5.11,5.11,0,0,0-1.5.19,2.64,2.64,0,0,0-1,.5,1.71,1.71,0,0,0-.5.71,2.42,2.42,0,0,0-.15.83,2.6,2.6,0,0,0,.06.56,1.83,1.83,0,0,0,.21.52,1.92,1.92,0,0,0,.38.45,2.21,2.21,0,0,0,.58.36,3.88,3.88,0,0,0,.81.23,6,6,0,0,0,1.07.08,6.82,6.82,0,0,0,1.06-.08,6,6,0,0,0,.86-.2,5.24,5.24,0,0,0,.72-.28l.62-.32v1.73C69.82,188.43,69.57,188.52,69.32,188.6Z" transform="translate(0 0)" fill="#002d56"/><path d="M85.3,185.26a3.69,3.69,0,0,1-.34,1.62,3.15,3.15,0,0,1-1,1.17,4.41,4.41,0,0,1-1.52.71,8.44,8.44,0,0,1-4,0,4.45,4.45,0,0,1-1.53-.71,3.18,3.18,0,0,1-1-1.17,4,4,0,0,1,0-3.23,3.19,3.19,0,0,1,1-1.17,4.48,4.48,0,0,1,1.53-.71,8.44,8.44,0,0,1,4,0,4.44,4.44,0,0,1,1.52.71,3.16,3.16,0,0,1,1,1.17A3.68,3.68,0,0,1,85.3,185.26Zm-1.94,0a2.6,2.6,0,0,0-.13-.79,1.7,1.7,0,0,0-.45-.71,2.34,2.34,0,0,0-.88-.51,4.34,4.34,0,0,0-1.42-.2,5.08,5.08,0,0,0-1,.09,3.11,3.11,0,0,0-.76.25,2.08,2.08,0,0,0-.54.38,1.87,1.87,0,0,0-.35.46,1.89,1.89,0,0,0-.18.51,2.59,2.59,0,0,0,0,1.06,1.88,1.88,0,0,0,.18.51,1.84,1.84,0,0,0,.35.46,2.06,2.06,0,0,0,.54.37,3.15,3.15,0,0,0,.76.25,5,5,0,0,0,1,.09,4.36,4.36,0,0,0,1.42-.2,2.37,2.37,0,0,0,.88-.51,1.7,1.7,0,0,0,.45-.71A2.6,2.6,0,0,0,83.36,185.26Z" transform="translate(0 0)" fill="#002d56"/><path d="M98,188.81l-4.79-4.88v4.88H91.28V181.7h2.09l4.8,4.91V181.7h1.91v7.11Z" transform="translate(0 0)" fill="#002d56"/><path d="M113.09,183.7l-.53-.22a7.72,7.72,0,0,0-.75-.23,9.26,9.26,0,0,0-.91-.19,7,7,0,0,0-1-.07c-.28,0-.51,0-.71,0a4.18,4.18,0,0,0-.49.07,1.48,1.48,0,0,0-.31.1.64.64,0,0,0-.18.11.25.25,0,0,0-.08.11.36.36,0,0,0,0,.11.33.33,0,0,0,.15.27,1.45,1.45,0,0,0,.42.21,5.79,5.79,0,0,0,.63.17l.76.17.83.19q.43.1.83.24a6,6,0,0,1,.76.31,2.89,2.89,0,0,1,.63.42,1.79,1.79,0,0,1,.42.55,1.58,1.58,0,0,1,.15.71,2,2,0,0,1-.18.88,1.92,1.92,0,0,1-.48.62,2.49,2.49,0,0,1-.7.41,4.89,4.89,0,0,1-.84.23,6.9,6.9,0,0,1-.88.11l-.85,0a10.28,10.28,0,0,1-2-.17,9.88,9.88,0,0,1-1.59-.43v-1.7a6.53,6.53,0,0,0,1.62.62,8.16,8.16,0,0,0,1.94.22,6.15,6.15,0,0,0,1-.06,2.46,2.46,0,0,0,.6-.17.68.68,0,0,0,.29-.22.41.41,0,0,0,.08-.23.38.38,0,0,0-.15-.3,1.45,1.45,0,0,0-.42-.22,5.69,5.69,0,0,0-.63-.18l-.76-.16-.82-.17q-.42-.09-.83-.22a6.07,6.07,0,0,1-.76-.3,2.78,2.78,0,0,1-.63-.4,1.72,1.72,0,0,1-.42-.53,1.49,1.49,0,0,1-.16-.7,1.84,1.84,0,0,1,.16-.81,1.75,1.75,0,0,1,.45-.58,2.35,2.35,0,0,1,.65-.39,4.23,4.23,0,0,1,.78-.23,6.78,6.78,0,0,1,.83-.12c.28,0,.54,0,.8,0s.56,0,.85,0,.58.07.86.12l.82.17.73.21Z" transform="translate(0 0)" fill="#002d56"/><path d="M127.86,187.42a2.4,2.4,0,0,1-.79.82,4.39,4.39,0,0,1-1.32.56,8.48,8.48,0,0,1-3.69,0,4.37,4.37,0,0,1-1.32-.56,2.42,2.42,0,0,1-.79-.82,2,2,0,0,1-.26-1V181.7h1.91v4a2.46,2.46,0,0,0,.09.68,1.21,1.21,0,0,0,.34.56,1.77,1.77,0,0,0,.7.38,4.1,4.1,0,0,0,1.18.14,4.06,4.06,0,0,0,1.17-.14,1.78,1.78,0,0,0,.7-.38,1.19,1.19,0,0,0,.34-.56,2.58,2.58,0,0,0,.09-.68v-4h1.92v4.71A2,2,0,0,1,127.86,187.42Z" transform="translate(0 0)" fill="#002d56"/><path d="M134.54,188.81V181.7h1.92v5.55h5.19v1.56Z" transform="translate(0 0)" fill="#002d56"/><path d="M150.73,183.25v5.56h-1.92v-5.56h-3V181.7h8v1.55Z" transform="translate(0 0)" fill="#002d56"/><path d="M159.26,188.81V181.7h1.92v7.11Z" transform="translate(0 0)" fill="#002d56"/><path d="M174.35,188.81l-4.8-4.88v4.88h-1.92V181.7h2.09l4.8,4.91V181.7h1.91v7.11Z" transform="translate(0 0)" fill="#002d56"/><path d="M187.48,181.52a10.07,10.07,0,0,1,1.94.18,10.49,10.49,0,0,1,1.65.46v1.74a6.81,6.81,0,0,0-.66-.32,6.44,6.44,0,0,0-.81-.27,7.68,7.68,0,0,0-.93-.19,7.31,7.31,0,0,0-1-.07,6.31,6.31,0,0,0-1.19.1,3.9,3.9,0,0,0-.87.26,2.29,2.29,0,0,0-.6.39,1.94,1.94,0,0,0-.37.47,1.9,1.9,0,0,0-.19.51,2.44,2.44,0,0,0,0,1,1.87,1.87,0,0,0,.51,1,2,2,0,0,0,.56.4,3.54,3.54,0,0,0,.84.28,5.54,5.54,0,0,0,1.17.11l.6,0,.46-.06.39-.09.38-.11v-.86h-2.15V184.8h4.07v3.63a8.33,8.33,0,0,1-.86.24c-.32.07-.64.13-1,.18s-.67.09-1,.12-.66,0-1,0a9.44,9.44,0,0,1-1.34-.09,6.51,6.51,0,0,1-1.2-.29,4.68,4.68,0,0,1-1-.49,3.23,3.23,0,0,1-.78-.71,3.16,3.16,0,0,1-.5-.95,3.79,3.79,0,0,1-.18-1.2,3.66,3.66,0,0,1,.19-1.2,3.13,3.13,0,0,1,.52-1,3.33,3.33,0,0,1,.8-.71,4.9,4.9,0,0,1,1-.49,6.74,6.74,0,0,1,1.2-.29A9.24,9.24,0,0,1,187.48,181.52Z" transform="translate(0 0)" fill="#002d56"/><polygon points="140.13 64 135 64 137.57 77.25 140.13 64" fill="#8dc63f"/><polygon points="118.35 80.65 118.35 85.79 131.6 83.22 118.35 80.65" fill="#8dc63f"/><polygon points="156.79 85.78 156.79 80.65 143.54 83.22 156.79 85.78" fill="#8dc63f"/><polygon points="132.17 79.99 121.9 71.24 119.37 75.71 132.17 79.99" fill="#8dc63f"/><polygon points="142.97 86.45 153.25 95.2 155.77 90.73 142.97 86.45" fill="#8dc63f"/><polygon points="149.55 67.55 145.08 65.02 140.8 77.82 149.55 67.55" fill="#8dc63f"/><polygon points="125.55 67.59 134.32 77.86 130.02 65.06 125.55 67.59" fill="#8dc63f"/><polygon points="121.94 95.24 132.21 86.47 119.41 90.77 121.94 95.24" fill="#8dc63f"/><polygon points="153.2 71.2 142.93 79.97 155.73 75.67 153.2 71.2" fill="#8dc63f"/><path d="M216.11,134.38l-1.62-1.11-4.91-4.37-7.17-3.42-4.32-5.77-13.77-5.92-.12-.05-4.64-1-2.4-4.58-9.86-4.83-5.85.12-6.79-3.22-6.71-5L136.34,93l-8,1.55-5,4.1-5.67.65-8.52-2.71L97.45,100.2h-4l-4.38,4.38H85.39L74.62,113l-11.83,7.48a19.13,19.13,0,0,1-6.68,1.91c-.38.12-2.2.54-12.58,7.71l-14.68,9.15H224.14Z" transform="translate(0 0)" fill="#002d56"/><polygon points="137.12 99.95 144.26 113.67 143.48 112.66 151.63 117.06 151.89 117.2 152.52 118.01 168.9 139.62 156.48 141.76 147.35 121.34 148.24 122.3 141.22 116.16 140.53 115.57 140.44 115.15 137.12 99.95" fill="#fff"/></svg>