<svg id="Layer_1" data-name="Layer 1" xmlns="http://www.w3.org/2000/svg" viewBox="0 0 253 253"><title>attorneys</title><rect width="253" height="253" fill="#fff"/><path d="M89.18,133.19v-1.28h0a3.46,3.46,0,0,1-3,1.51,4.32,4.32,0,0,1-4.23-4.62,4.39,4.39,0,0,1,4.3-4.59,3.48,3.48,0,0,1,3,1.43h0v-1.19h2v8.73Zm-2.67-7.28a2.73,2.73,0,0,0-2.73,2.9,2.8,2.8,0,0,0,2.76,2.92,2.92,2.92,0,0,0,0-5.83Z" transform="translate(0 0)" fill="#e86d1f"/><path d="M95.58,126.18v7h-2v-7h-1v-1.72h1v-2.85h2v2.85h1.65v1.72Z" transform="translate(0 0)" fill="#e86d1f"/><path d="M101,126.18v7H99v-7H98v-1.72h1v-2.85h2v2.85h1.65v1.72Z" transform="translate(0 0)" fill="#e86d1f"/><path d="M107.87,133.42a4.61,4.61,0,1,1,4.76-4.59A4.51,4.51,0,0,1,107.87,133.42Zm.05-7.51a2.82,2.82,0,0,0-2.87,2.92,2.84,2.84,0,1,0,2.87-2.92Z" transform="translate(0 0)" fill="#e86d1f"/><path d="M117.95,126.11c-1.29,0-1.84,1-1.84,3v4.05h-2v-8.73h2v1.29h0a2.49,2.49,0,0,1,2.37-1.47,2.61,2.61,0,0,1,.74.12l-.18,2A2.67,2.67,0,0,0,117.95,126.11Z" transform="translate(0 0)" fill="#e86d1f"/><path d="M126.16,133.19v-4.92c0-1.22-.19-2.43-1.74-2.43s-2.05,1.22-2.05,2.73v4.62h-2v-8.73h2v1.19h0a3.11,3.11,0,0,1,2.8-1.43c1.91,0,3,1.26,3,3.44v5.54Z" transform="translate(0 0)" fill="#e86d1f"/><path d="M131.54,129.21a2.62,2.62,0,0,0,2.73,2.67,2.76,2.76,0,0,0,2.44-1.38l1.77.18a4.67,4.67,0,0,1-8.92-1.82,4.44,4.44,0,0,1,4.57-4.64c2.85,0,4.53,1.91,4.5,5Zm2.62-3.51a2.55,2.55,0,0,0-2.6,2.27h5.12A2.44,2.44,0,0,0,134.16,125.7Z" transform="translate(0 0)" fill="#e86d1f"/><path d="M142.25,137.9h-2.09l2.43-5.22-4.12-8.22h2.28l2.9,6.16h0l2.69-6.16h2.16Z" transform="translate(0 0)" fill="#e86d1f"/><path d="M151.8,133.42a4.27,4.27,0,0,1-3.44-1.61l1-1.2a3.19,3.19,0,0,0,2.41,1.27,1.27,1.27,0,0,0,1.42-1.2c0-1.66-4.14-1.1-4.14-3.86,0-1.56,1.31-2.6,3.06-2.6a3.72,3.72,0,0,1,2.66,1l-.85,1.29a2.55,2.55,0,0,0-1.66-.76c-.78,0-1.28.46-1.28,1,0,1.38,4.14.92,4.14,3.72A3,3,0,0,1,151.8,133.42Z" transform="translate(0 0)" fill="#e86d1f"/><path d="M160.81,122.61a.88.88,0,1,1,0-1.75.88.88,0,0,1,0,1.75Zm-.74,10.59v-8.57h1.43v8.57Z" transform="translate(0 0)" fill="#1d3644"/><path d="M169.22,133.19V128c0-1.4-.35-2.44-1.88-2.44s-2.25,1.31-2.25,3v4.6h-1.43v-8.57h1.43v1.2h0a2.93,2.93,0,0,1,2.67-1.42c1.81,0,2.83,1.15,2.83,3.26v5.52Z" transform="translate(0 0)" fill="#1d3644"/><path d="M186.26,133.19v-5.31c0-1.63-.55-2.3-1.77-2.3s-1.93,1-1.93,2.69v4.92h-1.42v-5c0-1.75-.44-2.59-1.79-2.59s-1.89,1-1.89,3v4.62H176v-8.57h1.42v1.08h0a2.48,2.48,0,0,1,2.28-1.29,2.66,2.66,0,0,1,2.53,1.58,2.73,2.73,0,0,1,2.6-1.58c1.88,0,2.76,1.17,2.76,3.15v5.63Z" transform="translate(0 0)" fill="#1d3644"/><path d="M193.72,133.41a4.5,4.5,0,1,1,4.55-4.5A4.34,4.34,0,0,1,193.72,133.41Zm.05-7.79a3.17,3.17,0,0,0-3.22,3.29,3.19,3.19,0,1,0,3.22-3.29Z" transform="translate(0 0)" fill="#1d3644"/><path d="M201.5,125.88v7.31h-1.43v-7.31h-1v-1.26h1V121.7h1.43v2.92h1.56v1.26Z" transform="translate(0 0)" fill="#1d3644"/><path d="M205,122.61a.88.88,0,1,1,0-1.75.88.88,0,0,1,0,1.75Zm-.74,10.59v-8.57h1.43v8.57Z" transform="translate(0 0)" fill="#1d3644"/><path d="M211.84,133.41a4.5,4.5,0,1,1,4.55-4.5A4.34,4.34,0,0,1,211.84,133.41Zm.05-7.79a3.17,3.17,0,0,0-3.22,3.29,3.19,3.19,0,1,0,3.22-3.29Z" transform="translate(0 0)" fill="#1d3644"/><path d="M223.5,133.19V128c0-1.4-.35-2.44-1.88-2.44s-2.25,1.31-2.25,3v4.6h-1.43v-8.57h1.43v1.2h0a2.93,2.93,0,0,1,2.67-1.42c1.81,0,2.83,1.15,2.83,3.26v5.52Z" transform="translate(0 0)" fill="#1d3644"/><path d="M49.38,154.54a26.19,26.19,0,1,1,26.19-26.19A26.22,26.22,0,0,1,49.38,154.54Zm0-49.84A23.65,23.65,0,1,0,73,128.36,23.68,23.68,0,0,0,49.38,104.7Z" transform="translate(0 0)" fill="#1d3644"/><path d="M56.25,114.86a9.48,9.48,0,0,0-6.51,2.59,9.49,9.49,0,0,1,2.91,6.83v.06a3.6,3.6,0,0,1,7.21,0v15.51h5.91V124.37A9.53,9.53,0,0,0,56.25,114.86Z" transform="translate(0 0)" fill="#1d3644"/><path d="M49.74,117.45a9.48,9.48,0,0,0-3,6.86v15.47h5.91v-15.4s0,0,0,0v-.06A9.49,9.49,0,0,0,49.74,117.45Z" transform="translate(0 0)" fill="#c25c28"/><path d="M49.74,117.45a9.51,9.51,0,0,0-16.13,6.83V127a5.87,5.87,0,0,0,4.71-.4,7.08,7.08,0,0,1,1.21-.45v-1.87a3.61,3.61,0,0,1,7.21,0v0A9.48,9.48,0,0,1,49.74,117.45Z" transform="translate(0 0)" fill="#e86d1f"/><path d="M33.62,134.07v5.61h5.91v-6.47a7.1,7.1,0,0,0-1.21.45A5.87,5.87,0,0,1,33.62,134.07Z" transform="translate(0 0)" fill="#e86d1f"/><path d="M38.32,127.93c-3.38,1.62-5.91.21-6.62-1.2v4.36c.7,1.41,3.24,2.82,6.62,1.2a6.94,6.94,0,0,1,6.41.21v-4.36A7,7,0,0,0,38.32,127.93Z" transform="translate(0 0)" fill="#e86d1f"/></svg>