<svg xmlns="http://www.w3.org/2000/svg" viewBox="0 0 253 253"><title>axecess</title><g style="isolation:isolate"><g id="Layer_1" data-name="Layer 1"><rect width="253" height="253" fill="#fff"/><path d="M129.21,147.94l1-2.41,1,2.41L140,167.65h-2.87l-2.61-5.81h-8.36l-2.45,5.81h-2.88Zm4.12,11.4-3.16-7.1-2.93,7.1Z" transform="translate(0 0)" fill="#00853f"/><path d="M141.87,167.62V150.5h5.78a12.21,12.21,0,0,1,5.54,1,7.94,7.94,0,0,1,3.24,3.09,8.58,8.58,0,0,1,1.2,4.44,8.45,8.45,0,0,1-5.46,7.9,8.56,8.56,0,0,1-1.78.51,23.47,23.47,0,0,1-3.09.13Zm5.52-14.94h-3.07v12.75h3.14a12.65,12.65,0,0,0,2.86-.25,6.72,6.72,0,0,0,1.7-.64,5.71,5.71,0,0,0,1.25-.95,6.36,6.36,0,0,0,1.82-4.65,5.88,5.88,0,0,0-1.87-4.5,6,6,0,0,0-1.58-1.07,6.64,6.64,0,0,0-1.69-.55A17.22,17.22,0,0,0,147.39,152.68Z" transform="translate(0 0)" fill="#00853f"/><path d="M170.3,150.5h2.44l-7.25,17.22h-.55l-7.39-17.22H160l5.16,12Z" transform="translate(0 0)" fill="#00853f"/><path d="M174.65,150.5h2.46v17.15h-2.46Z" transform="translate(0 0)" fill="#00853f"/><path d="M185.16,160.46l-1.87-1.13a8.57,8.57,0,0,1-2.5-2.11,4,4,0,0,1-.74-2.39,4.22,4.22,0,0,1,1.4-3.29,5.26,5.26,0,0,1,3.65-1.26,6.91,6.91,0,0,1,3.94,1.21v2.78a5.68,5.68,0,0,0-4-1.78,3.29,3.29,0,0,0-2,.56,1.69,1.69,0,0,0-.77,1.42,2.2,2.2,0,0,0,.57,1.44,7.19,7.19,0,0,0,1.83,1.41l1.87,1.11q3.14,1.88,3.14,4.77a4.37,4.37,0,0,1-1.38,3.35,5.05,5.05,0,0,1-3.59,1.29,7.55,7.55,0,0,1-4.63-1.56v-3.12a5.78,5.78,0,0,0,4.6,2.52,2.89,2.89,0,0,0,1.92-.64,2,2,0,0,0,.77-1.61Q187.41,161.87,185.16,160.46Z" transform="translate(0 0)" fill="#00853f"/><path d="M200.84,150.25a9.22,9.22,0,0,1,6.62,2.52,8.35,8.35,0,0,1,2.64,6.31,8.21,8.21,0,0,1-2.67,6.28,9.48,9.48,0,0,1-6.73,2.49,9,9,0,0,1-6.46-2.49,8.29,8.29,0,0,1-2.58-6.23,8.48,8.48,0,0,1,2.6-6.36A9.07,9.07,0,0,1,200.84,150.25Zm.1,2.33a6.66,6.66,0,0,0-4.84,1.84,6.28,6.28,0,0,0-1.89,4.7,6.15,6.15,0,0,0,1.9,4.61,7.05,7.05,0,0,0,9.55,0,6.27,6.27,0,0,0,1.92-4.68,6.13,6.13,0,0,0-1.92-4.58A6.52,6.52,0,0,0,200.93,152.59Z" transform="translate(0 0)" fill="#00853f"/><path d="M213.19,167.65V150.5h4.29a6.2,6.2,0,0,1,4.13,1.29,4.32,4.32,0,0,1,1.53,3.49,4.28,4.28,0,0,1-2.9,4.22,7.55,7.55,0,0,1,1.61,1.47,29.4,29.4,0,0,1,2.21,3.25q.89,1.46,1.43,2.2l.91,1.23h-2.92l-.75-1.13-.15-.21-.48-.67-.76-1.25-.82-1.34a13.26,13.26,0,0,0-1.39-1.68,5.36,5.36,0,0,0-1.14-.9,3.9,3.9,0,0,0-1.71-.27h-.64v7.46Zm3.19-15.06h-.74V158h.93a7,7,0,0,0,2.56-.32,2.4,2.4,0,0,0,1.08-1,2.79,2.79,0,0,0,.39-1.47,2.64,2.64,0,0,0-.43-1.47,2.3,2.3,0,0,0-1.21-.93A8.68,8.68,0,0,0,216.38,152.59Z" transform="translate(0 0)" fill="#00853f"/><path d="M232.54,160.46l-1.86-1.13a8.5,8.5,0,0,1-2.5-2.11,4,4,0,0,1-.74-2.39,4.21,4.21,0,0,1,1.41-3.29,5.25,5.25,0,0,1,3.65-1.26,6.92,6.92,0,0,1,3.94,1.21v2.78a5.68,5.68,0,0,0-4-1.78,3.29,3.29,0,0,0-2,.56,1.69,1.69,0,0,0-.77,1.42,2.19,2.19,0,0,0,.57,1.44,7.15,7.15,0,0,0,1.83,1.41l1.88,1.11q3.14,1.88,3.14,4.77a4.37,4.37,0,0,1-1.38,3.35,5,5,0,0,1-3.59,1.29,7.55,7.55,0,0,1-4.63-1.56v-3.12a5.78,5.78,0,0,0,4.6,2.52A2.89,2.89,0,0,0,234,165a2,2,0,0,0,.77-1.61Q234.8,161.87,232.54,160.46Z" transform="translate(0 0)" fill="#00853f"/><path d="M23.94,147.86l.92-2.24,1.05,2.24,8.79,19.71H31.83l-2.61-5.81H20.86l-2.45,5.81H15.53Zm4.12,11.4-3.16-7.1L22,159.26Z" transform="translate(0 0)" fill="#00467f"/><path d="M49,150.42h3l-6.86,8.27,7.34,8.88h-3l-5.84-7.11-5.89,7.11h-3l7.38-8.88-6.85-8.27h3L43.64,157Z" transform="translate(0 0)" fill="#00467f"/><path d="M54.37,150.42h9.72v2.19H56.83v5.23h7V160h-7v5.33h7.5v2.18h-10Z" transform="translate(0 0)" fill="#00467f"/><path d="M83.87,163.08v3a14.46,14.46,0,0,1-7,1.66,10.85,10.85,0,0,1-5.5-1.3,9.6,9.6,0,0,1-3.58-3.59,9.75,9.75,0,0,1-1.32-4.95,9.45,9.45,0,0,1,3-7.11A10.34,10.34,0,0,1,76.89,148a17.43,17.43,0,0,1,6.78,1.59v3A13.35,13.35,0,0,0,77,150.59a7.68,7.68,0,0,0-5.52,2.1,7.41,7.41,0,0,0,0,10.5A7.71,7.71,0,0,0,77,165.24,12.55,12.55,0,0,0,83.87,163.08Z" transform="translate(0 0)" fill="#00467f"/><path d="M87,150.42h9.72v2.19H89.49v5.23h7V160h-7v5.33H97v2.18H87Z" transform="translate(0 0)" fill="#00467f"/><path d="M103.85,160.38,102,159.25a8.52,8.52,0,0,1-2.5-2.11,4,4,0,0,1-.74-2.39,4.22,4.22,0,0,1,1.4-3.29,5.25,5.25,0,0,1,3.65-1.26,6.91,6.91,0,0,1,3.94,1.21v2.78a5.68,5.68,0,0,0-4-1.78,3.29,3.29,0,0,0-2,.56,1.68,1.68,0,0,0-.77,1.42,2.2,2.2,0,0,0,.57,1.44,7.19,7.19,0,0,0,1.83,1.41l1.87,1.11q3.14,1.88,3.14,4.77a4.37,4.37,0,0,1-1.38,3.35,5,5,0,0,1-3.59,1.29,7.55,7.55,0,0,1-4.63-1.56v-3.12a5.78,5.78,0,0,0,4.6,2.52,2.9,2.9,0,0,0,1.92-.64,2,2,0,0,0,.77-1.61Q106.11,161.79,103.85,160.38Z" transform="translate(0 0)" fill="#00467f"/><path d="M115.37,160.38l-1.87-1.13a8.52,8.52,0,0,1-2.5-2.11,4,4,0,0,1-.74-2.39,4.22,4.22,0,0,1,1.4-3.29,5.25,5.25,0,0,1,3.65-1.26,6.91,6.91,0,0,1,3.94,1.21v2.78a5.68,5.68,0,0,0-4-1.78,3.29,3.29,0,0,0-2,.56,1.68,1.68,0,0,0-.77,1.42,2.2,2.2,0,0,0,.57,1.44,7.19,7.19,0,0,0,1.83,1.41l1.87,1.11q3.14,1.88,3.14,4.77a4.37,4.37,0,0,1-1.38,3.35,5,5,0,0,1-3.59,1.29,7.55,7.55,0,0,1-4.63-1.56v-3.12a5.78,5.78,0,0,0,4.6,2.52,2.9,2.9,0,0,0,1.92-.64,2,2,0,0,0,.77-1.61Q117.63,161.79,115.37,160.38Z" transform="translate(0 0)" fill="#00467f"/><polygon points="71.17 140.57 82.42 140.57 113.48 93.36 113.48 140.57 123.75 140.57 123.78 61.5 71.17 140.57" fill="#00467f"/><path d="M113.56,140.49h10.17c0-.07,0-5.47,0-5.54,0-9.78-3.8-18.85-10.26-26.33v24.31c0,.67.08,1.34.08,2C113.57,135,113.56,140.42,113.56,140.49Z" transform="translate(0 0)" fill="#262324" opacity="0.55" style="mix-blend-mode:multiply"/><path d="M99.86,97.45l-5.6,8.42a45.53,45.53,0,0,1,7.53,5.27l5.58-8.48A56.41,56.41,0,0,0,99.86,97.45Z" transform="translate(0 0)" fill="#262324" opacity="0.55" style="mix-blend-mode:multiply"/><path d="M80.28,105.84c19.26,4.58,33.21,18.31,33.21,34.49,0,.07,0,.14,0,.21h10.25c0-.07,0-.14,0-.21,0-21.94-19.05-40.35-44.55-45.1Z" transform="translate(0 0)" fill="#a1a1a4"/><polygon points="181.7 140.57 170.45 140.57 139.38 93.36 139.38 140.57 129.11 140.57 129.09 61.5 181.7 140.57" fill="#00853f"/><path d="M139.31,140.49H129.13c0-.07,0-5.47,0-5.54,0-9.78,3.8-18.85,10.26-26.33v24.31c0,.67-.08,1.34-.08,2C139.3,135,139.31,140.42,139.31,140.49Z" transform="translate(0 0)" fill="#262324" opacity="0.55" style="mix-blend-mode:multiply"/><path d="M153,97.45l5.61,8.42a45.61,45.61,0,0,0-7.53,5.27l-5.58-8.48A56.51,56.51,0,0,1,153,97.45Z" transform="translate(0 0)" fill="#262324" opacity="0.55" style="mix-blend-mode:multiply"/><path d="M172.58,105.84c-19.26,4.58-33.21,18.31-33.21,34.49,0,.07,0,.14,0,.21H129.13c0-.07,0-.14,0-.21,0-21.94,19.05-40.35,44.55-45.1Z" transform="translate(0 0)" fill="#a1a1a4"/><path d="M18.86,173.91H20.1l3.46,8H21.93l-.75-1.84H17.69L17,182h-1.6Zm1.82,5-1.24-3.27-1.26,3.27Z" transform="translate(0 0)" fill="#5f6062"/><path d="M32.23,175.8A2.28,2.28,0,0,0,30.4,175a2.77,2.77,0,0,0-2.78,2.94,2.7,2.7,0,0,0,2.72,3,2.36,2.36,0,0,0,2-.93l1.15.81a3.8,3.8,0,0,1-3.11,1.41,4.22,4.22,0,1,1,.07-8.45,3.75,3.75,0,0,1,2.92,1.23Z" transform="translate(0 0)" fill="#5f6062"/><path d="M42.27,175.8a2.28,2.28,0,0,0-1.83-.83,2.77,2.77,0,0,0-2.78,2.94,2.7,2.7,0,0,0,2.73,3,2.36,2.36,0,0,0,2-.93l1.15.81a3.8,3.8,0,0,1-3.11,1.41,4.22,4.22,0,1,1,.07-8.45,3.75,3.75,0,0,1,2.92,1.23Z" transform="translate(0 0)" fill="#5f6062"/><path d="M50.42,173.71a4.05,4.05,0,0,1,4.34,4.2,4.32,4.32,0,0,1-8.64,0A4,4,0,0,1,50.42,173.71Zm0,7.16a3,3,0,1,0-2.76-3A2.75,2.75,0,0,0,50.43,180.87Z" transform="translate(0 0)" fill="#5f6062"/><path d="M64.82,179a3.24,3.24,0,0,1-6.47,0v-5.09h1.43v5a1.81,1.81,0,1,0,3.61,0v-5h1.43Z" transform="translate(0 0)" fill="#5f6062"/><path d="M68.8,173.91h1.9l3.73,6h0v-6h1.43v8H74.06l-3.81-6.21h0V182H68.8Z" transform="translate(0 0)" fill="#5f6062"/><path d="M81.55,175.16H79.08v-1.25h6.36v1.25H83V182H81.55Z" transform="translate(0 0)" fill="#5f6062"/><path d="M88.65,173.91h1.43v8H88.65Z" transform="translate(0 0)" fill="#5f6062"/><path d="M94.12,173.91H96l3.74,6h0v-6h1.43v8H99.39l-3.81-6.21h0V182H94.12Z" transform="translate(0 0)" fill="#5f6062"/><path d="M112.29,181.53a6.82,6.82,0,0,1-3,.63,4.23,4.23,0,1,1,0-8.45,4.61,4.61,0,0,1,3.05,1l-1,1.07a2.85,2.85,0,0,0-2.05-.82,3,3,0,0,0,.07,5.9,4.14,4.14,0,0,0,1.6-.28v-2h-1.69v-1.18h3.08Z" transform="translate(0 0)" fill="#5f6062"/><path d="M127,180l1.87,1.92H127l-.89-.92a2.93,2.93,0,0,1-2.41,1.08,2.42,2.42,0,0,1-2.69-2.34,2.52,2.52,0,0,1,1.75-2.28,2.55,2.55,0,0,1-.86-1.8,2,2,0,0,1,2.27-2,2,2,0,0,1,2.23,2,2.42,2.42,0,0,1-1.65,2.13l1.32,1.37.93-1.46h1.56Zm-3.41-1.67a1.41,1.41,0,0,0-1.11,1.35A1.31,1.31,0,0,0,123.8,181a1.74,1.74,0,0,0,1.5-.83Zm-.28-2.66A1.78,1.78,0,0,0,124,177c.62-.26,1.16-.68,1.16-1.28a.94.94,0,0,0-1.87,0Z" transform="translate(0 0)" fill="#5f6062"/><path d="M138.55,175.16h-2.46v-1.25h6.36v1.25H140V182h-1.43Z" transform="translate(0 0)" fill="#5f6062"/><path d="M147.49,173.91h1.24l3.46,8h-1.63l-.75-1.84h-3.49l-.73,1.84H144Zm1.82,5-1.24-3.27-1.26,3.27Z" transform="translate(0 0)" fill="#5f6062"/><path d="M157.2,177.66l-2.5-3.75h1.73l1.66,2.75,1.63-2.75h1.65l-2.45,3.78L161.8,182H160l-2-3.16L156.14,182h-1.73Z" transform="translate(0 0)" fill="#5f6062"/><path d="M174.07,175.59a2,2,0,0,0-1.48-.69c-.66,0-1.42.32-1.42,1.1s.63,1,1.53,1.24,2.35.77,2.35,2.35-1.35,2.57-2.93,2.57a3.66,3.66,0,0,1-2.76-1.15l1-1a2.29,2.29,0,0,0,1.76.88c.67,0,1.45-.33,1.45-1.19s-.84-1.08-1.85-1.4-2-.78-2-2.28,1.49-2.36,2.94-2.36a3.5,3.5,0,0,1,2.34.86Z" transform="translate(0 0)" fill="#5f6062"/><path d="M178.76,173.91h5.32v1.25h-3.89v2h3.69v1.2h-3.69v2.27h4.1V182h-5.53Z" transform="translate(0 0)" fill="#5f6062"/><path d="M188,173.91h2.79c1.51,0,3,.6,3,2.3a2.14,2.14,0,0,1-1.84,2.17L194,182H192.3l-1.86-3.41h-1V182H188Zm2.6,3.46c.81,0,1.73-.19,1.73-1.17s-.86-1.09-1.6-1.09h-1.29v2.26Z" transform="translate(0 0)" fill="#5f6062"/><path d="M196.24,173.91h1.6l2.21,6.19h0l2.24-6.19h1.54l-3.22,8h-1.24Z" transform="translate(0 0)" fill="#5f6062"/><path d="M206.93,173.91h1.43v8h-1.43Z" transform="translate(0 0)" fill="#5f6062"/><path d="M218.2,175.8a2.28,2.28,0,0,0-1.83-.83,2.77,2.77,0,0,0-2.78,2.94,2.7,2.7,0,0,0,2.72,3,2.36,2.36,0,0,0,2-.93l1.15.81a3.8,3.8,0,0,1-3.11,1.41,4.22,4.22,0,1,1,.07-8.45,3.75,3.75,0,0,1,2.92,1.23Z" transform="translate(0 0)" fill="#5f6062"/><path d="M222.57,173.91h5.32v1.25H224v2h3.69v1.2H224v2.27h4.1V182h-5.53Z" transform="translate(0 0)" fill="#5f6062"/><path d="M235.87,175.59a2,2,0,0,0-1.48-.69c-.66,0-1.42.32-1.42,1.1s.63,1,1.53,1.24,2.35.77,2.35,2.35-1.35,2.57-2.93,2.57a3.66,3.66,0,0,1-2.76-1.15l1-1a2.29,2.29,0,0,0,1.76.88c.67,0,1.45-.33,1.45-1.19s-.84-1.08-1.85-1.4-2-.78-2-2.28,1.49-2.36,2.94-2.36a3.5,3.5,0,0,1,2.34.86Z" transform="translate(0 0)" fill="#5f6062"/></g></g></svg>