<svg id="Layer_1" data-name="Layer 1" xmlns="http://www.w3.org/2000/svg" viewBox="0 0 253 253"><title>blairs</title><rect width="253" height="253" fill="#fff"/><path d="M58.58,160.63A63.62,63.62,0,0,1,48,162.73,44.36,44.36,0,0,1,43,163a41.64,41.64,0,0,1-10.16-1.25,33.8,33.8,0,0,1-12.83-6,21.2,21.2,0,0,1-7.73-11.56c-.92-3.66-1-9.33,3.91-15.59l.18-.23.2-.22a11.85,11.85,0,0,1,5.18-3.43,10.27,10.27,0,0,1,3.13-.5,9.31,9.31,0,0,1,3.39.63A82,82,0,0,1,32,114.61c1.27-2.88,2.65-5.75,4.13-8.58A21,21,0,0,1,34,105.8a15.53,15.53,0,0,1-6.19-2.34,13.43,13.43,0,0,1-5.9-14c.57-3.77,2.88-7.4,7.08-11a69.5,69.5,0,0,1,11.36-7.73,113.87,113.87,0,0,1,14.48-6.72,106,106,0,0,1,15.87-4.79,69,69,0,0,1,14.42-1.64h1a25.39,25.39,0,0,1,20.87,10l.6-1A11.17,11.17,0,0,1,116,61.36a22.27,22.27,0,0,1,3.17-.23,23.25,23.25,0,0,1,3,.2,18,18,0,0,1,6.32,2A9.61,9.61,0,0,1,133,75.77a68.7,68.7,0,0,1-3.67,6.56c-1,1.64-2.12,3.44-3.34,5.4q1-.21,2.05-.33a23.3,23.3,0,0,1,2.61-.15,22.94,22.94,0,0,1,5.77.74,22,22,0,0,1,7.41,3.45l.29.23a12.2,12.2,0,0,1,2.2,2.29q.66-1.12,1.14-2l.12-.21a10.66,10.66,0,0,1,6-4.67,10.62,10.62,0,0,1-.34-1.7l0-.33V84.7a14.83,14.83,0,0,1,.57-4.37A28,28,0,0,1,155,76.8a23.83,23.83,0,0,1,1.86-3.61,12.16,12.16,0,0,1,4.48-4.32A15.58,15.58,0,0,1,167.22,67a17.91,17.91,0,0,1,2-.12,15.75,15.75,0,0,1,4.22.57,13.05,13.05,0,0,1,5.87,3.37,9.88,9.88,0,0,1,2.11,10.81,9.36,9.36,0,0,1,3.84,2.79A12.28,12.28,0,0,1,187.76,79a13.28,13.28,0,0,1,5.33-4.13,14.14,14.14,0,0,1,5.54-1.22,13.19,13.19,0,0,1,5.16,1,10,10,0,0,1,4.15,3.15,9.64,9.64,0,0,1,6.16,3.55,11.39,11.39,0,0,1,2.18,4.55A15.28,15.28,0,0,1,219.85,88a17,17,0,0,1,6.2,10.45,22.65,22.65,0,0,1,0,7.63c7.13,1.33,12.39,5.87,14.36,12.57,2.81,9.55-2.06,20.94-11.85,27.71-13.3,9.2-32.42,10.69-54.55,12.42-30.24,2.37-64.5,5-88.55,28.94l-7.68,7.63Z" transform="translate(0 0)" fill="#00381f"/><path d="M144.57,176.76c2.26,0,3.2-.88,3.2-1.6,0-3.12-7-2.54-7-6.28,0-1.57,1.7-2.62,3.81-2.62a5.23,5.23,0,0,1,3.6,1.31l.2.18v.91h-1.18v-.41a4.51,4.51,0,0,0-2.62-.84c-1.41,0-2.63.57-2.63,1.46,0,2.62,7,2.18,7,6.28,0,1.59-1.68,2.78-4.36,2.78a7,7,0,0,1-4.2-1.58l-.18-.18v-.93h1.16v.41A5.92,5.92,0,0,0,144.57,176.76Z" transform="translate(0 0)" fill="#00381f"/><path d="M150.59,171.22v-1.16h1.6v7.59H151v-6.42Zm1.81-3.58a.8.8,0,1,1-1.6,0,.8.8,0,0,1,1.6,0Z" transform="translate(0 0)" fill="#00381f"/><path d="M154.42,171.22v-1.16H156v1.67a3.75,3.75,0,0,1,3.2-2,2.56,2.56,0,0,1,2.63,2.63v4.09h.44v1.16h-1.6V172.4c0-1.16-.92-1.47-1.76-1.47a3,3,0,0,0-2.91,3.22v3.5h-1.18v-6.42Z" transform="translate(0 0)" fill="#00381f"/><path d="M168,170.93a2.92,2.92,0,1,0,0,5.83,2.91,2.91,0,0,0,2.14-.92l.85.79a4.08,4.08,0,1,1-.28-5.84l.2.18v.83h-1.16v-.29A3,3,0,0,0,168,170.93Z" transform="translate(0 0)" fill="#00381f"/><path d="M176.53,176.76a2.88,2.88,0,0,0,2.12-.93l.87.8a4.08,4.08,0,1,1,.21-5.33l.34.46-.42.36c-.83.72-2.19,2-3.64,2h-2.39A2.93,2.93,0,0,0,176.53,176.76Zm1.91-5.12a2.9,2.9,0,0,0-1.91-.72,3,3,0,0,0-2.79,2H176A4.57,4.57,0,0,0,178.44,171.65Z" transform="translate(0 0)" fill="#00381f"/><path d="M185.48,169.72l-.87-.79,1.63-1.8h1v10.51h-1.18v-8.58Z" transform="translate(0 0)" fill="#00381f"/><path d="M195.45,169.39a2.33,2.33,0,0,1-1.19,2.07,3.16,3.16,0,0,1,2.06,3,3.5,3.5,0,0,1-7,0,3.14,3.14,0,0,1,2.06-3,2.33,2.33,0,0,1-1.19-2.07,2.63,2.63,0,0,1,5.26,0Zm-.29,5.05a2.34,2.34,0,1,0-2.34,2.32A2.34,2.34,0,0,0,195.16,174.44Zm-2.34-3.51a1.46,1.46,0,1,0-1.45-1.46A1.46,1.46,0,0,0,192.82,170.93Z" transform="translate(0 0)" fill="#00381f"/><path d="M201.32,176.76a2.33,2.33,0,1,0,0-4.66v-1.18a1.46,1.46,0,1,0-1.45-1.46l-1.18-.08a2.63,2.63,0,0,1,5.26,0,2.33,2.33,0,0,1-1.19,2.07,3.16,3.16,0,0,1,2.06,3,3.5,3.5,0,0,1-7,0l1.16-.06A2.32,2.32,0,0,0,201.32,176.76Z" transform="translate(0 0)" fill="#00381f"/><path d="M209.24,176.76a2.33,2.33,0,1,0,0-4.66v-1.18a1.46,1.46,0,1,0-1.46-1.46l-1.18-.08a2.63,2.63,0,0,1,5.26,0,2.33,2.33,0,0,1-1.2,2.07,3.16,3.16,0,0,1,2.06,3,3.5,3.5,0,0,1-7,0l1.16-.06A2.32,2.32,0,0,0,209.24,176.76Z" transform="translate(0 0)" fill="#00381f"/><path d="M237.82,119.44c-1.92-6.52-7.54-10.6-15.06-11a21.19,21.19,0,0,0,.61-9.5,14.3,14.3,0,0,0-5.22-8.8,12.93,12.93,0,0,0-4.33-2.24c0-.07,0-.15,0-.22A8.81,8.81,0,0,0,212,83.06a7.07,7.07,0,0,0-5.59-2.64,7.14,7.14,0,0,0-3.64-3.25,10.36,10.36,0,0,0-4.08-.78h0a11.48,11.48,0,0,0-4.48,1,10.69,10.69,0,0,0-4.3,3.35,9.89,9.89,0,0,0-2.06,4.91,25.21,25.21,0,0,0-.24,2.62c-.22,0-.43,0-.65,0a11.84,11.84,0,0,0-1.8.14l-.18,0-.48.11a8.64,8.64,0,0,0-.8-1.62,6.88,6.88,0,0,0-5.94-3.19c-.21,0-.44,0-.67,0a22.59,22.59,0,0,0,1.56-2.49l.13-.28a7.23,7.23,0,0,0-1.37-8.2,10.37,10.37,0,0,0-4.67-2.66,13,13,0,0,0-3.49-.47,15.13,15.13,0,0,0-1.69.1,12.91,12.91,0,0,0-4.9,1.53,9.48,9.48,0,0,0-3.48,3.38,20.91,20.91,0,0,0-1.65,3.2A25.33,25.33,0,0,0,156.42,81a12.17,12.17,0,0,0-.47,3.59v.22l0,.22a8.33,8.33,0,0,0,1.63,4c-.52,0-1,.11-1.56.2A8.41,8.41,0,0,0,150,93.11l-.1.17c-.76,1.37-1.82,3.18-3.16,5.36-.49.8-1,1.61-1.46,2.42,0-.19.1-.38.14-.58.24-1.41.19-4.15-2.91-6.66l-.23-.18a19.25,19.25,0,0,0-6.49-3,20.09,20.09,0,0,0-7.39-.52,21.68,21.68,0,0,0-9.26,3.41l2.14-3.36c2.21-3.47,4.15-6.58,5.77-9.24a67.27,67.27,0,0,0,3.51-6.25,6.85,6.85,0,0,0-3.28-9A15.35,15.35,0,0,0,121.86,64a20.59,20.59,0,0,0-2.68-.18,19.61,19.61,0,0,0-2.78.2A8.44,8.44,0,0,0,109.94,68c-.53.92-1.53,2.62-3,5.06a20.54,20.54,0,0,0-7.7-8.94A23.76,23.76,0,0,0,86,60.36h-.94a66.26,66.26,0,0,0-13.84,1.58,103.48,103.48,0,0,0-15.46,4.67,111.28,111.28,0,0,0-14.13,6.56,66.81,66.81,0,0,0-10.91,7.42c-3.68,3.16-5.7,6.24-6.17,9.41a11,11,0,0,0,.76,6.67,10.86,10.86,0,0,0,3.94,4.53,12.85,12.85,0,0,0,5.12,1.93,18,18,0,0,0,2.73.21,17.37,17.37,0,0,0,2-.12l.35,0,.34-.09a9,9,0,0,0,1.29-.42,137,137,0,0,0-6.6,13,72.36,72.36,0,0,0-4.34,12.54q-.13.57-.24,1.12a6.58,6.58,0,0,0-1.26-1.2,6.5,6.5,0,0,0-3.82-1.22,7.55,7.55,0,0,0-2.3.37,9.16,9.16,0,0,0-4,2.66l-.13.14-.12.16c-4.23,5.39-4.19,10.18-3.41,13.24a18.53,18.53,0,0,0,6.77,10.09,31.14,31.14,0,0,0,11.81,5.53A38.9,38.9,0,0,0,43,160.3a41.93,41.93,0,0,0,4.74-.28,59.38,59.38,0,0,0,12.16-2.66L78.44,190.9l5.12-5.09c24.76-24.6,59.56-27.32,90.26-29.72,21.74-1.7,40.51-3.17,53.21-11.94C235.87,138,240.31,127.88,237.82,119.44ZM50.72,133.37a7,7,0,0,0-3-2.3q.2-.46.43-.95c.66-1.4,1.41-2.92,2.26-4.53,2.58-1.19,5.19-2.44,7.76-3.74s5.19-2.66,7.82-4.08c2.6.47,3.52,1.2,3.76,1.44a2.35,2.35,0,0,1,.79,2,10.63,10.63,0,0,1-2.11,5,30.62,30.62,0,0,1-6.51,6.65,44.94,44.94,0,0,1-10,5.68l0-.2A6.52,6.52,0,0,0,50.72,133.37ZM88.94,75.29c-3.37,5-10.69,11.19-14.4,14.33l-.82.7a8.22,8.22,0,0,1,.87-.83l.13-.1.12-.11a6,6,0,0,0-1.75-10.43c-.27-.11-.55-.2-.84-.28l1.1-.33a91.41,91.41,0,0,1,9-2.25,35.61,35.61,0,0,1,6.54-.71ZM160,126.63a51,51,0,0,0,4.52-3.77l1.33-1.26a10.21,10.21,0,0,0,1.77,3.06,11.07,11.07,0,0,0,4.26,3.12l.63.23c-4.08-.28-8.56-.52-13.53-.67C159.36,127.09,159.71,126.88,160,126.63ZM88.41,105.29q-2,3.85-3.6,7.4a22,22,0,0,0-1.54-1.84,19,19,0,0,0-2.29-2q3.27-2.13,6.39-4.33c.67-.48,1.48-1.07,2.36-1.73C89.29,103.6,88.84,104.45,88.41,105.29ZM45.13,96.08a6.63,6.63,0,0,0-.88-2.53,6.92,6.92,0,0,0-1.81-2c.91-.59,1.93-1.2,3-1.82,2-1.15,4.32-2.32,6.82-3.48-1.14,1.36-2.35,2.91-3.63,4.69S46.3,94.28,45.13,96.08Zm157.32,34.12c-4.84,0-10.14-.49-16.29-1.06-2.58-.24-5.35-.5-8.33-.74a17.54,17.54,0,0,0,5.13-1.81A35,35,0,0,0,188,123.3c1.17-.9,2.27-1.85,3.35-2.81a12,12,0,0,0,1.46,2,11.32,11.32,0,0,0,5,3.16,13.62,13.62,0,0,0,3.32.64q1,.06,2,.07a6.48,6.48,0,0,0,.72,0,7.12,7.12,0,0,0,.84-.05,30.12,30.12,0,0,0,4.57-.88l.27.17,2.6-1.12c4.57-2,7.46-2.38,9.08-2.38a5.28,5.28,0,0,1,2.1.33,2.7,2.7,0,0,1-.45,1.64,9.76,9.76,0,0,1-6.1,4.26A53.08,53.08,0,0,1,202.46,130.21ZM28.88,140.49a3.64,3.64,0,0,1,.82-1.82l.17-.26q.14.54.31,1.07a9.75,9.75,0,0,0,1,2.17,5.39,5.39,0,0,1-2.18-1,.84.84,0,0,1-.15-.16Z" transform="translate(0 0)" fill="#00381f"/><path d="M41.62,153.48a34.8,34.8,0,0,1-8.49-1,27.09,27.09,0,0,1-10.27-4.77,14.55,14.55,0,0,1-5.34-7.88c-.8-3.17.1-6.44,2.67-9.72a5.24,5.24,0,0,1,2.26-1.59,3.45,3.45,0,0,1,1.06-.18,2.43,2.43,0,0,1,1.43.45A2.55,2.55,0,0,1,26,131a5.31,5.31,0,0,1-1,2.71,7.27,7.27,0,0,0-1.49,4.2,4.16,4.16,0,0,0,1.5,3.06,10.34,10.34,0,0,0,4.78,2.13,19.94,19.94,0,0,0,4.22.41,35.26,35.26,0,0,0,4-.24,51.9,51.9,0,0,0,14.06-3.57,49.17,49.17,0,0,0,11.14-6.33,34.64,34.64,0,0,0,7.37-7.56,14.34,14.34,0,0,0,2.83-7,6.41,6.41,0,0,0-2-5.16c-1.44-1.44-3.93-2.39-7.42-2.81-3,1.64-6,3.21-8.9,4.68s-5.94,2.91-8.89,4.25c-1.13,2.12-2.14,4.11-3,5.93a32.72,32.72,0,0,0-1.92,4.93,8.12,8.12,0,0,0-.42,2.62h.05a2.83,2.83,0,0,0,.61-.19,3.07,3.07,0,0,0,.82-.52l.12-.11.15-.07a3.12,3.12,0,0,1,1.41-.36,2.66,2.66,0,0,1,2.17,1.15A2.42,2.42,0,0,1,46.6,135a3.06,3.06,0,0,1-1.41,2,11.23,11.23,0,0,1-2.87,1.42,14.84,14.84,0,0,1-2.87.64,11,11,0,0,1-1.25.08c-3.54,0-4.95-2-5.5-3.62-.79-2.34-.75-5.29.12-9a68.41,68.41,0,0,1,4.1-11.82,132.73,132.73,0,0,1,6.43-12.7,129.81,129.81,0,0,1,7.28-11.34,54.65,54.65,0,0,1,6.6-7.81,11.77,11.77,0,0,1,4.48-2.43,19.1,19.1,0,0,1,4.81-.85h.62a8.56,8.56,0,0,1,3.11.46,1.94,1.94,0,0,1,.58,3.51,24.92,24.92,0,0,0-3.77,4c-1.67,2.05-3.55,4.56-5.6,7.45s-4.17,6.07-6.36,9.5q-1.62,2.55-3.15,5.06c2.6-1.81,5.32-3.83,8.12-6,3.9-3.08,7.59-6.32,11.5-9.74l2.25-2c.55-.48,1.23-1.06,2-1.73,4.63-3.93,13.26-11.24,16.32-17.12.86-1.65.93-3,.19-3.49a8.6,8.6,0,0,0-4.41-.93h-.34a39.68,39.68,0,0,0-7.3.78,95.39,95.39,0,0,0-9.45,2.35c-3.38,1-6.82,2.17-10.23,3.45s-6.74,2.65-9.92,4.08-6,2.87-8.56,4.29a50.22,50.22,0,0,0-6.18,4c-1.89,1.49-2.38,2.34-2.51,2.71-.22.68,0,.78.12.88a2.94,2.94,0,0,0,1.52.42l.37,0a7.21,7.21,0,0,1,.83-.05,3.32,3.32,0,0,1,3.11,1.52,2.16,2.16,0,0,1,.2,2,2.92,2.92,0,0,1-2.09,1.49l-.09,0h-.09a13.22,13.22,0,0,1-1.54.09,14,14,0,0,1-2.11-.16A8.83,8.83,0,0,1,30.15,95a6.82,6.82,0,0,1-2.48-2.85,7,7,0,0,1-.41-4.31c.29-2.12,1.86-4.4,4.8-6.93A62.72,62.72,0,0,1,42.29,74,107.2,107.2,0,0,1,55.9,67.68,99.34,99.34,0,0,1,70.75,63.2a62.16,62.16,0,0,1,13-1.48h.87a19.79,19.79,0,0,1,11,3c3.39,2.33,5.6,5,6.56,8,1.11,3.44-.65,8.59-2.87,11.68-3.1,4.34-11.22,10.88-15.61,14-3.89,2.74-8,5.43-12.22,8a18,18,0,0,1,7.51,4.54A15.27,15.27,0,0,1,83.22,120a21,21,0,0,1-1.85,10.49,31.91,31.91,0,0,1-7.21,10.17,44.52,44.52,0,0,1-12,8.13,51.35,51.35,0,0,1-16.26,4.46A37.76,37.76,0,0,1,41.62,153.48Z" transform="translate(0 0)" fill="#fff"/><path d="M28.6,88.12Q29,85.4,32.94,82a61.07,61.07,0,0,1,10-6.79A105.35,105.35,0,0,1,56.39,69,97.62,97.62,0,0,1,71,64.53a59.56,59.56,0,0,1,13.54-1.45A18.39,18.39,0,0,1,94.8,65.88q4.73,3.25,6,7.29c.87,2.69-.42,7.32-2.68,10.47C95.27,87.68,87.59,94,82.87,97.3s-9.69,6.53-14.9,9.59q6.55,1.37,10,5a13.88,13.88,0,0,1,3.91,8.26,19.57,19.57,0,0,1-1.74,9.81,30.44,30.44,0,0,1-6.91,9.73,43.08,43.08,0,0,1-11.63,7.87,49.82,49.82,0,0,1-15.83,4.33,34,34,0,0,1-12.28-.77,25.66,25.66,0,0,1-9.76-4.52,13.15,13.15,0,0,1-4.87-7.15q-1-4.12,2.42-8.54a3.81,3.81,0,0,1,1.61-1.13,1.4,1.4,0,0,1,1.28.08,1.26,1.26,0,0,1,.45,1.12,4.12,4.12,0,0,1-.81,2,8.51,8.51,0,0,0-1.71,5A5.5,5.5,0,0,0,24,142a11.6,11.6,0,0,0,5.4,2.45,26.84,26.84,0,0,0,8.61.18,53,53,0,0,0,14.43-3.67,50.28,50.28,0,0,0,11.45-6.51,35.86,35.86,0,0,0,7.66-7.86,15.59,15.59,0,0,0,3.07-7.72,7.77,7.77,0,0,0-2.36-6.21q-2.59-2.61-8.66-3.25-4.63,2.55-9.23,4.86t-9.26,4.42q-1.86,3.45-3.24,6.4a33.84,33.84,0,0,0-2,5.14,8.62,8.62,0,0,0-.44,3.34q.18,1.15,1.54,1a4,4,0,0,0,1-.28,4.44,4.44,0,0,0,1.2-.75,1.36,1.36,0,0,1,1.89.4q.74,1-.6,1.91a9.87,9.87,0,0,1-2.51,1.24,13.51,13.51,0,0,1-2.6.58Q35,138.15,34,135t.15-8.28a66.79,66.79,0,0,1,4-11.58,130.7,130.7,0,0,1,6.36-12.57,127.58,127.58,0,0,1,7.2-11.22,53,53,0,0,1,6.42-7.61,10.34,10.34,0,0,1,4-2.13,17.64,17.64,0,0,1,4.46-.79,8.33,8.33,0,0,1,3.19.36c.74.29.8.69.19,1.21A27.17,27.17,0,0,0,66,86.62q-2.55,3.14-5.65,7.52t-6.4,9.56q-3.3,5.18-6.22,10.21a146.66,146.66,0,0,0,13.18-9.39c4.69-3.7,9.19-7.73,13.79-11.75,3.94-3.44,15-12.14,18.65-19.24,1.3-2.49,1-4.32-.22-5.23a9.75,9.75,0,0,0-5.19-1.19,40,40,0,0,0-7.92.8,96.43,96.43,0,0,0-9.59,2.39q-5.14,1.54-10.32,3.48t-10,4.11q-4.83,2.17-8.67,4.35a51.27,51.27,0,0,0-6.35,4.13,8.5,8.5,0,0,0-3,3.36,1.89,1.89,0,0,0,.73,2.48,4.3,4.3,0,0,0,2.73.58q2-.23,2.61.82t-1,1.46A12.32,12.32,0,0,1,33.86,95a7.44,7.44,0,0,1-3-1.11,5.44,5.44,0,0,1-2-2.29A5.69,5.69,0,0,1,28.6,88.12Z" transform="translate(0 0)" fill="#fff"/><path d="M89.88,131.51A7.25,7.25,0,0,1,85,129.73c-1.72-1.46-2.39-3.57-2-6.25a32.47,32.47,0,0,1,2.57-8.32c1.41-3.3,3.11-6.91,5.07-10.72s4.1-7.75,6.41-11.74,4.48-7.71,6.53-11.15,3.84-6.44,5.39-9,2.57-4.3,3.12-5.25a4.56,4.56,0,0,1,3.5-1.91,15.42,15.42,0,0,1,2.2-.16,16.57,16.57,0,0,1,2.15.14,11.3,11.3,0,0,1,3.95,1.21c2.35,1.29,1.75,3.17,1.51,3.71a65.21,65.21,0,0,1-3.26,5.77c-1.6,2.63-3.53,5.72-5.73,9.17l-7.05,11.09q-3.75,5.9-7.15,11.37c-2.25,3.62-4.27,7-6,10a70.33,70.33,0,0,0-3.44,6.65,12.75,12.75,0,0,0,2-1A28.12,28.12,0,0,0,98,120.92c1.13-1,2.27-2,3.38-3.07s2.11-2.1,3-3.09a6.35,6.35,0,0,1,2.82-2.1,2.66,2.66,0,0,1,.64-.08,2,2,0,0,1,2,1.6,4.89,4.89,0,0,1-.29,2.91,10,10,0,0,1-2.12,3.3c-1,1-2.09,2-3.37,3.25a46.79,46.79,0,0,1-4.15,3.47,35,35,0,0,1-4.48,2.84,13,13,0,0,1-4.55,1.51A8.8,8.8,0,0,1,89.88,131.51Z" transform="translate(0 0)" fill="#fff"/><path d="M105.39,115.68a5.5,5.5,0,0,1,2.15-1.7.72.72,0,0,1,1,.56,3.69,3.69,0,0,1-.27,2.1,8.65,8.65,0,0,1-1.84,2.83q-1.4,1.39-3.29,3.17a45.15,45.15,0,0,1-4,3.37,33.4,33.4,0,0,1-4.3,2.73,11.67,11.67,0,0,1-4.07,1.36,6.05,6.05,0,0,1-4.83-1.4q-2-1.72-1.52-5a31.53,31.53,0,0,1,2.48-8q2.1-4.93,5-10.63t6.37-11.68q3.45-6,6.52-11.14t5.38-9q2.31-3.84,3.13-5.28a3.31,3.31,0,0,1,2.51-1.24,14.54,14.54,0,0,1,4,0,9.89,9.89,0,0,1,3.47,1.05q1.43.79.91,2-.76,1.65-3.18,5.61t-5.71,9.15l-7.05,11.09q-3.76,5.91-7.16,11.38t-6,10.08a67.15,67.15,0,0,0-3.62,7.06,2.13,2.13,0,0,0-.05,1.51c.17.39.6.47,1.28.24a12.08,12.08,0,0,0,2.85-1.39A29.08,29.08,0,0,0,98.89,122q1.74-1.48,3.44-3.13T105.39,115.68Z" transform="translate(0 0)" fill="#fff"/><path d="M109,129.16a4.58,4.58,0,0,1-2.82-1,7,7,0,0,1-2.74-5.26,19.4,19.4,0,0,1,.62-6.14,32.81,32.81,0,0,1,2.23-6.09,44.44,44.44,0,0,1,11-14.51,19,19,0,0,1,10.17-4.75,16,16,0,0,1,5.89.42,15.17,15.17,0,0,1,5.12,2.36c.48.39,1.76,1.43,1.52,2.84A2.44,2.44,0,0,1,138.33,99l-.19.06c.15.09.3.19.45.3a2.76,2.76,0,0,1,.84,3.85c-1.07,1.87-2.15,3.89-3.2,6s-1.93,4-2.64,5.79a25.92,25.92,0,0,0-1.27,3.84,7.53,7.53,0,0,0,.88-.53,27.44,27.44,0,0,0,2.81-2.24c1-.92,2.08-1.94,3.14-3s2.09-2.23,3.07-3.37a6.5,6.5,0,0,1,2.77-2.17,3,3,0,0,1,.88-.14,2,2,0,0,1,1.88,1.21,3.9,3.9,0,0,1-.15,2.86,9.66,9.66,0,0,1-2.09,3.25c-.93,1.19-2.1,2.52-3.41,3.88A51.2,51.2,0,0,1,138,122.4a29,29,0,0,1-4.45,3.09,12.4,12.4,0,0,1-4.56,1.58,6.08,6.08,0,0,1-.7,0,6.35,6.35,0,0,1-2.08-.36,6.74,6.74,0,0,1-2.47-1.53,7.36,7.36,0,0,1-2.27-5.65l-1,1.17a46.85,46.85,0,0,1-4.8,5,16.36,16.36,0,0,1-4.64,3A5.49,5.49,0,0,1,109,129.16ZM131,96.93l-.35,0c-.53.06-1.48.43-3,1.85a39.26,39.26,0,0,0-4.17,4.85c-1.45,2-2.86,4.07-4.2,6.3s-2.5,4.32-3.45,6.23q-.58,1.16-1,2.14c1-1.2,2.1-2.61,3.3-4.21q2.26-3,4.75-6.44t4.59-6.41a5.34,5.34,0,0,1,3.3-2.74,10.42,10.42,0,0,1,2.85-.52,10.42,10.42,0,0,0-1.31-.74A3,3,0,0,0,131,96.93Z" transform="translate(0 0)" fill="#fff"/><path d="M143.27,110.54a5.47,5.47,0,0,1,2.14-1.75c.57-.18.95-.07,1.12.32a2.78,2.78,0,0,1-.19,1.87,8.39,8.39,0,0,1-1.81,2.78q-1.45,1.84-3.38,3.85a50,50,0,0,1-4,3.76,27.39,27.39,0,0,1-4.24,2.94,11,11,0,0,1-4.05,1.42,4.88,4.88,0,0,1-2.18-.25,5.38,5.38,0,0,1-2-1.23,6.14,6.14,0,0,1-1.41-2.07,6.4,6.4,0,0,1-.43-2.91A21.9,21.9,0,0,1,124,114q-2.16,3-4.56,5.88a45.26,45.26,0,0,1-4.66,4.84,15,15,0,0,1-4.24,2.78,3.4,3.4,0,0,1-3.52-.38,5.61,5.61,0,0,1-2.21-4.27,18,18,0,0,1,.58-5.71,31.28,31.28,0,0,1,2.14-5.83,43.07,43.07,0,0,1,10.63-14.06,17.65,17.65,0,0,1,9.44-4.44,14.6,14.6,0,0,1,5.39.38,13.74,13.74,0,0,1,4.66,2.15q1.08.88,1,1.51a1.1,1.1,0,0,1-.79.87,3.62,3.62,0,0,1-1.65.13,2.57,2.57,0,0,1-1.63-.82,9.81,9.81,0,0,0-1.67-1,4.33,4.33,0,0,0-2.46-.44,7.06,7.06,0,0,0-3.74,2.22,40.5,40.5,0,0,0-4.32,5q-2.22,3-4.27,6.41t-3.5,6.32a37.7,37.7,0,0,0-2.06,4.76q-.61,1.86.11,1.77t2.55-2.13q1.73-2,4-5t4.77-6.47q2.5-3.47,4.66-6.51a4,4,0,0,1,2.55-2.14,8.66,8.66,0,0,1,3.63-.42,5.93,5.93,0,0,1,3,1.05,1.43,1.43,0,0,1,.48,2.07q-1.65,2.87-3.24,6.07t-2.68,5.89a24.9,24.9,0,0,0-1.41,4.41c-.21,1.14,0,1.67.67,1.6a5.6,5.6,0,0,0,2.38-1.05,28.88,28.88,0,0,0,3-2.35q1.57-1.41,3.21-3.11T143.27,110.54Z" transform="translate(0 0)" fill="#fff"/><path d="M146.52,125a7.34,7.34,0,0,1-4.69-1.78,7,7,0,0,1-2.48-6.08,14,14,0,0,1,1.7-5.24c1-2.12,2.25-4.41,3.62-6.8s2.75-4.73,4.17-7,2.46-4.09,3.26-5.52a4.53,4.53,0,0,1,3.31-2,11.91,11.91,0,0,1,2.07-.18,11.71,11.71,0,0,1,1.95.16,8.49,8.49,0,0,1,3.48,1.34A2.85,2.85,0,0,1,164,95.55a40.11,40.11,0,0,1-2.6,4.55q-1.68,2.61-3.59,5.41T154,111.05c-1.26,1.81-2.35,3.42-3.22,4.79q-.67,1.05-1.09,1.87l.59-.35a37.7,37.7,0,0,0,3.48-2.45c1.25-1,2.5-2.05,3.72-3.2a34.49,34.49,0,0,0,3.17-3.37,6.49,6.49,0,0,1,2.87-2.16,2.64,2.64,0,0,1,.64-.08,2,2,0,0,1,2,1.6,4.9,4.9,0,0,1-.29,2.91,10,10,0,0,1-2.12,3.3c-1,1-2.09,2-3.36,3.24a46.67,46.67,0,0,1-4.15,3.47,34.6,34.6,0,0,1-4.48,2.84,12.83,12.83,0,0,1-4.46,1.5A7.06,7.06,0,0,1,146.52,125Zm17-39a4.56,4.56,0,0,1-3-1,4.76,4.76,0,0,1-1.9-3.13,8.18,8.18,0,0,1,.33-2.5,21,21,0,0,1,.91-2.67,17.05,17.05,0,0,1,1.32-2.58,5.45,5.45,0,0,1,2-2,8.78,8.78,0,0,1,3.36-1,10.78,10.78,0,0,1,1.22-.07,8.9,8.9,0,0,1,2.39.32,6.34,6.34,0,0,1,2.86,1.6,3.09,3.09,0,0,1,.54,3.66,19.92,19.92,0,0,1-1.44,2.28A28.92,28.92,0,0,1,170,81.63c-.79.88-1.61,1.72-2.43,2.52A6.14,6.14,0,0,1,165,85.83,6.34,6.34,0,0,1,163.54,86Z" transform="translate(0 0)" fill="#fff"/><path d="M161.71,109.2a5.52,5.52,0,0,1,2.15-1.7.72.72,0,0,1,1,.56,3.69,3.69,0,0,1-.26,2.1,8.65,8.65,0,0,1-1.84,2.84q-1.39,1.39-3.29,3.17a45.34,45.34,0,0,1-4,3.37,33.11,33.11,0,0,1-4.3,2.73,11.44,11.44,0,0,1-4,1.35,5.84,5.84,0,0,1-4.47-1.44,5.7,5.7,0,0,1-2-5,13,13,0,0,1,1.56-4.7q1.52-3.13,3.58-6.72t4.15-7q2.1-3.42,3.29-5.57a3.24,3.24,0,0,1,2.36-1.28,10.33,10.33,0,0,1,3.55,0A7.11,7.11,0,0,1,162.12,93a1.5,1.5,0,0,1,.64,2,38.47,38.47,0,0,1-2.49,4.36q-1.67,2.59-3.57,5.38t-3.81,5.52q-1.91,2.73-3.25,4.84a17.59,17.59,0,0,0-1.78,3.39c-.29.85-.14,1.24.46,1.17a7.25,7.25,0,0,0,2.68-1.14A39.14,39.14,0,0,0,154.6,116q1.92-1.5,3.82-3.29A35.44,35.44,0,0,0,161.71,109.2ZM160,81.69a7.06,7.06,0,0,1,.29-2,19.85,19.85,0,0,1,.86-2.5,15.55,15.55,0,0,1,1.22-2.37,4.1,4.1,0,0,1,1.5-1.51,7.46,7.46,0,0,1,2.89-.89,8.07,8.07,0,0,1,3.1.2,5,5,0,0,1,2.26,1.25,1.78,1.78,0,0,1,.26,2.15,19.24,19.24,0,0,1-1.31,2A27.66,27.66,0,0,1,169,80.72q-1.18,1.31-2.37,2.45a5.05,5.05,0,0,1-2,1.34,3.55,3.55,0,0,1-3.2-.58A3.44,3.44,0,0,1,160,81.69Z" transform="translate(0 0)" fill="#fff"/><path d="M174.57,121.79a6.45,6.45,0,0,1-2.45-.53,7,7,0,0,1-2.69-2A6.49,6.49,0,0,1,168,116a7.9,7.9,0,0,1,.71-4.27c.46-.89,1-1.95,1.79-3.25s1.54-2.64,2.39-4.08,1.74-2.92,2.67-4.45c.56-.92,1.08-1.83,1.58-2.72l-.39.08q-.83,1.16-2.15,3c-1.09,1.57-2.3,3.19-3.6,4.83s-2.57,3.24-3.83,4.81a33,33,0,0,1-3.46,3.78,6,6,0,0,1-2.71,1.78,3.13,3.13,0,0,1-.74.1,2,2,0,0,1-2-1.34,3.9,3.9,0,0,1,.32-2.79,12,12,0,0,1,2.17-3.23c.7-.81,1.52-1.79,2.48-2.94s1.94-2.34,2.93-3.57,1.94-2.43,2.84-3.64l1.57-2.09a4.31,4.31,0,0,1-1.22-2.71,7,7,0,0,1,.53-3.52,8.81,8.81,0,0,1,2.15-3,6.55,6.55,0,0,1,3.82-1.71l.49,0a2.83,2.83,0,0,1,2.49,1.29,5,5,0,0,1,.73,2.6,9.84,9.84,0,0,1-.15,2l.59-.16c1.37-.38,2.8-.73,4.27-1.06a7.83,7.83,0,0,1,1.27-.11,4.94,4.94,0,0,1,4.25,2.15c1.18,1.71,1.18,3.81,0,6.24a27.26,27.26,0,0,1-2.49,4.15c-1.06,1.49-2.2,3-3.4,4.52l-3.5,4.42q-1.69,2.14-2.91,3.77l-.16.22.05,0a33,33,0,0,0,3.72-2.79c1.3-1.11,2.66-2.32,4-3.61a45,45,0,0,0,3.43-3.54,5.94,5.94,0,0,1,2.81-2.13,2.82,2.82,0,0,1,.67-.09,2,2,0,0,1,2,1.54,4.7,4.7,0,0,1-.37,2.9,9.93,9.93,0,0,1-2.1,3.17c-.93,1-2.06,2.15-3.32,3.33s-2.67,2.39-4.12,3.51a31,31,0,0,1-4.49,2.91,13,13,0,0,1-4.55,1.51A5,5,0,0,1,174.57,121.79Z" transform="translate(0 0)" fill="#fff"/><path d="M162.79,112.76a5,5,0,0,1-2.12,1.47q-.88.21-1.09-.38a2.8,2.8,0,0,1,.29-1.82,10.78,10.78,0,0,1,1.93-2.85q1.06-1.24,2.51-3t2.94-3.58q1.5-1.85,2.87-3.68t2.4-3.18a3.33,3.33,0,0,1-.69-.48,2.83,2.83,0,0,1-1.09-2.11,5.59,5.59,0,0,1,.43-2.84A7.43,7.43,0,0,1,173,87.8a5.2,5.2,0,0,1,3-1.36,1.6,1.6,0,0,1,1.68.64,3.64,3.64,0,0,1,.52,1.9,8.53,8.53,0,0,1-.24,2.21,3.81,3.81,0,0,1-.68,1.59,23.14,23.14,0,0,0,3.08-.69q2.09-.58,4.2-1a3.85,3.85,0,0,1,4.1,1.48q1.32,1.92-.11,4.87a25.91,25.91,0,0,1-2.37,4q-1.55,2.19-3.35,4.46l-3.5,4.43q-1.7,2.15-2.93,3.8a13.75,13.75,0,0,0-1.62,2.59c-.27.63-.1.9.51.84a7.72,7.72,0,0,0,2.83-1.28,34.28,34.28,0,0,0,3.88-2.9q2-1.74,4.09-3.65a45.65,45.65,0,0,0,3.54-3.65,4.93,4.93,0,0,1,2.11-1.69c.56-.14.9,0,1,.5a3.55,3.55,0,0,1-.33,2,8.6,8.6,0,0,1-1.82,2.72q-1.37,1.49-3.26,3.28t-4,3.42a29.54,29.54,0,0,1-4.29,2.78A11.62,11.62,0,0,1,175,120.4a4.76,4.76,0,0,1-2.36-.4,5.61,5.61,0,0,1-2.17-1.59,5.12,5.12,0,0,1-1.14-2.6,6.55,6.55,0,0,1,.62-3.53q.61-1.18,1.72-3.1t2.39-4.07q1.28-2.16,2.66-4.44t2.48-4.42q.33-.48.08-.73a1,1,0,0,0-.8-.19,9.89,9.89,0,0,1-1.27.48,7,7,0,0,1-1.24.25q-.88,1.22-2.49,3.53t-3.55,4.76q-1.94,2.46-3.82,4.8A31.56,31.56,0,0,1,162.79,112.76Z" transform="translate(0 0)" fill="#fff"/><path d="M202.52,119.6a2.28,2.28,0,0,1-.47,0h-.12c-.7,0-1.31,0-1.91-.06a9.42,9.42,0,0,1-2.31-.45,7.3,7.3,0,0,1-3.2-2,7.68,7.68,0,0,1-1.78-3.18,8.37,8.37,0,0,1-.14-3.72c0-.24.1-.48.16-.72q-.64.67-1.21,1.18a6,6,0,0,1-2.71,1.78,3.16,3.16,0,0,1-.73.09,2,2,0,0,1-2-1.34,3.89,3.89,0,0,1,.32-2.79,11.81,11.81,0,0,1,2.17-3.23c.76-.82,1.61-1.81,2.62-3.06l3-3.75q1.52-1.89,2.93-3.72.91-1.19,1.63-2.17A4.42,4.42,0,0,1,198,90a7.37,7.37,0,0,1,.58-3.49,8.82,8.82,0,0,1,2.15-3,6.42,6.42,0,0,1,3.72-1.7,4.33,4.33,0,0,1,.52,0,3,3,0,0,1,2.46,1.11,4.64,4.64,0,0,1,1,2.48,7.23,7.23,0,0,1-.25,2.65c-.05.19-.11.37-.17.54a10.67,10.67,0,0,1,6.29,2.07A10.13,10.13,0,0,1,218,96.95a17.25,17.25,0,0,1-.59,8,30.31,30.31,0,0,1-4.62,9c.24,1.17-.38,2.74-2.33,3.62a25.43,25.43,0,0,1-7.54,2Zm-3.06-16.13a6.15,6.15,0,0,1,1.77.27,5.28,5.28,0,0,1,2.63,1.92,4.34,4.34,0,0,1,.91,3.24,18,18,0,0,0,1.48-4,17.65,17.65,0,0,0,.51-4.93,9.11,9.11,0,0,0-1-4,3.48,3.48,0,0,0-1.44-1.48c-.49.71-1.12,1.58-1.89,2.63q-1.67,2.27-3.56,4.77-.74,1-1.49,1.95a5.8,5.8,0,0,1,1.12-.31A5.74,5.74,0,0,1,199.47,103.46Z" transform="translate(0 0)" fill="#fff"/><path d="M190.63,109.56a5,5,0,0,1-2.12,1.47c-.58.14-.95,0-1.09-.38a2.79,2.79,0,0,1,.29-1.82,10.63,10.63,0,0,1,1.93-2.85q1.15-1.25,2.65-3.1l3-3.76q1.53-1.9,2.94-3.75t2.36-3.17l-.24-.2a2.71,2.71,0,0,1-1-2.11,6,6,0,0,1,.48-2.85,7.5,7.5,0,0,1,1.82-2.55,5.06,5.06,0,0,1,3-1.34,1.82,1.82,0,0,1,1.75.58A3.32,3.32,0,0,1,207,85.5a5.88,5.88,0,0,1-.21,2.14,7,7,0,0,1-.76,1.82l-.33.48q5-.35,7.68,1.74a8.77,8.77,0,0,1,3.24,5.49,15.81,15.81,0,0,1-.56,7.32c-.78,2.62-3.15,7.6-5.18,9.38.59-.52,1.19,1.39-1,2.39a24,24,0,0,1-7.14,1.94,1.25,1.25,0,0,1-.42,0,.88.88,0,0,0-.33,0c-.63,0-1.25,0-1.89-.06a8.11,8.11,0,0,1-2-.39,5.91,5.91,0,0,1-2.61-1.65,6.31,6.31,0,0,1-1.47-2.62,7,7,0,0,1-.11-3.11,7.86,7.86,0,0,1,1.3-3.11,6.52,6.52,0,0,1,1.55-1.52,4.79,4.79,0,0,1,2-.84,4.6,4.6,0,0,1,2.1.15,3.93,3.93,0,0,1,1.94,1.45,3,3,0,0,1,.6,2.5,4,4,0,0,1-1.17,2.2,2.82,2.82,0,0,1-2.18.75,3.78,3.78,0,0,1-2.58-1.71,1.86,1.86,0,0,0-.57,2,2.2,2.2,0,0,0,1.79,1.75,4.51,4.51,0,0,0,3.93-.51,9.46,9.46,0,0,0,3-3.37,19.74,19.74,0,0,0,2.47-10.22A10.41,10.41,0,0,0,207,95.34a4.81,4.81,0,0,0-3.16-2.49q-.79,1.21-2.46,3.47t-3.55,4.77q-1.89,2.51-3.81,4.85A34.07,34.07,0,0,1,190.63,109.56Z" transform="translate(0 0)" fill="#fff"/><path d="M192,93.38a1.62,1.62,0,0,1-1.3-.63,1.79,1.79,0,0,1-.29-1.51c0-.3,0-.81-.07-1.51-.06-.91-.09-1.89-.09-2.95a21.67,21.67,0,0,1,.24-3.25,5.82,5.82,0,0,1,1.25-3,6.54,6.54,0,0,1,2.67-2.1,7.43,7.43,0,0,1,2.89-.67h0a6.27,6.27,0,0,1,2.47.46,2.9,2.9,0,0,1,1.82,1.88,3.82,3.82,0,0,1-.57,2.77c-.44.86-1,1.79-1.59,2.76s-1.22,1.88-1.83,2.75-1.13,1.57-1.54,2.08a8.56,8.56,0,0,1-3,2.68A2.63,2.63,0,0,1,192,93.38Z" transform="translate(0 0)" fill="#fff"/><path d="M191.77,91.41c0-.3,0-.89-.07-1.77s-.09-1.83-.09-2.87a20.54,20.54,0,0,1,.22-3,4.51,4.51,0,0,1,.93-2.32A5.28,5.28,0,0,1,195,79.67a6.06,6.06,0,0,1,2.36-.56,4.84,4.84,0,0,1,1.94.35,1.6,1.6,0,0,1,1,1,2.83,2.83,0,0,1-.47,1.77c-.42.82-.92,1.7-1.52,2.65s-1.2,1.84-1.8,2.69-1.09,1.52-1.49,2a7.6,7.6,0,0,1-2.45,2.28C191.87,92.17,191.61,92,191.77,91.41Z" transform="translate(0 0)" fill="#fff"/><path d="M61.75,152l.53-.7c.63-.84,16-20.62,71.6-22.53,4.6-.16,9.14-.24,13.49-.24a368.48,368.48,0,0,1,37.06,1.94c6.24.58,11.63,1.08,16.66,1.08a57,57,0,0,0,15.41-2c6.51-1.75,10-6.73,9.55-10.33-.33-2.5-2.58-3.93-6.16-3.93A28.18,28.18,0,0,0,209.19,118l-.65.28-7.92-4.87,3.72-.54a37.43,37.43,0,0,0,6.33-1.55,26.92,26.92,0,0,1,9.1-1.6l1,0c6,.19,10.26,3.14,11.72,8.09,2,6.76-1.79,15.06-9.19,20.18-11.79,8.15-30.06,9.58-51.2,11.23-31.4,2.46-67,5.24-92.82,30.9L78,181.46Z" transform="translate(0 0)" fill="#fff"/><path d="M204.54,114.26c6.8-1,8.84-3.35,16.23-3.11,14.16.45,14.31,17.14,1.8,25.78-28.77,19.88-100.63-1-144.21,42.29l-15-27.09s15-20.08,70.56-22c49.21-1.68,62,6.38,82.93.77,15.21-4.09,15.37-24.27-8.2-14.12Z" transform="translate(0 0)" fill="#fff"/><path d="M28.6,88.12Q29,85.4,32.94,82a61.07,61.07,0,0,1,10-6.79A105.35,105.35,0,0,1,56.39,69,97.62,97.62,0,0,1,71,64.53a59.56,59.56,0,0,1,13.54-1.45A18.39,18.39,0,0,1,94.8,65.88q4.73,3.25,6,7.29c.87,2.69-.42,7.32-2.68,10.47C95.27,87.68,87.59,94,82.87,97.3s-9.69,6.53-14.9,9.59q6.55,1.37,10,5a13.88,13.88,0,0,1,3.91,8.26,19.57,19.57,0,0,1-1.74,9.81,30.44,30.44,0,0,1-6.91,9.73,43.08,43.08,0,0,1-11.63,7.87,49.82,49.82,0,0,1-15.83,4.33,34,34,0,0,1-12.28-.77,25.66,25.66,0,0,1-9.76-4.52,13.15,13.15,0,0,1-4.87-7.15q-1-4.12,2.42-8.54a3.81,3.81,0,0,1,1.61-1.13,1.4,1.4,0,0,1,1.28.08,1.26,1.26,0,0,1,.45,1.12,4.12,4.12,0,0,1-.81,2,8.51,8.51,0,0,0-1.71,5A5.5,5.5,0,0,0,24,142a11.6,11.6,0,0,0,5.4,2.45,26.84,26.84,0,0,0,8.61.18,53,53,0,0,0,14.43-3.67,50.28,50.28,0,0,0,11.45-6.51,35.86,35.86,0,0,0,7.66-7.86,15.59,15.59,0,0,0,3.07-7.72,7.77,7.77,0,0,0-2.36-6.21q-2.59-2.61-8.66-3.25-4.63,2.55-9.23,4.86t-9.26,4.42q-1.86,3.45-3.24,6.4a33.84,33.84,0,0,0-2,5.14,8.62,8.62,0,0,0-.44,3.34q.18,1.15,1.54,1a4,4,0,0,0,1-.28,4.44,4.44,0,0,0,1.2-.75,1.36,1.36,0,0,1,1.89.4q.74,1-.6,1.91a9.87,9.87,0,0,1-2.51,1.24,13.51,13.51,0,0,1-2.6.58Q35,138.15,34,135t.15-8.28a66.79,66.79,0,0,1,4-11.58,130.7,130.7,0,0,1,6.36-12.57,127.58,127.58,0,0,1,7.2-11.22,53,53,0,0,1,6.42-7.61,10.34,10.34,0,0,1,4-2.13,17.64,17.64,0,0,1,4.46-.79,8.33,8.33,0,0,1,3.19.36c.74.29.8.69.19,1.21A27.17,27.17,0,0,0,66,86.62q-2.55,3.14-5.65,7.52t-6.4,9.56q-3.3,5.18-6.22,10.21a146.66,146.66,0,0,0,13.18-9.39c4.69-3.7,9.19-7.73,13.79-11.75,3.94-3.44,15-12.14,18.65-19.24,1.3-2.49,1-4.32-.22-5.23a9.75,9.75,0,0,0-5.19-1.19,40,40,0,0,0-7.92.8,96.43,96.43,0,0,0-9.59,2.39q-5.14,1.54-10.32,3.48t-10,4.11q-4.83,2.17-8.67,4.35a51.27,51.27,0,0,0-6.35,4.13,8.5,8.5,0,0,0-3,3.36,1.89,1.89,0,0,0,.73,2.48,4.3,4.3,0,0,0,2.73.58q2-.23,2.61.82t-1,1.46A12.32,12.32,0,0,1,33.86,95a7.44,7.44,0,0,1-3-1.11,5.44,5.44,0,0,1-2-2.29A5.69,5.69,0,0,1,28.6,88.12Z" transform="translate(0 0)" fill="#cb242b"/><path d="M105.39,115.68a5.5,5.5,0,0,1,2.15-1.7.72.72,0,0,1,1,.56,3.69,3.69,0,0,1-.27,2.1,8.65,8.65,0,0,1-1.84,2.83q-1.4,1.39-3.29,3.17a45.15,45.15,0,0,1-4,3.37,33.4,33.4,0,0,1-4.3,2.73,11.67,11.67,0,0,1-4.07,1.36,6.05,6.05,0,0,1-4.83-1.4q-2-1.72-1.52-5a31.53,31.53,0,0,1,2.48-8q2.1-4.93,5-10.63t6.37-11.68q3.45-6,6.52-11.14t5.38-9q2.31-3.84,3.13-5.28a3.31,3.31,0,0,1,2.51-1.24,14.54,14.54,0,0,1,4,0,9.89,9.89,0,0,1,3.47,1.05q1.43.79.91,2-.76,1.65-3.18,5.61t-5.71,9.15l-7.05,11.09q-3.76,5.91-7.16,11.38t-6,10.08a67.15,67.15,0,0,0-3.62,7.06,2.13,2.13,0,0,0-.05,1.51c.17.39.6.47,1.28.24a12.08,12.08,0,0,0,2.85-1.39A29.08,29.08,0,0,0,98.89,122q1.74-1.48,3.44-3.13T105.39,115.68Z" transform="translate(0 0)" fill="#cb242b"/><path d="M143.27,110.54a5.47,5.47,0,0,1,2.14-1.75c.57-.18.95-.07,1.12.32a2.78,2.78,0,0,1-.19,1.87,8.39,8.39,0,0,1-1.81,2.78q-1.45,1.84-3.38,3.85a50,50,0,0,1-4,3.76,27.39,27.39,0,0,1-4.24,2.94,11,11,0,0,1-4.05,1.42,4.88,4.88,0,0,1-2.18-.25,5.38,5.38,0,0,1-2-1.23,6.14,6.14,0,0,1-1.41-2.07,6.4,6.4,0,0,1-.43-2.91A21.9,21.9,0,0,1,124,114q-2.16,3-4.56,5.88a45.26,45.26,0,0,1-4.66,4.84,15,15,0,0,1-4.24,2.78,3.4,3.4,0,0,1-3.52-.38,5.61,5.61,0,0,1-2.21-4.27,18,18,0,0,1,.58-5.71,31.28,31.28,0,0,1,2.14-5.83,43.07,43.07,0,0,1,10.63-14.06,17.65,17.65,0,0,1,9.44-4.44,14.6,14.6,0,0,1,5.39.38,13.74,13.74,0,0,1,4.66,2.15q1.08.88,1,1.51a1.1,1.1,0,0,1-.79.87,3.62,3.62,0,0,1-1.65.13,2.57,2.57,0,0,1-1.63-.82,9.81,9.81,0,0,0-1.67-1,4.33,4.33,0,0,0-2.46-.44,7.06,7.06,0,0,0-3.74,2.22,40.5,40.5,0,0,0-4.32,5q-2.22,3-4.27,6.41t-3.5,6.32a37.7,37.7,0,0,0-2.06,4.76q-.61,1.86.11,1.77t2.55-2.13q1.73-2,4-5t4.77-6.47q2.5-3.47,4.66-6.51a4,4,0,0,1,2.55-2.14,8.66,8.66,0,0,1,3.63-.42,5.93,5.93,0,0,1,3,1.05,1.43,1.43,0,0,1,.48,2.07q-1.65,2.87-3.24,6.07t-2.68,5.89a24.9,24.9,0,0,0-1.41,4.41c-.21,1.14,0,1.67.67,1.6a5.6,5.6,0,0,0,2.38-1.05,28.88,28.88,0,0,0,3-2.35q1.57-1.41,3.21-3.11T143.27,110.54Z" transform="translate(0 0)" fill="#cb242b"/><path d="M161.71,109.2a5.52,5.52,0,0,1,2.15-1.7.72.72,0,0,1,1,.56,3.69,3.69,0,0,1-.26,2.1,8.65,8.65,0,0,1-1.84,2.84q-1.39,1.39-3.29,3.17a45.34,45.34,0,0,1-4,3.37,33.11,33.11,0,0,1-4.3,2.73,11.44,11.44,0,0,1-4,1.35,5.84,5.84,0,0,1-4.47-1.44,5.7,5.7,0,0,1-2-5,13,13,0,0,1,1.56-4.7q1.52-3.13,3.58-6.72t4.15-7q2.1-3.42,3.29-5.57a3.24,3.24,0,0,1,2.36-1.28,10.33,10.33,0,0,1,3.55,0A7.11,7.11,0,0,1,162.12,93a1.5,1.5,0,0,1,.64,2,38.47,38.47,0,0,1-2.49,4.36q-1.67,2.59-3.57,5.38t-3.81,5.52q-1.91,2.73-3.25,4.84a17.59,17.59,0,0,0-1.78,3.39c-.29.85-.14,1.24.46,1.17a7.25,7.25,0,0,0,2.68-1.14A39.14,39.14,0,0,0,154.6,116q1.92-1.5,3.82-3.29A35.44,35.44,0,0,0,161.71,109.2ZM160,81.69a7.06,7.06,0,0,1,.29-2,19.85,19.85,0,0,1,.86-2.5,15.55,15.55,0,0,1,1.22-2.37,4.1,4.1,0,0,1,1.5-1.51,7.46,7.46,0,0,1,2.89-.89,8.07,8.07,0,0,1,3.1.2,5,5,0,0,1,2.26,1.25,1.78,1.78,0,0,1,.26,2.15,19.24,19.24,0,0,1-1.31,2A27.66,27.66,0,0,1,169,80.72q-1.18,1.31-2.37,2.45a5.05,5.05,0,0,1-2,1.34,3.55,3.55,0,0,1-3.2-.58A3.44,3.44,0,0,1,160,81.69Z" transform="translate(0 0)" fill="#cb242b"/><path d="M162.79,112.76a5,5,0,0,1-2.12,1.47q-.88.21-1.09-.38a2.8,2.8,0,0,1,.29-1.82,10.78,10.78,0,0,1,1.93-2.85q1.06-1.24,2.51-3t2.94-3.58q1.5-1.85,2.87-3.68t2.4-3.18a3.33,3.33,0,0,1-.69-.48,2.83,2.83,0,0,1-1.09-2.11,5.59,5.59,0,0,1,.43-2.84A7.43,7.43,0,0,1,173,87.8a5.2,5.2,0,0,1,3-1.36,1.6,1.6,0,0,1,1.68.64,3.64,3.64,0,0,1,.52,1.9,8.53,8.53,0,0,1-.24,2.21,3.81,3.81,0,0,1-.68,1.59,23.14,23.14,0,0,0,3.08-.69q2.09-.58,4.2-1a3.85,3.85,0,0,1,4.1,1.48q1.32,1.92-.11,4.87a25.91,25.91,0,0,1-2.37,4q-1.55,2.19-3.35,4.46l-3.5,4.43q-1.7,2.15-2.93,3.8a13.75,13.75,0,0,0-1.62,2.59c-.27.63-.1.9.51.84a7.72,7.72,0,0,0,2.83-1.28,34.28,34.28,0,0,0,3.88-2.9q2-1.74,4.09-3.65a45.65,45.65,0,0,0,3.54-3.65,4.93,4.93,0,0,1,2.11-1.69c.56-.14.9,0,1,.5a3.55,3.55,0,0,1-.33,2,8.6,8.6,0,0,1-1.82,2.72q-1.37,1.49-3.26,3.28t-4,3.42a29.54,29.54,0,0,1-4.29,2.78A11.62,11.62,0,0,1,175,120.4a4.76,4.76,0,0,1-2.36-.4,5.61,5.61,0,0,1-2.17-1.59,5.12,5.12,0,0,1-1.14-2.6,6.55,6.55,0,0,1,.62-3.53q.61-1.18,1.72-3.1t2.39-4.07q1.28-2.16,2.66-4.44t2.48-4.42q.33-.48.08-.73a1,1,0,0,0-.8-.19,9.89,9.89,0,0,1-1.27.48,7,7,0,0,1-1.24.25q-.88,1.22-2.49,3.53t-3.55,4.76q-1.94,2.46-3.82,4.8A31.56,31.56,0,0,1,162.79,112.76Z" transform="translate(0 0)" fill="#cb242b"/><path d="M190.63,109.56a5,5,0,0,1-2.12,1.47c-.58.14-.95,0-1.09-.38a2.79,2.79,0,0,1,.29-1.82,10.63,10.63,0,0,1,1.93-2.85q1.15-1.25,2.65-3.1l3-3.76q1.53-1.9,2.94-3.75t2.36-3.17l-.24-.2a2.71,2.71,0,0,1-1-2.11,6,6,0,0,1,.48-2.85,7.5,7.5,0,0,1,1.82-2.55,5.06,5.06,0,0,1,3-1.34,1.82,1.82,0,0,1,1.75.58A3.32,3.32,0,0,1,207,85.5a5.88,5.88,0,0,1-.21,2.14,7,7,0,0,1-.76,1.82l-.33.48q5-.35,7.68,1.74a8.77,8.77,0,0,1,3.24,5.49,15.81,15.81,0,0,1-.56,7.32c-.78,2.62-3.15,7.6-5.18,9.38.59-.52,1.19,1.39-1,2.39a24,24,0,0,1-7.14,1.94,1.25,1.25,0,0,1-.42,0,.88.88,0,0,0-.33,0c-.63,0-1.25,0-1.89-.06a8.11,8.11,0,0,1-2-.39,5.91,5.91,0,0,1-2.61-1.65,6.31,6.31,0,0,1-1.47-2.62,7,7,0,0,1-.11-3.11,7.86,7.86,0,0,1,1.3-3.11,6.52,6.52,0,0,1,1.55-1.52,4.79,4.79,0,0,1,2-.84,4.6,4.6,0,0,1,2.1.15,3.93,3.93,0,0,1,1.94,1.45,3,3,0,0,1,.6,2.5,4,4,0,0,1-1.17,2.2,2.82,2.82,0,0,1-2.18.75,3.78,3.78,0,0,1-2.58-1.71,1.86,1.86,0,0,0-.57,2,2.2,2.2,0,0,0,1.79,1.75,4.51,4.51,0,0,0,3.93-.51,9.46,9.46,0,0,0,3-3.37,19.74,19.74,0,0,0,2.47-10.22A10.41,10.41,0,0,0,207,95.34a4.81,4.81,0,0,0-3.16-2.49q-.79,1.21-2.46,3.47t-3.55,4.77q-1.89,2.51-3.81,4.85A34.07,34.07,0,0,1,190.63,109.56Z" transform="translate(0 0)" fill="#cb242b"/><path d="M191.77,91.41c0-.3,0-.89-.07-1.77s-.09-1.83-.09-2.87a20.54,20.54,0,0,1,.22-3,4.51,4.51,0,0,1,.93-2.32A5.28,5.28,0,0,1,195,79.67a6.06,6.06,0,0,1,2.36-.56,4.84,4.84,0,0,1,1.94.35,1.6,1.6,0,0,1,1,1,2.83,2.83,0,0,1-.47,1.77c-.42.82-.92,1.7-1.52,2.65s-1.2,1.84-1.8,2.69-1.09,1.52-1.49,2a7.6,7.6,0,0,1-2.45,2.28C191.87,92.17,191.61,92,191.77,91.41Z" transform="translate(0 0)" fill="#cb242b"/><path d="M204.54,114.26c6.8-1,8.84-3.35,16.23-3.11,14.16.45,14.31,17.14,1.8,25.78-28.77,19.88-100.63-1-144.21,42.29l-15-27.09s15-20.08,70.56-22c49.21-1.68,62,6.38,82.93.77,15.21-4.09,15.37-24.27-8.2-14.12Z" transform="translate(0 0)" fill="#cb242b"/><path d="M85.72,150.52c2.78-1.32,5,.11,5,3.18a9.52,9.52,0,0,1-5,7.92l-3.44,1.63v-9.92l-.38.18v-1.18Zm0,9.94a7.53,7.53,0,0,0,3.95-6.25c0-2.42-1.76-3.55-3.95-2.51l-2.38,1.13v8.76Z" transform="translate(0 0)" fill="#fff"/><path d="M99.48,154.16c.18.24.21.23.38.16l.62-.25v1.16l-.62.25a1,1,0,0,1-1.29-.32l-1.57-2c-.67-.86-.82-.86-2.2-.3l-.8.33v4.67l-1.09.45v-9.92l-.39.16v-1.18l4-1.62c2.29-.93,3.45.19,3.45,1.81a5.23,5.23,0,0,1-2.73,4.27,2.39,2.39,0,0,1,1.14.91ZM98.86,148c0-1-.7-1.76-2.36-1.08l-2.5,1V152l2.5-1A3.46,3.46,0,0,0,98.86,148Z" transform="translate(0 0)" fill="#fff"/><path d="M103.58,143v7.31a2,2,0,0,0,2.76,2,4.36,4.36,0,0,0,2.77-3.85v-7.31l1.1-.37V148a6.08,6.08,0,0,1-3.87,5.4,2.75,2.75,0,0,1-3.87-2.78v-6.13l-.4.14v-1.18Z" transform="translate(0 0)" fill="#fff"/><path d="M119.28,144.21l2.84-.7v5.25L121,149v-.85a6.68,6.68,0,0,1-3,1.87,4.36,4.36,0,0,1-5.53-4.48,7.82,7.82,0,0,1,5.67-7.22,4.77,4.77,0,0,1,3.29.27l.11.05v1l-1.13.28v-.41a4,4,0,0,0-2.27-.07,6.26,6.26,0,0,0-4.54,5.79,3.49,3.49,0,0,0,4.54,3.55,5.66,5.66,0,0,0,2.83-1.9v-2l-1.7.42Z" transform="translate(0 0)" fill="#fff"/><path d="M131.79,146.29c2.24-.33,3.18-1.36,3.18-2.08,0-3.12-7-1.51-7-5.25,0-1.57,1.68-2.85,3.77-3.13a4.74,4.74,0,0,1,3.57.79l.2.15v.89l-1.17.17v-.4a4.12,4.12,0,0,0-2.59-.45c-1.39.2-2.61.94-2.61,1.82,0,2.61,6.94,1.14,6.94,5.24,0,1.58-1.67,3-4.33,3.44a6,6,0,0,1-4.17-1l-.18-.15c0-.37,0-.56,0-.93l1.15-.16v.41A5.21,5.21,0,0,0,131.79,146.29Z" transform="translate(0 0)" fill="#fff"/><path d="M146.65,134.6c0,.63,0,.92,0,1.51l-1.16.1v-.41l-2.92.25c0,3.74,0,5.76,0,9.72l-1.16.13c0-4,0-6,0-9.76l-2.92.25v.43l-1.16.11c0-.62,0-.94,0-1.57Z" transform="translate(0 0)" fill="#fff"/><path d="M158.67,138.85a6.1,6.1,0,0,1-5.28,6.29,5.66,5.66,0,0,1-6-5.47,5.3,5.3,0,0,1,5.34-5.71C155.85,133.87,158.51,135.88,158.67,138.85Zm-5.35,5.1a4.86,4.86,0,0,0,4.22-5c-.13-2.4-2.25-3.93-4.76-3.84a4.22,4.22,0,0,0-4.28,4.52A4.53,4.53,0,0,0,153.32,143.95Z" transform="translate(0 0)" fill="#fff"/><path d="M168.25,142.24a.67.67,0,0,0,.6.3l.67,0c0,.4,0,.6,0,1l-.67,0a1.48,1.48,0,0,1-1.39-.69c-.68-.9-1-1.35-1.71-2.33s-.89-1.15-2.38-1.1l-.87,0c0,1.86,0,2.69,0,4.44l-1.18.07c0-3.75,0-5.45,0-8.72h-.43c0-.39,0-.59,0-1,1.72,0,2.58,0,4.3.09,2.47.07,3.73,1.52,3.71,2.57-.05,2.42-3,2.45-3,2.45S167.76,141.6,168.25,142.24Zm-.47-5.4c0-.67-.74-1.48-2.54-1.53l-2.7-.05c0,1.34,0,1.75,0,3.13l2.88-.06C167.19,138.29,167.78,137.51,167.78,136.84Z" transform="translate(0 0)" fill="#fff"/><path d="M173.12,135.64c0,1.23,0,1.44,0,2.63H176c0,.32,0,.49,0,.91l-2.92.06c0,1.33,0,2,0,3.17l4.15-.23v-.36l1.18,0c0,.53,0,.78,0,1.3-3,.08-3.46.21-6.5.35,0-3.41,0-4.84,0-7.85l-.43,0c0-.36,0-.55,0-1,3,.13,3.66.14,6.64.34v1.3l-1.16-.07v-.3C175.12,135.71,175,135.73,173.12,135.64Z" transform="translate(0 0)" fill="#fff"/></svg>