<svg xmlns="http://www.w3.org/2000/svg" viewBox="0 0 253 253"><title>brandforge</title><rect width="253" height="253" fill="#fff"/><path d="M48.88,162.32l.24.38.2.36h.05q0-.22,0-.87t0-1.18v-.76a2.88,2.88,0,0,0,0-.36.42.42,0,0,0-.06-.18.31.31,0,0,0-.12-.1l-.26-.08v-.18h1.45v.18l-.26.08a.36.36,0,0,0-.12.09.41.41,0,0,0-.07.17,2.05,2.05,0,0,0,0,.38v4h-.5l-2.25-3.36-.3-.46-.17-.28h-.07q0,.28,0,1t0,1.44v.73a2.41,2.41,0,0,0,0,.35.45.45,0,0,0,.06.18.32.32,0,0,0,.12.11,1.2,1.2,0,0,0,.27.09v.18H45.62v-.18A.85.85,0,0,0,46,164a.33.33,0,0,0,.11-.2,2.18,2.18,0,0,0,0-.4v-3.11a2.32,2.32,0,0,0,0-.36.42.42,0,0,0-.07-.17.33.33,0,0,0-.12-.1l-.26-.08v-.18h1.26Z" transform="translate(0 0)" fill="#515154"/><path d="M54.24,164.27v-.18a1.52,1.52,0,0,0,.3-.08.32.32,0,0,0,.15-.12.39.39,0,0,0,0-.21,1.2,1.2,0,0,0,0-.26,3,3,0,0,0-.09-.32l-.15-.46H52.58l-.14.35a3.13,3.13,0,0,0-.14.4,1.08,1.08,0,0,0,0,.25.38.38,0,0,0,.12.32.74.74,0,0,0,.38.13v.18H51.05v-.18a.62.62,0,0,0,.39-.23,2.3,2.3,0,0,0,.32-.58l1.68-4h.64l1.37,4a3.61,3.61,0,0,0,.17.43.68.68,0,0,0,.18.23.69.69,0,0,0,.29.12v.18Zm-1.55-1.94h1.69L53.61,160Z" transform="translate(0 0)" fill="#515154"/><path d="M56.37,159.36h4.37v1.25h-.4a3.24,3.24,0,0,0-.18-.49,1,1,0,0,0-.18-.27.58.58,0,0,0-.21-.13,1.07,1.07,0,0,0-.33,0h-.51v3.68a1.71,1.71,0,0,0,0,.34.5.5,0,0,0,.08.2.36.36,0,0,0,.15.12,1.53,1.53,0,0,0,.29.08v.18H57.63v-.18l.21-.05A.52.52,0,0,0,58,164a.34.34,0,0,0,.1-.11.57.57,0,0,0,.06-.18,1.82,1.82,0,0,0,0-.33v-3.68h-.51a1.26,1.26,0,0,0-.31,0,.51.51,0,0,0-.23.14,1,1,0,0,0-.19.29,3,3,0,0,0-.16.48h-.4Z" transform="translate(0 0)" fill="#515154"/><path d="M63.13,163.37a2.41,2.41,0,0,0,0,.35.46.46,0,0,0,.06.18.32.32,0,0,0,.12.11,1.2,1.2,0,0,0,.27.09v.18H61.9v-.18a.86.86,0,0,0,.33-.13.34.34,0,0,0,.11-.2,2.15,2.15,0,0,0,0-.4v-3.11a2.28,2.28,0,0,0,0-.36.41.41,0,0,0-.07-.17.32.32,0,0,0-.12-.1l-.26-.08v-.18h1.7v.18a1.2,1.2,0,0,0-.26.08.37.37,0,0,0-.13.1.42.42,0,0,0-.07.18,2.16,2.16,0,0,0,0,.37Z" transform="translate(0 0)" fill="#515154"/><path d="M66.42,159.36v.18a1.15,1.15,0,0,0-.28.07.31.31,0,0,0-.15.12.41.41,0,0,0,0,.21,1.19,1.19,0,0,0,0,.26,3,3,0,0,0,.09.32l.94,2.94,1.16-3,0-.14,0-.15a.87.87,0,0,0,0-.23.4.4,0,0,0-.11-.31.72.72,0,0,0-.38-.14v-.18H69.5v.18a.76.76,0,0,0-.27.1.78.78,0,0,0-.2.22,3.36,3.36,0,0,0-.24.48l-1.67,4h-.53l-1.36-4a2.75,2.75,0,0,0-.19-.47.67.67,0,0,0-.18-.21.69.69,0,0,0-.27-.11v-.18Z" transform="translate(0 0)" fill="#515154"/><path d="M74.17,159.36v1.09h-.4a2.78,2.78,0,0,0-.13-.31,1.26,1.26,0,0,0-.13-.22.6.6,0,0,0-.15-.14.53.53,0,0,0-.2-.07l-.27,0H71.62v1.89h.86a.7.7,0,0,0,.28,0,.37.37,0,0,0,.17-.15,1.33,1.33,0,0,0,.13-.34h.38v1.38h-.38a1.21,1.21,0,0,0-.12-.33.41.41,0,0,0-.16-.16.68.68,0,0,0-.28,0h-.86V164h1.25a1.42,1.42,0,0,0,.32,0,.53.53,0,0,0,.21-.11.7.7,0,0,0,.16-.19,1.52,1.52,0,0,0,.11-.25l.13-.37h.4l-.08,1.26H70.4v-.18a.86.86,0,0,0,.33-.13.33.33,0,0,0,.11-.2,2.15,2.15,0,0,0,0-.4v-3.11a2.33,2.33,0,0,0,0-.36.41.41,0,0,0-.07-.17.32.32,0,0,0-.12-.1l-.26-.08v-.18Z" transform="translate(0 0)" fill="#515154"/><path d="M80.52,164.27v-.18a1.52,1.52,0,0,0,.3-.08.32.32,0,0,0,.15-.12.39.39,0,0,0,0-.21,1.19,1.19,0,0,0,0-.26,3.15,3.15,0,0,0-.09-.32l-.15-.46H78.86l-.14.35a3.22,3.22,0,0,0-.14.4,1.08,1.08,0,0,0,0,.25.38.38,0,0,0,.12.32.74.74,0,0,0,.38.13v.18H77.33v-.18a.62.62,0,0,0,.39-.23,2.31,2.31,0,0,0,.32-.58l1.68-4h.64l1.37,4a3.65,3.65,0,0,0,.17.43.68.68,0,0,0,.18.23.69.69,0,0,0,.29.12v.18ZM79,162.33h1.69L79.89,160Z" transform="translate(0 0)" fill="#515154"/><path d="M83.35,164.27v-.18a1.29,1.29,0,0,0,.27-.08.33.33,0,0,0,.13-.1.43.43,0,0,0,.06-.18,2.36,2.36,0,0,0,0-.36v-3.11a2.35,2.35,0,0,0,0-.37.41.41,0,0,0-.07-.17.34.34,0,0,0-.12-.1l-.27-.08v-.18h1.77a4.35,4.35,0,0,1,1.25.15,2.23,2.23,0,0,1,.82.44,1.79,1.79,0,0,1,.5.72,2.91,2.91,0,0,1,.17,1,3.38,3.38,0,0,1-.16,1.07,2,2,0,0,1-.45.77,2.08,2.08,0,0,1-.63.45,2.64,2.64,0,0,1-.72.2,7.51,7.51,0,0,1-1.08.06Zm1.23-.33h.48a3.34,3.34,0,0,0,.61-.05,1.84,1.84,0,0,0,.48-.16,1.31,1.31,0,0,0,.39-.3,1.62,1.62,0,0,0,.28-.44,2.35,2.35,0,0,0,.16-.56,4.14,4.14,0,0,0,.05-.67,2.67,2.67,0,0,0-.24-1.2,1.49,1.49,0,0,0-.67-.69,2.27,2.27,0,0,0-1-.22h-.52Z" transform="translate(0 0)" fill="#515154"/><path d="M90.53,159.36v.18a1.15,1.15,0,0,0-.28.07.31.31,0,0,0-.15.12.41.41,0,0,0,0,.21,1.19,1.19,0,0,0,0,.26,3,3,0,0,0,.09.32l.94,2.94,1.16-3,0-.14,0-.15a1,1,0,0,0,0-.13,1,1,0,0,0,0-.1.4.4,0,0,0-.11-.31.72.72,0,0,0-.38-.14v-.18H93.6v.18a.76.76,0,0,0-.27.1.78.78,0,0,0-.2.22,3.36,3.36,0,0,0-.24.48l-1.67,4H90.7l-1.36-4a2.75,2.75,0,0,0-.19-.47.67.67,0,0,0-.18-.21.69.69,0,0,0-.27-.11v-.18Z" transform="translate(0 0)" fill="#515154"/><path d="M98.27,159.36v1.09h-.4a2.76,2.76,0,0,0-.12-.31,1.26,1.26,0,0,0-.13-.22.6.6,0,0,0-.15-.14.53.53,0,0,0-.2-.07l-.27,0H95.73v1.89h.86a.7.7,0,0,0,.28,0,.37.37,0,0,0,.17-.15,1.33,1.33,0,0,0,.13-.34h.38v1.38h-.38a1.2,1.2,0,0,0-.13-.33.41.41,0,0,0-.16-.16.68.68,0,0,0-.28,0h-.86V164H97a1.42,1.42,0,0,0,.32,0,.53.53,0,0,0,.21-.11.7.7,0,0,0,.16-.19,1.52,1.52,0,0,0,.11-.25l.13-.37h.4l-.08,1.26H94.5v-.18a.86.86,0,0,0,.33-.13.33.33,0,0,0,.11-.2,2.15,2.15,0,0,0,0-.4v-3.11a2.33,2.33,0,0,0,0-.36.41.41,0,0,0-.07-.17.32.32,0,0,0-.12-.1l-.26-.08v-.18Z" transform="translate(0 0)" fill="#515154"/><path d="M100.9,162.14v1.22a2.16,2.16,0,0,0,0,.38.43.43,0,0,0,.07.18.33.33,0,0,0,.12.1l.26.08v.18h-1.7v-.18A.86.86,0,0,0,100,164a.33.33,0,0,0,.11-.2,2.15,2.15,0,0,0,0-.4v-3.11a2.32,2.32,0,0,0,0-.36.41.41,0,0,0-.07-.17.32.32,0,0,0-.12-.1l-.26-.08v-.18h2a2.61,2.61,0,0,1,1.41.31,1.06,1.06,0,0,1,.47.95,1.23,1.23,0,0,1-.3.84,2,2,0,0,1-.91.54v0a1.2,1.2,0,0,1,.42.26,2.59,2.59,0,0,1,.39.52l.36.59a3.58,3.58,0,0,0,.27.4,1,1,0,0,0,.23.21.83.83,0,0,0,.31.1v.18h-1.12a4.26,4.26,0,0,1-.29-.41l-.27-.45-.35-.6a3.76,3.76,0,0,0-.26-.4.76.76,0,0,0-.19-.18.57.57,0,0,0-.19-.07l-.3,0Zm0-2.45v2.14h.46a2.9,2.9,0,0,0,.57,0,1.1,1.1,0,0,0,.4-.17.89.89,0,0,0,.3-.35,1.24,1.24,0,0,0,.11-.55,1.13,1.13,0,0,0-.13-.57.83.83,0,0,0-.4-.35,1.78,1.78,0,0,0-.72-.12Z" transform="translate(0 0)" fill="#515154"/><path d="M104.73,159.36h4.37v1.25h-.4a3.19,3.19,0,0,0-.18-.49,1,1,0,0,0-.18-.27.58.58,0,0,0-.21-.13,1.07,1.07,0,0,0-.33,0h-.51v3.68a1.74,1.74,0,0,0,0,.34.51.51,0,0,0,.08.2.36.36,0,0,0,.15.12,1.51,1.51,0,0,0,.29.08v.18H106v-.18l.21-.05a.52.52,0,0,0,.15-.07.35.35,0,0,0,.1-.11.57.57,0,0,0,.06-.18,1.81,1.81,0,0,0,0-.33v-3.68H106a1.25,1.25,0,0,0-.31,0,.51.51,0,0,0-.23.14,1,1,0,0,0-.19.29,3.07,3.07,0,0,0-.16.48h-.4Z" transform="translate(0 0)" fill="#515154"/><path d="M111.5,163.37a2.41,2.41,0,0,0,0,.35.47.47,0,0,0,.06.18.32.32,0,0,0,.12.11,1.19,1.19,0,0,0,.27.09v.18h-1.7v-.18a.86.86,0,0,0,.33-.13.33.33,0,0,0,.11-.2,2.15,2.15,0,0,0,0-.4v-3.11a2.33,2.33,0,0,0,0-.36.41.41,0,0,0-.07-.17.32.32,0,0,0-.12-.1l-.26-.08v-.18H112v.18a1.2,1.2,0,0,0-.26.08.37.37,0,0,0-.12.1.42.42,0,0,0-.07.18,2.16,2.16,0,0,0,0,.37Z" transform="translate(0 0)" fill="#515154"/><path d="M113.72,163.15a1.43,1.43,0,0,0,.22.5.81.81,0,0,0,.36.27,1.51,1.51,0,0,0,.56.09,1.07,1.07,0,0,0,.72-.22.8.8,0,0,0,.25-.64.9.9,0,0,0-.1-.45,1.09,1.09,0,0,0-.34-.35,4.83,4.83,0,0,0-.73-.38,4.13,4.13,0,0,1-.75-.41,1.43,1.43,0,0,1-.41-.43,1,1,0,0,1-.14-.51,1.17,1.17,0,0,1,.21-.7,1.35,1.35,0,0,1,.62-.46,2.54,2.54,0,0,1,.94-.16l.6,0a6,6,0,0,1,.73.13v1h-.4a1.44,1.44,0,0,0-.23-.49.76.76,0,0,0-.33-.25,1.46,1.46,0,0,0-.49-.07,1.21,1.21,0,0,0-.47.09.73.73,0,0,0-.33.26.71.71,0,0,0-.12.42.85.85,0,0,0,.1.43,1.06,1.06,0,0,0,.32.33,4,4,0,0,0,.65.34,5,5,0,0,1,.8.43,1.6,1.6,0,0,1,.44.45,1.1,1.1,0,0,1,.16.59,1.4,1.4,0,0,1-.13.64,1.14,1.14,0,0,1-.37.42,1.6,1.6,0,0,1-.56.24,3.31,3.31,0,0,1-.72.07,6.58,6.58,0,0,1-1.46-.19v-1Z" transform="translate(0 0)" fill="#515154"/><path d="M119.1,163.37a2.41,2.41,0,0,0,0,.35.45.45,0,0,0,.06.18.32.32,0,0,0,.12.11,1.19,1.19,0,0,0,.27.09v.18h-1.7v-.18a.86.86,0,0,0,.33-.13.34.34,0,0,0,.11-.2,2.15,2.15,0,0,0,0-.4v-3.11a2.28,2.28,0,0,0,0-.36.41.41,0,0,0-.07-.17.32.32,0,0,0-.12-.1l-.26-.08v-.18h1.7v.18a1.21,1.21,0,0,0-.26.08.37.37,0,0,0-.12.1.42.42,0,0,0-.07.18,2.16,2.16,0,0,0,0,.37Z" transform="translate(0 0)" fill="#515154"/><path d="M124.2,162.32l.24.38.2.36h.05q0-.22,0-.87t0-1.18v-.76a2.82,2.82,0,0,0,0-.36.43.43,0,0,0-.06-.18.31.31,0,0,0-.12-.1l-.26-.08v-.18h1.45v.18l-.26.08a.38.38,0,0,0-.12.09.42.42,0,0,0-.07.17,2.13,2.13,0,0,0,0,.38v4h-.5l-2.25-3.36-.3-.46-.17-.28h-.07q0,.28,0,1t0,1.44v.73a2.48,2.48,0,0,0,0,.35.46.46,0,0,0,.06.18.33.33,0,0,0,.12.11,1.19,1.19,0,0,0,.27.09v.18h-1.47v-.18a.85.85,0,0,0,.33-.13.34.34,0,0,0,.11-.2,2.18,2.18,0,0,0,0-.4v-3.11a2.33,2.33,0,0,0,0-.36.42.42,0,0,0-.07-.17.33.33,0,0,0-.12-.1l-.26-.08v-.18h1.26Z" transform="translate(0 0)" fill="#515154"/><path d="M130.86,164.25l-.31.08-.29-.28a2.21,2.21,0,0,1-.55.21,2.86,2.86,0,0,1-.66.07,1.88,1.88,0,0,1-1.54-.62,2.86,2.86,0,0,1-.52-1.86,3.05,3.05,0,0,1,.28-1.35,2,2,0,0,1,.81-.89,2.4,2.4,0,0,1,1.24-.31,6.51,6.51,0,0,1,.72,0,7.27,7.27,0,0,1,.77.13v1h-.4a1.64,1.64,0,0,0-.26-.51.85.85,0,0,0-.36-.26,1.56,1.56,0,0,0-.53-.08,1.24,1.24,0,0,0-.77.25,1.63,1.63,0,0,0-.51.74,3.41,3.41,0,0,0-.18,1.19A4.1,4.1,0,0,0,128,163a1.54,1.54,0,0,0,.46.75,1.14,1.14,0,0,0,.75.25,1.11,1.11,0,0,0,.71-.18.69.69,0,0,0,.23-.57V163a2.05,2.05,0,0,0,0-.47.42.42,0,0,0-.13-.22.81.81,0,0,0-.32-.13V162h1.63v.18a.7.7,0,0,0-.22.1.39.39,0,0,0-.11.14.65.65,0,0,0-.05.2,3.07,3.07,0,0,0,0,.34Z" transform="translate(0 0)" fill="#515154"/><path d="M133.23,163.44v.83h-.81v-.83Z" transform="translate(0 0)" fill="#515154"/><path d="M138,163.36a1.68,1.68,0,0,0,0,.34.5.5,0,0,0,.08.2.35.35,0,0,0,.15.12,1.52,1.52,0,0,0,.29.08v.18H136.8v-.18a.85.85,0,0,0,.33-.13.34.34,0,0,0,.11-.2,2.27,2.27,0,0,0,0-.4v-3.11a2.43,2.43,0,0,0,0-.36.42.42,0,0,0-.07-.17.33.33,0,0,0-.12-.1l-.26-.08v-.18h2a2.48,2.48,0,0,1,1.41.32,1.11,1.11,0,0,1,.46,1,1.52,1.52,0,0,1-.15.67,1.28,1.28,0,0,1-.41.49,1.71,1.71,0,0,1-.63.27,3.38,3.38,0,0,1-.76.08H138Zm0-1.49h.47a2.28,2.28,0,0,0,.75-.11.86.86,0,0,0,.45-.35,1.2,1.2,0,0,0,.16-.65,1.26,1.26,0,0,0-.09-.52.84.84,0,0,0-.26-.33,1,1,0,0,0-.39-.18,2.21,2.21,0,0,0-.49-.05H138Z" transform="translate(0 0)" fill="#515154"/><path d="M143.14,162.14v1.22a2.21,2.21,0,0,0,0,.38.43.43,0,0,0,.07.18.33.33,0,0,0,.12.1l.26.08v.18h-1.7v-.18a.85.85,0,0,0,.33-.13.34.34,0,0,0,.11-.2,2.24,2.24,0,0,0,0-.4v-3.11a2.21,2.21,0,0,0,0-.36.44.44,0,0,0-.07-.17.32.32,0,0,0-.12-.1l-.26-.08v-.18h2a2.62,2.62,0,0,1,1.41.31,1.06,1.06,0,0,1,.47.95,1.22,1.22,0,0,1-.3.84,2,2,0,0,1-.91.54v0a1.2,1.2,0,0,1,.42.26,2.68,2.68,0,0,1,.39.52l.36.59a3.33,3.33,0,0,0,.27.4,1,1,0,0,0,.23.21.83.83,0,0,0,.31.1v.18h-1.12a4.2,4.2,0,0,1-.29-.41l-.27-.45-.35-.6a3.75,3.75,0,0,0-.26-.4.77.77,0,0,0-.19-.18.59.59,0,0,0-.19-.07l-.3,0Zm0-2.45v2.14h.46a2.9,2.9,0,0,0,.57,0,1.09,1.09,0,0,0,.4-.17.87.87,0,0,0,.3-.35,1.23,1.23,0,0,0,.11-.55,1.13,1.13,0,0,0-.13-.57.83.83,0,0,0-.4-.35,1.78,1.78,0,0,0-.72-.12Z" transform="translate(0 0)" fill="#515154"/><path d="M149.44,164.33a2.6,2.6,0,0,1-.88-.14,1.74,1.74,0,0,1-.68-.44,2.08,2.08,0,0,1-.44-.77,3.56,3.56,0,0,1-.16-1.12,3.17,3.17,0,0,1,.28-1.38,2,2,0,0,1,.78-.88,2.29,2.29,0,0,1,1.18-.3,2.4,2.4,0,0,1,1.21.28,1.79,1.79,0,0,1,.74.83,3.26,3.26,0,0,1,.25,1.34,3.22,3.22,0,0,1-.28,1.42,1.93,1.93,0,0,1-.8.87A2.41,2.41,0,0,1,149.44,164.33Zm-1.33-2.57a3.19,3.19,0,0,0,.36,1.68,1.17,1.17,0,0,0,1.06.57,1.14,1.14,0,0,0,.74-.25,1.49,1.49,0,0,0,.46-.73,3.73,3.73,0,0,0,.15-1.13,4,4,0,0,0-.18-1.3,1.56,1.56,0,0,0-.49-.75,1.18,1.18,0,0,0-.72-.23,1.16,1.16,0,0,0-1.05.58,2,2,0,0,0-.25.67A4.59,4.59,0,0,0,148.11,161.76Z" transform="translate(0 0)" fill="#515154"/><path d="M154.39,159.36v.18a1.18,1.18,0,0,0-.28.07.31.31,0,0,0-.15.12.42.42,0,0,0,0,.21,1.23,1.23,0,0,0,0,.26,2.65,2.65,0,0,0,.09.32l.94,2.94,1.16-3,0-.14,0-.15a1.17,1.17,0,0,0,0-.13s0-.07,0-.1a.4.4,0,0,0-.11-.31.71.71,0,0,0-.38-.14v-.18h1.7v.18a.76.76,0,0,0-.27.1.78.78,0,0,0-.2.22,3.31,3.31,0,0,0-.24.48l-1.67,4h-.53l-1.36-4a2.56,2.56,0,0,0-.19-.47.65.65,0,0,0-.18-.21.69.69,0,0,0-.26-.11v-.18Z" transform="translate(0 0)" fill="#515154"/><path d="M162.14,159.36v1.09h-.4a2.78,2.78,0,0,0-.12-.31,1.35,1.35,0,0,0-.13-.22.62.62,0,0,0-.15-.14.5.5,0,0,0-.2-.07l-.27,0h-1.28v1.89h.86a.69.69,0,0,0,.28,0,.37.37,0,0,0,.17-.15A1.31,1.31,0,0,0,161,161h.38v1.38H161a1.21,1.21,0,0,0-.12-.33.41.41,0,0,0-.16-.16.68.68,0,0,0-.29,0h-.86V164h1.25a1.44,1.44,0,0,0,.32,0,.52.52,0,0,0,.21-.11.69.69,0,0,0,.16-.19,1.55,1.55,0,0,0,.12-.25l.13-.37h.4l-.08,1.26h-3.74v-.18a.86.86,0,0,0,.34-.13.33.33,0,0,0,.11-.2,2.11,2.11,0,0,0,0-.4v-3.11a2.44,2.44,0,0,0,0-.36.42.42,0,0,0-.07-.17.33.33,0,0,0-.12-.1l-.26-.08v-.18Z" transform="translate(0 0)" fill="#515154"/><path d="M166.77,162.32l.25.38c.07.11.13.23.2.36h.05q0-.22,0-.87t0-1.18v-.76a2.85,2.85,0,0,0,0-.36.41.41,0,0,0-.06-.18.29.29,0,0,0-.12-.1l-.26-.08v-.18h1.45v.18l-.26.08a.38.38,0,0,0-.12.09.42.42,0,0,0-.07.17,2,2,0,0,0,0,.38v4h-.51L165,160.93l-.3-.46-.17-.28h-.07c0,.19,0,.52,0,1s0,1,0,1.44v.73a2.63,2.63,0,0,0,0,.35.47.47,0,0,0,.06.18.32.32,0,0,0,.13.11,1.13,1.13,0,0,0,.27.09v.18h-1.47v-.18a.86.86,0,0,0,.33-.13.33.33,0,0,0,.11-.2,2.11,2.11,0,0,0,0-.4v-3.11a2.44,2.44,0,0,0,0-.36.42.42,0,0,0-.07-.17.32.32,0,0,0-.12-.1l-.26-.08v-.18h1.26Z" transform="translate(0 0)" fill="#515154"/><path d="M173,162.14v1.22a2.36,2.36,0,0,0,0,.38.44.44,0,0,0,.07.18.32.32,0,0,0,.12.1l.26.08v.18h-1.7v-.18a.86.86,0,0,0,.34-.13.33.33,0,0,0,.11-.2,2.28,2.28,0,0,0,0-.4v-3.11a2.71,2.71,0,0,0,0-.36.42.42,0,0,0-.07-.17.34.34,0,0,0-.12-.1l-.26-.08v-.18h2a2.62,2.62,0,0,1,1.41.31,1.06,1.06,0,0,1,.47.95,1.22,1.22,0,0,1-.31.84,2,2,0,0,1-.91.54v0a1.2,1.2,0,0,1,.42.26,2.63,2.63,0,0,1,.39.52l.36.59a3.15,3.15,0,0,0,.27.4.92.92,0,0,0,.23.21.83.83,0,0,0,.31.1v.18h-1.12a4.48,4.48,0,0,1-.29-.41l-.27-.45-.35-.6a3.75,3.75,0,0,0-.26-.4.75.75,0,0,0-.19-.18.58.58,0,0,0-.19-.07l-.3,0Zm0-2.45v2.14h.45a2.92,2.92,0,0,0,.57,0,1.1,1.1,0,0,0,.4-.17.87.87,0,0,0,.3-.35,1.23,1.23,0,0,0,.11-.55,1.13,1.13,0,0,0-.13-.57.83.83,0,0,0-.4-.35,1.78,1.78,0,0,0-.72-.12Z" transform="translate(0 0)" fill="#515154"/><path d="M181.12,159.36v1.09h-.4a2.53,2.53,0,0,0-.12-.31,1.26,1.26,0,0,0-.13-.22.62.62,0,0,0-.15-.14.52.52,0,0,0-.2-.07l-.27,0h-1.28v1.89h.86a.7.7,0,0,0,.28,0,.38.38,0,0,0,.17-.15A1.27,1.27,0,0,0,180,161h.38v1.38H180a1.21,1.21,0,0,0-.12-.33.41.41,0,0,0-.16-.16.69.69,0,0,0-.29,0h-.86V164h1.25a1.43,1.43,0,0,0,.32,0,.53.53,0,0,0,.21-.11.69.69,0,0,0,.16-.19,1.34,1.34,0,0,0,.12-.25l.13-.37h.4l-.08,1.26h-3.74v-.18a.86.86,0,0,0,.34-.13.33.33,0,0,0,.11-.2,2.28,2.28,0,0,0,0-.4v-3.11a2.7,2.7,0,0,0,0-.36.42.42,0,0,0-.07-.17.34.34,0,0,0-.12-.1l-.26-.08v-.18Z" transform="translate(0 0)" fill="#515154"/><path d="M182.88,163.15a1.44,1.44,0,0,0,.22.5.82.82,0,0,0,.35.27,1.52,1.52,0,0,0,.56.09,1.07,1.07,0,0,0,.73-.22.8.8,0,0,0,.25-.64.92.92,0,0,0-.11-.45,1.11,1.11,0,0,0-.34-.35,4.91,4.91,0,0,0-.73-.38,4.1,4.1,0,0,1-.75-.41,1.44,1.44,0,0,1-.41-.43,1,1,0,0,1-.13-.51,1.18,1.18,0,0,1,.21-.7,1.35,1.35,0,0,1,.62-.46,2.55,2.55,0,0,1,.94-.16l.6,0a6,6,0,0,1,.73.13v1h-.4a1.46,1.46,0,0,0-.23-.49.76.76,0,0,0-.33-.25,1.47,1.47,0,0,0-.49-.07,1.2,1.2,0,0,0-.47.09.72.72,0,0,0-.33.26.7.7,0,0,0-.12.42.84.84,0,0,0,.1.43,1.07,1.07,0,0,0,.32.33,3.92,3.92,0,0,0,.65.34,4.94,4.94,0,0,1,.8.43,1.59,1.59,0,0,1,.44.45,1.09,1.09,0,0,1,.16.59,1.4,1.4,0,0,1-.13.64,1.13,1.13,0,0,1-.37.42,1.6,1.6,0,0,1-.57.24,3.3,3.3,0,0,1-.72.07,6.6,6.6,0,0,1-1.46-.19v-1Z" transform="translate(0 0)" fill="#515154"/><path d="M191.07,162.57a2.53,2.53,0,0,1-.08.68,1.45,1.45,0,0,1-.23.48,1.32,1.32,0,0,1-.35.32,1.79,1.79,0,0,1-.51.21,2.89,2.89,0,0,1-.7.08,3.15,3.15,0,0,1-.84-.1,1.31,1.31,0,0,1-.58-.32,1.29,1.29,0,0,1-.33-.52,2.44,2.44,0,0,1-.1-.76v-2.37a2.23,2.23,0,0,0,0-.38.4.4,0,0,0-.06-.16.3.3,0,0,0-.11-.1,1.11,1.11,0,0,0-.27-.09v-.18h1.69v.18a1,1,0,0,0-.31.11.32.32,0,0,0-.12.19,1.91,1.91,0,0,0,0,.42v2.55a1.78,1.78,0,0,0,.08.59.86.86,0,0,0,.23.37.91.91,0,0,0,.36.19,1.87,1.87,0,0,0,.51.06,1.29,1.29,0,0,0,.49-.09.87.87,0,0,0,.36-.27,1,1,0,0,0,.2-.44,3.89,3.89,0,0,0,.05-.71v-2.25a1.7,1.7,0,0,0,0-.43.34.34,0,0,0-.11-.18.93.93,0,0,0-.33-.12v-.18h1.61v.18a1,1,0,0,0-.32.12.33.33,0,0,0-.12.19,1.8,1.8,0,0,0,0,.42Z" transform="translate(0 0)" fill="#515154"/><path d="M194,163.94h1.06l.29,0a.74.74,0,0,0,.2-.06.49.49,0,0,0,.15-.11.79.79,0,0,0,.13-.17,1.59,1.59,0,0,0,.11-.27q.05-.16.13-.49h.41l-.08,1.45h-3.63v-.18a.84.84,0,0,0,.33-.13.35.35,0,0,0,.11-.2,2.28,2.28,0,0,0,0-.4v-3.11a2.22,2.22,0,0,0,0-.36.44.44,0,0,0-.07-.17.33.33,0,0,0-.12-.1l-.26-.08v-.18h1.7v.18l-.25.08a.33.33,0,0,0-.12.09.38.38,0,0,0-.07.18,2,2,0,0,0,0,.38Z" transform="translate(0 0)" fill="#515154"/><path d="M196.57,159.36h4.37v1.25h-.39a3.23,3.23,0,0,0-.18-.49,1,1,0,0,0-.18-.27.58.58,0,0,0-.21-.13,1.08,1.08,0,0,0-.33,0h-.51v3.68a1.77,1.77,0,0,0,0,.34.49.49,0,0,0,.08.2.37.37,0,0,0,.15.12,1.55,1.55,0,0,0,.29.08v.18h-1.84v-.18L198,164a.52.52,0,0,0,.15-.07.35.35,0,0,0,.1-.11.62.62,0,0,0,.06-.18,2.09,2.09,0,0,0,0-.33v-3.68h-.51a1.25,1.25,0,0,0-.31,0,.51.51,0,0,0-.23.14,1,1,0,0,0-.19.29,3.19,3.19,0,0,0-.16.48h-.4Z" transform="translate(0 0)" fill="#515154"/><path d="M202.47,163.15a1.39,1.39,0,0,0,.22.5.81.81,0,0,0,.35.27,1.51,1.51,0,0,0,.56.09,1.07,1.07,0,0,0,.73-.22.81.81,0,0,0,.25-.64.9.9,0,0,0-.11-.45,1.09,1.09,0,0,0-.34-.35,4.87,4.87,0,0,0-.73-.38,4.13,4.13,0,0,1-.74-.41,1.42,1.42,0,0,1-.41-.43,1,1,0,0,1-.13-.51,1.18,1.18,0,0,1,.21-.7,1.36,1.36,0,0,1,.62-.46,2.55,2.55,0,0,1,.94-.16l.6,0a6,6,0,0,1,.73.13v1h-.4a1.46,1.46,0,0,0-.23-.49.76.76,0,0,0-.33-.25,1.46,1.46,0,0,0-.49-.07,1.2,1.2,0,0,0-.47.09.73.73,0,0,0-.33.26.71.71,0,0,0-.12.42.83.83,0,0,0,.1.43,1.08,1.08,0,0,0,.32.33,4,4,0,0,0,.65.34,4.89,4.89,0,0,1,.8.43,1.61,1.61,0,0,1,.45.45,1.1,1.1,0,0,1,.16.59,1.38,1.38,0,0,1-.13.64,1.12,1.12,0,0,1-.37.42,1.59,1.59,0,0,1-.57.24,3.29,3.29,0,0,1-.72.07,6.58,6.58,0,0,1-1.46-.19v-1Z" transform="translate(0 0)" fill="#515154"/><path d="M207.38,163.44v.83h-.82v-.83Z" transform="translate(0 0)" fill="#515154"/><polygon points="37.08 141.59 37.04 141.59 37.04 142.03 37.06 142.03 37.08 141.59" fill="#515154"/><path d="M31.69,156.15l-1.24.14v-2.19l-.3.16-.37.18v2.23l.74-.09q3.71-.43,7.41-.83a10.72,10.72,0,0,0,3.31-.88,12.08,12.08,0,0,1-2.15.43Q35.39,155.72,31.69,156.15Z" transform="translate(0 0)" fill="#515154"/><path d="M41.66,143.4a2.62,2.62,0,0,0-1.11-1.34,4.77,4.77,0,0,0-2.36-.47H37.08V142a5.18,5.18,0,0,1,2.58.53,3,3,0,0,1,1.3,1.55,7.92,7.92,0,0,1,.46,2.94,9.31,9.31,0,0,1-.43,3c0,.09-.07.17-.11.25a3.25,3.25,0,0,0,.8-1.28,8.86,8.86,0,0,0,.41-2.9A7.51,7.51,0,0,0,41.66,143.4Z" transform="translate(0 0)" fill="#515154"/><path d="M39.05,129.7a3.06,3.06,0,0,1,1.11.74,3.47,3.47,0,0,1,.74,1.29,6.55,6.55,0,0,1,.29,2.1,7.56,7.56,0,0,1-.5,2.92,2.6,2.6,0,0,0,.25-.24,5.73,5.73,0,0,0,.92-3.57,6.14,6.14,0,0,0-.26-2,3,3,0,0,0-.65-1.13,2.63,2.63,0,0,0-1-.64,5.11,5.11,0,0,0-1.38-.32c-.35,0-.82-.06-1.39-.09H37v.5l.5,0A5.56,5.56,0,0,1,39.05,129.7Z" transform="translate(0 0)" fill="#515154"/><path d="M31.83,152.47a1.79,1.79,0,0,0,.22-.75,21.29,21.29,0,0,0,.09-2.25V130.78c0-1,0-1.64-.07-2.06a2.81,2.81,0,0,0-.16-.77.81.81,0,0,0-.18-.28,3.79,3.79,0,0,0-.7-.44l-.58-.31V125.4l-.66-.08v2.21l.35.19a4.13,4.13,0,0,1,.8.51,1.24,1.24,0,0,1,.28.43,3.23,3.23,0,0,1,.19.89c0,.43.07,1.14.07,2.11v18.68a21.52,21.52,0,0,1-.09,2.31c0,.07,0,.12,0,.18A1.71,1.71,0,0,0,31.83,152.47Z" transform="translate(0 0)" fill="#515154"/><path d="M59.86,132.33a2.82,2.82,0,0,0-1-1.3,4.14,4.14,0,0,0-2-.59l-.91-.06v.52a4.44,4.44,0,0,1,2.08.64A3.24,3.24,0,0,1,59.16,133a6.76,6.76,0,0,1,.42,2.55,7.35,7.35,0,0,1-.36,2.47c0,.09-.07.18-.11.26l0,0a3.23,3.23,0,0,0,.77-1.28,6.94,6.94,0,0,0,.33-2.31A6.34,6.34,0,0,0,59.86,132.33Z" transform="translate(0 0)" fill="#515154"/><path d="M62.41,153.15l-.36-.57a20.19,20.19,0,0,1-1.1-2q-.5-1-1-2.15l-1.27-2.91a20.22,20.22,0,0,0-.89-1.86,2.35,2.35,0,0,0-.42-.59.68.68,0,0,0-.26-.14,2.85,2.85,0,0,0-.65,0H55.9v.46l.25,0a1.14,1.14,0,0,1,.42.23,2.66,2.66,0,0,1,.52.71,20.81,20.81,0,0,1,.91,1.9l1.27,2.91q.48,1.1,1,2.14a19.6,19.6,0,0,0,1.07,2l.21.34.4,0,4-.3.62,0v-.36l-3.46.26Z" transform="translate(0 0)" fill="#515154"/><path d="M50.9,150.15a15.59,15.59,0,0,0,.08-1.92V132a16.63,16.63,0,0,0-.06-1.76,2,2,0,0,0-.13-.59.52.52,0,0,0-.14-.19,3.75,3.75,0,0,0-.7-.38l-.64-.3v-1.42l-.66-.06v2.08l.39.18a4.09,4.09,0,0,1,.8.44,1,1,0,0,1,.26.34,2.33,2.33,0,0,1,.18.73,16.83,16.83,0,0,1,.07,1.81v16.22a17.14,17.14,0,0,1-.08,1.88,1.89,1.89,0,0,0,.49-.3A1.19,1.19,0,0,0,50.9,150.15Z" transform="translate(0 0)" fill="#515154"/><path d="M49.29,154.29v-2l-.26.12-.4.17v2.1l.73-.07,6.08-.55L56,154v-.34l-5.54.5Z" transform="translate(0 0)" fill="#515154"/><path d="M79.11,136.09l-.48,1.5,1,3.67h.88Q79.81,138.68,79.11,136.09Z" transform="translate(0 0)" fill="#515154"/><path d="M82.08,148.55a.94.94,0,0,0,.05-.39,5,5,0,0,0-.1-.93c-.07-.36-.17-.79-.31-1.26l-.31-1.17-5.05.1-.13.42,4.41-.09.4,1.5c.14.48.25.92.32,1.3a5.59,5.59,0,0,1,.09.81,2.84,2.84,0,0,0,.53-.21A.18.18,0,0,0,82.08,148.55Z" transform="translate(0 0)" fill="#515154"/><path d="M69,152.66v-1.82l-.16.06-.5.13v2l.71,0,6.15-.4.62,0v-.37l-5.64.37Z" transform="translate(0 0)" fill="#515154"/><path d="M80.36,151.93v-1.74l-.17,0-.49.13v2l.7,0L87,152l.63,0v-.39l-6.14.32Z" transform="translate(0 0)" fill="#515154"/><path d="M70.54,148.9a11.48,11.48,0,0,0,1-2.44c1.88-5.73,3.84-11.51,5.82-17.19l-.32,0-.17.47c-2.06,5.86-4.08,11.84-6,17.76a14.89,14.89,0,0,1-.74,1.89A2.15,2.15,0,0,0,70.54,148.9Z" transform="translate(0 0)" fill="#515154"/><path d="M104.22,137v-3a11,11,0,0,0,0-1.29,1,1,0,0,0-.06-.27,4.13,4.13,0,0,0-.72-.27l-.78-.24v-1.29l-.66,0v1.87l.47.14a4.08,4.08,0,0,1,.79.3.52.52,0,0,1,.19.17,1.13,1.13,0,0,1,.12.43,12.07,12.07,0,0,1,.05,1.35v3c0,.59,0,1.23,0,1.88l.7,1.15Q104.22,138.74,104.22,137Z" transform="translate(0 0)" fill="#515154"/><path d="M92.58,147.91a9,9,0,0,0,.08-1.43V133.75a9.37,9.37,0,0,0-.06-1.31,1,1,0,0,0-.08-.31.22.22,0,0,0-.08-.07,4,4,0,0,0-.71-.28l-.76-.25v-1.31l-.66,0v1.9l.46.15a4.3,4.3,0,0,1,.8.32.65.65,0,0,1,.22.21,1.28,1.28,0,0,1,.14.48,9.86,9.86,0,0,1,.06,1.38v12.73c0,.4,0,.73,0,1a2.37,2.37,0,0,0,.54-.24A.59.59,0,0,0,92.58,147.91Z" transform="translate(0 0)" fill="#515154"/><path d="M104.47,150.44c-2.84-4.61-5.38-8.8-7.75-12.82,0,.64,0,1.27,0,1.91,2.16,3.65,4.46,7.45,7,11.56l.2.32,2.83-.07v-.42l-2,.05Z" transform="translate(0 0)" fill="#515154"/><path d="M108.46,132.64v-.1a.39.39,0,0,0,0,.11Z" transform="translate(0 0)" fill="#515154"/><path d="M91,151.39v-1.7l-.19.07-.47.14v1.91l.69,0,5.26-.21.64,0v-.4l-4.78.19Z" transform="translate(0 0)" fill="#515154"/><path d="M118.78,150.64l-5.22.07-1.13,0v-1.61l-.17,0-.49.13v1.87h.67l5.22-.07a26.84,26.84,0,0,0,4-.27,10,10,0,0,0,2.54-.77,11.44,11.44,0,0,1-1.36.32A27.34,27.34,0,0,1,118.78,150.64Z" transform="translate(0 0)" fill="#515154"/><path d="M114.08,147.33a8.43,8.43,0,0,0,.06-1.22v-12a8.35,8.35,0,0,0-.06-1.23.85.85,0,0,0-.06-.24,3.07,3.07,0,0,0-.78-.28l-.81-.23v-1.3h-.66v1.86l.48.14a4.39,4.39,0,0,1,.81.28.62.62,0,0,1,.21.18,1,1,0,0,1,.13.4,8.69,8.69,0,0,1,.06,1.3v12c0,.34,0,.6,0,.8a3.28,3.28,0,0,0,.51-.18S114,147.52,114.08,147.33Z" transform="translate(0 0)" fill="#515154"/><path d="M124.93,144.22a8.37,8.37,0,0,0,.5-1.87,15.61,15.61,0,0,0,.17-2.39,9.76,9.76,0,0,0-.74-4.11,4.43,4.43,0,0,0-1.9-2.12,6.72,6.72,0,0,0-3.16-.71H119v.46a7,7,0,0,1,3,.75,4.85,4.85,0,0,1,2.1,2.32,10.19,10.19,0,0,1,.78,4.3,16,16,0,0,1-.17,2.45,8.83,8.83,0,0,1-.53,2c-.06.15-.14.28-.21.41l.07-.07A5.23,5.23,0,0,0,124.93,144.22Z" transform="translate(0 0)" fill="#515154"/><path d="M132.66,150.62V149l-.15,0-.51.12v1.86h.66l6.4.08h.67v-.46l-6-.07Z" transform="translate(0 0)" fill="#515154"/><path d="M134.27,147.39a7.81,7.81,0,0,0,.07-1.31V134.15a8,8,0,0,0-.06-1.21.83.83,0,0,0-.06-.23,3.45,3.45,0,0,0-.74-.25l-.82-.22v-1.31H132v1.85l.49.13a4.38,4.38,0,0,1,.8.26.53.53,0,0,1,.2.17,1,1,0,0,1,.13.4,8.43,8.43,0,0,1,.06,1.28V147c0,.31,0,.55,0,.76a2.74,2.74,0,0,0,.58-.2S134.26,147.48,134.27,147.39Z" transform="translate(0 0)" fill="#515154"/><path d="M142.09,143.21a5.38,5.38,0,0,0-.37-1.18.73.73,0,0,0-.17-.24h0a1.49,1.49,0,0,0-.44,0h-1.86v.44H140a1.37,1.37,0,0,1,.66.11,1,1,0,0,1,.33.42,5.76,5.76,0,0,1,.41,1.28l.12.51h2.55v-.45h-1.8Z" transform="translate(0 0)" fill="#515154"/><path d="M144.46,135.13a10.68,10.68,0,0,0-.55-1.39,2.06,2.06,0,0,0-.39-.58.7.7,0,0,0-.3-.16,2.87,2.87,0,0,0-.72-.07h-.11l-3.14,0v.43l2,0h.11a3.37,3.37,0,0,1,.84.08,1.14,1.14,0,0,1,.48.27,2.53,2.53,0,0,1,.48.7,11.17,11.17,0,0,1,.58,1.45l0,.08h1.84v.37h.85v-.43l-1.77,0Z" transform="translate(0 0)" fill="#515154"/><path d="M141.42,137.81c0,.18-.08.35-.12.49a.93.93,0,0,0,.28-.05.51.51,0,0,0,.15-.21,4,4,0,0,0,.25-.75h-.45Z" transform="translate(0 0)" fill="#515154"/><path d="M158.5,151.44a9.8,9.8,0,0,1-3.55-.78,7.66,7.66,0,0,1-2.85-2.15,9.76,9.76,0,0,1-1.78-3.47,16.82,16.82,0,0,1-.6-4.75,15,15,0,0,1,1.07-5.9,10.52,10.52,0,0,1,.52-1,9.51,9.51,0,0,0-1.22,2.1,14.58,14.58,0,0,0-1,5.73,16.35,16.35,0,0,0,.58,4.63,9.3,9.3,0,0,0,1.7,3.32,7.21,7.21,0,0,0,2.68,2,9.36,9.36,0,0,0,3.39.74h.42a8.28,8.28,0,0,0,3.54-.76,9.29,9.29,0,0,1-2.43.31Z" transform="translate(0 0)" fill="#515154"/><path d="M157.79,132.73a3,3,0,0,1,2,.72,5.62,5.62,0,0,1,1.54,2.73,18.44,18.44,0,0,1,.61,5.19,17.14,17.14,0,0,1-.52,4.49,7.81,7.81,0,0,1-.47,1.26,5.39,5.39,0,0,0,1.15-2.26,16.64,16.64,0,0,0,.51-4.37,18,18,0,0,0-.59-5.06,5.21,5.21,0,0,0-1.4-2.52,2.59,2.59,0,0,0-1.72-.61h-.13a3,3,0,0,0-1.63.49h0a4.15,4.15,0,0,1,.52,0Z" transform="translate(0 0)" fill="#515154"/><path d="M171.41,148.38a9.92,9.92,0,0,0,.08-1.53V133.38a10.69,10.69,0,0,0-.06-1.4,1.11,1.11,0,0,0-.08-.33,2.36,2.36,0,0,0-.71-.24l-.84-.21v-1.4h0l-.63,0v1.9l.5.13a3.62,3.62,0,0,1,.78.26.5.5,0,0,1,.2.18,1.32,1.32,0,0,1,.15.5,11.18,11.18,0,0,1,.06,1.47v13.48c0,.41,0,.76,0,1a2.32,2.32,0,0,0,.56-.19A1.31,1.31,0,0,0,171.41,148.38Z" transform="translate(0 0)" fill="#515154"/><path d="M182.86,152.5l-.3-.5c-.38-.64-.75-1.32-1.09-2s-.65-1.4-1-2.1l-1.27-2.76a16.74,16.74,0,0,0-.88-1.71,2.09,2.09,0,0,0-.41-.53.76.76,0,0,0-.27-.14,3.62,3.62,0,0,0-.79-.06h-.47v.48l.26,0a1.2,1.2,0,0,1,.43.21,2.49,2.49,0,0,1,.52.64,17.7,17.7,0,0,1,.9,1.76l1.27,2.77q.48,1.06,1,2.1c.33.7.69,1.38,1.07,2l.18.3.35,0,4,.28.71.05v-.52l-3.62-.26Z" transform="translate(0 0)" fill="#515154"/><path d="M169.8,151.71v-1.61l-.14,0-.52.12v1.92l.63,0,6.08.35.7,0v-.51l-5.7-.33Z" transform="translate(0 0)" fill="#515154"/><path d="M180.4,133a2,2,0,0,0-.92-1,4.1,4.1,0,0,0-2-.28l-1.06.07v.37a4.41,4.41,0,0,1,2.16.33,2.4,2.4,0,0,1,1.12,1.18,5.53,5.53,0,0,1,.41,2.29,6.39,6.39,0,0,1-.35,2.29l0,.1a2.89,2.89,0,0,0,.74-1.15,6,6,0,0,0,.32-2.13A5.09,5.09,0,0,0,180.4,133Z" transform="translate(0 0)" fill="#515154"/><path d="M201.74,153.9l-.46-.68a6.77,6.77,0,0,1-.92.37l.64,1,.26.39,2.08-.54v-.14l-1.16.3Z" transform="translate(0 0)" fill="#515154"/><path d="M197.2,153.89a7.83,7.83,0,0,1-6.35-4c-1.34-2.3-2-5.43-2-9.57a20.3,20.3,0,0,1,1.07-6.87,13.62,13.62,0,0,1,1-2.24,12.46,12.46,0,0,0-1.74,3.27,19.89,19.89,0,0,0-1,6.72c0,4.07.63,7.12,1.94,9.35a7.4,7.4,0,0,0,6,3.82,7.71,7.71,0,0,0,2.57-.16,6.27,6.27,0,0,0,1.18-.45A8.27,8.27,0,0,1,197.2,153.89Z" transform="translate(0 0)" fill="#515154"/><path d="M201.13,133.3a8.43,8.43,0,0,0-.8-2.27,1.88,1.88,0,0,0-.78-.8,2.86,2.86,0,0,0-1.34-.15,2.66,2.66,0,0,0-1.29.47l.15,0a3.22,3.22,0,0,1,1.55.19,2.3,2.3,0,0,1,1,1,8.82,8.82,0,0,1,.85,2.39l.13.54,2.61-.13v-.39l-1.85.09Z" transform="translate(0 0)" fill="#515154"/><path d="M200,147.58v-1.12a14,14,0,0,0-.12-2.22,1.45,1.45,0,0,0-.24-.66,1.49,1.49,0,0,0-.65-.35l-.75-.26v-1.47h-.66v2l.45.15a1.84,1.84,0,0,1,.84.48,1.88,1.88,0,0,1,.34.86,14.59,14.59,0,0,1,.13,2.3v1.12a5.84,5.84,0,0,1-.16,1.48,1,1,0,0,0,.3-.22A3.28,3.28,0,0,0,200,147.58Z" transform="translate(0 0)" fill="#515154"/><path d="M207.81,154.58V152.8l-.17.05-.5.13v2.08l.6.06c4.42.44,8.9.93,13.32,1.44l.72.08,0-.56c-4.33-.5-8.69-1-13-1.4Z" transform="translate(0 0)" fill="#515154"/><path d="M219.89,132.11c-.13-.65-.28-1.23-.42-1.73a8,8,0,0,0-.41-1.13,1.81,1.81,0,0,0-.32-.49.23.23,0,0,0-.13-.07,2.39,2.39,0,0,0-.65,0l-3.55.34v.34l2.4-.23a2.84,2.84,0,0,1,.78,0,.66.66,0,0,1,.36.19,2.24,2.24,0,0,1,.41.62,8.38,8.38,0,0,1,.44,1.2c.15.51.3,1.11.43,1.77l.12.57,2.61-.17v-.37l-1.86.12Z" transform="translate(0 0)" fill="#515154"/><path d="M218.8,151.36a3,3,0,0,0,.39-.79,10.55,10.55,0,0,0,.37-1.31c.09-.42.21-1,.36-1.75l-.48,0-.11.57c-.19,1-.34,1.69-.45,2.19a11.49,11.49,0,0,1-.37,1.3h.07A.47.47,0,0,0,218.8,151.36Z" transform="translate(0 0)" fill="#515154"/><path d="M216.93,137.08a8.77,8.77,0,0,0,.33-1.39l-.52,0-.09.54c-.08.52-.17.94-.25,1.29a.79.79,0,0,0,.3-.05A1,1,0,0,0,216.93,137.08Z" transform="translate(0 0)" fill="#515154"/><path d="M209.41,150.8a17.76,17.76,0,0,0,.08-2V131.48c0-.87,0-1.5-.06-1.88a2.09,2.09,0,0,0-.13-.59.27.27,0,0,0-.07-.09,2.77,2.77,0,0,0-.63-.24l-.79-.23v-1.58h-.07l-.6.06V129l.48.14a3,3,0,0,1,.75.29.67.67,0,0,1,.22.26,2.37,2.37,0,0,1,.17.74c0,.39.07,1,.07,1.93v17.28c0,.8,0,1.42-.06,1.86a1.75,1.75,0,0,0,.51-.21A1.33,1.33,0,0,0,209.41,150.8Z" transform="translate(0 0)" fill="#515154"/><path d="M217.33,143.78a9.64,9.64,0,0,0-.39-1.71,1.29,1.29,0,0,0-.24-.45,1.43,1.43,0,0,0-.32,0h-2V142h.87a1,1,0,0,1,.6.13,1.5,1.5,0,0,1,.38.64,10.09,10.09,0,0,1,.41,1.79l.09.55,2.59.07v-.47l-1.86,0Z" transform="translate(0 0)" fill="#515154"/><path d="M44.6,138.2a6.92,6.92,0,0,0,1.4-2.28,8.82,8.82,0,0,0,.53-3.19,8.36,8.36,0,0,0-.75-3.71,5.84,5.84,0,0,0-2.33-2.46,9.92,9.92,0,0,0-3.95-1.15q-3.94-.42-7.87-.88l-.74-.09v2.21l.35.19a4.08,4.08,0,0,1,.8.51,1.23,1.23,0,0,1,.28.43,3.23,3.23,0,0,1,.19.89c0,.43.07,1.14.07,2.11v8.9H43.83c-.17-.13-.35-.25-.54-.36A8.61,8.61,0,0,0,44.6,138.2Zm-3.31-1.41a3.33,3.33,0,0,1-2.82,1.2h0l-1.86,0v-9.62l.64,0c.58,0,1.05.06,1.41.09a5.56,5.56,0,0,1,1.5.35,3.06,3.06,0,0,1,1.11.74,3.47,3.47,0,0,1,.74,1.29,6.57,6.57,0,0,1,.29,2.1A6.14,6.14,0,0,1,41.29,136.79Z" transform="translate(0 0)" fill="#00668c"/><path d="M32.58,149.46a21.51,21.51,0,0,1-.09,2.31,2.23,2.23,0,0,1-.29.95,2.43,2.43,0,0,1-.94.67l-.37.18v2.23l.74-.09q3.71-.43,7.41-.83a10.11,10.11,0,0,0,4.07-1.26,6.92,6.92,0,0,0,2.7-3,10.47,10.47,0,0,0,.94-4.71,8.24,8.24,0,0,0-1.1-4.32,6.58,6.58,0,0,0-1.82-2H32.58Zm5.59-8.31,0-.66v.66a5.19,5.19,0,0,1,2.58.53,3,3,0,0,1,1.3,1.55,7.93,7.93,0,0,1,.46,2.94,9.3,9.3,0,0,1-.43,3A3.57,3.57,0,0,1,40.82,151a5.28,5.28,0,0,1-2.6.82c-.58.05-1.12.08-1.62.09V141.15Z" transform="translate(0 0)" fill="#005377"/><path d="M64.92,134.36A6.82,6.82,0,0,0,63,129.21a8.77,8.77,0,0,0-5.45-2.08l-7.13-.64-.73-.07v2.08l.39.18a4.11,4.11,0,0,1,.8.44,1,1,0,0,1,.26.34,2.34,2.34,0,0,1,.18.73,17,17,0,0,1,.07,1.81v7.67H63a6.91,6.91,0,0,0,.76-.94A7.82,7.82,0,0,0,64.92,134.36Zm-4.58,2.81a3.65,3.65,0,0,1-.89,1.45,2.87,2.87,0,0,1-1.17.69,6.88,6.88,0,0,1-1.85.2h-1v-9.59c.4,0,.87,0,1.39.08a4.56,4.56,0,0,1,2.24.66,3.25,3.25,0,0,1,1.18,1.49,6.77,6.77,0,0,1,.42,2.55A7.35,7.35,0,0,1,60.33,137.17Z" transform="translate(0 0)" fill="#00668c"/><path d="M51.42,148.23a16,16,0,0,1-.09,2,1.61,1.61,0,0,1-.26.76,2.38,2.38,0,0,1-.93.57l-.4.17v2.1l.73-.07,6.08-.55.61-.05v-2l-.49-.13a3.11,3.11,0,0,1-.76-.28.56.56,0,0,1-.2-.22,2,2,0,0,1-.16-.65,15.6,15.6,0,0,1-.07-1.83v-5.6h1a3.31,3.31,0,0,1,.77.06,1.15,1.15,0,0,1,.42.23,2.68,2.68,0,0,1,.52.71,20.85,20.85,0,0,1,.91,1.91l1.27,2.91q.48,1.1,1,2.14a19.69,19.69,0,0,0,1.07,2l.21.34.4,0,4-.3.61,0v-2l-.58-.07a1.69,1.69,0,0,1-.79-.27,3,3,0,0,1-.66-.77,15.48,15.48,0,0,1-.92-1.76l-1.29-2.78A13.58,13.58,0,0,0,61.93,142a5.25,5.25,0,0,0-.83-.85A8.06,8.06,0,0,0,63,139.67H51.42Z" transform="translate(0 0)" fill="#005377"/><path d="M81.09,141.68l-4.25.05.66-2.06H74.32c-.78,2.31-1.55,4.62-2.31,6.93a12,12,0,0,1-1.09,2.54,1.79,1.79,0,0,1-1,.87l-.5.13v2l.71,0,6.15-.4.62,0v-2l-.6-.06a1.64,1.64,0,0,1-1-.33,1.36,1.36,0,0,1-.24-.93,5.55,5.55,0,0,1,.1-1,17.09,17.09,0,0,1,.47-1.75l.35-1.13,5.72-.11.4,1.5c.14.48.25.92.32,1.3a5.48,5.48,0,0,1,.1,1,1.33,1.33,0,0,1-.1.59.62.62,0,0,1-.26.27,4,4,0,0,1-.92.33l-.49.13v2l.7,0,6.64-.34.63,0v-1.91l-.53-.11a1.56,1.56,0,0,1-.72-.31,2,2,0,0,1-.47-.71,15.4,15.4,0,0,1-.58-1.71c-.64-2.19-1.27-4.4-1.9-6.61h-4Z" transform="translate(0 0)" fill="#005377"/><path d="M81.45,128.56l-3.25-.19-.17.47c-1.26,3.58-2.49,7.2-3.71,10.83H77.5c.55-1.73,1.1-3.45,1.65-5.15.46,1.73.93,3.44,1.39,5.15h4c-1-3.56-2-7.12-3-10.65Z" transform="translate(0 0)" fill="#00668c"/><path d="M93.1,146.49A9.73,9.73,0,0,1,93,148a.87.87,0,0,1-.21.47,2.46,2.46,0,0,1-.92.41l-.47.14v1.91l.69,0,5.26-.21.64,0v-1.88l-.52-.12a3.15,3.15,0,0,1-.78-.25.49.49,0,0,1-.2-.18,1.3,1.3,0,0,1-.13-.47,10.4,10.4,0,0,1-.06-1.33v-3c0-1.26,0-2.52,0-3.78H93.1Z" transform="translate(0 0)" fill="#005377"/><path d="M104.72,141.62q0,.49,0,.91l-.45-.75L103,139.67H98.45c2,3.34,4.09,6.81,6.4,10.54l.2.32,2.83-.07V139.67h-3.2C104.69,140.3,104.7,140.94,104.72,141.62Z" transform="translate(0 0)" fill="#005377"/><path d="M97.17,129.85l-.18-.32h-.37l-4.51-.18-.69,0v1.9l.46.15a4.26,4.26,0,0,1,.8.32.66.66,0,0,1,.22.21,1.28,1.28,0,0,1,.14.48,9.71,9.71,0,0,1,.07,1.38v5.92h3.19c0-.7,0-1.39,0-2.1s0-1.15,0-1.64l.56,1,1.65,2.78H103C101,136.3,99,133.06,97.17,129.85Z" transform="translate(0 0)" fill="#00668c"/><path d="M108,132.67a1,1,0,0,1,.13-.4.56.56,0,0,1,.2-.16,3.93,3.93,0,0,1,.77-.24l.51-.12v-1.86h-.65l-5.19-.13-.68,0v1.87l.47.14a4.13,4.13,0,0,1,.79.3.52.52,0,0,1,.19.17,1.13,1.13,0,0,1,.12.43,12.08,12.08,0,0,1,.05,1.35v3c0,.84,0,1.75,0,2.71h3.2V134A7.86,7.86,0,0,1,108,132.67Z" transform="translate(0 0)" fill="#00668c"/><path d="M127.72,132.51a8.62,8.62,0,0,0-3.18-1.83,15.42,15.42,0,0,0-4.67-.63l-6.32-.08h-.68v1.86l.48.14a4.43,4.43,0,0,1,.81.28.62.62,0,0,1,.21.18,1,1,0,0,1,.13.41,8.69,8.69,0,0,1,.06,1.3v5.55h4v-7.09h1.19a7.14,7.14,0,0,1,3.36.77,4.85,4.85,0,0,1,2.1,2.32,9.93,9.93,0,0,1,.77,4h4.28a12.45,12.45,0,0,0-.63-4.14A7.56,7.56,0,0,0,127.72,132.51Z" transform="translate(0 0)" fill="#00668c"/><path d="M126,140a16,16,0,0,1-.17,2.45,8.74,8.74,0,0,1-.53,2,5.66,5.66,0,0,1-.9,1.51,4.11,4.11,0,0,1-1.2,1,5.86,5.86,0,0,1-1.56.55,10.52,10.52,0,0,1-2,.19h-1v-8h-4v6.44a8.73,8.73,0,0,1-.06,1.29,1.12,1.12,0,0,1-.13.42.58.58,0,0,1-.21.18,4,4,0,0,1-.81.28l-.49.13v1.87h.68l5.22-.07a26.82,26.82,0,0,0,4-.27,9.8,9.8,0,0,0,2.76-.85A8.17,8.17,0,0,0,128,147.2a8.66,8.66,0,0,0,1.76-3.2,14.37,14.37,0,0,0,.59-4.29v0H126C126,139.77,126,139.86,126,140Z" transform="translate(0 0)" fill="#005377"/><path d="M142.64,136.4l-.11.52a5.93,5.93,0,0,1-.4,1.31.92.92,0,0,1-.33.4,1.46,1.46,0,0,1-.69.12h-2.29v-6.21l3.57-.05h.11a3.34,3.34,0,0,1,.84.08,1.13,1.13,0,0,1,.48.27,2.52,2.52,0,0,1,.48.7,11.17,11.17,0,0,1,.58,1.45l.15.46,2.56,0v-5.59l-.68,0c-4.35.11-8.78.18-13.15.21h-.66v1.85l.49.13a4.39,4.39,0,0,1,.8.26.54.54,0,0,1,.2.17,1,1,0,0,1,.13.41,8.51,8.51,0,0,1,.06,1.28v5.52h10.41v-3.29Z" transform="translate(0 0)" fill="#00668c"/><path d="M134.79,146.08a8.22,8.22,0,0,1-.08,1.39.67.67,0,0,1-.18.39,2.39,2.39,0,0,1-.91.33l-.51.12v1.86h.66l6.4.08h.67v-1.88l-.51-.12a6.64,6.64,0,0,1-.88-.26.77.77,0,0,1-.34-.23,1.27,1.27,0,0,1-.2-.51,6.34,6.34,0,0,1-.09-1.2V141.3h2.31a1.38,1.38,0,0,1,.66.11,1,1,0,0,1,.33.42,5.75,5.75,0,0,1,.41,1.28l.12.51h2.55v-4H134.79Z" transform="translate(0 0)" fill="#005377"/><path d="M163.05,140.48a17.14,17.14,0,0,1-.52,4.49,5.5,5.5,0,0,1-1.45,2.66,2.93,2.93,0,0,1-2.06.76h-.14a3.63,3.63,0,0,1-3.22-2.09,13.63,13.63,0,0,1-1.21-6.42c0-.07,0-.13,0-.21h-4.28c0,.2,0,.4,0,.61a16.35,16.35,0,0,0,.58,4.63,9.31,9.31,0,0,0,1.7,3.32,7.21,7.21,0,0,0,2.68,2,9.38,9.38,0,0,0,3.39.74h.42a8,8,0,0,0,4.24-1.12,7.89,7.89,0,0,0,3.12-3.82,16.11,16.11,0,0,0,1.06-6.21c0-.06,0-.12,0-.18H163C163,139.94,163.05,140.2,163.05,140.48Z" transform="translate(0 0)" fill="#005377"/><path d="M163.52,130.32a8.12,8.12,0,0,0-4.7-1.09,8.53,8.53,0,0,0-4.59,1.48,8.69,8.69,0,0,0-3,3.84,14.2,14.2,0,0,0-1,5.12h4.28a19.44,19.44,0,0,1,.26-3.2,8.39,8.39,0,0,1,.83-2.52,4.32,4.32,0,0,1,1.33-1.54,3.48,3.48,0,0,1,1.88-.57h.13a3,3,0,0,1,2,.72,5.61,5.61,0,0,1,1.54,2.73,17.17,17.17,0,0,1,.59,4.38h4.31a16,16,0,0,0-.93-5.66A7.37,7.37,0,0,0,163.52,130.32Z" transform="translate(0 0)" fill="#00668c"/><path d="M184.23,138.82a7.47,7.47,0,0,0,1.2-4.28c0-2.21-.65-3.84-1.93-4.83s-3-1.37-5.5-1.21-4.76.29-7.13.41l-.63,0v1.9l.5.13a3.61,3.61,0,0,1,.78.26.5.5,0,0,1,.2.18,1.32,1.32,0,0,1,.15.5,11.19,11.19,0,0,1,.06,1.47v6.3h11.59A6.33,6.33,0,0,0,184.23,138.82Zm-3.38-1.47a3.3,3.3,0,0,1-.87,1.34,2.86,2.86,0,0,1-1.17.63,7.74,7.74,0,0,1-1.87.18h-1v-8.13l1.48-.11a4.49,4.49,0,0,1,2.23.32,2.4,2.4,0,0,1,1.12,1.18,5.53,5.53,0,0,1,.41,2.29A6.39,6.39,0,0,1,180.85,137.36Z" transform="translate(0 0)" fill="#00668c"/><path d="M171.93,146.86a10.8,10.8,0,0,1-.08,1.6.86.86,0,0,1-.2.48,2.09,2.09,0,0,1-.88.32l-.52.12v1.92l.63,0,6.08.35.7,0v-2l-.44-.16a4.3,4.3,0,0,1-.8-.35.72.72,0,0,1-.23-.24,1.66,1.66,0,0,1-.15-.55,12,12,0,0,1-.07-1.56V142.2h.92a4,4,0,0,1,.9.07,1.19,1.19,0,0,1,.43.21,2.46,2.46,0,0,1,.52.65,17.5,17.5,0,0,1,.91,1.76l1.27,2.77q.48,1.06,1,2.1c.33.7.69,1.38,1.07,2l.18.3.35,0,4,.28.71.05v-2.06l-.49-.13a2.09,2.09,0,0,1-.84-.41,3.72,3.72,0,0,1-.69-.87,18.39,18.39,0,0,1-.93-1.83l-1.3-2.77a12.5,12.5,0,0,0-1.48-2.55,4.88,4.88,0,0,0-.75-.75,7.5,7.5,0,0,0,1.84-1.39H171.93Z" transform="translate(0 0)" fill="#005377"/><path d="M195.88,130.88a3.36,3.36,0,0,1,2.31-1.24,3.23,3.23,0,0,1,1.55.19,2.3,2.3,0,0,1,1,1,8.79,8.79,0,0,1,.85,2.39l.13.54,2.61-.13v-6.38l-.51-.12a18,18,0,0,0-2.86-.45,17.3,17.3,0,0,0-2.68,0,8.24,8.24,0,0,0-4.82,2.08,11.33,11.33,0,0,0-3.08,4.78,19.47,19.47,0,0,0-1,6.12h4.24a21.63,21.63,0,0,1,.63-5.29A8.6,8.6,0,0,1,195.88,130.88Z" transform="translate(0 0)" fill="#00668c"/><path d="M189.3,140.28c0,4.07.63,7.13,1.94,9.35a7.4,7.4,0,0,0,6,3.82,7.71,7.71,0,0,0,2.57-.16,6.31,6.31,0,0,0,1.61-.66l.69,1,.26.39,2.08-.54v-7.1c0-.77,0-1.36,0-1.76a4.23,4.23,0,0,1,.16-.92,1.28,1.28,0,0,1,.26-.48,1.53,1.53,0,0,1,.55-.34l.4-.17v-2l-7.15-.06v2l.45.15a1.83,1.83,0,0,1,.84.48,1.86,1.86,0,0,1,.34.86,14.6,14.6,0,0,1,.13,2.3v1.12a3.62,3.62,0,0,1-.65,2.44,2.32,2.32,0,0,1-2,.54,3.1,3.1,0,0,1-2.23-1.22,8.49,8.49,0,0,1-1.52-3.53,27,27,0,0,1-.54-5.78c0-.13,0-.24,0-.36h-4.24C189.31,139.88,189.3,140.07,189.3,140.28Z" transform="translate(0 0)" fill="#005377"/><path d="M220.45,147.16c-.19,1-.34,1.69-.45,2.19a11.61,11.61,0,0,1-.39,1.36,3.39,3.39,0,0,1-.46.91.88.88,0,0,1-.43.32,2.39,2.39,0,0,1-.88,0l-3.88-.37V141.14h2.42a1,1,0,0,1,.6.13,1.49,1.49,0,0,1,.38.64,10.08,10.08,0,0,1,.41,1.79l.09.54,2.59.07v-4.65h-10.5v9.08a18.46,18.46,0,0,1-.09,2.1,1.43,1.43,0,0,1-.25.73,1.73,1.73,0,0,1-.85.38l-.5.13v2.08l.6.06c4.42.44,8.9.93,13.32,1.44l.72.08.32-9-2.65-.15Z" transform="translate(0 0)" fill="#005377"/><path d="M220.44,134.73l-2.59.09-.09.54a10.77,10.77,0,0,1-.42,1.87,1.28,1.28,0,0,1-.37.6,1.07,1.07,0,0,1-.6.14L214,138v-9.4l4-.37a2.84,2.84,0,0,1,.78,0,.66.66,0,0,1,.36.19,2.25,2.25,0,0,1,.41.62,8.32,8.32,0,0,1,.44,1.2c.15.51.3,1.11.43,1.77l.12.57,2.61-.17v-8l-.74.09c-4.46.52-9,1-13.45,1.46l-.6.06v2.06l.48.14a3,3,0,0,1,.75.29.67.67,0,0,1,.22.26,2.38,2.38,0,0,1,.17.74c0,.39.07,1,.07,1.93v8.2h10.5Z" transform="translate(0 0)" fill="#00668c"/><polygon points="131.03 108.25 145.32 101.33 130.32 106.54 140.88 94.67 129.01 105.23 134.23 90.23 127.3 104.52 126.38 88.67 125.46 104.52 118.53 90.23 123.75 105.23 111.88 94.67 122.44 106.54 107.44 101.33 121.73 108.25 105.88 109.17 121.73 110.09 131.03 110.09 146.88 109.17 131.03 108.25" fill="#f15834"/><path d="M98.48,112.82c.6,2.75,6,4.28,6,4.28l9.88,2.81a5.65,5.65,0,0,1,5.11,3.41v2.39h15v-3.41l6.81-3.07V115.5C121.33,118.09,102,113.69,98.48,112.82Z" transform="translate(0 0)" fill="#005377"/><path d="M98.05,110.71a7.62,7.62,0,0,0,.43,2.11c3.54.87,22.86,5.27,42.84,2.68v-4.78Z" transform="translate(0 0)" fill="#00668c"/><path d="M154.95,110.88H142v4.52a74.86,74.86,0,0,0,12.95-2.91Z" transform="translate(0 0)" fill="#00668c"/><path d="M142,115.4v2l12.95-4.3v-.57A74.86,74.86,0,0,1,142,115.4Z" transform="translate(0 0)" fill="#005377"/></svg>