<svg id="Layer_1" data-name="Layer 1" xmlns="http://www.w3.org/2000/svg" viewBox="0 0 253 253"><title>dopefresh</title><rect width="253" height="253" fill="#fff"/><path d="M71.57,157.62V159H69.19V165H67.86V159H65.49v-1.33Z" transform="translate(0 0)" fill="#231f20"/><path d="M74.11,160.7h3.13V162H74.11v1.88h3.6V165H72.77v-7.42h4.94v1.2h-3.6Z" transform="translate(0 0)" fill="#231f20"/><path d="M84.49,163.44v1.24a5.94,5.94,0,0,1-2.25.45c-1.58,0-3.46-.65-3.46-3.8s1.88-3.8,3.46-3.8a6,6,0,0,1,2.25.44v1.25a5,5,0,0,0-2.12-.49c-1.17,0-2.25.31-2.25,2.6s1.08,2.6,2.25,2.6A5,5,0,0,0,84.49,163.44Z" transform="translate(0 0)" fill="#231f20"/><path d="M91.77,157.62V165H90.43V162H87.28V165H85.95v-7.42h1.33v3.08h3.15v-3.08Z" transform="translate(0 0)" fill="#231f20"/><path d="M100.32,157.62V165H98.83L95,159.5V165H93.66v-7.42h1.51L99,163.12v-5.49Z" transform="translate(0 0)" fill="#231f20"/><path d="M108.89,161.34c0,3.14-1.89,3.79-3.47,3.79s-3.46-.65-3.46-3.79,1.88-3.8,3.46-3.8S108.89,158.19,108.89,161.34Zm-1.33,0c0-2.3-1-2.61-2.14-2.61s-2.12.31-2.12,2.61,1,2.63,2.12,2.63S107.55,163.64,107.55,161.33Z" transform="translate(0 0)" fill="#231f20"/><path d="M115.37,163.77V165h-4.9v-7.42h1.33v6.15Z" transform="translate(0 0)" fill="#231f20"/><path d="M123.17,161.34c0,3.14-1.89,3.79-3.47,3.79s-3.46-.65-3.46-3.79,1.88-3.8,3.46-3.8S123.17,158.19,123.17,161.34Zm-1.33,0c0-2.3-1-2.61-2.14-2.61s-2.12.31-2.12,2.61,1,2.63,2.12,2.63S121.83,163.64,121.83,161.33Z" transform="translate(0 0)" fill="#231f20"/><path d="M130.64,160.79v3.7a6.1,6.1,0,0,1-2.68.63c-1.58,0-3.46-.65-3.46-3.79s1.88-3.8,3.46-3.8a6.75,6.75,0,0,1,2.45.5v1.22a5.68,5.68,0,0,0-2.31-.53c-1.17,0-2.26.32-2.26,2.6s1.09,2.61,2.26,2.61a5.07,5.07,0,0,0,1.31-.19V162h-1.75v-1.18Z" transform="translate(0 0)" fill="#231f20"/><path d="M135.85,161.86V165h-1.33v-3.18l-2.92-4.24h1.61l2,3,2-3h1.61Z" transform="translate(0 0)" fill="#231f20"/><path d="M148.45,163.08a2.29,2.29,0,0,1-2.56,2,4.57,4.57,0,0,1-2.45-.63v-1.36a3.49,3.49,0,0,0,2.13.71c.77,0,1.53-.17,1.53-.86,0-1.65-3.77-.71-3.77-3.3,0-1.51,1.26-2.16,2.65-2.16a4.29,4.29,0,0,1,2,.51v1.3a3.29,3.29,0,0,0-1.84-.57c-.7,0-1.47.21-1.47.88C144.68,161,148.45,160.06,148.45,163.08Z" transform="translate(0 0)" fill="#231f20"/><path d="M156.52,161.34c0,3.14-1.89,3.79-3.47,3.79s-3.46-.65-3.46-3.79,1.88-3.8,3.46-3.8S156.52,158.19,156.52,161.34Zm-1.33,0c0-2.3-1-2.61-2.14-2.61s-2.12.31-2.12,2.61,1,2.63,2.12,2.63S155.19,163.64,155.19,161.33Z" transform="translate(0 0)" fill="#231f20"/><path d="M163,163.77V165h-4.9v-7.42h1.33v6.15Z" transform="translate(0 0)" fill="#231f20"/><path d="M170.42,157.62v4.28a3.11,3.11,0,1,1-6.22,0v-4.28h1.33V162c0,1.31.55,1.89,1.77,1.89s1.78-.58,1.78-1.89v-4.39Z" transform="translate(0 0)" fill="#231f20"/><path d="M177.71,157.62V159h-2.38V165H174V159h-2.37v-1.33Z" transform="translate(0 0)" fill="#231f20"/><path d="M178.91,165v-7.42h1.33V165Z" transform="translate(0 0)" fill="#231f20"/><path d="M188.78,161.34c0,3.14-1.89,3.79-3.47,3.79s-3.46-.65-3.46-3.79,1.88-3.8,3.46-3.8S188.78,158.19,188.78,161.34Zm-1.33,0c0-2.3-1-2.61-2.13-2.61s-2.12.31-2.12,2.61,1,2.63,2.12,2.63S187.44,163.64,187.44,161.33Z" transform="translate(0 0)" fill="#231f20"/><path d="M197,157.62V165h-1.49l-3.84-5.54V165h-1.34v-7.42h1.51l3.82,5.49v-5.49Z" transform="translate(0 0)" fill="#231f20"/><path d="M203.74,163.08a2.29,2.29,0,0,1-2.56,2,4.57,4.57,0,0,1-2.45-.63v-1.36a3.49,3.49,0,0,0,2.13.71c.77,0,1.54-.17,1.54-.86,0-1.65-3.77-.71-3.77-3.3,0-1.51,1.26-2.16,2.65-2.16a4.29,4.29,0,0,1,2,.51v1.3a3.29,3.29,0,0,0-1.83-.57c-.7,0-1.47.21-1.47.88C200,161,203.74,160.06,203.74,163.08Z" transform="translate(0 0)" fill="#231f20"/><path d="M84.2,104.77c0-.06,0-.12,0-.18l0,0Z" transform="translate(0 0)" fill="none"/><path d="M98,119.81l-.05.09a17.55,17.55,0,0,1-2.8,2.87C96.2,122.54,97.15,121.56,98,119.81Z" transform="translate(0 0)" fill="none"/><path d="M65.75,127A33.15,33.15,0,0,0,69.19,125c3.75-2.6,8-5.57,10.55-9.54a5.52,5.52,0,0,0,.31-.59c-.48-3.43-2.88-7.08-5-9.26-5.13-5.25-12.92-7.6-20-7.72a23.17,23.17,0,0,0-12.77,3.11,37.14,37.14,0,0,0-4,2.81,16.28,16.28,0,0,0-1.87,1.67,14,14,0,0,0,11.37,7.81l-.21-.13c-.43-.25-.19-2,.22-4-.2-1.25.65-4.84,1.26-7a11.81,11.81,0,0,1,.66-2C56.74,104.21,63.19,116.51,65.75,127Z" transform="translate(0 0)" fill="none"/><path d="M159.2,100.56l-.19,2-.46,5.65.07.58.07.13,1.74.45a27.29,27.29,0,0,0,4.37.27,55.56,55.56,0,0,0-3-4.9Z" transform="translate(0 0)" fill="none"/><path d="M111.11,99.78v-.25l-.33.37a4.63,4.63,0,0,1-1.8,1.4l.24,0Q111.1,101.34,111.11,99.78Z" transform="translate(0 0)" fill="none"/><path d="M110.37,103.46a4.22,4.22,0,0,1-3.25,1.72l3.64,16.17-.15.18,0,.19-.94,1.15.54,2.4-2.55,3.12c.75-.1,1.5-.21,2.26-.3a137.38,137.38,0,0,1,31.61.08c-.17-6.12-2.2-12.85-3.85-18.31l-.52-1.73c-.39-1.31-.88-2.81-1.4-4.39-.44-1.35-.91-2.77-1.37-4.26l-.06-.21-.22,0c-1.46-.29-3-.58-4.54-.86,1.12,5.54,1.11,8,.72,9.08a2.44,2.44,0,0,1-.32.82c.18,2.5-.18,3.43-.64,3.83a9.58,9.58,0,0,1-1.46,3l-.11.16-.19,0-.25,0h-.15c-.3.69-.69,1.53-1.18,2.55l.53.15.56.14-.23.53c-.32.74-.75,1.68-1.31,2.83l-.1.13-2.08,2.05a4.47,4.47,0,0,1-2,1.25l-3,.57a4.53,4.53,0,0,1-.83.08,7.59,7.59,0,0,1-4.87-2.31,13.68,13.68,0,0,1-2.45-4.63l-.09-.4a11.22,11.22,0,0,1,.28-4.57,12.91,12.91,0,0,1,.3-3.1l-1.17-.4-.06-.27c0-.2-.08-.41,1-3.09l-.56-.19-.06-.27c0-.11,0-.22.12-.74a25.34,25.34,0,0,1,1.2-3.19Q110.87,102.92,110.37,103.46Z" transform="translate(0 0)" fill="none"/><path d="M165.53,113.17l.11-.43a2.17,2.17,0,0,0-.08-.84l-.09.08-2.06,1,.79.65C165,113.55,165.47,113.41,165.53,113.17Z" transform="translate(0 0)" fill="none"/><path d="M104.55,93.83c.33-.33.6-.58.85-.79l-1.19-.76Z" transform="translate(0 0)" fill="none"/><path d="M128.5,94.56l-.29-.05.18.27Z" transform="translate(0 0)" fill="none"/><path d="M120.82,116.32l1-.19a5,5,0,0,0,2.62-1.38c-2.09-.52-5.22-1.4-9.45-2.68l-.38-.13a11.77,11.77,0,0,0,1.77,3A5.46,5.46,0,0,0,120.82,116.32Z" transform="translate(0 0)" fill="none"/><path d="M123.61,101.7a4.11,4.11,0,0,0-2.87-.73c-.6.12-1.52.63-2.84,2.14,2.07.67,4.66,1.4,7.73,2.2l-.14-.74A7.15,7.15,0,0,0,123.61,101.7Z" transform="translate(0 0)" fill="none"/><path d="M106.78,96.4a3.76,3.76,0,0,0,2.95,1,3.06,3.06,0,0,0,.83-.1A11.87,11.87,0,0,0,106.91,94l-.59-.38L105.4,95C105.48,95.54,105.93,96,106.78,96.4Z" transform="translate(0 0)" fill="none"/><path d="M200.81,117.3l.51,1.09c0-.1,0-.2,0-.31l-1-3.77a3.28,3.28,0,0,1-.78-1.51,12.26,12.26,0,0,0-3.92-4.89h0a24.46,24.46,0,0,0,1.54,2.81A29.42,29.42,0,0,0,200.81,117.3Z" transform="translate(0 0)" fill="none"/><path d="M176.92,108.22a4.6,4.6,0,0,0,3.92.05l.77-.39a4.18,4.18,0,0,0,1.38-1.15c-1.6.09-4.13.13-7.64.11A8.36,8.36,0,0,0,176.92,108.22Z" transform="translate(0 0)" fill="none"/><path d="M199,131.72c-.51.13-1.06.27-1.67.41a2.09,2.09,0,0,1-.48,0,3.3,3.3,0,0,0,1.91.69A2,2,0,0,0,199,131.72Z" transform="translate(0 0)" fill="none"/><path d="M196.23,104.49l-.18-.12a2,2,0,0,0-1.53-.43,7.78,7.78,0,0,0,.1.88C195.13,104.7,195.66,104.59,196.23,104.49Z" transform="translate(0 0)" fill="none"/><path d="M180.07,116.88a3.88,3.88,0,0,1-.65.26,6.41,6.41,0,0,1-4.49-.71,11.54,11.54,0,0,1-3.09-3.17l-.17-.3a10.68,10.68,0,0,1-.91-4.64,4.23,4.23,0,0,1,0-1.68l-1,0-.35,1.36,0,0-.08.33a1.19,1.19,0,0,1-.18.33,1.06,1.06,0,0,1,0,.47l.25.73-.52,2q-.16.65-3,3l.45.37c2.39,2.19,14.6,11.46,16.34,11.91l.78.41.07.15-.05.21-.09.08,0,.08-.05.21c-1.07,1-1.88,1.71-2.43,2.16a5.9,5.9,0,0,0,1.23.62l.78.41.07.15-.05.2a20.34,20.34,0,0,1-3.19,2.69l-.1,0c-2.34-.6-15.65-10.67-19.67-14.33l-2.23-1.48,0,.12-.48,3.14L154,124.57l-.1,0c-.3-.08-.22-1.41.23-4a14.92,14.92,0,0,1,.32-3.09v-1.62c-1.53-.89-2.26-1.45-2.2-1.68l2.26-2v-.05c-1.3-.77-1.92-1.27-1.87-1.48l.19-.17c-.06-.08-.1-.15-.08-.2l2.19-2c.14-1.51.3-3.45.5-5.84V102A76.56,76.56,0,0,1,141,100.57c.4,1.24.79,2.44,1.16,3.56.57,1.74,1.12,3.38,1.54,4.8l.41,1.37c1.67,5.6,3.73,12.57,3.67,18.72a197.66,197.66,0,0,1,41.59,11.76c0-.48-.09-1-.1-1.48a2.53,2.53,0,0,1,.6-1.37,17.33,17.33,0,0,1-.2-2.19,1.4,1.4,0,0,1,.12-.54,5.51,5.51,0,0,1,1.41-2.21,33.31,33.31,0,0,1-6.51-6.49q-3.42-6.38-2.35-8.08l.43-.81a5.22,5.22,0,0,1-.24-2.06,1.66,1.66,0,0,1-.24.16Z" transform="translate(0 0)" fill="none"/><path d="M169.24,103.87c0-.32.07-.68.12-1.09l.14-.46c0-.43.06-1.28.27-3.09l.1-.33v0l.26-.86,1.67,0q.39-2,.84-3.52a16,16,0,0,1,2-4.84c-4.58-.17-9.34-.48-14.32-.94l3.78,6.6A73.48,73.48,0,0,1,169.24,103.87Z" transform="translate(0 0)" fill="none"/><path d="M157,88.4,153.22,88c-4.82-.56-9.95-1.38-15.65-2.51.11,1.27.29,2.6.55,4l0,.24,1.12.22a122.42,122.42,0,0,0,16.45,2.47l0-1.66,0-1,.1-.08v-.29Z" transform="translate(0 0)" fill="none"/><path d="M178.59,96.4a3.46,3.46,0,0,0-2.5.09,4,4,0,0,0-1.47,1.76c1.65.06,3.71.07,6.15,0A6.14,6.14,0,0,0,178.59,96.4Z" transform="translate(0 0)" fill="none"/><path d="M91.06,114.94c-.52,1.2-.94,2.11-1.27,2.73A6.28,6.28,0,0,0,94.66,119l.91-.15c1-.17,1.93-1.06,2.78-2.66l-.06-3.54,0-.21q-.72-4.33-2.13-5.95-.15-.93-3.17-4-2.3-1.61-3.46-1.42a3.8,3.8,0,0,0-2.78,1.7c0,.46.11.92.19,1.42q.76,4.62,4.1,6.47c.19,0,.38.08.56.33l-.14.33,0,0q-.87,2-1.39,3c.14.09.27.19.42.27S90.88,114.68,91.06,114.94Z" transform="translate(0 0)" fill="none"/><path d="M89.31,97.67a3.56,3.56,0,0,0-2.57,2.39A6.32,6.32,0,0,1,89.31,97.67Z" transform="translate(0 0)" fill="none"/><path d="M110.26,125.28l-.54-2.4L107.94,125h-.11c-.37,0-4-15-4.84-19.85L98.51,85.28a17.23,17.23,0,0,0-2.79-4.13l-.91-1.46-1.37,1.77v.23l1.88,3a17.24,17.24,0,0,1,2.79,4.13l4.48,19.91c.81,4.53,4.05,18.11,4.74,19.7l.38-.05Z" transform="translate(0 0)" fill="#d8f0fd"/><path d="M105.41,93a2.24,2.24,0,0,1,1.05-.64l.23.44-.16.25.06.12-.27.41.59.38a11.87,11.87,0,0,1,3.66,3.31,1.31,1.31,0,0,0,.92-.75,2.11,2.11,0,0,0,0-.33v-.78q0-2.27-4.2-5l-4-2.58.95,4.42Z" transform="translate(0 0)" fill="#d8f0fd"/><path d="M111.11,99.78q0,1.55-1.88,1.54l-.24,0a4,4,0,0,1-1.62.34h-1l.8,3.54a4.22,4.22,0,0,0,3.25-1.72q.5-.54.93-1.06l.19-.45.58-.89.23.07c1.32-1.79,2-3.27,2-4.45v-.87l-.1-.72a18.49,18.49,0,0,1-3.1,4.43Z" transform="translate(0 0)" fill="#d8f0fd"/><path d="M182.74,112.16l-2.27,1.17a3.88,3.88,0,0,1-.65.26,6.41,6.41,0,0,1-4.49-.71,11.54,11.54,0,0,1-3.09-3.17l-.17-.3a10.68,10.68,0,0,1-.91-4.64,4.23,4.23,0,0,1,0-1.68l-1.44-.07-.11-.2a.88.88,0,0,1-.08-.49l-.14.46c0,.41-.09.77-.12,1.09a2.69,2.69,0,0,1,.36,1.31l.25.73-.17.67,1,0a4.23,4.23,0,0,0,0,1.68,10.68,10.68,0,0,0,.91,4.64l.17.3a11.54,11.54,0,0,0,3.09,3.17,6.41,6.41,0,0,0,4.49.71,3.88,3.88,0,0,0,.65-.26l2.27-1.17a1.66,1.66,0,0,0,.24-.16,1.86,1.86,0,0,1,.11-.41,1.72,1.72,0,0,1,.21-.64l.85-1.62a2.23,2.23,0,0,1,.94-.55l.14-.25,0-.13c.18-1.06.3-1.93.39-2.6l.06-.48H185l-1,1.81A3.79,3.79,0,0,1,182.74,112.16Z" transform="translate(0 0)" fill="#d8f0fd"/><path d="M185.59,102.81l-.14.07-.2.08c-.9.26-4.42.37-10.77.32l-1.08-.05a4.9,4.9,0,0,0,.41,1.73,20.46,20.46,0,0,0,1.54,1.88c3.51,0,6,0,7.64-.11a5.12,5.12,0,0,0,.78-1.41l.15-.36h.28c.38,0,.76,0,1.13,0h.24a8,8,0,0,0,.15-1.49,2,2,0,0,0,.13-1.48q-.09.34-.21.67Z" transform="translate(0 0)" fill="#d8f0fd"/><path d="M176.1,96.49a3.46,3.46,0,0,1,2.5-.09,6.14,6.14,0,0,1,2.19,1.86l2.22-.07-1.79-3.46A6.07,6.07,0,0,0,179,92.85a3.46,3.46,0,0,0-2.5.09c-.68.35-1.71,1.56-2.85,5.26l1,0A4,4,0,0,1,176.1,96.49Z" transform="translate(0 0)" fill="#d8f0fd"/><path d="M202,116.71q-.23-.15-.24-2.18l-1-3.77a3.28,3.28,0,0,1-.78-1.51,12.64,12.64,0,0,0-3.74-4.77c-.57.1-1.1.22-1.61.33a12.53,12.53,0,0,0,1,3.08h0a12.26,12.26,0,0,1,3.92,4.89,3.28,3.28,0,0,0,.78,1.51l1,3.77c0,.11,0,.21,0,.31.29.63.58,1.24.83,1.81l3.85-1c.33-.52.29-1.67-.1-3.43l-3.83,1Z" transform="translate(0 0)" fill="#d8f0fd"/><path d="M221.52,136.38l-1.46,3.32-4.22,15-1.1,3.26a28.23,28.23,0,0,1-4.87,2.93l-.74,2.53-.35.61.5.46q1-.19,5.06-3l1.1-3.26,4.22-15,1.46-3.32q.12-.35,2.59.29,1-.16,5.05-3c0-.12-.12-.31-.49-.58l-2.67-.68a5.83,5.83,0,0,1-1.49.69Q221.64,136,221.52,136.38Z" transform="translate(0 0)" fill="#d8f0fd"/><path d="M203.16,129.92l0,.05c-.34.54-1.73,1.12-4.14,1.75a2,2,0,0,1-.24,1.06,3.3,3.3,0,0,1-1.91-.69,13.89,13.89,0,0,1-4.24-2l-.8-.5q-2.57-1.62-6.66-6.59a27.76,27.76,0,0,1-2.33-5.34l-.43.81q-1.07,1.71,2.35,8.08a33.31,33.31,0,0,0,6.51,6.49c.53-.6,1-1.11,1-1.36a17.83,17.83,0,0,0,.17,2.09c2.18,1.35,3.68,2,4.5,1.95q5.19-1.18,5.81-2.15l0-.05,1.36.33.74-3.47Z" transform="translate(0 0)" fill="#d8f0fd"/><path d="M210.94,126.73l.06,0c.23-1.09.53-2.4.89-4a174.9,174.9,0,0,0,3.54-19.69c-.77,5.19-2.15,12.74-3,15.76Q210.59,126.62,210.94,126.73Z" transform="translate(0 0)" fill="#d8f0fd"/><path d="M187.79,116.37l0-.08.81-.5.11-.18-.17-.51-.11-.07-1,.25a2.16,2.16,0,0,0,.22.71C187.7,116.12,187.75,116.24,187.79,116.37Z" transform="translate(0 0)" fill="#d8f0fd"/><path d="M217.43,134.42l-8-2.69-1.31,5.3h0l-.09.36-4.85,2.88a.47.47,0,0,1-.25-.24c-.65,2.33-.71,3.61-.16,3.79l4.85-2.88,1.4-5.68,7.35,2.47.82-2.64Z" transform="translate(0 0)" fill="#d8f0fd"/><path d="M199.34,128.63c.17-1-.21-2.52-1.16-4.68a45.52,45.52,0,0,0-4.71-8.93,68.15,68.15,0,0,0-3.29-6.62c-.14-.55-.26-1-.35-1.46a2.45,2.45,0,0,0-.25.31l-.41,1.15q-.21.34.61,3.55a68.15,68.15,0,0,1,3.29,6.63,45.51,45.51,0,0,1,4.71,8.93c.18.4.33.78.47,1.14a1.92,1.92,0,0,0,1,.21A1.38,1.38,0,0,0,199.34,128.63Z" transform="translate(0 0)" fill="#d8f0fd"/><path d="M223.45,131.09l.3.1.41.17c2.11-5.45,3.89-9.74,5.33-12.85.12-.35,0-.58-.28-.68l-.13,0a1.31,1.31,0,0,0-.53.2q-2.19,5.08-5.19,13Z" transform="translate(0 0)" fill="#d8f0fd"/><path d="M66.4,138.43c0-.45-.06-.92-.1-1.39-.56,1-1.4,1.75-1.72,2.58a1.65,1.65,0,0,0,0,.33c0-.08,0-.16,0-.24a1.71,1.71,0,0,0-.09.61,34.56,34.56,0,0,0-.7-5.41c-3,1.65-6.24,3.13-9.53,4.62-4.75,2.15-10.55,4.76-13.32,9.52a3.19,3.19,0,0,0-.28.64,4,4,0,0,0,.28,2.27c2.9-4.36,8.38-6.83,12.91-8.88,3.28-1.49,6.48-3,9.53-4.62.24,1.16.42,2.31.54,3.43q.88-.47,1.77-.92A4.18,4.18,0,0,0,66.4,138.43Z" transform="translate(0 0)" fill="#d8f0fd"/><path d="M84.8,109.71a24.77,24.77,0,0,0,3.11,6.23,12.4,12.4,0,0,0,1.88,1.73c.33-.62.75-1.53,1.27-2.73-.18-.25-.37-.36-.56-.33s-.28-.18-.42-.27a3.07,3.07,0,0,1-.5.73q-.89.15-2.91-1.94a10.58,10.58,0,0,1-2-4.42l-.25-1.53h0v.18Z" transform="translate(0 0)" fill="#d8f0fd"/><path d="M46.08,119.37c-8.56-.82-12.61-6.9-12.59-13.41-1.76,7.69,2.07,16,12.19,17,1,.1,1.86-5.74,1.72-5.75l-.15,0-.06.19C46.88,118.47,46.5,119.41,46.08,119.37Z" transform="translate(0 0)" fill="#d8f0fd"/><path d="M35.47,103.28c-.05-.25-.1-.51-.14-.77Q35.15,103.57,35.47,103.28Z" transform="translate(0 0)" fill="#d8f0fd"/><path d="M47.95,109.55a.61.61,0,0,1-.19-.43c-.41,1.93-.64,3.73-.22,4l.21.13.15,0s0,0,0,.09c5.12,3.16,9.62,9.32,12.56,16.11l1.55-.66C59.13,120.73,53.95,113.05,47.95,109.55Z" transform="translate(0 0)" fill="#d8f0fd"/><path d="M38.24,103.76a37.14,37.14,0,0,1,4-2.81,23.17,23.17,0,0,1,12.77-3.11c7.06.12,14.84,2.47,20,7.72,2.14,2.19,4.54,5.83,5,9.26a5.74,5.74,0,0,0,.32-.83c.93-4.06-2.21-9.2-4.93-12-5.13-5.25-12.92-7.6-20-7.72a23.17,23.17,0,0,0-12.77,3.11,37.16,37.16,0,0,0-4,2.81A16.4,16.4,0,0,0,36,102.69c-.13.24-.25.43-.35.58a12,12,0,0,0,.73,2.15A16.28,16.28,0,0,1,38.24,103.76Z" transform="translate(0 0)" fill="#d8f0fd"/><polygon points="84.28 105.9 84.29 105.9 84.3 105.72 84.26 105.51 84.26 105.79 84.28 105.9" fill="#d8f0fd"/><path d="M95.17,122.77a1.83,1.83,0,0,1-.62.32l-2.13.35q-2.81.46-6.66-3.23a25.18,25.18,0,0,1-3.24-6.4l-.14-.83c-.08-.48-.15-.93-.21-1.38a35.09,35.09,0,0,1-1.06,5,20.7,20.7,0,0,1-3.89,7.87,43.25,43.25,0,0,1-10.41,8.68c0,.46.08.92.1,1.36A4,4,0,0,1,66.7,136a4.18,4.18,0,0,1-.22.67A43.24,43.24,0,0,0,76.82,128c2.76-3.21,4.31-8.17,4.93-13,.07.49.15,1,.23,1.54l.14.83a25.18,25.18,0,0,0,3.24,6.4Q89.21,127.46,92,127l2.13-.35q.92-.19,3.42-3.19a24.48,24.48,0,0,0,2.84-6c.17,0,.26-1,.26-3a30,30,0,0,1-2.64,5.4C97.15,121.56,96.2,122.54,95.17,122.77Z" transform="translate(0 0)" fill="#d8f0fd"/><path d="M86.72,102.79a3.8,3.8,0,0,1,2.78-1.7q1.16-.19,3.46,1.42,3,3.09,3.17,4,1.41,1.61,2.13,5.95l0,.21.06,3.54c.15-.29.3-.59.45-.92l-.1-6.16,0-.21q-.72-4.33-2.13-5.95-.15-.93-3.17-4-2.3-1.61-3.46-1.42a5.54,5.54,0,0,0-.59.14,6.32,6.32,0,0,0-2.57,2.39l0,0c0,.15-.08.3-.1.47A16.1,16.1,0,0,0,86.72,102.79Z" transform="translate(0 0)" fill="#d8f0fd"/><path d="M84.18,104.64l0,0c0-.09,0-.18,0-.28a.38.38,0,0,0-.08-.13v.07Z" transform="translate(0 0)" fill="#d8f0fd"/><path d="M54,161.08c-3.56.32-7.06,1.91-10.72.84-4.15-1.22-5-4.64-4.82-8.31-.05.31-.1.62-.15.94-.64,4.54-.57,9.41,4.56,10.92,3.67,1.08,7.16-.52,10.72-.84,1.44-.13,1.59-5.84,1.91-5.86l-.25,0c0,.18-.09.35-.14.52C54.89,160.27,54.55,161,54,161.08Z" transform="translate(0 0)" fill="#d8f0fd"/><path d="M184.05,86.27h-1a255.75,255.75,0,0,1-29.41-1.84c-4.87-.56-10.05-1.39-15.83-2.54l-.34-.07v0a31.34,31.34,0,0,0,.12,3.61c5.7,1.13,10.82,2,15.65,2.51l3.76.41,2.15-1.79,1.21,2.12c5,.46,9.74.77,14.32.94a4.41,4.41,0,0,1,1.53-1.44l.9-.46h.06a6.4,6.4,0,0,1,3.23.23,9.4,9.4,0,0,1,2.28,1.82v0h1c.64-.22,3.16-4.68,3.39-5.73l-1-.6A9.83,9.83,0,0,1,184.05,86.27Z" transform="translate(0 0)" fill="#d8f0fd"/><path d="M140.73,132.54a130.57,130.57,0,0,0-33.26-.14q-6.11.78-12.16,2a142.7,142.7,0,0,0-21.91,6.86c-6,2.4-12.64,5.22-17.41,9.59-1,.91-1.61,3.32-2.2,3.86,5-4.6,12.1-7.45,18.35-10A141.16,141.16,0,0,1,107.06,136a129.84,129.84,0,0,1,31.56,0,11.82,11.82,0,0,0,1.36-1.83A12.18,12.18,0,0,0,140.73,132.54Z" transform="translate(0 0)" fill="#d8f0fd"/><path d="M153.91,124.54l.1,0,3.16-2.58.48-3.14,0-.12,2.23,1.48c4,3.66,17.33,13.74,19.67,14.33l.1,0a20.34,20.34,0,0,0,3.19-2.69l.05-.2-.07-.15-.78-.41a5.9,5.9,0,0,1-1.23-.62,4,4,0,0,1-.76.52l-.1,0c-2.34-.6-15.65-10.68-19.67-14.33l-2.2-1.46-.44,2.87-.05,0,0,.33L154.42,121l-.1,0c-.09,0-.15-.16-.17-.4C153.69,123.14,153.61,124.47,153.91,124.54Z" transform="translate(0 0)" fill="#d8f0fd"/><path d="M152.27,114.19c-.06.23.67.79,2.2,1.68v1.62c.11-.63.24-1.33.4-2.13l0-3-.34-.2v.05Z" transform="translate(0 0)" fill="#d8f0fd"/><path d="M189.41,140.78l1.38.54a16.23,16.23,0,0,1-.87-3.39,2.53,2.53,0,0,0-.6,1.37C189.32,139.81,189.36,140.3,189.41,140.78Z" transform="translate(0 0)" fill="#d8f0fd"/><path d="M141,100.57A76.56,76.56,0,0,0,155.46,102v.48c-.19,2.38-.36,4.32-.5,5.84l0,0q.24-1.61.87-9.36v-.48a80.29,80.29,0,0,1-15.62-1.65l-.37-.07,0,.15C140.27,98.14,140.66,99.37,141,100.57Z" transform="translate(0 0)" fill="#d8f0fd"/><path d="M161.78,104.76a55.56,55.56,0,0,1,3,4.9c.73,0,1.14-.17,1.23-.39l0-.08a7.34,7.34,0,0,0-.62-2.64,48.22,48.22,0,0,0-3.24-5.34l-2.64-4.3-.34,3.65Z" transform="translate(0 0)" fill="#d8f0fd"/><path d="M176.22,80.06l-.11-.19a8.84,8.84,0,0,1-.94-2.48,3.16,3.16,0,0,0-.67,1.69c0,.31.06.59.09.88l1.27.07Z" transform="translate(0 0)" fill="#d8f0fd"/><path d="M132.83,88.7l0-.13a45.48,45.48,0,0,1-1.15-7.7V80.6l-.28-.06c-4.31-1-8.64-2-12.86-3-.35.71-.77,1.6-1.27,2.75l-.24.54c4.57,1.1,9.28,2.23,14,3.27l.28.06v.28a39.22,39.22,0,0,0,.45,4.08l.77.13Z" transform="translate(0 0)" fill="#d8f0fd"/><path d="M109.57,109.89l.06.27,1.17.4c.09-.47.2-1,.34-1.47a2.8,2.8,0,0,1,.18-1,8.63,8.63,0,0,1,.31-1l-1-.35C109.49,109.48,109.53,109.69,109.57,109.89Z" transform="translate(0 0)" fill="#d8f0fd"/><path d="M110.21,118.22l.09.4a13.68,13.68,0,0,0,2.45,4.63,7.59,7.59,0,0,0,4.87,2.31,4.53,4.53,0,0,0,.83-.08l3-.57a4.47,4.47,0,0,0,2-1.25l2.08-2.05.1-.13c.56-1.15,1-2.09,1.31-2.83l.23-.53-.56-.14-.53-.15,0,.09-.1.13-2.08,2.05a4.47,4.47,0,0,1-2,1.25l-3,.57a4.53,4.53,0,0,1-.83.08,7.59,7.59,0,0,1-4.87-2.31,13.68,13.68,0,0,1-2.45-4.63l-.09-.4a6.32,6.32,0,0,1-.12-1A11.22,11.22,0,0,0,110.21,118.22Z" transform="translate(0 0)" fill="#d8f0fd"/><path d="M194.77,148.3c-15.39-6.58-31.22-12-47.47-14.76-.07.3-.15.59-.23.88a13.11,13.11,0,0,1-1.38,3.33c-1.72,2.86-4.6,4.77-8.58,5.69-.63.15-1.49-.35-2.36-1a16.24,16.24,0,0,1-3.2,1.32,16.38,16.38,0,0,1,1.55,1.22c1.23,1,2.67,2.24,3.6,2,4-.92,6.86-2.83,8.58-5.69a13.68,13.68,0,0,0,1.6-4.22c16.25,2.81,32.08,8.19,47.48,14.77.31.13,2.69-3.51,2.39-3.94l-.75-1.09C195.47,147.66,194.91,148.36,194.77,148.3Z" transform="translate(0 0)" fill="#d8f0fd"/><path d="M165.64,112.74l-.11.43c-.06.25-.52.38-1.34.42l1.61,1.32q2.85-2.39,3-3l.52-2-.25-.73a1.06,1.06,0,0,0,0-.47,22.77,22.77,0,0,1-3.49,3.26A2.17,2.17,0,0,1,165.64,112.74Z" transform="translate(0 0)" fill="#d8f0fd"/><path d="M120.74,101a4.11,4.11,0,0,1,2.87.73,7.15,7.15,0,0,1,1.88,2.87l.14.74,1.16.3-.9-4.59A7.15,7.15,0,0,0,124,98.15a4.11,4.11,0,0,0-2.87-.73c-.89.17-2.48,1.22-5,5.09.55.19,1.15.4,1.79.61C119.22,101.61,120.14,101.09,120.74,101Z" transform="translate(0 0)" fill="#d8f0fd"/><path d="M127.59,115.27l.19,0,.11-.16a9.58,9.58,0,0,0,1.46-3c.46-.4.82-1.33.64-3.83a1.37,1.37,0,0,1-.24.28,9.58,9.58,0,0,1-1.46,3l-.11.16-.19,0-.25,0c-1.11,0-5.15-1.05-12.35-3.23l-1.34-.47a6,6,0,0,0-.13,2.17c.22.62.45,1.19.68,1.71l.38.13c4.23,1.28,7.35,2.16,9.45,2.68a6.69,6.69,0,0,0,.7-.8l.29-.36.32.11c.43.14.86.26,1.29.37l.56.14-.15.36h.05l-.23.53-.08.18h.15Z" transform="translate(0 0)" fill="#d8f0fd"/><path d="M138.72,75.37l.39.08,1.16.24a13.13,13.13,0,0,1,3-2.69c-.36-.23-.82-.6-1.46-1.1l-.57-.45a13,13,0,0,0-2.55,3.88Z" transform="translate(0 0)" fill="#d8f0fd"/><path d="M129.06,95.93l0,.12.25,1.17c.09.41.17.79.24,1.17,1.55.28,3.08.57,4.54.86l.22,0,.06.21c.46,1.48.93,2.91,1.37,4.26.52,1.58,1,3.07,1.4,4.39l.52,1.73c1.66,5.47,3.68,12.19,3.85,18.31l.26,0c.8-7-1.72-15.33-3.71-21.89l-.52-1.73c-.39-1.31-.88-2.81-1.4-4.39-.44-1.35-.91-2.77-1.37-4.26l-.06-.21-.22,0c-1.94-.38-4-.77-6-1.12l-.1.22A12,12,0,0,1,129.06,95.93Z" transform="translate(0 0)" fill="#d8f0fd"/><path d="M110.56,97.31a3.06,3.06,0,0,1-.83.1,3.76,3.76,0,0,1-2.95-1c-.86-.39-1.3-.86-1.38-1.4l-.14.21q0,.92,1.41,1.56a3.76,3.76,0,0,0,2.95,1c1.11,0,1.73-.4,1.86-1.21A1.31,1.31,0,0,1,110.56,97.31Z" transform="translate(0 0)" fill="#fff"/><path d="M96.7,74.38a7.49,7.49,0,0,1,1.86,2.46L101,80.17a18.28,18.28,0,0,1,3.62,2.7,39.38,39.38,0,0,0,6,4q4,2.91,4,4.57l.11.78v.87a4.1,4.1,0,0,1-.16,1,4.37,4.37,0,0,0,.27-1.39V91.9l-.11-.78q0-1.67-4-4.57a39.38,39.38,0,0,1-6-4,18.28,18.28,0,0,0-3.62-2.7l-2.45-3.33A7.49,7.49,0,0,0,96.8,74h-.11l-2.74,3.53v.23h0l2.64-3.4Z" transform="translate(0 0)" fill="#fff"/><polygon points="107.13 105.19 106.33 101.65 106.17 101.64 106.17 101.76 110.62 121.53 110.77 121.36 107.13 105.19" fill="#fff"/><path d="M106.36,92.77l.16.32.16-.25-.23-.44a2.24,2.24,0,0,0-1.05.64c-.25.21-.53.47-.85.79l-.33-1.55-.95-4.42-.18-.12v.12l1.36,6.34Q105.88,92.76,106.36,92.77Z" transform="translate(0 0)" fill="#fff"/><path d="M180.78,98.25c-2.44.06-4.5.06-6.15,0l-1,0-.11.37c2.28.14,5.52.13,9.65,0l-.19-.36Z" transform="translate(0 0)" fill="#fff"/><path d="M185.88,101.84a8,8,0,0,0,.34-2.13,1.15,1.15,0,0,1-.1.2A8,8,0,0,1,185.88,101.84Z" transform="translate(0 0)" fill="#fff"/><path d="M169.87,98.86v0l.16-.53,1.7,0,.08-.37-1.67,0Z" transform="translate(0 0)" fill="#fff"/><path d="M184.2,105h-.28l-.15.36a5.12,5.12,0,0,1-.78,1.41,4.18,4.18,0,0,1-1.38,1.15l-.77.39a4.6,4.6,0,0,1-3.92-.05,8.36,8.36,0,0,1-1.58-1.38,20.46,20.46,0,0,1-1.54-1.88,4.9,4.9,0,0,1-.41-1.73h-.14a5.64,5.64,0,0,0,.44,2.11,12.82,12.82,0,0,0,3.11,3.26,4.6,4.6,0,0,0,3.92.05l.77-.39a4.45,4.45,0,0,0,2.17-2.55l.15-.36h.28c.38,0,.76,0,1.13,0l.48,0-.06.48q-.12.95-.36,2.41l0-.05,0-.13c.18-1.06.3-1.93.39-2.6l.06-.48h-.48C185,105,184.59,105,184.2,105Z" transform="translate(0 0)" fill="#fff"/><path d="M180.39,88a6.4,6.4,0,0,0-3.23-.23h-.06l-.9.46a4.41,4.41,0,0,0-1.53,1.44,16,16,0,0,0-2,4.84c.94-3.25,2.08-5.2,3.45-5.91l.9-.46h.06a6.4,6.4,0,0,1,3.23.23,9.4,9.4,0,0,1,2.28,1.82l.06.08.48.88c2.8,5.15,3.35,7.28,3.2,8.27.36-.8.11-2.73-3.1-8.64l-.48-.88,0-.07v0A9.4,9.4,0,0,0,180.39,88Z" transform="translate(0 0)" fill="#fff"/><path d="M196.8,100.9q.74,0,4,2,2.75,1.73,5.17,7.93a11.67,11.67,0,0,1,.63,4.33c.31-.73.14-2.29-.52-4.7q-2.43-6.2-5.17-7.93-3.24-2-4-2-5.72,1-6.83,2.79l-.41,1.15a.44.44,0,0,0,0,.19l.34-1Q191.09,101.93,196.8,100.9Z" transform="translate(0 0)" fill="#fff"/><path d="M229.73,113.9l-.13,0q-.28-.1-4.61,2.69a129.32,129.32,0,0,0-5.73,13L211,126.75l-.06,0q-.35-.12,1.45-7.86c.87-3,2.26-10.58,3-15.76.45-3,.69-5.24.51-5.3l-.15-.05-4.8,2.75-.07.35,4.77-2.73.15.05c.5.17-2.16,16.27-3.54,21.06q-1.8,7.74-1.45,7.86l8.31,2.79a129.14,129.14,0,0,1,5.73-13q4.33-2.79,4.61-2.69l.13,0a.42.42,0,0,1,.33.43l.06-.12C230.13,114.24,230,114,229.73,113.9Z" transform="translate(0 0)" fill="#fff"/><path d="M204,134.29c-.28.85-.51,1.61-.69,2.27.18-.63.39-1.33.66-2.12Z" transform="translate(0 0)" fill="#fff"/><path d="M200.81,117.3a29.42,29.42,0,0,1-3.63-6.59,24.46,24.46,0,0,1-1.54-2.81,12.53,12.53,0,0,1-1-3.08,7.78,7.78,0,0,1-.1-.88l-.12,0q0,2.9,2.67,7.12a29.42,29.42,0,0,0,3.63,6.59,47.76,47.76,0,0,1,3.51,8.74,5,5,0,0,1,1.7-.7l.07-.36a5.11,5.11,0,0,0-1.67.7,33.19,33.19,0,0,0-2.17-5.84c-.25-.57-.53-1.18-.83-1.81Z" transform="translate(0 0)" fill="#fff"/><path d="M187.56,116.37a17.74,17.74,0,0,0,5.17,8.45,22.1,22.1,0,0,0,4.36,3.64,3.51,3.51,0,0,0,2.06.78,1.65,1.65,0,0,0,.2-.6,1.38,1.38,0,0,1-.1.22,1.92,1.92,0,0,1-1-.21,7.35,7.35,0,0,1-1.06-.57,22.06,22.06,0,0,1-4.36-3.64,17.57,17.57,0,0,1-5-8.07c0-.13-.09-.25-.12-.37a2.16,2.16,0,0,1-.22-.71,2.93,2.93,0,0,1,.07-1.07A2.69,2.69,0,0,0,187.56,116.37Z" transform="translate(0 0)" fill="#fff"/><polygon points="210.56 156.44 217.09 135.48 217.45 134.43 217.43 134.42 217.2 135.11 216.38 137.75 210.66 156.07 209.65 159.54 209.29 160.15 209.36 160.22 209.54 159.91 210.56 156.44" fill="#fff"/><path d="M183.74,112.88l-.85,1.62a1.72,1.72,0,0,0-.21.64,1.57,1.57,0,0,1,.11-.27l.85-1.62q.43-.64,5.24-1.77l.11.07.12.34,0,0,.11-.18-.17-.51-.11-.07a34.1,34.1,0,0,0-4.3,1.21A2.23,2.23,0,0,0,183.74,112.88Z" transform="translate(0 0)" fill="#fff"/><polygon points="209.44 131.73 209.43 131.73 208.12 137.04 208.13 137.03 209.44 131.73" fill="#fff"/><path d="M223.45,131.09l-.09-.14-.13.33.11.18.3.1,1.76.71,3.26.83a2.45,2.45,0,0,1,.39.34l.2-.13c0-.12-.12-.31-.49-.58l-3.26-.83-1.35-.55-.41-.17Z" transform="translate(0 0)" fill="#fff"/><path d="M46.18,137.42c4.58-4,10.43-5.91,16-8.35l-.1-.28-1.55.66c-5,2.11-10.1,4-14.2,7.6-3.71,3.25-5.73,6.19-6.82,10.43C40.57,143.43,42.58,140.57,46.18,137.42Z" transform="translate(0 0)" fill="#fff"/><path d="M91,110.68q-3.34-1.85-4.1-6.47c-.08-.5-.14-1-.19-1.42a16.1,16.1,0,0,1-.1-2.23c0-.16.07-.31.1-.47a5.2,5.2,0,0,0-.21.84,18.56,18.56,0,0,0,.28,3.65q.76,4.62,4.1,6.47c.18,0,.35.07.52.29l.14-.33C91.39,110.76,91.2,110.65,91,110.68Z" transform="translate(0 0)" fill="#fff"/><path d="M39.77,93c7.9-6.4,16.6-7.78,26.56-5,7.09,1.95,15.39,7.66,16,16,0,.06,0,.13,0,.19a23.52,23.52,0,0,1,1.69-3.48l.21,0c.18,0,.3.07.36.29a2.65,2.65,0,0,1,.13-.29c0-.28-.17-.4-.38-.36l-.21,0a23.52,23.52,0,0,0-1.69,3.48c0-.06,0-.13,0-.19-.65-8.31-8.94-14-16-16-10-2.74-18.67-1.36-26.56,5a17.06,17.06,0,0,0-5.67,8.63A17.07,17.07,0,0,1,39.77,93Z" transform="translate(0 0)" fill="#fff"/><path d="M91.33,93.61l.1,0q2-.34,5.14,2.74,2.29,2.55,2.44,3.5,1.14,1.28,1.72,4.77L101,106a60.11,60.11,0,0,1,0,7.43q.35-.48.12-7.8l-.23-1.42q-.58-3.49-1.72-4.77Q99,98.51,96.68,96q-3.12-3.07-5.14-2.74l-.1,0q-3.36.56-5,4.41a17.25,17.25,0,0,0-1.77,4A17.85,17.85,0,0,1,86.36,98Q88,94.17,91.33,93.61Z" transform="translate(0 0)" fill="#fff"/><path d="M79.73,115.42c-2.51,4-6.8,6.94-10.55,9.54A33.15,33.15,0,0,1,65.75,127c-2.57-10.5-9-22.8-16.08-26.92a11.81,11.81,0,0,0-.66,2,9.1,9.1,0,0,1,.55-1.68c7.07,4.13,13.51,16.42,16.08,26.93a33.52,33.52,0,0,0,3.44-2.05c3.75-2.6,8-5.57,10.55-9.53a5.71,5.71,0,0,0,.74-1.8,5.74,5.74,0,0,1-.32.83A5.52,5.52,0,0,1,79.73,115.42Z" transform="translate(0 0)" fill="#fff"/><path d="M100.75,114.08l.07-.24h0C100.79,113.92,100.77,114,100.75,114.08Z" transform="translate(0 0)" fill="#fff"/><path d="M82.15,111.45a35.84,35.84,0,0,1-1,5.15,35.09,35.09,0,0,0,1.06-5Z" transform="translate(0 0)" fill="#fff"/><path d="M47.75,113.23a14,14,0,0,1-11.37-7.81,12,12,0,0,1-.73-2.15l-.15.22c1.3,5.83,6.61,9.58,12.29,10.13a16.87,16.87,0,0,1-.61,3.72l.06-.19a20.75,20.75,0,0,0,.68-3.82c0-.05,0-.08,0-.09Z" transform="translate(0 0)" fill="#fff"/><path d="M55.29,158.8c.31-1.26.47-2.8.61-3.52-.18.33-.33,2.45-.75,4C55.2,159.15,55.25,159,55.29,158.8Z" transform="translate(0 0)" fill="#fff"/><polygon points="84.28 106.25 84.29 105.9 84.28 105.9 84.26 105.79 84.26 105.51 84.26 105.51 84.16 105.53 84.16 106.16 84.18 106.27 84.28 106.25" fill="#fff"/><path d="M35.33,102.51l0-.09q-.39,1.84.19,1.07c0-.07,0-.14,0-.21Q35.15,103.57,35.33,102.51Z" transform="translate(0 0)" fill="#fff"/><path d="M84.1,105.14l.1,0c0-.12,0-.24,0-.35l0-.13-.06-.39v-.07a17.23,17.23,0,0,1,.36-2.82,14.56,14.56,0,0,0-.47,3.25Z" transform="translate(0 0)" fill="#fff"/><path d="M66.81,133.15l-.12.08c.06.56.1,1.12.12,1.65a4.06,4.06,0,0,1-.1,1.1,4,4,0,0,0,.21-1.47C66.89,134.07,66.85,133.61,66.81,133.15Z" transform="translate(0 0)" fill="#fff"/><path d="M40.63,149.7c-.8,2.48,1.56,5.47,3.87,6.14,4,1.18,7.49-.26,11.41-.62,0-.23.09-.37.14-.37-3.94.35-7.41,1.81-11.45.62a6.24,6.24,0,0,1-3.69-3.5A4,4,0,0,1,40.63,149.7Z" transform="translate(0 0)" fill="#fff"/><path d="M87.81,116.31q3.28,3.66,6.74,3.09l.91-.15q1.84-.3,3.34-3.82v-.14c-.15.33-.3.64-.45.92-.85,1.6-1.78,2.5-2.78,2.66l-.91.15a6.28,6.28,0,0,1-4.86-1.36,12.4,12.4,0,0,1-1.88-1.73,24.77,24.77,0,0,1-3.11-6.23l-.39-2.35v-.18l-.09,0,0,.53.39,2.35A24.77,24.77,0,0,0,87.81,116.31Z" transform="translate(0 0)" fill="#fff"/><path d="M64.56,140a1.65,1.65,0,0,1,0-.33l0,.09C64.54,139.8,64.55,139.88,64.56,140Z" transform="translate(0 0)" fill="#fff"/><path d="M147.82,129c.06-6.15-2-13.12-3.67-18.72l-.41-1.37c-.42-1.42-1-3.06-1.54-4.8-.37-1.12-.77-2.32-1.16-3.56s-.77-2.43-1.13-3.69l0-.15-.22,0,.17.57c.74,2.56,1.57,5.05,2.29,7.25.57,1.74,1.12,3.38,1.54,4.8l.41,1.37c1.67,5.6,3.73,12.57,3.67,18.72A199.8,199.8,0,0,1,191,141.8c-.06-.16-.11-.32-.17-.48l-1.38-.54A197.66,197.66,0,0,0,147.82,129Z" transform="translate(0 0)" fill="#fff"/><path d="M138.23,66a.39.39,0,0,1,.2,0c.86,0,2.57,1.36,3.82,2.34.52.41.92.72,1.24,1l.32-.22c-.36-.23-.82-.6-1.46-1.1-1.25-1-3-2.34-3.82-2.34a.38.38,0,0,0-.2,0,12.35,12.35,0,0,0-6,7.93l-.07.26A12.32,12.32,0,0,1,138.23,66Z" transform="translate(0 0)" fill="#fff"/><path d="M138.16,89.71l0-.24c-.25-1.39-.43-2.72-.55-4a31.34,31.34,0,0,1-.12-3.61v0l-.09,0v.43a37.28,37.28,0,0,0,.67,7.6l0,.24,1.12.22a121.63,121.63,0,0,0,16.56,2.48V92.4a122.42,122.42,0,0,1-16.45-2.47Z" transform="translate(0 0)" fill="#fff"/><path d="M158.58,109.32l1.74.45q5.41.64,5.61-.15l.09-.35c-.08.22-.5.35-1.23.39a27.29,27.29,0,0,1-4.37-.27l-1.74-.45-.07-.13-.07-.58.46-5.65.19-2,.34-3.65-.06-.1-.58,6.16-.46,5.65.07.58Z" transform="translate(0 0)" fill="#fff"/><path d="M183.44,127.75l-.07-.15-.78-.41c-1.74-.44-13.95-9.71-16.34-11.91l-.45-.37-1.61-1.32-.79-.65-.31.14-.1,0,3.16,2.6c2.39,2.19,14.6,11.46,16.34,11.91l.78.41,0,.06.09-.08Z" transform="translate(0 0)" fill="#fff"/><path d="M169.68,106.58l.17-.67-.25-.73a2.69,2.69,0,0,0-.36-1.31,73.48,73.48,0,0,0-5.12-8.55l-3.78-6.6-1.21-2.12L157,88.4l-1.17,1v.29L159,87l5,8.72q5.75,8.72,5.48,9.86l.25.73-.43,1.7,0,0Z" transform="translate(0 0)" fill="#fff"/><path d="M152.78,110.27c0,.05,0,.12.08.2l2.08-1.85c0-.07,0-.18.06-.33l0,0Z" transform="translate(0 0)" fill="#fff"/><path d="M139.87,134.44a13.15,13.15,0,0,0,.91-1.89h-.05a12.18,12.18,0,0,1-.75,1.53,11.82,11.82,0,0,1-1.36,1.83,13.87,13.87,0,0,1-6.55,3.93l.31.23A13,13,0,0,0,139.87,134.44Z" transform="translate(0 0)" fill="#fff"/><path d="M120.52,71.57c3.8.91,7.52,1.81,11.28,2.67l.36.08.09-.35v0l-.35-.08c-3.76-.86-7.48-1.75-11.28-2.67-.3,0-1.06,1-2.88,5.17l-.24.54h.05l.08-.18C119.45,72.55,120.21,71.61,120.52,71.57Z" transform="translate(0 0)" fill="#fff"/><path d="M73.81,137.74a139.48,139.48,0,0,1,36.06-9.27,137.43,137.43,0,0,1,31.93.11c0-.12,0-.25,0-.38l-.26,0a137.38,137.38,0,0,0-31.61-.08c-.75.09-1.51.2-2.26.3l-.38.05a140.17,140.17,0,0,0-33.42,8.92c-2.68,1.08-5.51,2.26-8.25,3.61q-.9.44-1.77.92A36.27,36.27,0,0,0,56.5,147c-1,.91-1.61,3.32-2.2,3.86l.31-.26a12.4,12.4,0,0,1,1.79-3.23C61.16,143,67.85,140.14,73.81,137.74Z" transform="translate(0 0)" fill="#fff"/><path d="M125.64,105.31c-3.08-.8-5.66-1.53-7.73-2.2-.65-.21-1.25-.41-1.79-.61l-.22.33c2.54.92,6.23,2,11,3.19l-.08-.42Z" transform="translate(0 0)" fill="#fff"/><path d="M129.6,98.38c-.08-.38-.16-.76-.24-1.17L129.1,96l0-.12a12,12,0,0,0-.67-1.15l-.18-.27-.41-.07A11.83,11.83,0,0,1,129,96.3l0,.12.25,1.16c1.25,5.79,1.37,8.53,1.07,9.88C130.71,106.34,130.72,103.92,129.6,98.38Z" transform="translate(0 0)" fill="#fff"/><path d="M178.07,70.76c.73,4.68,4,6.63,7.85,8.87l1.51.9a3,3,0,0,0,.12-.36L186,79.26c-3.8-2.24-7.12-4.19-7.85-8.87-.21.27-.48.58-.8.94-.93,1.08-2.16,2.51-2.34,3.53a12.75,12.75,0,0,1,2.23-3.16C177.59,71.34,177.86,71,178.07,70.76Z" transform="translate(0 0)" fill="#fff"/><path d="M111.49,102l-.19.45a25.34,25.34,0,0,0-1.2,3.19c.17-.53.53-1.47,1.28-3.27l.58-.89,1.92.6c3.11-6,5.81-9.21,8.24-9.68l1.18-.23h.07A7.57,7.57,0,0,1,127,93.47q.3.3.56.63l.39-.9c.52-1.23,1.9-4.5,2.56-4.5l1.87.31.55.1-.09-.4-.36-.06-.77-.13-1.1-.18c-.66,0-2,3.27-2.56,4.5l-.39.9c-.18-.22-.37-.43-.56-.63a7.57,7.57,0,0,0-3.59-1.34h-.07l-1.18.23c-2.43.47-5.12,3.63-8.24,9.68l-1.7-.53-.23-.07Z" transform="translate(0 0)" fill="#fff"/><path d="M191.24,133a5.51,5.51,0,0,0-1.41,2.21c.49-1.2,2.31-2.71,2.3-3.19.11,5.2,2.15,8.21,5,12.36a.26.26,0,0,1,0,.17c.1-.26.14-.46.09-.54-2.47-3.56-4.31-6.28-4.86-10.26a17.83,17.83,0,0,1-.17-2.09C192.24,131.88,191.77,132.39,191.24,133Z" transform="translate(0 0)" fill="#fff"/><path d="M111.66,107.16h0a8.63,8.63,0,0,0-.31,1C111.39,107.86,111.5,107.55,111.66,107.16Z" transform="translate(0 0)" fill="#fff"/><path d="M147.3,133.54c-.06.3-.14.59-.22.88.09-.29.16-.59.23-.88Z" transform="translate(0 0)" fill="#fff"/><path d="M138.72,75.37l-.15.36.44.09c6.79,1.41,12.6,2.38,18.28,3,6.58.76,12.62,1.27,18.48,1.56l.68,0-.22-.39-.35,0L174.6,80c-5.47-.3-11.11-.78-17.21-1.49-5.35-.62-10.83-1.51-17.12-2.8l-1.16-.24Z" transform="translate(0 0)" fill="#fff"/><path d="M127,114.06c-.43-.11-.86-.23-1.29-.37l-.32-.11-.29.36a6.69,6.69,0,0,1-.7.8,5,5,0,0,1-2.62,1.38l-1,.19a5.46,5.46,0,0,1-4.44-1.37,11.77,11.77,0,0,1-1.77-3c-.23-.53-.46-1.1-.68-1.71a6,6,0,0,1,.13-2.17h0a6.68,6.68,0,0,0-.2,2.55,15.21,15.21,0,0,0,2.45,4.74,5.46,5.46,0,0,0,4.44,1.37l1-.19a5.27,5.27,0,0,0,3.31-2.18l.29-.36.32.11c.43.14.86.26,1.29.37l.51.12.15-.36Z" transform="translate(0 0)" fill="#fff"/><polygon points="158.12 115.19 158.09 115.17 158.06 115.3 157.63 118.11 157.68 118.06 158.12 115.19" fill="#fff"/><path d="M98.51,85.28,103,105.2c.86,4.81,4.47,19.85,4.84,19.85h.11l1.78-2.17.94-1.15,0-.19-4.45-19.78v-.11h1.19a4,4,0,0,0,1.62-.34,4.63,4.63,0,0,0,1.8-1.4l.33-.37a18.49,18.49,0,0,0,3.1-4.43,6.41,6.41,0,0,0,.34-.95,4.1,4.1,0,0,0,.16-1v-.87l-.11-.78q0-1.67-4-4.57a39.38,39.38,0,0,1-6-4,18.28,18.28,0,0,0-3.62-2.7l-2.45-3.33a7.49,7.49,0,0,0-1.86-2.46h-.11l-2.64,3.4-.11.14v.23l1,1.55.91,1.46A17.23,17.23,0,0,1,98.51,85.28Zm4.58,2.45.18.12,4,2.58q4.22,2.75,4.2,5v.78a2.11,2.11,0,0,1,0,.33c-.13.81-.75,1.22-1.86,1.21a3.76,3.76,0,0,1-2.95-1q-1.42-.65-1.41-1.56l.14-.21.91-1.39.27-.41-.06-.12-.16-.32q-.48,0-1.91,1.43l-1.36-6.34Z" transform="translate(0 0)" fill="#00afef"/><path d="M183.1,91.14l-.48-.88-.06-.08a9.4,9.4,0,0,0-2.28-1.82,6.4,6.4,0,0,0-3.23-.23H177l-.9.46c-1.37.71-2.51,2.65-3.45,5.91q-.45,1.56-.84,3.52l-.08.37-1.7,0-.16.53-.1.33c-.21,1.81-.27,2.67-.27,3.09a.88.88,0,0,0,.08.49l.11.2,1.44.07a4.23,4.23,0,0,0,0,1.68,10.68,10.68,0,0,0,.91,4.64l.17.3a11.54,11.54,0,0,0,3.09,3.17,6.41,6.41,0,0,0,4.49.71,3.88,3.88,0,0,0,.65-.26l2.27-1.17a3.79,3.79,0,0,0,1.29-1.47l1-1.81.19-.35,0-.13,0-.19q.24-1.46.36-2.41l.06-.48-.48,0c-.37,0-.75,0-1.13,0h-.28l-.15.36a4.45,4.45,0,0,1-2.17,2.55l-.77.39a4.6,4.6,0,0,1-3.92-.05,12.82,12.82,0,0,1-3.11-3.26,5.64,5.64,0,0,1-.44-2.11h.14l1.08.05c6.34,0,9.87-.06,10.77-.32l.2-.08.14-.07.05-.15q.12-.33.21-.67s0-.09,0-.14a8,8,0,0,0,.24-1.93,1.15,1.15,0,0,0,.1-.2,1.42,1.42,0,0,0,.08-.31C186.45,98.42,185.9,96.3,183.1,91.14Zm-9.56,7.43.11-.37c1.15-3.7,2.17-4.91,2.85-5.26a3.46,3.46,0,0,1,2.5-.09,6.07,6.07,0,0,1,2.21,1.88L183,98.19l.19.36C179.06,98.7,175.82,98.71,173.54,98.57Z" transform="translate(0 0)" fill="#00afef"/><path d="M229.62,114.27l-.13,0q-.28-.1-4.61,2.69a129.14,129.14,0,0,0-5.73,13l-8.31-2.79q-.35-.12,1.45-7.86c1.38-4.79,4-20.89,3.54-21.06l-.15-.05-4.77,2.73,0,0L206,125.35l-.07.36a5,5,0,0,0-1.7.7,47.76,47.76,0,0,0-3.51-8.74,29.42,29.42,0,0,1-3.63-6.59q-2.66-4.22-2.67-7.12l.12,0a2,2,0,0,1,1.53.43l.18.12a12.64,12.64,0,0,1,3.74,4.77,3.28,3.28,0,0,0,.78,1.51l1,3.77q0,2,.24,2.18l.11.07,3.83-1,.5-.12a1.49,1.49,0,0,0,.17-.53,11.67,11.67,0,0,0-.63-4.33q-2.43-6.2-5.17-7.93-3.24-2-4-2-5.72,1-6.83,2.79l-.34,1-.07.19a5.06,5.06,0,0,0,.26,2.09c.09.42.21.91.35,1.46a68.15,68.15,0,0,1,3.29,6.63,45.52,45.52,0,0,1,4.71,8.93c1,2.16,1.33,3.71,1.16,4.68a1.65,1.65,0,0,1-.2.6,3.51,3.51,0,0,1-2.06-.78,22.1,22.1,0,0,1-4.36-3.64,17.74,17.74,0,0,1-5.17-8.45,2.69,2.69,0,0,1,0-2.15,6.92,6.92,0,0,1,.72-1.48l.81-.5.11-.18-.06-.16-.12-.34-.11-.07q-4.81,1.13-5.24,1.77l-.85,1.62a1.57,1.57,0,0,0-.11.27,1.86,1.86,0,0,0-.11.41,5.22,5.22,0,0,0,.24,2.06,27.76,27.76,0,0,0,2.33,5.34q4.09,5,6.66,6.59l.8.5a13.89,13.89,0,0,0,4.24,2,2.09,2.09,0,0,0,.48,0c.61-.14,1.15-.27,1.67-.41,2.41-.63,3.8-1.21,4.14-1.75l0-.05,1.69.41-.74,3.47-.1.49,0,.14c-.27.79-.48,1.49-.66,2.13q-.77,2.77-.39,3.49a.47.47,0,0,0,.25.24L208,137.4l.09-.36,1.31-5.31h0l8,2.69h0l-.35,1.05-6.54,21-1,3.46-.18.31-.18.3.5.46.19-.06a28.23,28.23,0,0,0,4.87-2.93l1.1-3.26,4.22-15,1.46-3.32q.12-.35,2.59.29a5.83,5.83,0,0,0,1.49-.69c.87-.5,2-1.26,3.56-2.29,0-.06,0-.14-.09-.24a2.45,2.45,0,0,0-.39-.34l-3.26-.83-1.76-.71-.3-.1-.11-.18.13-.33q3-7.88,5.19-13c.48-1.11.93-2.12,1.35-3a.83.83,0,0,0,0-.25A.42.42,0,0,0,229.62,114.27Z" transform="translate(0 0)" fill="#00afef"/><path d="M44.49,155.84c-2.3-.68-4.66-3.66-3.87-6.14a3.19,3.19,0,0,1,.28-.64c2.77-4.76,8.57-7.37,13.32-9.52,3.28-1.49,6.48-3,9.53-4.62a34.56,34.56,0,0,1,.7,5.41,1.71,1.71,0,0,1,.09-.61l0-.09c.31-.83,1.16-1.56,1.72-2.58.07-.12.13-.26.19-.39a4.18,4.18,0,0,0,.22-.67,4.06,4.06,0,0,0,.1-1.1c0-.53-.07-1.09-.12-1.65l.13-.08a43.25,43.25,0,0,0,10.41-8.68,20.7,20.7,0,0,0,3.89-7.87,35.84,35.84,0,0,0,1-5.15l0,.16c.06.44.13.9.21,1.38l.14.83a25.18,25.18,0,0,0,3.24,6.4q3.85,3.69,6.66,3.23l2.13-.35a1.83,1.83,0,0,0,.62-.32A17.55,17.55,0,0,0,98,119.9l.05-.09a30,30,0,0,0,2.64-5.4c0-.12.06-.22.09-.32s0-.16.06-.23h0c.05,0,.1-.16.14-.4a60.11,60.11,0,0,0,0-7.43l-.23-1.42q-.58-3.49-1.72-4.77-.16-.95-2.44-3.5-3.12-3.07-5.14-2.74l-.1,0q-3.36.56-5,4.41a17.85,17.85,0,0,0-1.66,3.67,10.72,10.72,0,0,0-.49,2.62c0,.09,0,.18,0,.28s0,.12,0,.18,0,.24,0,.35l-.1,0-.09-.52a14.56,14.56,0,0,1,.47-3.25,2.91,2.91,0,0,1,.17-.44.71.71,0,0,0,0-.08c-.06-.22-.17-.32-.36-.29l-.21,0a23.52,23.52,0,0,0-1.69,3.48c0-.06,0-.13,0-.19-.65-8.31-8.94-14-16-16-10-2.74-18.67-1.36-26.56,5a17.07,17.07,0,0,0-5.56,8.26,16.38,16.38,0,0,0-.72,4.73c0,6.51,4,12.59,12.59,13.41.42,0,.8-.9,1.11-2a16.87,16.87,0,0,0,.61-3.72c-5.68-.54-11-4.3-12.29-10.13q-.58.77-.19-1.07l0,.09c0,.26.09.52.14.77,0,.07,0,.14,0,.21l.15-.22c.1-.16.21-.34.35-.58a16.4,16.4,0,0,1,2.65-2.49,37.16,37.16,0,0,1,4-2.81,23.17,23.17,0,0,1,12.77-3.11c7.06.12,14.84,2.47,20,7.72,2.72,2.78,5.86,7.93,4.93,12a5.71,5.71,0,0,1-.74,1.8c-2.51,4-6.8,6.94-10.55,9.53a33.52,33.52,0,0,1-3.44,2.05c-2.57-10.5-9-22.8-16.08-26.93a9.1,9.1,0,0,0-.55,1.68c-.61,2.15-1.46,5.74-1.26,7a.61.61,0,0,0,.19.43c6,3.5,11.18,11.18,14.08,19.24l.1.28c-5.53,2.44-11.37,4.34-16,8.35-3.6,3.15-5.61,6-6.72,10.05a28.06,28.06,0,0,0-.71,3.52c-.12.87-.22,1.74-.26,2.61-.17,3.67.67,7.09,4.82,8.31C47,163,50.47,161.4,54,161.08c.51,0,.86-.81,1.11-1.77.42-1.59.57-3.71.75-4,0,0,0-.05,0-.05h0C52,155.58,48.52,157,44.49,155.84ZM84.33,107.2l.09,0h0l.25,1.53a10.58,10.58,0,0,0,2,4.42q2,2.09,2.91,1.94a3.07,3.07,0,0,0,.5-.73q.52-.93,1.39-3l0,0c-.17-.22-.34-.32-.52-.29q-3.34-1.85-4.1-6.47a18.56,18.56,0,0,1-.28-3.65,5.2,5.2,0,0,1,.21-.84l0,0a3.56,3.56,0,0,1,2.57-2.39,5.54,5.54,0,0,1,.59-.14q1.16-.19,3.46,1.42,3,3.09,3.17,4,1.41,1.61,2.13,5.95l0,.21.1,6.16v.14q-1.5,3.51-3.34,3.82l-.91.15q-3.47.57-6.74-3.09a24.77,24.77,0,0,1-3.11-6.23l-.39-2.35Zm-.17-1.67.1,0h0l0,.2v.53l-.1,0,0-.1Z" transform="translate(0 0)" fill="#00afef"/><path d="M192.13,132c0,.48-1.81,2-2.3,3.19a1.4,1.4,0,0,0-.12.54,17.33,17.33,0,0,0,.2,2.19,16.23,16.23,0,0,0,.88,3.39c.06.16.11.32.17.48a199.8,199.8,0,0,0-43.24-12.4c.06-6.15-2-13.12-3.67-18.72l-.41-1.37c-.42-1.42-1-3.06-1.54-4.8-.73-2.2-1.55-4.69-2.29-7.25l-.17-.57.22,0,.37.07a80.29,80.29,0,0,0,15.62,1.65v.48q-.63,7.75-.87,9.36c0,.15,0,.26-.06.33l-2.08,1.85-.19.17c-.05.21.57.71,1.87,1.48l.34.2,0,3c-.16.8-.29,1.5-.4,2.13a14.92,14.92,0,0,0-.32,3.09c0,.25.08.38.17.4l.1,0,3.16-2.58,0-.33.43-2.81,0-.12,0,0,2.2,1.46c4,3.66,17.33,13.74,19.67,14.33l.1,0a4,4,0,0,0,.76-.52c.55-.45,1.36-1.16,2.43-2.16l.05-.21,0-.08,0-.06-.78-.41c-1.74-.44-13.95-9.71-16.34-11.91l-3.16-2.6.1,0,.31-.14,2.06-1,.09-.08a22.77,22.77,0,0,0,3.49-3.26,1.19,1.19,0,0,0,.18-.33l.08-.33.43-1.7-.25-.73q.27-1.14-5.48-9.86L159,87l-3.22,2.68-.1.08,0,1,0,1.66v.38a121.63,121.63,0,0,1-16.56-2.48l-1.12-.22,0-.24a37.28,37.28,0,0,1-.67-7.6V81.8l.09,0,.34.07c5.78,1.15,11,2,15.83,2.54A255.75,255.75,0,0,0,183,86.27h1a9.83,9.83,0,0,0,2-2.78,15.9,15.9,0,0,0,1.41-3h0l-1.51-.9c-3.8-2.24-7.12-4.19-7.85-8.87-.21.27-.48.58-.79.94A12.75,12.75,0,0,0,175,74.86a1.75,1.75,0,0,0-.13.67,11.46,11.46,0,0,0,.27,1.86,8.84,8.84,0,0,0,.94,2.48l.11.19.22.39-.68,0c-5.86-.29-11.91-.8-18.48-1.56-5.68-.66-11.49-1.62-18.28-3l-.44-.09.15-.36,0,0a13,13,0,0,1,2.55-3.87,13.26,13.26,0,0,1,2.43-2l-.21-.15c-.33-.23-.73-.54-1.24-1-1.25-1-3-2.34-3.82-2.34a.39.39,0,0,0-.2,0,12.32,12.32,0,0,0-6,7.82l0,.09v0l-.09.35-.36-.08c-3.76-.86-7.48-1.75-11.28-2.67-.3,0-1.06,1-2.88,5.17l-.08.18-.16.36,1.1.26c4.23,1,8.55,2.05,12.86,3l.28.06v.28a45.48,45.48,0,0,0,1.15,7.7l0,.13.09.4-.55-.1-1.87-.31c-.66,0-2,3.27-2.56,4.5l-.39.9q-.27-.33-.56-.63a7.57,7.57,0,0,0-3.59-1.34h-.07l-1.18.23c-2.43.47-5.12,3.63-8.24,9.68l-1.92-.6-.58.89c-.75,1.79-1.12,2.74-1.28,3.27s-.14.63-.12.74l.06.27.56.19,1,.35h0c-.15.39-.26.7-.34,1a2.8,2.8,0,0,0-.18,1c-.14.52-.24,1-.34,1.47a12.91,12.91,0,0,0-.3,3.1,6.32,6.32,0,0,0,.12,1l.09.4a13.68,13.68,0,0,0,2.45,4.63A7.59,7.59,0,0,0,118,122a4.53,4.53,0,0,0,.83-.08l3-.57a4.47,4.47,0,0,0,2-1.25l2.08-2.05.1-.13,0-.09c.49-1,.88-1.86,1.18-2.55l.08-.18.23-.53h-.05l-.51-.12c-.43-.11-.86-.23-1.29-.37l-.32-.11-.29.36a5.27,5.27,0,0,1-3.31,2.18l-1,.19a5.46,5.46,0,0,1-4.44-1.37,15.21,15.21,0,0,1-2.45-4.74A6.68,6.68,0,0,1,114,108h0l1.34.47c7.2,2.17,11.24,3.23,12.35,3.23l.25,0,.19,0,.11-.16a9.58,9.58,0,0,0,1.46-3,1.37,1.37,0,0,0,.24-.28,2.44,2.44,0,0,0,.32-.82c.3-1.35.18-4.09-1.07-9.88L129,96.42l0-.12a11.83,11.83,0,0,0-1.16-1.86l.41.07.29.05c2.06.35,4.11.74,6,1.12l.22,0,.06.21c.46,1.48.93,2.91,1.37,4.26.52,1.58,1,3.07,1.4,4.39l.52,1.73c2,6.56,4.51,14.94,3.71,21.89,0,.13,0,.25,0,.38a137.43,137.43,0,0,0-31.93-.11,139.48,139.48,0,0,0-36.06,9.27c-6,2.4-12.64,5.22-17.41,9.59a12.4,12.4,0,0,0-1.79,3.23,2.36,2.36,0,0,1-.41.63c5-4.6,12.1-7.45,18.35-10a132.87,132.87,0,0,1,22.76-6.78q6-1.25,12.16-2a130.57,130.57,0,0,1,33.26.14h.05a13.15,13.15,0,0,1-.91,1.89,13,13,0,0,1-7.49,5.62l-.42.14a16.38,16.38,0,0,1,1.55,1.22c.4.34.83.69,1.25,1,.87.66,1.73,1.16,2.36,1,4-.92,6.86-2.83,8.58-5.69a13.11,13.11,0,0,0,1.38-3.33c.08-.29.16-.59.22-.88h0c16.25,2.81,32.08,8.18,47.47,14.76.14.06.69-.64,1.24-1.47a8.19,8.19,0,0,0,1.17-2.29.26.26,0,0,0,0-.17C194.28,140.22,192.24,137.21,192.13,132Zm-33.23-29,.58-6.16.06.1,2.64,4.3a48.22,48.22,0,0,1,3.24,5.34,7.34,7.34,0,0,1,.62,2.64l0,.08-.09.35q-.2.79-5.61.15l-1.74-.45-.07-.13-.07-.58Zm-43-.13.22-.33c2.56-3.87,4.14-4.91,5-5.09a4.11,4.11,0,0,1,2.87.73A7.15,7.15,0,0,1,125.9,101l.9,4.59.08.42C122.13,104.83,118.44,103.76,115.89,102.84Z" transform="translate(0 0)" fill="#00afef"/><path d="M47.67,185.08a.75.75,0,0,1-.75.75h0a.75.75,0,0,1-.75-.75v-24.5a.75.75,0,0,1,.75-.75h0a.75.75,0,0,1,.75.75Z" transform="translate(0 0)" fill="#00afef"/><path d="M134.17,117.58a.75.75,0,0,1-.75.75h0a.75.75,0,0,1-.75-.75V93.08a.75.75,0,0,1,.75-.75h0a.75.75,0,0,1,.75.75Z" transform="translate(0 0)" fill="#00afef"/><path d="M44.67,174.3c0,.29-.34.53-.75.53h0c-.41,0-.75-.24-.75-.53V156.87c0-.29.34-.53.75-.53h0c.41,0,.75.24.75.53Z" transform="translate(0 0)" fill="#00afef"/><path d="M224.67,152.8c0,.29-.34.53-.75.53h0c-.41,0-.75-.24-.75-.53V135.37c0-.29.34-.53.75-.53h0c.41,0,.75.24.75.53Z" transform="translate(0 0)" fill="#00afef"/><path d="M181.17,146.3c0,.29-.34.53-.75.53h0c-.41,0-.75-.24-.75-.53V128.87c0-.29.34-.53.75-.53h0c.41,0,.75.24.75.53Z" transform="translate(0 0)" fill="#00afef"/><path d="M46.67,133.8c0,.29-.34.53-.75.53h0c-.41,0-.75-.24-.75-.53V116.37c0-.29.34-.53.75-.53h0c.41,0,.75.24.75.53Z" transform="translate(0 0)" fill="#00afef"/><path d="M36.17,124.8c0,.29-.34.53-.75.53h0c-.41,0-.75-.24-.75-.53V107.37c0-.29.34-.53.75-.53h0c.41,0,.75.24.75.53Z" transform="translate(0 0)" fill="#00afef"/><path d="M220.17,163.58a.75.75,0,0,1-.75.75h0a.75.75,0,0,1-.75-.75v-24.5a.75.75,0,0,1,.75-.75h0a.75.75,0,0,1,.75.75Z" transform="translate(0 0)" fill="#00afef"/><circle cx="47" cy="189.29" r="0.86" fill="#00afef"/><circle cx="41.14" cy="167.25" r="0.86" fill="#00afef"/><circle cx="219.14" cy="103.91" r="0.86" fill="#00afef"/><circle cx="225.14" cy="155.91" r="0.86" fill="#00afef"/><circle cx="107.8" cy="141.91" r="0.86" fill="#00afef"/><circle cx="27.47" cy="115.58" r="1.55" fill="#00afef"/></svg>