<svg id="art" xmlns="http://www.w3.org/2000/svg" viewBox="0 0 253 253"><title>epidemic</title><rect width="253" height="253" fill="#fff"/><polygon points="48.73 152.61 54.02 143.68 56.96 140.31 114.61 54.11 121.22 44.57 124.66 39.73 128.84 43.48 184.06 133.55 188.71 140.08 195.74 152.61 182.77 154 65.06 153.12 48.73 152.61" fill="#e31b23"/><polygon points="63.03 144.91 174.66 145.87 181.99 144.91 179.37 138.2 124.66 51.31 68.24 136.01 63.03 144.91" fill="#ffc425"/><path d="M121.73,40l-4.4,6.53c-1,1.49-2,3-3,4.47L89,88.79l-16.9,25.16L55.21,139l-2.9,3.29-7.53,12.53,20.68.6,117.31.9L194.41,155l1.36-.15,3.85-.41-1.93-3.06-.07-.11.65-1.27-1.36.15-1.11-1.79L194,145.33l-3.62-6.17-.12-.18c-1.39-1.91-2.78-3.82-4.15-5.74l-.49-.68L160.29,90.88,145.65,66.53,130.86,41.71l-3-2.4-1-.81-2.64-2.08L122.41,39m60.26,112.73-117.15-.86c-3.65-.1-7.33-.22-11-.34l-1.89-.06,3.2-5.47,2.83-3.28,16.89-25.43L92.35,91l16.83-25.21,2.16-3.23c2-3.07,4.16-6.25,6.31-9.31,1-1.48,2.07-2.95,3.12-4.42L122,47.14l2.88-3.92,1.86,1.9,15,23.8L156.8,93l15,24.15,10.76,17.38.57.81q2,2.84,4,5.71l1.65,3.06,3.34,6.34.12.23Z" transform="translate(0 0)" fill="#551900"/><path d="M64.4,144.14c8.85-.09,17.7,0,26.55.1l27.91.37,27.91.36,27.91.42h-.07l7.34-.91-.35.59-2.65-6.7,0,.08L124,51.72l1.3,0c-4.68,8.11-10,15.79-15.16,23.57L94.57,98.6,78.91,121.84l-7.86,11.6-2,2.9-.09.14-.11.19-.22.38-.45.75-.9,1.5Zm-2.68,1.51,4.12-7.22.87-1.52.44-.76.22-.38.11-.19.06-.09,0,0,.06-.09,1.92-2.93L77.2,120.7,92.61,97.3,108.11,74c5.18-7.77,10.23-15.63,15.91-23.07l.71-.93.59.95L179.75,138l0,0v0l2.6,6.72.2.51-.55.08-7.33,1h-.07l-27.91-.06-27.91-.12-27.91-.12c-9.3,0-18.61-.11-27.91-.38Z" transform="translate(0 0)" fill="#551900"/><polygon points="198.95 150.59 202.09 156 194.54 157.26 196.25 158.75 203.81 156.9 199.89 150.67 198.95 150.59" fill="#551900"/><polygon points="195.92 143.79 197.11 143.79 195.45 141.95 194.82 142.46 195.92 143.79" fill="#551900"/><polygon points="137.51 61.42 145.31 74.46 143.8 75.17 136.99 62 137.51 61.42" fill="#551900"/><polygon points="73.57 120.57 70.08 125.49 70.62 125.49 73.57 121.99 73.57 120.57" fill="#551900"/><polygon points="84.89 95.99 78.85 104.97 78.19 104.97 83.33 96.54 84.89 95.99" fill="#551900"/><polygon points="120.01 39.73 116.93 43.56 116.27 42.53 119.24 39.73 120.01 39.73" fill="#551900"/><polygon points="176.79 138.2 178.34 140.08 179.37 142.97 173.84 144.07 173.84 142.58 178.34 142.58 176.6 140.31 176.79 138.2" fill="#551900"/><polygon points="173 133.54 166.9 125.1 166.9 126.18 171.45 133.54 173 133.54" fill="#551900"/><polygon points="125.65 58.96 124.66 56.71 121.88 61.42 124.66 58.54 125.65 58.96" fill="#551900"/><path d="M195,177.85l-5.79-2.45,4.41-1.18-1.4-12.7-21.8-2.72.08,1.14L165.4,161,155,159.65l-1.83,2.73-1.52-3.5-7.29,1.46.08-.33-24.07-3.64,0,1-19.25-2,.05-1.43-3.42.62,0-1.29-19,4.83L57,154.89l.37,9-.1,26.91,18.45-.9L74,191.33l-.18.52-9.9-.68v12.35l8,.51-.38,1.14,3.23.25-.15,2.83h3.1l0,.58L82,208.3l3.18,0,.1-.36,5.85-.72-.51,5.59L104,214.49l2.07-4.79,1.81,5.6,5.92-1.11.15,1.13,11.61-1.87v2.13l14.67-2.83,0,.77,14.61,1.38,4-7.26-.21-2.09,2.18-.17-.13,2.62h3.09l0,.58,4.38-.54,3.18,0,.1-.35,6.12-.75-.52-2.76,9-.69V191l-9.26,1-.46-1.74L174,189.15,192.28,191Zm-35,13.24L159,194l-1.25.14L156,189l7.16-.49ZM98.14,186.2l-1.33,7.23-6-.41-.67-2.52L85.25,188l7.48-1.74Z" transform="translate(0 0)" fill="#551900"/><path d="M86.33,177l2.38,5.63-9.79,2.27-1.33-3.61,2.58-.31.16-13.88-2.78.14-.85-4,16.57-4.22-.55,16.21Zm-1.2-11.13.15,7.13,2.57.12,1-7.32Z" transform="translate(0 0)" fill="#e31b23"/><path d="M93,181.85l1.49-3.59,2.38-.12.44-12.53-3.18.32-.51-2.59,10.28-1.86.26,4-2.58.31,1.21,12.94,2.51.05.69,3Z" transform="translate(0 0)" fill="#e31b23"/><path d="M119.61,184.95l-12.56-3.2.11-3.16,2.94-.29-.78-11.9-4.08-.54.19-5.54,17.74,1.8,2.35,12.35Zm-1-17.85-4-.14-.39,11.47,3.93.93,1.39-5.89Z" transform="translate(0 0)" fill="#e31b23"/><path d="M128.13,184.84l-.78-19.09-2.18-.43-.15-3.82,14.13,2.13-.93,4.13L132.7,167l-.32,3.55,4.51,1.34-.1,3-4-.13-.53,3.75,7.72.06.26,4Z" transform="translate(0 0)" fill="#e31b23"/><path d="M61.71,186.2l.09-22.35h0L61.64,160l14.13,2.13-.93,4.13-5.52-.78L69,169.06l6.28,1-.89,6-6.38-.6.76,4.48,7.72,1.59.26,4Z" transform="translate(0 0)" fill="#e31b23"/><path d="M155.29,184.68l-.25-4.17,2.38-.12.32-9.29-4.39,7-5.68-7.72.92,8,2,.27-.14,4-7.92-.07-.08-3.56,2.2-.52-.54-9.32-2.06.33-.52-4,7.58-1.52,3.3,7.64,4.8-7.16,6.22.81-.12,15,1.56.05.07,3.76Z" transform="translate(0 0)" fill="#e31b23"/><path d="M166.65,184.05l-.89-2.8,2.38-.12L167.79,168l-3.18.32-.5-2.59,9.17-1.9.26,4-2.58.31,1.21,12.94,2.51.05.69,3Z" transform="translate(0 0)" fill="#e31b23"/><path d="M188.78,186.2,176.55,185l-1.39-21.16,13.07,1.63.61,5.5-4.6,1.23v-3.56l-3.69-.06-.67,11.92,4.79,1,.56-3,4.75,2Z" transform="translate(0 0)" fill="#e31b23"/><path d="M110.83,210.28l-1.88-5.83-5.27-.38-2.45,5.64L95.41,209l.38-4.14h3.39l3.2-17.3,7.33-.75,4.14,19,2.82-.37.19,3.76Zm-3.39-17.49-2.26.19-.56,6.77,3.39.19Z" transform="translate(0 0)" fill="#ffc425"/><path d="M128.6,208.52l-10.93,1.75-2.87-21.56,8.13-1.49-1,18.15,3.14-.17-.19-3.23,4.14.53Z" transform="translate(0 0)" fill="#ffc425"/><path d="M129.91,210.28V187.8l11.47,2.07-.75,3.95-4-.23L136.4,197l3.1.79v2.82h-3.76l-.38,3.57,7.33-.19.38,3.76Z" transform="translate(0 0)" fill="#ffc425"/><path d="M144.67,209.56l.19-6.77,2.63.19,1.13,2.82h1.69v-3l-5.83-4.7-.19-6.58,1.88-2.26,5.27.19,1.69,4.7-2.44.94L150.5,193l-2.26.56.38,3.38,4.89,2.26.75,7.52-1.95,3.54Z" transform="translate(0 0)" fill="#ffc425"/><path d="M171.84,201l2.23-1.26-1.69-1.51.77-2.33-.69-2.61L169,191.51l-3.48.76-1.73,1.42-.9,2.64.69,1.81.66.55-.76,2.29,1.89.15-.13,2.49h1.16l.25-1.48h.18l-.11,1.46h1.21l.45-1.53.18,0-.11,1.48,1.8-.22-.28-1.15.76-.31v1.4l1.5-.18Zm-4.28-3-.4.77-1.13.1-.5-.72.05-.68.4-.36,1.36.11.26.31Zm1,2.24-.28-.44-.37.39-.25-.2.34-1,.48-.3.62,1.36Zm2.77-1.75-.69.73-1.27-.31-.32-.94,0-.56.35-.3,1.56.12.38.48Z" transform="translate(0 0)" fill="#ffc425"/><path d="M79.11,203.63l1.52.07-.1-1.4.78.25-.19,1.17,1.81.08-.22-1.47.18,0,.57,1.49,1.21-.09-.22-1.45.18,0,.36,1.46,1.16-.09-.32-2.47,1.88-.29-.94-2.23.62-.6.55-1.86-1.1-2.56L85,192.3l-3.53-.49-3.31,2-.49,2.66.94,2.26L77,200.38l2.32,1.09Zm4.2-6,.24-.33,1.34-.21.42.33.1.67-.44.76H83.85l-.45-.73ZM82,200.33l.51-1.4.5.27.41.94-.23.22-.4-.36-.24.46Zm-2.46-2.18.35-.51,1.55-.24.38.28.08.56-.25,1-1.25.4-.74-.68Z" transform="translate(0 0)" fill="#ffc425"/><polygon points="160.92 198.19 157.92 198.52 157.92 201.21 161.33 200.95 160.92 198.19" fill="#e31b23"/><path d="M177.06,196.38c0,1,0,2.2,0,3.36l4.45-.34v-3.53Z" transform="translate(0 0)" fill="#e31b23"/><polygon points="89.79 197.35 90.07 200.79 96.58 201.21 96.58 197.82 89.79 197.35" fill="#e31b23"/><polygon points="74.46 196.3 68.33 195.88 68.33 199.4 74.7 199.81 74.46 196.3" fill="#e31b23"/><path d="M94.63,144.71l.06-.11.9-1.66,2.26-1.25-2.09-.78h-.09l-4-.41-.3,0-.26.27L88,144l-1.44,1.5,2-.19,6-.56Zm33.12-14.49-3.92-.57-1,2.52v1.75h1.34l2.43-1.56Zm-47.41,8.36L76,140.12l-.67.24.29.74,1.42,3.69.26.67.69-.21,3.69-1.1.34-.1.15-.32,1.17-2.59.28-.63-.49-.29Zm-1.63-45v.09l.07.1,1.34,1.93.08.11.17,0c.82.19,1.62.44,2.42.7l1.19.41,1.17.45c.78.31,1.56.62,2.31,1,.34.17.68.36,1,.56l-1,.82v3h2.91l2.12.54,2.24,1.82.28.23.33-.06,1.39-.25.42.32.8.62.38.29.24-.14,1.72-1,.08,0,.09-.13.94-1.38,4.08.38.35,0,.2-.19,2.11-2,4,1.73V105l1.81,1.14,2.44.32.27-.34c.57-.71,1.23-1.52,1.38-1.69a8.75,8.75,0,0,0,1.21-2.14l.05-.11.54-3.41-3-1.53-.74.3L111.88,95v-.31l-.51-2.79-2.3-1.52.79-2,.05-.14,0-.19-.2-1.46-.06-.44-.4-.17-1.49-.64.06-.57L106.7,83.3h-2.31l-.16,0,.43-1.06-2.39-1.94-3.2.7-1.45,2.23,1.05-2.95V76.77l-.7-.16,0-.09.48-2.13,0-.09.29.11,1.14-6.9-2.18-4.9-4.18-.24.53,3.47-.18,5.49-.26,2.36h-.09l.06.28,0,.34.11,0,0,.07.46,2.18h.37l-1.47.77-.64,2.46-2.82-2.09-.27-.2-.26.05-3.64.73-.17,0-.1.11-5.43,6.33-.09.11,0,.17-1.35,5,0,.14v.06ZM132,152.14l-.06-.74-.6,0-2.9.2-3.77,2.8-.11.08v-.41l2.6-2.42.3-.29-.07-.41-.39-2.33-.12-.73-.73.09h0l-4.28.86a26.62,26.62,0,0,0-4.26-2.48c-1.53-.73-3.08-1.39-4.65-2s-3.15-1.2-4.74-1.76c-1.41-.49-2.81-1-4.24-1.4v-2.56l.42,1.35.12.37.37.13,2.4.84.23.08.18-.05,7.48-2.17-7.38-2.46-2-1.21-.62-.37-.4.65-.91,1.49-.18.3.1.33,0,.14-.91.41-3.18,1.42-.51.23,0,.44.35,3.13-.48.18v-2.49L95.58,143l-.87,2.47,3-1-2.35.89-.12,0,0,.11h0l-1,3.66-.18.65.65-.25,3-1.08,6.65.93,13.62,6.22,1,4.13.15.62.75-.11h0l4.14-.91.61-.13v-3.63l.74,3,.14.57h.53l4.05.09h.22l.16-.18,1.85-2,.17-.18,0-.33Zm-14.07-.52-8.51-5,9.25,3.33Zm61.73-55.53a34.78,34.78,0,0,0-4.13-10.55A27.55,27.55,0,0,0,172,81a28.6,28.6,0,0,0-4.31-3.75,25.87,25.87,0,0,0-5-2.79A19.87,19.87,0,0,0,157.2,73a20.43,20.43,0,0,0-5.72.18,23.27,23.27,0,0,0-5.5,1.65,27.78,27.78,0,0,0-2.59,1.28q-.63.36-1.24.75c-.33.22-.65.43-1,.67a7.93,7.93,0,0,0-2.1-.73h0l-.33,0-.26.23L134,80.94l-.48.43.33.55.6,1-.28.16-.21.37-6.85,2.64-1.72.66,1.63.74,2.15,1-.26,1.08-5,4.2c-.5.37-1,.73-1.52,1.07l-.95.61,1.27.7h0a56.32,56.32,0,0,1,7.11,2.8,65.53,65.53,0,0,1,6.09,3.25l-5.45,7-.63-.13a53.87,53.87,0,0,0-5.77-.7c-1.93-.13-3.85-.19-5.81-.13l-1,0,.33,1,2.79,8.32-2.62,2.74-.53.55.55.54.74.73-1.43-.63-.07,0-.08,0L111,120.19l-1.83-2.31-.37-.47-.55.24-1.16.52-.11.05,0-.26-2.1-1.3-4.37,1.57.27,2.1L100,117.7l-3.84-.37-.76-.07V118l-.08,4.58-4.9,4.06-1.25,1-.63.52-.08.06,0,0,0,0-.19.17-.3.28L86,130.59l.74-6,4.9-13.06,3.4-2.64.84-.65-1-.61-1.21-.6-1.87-1.62-.37-.32-.45.2-2.6,1.62-.91-2.23-.21-.51-.55,0h0c-.81.15-1.63.24-2.44.33l-1.23.12c-.21,0-.41,0-.65.08l-.11,0h0l-.07,0h0a.6.6,0,0,0-.25.2.69.69,0,0,0-.07.14l0,.08a.85.85,0,0,0,0,.1c0,.05,0,.09,0,.13a3.18,3.18,0,0,0,0,.37c.12.86.28,1.65.43,2.46s.25,1.43.36,2.15c-.32.82-.66,1.63-1,2.45l-1.13,2.65c-.76,1.77-1.55,3.52-2.34,5.27l0,.05v.06c-.45,2.06-.9,4.12-1.39,6.17L76,130.15c-.24.93-.47,1.86-.72,2.79l-3.37,2.82-.59.49.49.59,2.33,2.85.34.41.51-.16,5.41-1.76L84,140.45l.4.25.41-.24,2.85-1.68.55-.32,0-.11.52-.77,1.22-1.79,7.89-7.67,4.83-1,.53-.11.08-.53.39-2.52,0-.29,1.21.39.36-.57.53,1.77.13.42.42-.11,2.64-.69,7.2.13,4.71,1.41.79.24-.41-.74L120,123.69l2.66,2.62.31.3.42-.1a38.81,38.81,0,0,1,7.44-.95,65.59,65.59,0,0,1,7.57.17c2.52.2,5,.51,7.54.91s5,.89,7.44,1.5l.88.22.09-.89.32-3.14.94-3.47.78.1c.5.06,1,.09,1.51.11a21,21,0,0,0,3-.1,20.61,20.61,0,0,0,5.75-1.46,21.68,21.68,0,0,0,9-7.19c.58-.77,1.11-1.56,1.61-2.38a19.09,19.09,0,0,0,1.33-2.57,18.29,18.29,0,0,0,1.36-5.58A20.58,20.58,0,0,0,179.62,96.09Zm-99,34.63-.28-.64,2.18-8.48.36-.82.17,6.85Zm8.65-1.45h0ZM154,132.8l1.32-2.67h-4l-1.85,1.4,1.33-1.51-14.86-2.84-5.61-.61-1.63,2.85,17.43,5.9.73-.83-1.27,2.32-10,7.1.06-.38.31-2.13L136,141l.23,0,3.46-.65.56-.11.06-.53.43-3.66,0-.42-.38-.2-3.08-1.66-.15-.08H137l-8.65.32h-.07L122.49,135l11.65,5.14-13.63-4,5.71,5.93,0,0,.06,0,4.85,3.54.35.26.42-.21,3.3-1.62.26-.13-1.94,1.38-5.41,2.53-.54.25.12.61h0l.39,1.81.12.54.54.07h0l3.36-.15,1.82,4.73.19.5.71-.13,5-1.49.66-.2-.12-.68h0l-.43-3.08c2.41-2.19,4.88-4.29,7.38-6.37,1.32-1.09,2.65-2.17,4-3.22l1-.78.25-.19.11-.07h0l.65-.11a10,10,0,0,1,2.61-.09l.54-.12.07-.55.45-3.62.06-.45-.36-.27Zm-21.95,18.13h0Zm-22-19.76-2-.67-.18-.06-.23.14-2,1.3-.16.11,0,.19-.5,2-.12.48.4.16,3.33,1.31,0,0h.08l8.06,1.17.3,0,.15-.12,2.12-1.74-9.16-4.38h0ZM118,141l.35.51,3.15,4.62.08.12.11.06,2.35,1.19.22.11.24-.07,2.76-.84.48-.15V144l-.42-.19-7.45-3.31-1.35.37Zm3.16-6.37.71.32-.37-.69-3.13-5.9-.06-.12-.13-.08-4-2.67-2.71.76-.34.09-.12.4-.71,2.33-.2.66.6.27Z" transform="translate(0 0)" fill="#fff0d2"/><path d="M94.63,144.71l.06-.11.9-1.66,2.26-1.25-2.09-.78h-.09l-4-.41-.3,0-.26.27L88,144l-1.44,1.5,2-.19,6-.56Zm33.12-14.49-3.92-.57-1,2.52v1.75h1.34l2.43-1.56Zm-47.41,8.36L76,140.12l-.67.24.29.74,1.42,3.69.26.67.69-.21,3.69-1.1.34-.1.15-.32,1.17-2.59.28-.63-.49-.29Zm-1.63-45v.09l.07.1,1.34,1.93.08.11.17,0c.82.19,1.62.44,2.42.7l1.19.41,1.17.45c.78.31,1.56.62,2.31,1,.34.17.68.36,1,.56l-1,.82v3h2.91l2.12.54,2.24,1.82.28.23.33-.06,1.39-.25.42.32.8.62.38.29.24-.14,1.72-1,.08,0,.09-.13.94-1.38,4.08.38.35,0,.2-.19,2.11-2,4,1.73V105l1.81,1.14,2.44.32.27-.34c.57-.71,1.23-1.52,1.38-1.69a8.75,8.75,0,0,0,1.21-2.14l.05-.11.54-3.41-3-1.53-.74.3L111.88,95v-.31l-.51-2.79-2.3-1.52.79-2,.05-.14,0-.19-.2-1.46-.06-.44-.4-.17-1.49-.64.06-.57L106.7,83.3h-2.31l-.16,0,.43-1.06-2.39-1.94-3.2.7-1.45,2.23,1.05-2.95V76.77l-.7-.16,0-.09.48-2.13,0-.09.29.11,1.14-6.9-2.18-4.9-4.18-.24.53,3.47-.18,5.49-.26,2.36h-.09l.06.28,0,.34.11,0,0,.07.46,2.18h.37l-1.47.77-.64,2.46-2.82-2.09-.27-.2-.26.05-3.64.73-.17,0-.1.11-5.43,6.33-.09.11,0,.17-1.35,5,0,.14v.06ZM132,152.14l-.06-.74-.6,0-2.9.2-3.77,2.8-.11.08v-.41l2.6-2.42.3-.29-.07-.41-.39-2.33-.12-.73-.73.09h0l-4.28.86a26.62,26.62,0,0,0-4.26-2.48c-1.53-.73-3.08-1.39-4.65-2s-3.15-1.2-4.74-1.76c-1.41-.49-2.81-1-4.24-1.4v-2.56l.42,1.35.12.37.37.13,2.4.84.23.08.18-.05,7.48-2.17-7.38-2.46-2-1.21-.62-.37-.4.65-.91,1.49-.18.3.1.33,0,.14-.91.41-3.18,1.42-.51.23,0,.44.35,3.13-.48.18v-2.49L95.58,143l-.87,2.47,3-1-2.35.89-.12,0,0,.11h0l-1,3.66-.18.65.65-.25,3-1.08,6.65.93,13.62,6.22,1,4.13.15.62.75-.11h0l4.14-.91.61-.13v-3.63l.74,3,.14.57h.53l4.05.09h.22l.16-.18,1.85-2,.17-.18,0-.33Zm-14.07-.52-8.51-5,9.25,3.33Zm61.73-55.53a34.78,34.78,0,0,0-4.13-10.55A27.55,27.55,0,0,0,172,81a28.6,28.6,0,0,0-4.31-3.75,25.87,25.87,0,0,0-5-2.79A19.87,19.87,0,0,0,157.2,73a20.43,20.43,0,0,0-5.72.18,23.27,23.27,0,0,0-5.5,1.65,27.78,27.78,0,0,0-2.59,1.28q-.63.36-1.24.75c-.33.22-.65.43-1,.67a7.93,7.93,0,0,0-2.1-.73h0l-.33,0-.26.23L134,80.94l-.48.43.33.55.6,1-.28.16-.21.37-6.85,2.64-1.72.66,1.63.74,2.15,1-.26,1.08-5,4.2c-.5.37-1,.73-1.52,1.07l-.95.61,1.27.7h0a56.32,56.32,0,0,1,7.11,2.8,65.53,65.53,0,0,1,6.09,3.25l-5.45,7-.63-.13a53.87,53.87,0,0,0-5.77-.7c-1.93-.13-3.85-.19-5.81-.13l-1,0,.33,1,2.79,8.32-2.62,2.74-.53.55.55.54.74.73-1.43-.63-.07,0-.08,0L111,120.19l-1.83-2.31-.37-.47-.55.24-1.16.52-.11.05,0-.26-2.1-1.3-4.37,1.57.27,2.1L100,117.7l-3.84-.37-.76-.07V118l-.08,4.58-4.9,4.06-1.25,1-.63.52-.08.06,0,0,0,0-.19.17-.3.28L86,130.59l.74-6,4.9-13.06,3.4-2.64.84-.65-1-.61-1.21-.6-1.87-1.62-.37-.32-.45.2-2.6,1.62-.91-2.23-.21-.51-.55,0h0c-.81.15-1.63.24-2.44.33l-1.23.12c-.21,0-.41,0-.65.08l-.11,0h0l-.07,0h0a.6.6,0,0,0-.25.2.69.69,0,0,0-.07.14l0,.08a.85.85,0,0,0,0,.1c0,.05,0,.09,0,.13a3.18,3.18,0,0,0,0,.37c.12.86.28,1.65.43,2.46s.25,1.43.36,2.15c-.32.82-.66,1.63-1,2.45l-1.13,2.65c-.76,1.77-1.55,3.52-2.34,5.27l0,.05v.06c-.45,2.06-.9,4.12-1.39,6.17L76,130.15c-.24.93-.47,1.86-.72,2.79l-3.37,2.82-.59.49.49.59,2.33,2.85.34.41.51-.16,5.41-1.76L84,140.45l.4.25.41-.24,2.85-1.68.55-.32,0-.11.52-.77,1.22-1.79,7.89-7.67,4.83-1,.53-.11.08-.53.39-2.52,0-.29,1.21.39.36-.57.53,1.77.13.42.42-.11,2.64-.69,7.2.13,4.71,1.41.79.24-.41-.74L120,123.69l2.66,2.62.31.3.42-.1a38.81,38.81,0,0,1,7.44-.95,65.59,65.59,0,0,1,7.57.17c2.52.2,5,.51,7.54.91s5,.89,7.44,1.5l.88.22.09-.89.32-3.14.94-3.47.78.1c.5.06,1,.09,1.51.11a21,21,0,0,0,3-.1,20.61,20.61,0,0,0,5.75-1.46,21.68,21.68,0,0,0,9-7.19c.58-.77,1.11-1.56,1.61-2.38a19.09,19.09,0,0,0,1.33-2.57,18.29,18.29,0,0,0,1.36-5.58A20.58,20.58,0,0,0,179.62,96.09Zm-99,34.63-.28-.64,2.18-8.48.36-.82.17,6.85Zm8.65-1.45h0ZM154,132.8l1.32-2.67h-4l-1.85,1.4,1.33-1.51-14.86-2.84-5.61-.61-1.63,2.85,17.43,5.9.73-.83-1.27,2.32-10,7.1.06-.38.31-2.13L136,141l.23,0,3.46-.65.56-.11.06-.53.43-3.66,0-.42-.38-.2-3.08-1.66-.15-.08H137l-8.65.32h-.07L122.49,135l11.65,5.14-13.63-4,5.71,5.93,0,0,.06,0,4.85,3.54.35.26.42-.21,3.3-1.62.26-.13-1.94,1.38-5.41,2.53-.54.25.12.61h0l.39,1.81.12.54.54.07h0l3.36-.15,1.82,4.73.19.5.71-.13,5-1.49.66-.2-.12-.68h0l-.43-3.08c2.41-2.19,4.88-4.29,7.38-6.37,1.32-1.09,2.65-2.17,4-3.22l1-.78.25-.19.11-.07h0l.65-.11a10,10,0,0,1,2.61-.09l.54-.12.07-.55.45-3.62.06-.45-.36-.27Zm-21.95,18.13h0Zm-22-19.76-2-.67-.18-.06-.23.14-2,1.3-.16.11,0,.19-.5,2-.12.48.4.16,3.33,1.31,0,0h.08l8.06,1.17.3,0,.15-.12,2.12-1.74-9.16-4.38h0ZM118,141l.35.51,3.15,4.62.08.12.11.06,2.35,1.19.22.11.24-.07,2.76-.84.48-.15V144l-.42-.19-7.45-3.31-1.35.37Zm3.16-6.37.71.32-.37-.69-3.13-5.9-.06-.12-.13-.08-4-2.67-2.71.76-.34.09-.12.4-.71,2.33-.2.66.6.27Z" transform="translate(0 0)" fill="#fff0d2"/><path d="M140.45,154.44l-.12-.68h0l-.43-3.08c2.41-2.19,4.88-4.29,7.38-6.37,1.32-1.09,2.65-2.17,4-3.22l1-.78.25-.19.11-.07h0l.65-.11a10,10,0,0,1,2.61-.09l.54-.12.07-.55.45-3.62.06-.45-.36-.27-2.67-2,1.32-2.67h-4l-1.85,1.4,1.33-1.51-14.86-2.84-5.61-.61,12.55,2.7-.39,1.17-4.35,1.36-1.21.4,8.74,3,2.14-3.37,3,.5,1.78,1.44-.87,3.3H150l.75,1.16-12.64,9.69-2.63-.26.48,1-.48,2h-1.57l-2.51-.09-2.14.61,2.83-.13,1.82,4.73.19.5.71-.13,5-1.49Zm-8.37-3.51h0Z" transform="translate(0 0)" fill="#ffd984"/><polygon points="81.09 140.55 79.51 141.13 76.67 140.74 75.54 140.3 75.37 140.36 75.65 141.1 77.08 144.79 77.34 145.46 78.02 145.25 81.71 144.15 82.05 144.05 82.2 143.73 83.32 141.24 81.09 140.55" fill="#ffd984"/><polygon points="131.96 152.14 131.9 151.4 131.3 151.44 129.23 151.58 128.96 154 127.1 155.31 125.35 154.78 124.74 154.35 124.63 154.43 124.52 154.51 124.52 154.19 122.56 152.81 123.76 150.76 120.52 153.53 118.32 152.55 106.97 146.48 100.85 145.46 96.32 144.95 96.32 144.95 95.33 145.33 95.21 145.38 95.18 145.49 95.18 145.49 94.16 149.15 93.98 149.8 94.63 149.55 97.59 148.47 104.24 149.4 117.86 155.63 118.86 159.76 119.02 160.38 119.77 160.28 119.77 160.28 123.91 159.37 124.52 159.24 124.52 155.61 125.26 158.61 125.4 159.18 125.92 159.19 129.98 159.28 130.19 159.29 130.36 159.11 132.21 157.12 132.38 156.94 132.35 156.61 131.96 152.14" fill="#ffd984"/><path d="M178,90.65a33,33,0,0,0-2.5-5.11A27.55,27.55,0,0,0,172,81c-.36-.38-.73-.76-1.12-1.12l-.32,1.45,4.91,10.58V96l-.84,2.21L168.27,98s-.38,1-.22,1-3.23,1.81-3.23,1.81L162.11,105l-.12,3.11h.54L165.1,105l3.65-3.28,4.25,1.57L167.44,112l-3.77.76-2.22-4.16-1.24-9.31-.86,7.07L154.09,105,142.74,112l-3-8.21L137,101.7l-6.57,7.49,1.21.75,5.36.69-2.74,1-1.37,4,2.62.52-4.59,3.48,18.46,1.85-2,1.52,1.69,3.54-3.45,0h0l.3,0c2.5.41,5,.89,7.44,1.5l.88.22.09-.89.32-3.14.94-3.47.78.1c.5.06,1,.09,1.51.11a21,21,0,0,0,3-.1,20.61,20.61,0,0,0,5.75-1.46,21.68,21.68,0,0,0,9-7.19c.58-.77,1.11-1.56,1.61-2.38a19.09,19.09,0,0,0,1.33-2.57,18.29,18.29,0,0,0,1.36-5.58,20.58,20.58,0,0,0-.35-5.69A32.76,32.76,0,0,0,178,90.65Z" transform="translate(0 0)" fill="#ffd984"/><path d="M94.5,144.72h.14l.06-.11.71-1.3a4.79,4.79,0,0,0-.77-1.16,29.21,29.21,0,0,1-3.27-.52l-1.2.09L88,144l-1.44,1.5,2-.19Z" transform="translate(0 0)" fill="#ffd984"/><polygon points="137.35 133.71 137.2 133.63 137.02 133.64 132.06 133.82 131.72 133.94 135.14 136.33 133.3 138.2 130.29 138.46 134.14 140.16 128.81 138.59 128.81 138.59 128.81 141.63 127.76 142.58 126.6 142.36 131.14 145.67 131.27 145.76 135.76 142.72 135.96 141.39 136.02 140.98 136.25 140.94 139.21 140.38 140.34 139.62 140.76 136 140.81 135.58 140.43 135.38 137.35 133.71" fill="#ffd984"/><polygon points="122.55 141.69 120.52 142.02 119.22 142.8 121.52 146.15 121.6 146.27 121.71 146.33 122.36 146.65 125.28 147.33 127.28 146.72 127.76 146.57 127.76 144.01 127.34 143.82 122.55 141.69" fill="#ffd984"/><path d="M74.71,140v0l.06,0Z" transform="translate(0 0)" fill="#ffd984"/><path d="M94.71,145.45l1.58-.54c-.1-.17-.48-.87-.85-1.52Z" transform="translate(0 0)" fill="#ffd984"/><path d="M119.48,108.21l-1.28,0-1,0,.33,1,2.79,8.32-2.62,2.74-.53.55.55.54.74.73-1.43-.63-.07,0-.08,0-5.61-1.21-.88.32-3.2.61-3.73-2-2.12,1.4,2.22,3.7,0,0,.06-.38,0-.29,1.21.39.36-.57.53,1.77.13.42.42-.11,2.64-.69h.16l2.3-1.15,2.56,1.24,2.18,0,4.71,1.41.57.17h.18l-.37-.67L120,123.69l2.66,2.62.24.23h.34l.15,0c1.05-.25,2.12-.44,3.2-.59h.09l1.35-.16,9.31-1.1L130.42,123l-6.92.47-3.11-2.93,3.11-3.81-2.28-1.16-1.36-7.39h-.38Z" transform="translate(0 0)" fill="#ffd984"/><path d="M88.19,138.45l0-.11.52-.77,1.22-1.79,7.89-7.67,4.83-1,.53-.11.08-.53.39-2.52,0-.29.64.21a15.55,15.55,0,0,0-.15-3,16.34,16.34,0,0,1-3.52-1.66l.16,1.19L100.4,119c-1.09-.59-2-1.11-2-1.11l-.75,4.72-8.72,8.77-1.19-1.57-1.7.7-.06.05v0l-1.1.45-1.9.4-1.45,3.17-1.19-1,.07-3.37,0-.1,0-.18.13-6.87,3.89-7.14,1.07-4.5-1.07-5.27,1.44-.63-.7-1.06-.92.11-1.23.12c-.21,0-.41,0-.65.08l-.11,0h0l-.07,0h0a.6.6,0,0,0-.25.2.69.69,0,0,0-.07.14l0,.08a.85.85,0,0,0,0,.1c0,.05,0,.09,0,.13a3.18,3.18,0,0,0,0,.37c.12.86.28,1.65.43,2.46s.25,1.43.36,2.15c-.32.82-.66,1.63-1,2.45l-1.13,2.65c-.76,1.77-1.55,3.52-2.34,5.27l0,.05v.06c-.45,2.06-.9,4.12-1.39,6.17L76,130.15c-.24.93-.47,1.86-.72,2.79l-3.37,2.82-.59.49.49.59,2.16,2.63,4.93-1.42.74.36.76-.25L84,140.45l.4.25.41-.24,2.85-1.68Z" transform="translate(0 0)" fill="#ffd984"/><polygon points="80.1 138.68 82.58 139.89 80.35 138.59 80.1 138.68" fill="#ffd984"/><path d="M103.68,92.63l-.27.08.23.35Z" transform="translate(0 0)" fill="#ffd984"/><polygon points="105.66 94.36 106.19 90.38 106.71 87.1 108.06 85.89 107.49 85.09 106.11 86.34 103.93 90.38 103.68 92.63 104.3 92.45 105.66 94.36" fill="#ffd984"/><path d="M103.41,92.71a7.05,7.05,0,0,1-1-1.89V88.36l1.11-3.85,1.07-.46.27-.75h-.49l-.16,0,.31-.75h-1.8l-2.18,5,.69,5,1,.49Z" transform="translate(0 0)" fill="#ffd984"/><path d="M96.95,62.58l-3.4-.19.53,3.47-.18,5.49-.26,2.36h-.09l.06.28,0,.34.11,0,0,.07.46,2.18h.37l-1.47.77-.64,2.46-.06,0,.28,1.16L96.8,83.1v7.65l2.48.83,1.21.61-.86-.91L98.4,88.36l1-3.87,2-3.29L98.44,82l-.82,1.27L98,82.11l-1.68.46-.83-3,.83-4.38V72.5L96.12,68V63.91Z" transform="translate(0 0)" fill="#ffd984"/><polygon points="101.24 92.56 100.49 92.18 101.31 93.05 101.24 92.56" fill="#ffd984"/><path d="M87.48,98.37c.34.17.68.36,1,.56l-1,.82v3h2.91l2.12.54,2.24,1.82.28.23.33-.06,1.39-.25.42.32.8.62.38.29.24-.14,1.72-1,.08,0,.09-.13.91-1.33-.51-.69-1.57-.71-1.67-.46L95,100.09l-3.89-1.5c-.45-.18-.51-.83-.51-.83l-3.54.4Z" transform="translate(0 0)" fill="#ffd984"/><polygon points="91.33 105.14 91.51 105.2 91.4 105.1 91.33 105.14" fill="#ffd984"/><path d="M134,83.46l-6.85,2.64-1.72.66,1.63.74,2.15,1-.26,1.08-5,4.2c-.5.37-1,.73-1.52,1.07l-.95.61,1.27.7h0a56.32,56.32,0,0,1,7.11,2.8,65.53,65.53,0,0,1,6.09,3.25l-3.43,4.41c5.37,2.53,10.63,5,10.7,5.08s7.64,1,7.64,1l.91-8.87-2.37-1.47.24,1.74-3,3.29-3.66-3.08-8.76-5.74-.06-3.28L132,98.59l-3.08-1.43,1.33-3.7-3.13,2.79-.67-1.65L128,92l4-3.4,1.19.77-.34-1.73,1.3.84L137,89l2.87-1.74-1.1-3.43,2.92,1.43-.54-3s-2.72-1.14-2.91-1.14a12,12,0,0,1-1.47-.57l.22-.48,2.35-2.46,4.14,2.46.49-.13-.22-2,1.15-1.14L153.18,73c-.57.05-1.14.12-1.71.22a23.27,23.27,0,0,0-5.5,1.65,27.78,27.78,0,0,0-2.59,1.28q-.63.36-1.24.75c-.33.22-.65.43-1,.67a7.93,7.93,0,0,0-2.1-.73h0l-.33,0-.26.23L134,80.94l-.48.43.33.55.6,1-.28.16Z" transform="translate(0 0)" fill="#ffd984"/><path d="M140.33,89.41l-.66,5.87.66.21.29-2.09.24,1.87.52-1.87s.47,1.8.47,1.61.33-2.18.33-2.18l.66,1.7.24-5.91Z" transform="translate(0 0)" fill="#ffd984"/><polygon points="147.16 88.99 146.02 93.28 146.23 97.29 151.68 100.1 149.64 98.2 152.31 99.33 151.22 98.41 154.09 98.59 157.74 97.33 153.43 93.65 147.16 88.99" fill="#ffd984"/><path d="M88.06,77.78l9.13,6.27-.65,6.33L97.9,92l2.58-.13,1.76,1.42,2.05-.27,2,1.49,1.1-.83.32-2.85,2.53,1.32v3.1l4.73,2.47,2.4.83h1l-.84,3.42-1.94,3.18-2.33-.22-.84-2.12-4.35-1.61-3.49,1.54-6.18-1.22-1.92-2.41-2.26-2-3.82.1-1.17.65-9.13-3.31s-1.29-.31-1.9-2.36a4.67,4.67,0,0,1,.45-3.66l1.91-4.74,3.89-5Z" transform="translate(0 0)" fill="#3e7145"/><path d="M113.82,101.24l-3.62-1.14-1.09-2.37-1,0-3.19,1.72V96.86l-3.57,1.73.1-2.34L99.62,98l-.68-2.74-1.75,1-1.09-1.89L94,95.5l.23-2.45L89.75,95.5v-3.6L87,92.45l1.52-3-2.66.31-1-.73.9-3.32-3.71,3-.54-2.3,1.61-3.77L81,84.29l-.46-.24.48-.89-.48.62-1.91,4.74a4.67,4.67,0,0,0-.45,3.66c.61,2.06,1.9,2.36,1.9,2.36l9.13,3.31,1.17-.65,3.82-.1,2.26,2,1.92,2.41,6.18,1.22,3.49-1.54,4.35,1.61.84,2.12,2.3.22,2-3.18-2.19-1.53Z" transform="translate(0 0)" fill="#004712"/><polygon points="106.23 94.53 104.3 93.05 102.24 93.33 100.49 91.91 97.9 92.04 96.54 90.38 97.19 84.05 89.71 78.92 89.11 78.96 89.43 79.88 95.06 84.63 94.21 90.86 96.83 93.5 100.06 93.32 101.68 94.81 103.41 94.54 105.94 95.18 106.23 94.53" fill="#004712"/><polygon points="107.69 90.86 107.61 91.49 107.84 90.95 107.69 90.86" fill="#004712"/><polygon points="94.86 83.64 93.64 87.05 93.23 85.34 93.84 82.88 92.62 82.2 91.33 83.31 90.12 85.37 91.08 82.2 91.51 81.16 94.86 83.64" fill="#004712"/><path d="M162.08,96.25l.49-.26h0a12.91,12.91,0,0,0,2.66-3.08,13.72,13.72,0,0,0,.94-1.8q.2-.47.37-1a9.09,9.09,0,0,0,.29-1l.08-.34-.21-.27A14.6,14.6,0,0,0,164.1,86,15.62,15.62,0,0,0,161,84.13,17.78,17.78,0,0,0,157.62,83a16.72,16.72,0,0,0-3.53-.43v.65a16,16,0,0,1,3.31.63,16.79,16.79,0,0,1,3.12,1.27,13.74,13.74,0,0,1,4.7,4c0,.17-.1.34-.16.51s-.2.56-.32.84a12.22,12.22,0,0,1-.83,1.6,11.39,11.39,0,0,1-2.16,2.55h-1.22l-.17.71,1.54.79Z" transform="translate(0 0)" fill="#551900"/><path d="M179,95.7a32.79,32.79,0,0,0-1.63-5.44,33.16,33.16,0,0,0-2.5-5.11,27.65,27.65,0,0,0-3.46-4.54A28.51,28.51,0,0,0,167,76.86a25.91,25.91,0,0,0-5-2.79,19.93,19.93,0,0,0-5.53-1.45,20.44,20.44,0,0,0-5.72.18,23.33,23.33,0,0,0-5.5,1.65,27.31,27.31,0,0,0-2.58,1.28q-.63.36-1.24.75c-.33.22-.65.43-1,.67a8,8,0,0,0-2.1-.73h0l-.33,0-.26.23-4.45,3.93-.48.43.33.55.6,1-.28.16-.21.37-6.85,2.64-1.72.66,1.63.74,2.15,1-.26,1.08-5,4.19c-.5.37-1,.73-1.52,1.07l-.95.61,1.27.7h0a56.43,56.43,0,0,1,7.11,2.8,65.72,65.72,0,0,1,6.09,3.25l-5.45,7-.63-.13a53.87,53.87,0,0,0-5.77-.7c-1.93-.13-3.85-.19-5.81-.13l-1,0,.33,1,2.8,8.32L117,119.93l-.53.55.54.54.74.73-1.43-.63-.07,0-.08,0-5.88-1.27-1.83-2.31-.37-.47-.55.24-1.17.52-.11.05,0-.26-2.1-1.3-4.37,1.57.27,2.1-.76-2.63-3.84-.37-.76-.07v.76l-.08,4.58-4.9,4.06-1.25,1-.63.52-.08.06,0,0,0,0,0,0-.15.14-.3.28-1.93,1.8.74-6L91,111.16l3.4-2.64.84-.65-1-.61-1.21-.6L91.11,105l-.37-.32-.45.2-2.59,1.62-.91-2.23-.21-.51-.55,0h0c-.81.15-1.63.24-2.44.33l-1.23.12c-.21,0-.41,0-.65.08l-.11,0h0l-.07,0h0a.57.57,0,0,0-.15.09.56.56,0,0,0-.17.25l0,.08a.88.88,0,0,0,0,.1c0,.05,0,.09,0,.13a3.48,3.48,0,0,0,0,.37c.12.86.28,1.65.43,2.46s.25,1.43.36,2.15c-.32.82-.66,1.63-1,2.45l-1.13,2.65c-.76,1.77-1.55,3.52-2.34,5.27l0,.05v.06c-.45,2.06-.9,4.12-1.39,6.16l-.73,3.07c-.24.93-.47,1.86-.72,2.79l-3.37,2.82-.59.49.49.6,2.33,2.85.34.41.51-.16,5.41-1.76,3.64,2.27.4.25.41-.24L87,138.38l.55-.32,0-.11.52-.77,1.22-1.79,7.89-7.67,4.83-1,.53-.11.08-.53.39-2.52,0-.29,1.21.39.36-.57.53,1.77.13.42.41-.11,2.64-.69,7.2.13,4.71,1.41.79.24-.41-.73-1.22-2.19,2.66,2.62.31.3.42-.1a38.88,38.88,0,0,1,7.44-1,65.51,65.51,0,0,1,7.57.17c2.52.19,5,.51,7.54.91s5,.89,7.44,1.5l.88.22.09-.89.32-3.14.94-3.47.78.1c.5.06,1,.09,1.51.11a21,21,0,0,0,3-.1,20.6,20.6,0,0,0,5.75-1.46,21.68,21.68,0,0,0,9-7.19q.86-1.16,1.61-2.38a18.91,18.91,0,0,0,1.33-2.57,18.33,18.33,0,0,0,1.36-5.58A20.58,20.58,0,0,0,179,95.7ZM88.63,128.88h0Zm-2.31-21.59-.08.18v-.37Zm-2.58,31.2-3.17-2,1-.8-1.54.44-.11-.07-.34.11-5.25,1.71-1.51-1.84,3-2.48.21-.17.06-.26h0c.16-1,.36-2.08.54-3.12l.59-3.1c.39-2.05.82-4.09,1.26-6.14.8-1.73,1.59-3.45,2.43-5.16L82.1,113c.44-.86.86-1.72,1.31-2.57l.11-.2-.06-.31h0c-.28-.76-.52-1.54-.74-2.32a20.54,20.54,0,0,1-.51-2.27l.25,0c.4,0,.8,0,1.21-.05.62,0,1.24,0,1.87,0l.72,1.77-.9-.26.71,1.06-5.62,12.75,0,.06,0,.06-2.27,8.8-.07.26.11.25.91,2.07h0l.73,1.32.63-1.21,2.5-4.77h0l0-.05v-.09l.74-9.19,2.78-7.42,1.37-3.11.13-.3-.07-.18,2.46-.66L92,107.89l.07.06.09,0,.37.18-1.87,2h0l-.74-.75-.3,1.19.47.33-5.3,12.86,0,.06V124l-1.15,7.36,0,.17.06.19h0l2,5.67Zm-1.33-11.25L80,130.33l-.28-.64,2.18-8.48.36-.82Zm18.69-1.95-4.52,1-.22,0-.16.16-8.09,7.86-.11.11,0,.09-.36.91-1.31-4,1.89-2,.28-.3.14-.15,0,0h0l0,0,0,0,.07-.07.59-.56,1.18-1.12,4.72-4.47.09-.08,0-.14.82-4,2.48-.24.72,4.67.06.41.44.15,1.46.5Zm3.3-4.92-.88,1.41-1.67-.54-.31-2.35L104,118l.62.38Zm32.12-17.74c.54.34,1.07.7,1.59,1.06V104l-1.15.32v.56l-1,.4.37.8-.87.29.5.65-.5.32-.55.7-1.11.41.32.79-.77.42c-.64-.2-1.27-.38-1.92-.53Zm-20.67,20.45-.1-.05h-.17l-7.38-.13H108l-.11.06-2,1.14,0-1.39,1-1.09.17-.19,0-.25.27-2.15.21-.1,1.63,2.05.17.22.27.06,6.07,1.31,1.93.85,1.07,1.13Zm36.62.51,0,.06v.06l-.24,2.33c-2.23-.53-4.46-1-6.7-1.32-2.54-.41-5.1-.73-7.67-.93a67.13,67.13,0,0,0-7.75-.18,40.94,40.94,0,0,0-7.32.9l-4.13-4.07,2.42-2.52.32-.34-.15-.44-2.61-7.76c.86,0,1.72,0,2.58,0l.76,2.88.44,0,.12-2.77.68,0q1.45.1,2.9.28l-.44,4.76.46.09,1.37-4.66,1.31.21q1.67.3,3.29.75l-1.61,3.52.46.27,2.52-3.37.75.25q.86.32,1.7.71l-.44,1.29.59.34.94-1.06a13.13,13.13,0,0,1,1.47,1l-1.91,3.55h0l-.26.52-1.83.43,2.26.14h0l.39,0,13,1.56h0l.31.06.1-.32L155,105.41l.43.22-.34,3.09,1-.64.7-1.78.34.17Zm26.09-22.28a16.74,16.74,0,0,1-1.52,5.26,17.79,17.79,0,0,1-1.37,2.37,25,25,0,0,1-1.65,2.21,21.88,21.88,0,0,1-4,3.72l-.52.36-.27-.3-.44.75h0l-.78-.42-.59.58-.56-.13-.54.45-.65-.32-.91.84-.39-.26-1,.58-.58-.19-.91.45v-.45l-1.47.45.31-.65h-1.64l1.34-1-2.67-.65,1.49-.71-1.49-.39,1.49-.45-1.49-.91h2v-.78l-1.53-.91h1.53l-1.28-1.17h1l-1.22-.71,1.53-.26-1.53-.58h1.53l-1-.39.4-.14.14.07,1.14.57-.05-1.33-.29-7.54-1.89.12.53,6.3-9.58-3.65-.15.34,1.58.8L147.94,110a50.46,50.46,0,0,0-3.8-3.66l.93-3.43-.46-.19-1.56,2.7c-1.42-1.16-2.9-2.25-4.42-3.28l.92-3.2-.45-.2-1.63,2.64-.78-.5c-1.25-.77-2.52-1.5-3.81-2.18l1.47-3.21-.28-.18-2.37,2.77q-1-.48-1.91-.93t-1.91-.86l2.35-2.83-.29-.31-3.43,2.57q-1.47-.59-3-1.1l.87-1c.57-.64,1.13-1.28,1.72-1.89l.19-.19,2.33-1.43.66-.66.57-.71h0l.61.28.42-.77-2.45-1.6,3.49-1.34.91,2.42L132.6,85l.19-.07L134,87.39l3.55.87,3.62-1.56-1,.15.82-2,.15.2-.19.48.36-.36.51.36-1.34-2.85L138,81.48h-2.37l-.45.27-.27-.46L138.6,78a7.57,7.57,0,0,1,2.46.64,11.1,11.1,0,0,1,2.61,1.6l.3-.28a10.76,10.76,0,0,0-.74-.79h0l-.59-.85.48-.92,1.2-1.08c.48-.29,1-.56,1.47-.81A22.25,22.25,0,0,1,151,73.67a18.08,18.08,0,0,1,10.83,1,27.17,27.17,0,0,1,8.77,6.66,42.86,42.86,0,0,1,3.47,4.32,28.64,28.64,0,0,1,2.8,4.81,20.9,20.9,0,0,1,1.59,5.33A20.07,20.07,0,0,1,178.58,101.32Z" transform="translate(0 0)" fill="#551900"/><polygon points="132.83 92.23 133.77 92.44 136.03 92.94 137.95 94.73 138.53 95.29 138.6 94.47 139.12 88.53 133.67 91.73 132.83 92.23" fill="#551900"/><path d="M153.37,132.41l1.32-2.67h-4l-1.85,1.4,1.33-1.5-14.86-2.84-5.61-.62L128,129l17.43,5.9.73-.83-1.27,2.32-10,7.1.06-.38.31-2.14.06-.41.23,0,3.46-.65.56-.11.06-.53.43-3.65,0-.42-.38-.2-3.08-1.66-.15-.08h-.18l-8.65.32h-.07l-5.82,1.05,11.65,5.14-13.62-4,5.71,5.93,0,0,.05,0,4.85,3.54.35.26.42-.21,3.3-1.62.26-.13L132.88,145l-5.41,2.53-.54.25.12.61h0l.39,1.81.11.54.54.07h0l3.36-.15,1.82,4.73.2.5.71-.12,5-1.49.66-.2-.12-.68h0l-.43-3.08c2.4-2.19,4.88-4.29,7.38-6.37,1.32-1.09,2.65-2.17,4-3.22l1-.79.25-.19.11-.08h0l.65-.1a10,10,0,0,1,2.61-.09l.54-.11.07-.55.45-3.62.06-.44-.36-.27Zm-8.39.72-14.67-5,.19-.33,4.51.49,12.16,2.33Zm-11.47,9.38L131,143.75l-4.71-2.87-4.53-4,12,4.51ZM124,134.88l3.74-.4,8.47.31,2.65,1.07-.58,2.6-2.75.52Zm7.43,15.66h0Zm23-12.31a10,10,0,0,1-1.86.65l-.61.13h0a.43.43,0,0,0-.13,0l0,0,0,0-.14.1-.27.19-1,.77-4.1,3.09c-2.75,2-5.51,4.07-8.35,6h0l-.42.36.1.49L138,153l-3.74,1.12-2.49-3.6,2.56.24-5.47-1.3-.17-.81,4.82-2.47.07,0,0,0L145.45,137l0,0,.06-.08,2.8-3.66,4.21.5,2.19,1.67Z" transform="translate(0 0)" fill="#551900"/><path d="M131.3,151.75l-.06-.74-.6,0-2.9.2L124,154l-.11.08v-.41l2.6-2.42.31-.28-.07-.41-.39-2.33-.12-.73-.74.08h0l-4.28.86a26.49,26.49,0,0,0-4.26-2.48c-1.53-.73-3.08-1.39-4.65-2s-3.15-1.2-4.74-1.76c-1.41-.49-2.81-1-4.24-1.4v-2.56l.42,1.35.12.37.37.13,2.4.84.23.08L107,141l7.49-2.17-7.38-2.47-2-1.21-.62-.37-.4.66-.91,1.49-.18.3.1.33,0,.14-.91.41L99,139.53l-.51.23.05.44.35,3.13-.48.18V141l-3.51,1.57-.87,2.47,3-1-2.35.89-.12,0,0,.11h0l-1,3.66-.18.65.65-.25,3-1.08,6.65.94,13.62,6.22,1,4.14.15.62.75-.11h0l4.14-.91.61-.13v-3.63l.73,3,.14.57h.53l4.05.09h.22l.16-.18,1.85-2,.17-.18,0-.33ZM105,136.82l1.54.68.1,0h0l5.94,1.22-5.68.68-1.86-.65-.42-1.36Zm17.54,16-.25.23v4.57l-2.9.63L118,154.79h0l-.05-.17-.18-.09-13.63-7h0l-.15-.07h-.11L96.93,147h-.16l-.1,0-2.35,1.15.62-2.89,5.6-1.73,6.43,2.89L117.17,153l1,.45.12-.9.43-3.1.09-.32-.3-.1L106.2,145l-5.47-2.22-.16-.06-.14.05-.94.36.5-2.32,1.73-.78v2l.57.16c1.6.42,3.21.89,4.8,1.38s3.18,1,4.75,1.56,3.13,1.15,4.65,1.81a24.91,24.91,0,0,1,4.34,2.33h0l.09.08h.19l3.76-.12.21,1.25Zm-13.83-6.57,9.25,3.33-.74,1.67ZM129.14,158l-3.15-.64-.64-2.59,2.52-3.13,1.92.7.33,3.78Z" transform="translate(0 0)" fill="#551900"/><path d="M94,144.32l.06-.1.9-1.66,2.26-1.25-2.09-.78H95l-4-.41-.3,0-.26.27-3.1,3.24-1.44,1.5,2-.19,6-.56Zm-4.42-.82,1.8-1.88,3.64-.37,1.14.17-1.51.72-.07,0,0,.07-.81,1.63Z" transform="translate(0 0)" fill="#551900"/><path d="M79.69,138.2l-4.32,1.54-.67.24-.59.9,1.42,3.69,1.13.51.69-.21,3.69-1.1.34-.1.15-.32,1.16-2.59.28-.63-.49-.29Zm.58,4.18-2.66.79-.94-2.43,2.95-1.9,1.47,1.71Z" transform="translate(0 0)" fill="#551900"/><path d="M120.51,134.26l.71.32-.37-.69-3.12-5.9-.06-.12-.13-.08-4-2.67-2.71.76-.34.1-.12.4-.71,2.33-.2.66.6.27Zm-8.75-7.14,1.61-.81,3.13,2.62,3.18,4.26-8.35-4.65Z" transform="translate(0 0)" fill="#551900"/><path d="M109.43,130.79l-2-.67-.18-.06-.23.14-2,1.3-.16.11,0,.19-.5,2-.12.48.4.16,3.33,1.31,0,0H108l8.06,1.17.3,0,.15-.12,2.12-1.74-9.16-4.37h0Zm7.66,4.4-1,.26-7.95-.75-2.78-.94.7-1.22,1.31-1.53,1.73.55Z" transform="translate(0 0)" fill="#551900"/><path d="M117.35,140.63l.35.52,3.15,4.61.08.12.11.05,2.35,1.19.22.11.24-.07,2.76-.84.48-.15v-2.56l-.42-.19-7.45-3.31-1.34.37Zm1.84.14,6.35,3.79v.59l-1.82,1L122,144.73,118.72,141Z" transform="translate(0 0)" fill="#551900"/><path d="M78.06,93.16v.09l.07.1,1.34,1.93.08.11.17,0c.82.19,1.62.44,2.42.7l1.18.41,1.17.45c.77.31,1.55.62,2.31,1,.34.17.68.36,1,.56l-1,.82v3h2.91l2.12.54,2.24,1.82.28.23.33-.06,1.39-.25.42.32.8.62.38.29.24-.14,1.72-1,.09,0,.09-.13.94-1.38,4.08.38.35,0,.2-.19,2.11-2,4,1.73v1.5l1.81,1.14,2.44.32.27-.34c.57-.71,1.22-1.52,1.38-1.69a8.68,8.68,0,0,0,1.21-2.14l.05-.11.54-3.41-3-1.53-.74.3-4.32-2.59v-.31l-.51-2.79L108.41,90l.79-2,.05-.14,0-.19-.2-1.46-.06-.44-.4-.17-1.49-.64.06-.57L106,82.91h-2.31l-.16,0,.43-1.06-2.39-1.94-3.2.7L97,82.88l1-2.95V76.38l-.7-.16,0-.09L97.81,74l0-.09.29.11,1.14-6.9-2.18-4.9L92.89,62l.53,3.47L93.24,71,93,73.33h-.09l.06.28,0,.34.11,0V74l.47,2.18h.37l-1.47.77-.64,2.46-2.83-2.09-.27-.2-.26.05-3.64.73-.17,0-.1.11-5.43,6.33-.09.11,0,.17-1.35,5,0,.14v.07Zm19.07,8.93-.49.76-1.58-.28-2.49-1.05-.2-.09h0l-2.36-.6-.09,0H88.37v-.71l2.37-1.92,3.2.11v1.08l-.61.77,1-.72-.14-1.13h.25l2.67,2.64Zm2.09,2.1-1.22.45h0l.54-.73,0-.06,0-.07.46-1,.43.16Zm7.66-17.36,0-.3.63.27.12.88-.83,3.38,0,.06v.1l-.19,1.86-.62.32-.93-.56-.31-2.32.12-.53Zm-3.09-2.37h1.48l.25.33-.15,1.52-1.94,3.07-.61,2.79-.49.23-.91-.78-.36-.82.15-.33.44-2.82,1.23-3Zm-6.05.06L99.36,82l1.84-.4.92.74-2,4.87L99.71,90l-.48,1-.91.13L97.1,90Zm-3-20.86,1.33.08,1.6,3.61-.75,4.56L96,71.54l-1.27.34.09-.78L95,65.38Zm-.29,11.06,1.28-.16.7.13.24,1-1.19-.29h-.07l-1.1,0ZM93.72,78l1.33-.69,1.4.31v2l-.91,2.55L93.09,80.4Zm-4.46,4.56v0c.17-.87.35-1.75.56-2.61h0l.47.35.24,1.4-.83,3.16,1.07-2.32V80.62l5.39,4-.7,6,2.32,2.22,2.3-.32,0,.09,1.93,1.66,1.54-.7,0,.26L104,94l1.62,1,.37.23.39-.2,1.38-.71.47-.24,0-.45-.21-2.06,1.38.91.36,1.93v1.5h.64l5,3,.13.62v0l0,.19.31-.07,1.11.37.14-.42-.13-.62.64.33-.33,2.06c-.34.67-.74,1.43-.87,1.63s-.42.48-1.22,1.48l-1.24-.16-.67-.42.79.34,2.11-1.92.22-.67-1.47-.49-.1.29-1.07,1-5.27-2.26.51-.77,0-.05v0l.47-1.43-.35-.13-.57,1.32L107,100.57l-2.3,1.46-.39,0,.36-1.07h-.36l-1.21,1h-.1l.48-1-1.72.84-1.43-.13L98.69,101v-.73l-.26-.21-3.35-2.71-.14-.12-.19,0-4.22-.56-.29,0L90,96.8l-.45.36a10.79,10.79,0,0,1-2.27-.38c-.81-.22-1.6-.51-2.38-.79l-1.17-.45-1.16-.48-.89-.4.88-.48.1-.06h0l1.52-1.28.76-.64c.25-.22.51-.42.76-.65l.06-.06,0-.06c1.14-3,2.31-5.89,3.47-8.83ZM79.09,89.86l0,.2,1.32-4.88L85,78.67l3.11,0,1,1.24c-.12.82-.27,1.63-.42,2.45-1.13,2.91-2.25,5.83-3.4,8.74-.25.18-.49.38-.73.57l-.78.61-1.5,1.18-2.13.4L78.59,93Z" transform="translate(0 0)" fill="#551900"/><path d="M80.34,92.64,81.7,93l.35.08.21-.32c.23-.36.48-.7.73-1s.51-.67.77-1l.06-.08v0c.35-.81.73-1.6,1.13-2.39s.81-1.56,1.24-2.33h0v0c.27-.71.58-1.4.92-2.08a14.12,14.12,0,0,1,1.19-2l.22-.3L88.21,81l-.87-1.16-.25-.34-.37,0-1.45.12-.39,0-.15.24-2.46,4,.49.35L85.56,81l.75.06.5.67a17.29,17.29,0,0,1-.35,1.75c-.19.73-.42,1.45-.67,2.16-.42.76-.85,1.52-1.31,2.27s-.9,1.44-1.38,2.14c-.31.27-.63.54-1,.8s-.54.42-.81.62l-1,.24Z" transform="translate(0 0)" fill="#551900"/><path d="M80.51,90.38c0-.3.06-.6.08-.89s0-.58,0-.86.16-.72.23-1.09.14-.75.18-1.13l-.27-.07c-.13.36-.24.72-.35,1.09s-.2.73-.3,1.1v.06c0,.3,0,.6,0,.89s0,.59.08.89Z" transform="translate(0 0)" fill="#551900"/><polygon points="152.88 85.89 147.91 86.46 147.91 86.7 151.65 86.33 148.91 87.31 146.94 88.04 146.56 93.31 148.67 96.82 152.86 98.2 157.99 97.29 159.81 93.2 158.67 88.41 152.88 85.89" fill="#551900"/><polygon points="168.27 98.03 168.08 98.14 164.49 100.33 164.41 100.38 164.35 100.45 161.58 104.33 161.45 104.52 161.48 104.72 161.99 108.08 162.52 108.08 162.99 104.95 164.82 100.83 168.5 99.63 174.58 100 174.66 99.47 168.51 98.08 168.27 98.03" fill="#551900"/><polygon points="150.77 120.57 151.03 120.57 151.68 118.76 151.03 120.11 150.77 120.57" fill="#551900"/><polygon points="92.62 83.34 92.27 83.1 90.78 85.89 91.25 85.89 92.62 83.34" fill="#551900"/><polygon points="88.66 93.71 91.08 89.71 90.54 89.71 88.16 93.4 86.78 94.36 87.38 94.36 88.66 93.71" fill="#551900"/><polygon points="135.85 114.35 135.38 114.35 135.14 115.11 135.38 115.11 135.85 114.35" fill="#551900"/><rect x="144.9" y="100.78" width="0.36" height="0.91" fill="#551900"/><polygon points="146.56 88.76 146.17 88.64 145.65 94.52 146.17 96.25 146.8 95.78 145.89 94.36 146.56 88.76" fill="#551900"/><polygon points="99.19 73.98 100.85 68.8 99.97 68.28 98.4 73.98 99.19 73.98" fill="#551900"/><polygon points="96.09 61.42 96.09 60.65 92.62 60.65 92.62 61.42 93.32 61.42 96.09 61.42" fill="#551900"/><polygon points="90.78 113.45 91.53 113.45 92.05 112.04 93.84 111.1 93.32 110.63 91.53 111.77 90.78 113.45" fill="#551900"/><polygon points="133.47 101.57 131.63 104.36 131.92 104.97 134.13 101.78 133.47 101.57" fill="#551900"/><polygon points="127.1 129.84 123.17 129.27 122.22 131.79 122.22 133.54 123.56 133.54 125.99 131.99 127.1 129.84" fill="#551900"/><path d="M180.43,95.41a34.08,34.08,0,0,0-1.71-5.69,34.83,34.83,0,0,0-2.61-5.34,29.17,29.17,0,0,0-3.65-4.79,30.08,30.08,0,0,0-4.54-3.94,27.4,27.4,0,0,0-5.27-3,21.39,21.39,0,0,0-5.94-1.55,22.22,22.22,0,0,0-2.39-.13,21.88,21.88,0,0,0-3.77.33,24.82,24.82,0,0,0-5.84,1.76A28.61,28.61,0,0,0,142,74.44c-.45.26-.9.53-1.32.8l-.32.21a9.19,9.19,0,0,0-1.62-.48h-.13l-.33,0-.67-.08-.51.45-.26.23-4.45,3.93-.48.43-.93.82.63,1.07.19.31-5.85,2.25L124.2,85l-3.33,1.28,3.25,1.48,1.63.74.65.3-4.11,3.41c-.45.33-.92.68-1.4,1l-.95.61-2.11,1.36L120,96.36l1.27.7.14.08.15,0a54.4,54.4,0,0,1,6.92,2.72c1.51.71,3,1.48,4.48,2.32l-3.84,4.92a55.13,55.13,0,0,0-5.68-.68c-1.56-.11-3-.16-4.36-.16l-1.56,0,1-1.2a9.49,9.49,0,0,0,1.49-2.52l.06-.11.1-.21,0-.23.54-3.41.17-1.08-1-.5-3-1.53-.61-.31-.64.26,0,0-3-1.82-.45-2.47-.11-.63-.53-.35-1.29-.85.35-.91.06-.15.13-.35,0-.37,0-.19-.2-1.46-.06-.43-.11-.84-.78-.34-.4-.17-.48-.21v-.06l-.36-.47L107.23,82l-.45-.59h-1l-.86-.7-2.39-1.94-.56-.45-.7.15-1.78.39V75.18h-.06l.15-.89,1.14-6.9.07-.44-.18-.41-2.18-4.9-.37-.84-.91-.05L93,60.5l-1.85-.11.28,1.83.51,3.34-.17,5.3L91.62,72l-.55.07.35,1.61v.15l-.23,2.08-.08,0-.17.64-.08.32-1-.77-.27-.2-.53-.4-.65.13-.26.05-3.64.73-.16,0-.52.1-.34.4-.1.11L77.92,83.4l-.09.1-.22.26-.09.33,0,.17-1.35,5,0,.14-.08.3L76,90v.07l.53,3.31v.08l.05.34.19.28.07.1,1.34,1.94.08.11.33.48.56.13.17,0c.8.19,1.58.43,2.29.66l1.16.4,1.14.43.27.11,1.06.44v3.47c-.63.1-1.27.18-1.88.24l-1.22.12h-.08l-.66.08h0l-.11,0h-.08l-.3.1a2.12,2.12,0,0,0-.56.33,2.07,2.07,0,0,0-.64.92,2.1,2.1,0,0,0-.07.24,2.06,2.06,0,0,0,0,.23v.08c0,.1,0,.18,0,.26a5.06,5.06,0,0,0,0,.54c.09.65.2,1.23.3,1.78l.14.77c.11.61.21,1.17.29,1.72L79.9,111l-.37.91-1.12,2.62c-.74,1.72-1.53,3.47-2.29,5.15l0,.08,0,.06L76,120l0,.15v.06l0,.14c-.43,2-.87,4-1.35,6l-.73,3.07-.25,1-.33,1.31-3,2.51-.59.49-1.14,1,.94,1.15.49.6,2.33,2.85.34.41.65.79,1-.32.51-.17,4.75-1.55,3,1.9.4.25.77.48.78-.46.41-.24,2.85-1.68.55-.33,1.05-.62-.19-.55.1-.15,1.14-1.67,7.47-7.26,4.4-.93.52-.11,1-.21.16-1,.05-.34.18.59,1.4-.37.41-.11,2.44-.64,1.25,0-1.14,3.73-1.42-.48-3,1.91-.51,2.06-.49.8-.4.66-.9,1.48-.18.31-.2.34-3.07,1.38-.51.23-1,.45.09.79-1.37-.51h-.07l-.15,0-.17,0h-.08l-4-.41-.3,0-.73-.08-.51.53-.26.27-3.11,3.24L84.8,144l-1.36,2h8.69l-.52,1.48.77-.26-.32,1.14-.18.65-.81,2.89,2.8-1.09.65-.25,2.58-.94,6.06.85,12.76,5.83.83,3.43.15.62.32,1.32,1.35-.19.75-.11h.11l4.14-.91.61-.14.14,0h.9l4.05.09h.21l.68,0,.46-.49.16-.18,1.85-2,.16-.17.09-.1.82-.14.71-.12.09,0,.08,0,5-1.49.66-.2,1.27-.38-.23-1.31-.12-.68-.32-2.25c2.36-2.13,4.72-4.11,6.75-5.79,1.29-1.06,2.63-2.16,4-3.19l1-.78,0,0,.32-.05a10.36,10.36,0,0,1,1.49-.12,6.21,6.21,0,0,1,.71,0l.24,0,.24-.05.54-.11,1-.22.13-1.06.07-.55.45-3.62.06-.44L158,134l-.69-.53-.36-.27L155.26,132l.77-1.56,1.07-2.16h-2v-.11l.09-.89.31-3,.57-2.1,1.12.07.85,0a22.66,22.66,0,0,0,2.35-.12,22.05,22.05,0,0,0,6.16-1.56,23.09,23.09,0,0,0,9.67-7.68c.62-.83,1.18-1.67,1.69-2.5a20.36,20.36,0,0,0,1.43-2.76,19.77,19.77,0,0,0,1.47-6A22.08,22.08,0,0,0,180.43,95.41Zm-84.3,13.64,1.72-1.34-.16-.1.75-.43.24-.14,1.72-1,.09,0,.3-.17.2-.29.09-.13.45-.65,3.2.29.35,0,.68.06.49-.47.2-.19,1.39-1.32,2.21.95v1.34l.7.44,1.81,1.14.28.17.33,0,1.63.21.29.86.33,1,2.51,7.46-2,2.08-.47.49-4.3-.93-1.5-1.89-.37-.47-.72-.91-1.06.47-.55.24-.29.13L105,115l-.61-.38-.68.24L100.54,116l0-.09-1-.1-3.84-.37-.76-.07-1.61-.15,0,1.62v.76l-.07,3.89-4.37,3.62-1.25,1-.24.2.22-1.77,4.68-12.49,3.06-2.38Zm-.65-2.77.24,0,.69.54.38.29h0l-.82-.49ZM84.51,97l-1.17-.45-1.18-.41c-.8-.26-1.6-.51-2.42-.7l-.17,0-.08-.11-1.34-1.93-.07-.1v-.09l-.52-3.3V89.8l0-.14,1.35-5,0-.17.09-.11L84.48,78l.1-.11.17,0,3.64-.73.26-.05.27.2,2.83,2.09.64-2.46,1.47-.77h-.37L93,74v-.07l-.11,0,0-.34-.06-.28H93L93.24,71l.18-5.49L92.89,62l4.19.24,2.18,4.9L98.11,74l-.29-.11,0,.09-.48,2.13,0,.09.7.16v3.55l-1,2.95,1.45-2.23,3.2-.7L104,81.88l-.43,1.06.16,0H106l1.09,1.42-.06.57,1.49.64.4.17.06.44.2,1.46,0,.19-.05.14-.79,2,2.3,1.52.51,2.79v.31l4.32,2.59.74-.3,3,1.53-.54,3.41-.05.11a8.68,8.68,0,0,1-1.21,2.14c-.15.17-.81,1-1.38,1.69l-.27.34-2.44-.32-1.81-1.14v-1.5l-4-1.73-2.11,2-.2.19-.35,0-4.08-.37-.94,1.38-.09.13-.09,0-1.72,1-.24.14-.38-.29-.8-.62-.42-.32-1.39.25-.33.06-.28-.23-2.24-1.82-2.12-.54h-2.1l0-.12-.76,0V99.36l1-.82c-.33-.2-.67-.39-1-.56C86.06,97.61,85.28,97.3,84.51,97Zm4.62,6.88-.71.44-.18-.44ZM113.6,126l3.48,2.33,2.45,4.63-9.17-4.08.72-2.35L113,126Zm9.81,1.46a34,34,0,0,1,4.12-.64l-.81,1.41-.9,1.58,1.73.58,4.33,1.47-4.22.16h-.19l-.13,0-5.77,1-.23,0-3.1-5.85-1-.67,2.52.75.8.24,3.53,1.05Zm-4.63,9.29,2.48,2.58-1.43-.63-.49-.22-.52.14h0l-2.83-.95.64.09,1.78-1.46Zm5.71,5.93.1.1.13.1.05,0,2.33,1.7v1.25L126,146l-.74.09h-.12l-2.64.53-1.48-.75-.11-.05-.08-.12-3.15-4.61-.35-.52.53-.15,1.34-.37,4.8,2.13Zm-9.26-2.55.89,1.3.35.52,2.19,3.21-1.08-.55c-1.42-.68-3-1.35-4.75-2.06-.82-.33-1.67-.65-2.56-1l4.64-1.35Zm.63-7.16-.15-.07.18.08Zm-8.5-2.14,1.8.6,8.1,3.87-1.1.9-8-1.17-.68-.27-1.61-1-.62-.37-.08,0,.34-1.37Zm-19.46,14-2,.19,1.44-1.5,3.1-3.24.26-.27.3,0,4,.41h.09l.42.16-1.2.54-.59.26-.21.61-.83,2.35Zm43.67,11.84-1.85,2-.16.18h-.22l-4.05-.09h-.53l-.14-.57-.73-3v3.63l-.61.13-4.14.91h0l-.75.11-.15-.62-1-4.14L103.58,149l-6.65-.94-3,1.08-.65.25.18-.65.83-3,.57-.05.38-.69.06-.1.18-.33L97,144l-1.46.5.48-.89,1.87-1,.52-.29v1.18l.48-.18-.13-1.19,2-1.1-2.2-.82v0l-.05-.44.51-.23,3.18-1.42.91-.41,0-.14-.1-.33.18-.3.91-1.49.17-.28,2.56,1,.33.2,7.38,2.47L107,141l-.18.05-.23-.08-2.4-.84-.37-.13-.12-.37-.42-1.35v2.56c1.43.44,2.83.91,4.24,1.4,1.59.55,3.17,1.13,4.74,1.76s3.12,1.28,4.65,2a26.49,26.49,0,0,1,4.26,2.48l1.14-.23.41.21.22.11.53.27.57-.17.24-.07,1.21-.37.08.41.39,1.84.11.54.11.51-2.33,2.18v.41L124,154l2.63-1.95.76.1.54.07.13,0h.13l2.28-.1,1.16,3,.09,1,0,.33ZM156,134.44l.36.27-.06.44-.45,3.62-.07.55-.54.11a7.79,7.79,0,0,0-.88,0,12.07,12.07,0,0,0-1.73.14l-.65.1h0l-.11.08-.25.19-1,.79c-1.35,1.05-2.67,2.14-4,3.22-2.5,2.07-5,4.18-7.38,6.37l.43,3.08.12.68-.66.2-5,1.49-.71.13-.2-.5-.19-.51-.28-3.22-.06-.74-.13-1.46-1.47.1-.6,0-2.46.17-.29-1.71-.08-.46.88-.27V147l4.28-2,1.94-1.38-.26.13-3.3,1.62-.42.21-.35-.26-1.88-1.38v-1.26l-.89-.4-.42-.19L124.9,141l-5-5.24,13.62,4-11.31-5-.1-.2,5.58-1h.07l8.65-.32h.18l.15.08,3.08,1.66.38.2,0,.42-.43,3.65-.06.53-.56.11-3.46.65-.23,0-.06.41-.31,2.14-.06.38,10-7.1,1.27-2.32-.73.83L128,129l1.32-2.3.89-.05c.7,0,1.43,0,2.16,0,.57,0,1.15,0,1.73,0l1.15.13,14.86,2.84-1.33,1.5,1.85-1.4h3.81l.2,0-1.29,2.62Zm-14.6,2.6.15-1.26,0-.43,0-.14,1.59.54Zm37.86-35.65a18.33,18.33,0,0,1-1.36,5.58,18.91,18.91,0,0,1-1.33,2.57q-.74,1.23-1.61,2.38a21.68,21.68,0,0,1-9,7.19,20.6,20.6,0,0,1-5.75,1.46,21.07,21.07,0,0,1-2.19.11l-.8,0c-.5,0-1-.05-1.51-.11l-.78-.1-.94,3.47-.32,3.14-.09.89-.88-.22c-2.43-.61-4.94-1.09-7.44-1.5s-5-.71-7.54-.91c-1.17-.09-2.33-.14-3.5-.18l-4.41-.48-1-.11-.4.7a36.32,36.32,0,0,0-5.71.85l-.42.1-.31-.3-2.66-2.62,1.22,2.19.41.73-.79-.24-4.71-1.41-1.4,0-.4-.27-.87.25-4.52-.08-2.64.69-.41.11-.13-.42-.53-1.77-.36.57-1.21-.39,0,.29-.39,2.52-.08.53-.53.11-4.83,1-7.89,7.67L88,137.18l-.52.77,0,.11-.55.32-2.85,1.68-.41.24-.4-.25-3.64-2.27-5.41,1.76-.51.16-.34-.41-2.33-2.85-.49-.6.59-.49,3.37-2.82c.25-.93.48-1.86.72-2.79l.73-3.07c.49-2,.94-4.11,1.39-6.16v-.06l0-.05c.79-1.75,1.58-3.5,2.34-5.27l1.13-2.65c.33-.82.67-1.63,1-2.45-.11-.72-.23-1.43-.36-2.15s-.31-1.6-.43-2.46a3.48,3.48,0,0,1,0-.37s0-.08,0-.13a.88.88,0,0,1,0-.1l0-.08a.56.56,0,0,1,.17-.25.57.57,0,0,1,.15-.09h0l.07,0h0l.11,0c.24,0,.44-.06.65-.08l1.23-.12c.7-.08,1.41-.16,2.11-.28h.91l.18.43.91,2.23,2.59-1.62.45-.2.37.32L93,106.65l1.21.6,1,.61-.84.65L91,111.16l-4.9,13.06-.74,6,1.93-1.8.3-.28.15-.14,0,0,0,0,0,0,.08-.06.63-.52,1.25-1,4.9-4.06.08-4.58v-.76l.76.07,3.84.37.76,2.63-.27-2.1,4.37-1.57,2.1,1.3,0,.26.11-.05,1.17-.52.55-.24.37.47,1.83,2.31,5.88,1.27.08,0,.07,0,1.43.63L117,121l-.54-.54.53-.55,2.62-2.74-2.8-8.32-.33-1,1,0,1.55,0c1.43,0,2.84.06,4.26.15a53.87,53.87,0,0,1,5.77.7l.63.13,5.45-7a65.72,65.72,0,0,0-6.09-3.25,56.43,56.43,0,0,0-7.11-2.8h0l-1.27-.7.95-.61c.52-.34,1-.7,1.52-1.07l5-4.19.26-1.08-2.15-1-1.63-.74,1.72-.66,6.85-2.64.21-.37.28-.16-.6-1-.33-.55.48-.43,4.45-3.93.26-.23.33,0h0a8,8,0,0,1,2.1.73c.33-.24.65-.46,1-.67s.82-.51,1.24-.75a27.31,27.31,0,0,1,2.58-1.28,23.33,23.33,0,0,1,5.5-1.65,20.45,20.45,0,0,1,5.72-.18,19.93,19.93,0,0,1,5.53,1.45,25.91,25.91,0,0,1,5,2.79,28.51,28.51,0,0,1,4.31,3.75,27.65,27.65,0,0,1,3.46,4.54,33.16,33.16,0,0,1,2.5,5.11A32.79,32.79,0,0,1,179,95.7,20.58,20.58,0,0,1,179.3,101.39Z" transform="translate(0 0)" fill="#551900"/></svg>