<svg id="Layer_1" data-name="Layer 1" xmlns="http://www.w3.org/2000/svg" viewBox="0 0 253 253"><title>ghost</title><rect width="253" height="253" fill="#fff"/><path d="M72.31,128.86a1.35,1.35,0,0,1,1.34-1.34H84.51a3.75,3.75,0,0,1,1.29.25,3.55,3.55,0,0,1,1.09.74,3.5,3.5,0,0,1,.74,1.14,3.79,3.79,0,0,1,.25,1.34v.6a3.79,3.79,0,0,1-.25,1.34,2.85,2.85,0,0,1-.74,1.09,2.39,2.39,0,0,1-1.09.74,2.9,2.9,0,0,1-1.29.3H69.78a3.67,3.67,0,0,1-2.08-.59A5.29,5.29,0,0,1,66.16,133a8.25,8.25,0,0,1-1-2,8.55,8.55,0,0,1-.3-2.18,6.4,6.4,0,0,1,.35-2.13,5.57,5.57,0,0,1,2.68-3.42,3.83,3.83,0,0,1,2.13-.6H86.55a1.36,1.36,0,0,1,.94.4,1.38,1.38,0,0,1,.4,1,1.36,1.36,0,0,1-1.34,1.34H70.68a3,3,0,0,0-1.59.35,4.22,4.22,0,0,0-1,.84,3.22,3.22,0,0,0-.45,1.14,4.75,4.75,0,0,0-.15,1.09,4.81,4.81,0,0,0,.15,1.14,2.67,2.67,0,0,0,.45,1.09,3.48,3.48,0,0,0,1,.89,3,3,0,0,0,1.59.35H84.37A.87.87,0,0,0,85,132a1.33,1.33,0,0,0,.25-.74,1.21,1.21,0,0,0-.25-.74.74.74,0,0,0-.64-.3H73.65a1.35,1.35,0,0,1-.94-.4A1.47,1.47,0,0,1,72.31,128.86Zm140.91-1.34h6.5a11.56,11.56,0,0,0,2.93-.4,20.09,20.09,0,0,0,2.73-1,26,26,0,0,0,2.58-1.39c.79-.55,1.59-1.09,2.33-1.64a1.69,1.69,0,0,1,1-.4,1.35,1.35,0,0,1,.94.4,1.21,1.21,0,0,1,.4,1,1.14,1.14,0,0,1-.2.7,5.42,5.42,0,0,1-.55.5c-.5.4-1,.74-1.44,1s-.89.65-1.34.94-.94.55-1.39.79a14.66,14.66,0,0,1-1.54.79c.55.3,1,.55,1.54.79s.94.54,1.39.84l1.34.89c.45.35.94.69,1.44,1.09a2.59,2.59,0,0,1,.55.5,1.14,1.14,0,0,1,.2.69,1.27,1.27,0,0,1-.4,1,1.35,1.35,0,0,1-.94.4,1.68,1.68,0,0,1-1-.4,20,20,0,0,0-2.38-1.64,15.86,15.86,0,0,0-2.53-1.44,20.25,20.25,0,0,0-2.73-1,11.55,11.55,0,0,0-2.93-.35h-6.5v3.42a1.47,1.47,0,0,1-.4,1,1.44,1.44,0,0,1-.94.4,1.36,1.36,0,0,1-1.34-1.39v-9.57a1.21,1.21,0,0,1,.4-1,1.24,1.24,0,0,1,.89-.4,1.47,1.47,0,0,1,1,.4,1.38,1.38,0,0,1,.4,1Zm-6.89,0a1.36,1.36,0,0,1,1.34,1.34,1.48,1.48,0,0,1-.4,1,1.35,1.35,0,0,1-.94.4H192.24a1.35,1.35,0,0,1-1.34-1.39,1.17,1.17,0,0,1,.4-.94,1.27,1.27,0,0,1,.94-.4Zm-14.38-2.08a2.9,2.9,0,0,0-1.59.35,3.39,3.39,0,0,0-1,.84,2.49,2.49,0,0,0-.45,1.14,4.73,4.73,0,0,0-.15,1.09,4.79,4.79,0,0,0,.15,1.14,2.13,2.13,0,0,0,.45,1.09,2.89,2.89,0,0,0,2.58,1.24h15.57a1.36,1.36,0,0,1,1.34,1.34,1.47,1.47,0,0,1-.4,1,1.35,1.35,0,0,1-.94.4H191.05a3.66,3.66,0,0,1-2.08-.59,4.73,4.73,0,0,1-1.54-1.44,6.75,6.75,0,0,1-1-2,8.64,8.64,0,0,1-.35-2.18,6.46,6.46,0,0,1,.4-2.13,5.72,5.72,0,0,1,1-2,5,5,0,0,1,1.64-1.44,4.12,4.12,0,0,1,2.18-.6h16.22a1.36,1.36,0,0,1,.94.4,1.38,1.38,0,0,1,.4,1,1.36,1.36,0,0,1-1.34,1.34Zm-8.33-2.73a1.35,1.35,0,0,1,.94.4,1.39,1.39,0,0,1,.4,1,1.36,1.36,0,0,1-1.34,1.34h-8.38v8.23a1.47,1.47,0,0,1-.4,1,1.38,1.38,0,0,1-1,.4,1.35,1.35,0,0,1-.94-.4,1.47,1.47,0,0,1-.4-1v-8.23H164a1.29,1.29,0,0,1-.84-.45,1.24,1.24,0,0,1-.4-.89,1.36,1.36,0,0,1,1.39-1.39Zm-41.37,7.54a3.55,3.55,0,0,1-1.44-.3,4.92,4.92,0,0,1-1.19-.79,3.15,3.15,0,0,1-.79-1.19,3.82,3.82,0,0,1-.3-1.49,3.64,3.64,0,0,1,.3-1.49,3.14,3.14,0,0,1,.79-1.19,5,5,0,0,1,1.19-.79,3.57,3.57,0,0,1,1.44-.3h17.16a1.48,1.48,0,0,1,1,.4,1.35,1.35,0,0,1,.35,1,1.31,1.31,0,0,1-.35.94,1.48,1.48,0,0,1-1,.4H142.2a1,1,0,1,0,0,2.08h15.62a3.63,3.63,0,0,1,1.49.3,3.33,3.33,0,0,1,1.19.79,3.59,3.59,0,0,1,1.14,2.68,3.61,3.61,0,0,1-.3,1.49,4,4,0,0,1-.84,1.19,3.33,3.33,0,0,1-1.19.79,3.63,3.63,0,0,1-1.49.3H140.71a1.36,1.36,0,0,1-1.34-1.39,1.17,1.17,0,0,1,.4-.94,1.26,1.26,0,0,1,.94-.4H158a1,1,0,0,0,.69-.3,1,1,0,0,0,0-1.49,1,1,0,0,0-.69-.3ZM131,132.33a3,3,0,0,0,1.59-.35,3.47,3.47,0,0,0,1-.89,2.67,2.67,0,0,0,.45-1.09,4.79,4.79,0,0,0,.15-1.14,4.73,4.73,0,0,0-.15-1.09,3.22,3.22,0,0,0-.45-1.14,4.2,4.2,0,0,0-1-.84,3,3,0,0,0-1.59-.35H119.63a3,3,0,0,0-1.59.35,4.21,4.21,0,0,0-1,.84,3.21,3.21,0,0,0-.45,1.14,4.75,4.75,0,0,0-.15,1.09,4.81,4.81,0,0,0,.15,1.14,2.66,2.66,0,0,0,.45,1.09,3.47,3.47,0,0,0,1,.89,3,3,0,0,0,1.59.35Zm5.8-3.47a6.7,6.7,0,0,1-.35,2.18,6.93,6.93,0,0,1-1,2,5,5,0,0,1-1.64,1.44,4.12,4.12,0,0,1-2.18.59h-12.9a4.11,4.11,0,0,1-2-.64,5.51,5.51,0,0,1-1.54-1.49,6,6,0,0,1-1-1.94,6.4,6.4,0,0,1-.35-2.13,8,8,0,0,1,.35-2.13,6.88,6.88,0,0,1,1-2,5,5,0,0,1,1.64-1.44,4.12,4.12,0,0,1,2.18-.6h12.9a4.1,4.1,0,0,1,2,.65,5.35,5.35,0,0,1,1.54,1.44,5.77,5.77,0,0,1,1,2A6.14,6.14,0,0,1,136.84,128.86Zm-25.15,4.81a1.36,1.36,0,0,1-1.39,1.39,1.35,1.35,0,0,1-.94-.4,1.47,1.47,0,0,1-.4-1v-3.42H92.25v3.42a1.27,1.27,0,0,1-.4,1,1.35,1.35,0,0,1-.94.4,1.36,1.36,0,0,1-1.39-1.39v-9.57a1.39,1.39,0,0,1,.4-1,1.48,1.48,0,0,1,1-.4,1.36,1.36,0,0,1,.94.4,1.21,1.21,0,0,1,.4,1v3.42H109v-3.42a1.39,1.39,0,0,1,.4-1,1.36,1.36,0,0,1,.94-.4,1.48,1.48,0,0,1,1,.4,1.39,1.39,0,0,1,.4,1Z" transform="translate(0 0)" fill="#231f20"/><path d="M39.18,108.72h.2a19.63,19.63,0,0,1,8.48,1.93,15.5,15.5,0,0,1,2.08,1.19A15.8,15.8,0,0,1,52,113.38a14.24,14.24,0,0,1,1.49,1.44c.64.74,1.24,1.44,1.74,2.13A16.09,16.09,0,0,1,57,120.37a16.6,16.6,0,0,1,1.14,6.1H49.35a11.11,11.11,0,0,0-.5-2.43,9,9,0,0,0-3.57-4.66,10.71,10.71,0,0,0-12.35.15,10.21,10.21,0,0,0-1.24,1,8.31,8.31,0,0,0-1,1.34,6,6,0,0,0-.89,1.69,8.67,8.67,0,0,0-.59,3.07,8.94,8.94,0,0,0,1.49,5,9.89,9.89,0,0,0,1,1.24A10.6,10.6,0,0,0,39.28,136H49.2v-5.21h9v13.44h-19a20,20,0,0,1-8.53-1.93,23.56,23.56,0,0,1-2.08-1.14,23.6,23.6,0,0,1-1.93-1.44c-.74-.69-1.29-1.19-1.59-1.54a16.58,16.58,0,0,1-1.84-2.28,21.19,21.19,0,0,1-1.74-3.32,17.36,17.36,0,0,1-1.09-6.2,16.49,16.49,0,0,1,2.43-8.63,13.8,13.8,0,0,1,1.39-2.08,19.93,19.93,0,0,1,1.44-1.54,17.77,17.77,0,0,1,1.59-1.39,14.57,14.57,0,0,1,2.23-1.49A18.22,18.22,0,0,1,32.29,110,19.66,19.66,0,0,1,39.18,108.72Zm-.84,12.45c.94-.89,2.73-.65,4,.6s1.54,3,.6,4-2.73.64-4-.6S37.44,122.11,38.34,121.17Zm-5.11,3.72c.89-.94,2.68-.69,3.92.6s1.54,3,.6,3.92-2.68.69-3.92-.6S32.29,125.78,33.23,124.89Z" transform="translate(0 0)" fill="#231f20"/></svg>