<svg id="Layer_1" data-name="Layer 1" xmlns="http://www.w3.org/2000/svg" viewBox="0 0 253 253"><title>loveandcare</title><rect width="253" height="253" fill="#fff"/><path d="M139.4,148h-1v-8.14h1.17c2.5,0,3.28.86,3.28,2.35,0,1.72-1.31,2.37-2.85,2.37h-.58Zm0-4.32h.32c1,0,2.16-.19,2.16-1.49s-1.21-1.42-2.21-1.42h-.27Z" transform="translate(0 0)" fill="#3f3e29"/><path d="M144.21,145.65a1.59,1.59,0,0,0,1.52,1.67,1.65,1.65,0,0,0,1.51-1l.82.46a2.63,2.63,0,0,1-2.34,1.38,2.46,2.46,0,0,1-2.48-2.66,2.41,2.41,0,0,1,2.46-2.72c1.61,0,2.36,1.19,2.36,2.69v.15Zm2.88-.73a1.36,1.36,0,0,0-1.39-1.26,1.45,1.45,0,0,0-1.44,1.26Z" transform="translate(0 0)" fill="#3f3e29"/><path d="M150.35,148h-1v-4.15h-.53V143h.53V141h1V143h1v.91h-1Z" transform="translate(0 0)" fill="#3f3e29"/><path d="M155.86,148h-1v-8.14H156c2.5,0,3.28.86,3.28,2.35,0,1.72-1.31,2.37-2.85,2.37h-.58Zm0-4.32h.32c1,0,2.16-.19,2.16-1.49s-1.21-1.42-2.21-1.42h-.27Z" transform="translate(0 0)" fill="#3f3e29"/><path d="M161.3,143.78h0a1.45,1.45,0,0,1,1.38-1,1.51,1.51,0,0,1,.8.25l-.44.89a.85.85,0,0,0-.59-.21c-1,0-1.18,1-1.18,1.79V148h-1V143h1Z" transform="translate(0 0)" fill="#3f3e29"/><path d="M169.19,145.49a2.7,2.7,0,1,1-2.7-2.69A2.66,2.66,0,0,1,169.19,145.49Zm-4.43,0a1.73,1.73,0,1,0,1.73-1.76A1.75,1.75,0,0,0,164.76,145.49Z" transform="translate(0 0)" fill="#3f3e29"/><path d="M172.82,139.62a1.8,1.8,0,0,0-.65-.2c-.69,0-.69.87-.69,1.37V143h1.34v.91h-1.34V148h-1v-4.15h-.44V143h.44V140.5c0-1.1.38-2,1.63-2a1.82,1.82,0,0,1,.68.13Z" transform="translate(0 0)" fill="#3f3e29"/><path d="M174.31,145.65a1.59,1.59,0,0,0,1.52,1.67,1.65,1.65,0,0,0,1.51-1l.82.46a2.63,2.63,0,0,1-2.34,1.38,2.46,2.46,0,0,1-2.48-2.66,2.41,2.41,0,0,1,2.46-2.72c1.61,0,2.36,1.19,2.36,2.69v.15Zm2.88-.73a1.36,1.36,0,0,0-1.39-1.26,1.45,1.45,0,0,0-1.44,1.26Z" transform="translate(0 0)" fill="#3f3e29"/><path d="M181.38,144.11a.75.75,0,0,0-.65-.44.52.52,0,0,0-.53.5c0,.44.58.64,1.18.91s1.17.64,1.17,1.44a1.7,1.7,0,0,1-1.74,1.67,1.86,1.86,0,0,1-1.75-1.13l.83-.38a1,1,0,0,0,.92.65.73.73,0,0,0,.77-.71.61.61,0,0,0-.36-.55l-.95-.51c-.56-.3-1-.58-1-1.27a1.47,1.47,0,0,1,1.49-1.47,1.5,1.5,0,0,1,1.38.88Z" transform="translate(0 0)" fill="#3f3e29"/><path d="M185.81,144.11a.75.75,0,0,0-.65-.44.52.52,0,0,0-.53.5c0,.44.58.64,1.18.91s1.17.64,1.17,1.44a1.7,1.7,0,0,1-1.74,1.67,1.86,1.86,0,0,1-1.75-1.13l.83-.38a1,1,0,0,0,.92.65.73.73,0,0,0,.77-.71.61.61,0,0,0-.36-.55l-.95-.51c-.56-.3-1-.58-1-1.27a1.47,1.47,0,0,1,1.49-1.47,1.5,1.5,0,0,1,1.38.88Z" transform="translate(0 0)" fill="#3f3e29"/><path d="M189.41,140.65a.67.67,0,0,1-1.34,0,.67.67,0,1,1,1.34,0Zm-.18,7.36h-1V143h1Z" transform="translate(0 0)" fill="#3f3e29"/><path d="M195.92,145.49a2.7,2.7,0,1,1-2.7-2.69A2.66,2.66,0,0,1,195.92,145.49Zm-4.43,0a1.73,1.73,0,1,0,1.73-1.76A1.75,1.75,0,0,0,191.5,145.49Z" transform="translate(0 0)" fill="#3f3e29"/><path d="M198.12,143.64h0a1.72,1.72,0,0,1,1.52-.83c1.42,0,1.79,1,1.79,2.19v3h-1v-2.89c0-.86-.12-1.45-1.11-1.45-1.25,0-1.25,1.1-1.25,2V148h-1V143h1Z" transform="translate(0 0)" fill="#3f3e29"/><path d="M207.85,148h-1v-.79h0a2.07,2.07,0,0,1-1.72,1,2.71,2.71,0,0,1,0-5.38,2.07,2.07,0,0,1,1.75,1h0V143h1Zm-.92-2.53a1.63,1.63,0,1,0-1.64,1.83A1.66,1.66,0,0,0,206.93,145.48Z" transform="translate(0 0)" fill="#3f3e29"/><path d="M210.4,148h-1v-9.37h1Z" transform="translate(0 0)" fill="#3f3e29"/><path d="M214,144.11a.75.75,0,0,0-.65-.44.52.52,0,0,0-.53.5c0,.44.58.64,1.18.91s1.17.64,1.17,1.44a1.7,1.7,0,0,1-1.74,1.67,1.86,1.86,0,0,1-1.75-1.13l.83-.38a1,1,0,0,0,.92.65.73.73,0,0,0,.77-.71.61.61,0,0,0-.36-.55l-.95-.51c-.56-.3-1-.58-1-1.27a1.47,1.47,0,0,1,1.49-1.47,1.5,1.5,0,0,1,1.38.88Z" transform="translate(0 0)" fill="#3f3e29"/><path d="M139.77,116.87a17.94,17.94,0,1,0-33.94-11.57,17.94,17.94,0,1,0-14.92,32.23l32.94,14.66,15.27-33.81c.11-.22.21-.44.3-.67l.37-.83Z" transform="translate(0 0)" fill="#bbe5f4"/><path d="M114.1,147.48a1,1,0,0,1-.87-.49c-4.06-6.82-3.27-15.45-3.23-15.82a1,1,0,0,1,1.11-.91,1,1,0,0,1,.91,1.11c0,.08-.76,8.34,3,14.58a1,1,0,0,1-.87,1.53Z" transform="translate(0 0)" fill="#fff" stroke="#fff" stroke-miterlimit="10" stroke-width="4.83"/><path d="M134.27,159.88a1,1,0,0,1-.76-1.69c1.33-1.5,1.9-2.72,1.57-3.36-.73-1.41-5.42-1.56-8.35-1.22l-2,.23,1-1.74a12.31,12.31,0,0,0-.41-11.42c-3.23-6.07-11.17-5.13-11.25-5.12a1,1,0,1,1-.26-2c.38-.05,9.41-1.11,13.3,6.18a14.61,14.61,0,0,1,1.08,11.72c2.71-.14,7.41,0,8.68,2.44.79,1.51.18,3.35-1.85,5.64A1,1,0,0,1,134.27,159.88Z" transform="translate(0 0)" fill="#fff" stroke="#fff" stroke-miterlimit="10" stroke-width="4.83"/><path d="M119,160.41l-3.7-1.43s-2.37-.86-3.25.29A1,1,0,0,1,110.4,158a3.85,3.85,0,0,1,3.32-1.39,15.26,15.26,0,0,1-.64-8.23,8.45,8.45,0,0,1,7.7-7.46,1.05,1.05,0,0,1,1.06,1,1,1,0,0,1-1,1.06,6.42,6.42,0,0,0-5.79,5.76c-1,5.84,1.29,8.6,1.32,8.63Z" transform="translate(0 0)" fill="#fff" stroke="#fff" stroke-miterlimit="10" stroke-width="4.83"/><path d="M102.36,121.37s-1.21-6.57,5.55-6.57,10.71,4.3,13.1,6.37,4.35,7.42-1.56,8.55-11.54,3.1-13.79-.84A39,39,0,0,1,102.36,121.37Z" transform="translate(0 0)" fill="#fff"/><path d="M128.83,116.13a6.39,6.39,0,0,1-3.15,5.41c.4,5.29-3.71,10.57-12.47,10.57-7.75,0-12.67-4.76-12.67-10.73a9.55,9.55,0,0,1,5.17-9,6.05,6.05,0,0,1-.28-1.94,5.2,5.2,0,0,1,5-5.49c2.82,0,3.63,2,3.63,2.74a.9.9,0,0,1-.93.89.87.87,0,0,1-.85-.73,1.77,1.77,0,0,0-1.86-1.25c-1.57,0-3.19,1.29-3.19,3.83a6.47,6.47,0,0,0,.08,1.25,7.43,7.43,0,0,1,2.66-.52c3.31,0,4.68,1.61,4.68,3.23a2.86,2.86,0,0,1-3.11,2.78,5.94,5.94,0,0,1-5.25-3.27,8.14,8.14,0,0,0-4,7.46c0,5.13,4.32,9.08,10.85,9.08,7.34,0,10.69-4.16,10.73-8.11a8.52,8.52,0,0,1-2.95.48c-3.79,0-6.3-1.86-6.3-4.6a3.87,3.87,0,0,1,4.12-3.59,6.87,6.87,0,0,1,6.5,5,4.57,4.57,0,0,0,1.74-3.55,5.17,5.17,0,0,0-.89-2.78,1.08,1.08,0,0,1-.2-.52.85.85,0,0,1,.89-.89,1,1,0,0,1,.73.32A7.13,7.13,0,0,1,128.83,116.13ZM110,112.82a6.46,6.46,0,0,0-2.18.4,4.65,4.65,0,0,0,3.75,2.3,1.22,1.22,0,0,0,1.33-1.13C112.9,113.58,111.85,112.82,110,112.82Zm11,8.35a7.88,7.88,0,0,0,2.9-.52c-.73-2.74-2.7-4.36-5-4.36a2.11,2.11,0,0,0-2.34,1.94C116.53,120.24,118.79,121.17,121,121.17Z" transform="translate(0 0)" fill="#fff"/><path d="M113.22,133.79c-8.32,0-14.36-5.22-14.36-12.42a11.22,11.22,0,0,1,4.95-9.83,8.84,8.84,0,0,1-.07-1.11,6.87,6.87,0,0,1,6.69-7.18c3.67,0,5.32,2.59,5.32,4.43a2.59,2.59,0,0,1-2.12,2.53,4.67,4.67,0,0,1,2.63,3.26,6.24,6.24,0,0,1,2.56-.54,8.35,8.35,0,0,1,6.54,3.22s0-.06,0-.08a3.48,3.48,0,0,0-.63-1.89,2.7,2.7,0,0,1-.46-1.41,2.52,2.52,0,0,1,2.58-2.58,2.71,2.71,0,0,1,1.92.82l.21.26a8.76,8.76,0,0,1,1.54,4.85,8,8,0,0,1-3.12,6.26,10.63,10.63,0,0,1-2.87,7.15C122.73,131.48,119.31,133.79,113.22,133.79Zm-7.29-17.5a6.77,6.77,0,0,0-1.87,5.07c0,4.35,3.77,7.39,9.17,7.39,4.78,0,7.55-1.92,8.58-4.28l-.79,0c-4.51,0-7.72-2.38-8-5.85a5.39,5.39,0,0,1-1.47.2A7.62,7.62,0,0,1,105.92,116.3ZM118.87,118c-.48,0-.65.2-.65.25,0,.89,1.8,1.35,3.34,1.23A3.2,3.2,0,0,0,118.87,118Zm-8.88-8.5a10.38,10.38,0,0,1,1.39.09,2.6,2.6,0,0,1-.71-1.24.76.76,0,0,0-.23,0,1.49,1.49,0,0,0-1.39,1.24A8.4,8.4,0,0,1,110,109.48Z" transform="translate(0 0)" fill="#fff"/><path d="M56.92,102.77c1.49,0,2.7,1.09,2.7,3.07,0,3.67-3.75,6.94-8.19,8.51-.12,1.61-.44,5.16-.6,6.13,6.62.93,8.39,5.37,8.39,8.47,0,3.75-3,5.81-3.59,5.81a.9.9,0,0,1-.93-.89.85.85,0,0,1,.4-.73,4.85,4.85,0,0,0,2.34-4.24c0-2.42-1.25-6-6.9-6.74C49.14,129,46.31,132.51,42,132.51a4,4,0,0,1-4.16-4.12c0-3.39,3.43-8.15,11.18-8,.2-1.33.24-1.78.52-5.53a15.38,15.38,0,0,1-2.38.2c-3.71,0-6.42-1.9-6.42-5.41a.87.87,0,0,1,.89-.89.86.86,0,0,1,.85.89c0,3,2.87,3.67,4.68,3.67a11,11,0,0,0,2.58-.28C50.39,107.29,53.21,102.77,56.92,102.77ZM48.82,122.1c-6.25,0-9.12,3.55-9.12,6.3a2.34,2.34,0,0,0,2.38,2.42C45.34,130.82,47.64,127.75,48.82,122.1Zm9-16.22a1.18,1.18,0,0,0-1.17-1.29c-1.37,0-4,1.81-5,7.87C55.19,111,57.77,108.22,57.77,105.88Z" transform="translate(0 0)" fill="#3f3e29"/><path d="M72.45,122.26c0,4.32-2.54,9-6.66,9-2.78,0-4.64-2.46-4.64-6.21a9.13,9.13,0,0,1,.57-3.27,1,1,0,0,1,.85-.65.89.89,0,0,1,.85.89,1.18,1.18,0,0,1-.08.4A8.34,8.34,0,0,0,63,125c0,2.1.85,4.56,2.9,4.56,2.9,0,4.76-3.83,4.76-7.26,0-1.61-.65-3.79-2.58-3.79A2.07,2.07,0,0,0,66,120.73c0,1.61,1.21,1.61,1.89,1.61a.9.9,0,0,1,.93.89c0,.24-.08.89-1.09.89a3.26,3.26,0,0,1-3.55-3.39,3.85,3.85,0,0,1,4-4C70.8,116.78,72.45,119,72.45,122.26Z" transform="translate(0 0)" fill="#3f3e29"/><path d="M76.92,119.16a42.07,42.07,0,0,0-.44,5.69c0,3,.48,4.52.93,4.52,1.21,0,5.08-5.81,5.73-11.62a.9.9,0,0,1,1-.81.91.91,0,0,1,.81.89v.08c-.61,5.49-4.68,13.15-7.63,13.15-2.18,0-2.66-3.39-2.66-6.21a42.8,42.8,0,0,1,.57-6.25.9.9,0,0,1,.85-.69c.53,0,1,.4.93.85Z" transform="translate(0 0)" fill="#3f3e29"/><path d="M93.95,120.21c0-.81-.57-1.37-1.61-1.37-2,0-4.88,2.58-4.88,6.9,0,1.37.44,3.83,3.35,3.83a3.69,3.69,0,0,0,2.82-1.33.79.79,0,0,1,.65-.32.84.84,0,0,1,.81.93c0,.77-1.94,2.38-4.4,2.38-3.07,0-5-2.06-5-5.49,0-5.08,3.55-8.64,6.74-8.64,2.42,0,3.39,1.49,3.39,3.11,0,3.19-3.35,4.76-5.73,4.76a.84.84,0,0,1-.89-.85.92.92,0,0,1,.89-.89C91.93,123.19,93.95,122,93.95,120.21Z" transform="translate(0 0)" fill="#3f3e29"/><path d="M128.83,116.13a6.39,6.39,0,0,1-3.15,5.41c.4,5.29-3.71,10.57-12.47,10.57-7.75,0-12.67-4.76-12.67-10.73a9.55,9.55,0,0,1,5.17-9,6.05,6.05,0,0,1-.28-1.94,5.2,5.2,0,0,1,5-5.49c2.82,0,3.63,2,3.63,2.74a.9.9,0,0,1-.93.89.87.87,0,0,1-.85-.73,1.77,1.77,0,0,0-1.86-1.25c-1.57,0-3.19,1.29-3.19,3.83a6.47,6.47,0,0,0,.08,1.25,7.43,7.43,0,0,1,2.66-.52c3.31,0,4.68,1.61,4.68,3.23a2.86,2.86,0,0,1-3.11,2.78,5.94,5.94,0,0,1-5.25-3.27,8.14,8.14,0,0,0-4,7.46c0,5.13,4.32,9.08,10.85,9.08,7.34,0,10.69-4.16,10.73-8.11a8.52,8.52,0,0,1-2.95.48c-3.79,0-6.3-1.86-6.3-4.6a3.87,3.87,0,0,1,4.12-3.59,6.87,6.87,0,0,1,6.5,5,4.57,4.57,0,0,0,1.74-3.55,5.17,5.17,0,0,0-.89-2.78,1.08,1.08,0,0,1-.2-.52.85.85,0,0,1,.89-.89,1,1,0,0,1,.73.32A7.13,7.13,0,0,1,128.83,116.13ZM110,112.82a6.46,6.46,0,0,0-2.18.4,4.65,4.65,0,0,0,3.75,2.3,1.22,1.22,0,0,0,1.33-1.13C112.9,113.58,111.85,112.82,110,112.82Zm11,8.35a7.88,7.88,0,0,0,2.9-.52c-.73-2.74-2.7-4.36-5-4.36a2.11,2.11,0,0,0-2.34,1.94C116.53,120.24,118.79,121.17,121,121.17Z" transform="translate(0 0)" fill="#3f3e29"/><path d="M141.67,110.81a8.53,8.53,0,0,1,.08-1c-5.65,1-9.12,6.38-9.12,12.06s3.39,10.41,9.52,10.41c3.59,0,6.38-1.33,7.95-3.63a1,1,0,0,1,.77-.4.9.9,0,0,1,.85.93c0,.64-2.78,4.84-9.56,4.84-7.14,0-11.3-5.25-11.3-12.15,0-7.06,4.6-13.15,11.38-13.84a6.24,6.24,0,0,1,5.85-4c.85,0,2.3.08,2.3,1.09a.81.81,0,0,1-.89.81c-.2,0-1.17-.16-1.41-.16a4.1,4.1,0,0,0-3.79,2.18c5.16.28,8.07,3.67,8.07,7.14a4,4,0,0,1-4.2,4.2,5.85,5.85,0,0,1-4-1.86A9.18,9.18,0,0,1,141.67,110.81Zm8.84,4.28c0-2.74-2.5-5.37-6.9-5.49a5.61,5.61,0,0,0-.12,1.21c0,4.4,2.78,6.74,4.68,6.74A2.21,2.21,0,0,0,150.51,115.09Z" transform="translate(0 0)" fill="#3f3e29"/><path d="M164.71,123.72a28.11,28.11,0,0,1-.53,4.84,27.19,27.19,0,0,0-.4,3.23,1.56,1.56,0,0,0,.08.52,1,1,0,0,1,.16.49.93.93,0,0,1-.93.85c-.89,0-1.13-1.13-1.13-1.94a32,32,0,0,1,.44-3.43,29.37,29.37,0,0,0,.52-4.48c0-1.94-1-2.66-2.1-2.66-3.07,0-5.37,4.68-5.37,8.35,0,1.49.69,2.54,1.74,2.54a2.73,2.73,0,0,0,2.3-2.06.83.83,0,0,1,.77-.52.84.84,0,0,1,.85.89,4.34,4.34,0,0,1-4.2,3.39c-1.61,0-3.27-1.21-3.27-4.24,0-4.2,2.91-10,7.34-10C163.3,119.45,164.71,120.94,164.71,123.72Z" transform="translate(0 0)" fill="#3f3e29"/><path d="M168.89,133a.87.87,0,0,1-.89.77.83.83,0,0,1-.81-.89c0-.28,1.13-6.9,1.13-8.23,0-1.77-.36-2.46-.89-3a.76.76,0,0,1-.24-.64.89.89,0,0,1,.85-.89c.77,0,1.9,1.37,1.82,3.39a5.36,5.36,0,0,1,5.08-3.87.92.92,0,0,1,1,.89.82.82,0,0,1-.85.81c-4.2.24-5,5.16-5.93,10.33Z" transform="translate(0 0)" fill="#3f3e29"/><path d="M183.77,122.8c0-.81-.57-1.37-1.61-1.37-2,0-4.88,2.58-4.88,6.9,0,1.37.44,3.83,3.35,3.83a3.7,3.7,0,0,0,2.82-1.33.79.79,0,0,1,.65-.32.84.84,0,0,1,.81.93c0,.77-1.94,2.38-4.4,2.38-3.07,0-5-2.06-5-5.49,0-5.08,3.55-8.64,6.74-8.64,2.42,0,3.39,1.49,3.39,3.11,0,3.19-3.35,4.76-5.73,4.76a.84.84,0,0,1-.89-.85.92.92,0,0,1,.89-.89C181.75,125.78,183.77,124.61,183.77,122.8Z" transform="translate(0 0)" fill="#3f3e29"/><path d="M114.1,147.48a1,1,0,0,1-.87-.49c-4.06-6.82-3.27-15.45-3.23-15.82a1,1,0,0,1,1.11-.91,1,1,0,0,1,.91,1.11c0,.08-.76,8.34,3,14.58a1,1,0,0,1-.87,1.53Z" transform="translate(0 0)" fill="#3f3e29"/><path d="M134.27,159.88a1,1,0,0,1-.76-1.69c1.33-1.5,1.9-2.72,1.57-3.36-.73-1.41-5.42-1.56-8.35-1.22l-2,.23,1-1.74a12.31,12.31,0,0,0-.41-11.42c-3.23-6.07-11.17-5.13-11.25-5.12a1,1,0,1,1-.26-2c.38-.05,9.41-1.11,13.3,6.18a14.61,14.61,0,0,1,1.08,11.72c2.71-.14,7.41,0,8.68,2.44.79,1.51.18,3.35-1.85,5.64A1,1,0,0,1,134.27,159.88Z" transform="translate(0 0)" fill="#3f3e29"/><path d="M119,160.41l-3.7-1.43s-2.37-.86-3.25.29A1,1,0,0,1,110.4,158a3.85,3.85,0,0,1,3.32-1.39,15.26,15.26,0,0,1-.64-8.23,8.45,8.45,0,0,1,7.7-7.46,1.05,1.05,0,0,1,1.06,1,1,1,0,0,1-1,1.06,6.42,6.42,0,0,0-5.79,5.76c-1,5.84,1.29,8.6,1.32,8.63Z" transform="translate(0 0)" fill="#3f3e29"/><circle cx="113.35" cy="122.87" r="1.13" transform="translate(-31.45 206.4) rotate(-77.29)" fill="#3f3e29"/><circle cx="109.63" cy="121.45" r="1.13" transform="translate(-32.98 201.65) rotate(-77.28)" fill="#3f3e29"/><path d="M111.76,127.53c-3.36,0-4.54-2.14-4.59-2.24a.71.71,0,0,1,1.25-.67c.05.09,1.08,1.84,4.26,1.43a.71.71,0,1,1,.18,1.41A8.68,8.68,0,0,1,111.76,127.53Z" transform="translate(0 0)" fill="#3f3e29"/><path d="M107,158a1.09,1.09,0,0,1-1-1.62c2.43-4.41,2.75-9.39,1-14.79a1.09,1.09,0,1,1,2.07-.69c2.5,7.48.77,13.13-1.11,16.54A1.09,1.09,0,0,1,107,158Z" transform="translate(0 0)" fill="#fff" stroke="#fff" stroke-miterlimit="10" stroke-width="4.17"/><path d="M107,158a1.09,1.09,0,0,1-1-1.62c2.43-4.41,2.75-9.39,1-14.79a1.09,1.09,0,1,1,2.07-.69c2.5,7.48.77,13.13-1.11,16.54A1.09,1.09,0,0,1,107,158Z" transform="translate(0 0)" fill="#3f3e29"/></svg>