<?xml version="1.0" encoding="UTF-8" standalone="no"?>
<svg width="347px" height="347px" viewBox="0 0 347 347" version="1.1" xmlns="http://www.w3.org/2000/svg" xmlns:xlink="http://www.w3.org/1999/xlink">
    <!-- Generator: Sketch 3.8.3 (29802) - http://www.bohemiancoding.com/sketch -->
    <title>Bitmap</title>
    <desc>Created with Sketch.</desc>
    <defs></defs>
    <g id="UI" stroke="none" stroke-width="1" fill="none" fill-rule="evenodd">
        <g id="2-1-1-Logo-communicate" transform="translate(-546.000000, -1073.000000)">
            <g id="example-2" transform="translate(546.000000, 1073.000000)">
                <g id="Bitmap">
                    <rect id="Mask" fill="#FFFFFF" x="0" y="0" width="347" height="347"></rect>
                    <g id="manhatten2" transform="translate(34.000000, 102.000000)">
                        <g id="Layer_1">
                            <path d="M130.25,60.78 L174.92,16.96 C177.502439,14.4231061 180.598653,12.469218 184,11.23 C184.16751,11.1712357 184.32326,11.0832034 184.46,10.97 C185.74,9.9 184.98,6.88 182.76,4.23 C180.54,1.58 177.71,0.3 176.43,1.37 C176.293736,1.48200695 176.178591,1.61747096 176.09,1.77 C174.281729,4.93061962 171.807934,7.6603246 168.84,9.77 L117.84,46.01 L130.25,60.78 Z" id="Shape" fill="#3A4041"></path>
                            <path d="M178.47,6.84 C178.554516,6.68754173 178.666381,6.55194795 178.8,6.44 C179.63,5.75 181.14,6.09 182.7,7.16 C182.477668,6.4276935 182.110393,5.74755374 181.62,5.16 C180.1,3.34 177.85,2.71 176.62,3.76 C176.488042,3.86791368 176.370422,3.99225497 176.27,4.13 C174.206052,6.98238831 171.717162,9.50163003 168.89,11.6 L119.8,48.29 L121.32,50.11 L171.38,14.65 C174.28885,12.5996609 176.709683,9.9329892 178.47,6.84 L178.47,6.84 Z" id="Shape" fill="#555A5B"></path>
                            <polygon id="Shape" fill="#2F631C" points="0 117.89 0 86.89 6.79 86.89 16.43 110.89 25.94 86.89 32.69 86.89 32.69 117.89 28.12 117.89 28.25 91.74 18 117.89 14.75 117.89 4.48 91.7 4.61 117.89"></polygon>
                            <path d="M45.59,117.89 L40.22,117.89 L52.96,86.89 L57.44,86.89 L70,117.89 L64.61,117.89 L61.68,110.56 L48.44,110.56 L45.59,117.89 Z M55,92.58 L49.76,106.58 L60.34,106.58 L55,92.58 Z" id="Shape" fill="#2F631C"></path>
                            <polygon id="Shape" fill="#2F631C" points="98.21 110.43 98.13 86.84 102.91 86.84 102.91 117.84 98.38 117.84 82.17 94.21 82.25 117.89 77.47 117.89 77.47 86.89 82.12 86.89"></polygon>
                            <polygon id="Shape" fill="#2F631C" points="113.09 117.89 113.09 86.89 118 86.89 118 99.89 131.4 99.89 131.4 86.84 136.34 86.84 136.34 117.84 131.4 117.84 131.4 104.27 118 104.27 118 117.89 113.06 117.89"></polygon>
                            <path d="M149.25,117.89 L143.89,117.89 L156.63,86.89 L161.11,86.89 L173.64,117.89 L168.28,117.89 L165.35,110.56 L152.1,110.56 L149.25,117.89 Z M158.68,92.62 L153.44,106.62 L164,106.62 L158.68,92.62 Z" id="Shape" fill="#2F631C"></path>
                            <polygon id="Shape" fill="#2F631C" points="182.64 91.19 175.52 91.19 175.52 86.83 194.71 86.83 194.71 91.19 187.59 91.19 187.59 117.89 182.64 117.89"></polygon>
                            <polygon id="Shape" fill="#2F631C" points="208.31 91.19 201.19 91.19 201.19 86.83 220.38 86.83 220.38 91.19 213.26 91.19 213.26 117.89 208.32 117.89 208.32 91.19"></polygon>
                            <polygon id="Shape" fill="#2F631C" points="227.88 86.84 245.23 86.84 245.23 91.2 232.83 91.2 232.83 100 245.07 100 245.07 104.32 232.82 104.32 232.82 113.5 245.22 113.5 245.22 117.89 227.88 117.89 227.88 86.89"></polygon>
                            <polygon id="Shape" fill="#2F631C" points="275.31 110.43 275.23 86.84 280 86.84 280 117.84 275.48 117.84 259.26 94.21 259.34 117.89 254.56 117.89 254.56 86.89 259.21 86.89"></polygon>
                            <path d="M71.65,136.5 C71.78,139.08 73.5,139.56 74.33,139.56 C75.7395545,139.571307 76.897264,138.44922 76.93,137.04 C76.93,135.42 75.57,135.04 72.93,133.95 C71.49,133.43 68.17,132.25 68.17,128.65 C68.17,125.05 71.39,123.02 74.47,123.02 C76.99,123.02 80.34,124.36 80.47,128.58 L76.69,128.58 C76.54,127.71 76.2,126.24 74.32,126.24 C73.7243685,126.212941 73.1428893,126.426615 72.7065006,126.832908 C72.2701118,127.239201 72.0155004,127.803956 72,128.4 C72,129.81 73,130.18 76.22,131.51 C79.13,132.77 80.75,134.16 80.75,136.86 C80.75,139.92 78.87,142.78 74.4,142.78 C70.08,142.78 67.84,140.18 67.86,136.5 L71.67,136.5 L71.65,136.5 Z" id="Shape" fill="#3A4041"></path>
                            <path d="M91.52,123.38 C94.74,123.38 96.02,123.84 97.13,124.69 C98.5347224,125.914057 99.3255705,127.697127 99.29,129.56 C99.3292294,131.373211 98.6032645,133.119157 97.29,134.37 C96,135.43 94.72,135.89 91.94,135.89 L89.59,135.89 L89.59,142.43 L85.75,142.43 L85.75,123.43 L91.51,123.43 L91.52,123.38 Z M89.59,132.52 L91.85,132.52 C92.7111893,132.568182 93.5707182,132.399714 94.35,132.03 C95.1900174,131.522913 95.6762879,130.588965 95.61,129.61 C95.6838837,128.629698 95.1693976,127.69891 94.3,127.24 C93.4875033,126.863191 92.5939167,126.694784 91.7,126.75 L89.59,126.75 L89.59,132.51 L89.59,132.52 Z" id="Shape" fill="#3A4041"></path>
                            <polygon id="Shape" fill="#3A4041" points="104 123.38 107.83 123.38 107.83 142.38 104 142.38"></polygon>
                            <path d="M132.44,136.04 C131.184422,140.109628 127.388201,142.857913 123.13,142.78 C117.673427,142.78 113.25,138.356573 113.25,132.9 C113.25,127.443427 117.673427,123.02 123.13,123.02 C127.411779,122.9886 131.207618,125.768422 132.47,129.86 L128.47,129.86 C127.518255,127.76615 125.43989,126.413068 123.14,126.39 C119.747448,126.656338 117.130294,129.487009 117.130294,132.89 C117.130294,136.292991 119.747448,139.123662 123.14,139.39 C125.400476,139.354872 127.449311,138.052122 128.44,136.02 L132.44,136.02 L132.44,136.04 Z" id="Shape" fill="#3A4041"></path>
                            <polygon id="Shape" fill="#3A4041" points="137.64 123.38 148.32 123.38 148.32 126.75 141.48 126.75 141.48 131.07 148.2 131.07 148.2 134.44 141.48 134.44 141.48 139.05 148.32 139.05 148.32 142.42 137.64 142.42 137.64 123.42"></polygon>
                            <path d="M182.73,136.04 C181.473398,140.113244 177.671875,142.862414 173.41,142.78 C167.953427,142.78 163.53,138.356573 163.53,132.9 C163.53,127.443427 167.953427,123.02 173.41,123.02 C177.691779,122.9886 181.487618,125.768422 182.75,129.86 L178.75,129.86 C177.800214,127.764466 175.720637,126.410595 173.42,126.39 C170.027448,126.656338 167.410294,129.487009 167.410294,132.89 C167.410294,136.292991 170.027448,139.123662 173.42,139.39 C175.680476,139.354872 177.729311,138.052122 178.72,136.02 L182.72,136.02 L182.73,136.04 Z" id="Shape" fill="#3A4041"></path>
                            <path d="M187.08,133.05 C186.970141,128.982607 189.335676,125.254202 193.062375,123.620963 C196.789074,121.987725 201.133774,122.775347 204.050003,125.612838 C206.966233,128.45033 207.87245,132.77185 206.341802,136.541846 C204.811154,140.311842 201.148876,142.778517 197.08,142.78 C194.457712,142.836308 191.922497,141.838021 190.042627,140.008908 C188.162758,138.179795 187.09547,135.672846 187.08,133.05 L187.08,133.05 L187.08,133.05 Z M190.91,132.89 C191.095219,136.245775 193.93218,138.836034 197.290919,138.716036 C200.649659,138.596037 203.294537,135.809928 203.239805,132.449491 C203.185073,129.089054 200.450866,126.390555 197.09,126.38 C195.399433,126.400253 193.78894,127.103458 192.624925,128.329629 C191.46091,129.5558 190.842359,131.200665 190.91,132.89 L190.91,132.89 L190.91,132.89 Z" id="Shape" fill="#3A4041"></path>
                            <polygon id="Shape" fill="#3A4041" points="215.39 142.42 211.86 142.42 211.86 138.61 215.39 138.61"></polygon>
                            <path d="M185.44,32.34 C185.071619,57.1702374 164.83797,77.1059266 140.005,77.1059266 C115.17203,77.1059266 94.9383813,57.1702374 94.57,32.34 C94.56,22.13 185.44,22.13 185.44,32.34 L185.44,32.34 Z" id="Shape" fill="#3A4041"></path>
                            <path d="M116.74,78.1 C116.565321,69.6768349 120.959098,61.8176679 128.226052,57.5548518 C135.493006,53.2920357 144.496994,53.2920357 151.763948,57.5548518 C159.030902,61.8176679 163.424679,69.6768349 163.25,78.1 C163.26,83.32 116.74,83.32 116.74,78.1 L116.74,78.1 Z" id="Shape" fill="#3A4041"></path>
                            <path d="M117.12,33.44 C117.065792,32.4277917 116.588521,31.4850096 115.804841,30.8420873 C115.021161,30.199165 114.003284,29.9153457 113,30.06 C105.76,31.16 100.94,32.8 100.94,34.98 C100.940881,53.557624 114.016944,69.5682772 132.22,73.28 C123.69,63.89 118,49.64 117.12,33.44 L117.12,33.44 Z" id="Shape" fill="#555A5B"></path>
                            <path d="M160.55,70.56 C159.22519,72.3075821 158.735215,74.5490318 159.21,76.69 C159.708496,78.8055139 161.08776,80.6069284 163,81.64 C163.094377,81.7229115 163.235623,81.7229115 163.33,81.64 C163.365565,81.5745174 163.365565,81.4954826 163.33,81.43 C163.437835,81.5613977 163.554791,81.685037 163.68,81.8 C163.988383,82.0927124 164.35697,82.3145471 164.76,82.45 C164.834256,82.4928719 164.925744,82.4928719 165,82.45 C165.108061,82.3190522 165.145392,82.1435974 165.1,81.98 C165.082904,81.7837049 165.082904,81.5862951 165.1,81.39 C165.333032,81.9265624 165.673338,82.4097969 166.1,82.81 C166.627232,83.3146817 167.312463,83.6219758 168.04,83.68 C168.123339,83.6894203 168.204784,83.650637 168.25,83.58 C168.319667,83.4593336 168.319667,83.3106664 168.25,83.19 C168.192486,83.0675978 168.145645,82.9404592 168.11,82.81 C168.32222,83.1484314 168.577712,83.4577112 168.87,83.73 C169.394371,84.2393246 170.073435,84.5595052 170.8,84.64 C170.887977,84.6465547 170.972458,84.6043143 171.02,84.53 C171.081291,84.3719632 171.054684,84.1933172 170.95,84.06 C170.872432,83.8956479 170.808873,83.7250425 170.76,83.55 C170.871624,83.696795 170.995394,83.8339447 171.13,83.96 C171.707655,84.5362618 172.505924,84.8351569 173.32,84.78 C173.403822,84.7659794 173.47093,84.7028192 173.49,84.62 C173.511989,84.5159744 173.468424,84.4090422 173.38,84.35 L173.38,84.35 L173.29,84.26 C174.034907,84.7318186 174.985093,84.7318186 175.73,84.26 C175.79283,84.2149203 175.830089,84.1423288 175.830089,84.065 C175.830089,83.9876712 175.79283,83.9150797 175.73,83.87 C175.687903,83.8334256 175.640751,83.8031136 175.59,83.78 L175.51,83.78 C176.42269,83.8089331 177.312435,83.4909119 178,82.89 L178.15,82.8 L178.08,82.63 C177.815227,81.8055861 177.375152,81.0482478 176.79,80.41 C176.923255,80.4588852 177.053485,80.5156521 177.18,80.58 C177.316351,80.6931415 177.500219,80.7306657 177.67,80.68 C177.745937,80.6363634 177.794802,80.5574276 177.8,80.47 C177.771916,79.3778512 177.28115,78.349061 176.45,77.64 L176.33,77.54 C176.429278,77.6086869 176.560722,77.6086869 176.66,77.54 C176.735446,77.4680151 176.762694,77.3590199 176.73,77.26 C176.552178,76.6524783 176.205375,76.1079974 175.73,75.69 C175.251607,75.2557997 174.695071,74.9164486 174.09,74.69 C174.317419,74.689529 174.542357,74.7372432 174.75,74.83 C174.842695,74.9072084 174.977305,74.9072084 175.07,74.83 C175.135005,74.7442619 175.135005,74.6257381 175.07,74.54 C174.778665,74.0331573 174.41482,73.5716134 173.99,73.17 C173.459728,72.6736628 172.795757,72.3434154 172.08,72.22 C172.261934,72.166936 172.450486,72.14 172.64,72.14 C172.767992,72.1654192 172.896575,72.0990541 172.95,71.98 C172.981378,71.8821119 172.94964,71.7749939 172.87,71.71 L172.79,71.63 C172.025969,70.8662835 171.023985,70.3864599 169.95,70.27 L170.05,70.27 C170.178967,70.2813265 170.298883,70.2027609 170.34,70.08 L170.34,69.95 L170.23,69.85 C168.492227,68.7726817 166.459748,68.2689347 164.42,68.41 C162.876532,68.5224696 161.46091,69.3089263 160.55,70.56 L160.55,70.56 Z" id="Shape" fill="#2F631C"></path>
                            <path d="M157,73.49 C159.140837,73.0252677 160.969195,71.6430285 162,69.71 C162.995589,67.7801398 163.119304,65.5168801 162.34,63.49 C162.311628,63.3701761 162.203092,63.2866869 162.08,63.29 C162.004655,63.3009945 161.940352,63.3501676 161.91,63.42 C161.92199,63.2502114 161.92199,63.0797886 161.91,62.91 C161.865947,62.4855786 161.72941,62.0759692 161.51,61.71 C161.466746,61.6350732 161.386512,61.5892256 161.3,61.59 C161.134457,61.6208133 160.993407,61.7284571 160.92,61.88 C160.80331,62.0379452 160.672795,62.1851927 160.53,62.32 C160.699061,61.7564745 160.750124,61.1641449 160.68,60.58 C160.6085,59.8558807 160.29083,59.1781832 159.78,58.66 C159.720411,58.5988635 159.631861,58.5757635 159.55,58.6 C159.425,58.6599787 159.34124,58.7818111 159.33,58.92 C159.295116,59.0507015 159.24825,59.177907 159.19,59.3 C159.24183,58.9016789 159.24183,58.4983211 159.19,58.1 C159.135055,57.3539982 158.828292,56.6487959 158.32,56.1 C158.257264,56.0371335 158.164939,56.0140523 158.08,56.04 C157.93375,56.121812 157.839452,56.2726894 157.83,56.44 C157.781619,56.6184367 157.718053,56.792405 157.64,56.96 C157.655493,56.776994 157.655493,56.593006 157.64,56.41 C157.56179,55.6139489 157.151509,54.8877875 156.51,54.41 C156.441001,54.3615076 156.348999,54.3615076 156.28,54.41 C156.199032,54.474133 156.163705,54.5801127 156.19,54.68 L156.19,54.8 C155.932547,53.9569379 155.212181,53.3378128 154.34,53.21 C154.254347,53.1905642 154.165103,53.2216056 154.11,53.29 C154.066986,53.3432978 154.048793,53.4124336 154.06,53.48 C154.051411,53.5329876 154.051411,53.5870124 154.06,53.64 L154.06,53.72 C153.437481,53.1225059 152.621539,52.7677487 151.76,52.72 L151.59,52.72 L151.6,52.89 C151.263626,53.6863336 151.1033,54.5459501 151.13,55.41 C151.062524,55.2870117 151.002418,55.1601213 150.95,55.03 C150.919407,54.8535029 150.803281,54.7036638 150.64,54.63 C150.556501,54.6143576 150.470627,54.6404933 150.41,54.7 C149.726955,55.5401935 149.429298,56.6291822 149.59,57.7 L149.59,57.85 C149.551724,57.7326744 149.443388,57.6524254 149.32,57.65 C149.213448,57.6542996 149.119409,57.7209107 149.08,57.82 C148.820416,58.4068886 148.737033,59.0565808 148.84,59.69 C148.921486,60.3326772 149.125145,60.9538373 149.44,61.52 C149.267236,61.3744639 149.127466,61.1937856 149.03,60.99 C148.996457,60.8718061 148.882003,60.7955036 148.76,60.81 C148.657715,60.8311933 148.580885,60.9161112 148.57,61.02 C148.461197,61.5967695 148.437612,62.1863828 148.5,62.77 C148.573981,63.5037791 148.862686,64.199454 149.33,64.77 C149.159499,64.6893459 149.001265,64.5849786 148.86,64.46 C148.779228,64.3572495 148.638115,64.3240464 148.52,64.38 C148.437029,64.4341699 148.393882,64.5322311 148.41,64.63 L148.41,64.74 C148.492927,65.8166351 148.940977,66.8326848 149.68,67.62 L149.6,67.62 C149.499639,67.5433146 149.360361,67.5433146 149.26,67.62 L149.15,67.7 L149.15,67.84 C149.77067,69.790793 150.987848,71.4976409 152.63,72.72 C153.901281,73.6098957 155.501122,73.8917897 157,73.49 L157,73.49 Z" id="Shape" fill="#2F631C"></path>
                            <path d="M160.61,73.41 C162.210907,74.3191155 164.130104,74.4799625 165.86,73.85 C167.566247,73.1979911 168.912599,71.8480003 169.56,70.14 C169.612633,70.0500604 169.591349,69.9351282 169.51,69.87 C169.453806,69.839776 169.386194,69.839776 169.33,69.87 C169.426642,69.7656057 169.51681,69.6554001 169.6,69.54 C169.812361,69.2419015 169.955819,68.9003342 170.02,68.54 C170.035217,68.470503 170.01237,68.398154 169.96,68.35 C169.832131,68.2806508 169.677869,68.2806508 169.55,68.35 C169.388592,68.3834274 169.224704,68.4034953 169.06,68.41 C169.480903,68.1528257 169.844979,67.8125684 170.13,67.41 C170.490343,66.9149922 170.670325,66.3115227 170.64,65.7 C170.63541,65.6305435 170.593207,65.5691571 170.53,65.54 C170.4167,65.5076219 170.294733,65.5381137 170.21,65.62 C170.115038,65.682285 170.014627,65.7358373 169.91,65.78 C170.170395,65.5635336 170.402249,65.3148783 170.6,65.04 C170.967506,64.5465658 171.160942,63.9451573 171.15,63.33 C171.144878,63.2582307 171.103369,63.1940802 171.04,63.16 C170.902851,63.1290909 170.75943,63.1706077 170.66,63.27 C170.530048,63.3552129 170.392853,63.4288299 170.25,63.49 C170.359689,63.3819999 170.460046,63.2649159 170.55,63.14 C170.967055,62.593572 171.127486,61.8935103 170.99,61.22 C170.973116,61.1489446 170.912734,61.0966137 170.84,61.09 C170.752319,61.0844812 170.66976,61.1316575 170.63,61.21 L170.63,61.21 L170.57,61.29 C170.868306,60.6263275 170.763612,59.8508136 170.3,59.29 C170.256348,59.2302319 170.183257,59.1994569 170.11,59.21 C170.051977,59.2168777 170.000346,59.2500694 169.97,59.3 C169.942344,59.3393721 169.922019,59.3834108 169.91,59.43 L169.91,59.5 C169.854383,58.7815312 169.542009,58.1070874 169.03,57.6 L168.94,57.49 L168.81,57.56 C168.121835,57.8426771 167.504002,58.2727712 167,58.82 C167.026844,58.704858 167.060231,58.5913404 167.1,58.48 C167.16934,58.3485858 167.16934,58.1914142 167.1,58.06 C167.053853,58.0034734 166.982681,57.9735062 166.91,57.98 C166.001976,58.1236265 165.198175,58.6473702 164.7,59.42 L164.63,59.53 C164.671551,59.4384136 164.651592,59.3306341 164.58,59.26 C164.506342,59.2149522 164.413658,59.2149522 164.34,59.26 C163.856906,59.4743446 163.44434,59.8210384 163.15,60.26 C162.841295,60.707569 162.620695,61.2098587 162.5,61.74 C162.461728,61.5552951 162.461728,61.3647049 162.5,61.18 C162.550461,61.0876772 162.524813,60.9722619 162.44,60.91 C162.368889,60.8566667 162.271111,60.8566667 162.2,60.91 C161.817418,61.2095506 161.480543,61.5632692 161.2,61.96 C160.844202,62.4575597 160.642509,63.0487297 160.62,63.66 C160.554832,63.5136939 160.511051,63.3587739 160.49,63.2 C160.494731,63.0905825 160.424789,62.991841 160.32,62.96 C160.236247,62.947984 160.153463,62.9874049 160.11,63.06 L160.06,63.13 C159.508268,63.8524243 159.219054,64.741228 159.24,65.65 L159.24,65.57 C159.233331,65.46229 159.155592,65.3722763 159.05,65.35 L159,65.35 L158.93,65.45 C158.224006,67.0168085 158.028115,68.765829 158.37,70.45 C158.646094,71.7175837 159.465124,72.7998732 160.61,73.41 L160.61,73.41 Z" id="Shape" fill="#5EA339"></path>
                            <path d="M162,73.99 C161.235002,71.7157862 159.514506,69.8893572 157.29,68.99 C155.061201,68.1148825 152.564507,68.2349859 150.43,69.32 C150.299064,69.3625662 150.218503,69.4940073 150.24,69.63 C150.260323,69.7105356 150.320843,69.7748379 150.4,69.8 C150.214888,69.8178769 150.031156,69.8479421 149.85,69.89 C149.389867,69.98419 148.95621,70.1788236 148.58,70.46 C148.504054,70.5153966 148.462388,70.6063059 148.47,70.7 C148.522003,70.8827596 148.660229,71.0284564 148.84,71.09 C149.026992,71.2016084 149.204281,71.3287216 149.37,71.47 C148.736615,71.3398636 148.083385,71.3398636 147.45,71.47 C146.665558,71.6352418 145.960429,72.0618446 145.45,72.68 C145.401389,72.7598502 145.401389,72.8601498 145.45,72.94 C145.530907,73.071971 145.675212,73.151718 145.83,73.15 C145.976435,73.1732493 146.120389,73.2100747 146.26,73.26 C145.817083,73.2387849 145.373296,73.2757671 144.94,73.37 C144.162384,73.5344298 143.459958,73.9488609 142.94,74.55 C142.889606,74.6329458 142.889606,74.7370542 142.94,74.82 C143.044636,74.9694496 143.217659,75.0559611 143.4,75.05 C143.600115,75.0807063 143.797423,75.1275252 143.99,75.19 C143.788226,75.2010419 143.587619,75.2277895 143.39,75.27 C142.506767,75.4374372 141.738164,75.9765519 141.28,76.75 C141.226316,76.8283531 141.226316,76.9316469 141.28,77.01 C141.360211,77.0929169 141.481942,77.1204044 141.59,77.08 L141.59,77.08 L141.72,77.08 C140.825292,77.4585048 140.229343,78.3193199 140.19,79.29 C140.176418,79.3874328 140.21899,79.4841873 140.3,79.54 C140.366886,79.5695267 140.443114,79.5695267 140.51,79.54 C140.569498,79.524242 140.626657,79.5007057 140.68,79.47 L140.77,79.47 C140.197443,80.2232749 139.910448,81.155125 139.96,82.1 L139.96,82.29 L140.16,82.29 C141.073405,82.5644037 142.035091,82.6394289 142.98,82.51 C142.851701,82.6011293 142.718135,82.6846077 142.58,82.76 C142.389668,82.8146378 142.239438,82.961112 142.18,83.15 C142.174283,83.2433505 142.215552,83.3333916 142.29,83.39 C143.295105,84.0536246 144.535444,84.2573166 145.7,83.95 L145.86,83.95 C145.740318,84.0059791 145.665563,84.1279481 145.67,84.26 C145.69204,84.3751698 145.777178,84.4680469 145.89,84.5 C146.565706,84.6986224 147.284294,84.6986224 147.96,84.5 C148.651536,84.3367941 149.306235,84.045063 149.89,83.64 C149.751224,83.8454303 149.570614,84.019225 149.36,84.15 C149.232649,84.2006799 149.160706,84.336102 149.19,84.47 C149.226025,84.5818662 149.332612,84.6556576 149.45,84.65 C150.092408,84.7056022 150.739515,84.665158 151.37,84.53 C152.153144,84.3590163 152.869195,83.9627549 153.43,83.39 C153.362026,83.5851765 153.26783,83.7702046 153.15,83.94 C153.047646,84.0399545 153.026986,84.1969707 153.1,84.32 C153.169042,84.4066634 153.284024,84.4423474 153.39,84.41 L153.51,84.41 C154.676378,84.1941753 155.73447,83.5875363 156.51,82.69 L156.51,82.79 C156.423265,82.9018188 156.423265,83.0581812 156.51,83.17 L156.61,83.28 L156.76,83.28 C158.845717,82.3869206 160.595751,80.8573904 161.76,78.91 C162.56703,77.3871171 162.654978,75.5842004 162,73.99 L162,73.99 Z" id="Shape" fill="#5EA339"></path>
                        </g>
                    </g>
                </g>
            </g>
        </g>
    </g>
</svg>