<svg id="Layer_1" data-name="Layer 1" xmlns="http://www.w3.org/2000/svg" xmlns:xlink="http://www.w3.org/1999/xlink" viewBox="0 0 253 253"><defs><linearGradient id="linear-gradient" x1="129.41" y1="49.22" x2="129.41" y2="176.28" gradientTransform="matrix(-1, 0, 0, 1, 253, 0)" gradientUnits="userSpaceOnUse"><stop offset="0" stop-color="#20419a"/><stop offset="1" stop-color="#0065b2"/></linearGradient><linearGradient id="linear-gradient-2" x1="126.44" y1="49.22" x2="126.44" y2="176.28" xlink:href="#linear-gradient"/><linearGradient id="linear-gradient-3" x1="153.37" y1="65.77" x2="113.21" y2="115.59" gradientTransform="matrix(-1, 0, 0, 1, 253, 0)" gradientUnits="userSpaceOnUse"><stop offset="0" stop-color="#6fb4e3"/><stop offset="1" stop-color="#fff"/></linearGradient><linearGradient id="linear-gradient-4" x1="144.91" y1="58.94" x2="104.74" y2="108.76" xlink:href="#linear-gradient-3"/><linearGradient id="linear-gradient-5" x1="160.1" y1="71.19" x2="119.94" y2="121.01" xlink:href="#linear-gradient-3"/><linearGradient id="linear-gradient-6" x1="165.23" y1="75.33" x2="125.06" y2="125.15" xlink:href="#linear-gradient-3"/><linearGradient id="linear-gradient-7" x1="169.65" y1="78.89" x2="129.48" y2="128.71" xlink:href="#linear-gradient-3"/><linearGradient id="linear-gradient-8" x1="129.14" y1="114.87" x2="129.14" y2="175.55" xlink:href="#linear-gradient-3"/><linearGradient id="linear-gradient-9" x1="59.11" y1="163.97" x2="58.73" y2="198.51" gradientTransform="matrix(1, 0, 0, 1, 0, 0)" xlink:href="#linear-gradient"/><linearGradient id="linear-gradient-10" x1="92.56" y1="164.34" x2="92.17" y2="198.89" gradientTransform="matrix(1, 0, 0, 1, 0, 0)" xlink:href="#linear-gradient"/><linearGradient id="linear-gradient-11" x1="124.38" y1="164.7" x2="123.99" y2="199.24" gradientTransform="matrix(1, 0, 0, 1, 0, 0)" xlink:href="#linear-gradient"/><linearGradient id="linear-gradient-12" x1="149.35" y1="164.98" x2="148.97" y2="199.52" gradientTransform="matrix(1, 0, 0, 1, 0, 0)" xlink:href="#linear-gradient"/><linearGradient id="linear-gradient-13" x1="173.11" y1="165.25" x2="172.72" y2="199.79" gradientTransform="matrix(1, 0, 0, 1, 0, 0)" xlink:href="#linear-gradient"/><linearGradient id="linear-gradient-14" x1="198.57" y1="165.54" x2="198.18" y2="200.08" gradientTransform="matrix(1, 0, 0, 1, 0, 0)" xlink:href="#linear-gradient"/></defs><title>modern</title><rect width="253" height="253" fill="#fff"/><circle cx="54.49" cy="213.35" r="1.69" fill="#0065b2"/><path d="M195.06,123.4s-15.6,35.69-69.69,35.73C75.94,159.18,52.12,122,52.12,122s23.09,43.49,73.25,42C181.55,162.25,195.06,123.4,195.06,123.4Z" transform="translate(0)" fill="url(#linear-gradient)"/><path d="M162.58,126c19.9,0,36.3-3.71,40.4-12a4.62,4.62,0,0,0-.13-4.93c-4.63-6.73-31.27-4.86-60.52-2.16-3.29.3-6.27.58-8.78.78-37.22,3-61.17,3.81-72.9-7-5.65-5.21-8.3-14.16-8.3-25V66.3c0-6,0-11.68,0-14-.05-10.45,2.11-14.74,4-15.23,1.26-.35,3.38,1.06,6.16,5.63,5.14,8.41,7.23,9.93,10.57,7.47,2.52-1.85,3.68-1.5,5.63,1.52L71.32,60,83.06,51.4c-3.38-4.29-6.76-6.22-10.15-4C70.52,49,69.47,49.26,65,41.28c-4-7.16-7.59-7.45-9.37-7-4,1.05-6.15,7.45-6.09,18,0,2.33,0,23.34,0,23.34,0,11.69,3,20.19,9.32,26,12.49,11.51,36.93,12,75,8.87,2.52-.2,5.51-.48,8.81-.78,17.47-1.61,53.92-1.47,53.72,5.71-.29,10.27-41.9,11.24-78.9,2.23-36.16-8.81-60,4.55-61,5.13h0c.24-.13,21.92-12.42,60.35-2.36A187.13,187.13,0,0,0,162.58,126Z" transform="translate(0)" fill="url(#linear-gradient-2)"/><polygon points="152.89 119.69 82.57 56.75 84.17 55.52 152.89 119.69" fill="url(#linear-gradient-3)"/><polygon points="176.01 117.92 84.66 55.14 86.3 53.84 176.01 117.92" fill="url(#linear-gradient-4)"/><polygon points="131.93 116.22 80.09 58.68 81.78 57.39 131.93 116.22" fill="url(#linear-gradient-5)"/><polygon points="114.94 114.66 77.81 60.55 79.38 59.29 114.94 114.66" fill="url(#linear-gradient-6)"/><polygon points="103.2 113.32 98.88 106.52 75.07 62.64 76.98 61.16 103.2 113.32" fill="url(#linear-gradient-7)"/><path d="M185,129.09s-18.64,24.53-61.38,24.52C84.76,153.61,62.76,126,62.76,126s22.49-8.42,58,.84C159.77,137,185,129.09,185,129.09Z" transform="translate(0)" fill="url(#linear-gradient-8)"/><circle cx="196.8" cy="213.35" r="1.69" fill="#0065b2"/><path d="M46.48,198.72a9.52,9.52,0,0,0-1.79-.19,12,12,0,0,0-1.9.19q2-10.8,4-26.85a7.13,7.13,0,0,0,1.6.19,8,8,0,0,0,1.56-.19Q53,179,58.82,190.57,63,183,68,171.88a9.37,9.37,0,0,0,1.71.19,7.57,7.57,0,0,0,1.62-.19q1.58,14.7,3.35,26.85-2-.19-2.78-.19-1.48,0-3.61.19-.51-8.9-1.54-18.24-5.38,11.07-8.8,18.37a3,3,0,0,0-.74-.19,1.7,1.7,0,0,0-.7.19q-4.72-10.1-8.56-17.95Q46.9,189.12,46.48,198.72Z" transform="translate(0)" fill="url(#linear-gradient-9)"/><path d="M77.41,185.41a13,13,0,0,1,4.26-10,15.6,15.6,0,0,1,11-3.92,15.06,15.06,0,0,1,10.51,3.65q4.05,3.63,4.05,10.14a12.64,12.64,0,0,1-4.35,9.94,15.71,15.71,0,0,1-10.78,3.84q-6.94,0-10.82-3.67T77.41,185.41Zm6.39.32q0,5.17,2.11,8a7.18,7.18,0,0,0,6.14,2.87,7.48,7.48,0,0,0,6.45-3.29,14.84,14.84,0,0,0,2.34-8.77A12.43,12.43,0,0,0,98.58,177a7.67,7.67,0,0,0-12.53.34A14.89,14.89,0,0,0,83.8,185.74Z" transform="translate(0)" fill="url(#linear-gradient-10)"/><path d="M111.6,171.88q2.11.19,3.16.19.7,0,3.57-.1l3.16-.09q8.27,0,11.81,3.16t3.56,9.43A14.24,14.24,0,0,1,133,194.69a12.88,12.88,0,0,1-9.77,4q-.76,0-4.47-.1l-4-.09c-.7,0-1.76.06-3.18.19q.33-4.56.32-10.78v-5.27Q111.92,176.44,111.6,171.88Zm6.2,2.41q-.11,6.49-.11,8.29,0,5.67.11,13.8,1.61.13,3.33.13a8.72,8.72,0,0,0,7-3q2.57-3,2.57-9a11.26,11.26,0,0,0-2.44-7.62,8,8,0,0,0-6.41-2.81A35.81,35.81,0,0,0,117.8,174.29Z" transform="translate(0)" fill="url(#linear-gradient-11)"/><path d="M141.63,198.72a76.67,76.67,0,0,0,.32-8.71v-8.59q0-3.61-.32-9.54,3.88.19,7.15.19,6.41,0,7.85-.19c-.07.7-.1,1.22-.1,1.58a14.58,14.58,0,0,0,.1,1.52q-7.95-.19-8.8-.19-.11,3.5-.11,8.52,5.19,0,8.75-.19a12.82,12.82,0,0,0-.1,1.56,14.19,14.19,0,0,0,.1,1.5q-2.81-.19-8.75-.19,0,5.61.11,9.83h1.35q3.58,0,7.45-.19a12.31,12.31,0,0,0-.1,1.64,9.61,9.61,0,0,0,.1,1.46q-2.72-.19-7.38-.19Q143.37,198.53,141.63,198.72Z" transform="translate(0)" fill="url(#linear-gradient-12)"/><path d="M162.64,198.72q.33-4.56.32-9.6v-7.6q0-5.08-.32-9.64c1.44.13,2.48.19,3.14.19q.42,0,2.95-.1l2.89-.09a17.74,17.74,0,0,1,5,.51,6.52,6.52,0,0,1,3,2,6,6,0,0,1,1.27,4q0,5.51-6,7.11,1.87,3.62,8.27,13.18c-1.57-.13-2.71-.19-3.4-.19a26,26,0,0,0-3.61.19q-3-5.29-7-12.32h-.38q0,7.82.32,12.32-2.17-.19-3.21-.19T162.64,198.72Zm6.08-14a6.82,6.82,0,0,0,.93.08q5.31,0,5.31-5.66,0-2.81-1.1-3.94t-4.62-1.14h-.4Q168.72,179.39,168.72,184.75Z" transform="translate(0)" fill="url(#linear-gradient-13)"/><path d="M186.79,198.72q.32-6.84.32-15.92v-3q0-3.42-.32-8a12,12,0,0,0,1.84.19,9.55,9.55,0,0,0,1.81-.19q6.64,7.28,16.83,18.6h0q0-15.33-.32-18.6a10.54,10.54,0,0,0,1.64.19,7,7,0,0,0,1.62-.19q-.33,5.15-.32,26.85h-.32a4.15,4.15,0,0,0-1.43-.19,6,6,0,0,0-1.41.19q-6.69-8.2-16.92-18.9,0,14.7.32,18.9a8.59,8.59,0,0,0-1.65-.19A9.41,9.41,0,0,0,186.79,198.72Z" transform="translate(0)" fill="url(#linear-gradient-14)"/><path d="M61.56,218.21q.13-1.15.13-3.63v-3q0-2.4-.13-3.84.84.07,1.61.07l.86,0,.75,0Q68,207.77,68,210t-2.61,2.68q3,.18,3,2.57a2.71,2.71,0,0,1-1,2.15,4.27,4.27,0,0,1-2.85.86l-.79,0-.7,0A11.74,11.74,0,0,0,61.56,218.21Zm1.36-5.78h.81q2.94,0,2.94-2.19,0-1.91-2.53-1.91l-.54,0a4.8,4.8,0,0,0-.61.05Q62.92,210.52,62.92,212.43Zm0,.56q0,2.67.07,4.58a1.91,1.91,0,0,0,.68.07l.81,0a2.35,2.35,0,0,0,1.83-.73,2.59,2.59,0,0,0,.67-1.8,1.78,1.78,0,0,0-.78-1.63,5.31,5.31,0,0,0-2.7-.5Z" transform="translate(0)" fill="#0065b2"/><path d="M70.45,218.21q2.11-4.5,4.73-10.58h.3l2,4.59q1.44,3.39,2.65,6a4.86,4.86,0,0,0-.78-.07,6.85,6.85,0,0,0-.83.07q-.25-.85-1.6-4.05a6.3,6.3,0,0,0-.91,0H74.15a10.69,10.69,0,0,0-1.09,0q-.17.33-.72,1.83a22.2,22.2,0,0,0-.76,2.23,2.4,2.4,0,0,0-.56-.07A2,2,0,0,0,70.45,218.21Zm2.9-4.76a4.67,4.67,0,0,0,.73,0h1.81a4.23,4.23,0,0,0,.78,0h0q-.58-1.24-1.69-3.78Z" transform="translate(0)" fill="#0065b2"/><path d="M81.37,208.68a1.66,1.66,0,0,0,.07-.5,1.27,1.27,0,0,0-.07-.45q1.67.12,3.52.13h.62q1.61,0,3.63-.12a2,2,0,0,0-.07.5,1.52,1.52,0,0,0,.07.45q-1.34-.13-3.23-.12,0,1.26,0,2.94v1.6q0,3.07.13,5.11a5.79,5.79,0,0,0-.76-.07,3.5,3.5,0,0,0-.72.07q.13-2,.13-5.06v-1.69q0-1.68,0-2.9Q83.06,208.55,81.37,208.68Z" transform="translate(0)" fill="#0065b2"/><path d="M91.59,207.77a4.5,4.5,0,0,0,.76.07,3.37,3.37,0,0,0,.72-.07q-.13,2.17-.13,3.24v1.19q1.51,0,3.19,0t3.14,0V211a28.67,28.67,0,0,0-.13-3.22,5.79,5.79,0,0,0,.76.07,3.64,3.64,0,0,0,.72-.07q-.13,2.82-.13,3.63v3.17q0,1.12.13,3.64a6.69,6.69,0,0,0-.75-.07,3.38,3.38,0,0,0-.74.07q.13-1.89.13-3.67v-1.61q-1.52,0-3.19,0t-3.14,0v1.63q0,1.3.13,3.65a6.68,6.68,0,0,0-.75-.07,3.38,3.38,0,0,0-.74.07q.13-1.59.13-3.64V211Q91.72,209.33,91.59,207.77Z" transform="translate(0)" fill="#0065b2"/><path d="M111.56,212.61a4.78,4.78,0,0,1-1-2.4,2.16,2.16,0,0,1,.67-1.6,2.31,2.31,0,0,1,1.69-.66,2.22,2.22,0,0,1,1.46.45,1.47,1.47,0,0,1,.55,1.21,2.27,2.27,0,0,1-.64,1.51,5.07,5.07,0,0,1-1.46,1.16q.86,1.15,2.65,3.33a13,13,0,0,0,1.79-3,1.9,1.9,0,0,0,.57.61,21.15,21.15,0,0,1-2,2.8l1.91,2.19c-.5,0-.83-.07-1-.07a5.07,5.07,0,0,0-.84.07q-.25-.37-1-1.27a4.6,4.6,0,0,1-3.19,1.41,3.23,3.23,0,0,1-2.15-.68,2.26,2.26,0,0,1-.81-1.81,2.77,2.77,0,0,1,.77-1.88A5.27,5.27,0,0,1,111.56,212.61Zm.27.35a4.29,4.29,0,0,0-1.37,1.17,2.42,2.42,0,0,0-.44,1.41,2,2,0,0,0,.66,1.49,2.2,2.2,0,0,0,1.54.6,3.48,3.48,0,0,0,2.41-1.09Q113.6,215.35,111.83,213Zm.75-1a3.69,3.69,0,0,0,1.12-1,2.25,2.25,0,0,0,.45-1.3,1.23,1.23,0,0,0-.34-.91,1.2,1.2,0,0,0-.89-.34,1.18,1.18,0,0,0-1,.42,1.5,1.5,0,0,0-.34,1A3.61,3.61,0,0,0,112.58,212Z" transform="translate(0)" fill="#0065b2"/><path d="M125.08,217.47a8.34,8.34,0,0,0,.3-1.37h.18a2.49,2.49,0,0,0,2.37,1.61,2,2,0,0,0,1.54-.62,2.17,2.17,0,0,0,.59-1.55,1.83,1.83,0,0,0-.31-1,3.13,3.13,0,0,0-1.38-1L127,213a2.61,2.61,0,0,1-1.71-2.54,2.54,2.54,0,0,1,.9-2.06,3.58,3.58,0,0,1,2.37-.75,3.1,3.1,0,0,1,2.17.72,3.38,3.38,0,0,0-.41,1.29h-.18a1.8,1.8,0,0,0-1.77-1.45,1.92,1.92,0,0,0-1.35.51,1.69,1.69,0,0,0-.55,1.32q0,1.35,1.68,2l1.23.49a2.58,2.58,0,0,1,1.83,2.45,3.12,3.12,0,0,1-1,2.41,3.73,3.73,0,0,1-2.63.94A3.84,3.84,0,0,1,125.08,217.47Z" transform="translate(0)" fill="#0065b2"/><path d="M134.06,207.77a4.5,4.5,0,0,0,.76.07,3.37,3.37,0,0,0,.72-.07q-.13,2.17-.12,3.24v1.19q1.51,0,3.19,0t3.14,0V211a28.83,28.83,0,0,0-.12-3.22,5.78,5.78,0,0,0,.76.07,3.65,3.65,0,0,0,.72-.07q-.13,2.82-.12,3.63v3.17q0,1.12.13,3.64a6.68,6.68,0,0,0-.75-.07,3.37,3.37,0,0,0-.74.07q.12-1.89.13-3.67v-1.61q-1.51,0-3.19,0t-3.14,0v1.63q0,1.3.13,3.65a6.68,6.68,0,0,0-.75-.07,3.37,3.37,0,0,0-.74.07q.12-1.59.13-3.64V211Q134.18,209.33,134.06,207.77Z" transform="translate(0)" fill="#0065b2"/><path d="M145.85,213a5.09,5.09,0,0,1,1.54-3.93,6.6,6.6,0,0,1,8.2,0,5.06,5.06,0,0,1,1.56,3.93,5.23,5.23,0,0,1-1.49,3.89,6.57,6.57,0,0,1-8.31,0A5.21,5.21,0,0,1,145.85,213Zm1.49,0a5.17,5.17,0,0,0,1.12,3.55,4.35,4.35,0,0,0,6.08,0,6.21,6.21,0,0,0,0-7.12,3.89,3.89,0,0,0-3-1.24,3.79,3.79,0,0,0-3.07,1.29A5.27,5.27,0,0,0,147.34,213Z" transform="translate(0)" fill="#0065b2"/><path d="M158.79,207.77a6.11,6.11,0,0,0,.78.07,3.72,3.72,0,0,0,.74-.07q.94,3.7,2.67,9,1.12-3.3,2.91-9a1.72,1.72,0,0,0,1,0q1.14,3.9,2.92,9,2.43-7.38,2.77-9a3.27,3.27,0,0,0,.55.07,1.67,1.67,0,0,0,.51-.07q-1.12,2.78-3.67,10.44a2.35,2.35,0,0,0-.52-.07,2,2,0,0,0-.5.07q-1.11-3.45-2.82-8.68l-3,8.68a2.48,2.48,0,0,0-.5-.07,2.76,2.76,0,0,0-.55.07Q160.71,213.52,158.79,207.77Z" transform="translate(0)" fill="#0065b2"/><path d="M175.85,218.26q.13-2.75.13-3.67V211.4q0-1.23-.13-3.68,1.35.12,2.79.13,1.14,0,2.58-.12a1.86,1.86,0,0,0-.07.44,1.62,1.62,0,0,0,.07.44q-1.82-.13-3.94-.13-.07,1.24-.08,3.92,1.55,0,3.67-.12a1.6,1.6,0,0,0-.07.44,1.86,1.86,0,0,0,.07.44q-1.72-.13-3.67-.12,0,.86.08,4.46,3,0,4-.13a2,2,0,0,0-.08.46,2,2,0,0,0,.08.43q-1.4-.12-2.71-.12Q177.44,218.14,175.85,218.26Z" transform="translate(0)" fill="#0065b2"/><path d="M184.17,218.21q.12-1.59.13-3.64v-3.76q0-1.45-.12-3a11.61,11.61,0,0,0,1.46.07l1,0,1,0q3.13,0,3.13,2.4t-3.08,2.9q2,2.55,4.14,5.13a5.06,5.06,0,0,0-.88-.07,5.14,5.14,0,0,0-.91.07l-2-2.65a21.06,21.06,0,0,0-2-2.35h-.55v1.38q0,2.11.13,3.63a6.68,6.68,0,0,0-.75-.07A3.37,3.37,0,0,0,184.17,218.21Zm1.36-5.67a2.93,2.93,0,0,0,.94.1,3.2,3.2,0,0,0,2.11-.63,2.12,2.12,0,0,0,.76-1.73,1.74,1.74,0,0,0-.63-1.45,2.54,2.54,0,0,0-1.65-.5q-.6,0-1.46.08-.06,2.89-.07,3.64Z" transform="translate(0)" fill="#0065b2"/></svg>