<svg id="Layer_1" data-name="Layer 1" xmlns="http://www.w3.org/2000/svg" viewBox="0 0 253 253"><title>murphy</title><rect width="253" height="253" fill="#fff"/><path d="M110.6,155h-1.86l.1-.3a.53.53,0,0,0,.44-.18,1.07,1.07,0,0,0,.14-.64V151a1.17,1.17,0,0,0-.13-.66.61.61,0,0,0-.5-.16l.1-.3h1.75l-.1.3a.48.48,0,0,0-.39.16,1.17,1.17,0,0,0-.12.66v2.81a1.09,1.09,0,0,0,.14.65.67.67,0,0,0,.54.17Z" transform="translate(0 0)" fill="#261c02"/><path d="M113.14,149.91h1.1a7,7,0,0,0,.44.69c.2.28.42.59.67.92l.69.89.82,1,.25.32h0v-2.13a4.31,4.31,0,0,0,0-.73.9.9,0,0,0-.17-.41.69.69,0,0,0-.35-.21,3.18,3.18,0,0,0-.64-.09l.1-.3h2.19l-.13.3a.49.49,0,0,0-.42.14,1.24,1.24,0,0,0-.1.63v4l-.41.1c-.25-.4-.53-.8-.83-1.2l-1.15-1.48c-.44-.55-.75-1-.95-1.22h0v2.46a1.11,1.11,0,0,0,.22.78,1.37,1.37,0,0,0,.93.26l-.09.3h-2.18l.09-.3a.54.54,0,0,0,.44-.18,1.07,1.07,0,0,0,.14-.64v-2.76a1.08,1.08,0,0,0-.15-.65.74.74,0,0,0-.58-.21Z" transform="translate(0 0)" fill="#261c02"/><path d="M120.79,153.41l.39-.13a3.59,3.59,0,0,0,0,.64.78.78,0,0,0,.18.38.68.68,0,0,0,.36.2,2.9,2.9,0,0,0,.63.06.87.87,0,0,0,.7-.24,1.24,1.24,0,0,0,.2-.78.59.59,0,0,0-.27-.48,5.07,5.07,0,0,0-.82-.47l-.58-.3a2.81,2.81,0,0,1-.43-.29,1.36,1.36,0,0,1-.33-.39,1,1,0,0,1-.13-.49,1.12,1.12,0,0,1,.42-.9,1.72,1.72,0,0,1,1.13-.35l1,0h.47v1.23l-.39.19a3.65,3.65,0,0,0,0-.59.51.51,0,0,0-.47-.45,3.78,3.78,0,0,0-.6,0,.88.88,0,0,0-.58.2.7.7,0,0,0-.24.58.63.63,0,0,0,.27.52,5.89,5.89,0,0,0,.86.5l.57.29a2.85,2.85,0,0,1,.42.28,1.33,1.33,0,0,1,.32.37.92.92,0,0,1,.12.46,1.37,1.37,0,0,1-.5,1.19,2.77,2.77,0,0,1-1.59.36l-.65,0-.44,0Z" transform="translate(0 0)" fill="#261c02"/><path d="M126.47,149.91h2.19l-.09.3a2.51,2.51,0,0,0-.53,0,.59.59,0,0,0-.31.15.63.63,0,0,0-.16.31,2.26,2.26,0,0,0,0,.52v2.24a1.21,1.21,0,0,0,.29.88,1.14,1.14,0,0,0,.86.3,1.33,1.33,0,0,0,1-.34,1.43,1.43,0,0,0,.32-1v-2.13a1.37,1.37,0,0,0-.15-.77.79.79,0,0,0-.62-.19l.09-.3H131l-.09.3a.42.42,0,0,0-.32.14.5.5,0,0,0-.13.35v2.71a1.59,1.59,0,0,1-.46,1.2,1.88,1.88,0,0,1-1.35.44,2,2,0,0,1-1.24-.36,1.35,1.35,0,0,1-.47-1.14v-2.47a1.25,1.25,0,0,0-.13-.69.49.49,0,0,0-.42-.18Z" transform="translate(0 0)" fill="#261c02"/><path d="M133.41,155l.1-.3a.55.55,0,0,0,.46-.18,1.05,1.05,0,0,0,.14-.64V151a1.14,1.14,0,0,0-.13-.66.67.67,0,0,0-.53-.16l.09-.3h2a1.45,1.45,0,0,1,1,.31,1.15,1.15,0,0,1,.35.9,1.12,1.12,0,0,1-.32.86,1.46,1.46,0,0,1-.86.37v0a.78.78,0,0,1,.52.35,4.85,4.85,0,0,1,.44.82c.09.21.17.36.22.47a2.26,2.26,0,0,0,.2.31.94.94,0,0,0,.26.24.65.65,0,0,0,.34.09l-.09.3h-1l-.21-.45c-.29-.6-.5-1-.62-1.25a3.51,3.51,0,0,0-.34-.54.7.7,0,0,0-.3-.24,1.55,1.55,0,0,0-.45-.05v1.06a2.55,2.55,0,0,0,.05.6.77.77,0,0,0,.16.36.58.58,0,0,0,.31.17,2,2,0,0,0,.49,0l-.09.3Zm1.29-2.92h0l.37,0a1.4,1.4,0,0,0,.84-.22.76.76,0,0,0,.3-.65.91.91,0,0,0-.27-.69,1,1,0,0,0-.71-.25.5.5,0,0,0-.43.16.72.72,0,0,0-.12.45Z" transform="translate(0 0)" fill="#261c02"/><path d="M139.67,155l.1-.3a.55.55,0,0,0,.41-.15,2.12,2.12,0,0,0,.33-.63c.13-.34.28-.73.46-1.18s.43-1.08.56-1.46.27-.82.39-1.31l.66-.09c.07.31.17.66.29,1.06s.26.8.4,1.21.28.79.42,1.14.25.62.35.83a1.52,1.52,0,0,0,.32.48.7.7,0,0,0,.46.13l-.1.3h-2l.09-.3a.75.75,0,0,0,.36-.08.28.28,0,0,0,.14-.27,1.08,1.08,0,0,0-.06-.31c0-.13-.09-.29-.17-.5l-.09-.23h-1.83l-.08.21c-.07.2-.13.34-.15.43a1.23,1.23,0,0,0,0,.29.38.38,0,0,0,.19.35,1.29,1.29,0,0,0,.61.11l-.11.3Zm2.49-4.29h0l-.8,2.21h1.58Z" transform="translate(0 0)" fill="#261c02"/><path d="M147.12,149.91h1.11a6.29,6.29,0,0,0,.44.69c.19.28.42.59.67.92s.48.64.68.89l.82,1,.25.32h0v-2.13a4.24,4.24,0,0,0,0-.73.85.85,0,0,0-.17-.41.69.69,0,0,0-.35-.21,3.15,3.15,0,0,0-.63-.09l.09-.3h2.19l-.13.3a.49.49,0,0,0-.42.14,1.24,1.24,0,0,0-.1.63v4l-.41.1c-.25-.4-.53-.8-.84-1.2s-.69-.89-1.15-1.48-.75-1-.94-1.22h0v2.46a1.09,1.09,0,0,0,.23.78,1.36,1.36,0,0,0,.92.26l-.1.3h-2.18l.1-.3a.53.53,0,0,0,.44-.18,1.07,1.07,0,0,0,.14-.64v-2.76a1.11,1.11,0,0,0-.14-.65.76.76,0,0,0-.58-.21Z" transform="translate(0 0)" fill="#261c02"/><path d="M158.35,151.22l-.35.13a1.11,1.11,0,0,0-.23-.8,1.27,1.27,0,0,0-.84-.2,1.7,1.7,0,0,0-1.4.48,2.37,2.37,0,0,0-.39,1.5,2.28,2.28,0,0,0,.56,1.63,2.08,2.08,0,0,0,1.58.59,4.16,4.16,0,0,0,1.29-.22l-.1.49a4.36,4.36,0,0,1-1.51.25,2.45,2.45,0,0,1-1-.19,2.4,2.4,0,0,1-.79-.55,2.47,2.47,0,0,1-.53-.83,2.85,2.85,0,0,1-.18-1,2.93,2.93,0,0,1,.19-1.06,2.32,2.32,0,0,1,.54-.83A2.38,2.38,0,0,1,156,150a2.94,2.94,0,0,1,1.06-.18h.7l.55,0Z" transform="translate(0 0)" fill="#261c02"/><path d="M161,155l.09-.3a.55.55,0,0,0,.43-.15.8.8,0,0,0,.14-.54v-2.81a1.27,1.27,0,0,0-.16-.72.59.59,0,0,0-.52-.22l.1-.3h3.42v1.17l-.35.1a1.21,1.21,0,0,0-.08-.46.65.65,0,0,0-.2-.28.72.72,0,0,0-.3-.14,2,2,0,0,0-.4,0,1.3,1.3,0,0,0-.71.14.51.51,0,0,0-.2.45v1.24h.68a.8.8,0,0,0,.48-.1.52.52,0,0,0,.12-.41l.35-.1v1.64l-.35.09a.82.82,0,0,0-.16-.57.67.67,0,0,0-.52-.17h-.6v2l.46,0,.42,0a1.1,1.1,0,0,0,.81-.24,1.43,1.43,0,0,0,.29-.83l.35-.09V155Z" transform="translate(0 0)" fill="#261c02"/><path d="M170.81,155l.09-.3a.54.54,0,0,0,.41-.15,2,2,0,0,0,.33-.63l.47-1.18c.23-.59.42-1.08.56-1.46s.27-.82.39-1.31l.66-.09c.08.31.17.66.29,1.06s.25.8.4,1.21.28.79.42,1.14.25.62.35.83a1.55,1.55,0,0,0,.32.48.7.7,0,0,0,.46.13l-.09.3h-2l.1-.3a.75.75,0,0,0,.36-.08.28.28,0,0,0,.14-.27,1.12,1.12,0,0,0-.06-.31c0-.13-.09-.29-.17-.5l-.09-.23h-1.83l-.08.21-.15.43a1.31,1.31,0,0,0,0,.29.38.38,0,0,0,.19.35,1.3,1.3,0,0,0,.61.11l-.11.3Zm2.49-4.29h0l-.81,2.21h1.58Z" transform="translate(0 0)" fill="#261c02"/><path d="M182.22,151.19l-.35.13a1.18,1.18,0,0,0-.27-.83,1.3,1.3,0,0,0-.85-.21,2.43,2.43,0,0,0-.92.15,1.33,1.33,0,0,0-.59.43,1.82,1.82,0,0,0-.31.66,3.61,3.61,0,0,0-.1.87,2.37,2.37,0,0,0,.53,1.6,1.84,1.84,0,0,0,1.46.61,2.38,2.38,0,0,0,.5,0,.84.84,0,0,0,.28-.11.32.32,0,0,0,.15-.19,1.94,1.94,0,0,0,0-.51,1.24,1.24,0,0,0-.05-.4.39.39,0,0,0-.18-.22.82.82,0,0,0-.29-.1l-.51-.06.13-.3H183l-.12.3a.51.51,0,0,0-.33.09.37.37,0,0,0-.11.32v1.38a9,9,0,0,1-.92.23,5,5,0,0,1-.83.07,2.44,2.44,0,0,1-1-.19,2.34,2.34,0,0,1-.79-.55,2.48,2.48,0,0,1-.52-.83,3,3,0,0,1,0-2.1,2.38,2.38,0,0,1,.54-.83,2.44,2.44,0,0,1,.83-.54,3,3,0,0,1,1.06-.18h.72l.59,0h.11Z" transform="translate(0 0)" fill="#261c02"/><path d="M185.23,155l.09-.3a.56.56,0,0,0,.43-.15.79.79,0,0,0,.14-.54v-2.81a1.28,1.28,0,0,0-.16-.72.59.59,0,0,0-.52-.22l.1-.3h3.42v1.17l-.35.1a1.23,1.23,0,0,0-.08-.46.64.64,0,0,0-.21-.28.71.71,0,0,0-.3-.14,2,2,0,0,0-.39,0,1.33,1.33,0,0,0-.71.14.51.51,0,0,0-.2.45v1.24h.68a.81.81,0,0,0,.48-.1.52.52,0,0,0,.12-.41l.35-.1v1.64l-.35.09a.82.82,0,0,0-.16-.57.68.68,0,0,0-.52-.17h-.6v2l.46,0,.41,0a1.09,1.09,0,0,0,.81-.24,1.42,1.42,0,0,0,.29-.83l.34-.09V155Z" transform="translate(0 0)" fill="#261c02"/><path d="M191.39,149.91h1.1a7.12,7.12,0,0,0,.44.69c.19.28.42.59.67.92s.48.64.68.89l.82,1,.25.32h0v-2.13a4.31,4.31,0,0,0,0-.73.84.84,0,0,0-.17-.41.69.69,0,0,0-.35-.21,3.12,3.12,0,0,0-.63-.09l.09-.3h2.19l-.13.3a.48.48,0,0,0-.42.14,1.22,1.22,0,0,0-.1.63v4l-.41.1c-.25-.4-.53-.8-.84-1.2s-.69-.89-1.15-1.48-.75-1-.95-1.22h0v2.46a1.11,1.11,0,0,0,.22.78,1.38,1.38,0,0,0,.93.26l-.1.3h-2.18l.1-.3a.53.53,0,0,0,.44-.18,1,1,0,0,0,.14-.64v-2.76a1.11,1.11,0,0,0-.14-.65.76.76,0,0,0-.58-.21Z" transform="translate(0 0)" fill="#261c02"/><path d="M202.62,151.22l-.35.13a1.1,1.1,0,0,0-.23-.8,1.27,1.27,0,0,0-.84-.2,1.71,1.71,0,0,0-1.4.48,2.37,2.37,0,0,0-.39,1.5,2.3,2.3,0,0,0,.55,1.63,2.09,2.09,0,0,0,1.58.59,4.13,4.13,0,0,0,1.29-.22l-.09.49a4.37,4.37,0,0,1-1.52.25,2.43,2.43,0,0,1-1-.19,2.38,2.38,0,0,1-.8-.55,2.52,2.52,0,0,1-.52-.83,2.87,2.87,0,0,1-.18-1,2.81,2.81,0,0,1,.19-1.06,2.33,2.33,0,0,1,.53-.83,2.43,2.43,0,0,1,.83-.54,2.9,2.9,0,0,1,1.06-.18h.7l.54,0Z" transform="translate(0 0)" fill="#261c02"/><path d="M207.61,149.91l-.09.3h-.21a.92.92,0,0,0-.5.1.3.3,0,0,0-.14.27.57.57,0,0,0,0,.24,4.48,4.48,0,0,0,.25.41l.52.84.21-.36c.22-.39.4-.71.54-1a6.88,6.88,0,0,0,.34-.82l1-.19-.53.74-.54.78-.46.71a4.62,4.62,0,0,0-.29.51v1.78a.34.34,0,0,0,.18.31,1.5,1.5,0,0,0,.68.1l-.1.3H206.3l.1-.3a1.61,1.61,0,0,0,.36,0,.36.36,0,0,0,.21-.15.87.87,0,0,0,.1-.33,4.63,4.63,0,0,0,0-.61v-.92l-1-1.56a3.89,3.89,0,0,0-.3-.44,1.79,1.79,0,0,0-.24-.24.62.62,0,0,0-.22-.12,1,1,0,0,0-.26,0l.1-.3Z" transform="translate(0 0)" fill="#261c02"/><rect x="106.97" y="127.59" width="103.27" height="1.02" fill="#261c02"/><path d="M111.43,119.38v.13q0,3.42,2.3,3.42h.21l-.72,1.94H107l.75-1.94h.08a1.11,1.11,0,0,0,1.1-.77,8.88,8.88,0,0,0,.31-2.88v-5.63a7.87,7.87,0,0,0-.43-3.41,1.86,1.86,0,0,0-1.66-.64l.74-2h4.62q1.36,3.34,2.79,6.4t3,5.91q1.53-2.94,3-6t2.74-6.28h5l-.73,2h-.05a1.15,1.15,0,0,0-1.15.75,8.56,8.56,0,0,0-.32,2.92v6a6.43,6.43,0,0,0,.43,3,1.89,1.89,0,0,0,1.66.63l-.74,1.94h-6.89l.59-1.94q2.1-.31,2.14-3.71v0l.05-6.27q-1.49,2.77-2.93,5.77t-2.85,6.23l-1.06.28q-1.54-3.64-3-6.74t-2.79-5.76Z" transform="translate(0 0)" fill="#003f2d"/><path d="M138.89,107.64l-.7,2h-.57a1.55,1.55,0,0,0-1.32.51,4.52,4.52,0,0,0-.38,2.35v4.75q0,3.47.74,4.53a2.91,2.91,0,0,0,2.56,1.06,3.84,3.84,0,0,0,1.78-.39,2.56,2.56,0,0,0,1.14-1.11,4,4,0,0,0,.38-1.17,14.12,14.12,0,0,0,.11-2.08v-6.68a1.69,1.69,0,0,0-.52-1.38,2.63,2.63,0,0,0-1.67-.43l-.22,0H140l.73-2H147l-.71,2a1.49,1.49,0,0,0-1.06.34,2.2,2.2,0,0,0-.29,1.39v5.89a19.6,19.6,0,0,1-.26,3.84,5.35,5.35,0,0,1-.9,2,4.83,4.83,0,0,1-2.09,1.58,8.11,8.11,0,0,1-3.07.53,8,8,0,0,1-2.75-.43,5,5,0,0,1-2-1.27,4.84,4.84,0,0,1-1.1-2,18.6,18.6,0,0,1-.32-4.22V112a3.41,3.41,0,0,0-.36-2,2.11,2.11,0,0,0-1.47-.37h-.25l.73-2Z" transform="translate(0 0)" fill="#003f2d"/><path d="M163.12,122.93l-.73,1.94h-3.17q-.56-1.08-1.48-2.94c-1.73-3.46-3-5.19-3.76-5.19h-.15l-.08,0v3.9a2.56,2.56,0,0,0,.44,1.79,3.42,3.42,0,0,0,2.07.48l-.7,1.94h-7.14l.72-1.94a1.58,1.58,0,0,0,1-.33,2,2,0,0,0,.28-1.32V112a3.35,3.35,0,0,0-.36-2,2.06,2.06,0,0,0-1.45-.37l.73-1.94q2.08,0,4.28-.09l2.32-.06a5.32,5.32,0,0,1,3.66,1.13,4.12,4.12,0,0,1,1.27,3.25,4,4,0,0,1-1,2.84,4.83,4.83,0,0,1-2.93,1.32q1.4.17,3.27,3.5c.43.78.78,1.4,1,1.84a5.45,5.45,0,0,0,1,1.27A1.26,1.26,0,0,0,163.12,122.93Zm-9.37-11.27v2.94h.32a4.38,4.38,0,0,0,2.69-.6,2.79,2.79,0,0,0,.71-2.22,2.53,2.53,0,0,0-.47-1.68,1.81,1.81,0,0,0-1.45-.54,2,2,0,0,0-1.46.39A2.78,2.78,0,0,0,153.74,111.66Z" transform="translate(0 0)" fill="#003f2d"/><path d="M169.2,119.63v.94c0,1,.18,1.69.55,1.93a5.82,5.82,0,0,0,2.53.43l-.73,1.94h-7.81l.75-1.94a1.58,1.58,0,0,0,1.05-.33,2,2,0,0,0,.28-1.32v-9.41q0-1.56-.37-1.91a2.17,2.17,0,0,0-1.47-.36h-.25l.72-2c1.52,0,3,0,4.56-.07l2.32-.07a5.35,5.35,0,0,1,3.9,1.46,5,5,0,0,1,1.5,3.72,5.17,5.17,0,0,1-1.72,4.12,7,7,0,0,1-4.78,1.5h-.39l-.64,0Zm0-6.63v2.76l1.14.08,1,0a1.68,1.68,0,0,0,1.47-.59,3.69,3.69,0,0,0,.42-2,4.63,4.63,0,0,0-.66-2.78,2.47,2.47,0,0,0-2.1-.86,1.47,1.47,0,0,0-.94.25,1,1,0,0,0-.3.78Z" transform="translate(0 0)" fill="#003f2d"/><path d="M185.64,107.64l-.73,2a2,2,0,0,0-1.28.58,3.58,3.58,0,0,0-.34,2v2.22c.32,0,.67.06,1.07.06l1.93,0H188l.46,0,1.13-.06v-2.79c0-.89-.13-1.44-.41-1.65a3,3,0,0,0-1.68-.32h-.32l.73-2h7.11l-.71,2a1.46,1.46,0,0,0-1.06.34,2.4,2.4,0,0,0-.29,1.47v9.14c0,1.14.13,1.82.38,2a2.44,2.44,0,0,0,1.55.34h.16l-.7,1.94h-7.12l.73-1.94a2,2,0,0,0,1.25-.56,1.91,1.91,0,0,0,.37-1.29v-4.4l-.77-.07-.91-.05h-3.11l-.59,0-.95.07v4.2q0,1.46.42,1.76a3.49,3.49,0,0,0,1.77.3h.21l-.73,1.94h-7.12l.73-1.94a1.58,1.58,0,0,0,1.05-.33,2,2,0,0,0,.29-1.32v-9.41a3,3,0,0,0-.37-1.91,2.18,2.18,0,0,0-1.47-.36h-.25l.72-2Z" transform="translate(0 0)" fill="#003f2d"/><path d="M205.53,116.54v4.12c0,1,.16,1.58.47,1.82a4.81,4.81,0,0,0,2.18.46l-.72,1.94h-7.25l.73-1.94a1.58,1.58,0,0,0,1-.33,2.05,2.05,0,0,0,.28-1.32v-4.61l-2.22-3.51-.31-.47q-2-3.09-3.46-3.09h-.21l.73-2h8.08l-.73,2H204a2.88,2.88,0,0,0-1.17.18.58.58,0,0,0-.37.55,2.53,2.53,0,0,0,.22.84,9.51,9.51,0,0,0,.61,1.22l1.25,2.11q1.08-1.81,1.92-3.47t1.38-3.08c.63-.08,1.32-.18,2.08-.3l2.46-.42q-2.27,2.94-4.07,5.41T205.53,116.54Z" transform="translate(0 0)" fill="#003f2d"/><path d="M119.44,134.7l-2.15.79v-.2a2.76,2.76,0,0,0-.64-2.11,3.75,3.75,0,0,0-2.39-.56,3.86,3.86,0,0,0-3.17,1.14,8.08,8.08,0,0,0,.42,8.21,4.58,4.58,0,0,0,3.66,1.57,2.08,2.08,0,0,0,1.26-.27c.22-.19.33-.69.33-1.51s-.15-1.24-.44-1.44a5.69,5.69,0,0,0-2.24-.43l.6-1.71h6.74l-.61,1.71h-.28a.81.81,0,0,0-.81.49,6.81,6.81,0,0,0-.24,2.16l0,2.18a17.21,17.21,0,0,1-2.55.7,13.09,13.09,0,0,1-2.41.24,7.39,7.39,0,0,1-5.44-2.05,7.28,7.28,0,0,1-2.06-5.4,8.51,8.51,0,0,1,.66-3.39,6.93,6.93,0,0,1,1.94-2.59A6.77,6.77,0,0,1,112,131a12.44,12.44,0,0,1,3.4-.39q.79,0,1.7.06t2.35.24Z" transform="translate(0 0)" fill="#003f2d"/><path d="M130.47,130.56a6.6,6.6,0,0,1,5,2,7.11,7.11,0,0,1,1.9,5.14,7.54,7.54,0,0,1-.77,3.47,8.29,8.29,0,0,1-2.38,2.77,7.9,7.9,0,0,1-5,1.72,6.72,6.72,0,0,1-5-2,7.08,7.08,0,0,1-1.92-5.15A7.67,7.67,0,0,1,123,135a8.1,8.1,0,0,1,2.37-2.77,8.26,8.26,0,0,1,2.38-1.27A8.56,8.56,0,0,1,130.47,130.56Zm3.77,7.93a5.91,5.91,0,0,0-1.2-4.05,4.6,4.6,0,0,0-3.61-1.35,4.06,4.06,0,0,0-3.14,1,5.3,5.3,0,0,0-.93,3.56,5.93,5.93,0,0,0,1.2,4.05,4.63,4.63,0,0,0,3.62,1.34,4.07,4.07,0,0,0,3.14-1A5.3,5.3,0,0,0,134.24,138.49Z" transform="translate(0 0)" fill="#003f2d"/><path d="M139.31,143.72a1.32,1.32,0,0,0,.89-.28,1.69,1.69,0,0,0,.24-1.12v-8a2.58,2.58,0,0,0-.31-1.61,1.81,1.81,0,0,0-1.24-.3h-.21l.61-1.65h1.28c.81,0,1.77,0,2.9-.07l2.16-.07a12.1,12.1,0,0,1,3,.31,5.9,5.9,0,0,1,2.09,1,6.21,6.21,0,0,1,1.91,2.46,8.05,8.05,0,0,1,.7,3.34,8.42,8.42,0,0,1-.48,2.76,8.58,8.58,0,0,1-1.3,2.47,6.11,6.11,0,0,1-2.34,1.89,8.36,8.36,0,0,1-3.35.57c-.42,0-1.16,0-2.23-.08s-1.93-.08-2.59-.08h-1.1l-1.25,0Zm4-1.81v.79c0,.06,0,.15,0,.25s0,.18,0,.23q.89.2,1.55.3a8.52,8.52,0,0,0,1.19.09,3.79,3.79,0,0,0,1.77-.36,3.34,3.34,0,0,0,1.24-1.21,6.78,6.78,0,0,0,.79-1.89,8.55,8.55,0,0,0,.3-2.23,5.85,5.85,0,0,0-1.26-4,4.37,4.37,0,0,0-3.47-1.44,2.14,2.14,0,0,0-1.67.55,3.62,3.62,0,0,0-.47,2.22Z" transform="translate(0 0)" fill="#003f2d"/><path d="M155.28,143.72a1.33,1.33,0,0,0,.89-.28,1.73,1.73,0,0,0,.24-1.12v-8q0-1.31-.31-1.61a1.82,1.82,0,0,0-1.24-.3h-.22l.62-1.65h1.28q1.21,0,2.89-.07l2.16-.07a12.1,12.1,0,0,1,3,.31,5.9,5.9,0,0,1,2.09,1,6.13,6.13,0,0,1,1.91,2.46,8,8,0,0,1,.7,3.34,8.48,8.48,0,0,1-.48,2.76,8.62,8.62,0,0,1-1.3,2.47,6.12,6.12,0,0,1-2.34,1.89,8.37,8.37,0,0,1-3.35.57c-.42,0-1.16,0-2.23-.08s-1.93-.08-2.59-.08h-1.1l-1.25,0Zm4-1.81v.79c0,.06,0,.15,0,.25s0,.18,0,.23c.6.13,1.11.23,1.56.3a8.43,8.43,0,0,0,1.18.09,3.77,3.77,0,0,0,1.77-.36A3.3,3.3,0,0,0,165,142a6.66,6.66,0,0,0,.8-1.89,8.58,8.58,0,0,0,.3-2.23,5.84,5.84,0,0,0-1.26-4,4.36,4.36,0,0,0-3.47-1.44,2.12,2.12,0,0,0-1.66.55,3.6,3.6,0,0,0-.48,2.22Z" transform="translate(0 0)" fill="#003f2d"/><path d="M179.57,136.32l1.33,3.56.33.91q1,2.9,2.27,2.94l-.61,1.64h-6l.61-1.64a1.8,1.8,0,0,0,1-.24.75.75,0,0,0,.31-.65,2,2,0,0,0-.05-.39,6.42,6.42,0,0,0-.19-.63l-.48-1.42H174l-.28.83a5.56,5.56,0,0,0-.17.66,3.13,3.13,0,0,0-.05.54,1.07,1.07,0,0,0,.48,1,3.51,3.51,0,0,0,1.67.32l-.61,1.64h-5.8l.61-1.64h0c.55,0,1.21-1,2-3.09l.26-.68,2.06-5.49c.23-.61.45-1.19.63-1.73s.36-1.07.51-1.59c.34-.06.7-.15,1.09-.24l1.31-.34q.51,1.66,1,3.1C179,134.62,179.28,135.5,179.57,136.32Zm-2.11,2.35L176,134.31l-1.46,4.36Z" transform="translate(0 0)" fill="#003f2d"/><path d="M196.36,143.72l-.61,1.64h-2.67l-1.25-2.49q-2.19-4.39-3.18-4.38h-.13l-.07,0v3.29a2.16,2.16,0,0,0,.37,1.51,2.85,2.85,0,0,0,1.74.41l-.59,1.64h-6l.62-1.64a1.34,1.34,0,0,0,.89-.28,1.73,1.73,0,0,0,.24-1.12v-7.86a2.81,2.81,0,0,0-.31-1.69,1.73,1.73,0,0,0-1.22-.31l.61-1.64,3.61-.07,2-.05a4.5,4.5,0,0,1,3.09,1,3.48,3.48,0,0,1,1.08,2.75,3.35,3.35,0,0,1-.83,2.4,4.07,4.07,0,0,1-2.47,1.11q1.18.15,2.77,3c.36.66.66,1.18.88,1.55a4.72,4.72,0,0,0,.82,1.07A1.06,1.06,0,0,0,196.36,143.72Zm-7.92-9.52v2.49h.27a3.71,3.71,0,0,0,2.27-.5,2.35,2.35,0,0,0,.6-1.87,2.13,2.13,0,0,0-.4-1.42,1.53,1.53,0,0,0-1.22-.46,1.67,1.67,0,0,0-1.24.33A2.36,2.36,0,0,0,188.44,134.2Z" transform="translate(0 0)" fill="#003f2d"/><path d="M197.52,143.72a1.32,1.32,0,0,0,.89-.28,1.72,1.72,0,0,0,.24-1.12v-8c0-.88-.1-1.41-.31-1.61a1.81,1.81,0,0,0-1.24-.3h-.21l.61-1.65h1.28q1.2,0,2.89-.07l2.16-.07a12.07,12.07,0,0,1,3,.31,5.91,5.91,0,0,1,2.09,1,6.23,6.23,0,0,1,1.91,2.46,8,8,0,0,1,.7,3.34,8.49,8.49,0,0,1-.48,2.76,8.67,8.67,0,0,1-1.31,2.47,6.07,6.07,0,0,1-2.34,1.89,8.36,8.36,0,0,1-3.35.57c-.42,0-1.16,0-2.23-.08s-1.93-.08-2.59-.08h-1.1l-1.25,0Zm4-1.81v.79c0,.06,0,.15,0,.25s0,.18,0,.23c.59.13,1.11.23,1.55.3a8.47,8.47,0,0,0,1.19.09,3.78,3.78,0,0,0,1.77-.36,3.31,3.31,0,0,0,1.24-1.21,6.9,6.9,0,0,0,.8-1.89,8.65,8.65,0,0,0,.3-2.23,5.85,5.85,0,0,0-1.26-4,4.37,4.37,0,0,0-3.47-1.44A2.13,2.13,0,0,0,202,133a3.6,3.6,0,0,0-.47,2.22Z" transform="translate(0 0)" fill="#003f2d"/><path d="M78.49,116.53a2.65,2.65,0,0,0,1.84,1.09A1,1,0,0,1,80,117l1.13,0c0,.52.28.66.28.66l-.47.33a1.85,1.85,0,0,0,1.37-.14c1.09-.14,2.41.9,4.16,2.46s2.88,1.18,2.88,1.18c-1-.57-3.66-3.32-4.16-3.68a2.22,2.22,0,0,0-1.28-.42l1.8-.06a3.68,3.68,0,0,0-1.66-.49,2.15,2.15,0,0,1,.9-.21,2.07,2.07,0,0,0-1.61,0L84,116c-.33-1.46-3.78-3.17-3.78-3.17s2.17,2.32,1.84,2.79C81.51,116.32,78.49,116.53,78.49,116.53Z" transform="translate(0 0)" fill="#231f20"/><path d="M97.34,123.89s1-2.76-8.32-8.25a3.64,3.64,0,0,0,.1-2.55,4.7,4.7,0,0,0-1.88-1.32A13,13,0,0,0,89.72,110a12.56,12.56,0,0,0-2.29-3.45,6.15,6.15,0,0,0,.92-1.53c-1.9-3.11-3.09-4.05-3.57-4.33a6.91,6.91,0,0,0,.25-2.3c-3.6-4.07-14.45-3.87-14.45-3.87a18.67,18.67,0,0,1,2.27,1.32c-12.46,0-18.51,4.71-18.51,4.71a21.09,21.09,0,0,1,2.55-.29c-7.14,3.26-8.83,6.41-8.89,6.46.69-.2,1.35-.36,2-.5a11.84,11.84,0,0,0-1.21.94s-6.9,5.25-8.13,14l1.35-.63a28,28,0,0,0,.31,14.22l1.6-2.42a23.12,23.12,0,0,0,3.56,8.54l1.1-2.52c1.88,6.28,10.08,10.15,10.08,10.15a7.82,7.82,0,0,1,.29-1.72,30.52,30.52,0,0,1,7.86,8.72,6.29,6.29,0,0,1-1.22,1,4.57,4.57,0,0,0,2,.22,13.33,13.33,0,0,1-1,1.36,14.47,14.47,0,0,0,6.22-1.57l-1.07,1.93a21.18,21.18,0,0,0,11.57-4.72l-.3,1.72c5.39-2.92,7.73-7,7.87-8.7a4.07,4.07,0,0,0-.67-2.51,2.85,2.85,0,0,0,.18-1.44,19.16,19.16,0,0,0-3-4.5l.13-.13s3.08-.32,3.6.68l.12-.32a2.17,2.17,0,0,1,.76,1.32l.2-.64a4.34,4.34,0,0,1,.36,1.72,7.64,7.64,0,0,0,2.76-5.39h0a5,5,0,0,0-1.1-3.69,4.92,4.92,0,0,0,.74-.86l.46,0-.21-.43c.1-.16.19-.35.28-.54l1,.21-.77-.69a6.07,6.07,0,0,0,.21-.75h.63l-.55-.48a6.43,6.43,0,0,0-.1-2.33A4.24,4.24,0,0,0,97.34,123.89ZM86.6,105.25c-1.16,2.28-4.56,4.37-5.74,5l-.73-.27a44.45,44.45,0,0,0,3.9-7.08A20.78,20.78,0,0,1,86.6,105.25ZM73.24,97.86c3.11,2.73,5.39,10.46,5.39,10.46a43.06,43.06,0,0,0-2.07-10.89,33.13,33.13,0,0,1,6.89,1.8,27.26,27.26,0,0,1-4.64,10.37c-1-1.19-6.9-10.67-18-9.61C65.73,98,73.24,97.86,73.24,97.86Zm-3.87,6.09h0v0Zm-10.8-2.35.22,0,.39-.07.29,0,.23,0a17.38,17.38,0,0,1,2.8-.16c4.32.15,6.4,2.23,6.84,2.73a6,6,0,0,1-3.42.36,26.18,26.18,0,0,0-11.24-.1A27.74,27.74,0,0,1,58.57,101.59Zm-8.28,6.94c3.67-2.46,8.73-4.37,14.61-1.06l-.63.15s-10.48-2-17.37,5.4c-.22.21-.52.51-.87.88A13.9,13.9,0,0,1,50.29,108.53Zm-3.82,6.14c2.54-2.7,7.13-5.77,14.62-5,0,0-12.21,2.3-17,16.21C43.95,123.52,43.81,117.89,46.47,114.67Zm9,20.25a23.81,23.81,0,0,0,1,6.51c-9-7.86-5.15-19.3-5.15-19.3-3.48,4.42-4,10.4-4.13,11.88-.58-4.66-.7-15.92,10.76-19.89l-.08.19c-1.28,1.51-6.19,8-4.73,16.67,0,0,.34-6.43,2.92-10.48C54.94,126,54.62,134,59.34,141A32.77,32.77,0,0,1,55.43,134.93Zm17,17.54c1.57-4.34-.79-9.82-6.72-14.25s-6.65-9-6.65-9c.21,4.65,1.14,5.58,6.72,12.08,4,4.66,3.48,9,2.86,11.12-.67-5-4.21-5.75-6.13-8.52-1.79-2.38-9.27-13.37-4.06-24.58,0,0-.43,7.66,5.11,12.09C78.38,143.18,76,147.57,72.44,152.46Zm5.57-.59c-.41.32-.78.59-1.1.82.81-1.46,2.1-4.88.37-10.06a21,21,0,0,0-6-6.64c-4.08-2.91-3-6.64-3-6.64a4.59,4.59,0,0,0-1,2.21,10,10,0,0,1-.28-4.43s-1.8,1.38-1.8,2.49a8.58,8.58,0,0,1,.48-8s-3,.07-4.15,1.87c0,0,.22-4,3.77-5.37A7.13,7.13,0,0,0,63,118s1.33-2.28,6-2.25l-.57-.17s-5.67-1.11-5.88-4c0,0,.5-2.53,5.16-4.56a5.22,5.22,0,0,1,4.34.27c2.68,1.65,4,3.3,1.49,3.42l-.18-.17s-2.26-2-3.27-1.78-4.05,1.08-5.31,3.46l1.4-.58-.67.93,1.15-.58-.36.75.66-.45s3.13,1.57,3.48,2.87-2,4.61-2.26,6.7a7.6,7.6,0,0,1,1.39-1.35,10.14,10.14,0,0,0-.61,6.14,12.27,12.27,0,0,1,3-6.4l-.78-.3s2.09-2.61.74-5.14c0,0,.13-.74,1.18-.3a4.68,4.68,0,0,0,2.57,0s-1.26-.61-1-1.52a.74.74,0,0,0,0-.24,1.81,1.81,0,0,0,1.31.05c.59-.32.44-1.87,1.64-1.9s5.94.32,7.52,3.16a1.31,1.31,0,0,1-.18.85,2,2,0,0,0,.82-1.23,12.29,12.29,0,0,0-3.89-2.93l-.06,0a16.16,16.16,0,0,0,4.61-3.06,5.4,5.4,0,0,1,1.34,1.86,4.78,4.78,0,0,1-1.61,1.79c-1.32-.58-2.58-1-2.58-1s3.76,2.9,4,3.42a5.88,5.88,0,0,1-.31,2.21s8.11,4.73,9.29,7.18a1.13,1.13,0,0,1,0,.54,17.27,17.27,0,0,0-4.07.52,9.85,9.85,0,0,1-2.29-.76s0,1.84,1.18,2.5c0,0-.38-.71,0-1s2.19,1.2,2.54,2.38c.1.65,0,2.09-2.26,3.57-3,2-4.6,1.8-4.6,1.8l-.12-.84a4.06,4.06,0,0,1-1.84.92,23.11,23.11,0,0,1,1.48-2.2A17.25,17.25,0,0,1,83.79,132a11.75,11.75,0,0,1,1.52-2.36,8.31,8.31,0,0,1-3.6,1.24A9.72,9.72,0,0,1,84,129a3.42,3.42,0,0,1,1.76-2.56l-1.08.08.16-.48-.76.24v-.44l-1,.28-.12-.44-.6.2a3.45,3.45,0,0,1-3.12-2.08.94.94,0,0,0,0,.8,3.49,3.49,0,0,1-2-.92,8,8,0,0,0,.72,2.76,5.33,5.33,0,0,1,.56,2.48,3.89,3.89,0,0,1-3.48-2.76c-.64-2.6-1-2.64-1-2.64s-1.48,4.68.84,6.89,5.44,4.32,5.2,8a26.56,26.56,0,0,0-5.12-4.56c-2.88-1.88-3.56-8.33-1.76-13.21,0,0-3.07,1.93-2.91,9.18,0,0-.1,2.94,1.49,4.56,0,0,.84,1.14,4.91,3.63,4.82,3,7.33,5,6.45,8.09a6.62,6.62,0,0,1-1.37,2.26,6.06,6.06,0,0,0-2-5.91C82.68,146.55,79.78,150.21,78,151.87Zm11.16-4.16A15.47,15.47,0,0,1,85,152.19a22.89,22.89,0,0,0,4.08-6.85A4.91,4.91,0,0,1,89.17,147.72Zm-.93-4c-3.15,6.79-6.51,8.46-7.37,8.79,1.21-1.66,5.91-8.35,5.42-12.08A3.2,3.2,0,0,1,88.23,143.72Zm4.76-6-.16-1-.4.56-.56-.92-.32.32a14.53,14.53,0,0,0-5-.48s-1.08-2.08,6-4.6l.28.39-1.17.48s2.43,0,2.46,2.23A5,5,0,0,1,93,137.76Zm.65-6.4a3.68,3.68,0,0,1-.49-.5c.67-1,1.65-2.69,1.26-3.82a11.32,11.32,0,0,0,1-.66A6,6,0,0,1,93.65,131.36Z" transform="translate(0 0)" fill="#231f20"/></svg>