<svg id="Layer_1" data-name="Layer 1" xmlns="http://www.w3.org/2000/svg" viewBox="0 0 253 253"><title>mycashguy</title><rect width="253" height="253" fill="#fff"/><path d="M34.63,131.75h.43l13.21,14.51,13-14.51h.47v27.09H56.44V148.79c0-1.81.2-4.69.2-4.69a47.45,47.45,0,0,1-2.88,3.79l-5.32,6h-.51l-5.32-6a47.47,47.47,0,0,1-2.88-3.79s.2,2.88.2,4.69v10.05H34.63Z" transform="translate(0 0)" fill="#004a72"/><path d="M68.81,157.26,62.15,142H68l2.41,6.47a40.21,40.21,0,0,1,1.18,4.34,28.5,28.5,0,0,1,1.14-4.34l2.6-6.47h5.4l-11,25.16H64.43Z" transform="translate(0 0)" fill="#004a72"/><path d="M80.63,145.44a13.5,13.5,0,0,1,13.8-13.72c4.85,0,8.32,1.73,10.73,5.48l-4.22,3a7.31,7.31,0,0,0-6.51-3.51c-4.85,0-8.12,3.75-8.12,8.75s3.27,8.83,8.12,8.83a7.64,7.64,0,0,0,6.9-3.94l4.3,3a12.62,12.62,0,0,1-11.2,5.92A13.54,13.54,0,0,1,80.63,145.44Z" transform="translate(0 0)" fill="#68bd45"/><path d="M113.75,146.07a5.25,5.25,0,0,0-3.82,1.54l-3-3.15c1.58-1.54,3.35-2.76,7.29-2.76,4.3,0,7.57,2.33,7.57,7.61v9.54h-5.28l.12-2.33a5.31,5.31,0,0,1-5,2.68c-3.08,0-5.91-1.38-5.91-5.28,0-3.59,2.72-5,6.86-5h3.9C116.47,146.93,115.52,146.07,113.75,146.07Zm-.83,6c-1.34,0-1.93.59-1.93,1.54s.79,1.5,2.29,1.5c2.17,0,3.27-.95,3.27-2.37V152Z" transform="translate(0 0)" fill="#68bd45"/><path d="M122.3,156l3.11-2.76a6,6,0,0,0,4.18,1.77c1.73,0,2.29-.31,2.29-1,0-.91-1.07-.91-3.79-1.62-2.29-.59-4.85-1.85-4.85-5.36,0-3.79,2.92-5.32,6.51-5.32a8.13,8.13,0,0,1,6.11,2.33l-2.84,3a5.19,5.19,0,0,0-3.23-1.26c-1.22,0-1.81.32-1.81,1,0,.95,1.06,1.06,3.35,1.58,2.44.55,5.52,1.7,5.52,5.25,0,3.08-1.62,5.6-6.9,5.6C126,159.2,123.76,157.74,122.3,156Z" transform="translate(0 0)" fill="#68bd45"/><path d="M137.75,130.37h5.32v14.31a5.61,5.61,0,0,1,5.21-3c3.67,0,6.31,2.68,6.31,7.45v9.7h-5.32V149.5c0-1.89-.91-3-2.8-3a3.05,3.05,0,0,0-3.39,3.31v9h-5.32Z" transform="translate(0 0)" fill="#68bd45"/><path d="M156.08,145.44c0-7.92,5.6-13.72,13.68-13.72,4.38,0,7.53,1.18,9.74,3.71l-3.75,3.71a7.43,7.43,0,0,0-6-2.44c-4.85,0-8,3.75-8,8.75s3.23,8.83,8.87,8.83a13.21,13.21,0,0,0,5.25-1v-3.94h-6.47v-4.85h11.51v11.59a17.44,17.44,0,0,1-10.29,3.12C161.88,159.2,156.08,153.36,156.08,145.44Z" transform="translate(0 0)" fill="#1d788a"/><path d="M182.93,151.74V142h5.32v9.35c0,1.89.91,3,2.8,3a3,3,0,0,0,3.31-3.35v-9h5.32v16.8h-5.32l.12-2.76a5.69,5.69,0,0,1-5.28,3.12C185.53,159.2,182.93,156.52,182.93,151.74Z" transform="translate(0 0)" fill="#1d788a"/><path d="M206.42,157.26,199.76,142h5.87l2.41,6.47a40.23,40.23,0,0,1,1.18,4.34,28.5,28.5,0,0,1,1.14-4.34L213,142h5.4l-11,25.16H202Z" transform="translate(0 0)" fill="#1d788a"/><path d="M117.38,194.43l1.05-.56a3.23,3.23,0,0,0,3.06,1.86c1.38,0,2.47-.77,2.47-2s-.75-1.82-2.24-2.49l-.95-.44c-1.7-.77-2.63-1.59-2.63-3.26a2.89,2.89,0,0,1,3.14-2.85,3.51,3.51,0,0,1,3.22,1.79l-1,.63a2.42,2.42,0,0,0-2.21-1.3,1.69,1.69,0,0,0-1.89,1.7c0,1.05.56,1.52,1.89,2.14l.95.44c2,.87,3,1.85,3,3.64,0,2-1.56,3.15-3.7,3.15A4.32,4.32,0,0,1,117.38,194.43Z" transform="translate(0 0)" fill="#004a72"/><path d="M127.16,186.49a.88.88,0,0,1,1.75,0,.88.88,0,0,1-1.75,0Zm.26,3h1.23v7.25h-1.23Z" transform="translate(0 0)" fill="#004a72"/><path d="M131.28,189.45h1.23l0,1.49a2.78,2.78,0,0,1,2.61-1.65c1.61,0,2.71,1.1,2.71,3v4.41h-1.23v-4.27c0-1.28-.6-2-1.81-2a2.13,2.13,0,0,0-2.26,2.29v4h-1.23Z" transform="translate(0 0)" fill="#004a72"/><path d="M139.86,193.08a3.72,3.72,0,0,1,3.76-3.78,3.48,3.48,0,0,1,2.86,1.3l-.88.72a2.33,2.33,0,0,0-2-.93,2.7,2.7,0,0,0,0,5.39,2.55,2.55,0,0,0,2.09-.95l.84.72a3.52,3.52,0,0,1-2.93,1.3A3.7,3.7,0,0,1,139.86,193.08Z" transform="translate(0 0)" fill="#004a72"/><path d="M151.88,195.81a3,3,0,0,0,2.29-1l.75.74a3.84,3.84,0,0,1-3,1.26,3.78,3.78,0,1,1-.18-7.55c2.33,0,3.73,1.79,3.64,4.19h-6.16A2.5,2.5,0,0,0,151.88,195.81Zm2.24-3.26a2.27,2.27,0,0,0-2.42-2.22,2.43,2.43,0,0,0-2.5,2.22Z" transform="translate(0 0)" fill="#004a72"/><path d="M160.81,196.55l3.55-3.24c1.17-1.07,1.86-1.84,1.86-2.82a1.54,1.54,0,0,0-1.72-1.63,2.25,2.25,0,0,0-2.19,1.79l-1.12-.31a3.3,3.3,0,0,1,3.29-2.59,2.67,2.67,0,0,1,3,2.7c0,1.21-.88,2.28-2.14,3.43L164,195.08a5.16,5.16,0,0,1-.91.61s.65-.05,1-.05h3.62v1.07h-6.9Z" transform="translate(0 0)" fill="#004a72"/><path d="M169.28,192.29a4.63,4.63,0,1,1,4.62,4.55A4.55,4.55,0,0,1,169.28,192.29Zm8,0a3.35,3.35,0,1,0-3.36,3.45A3.31,3.31,0,0,0,177.26,192.29Z" transform="translate(0 0)" fill="#004a72"/><path d="M180,192.29a4.63,4.63,0,1,1,4.62,4.55A4.55,4.55,0,0,1,180,192.29Zm8,0a3.35,3.35,0,1,0-3.36,3.45A3.31,3.31,0,0,0,188,192.29Z" transform="translate(0 0)" fill="#004a72"/><path d="M190,196.23l1.09-.51a2.78,2.78,0,0,0,2.7,1.68,2.38,2.38,0,0,0,2.49-2.52,2.3,2.3,0,0,0-2.59-2.43,3,3,0,0,0-1.42.32l-.12-.18,2.61-3.15a7.42,7.42,0,0,1,.54-.58,6.5,6.5,0,0,1-.84.07h-3.54v-1.05h6.37V188l-2.52,3a3.31,3.31,0,0,1-.52.47,3.28,3.28,0,0,1,3.33,3.4,3.55,3.55,0,0,1-3.78,3.61A4,4,0,0,1,190,196.23Z" transform="translate(0 0)" fill="#004a72"/><path d="M154.85,172.51a1.85,1.85,0,1,1,1.86,1.86A1.83,1.83,0,0,1,154.85,172.51Z" transform="translate(0 0)" fill="#004a72"/><path d="M160,169.56a4.82,4.82,0,0,1,5.1-4.84,4.55,4.55,0,0,1,3.92,1.86l-2.1,1.71a2.2,2.2,0,0,0-1.82-1,2,2,0,0,0-2.08,2.26,2.06,2.06,0,0,0,2.08,2.32A2.45,2.45,0,0,0,167,171l2,1.75a4.73,4.73,0,0,1-3.87,1.69A4.83,4.83,0,0,1,160,169.56Z" transform="translate(0 0)" fill="#004a72"/><path d="M170.27,169.61a5.14,5.14,0,1,1,5.14,4.84A4.9,4.9,0,0,1,170.27,169.61Zm7.24,0a2.12,2.12,0,1,0-4.22,0,2.12,2.12,0,1,0,4.22,0Z" transform="translate(0 0)" fill="#004a72"/><path d="M182.53,164.92h3l-.07,1.44a2.9,2.9,0,0,1,2.65-1.64,2.73,2.73,0,0,1,2.63,1.6,3.92,3.92,0,0,1,3.17-1.6c2.34,0,3.7,1.55,3.7,4.11v5.41h-2.93V169.1c0-1.1-.35-1.69-1.47-1.69s-1.64.57-1.64,1.84v5h-2.93V169.1c0-1.1-.33-1.69-1.44-1.69s-1.66.57-1.66,1.84v5h-3Z" transform="translate(0 0)" fill="#004a72"/><path d="M77.41,126.84c0-.19.17-.33.34-.42a2.89,2.89,0,0,1,1.67-.59.67.67,0,0,1,0,.42,2.38,2.38,0,0,1-1.49.93C77.72,127.19,77.42,127.08,77.41,126.84Z" transform="translate(0 0)" fill="#cf9f7a"/><path d="M168.2,66.5,145.21,81l-6-26.52-6,26.52-3.63-2.29.11.41a1.89,1.89,0,0,1-.06,1.14l1.21,1.39a1.89,1.89,0,0,1-.37,2.81l-.75.5.07.63a1.88,1.88,0,0,1,1.2,1.46l.29,1.81s0,0,0,0a9,9,0,0,1,3.8,1.5,1.87,1.87,0,0,1,.37.34l.45-.08,22.14-8.12Z" transform="translate(0 0)" fill="#c1dbe0"/><path d="M117.59,71.13l-7.35-4.64,3.55,5.62A7.91,7.91,0,0,1,117.59,71.13Z" transform="translate(0 0)" fill="#c1dbe0"/><path d="M180.2,95.47l-17.38-3.93L144,102.61A119.27,119.27,0,0,0,160.95,113l-7.27-11.51Z" transform="translate(0 0)" fill="#c1dbe0"/><path d="M163.68,121.6l4.52,2.85-2-3.23Z" transform="translate(0 0)" fill="#c1dbe0"/><polygon points="81.66 119.83 83.75 125.25 90.39 123.55 87.25 117.08 81.66 119.83" fill="#68bd45"/><polygon points="155.42 85.72 136.41 92.5 101.92 98.51 101.88 98.41 96.1 112.72 87.25 117.08 90.39 123.55 100.9 120.86 104.55 115.06 106.71 128.38 131.33 128.02 134.57 105.97 157.88 91.67 155.42 85.72" fill="#004a72"/><polygon points="161.71 83.47 155.42 85.72 157.88 91.67 163.73 88.08 161.71 83.47" fill="#68bd45"/><polygon points="126.8 75.56 121.59 77.91 120.35 82.94 119.21 83.18 118.31 81.52 115.31 81.52 115.65 83.89 116.74 84.94 111.34 91.21 111.01 97.02 116.85 100.06 123.47 94.72 122.83 90.74 128.34 89.45 126.8 75.56" fill="#cf9f7a"/><path d="M164.39,84.26,163.73,82,166,78l3.94-.79a4.93,4.93,0,0,1-2,2.37s.58,5.06-2.63,7Z" transform="translate(0 0)" fill="#cf9f7a"/><path d="M173.08,79.35a.74.74,0,0,0,.09-.36c0-.45-.67-.51-1.11-.42a5.3,5.3,0,0,0-2.06.81,2.46,2.46,0,0,0-1.08,1.86A3.6,3.6,0,0,0,173.08,79.35Z" transform="translate(0 0)" fill="#cf9f7a"/><path d="M171.08,81.86a2.35,2.35,0,0,1,1,.16.8.8,0,0,1,.49.79c-.06.4-.5.62-.89.73a5.76,5.76,0,0,1-3,0,1.14,1.14,0,0,1,.48-1.59,2.2,2.2,0,0,1,.94-.12Z" transform="translate(0 0)" fill="#cf9f7a"/><path d="M170.44,84.46a1.06,1.06,0,0,1,.85.23,1,1,0,0,1,.17.33.87.87,0,0,1,.06.34.63.63,0,0,1-.33.47,1.57,1.57,0,0,1-.57.17,6.79,6.79,0,0,1-1,.07,1.5,1.5,0,0,1-1.12-.35.85.85,0,0,1-.1-1,.41.41,0,0,1,.15-.16.55.55,0,0,1,.24,0Z" transform="translate(0 0)" fill="#cf9f7a"/><path d="M167.09,86.3c.12-.17.38-.15.59-.1l.45.1c.34.07.73.21.81.54s-.07.46-.06.69a3.11,3.11,0,0,1-1.53-.59C167.14,86.8,166.94,86.52,167.09,86.3Z" transform="translate(0 0)" fill="#cf9f7a"/><path d="M168.84,71.42a3.3,3.3,0,0,1,3.07.81,2.86,2.86,0,0,1,.74.77,2.57,2.57,0,0,1,.3,1,5.16,5.16,0,0,1-.3,2.44,2.91,2.91,0,0,1-.86,1.28,1.57,1.57,0,0,1-1.46.3,14.18,14.18,0,0,0,.19-1.48l-2.11.32a.42.42,0,0,1-.27,0,.38.38,0,0,1-.14-.21,3.76,3.76,0,0,1,.38-2.6A4.21,4.21,0,0,0,168.84,71.42Z" transform="translate(0 0)" fill="#68bd45"/><path d="M172.5,77.95a.29.29,0,0,1-.17-.15,3.89,3.89,0,0,0,1-3.7,6.69,6.69,0,0,0,2.18-.18A5.33,5.33,0,0,1,174,77.87a1.19,1.19,0,0,1-.36.27A1.36,1.36,0,0,1,172.5,77.95Z" transform="translate(0 0)" fill="#68bd45"/><path d="M167.48,75.62a3.07,3.07,0,0,1,.09-1.58c.16-.38.49-.73.42-1.14a3,3,0,0,0-1.17-.29,2,2,0,0,1,.23,1c0,.37-.16.74-.15,1.11A.83.83,0,0,0,167.48,75.62Z" transform="translate(0 0)" fill="#68bd45"/><polyline points="127.06 80.19 129.43 82.91 127.06 84.51" fill="#cf9f7a"/><polyline points="128.07 87.02 129.15 87.36 129.43 89.17 128.34 89.45" fill="#cf9f7a"/><polygon points="126.8 75.56 127.35 80.52 127.88 79.62 126.8 75.56" fill="#cf9f7a"/><path d="M129.43,71.77s.22,1.28-1.36,1.57c0,0,.72-2.85-1.27-3.07,0,0,1,2-1,2.64s-9.2-.79-11.27,1-4.93,2.91-3.57,9a37.83,37.83,0,0,1,.43,6.54l-.1,1.76,5.4-6.27-1.09-1-.33-2.38h3l.9,1.66,1.14-.24,1.24-5,5.21-2.35S130.31,74.48,129.43,71.77Z" transform="translate(0 0)" fill="#141414"/><polygon points="107.8 105.29 128.25 102.15 116.17 116.13 107.8 105.29" fill="#fff"/><polygon points="118.81 106.51 114.53 106.98 114.61 106.01 118.89 105.55 118.81 106.51" fill="#68bd45"/><polygon points="114.35 109.34 114.61 106.01 115.65 105.9 115.39 109.23 114.35 109.34" fill="#68bd45"/><polygon points="117.41 111.23 117.66 108.02 118.7 107.91 118.45 111.11 117.41 111.23" fill="#68bd45"/><polygon points="118.63 108.88 114.35 109.34 114.42 108.38 118.7 107.91 118.63 108.88" fill="#68bd45"/><polygon points="118.45 111.11 114.17 111.58 114.25 110.61 118.53 110.15 118.45 111.11" fill="#68bd45"/><polygon points="116.67 104.67 116.35 104.7 116.28 105.51 116.6 105.47 116.67 104.67" fill="#68bd45"/><polygon points="117.32 104.6 117 104.63 116.94 105.44 117.26 105.4 117.32 104.6" fill="#68bd45"/><polygon points="116.48 107.06 116.16 107.09 116.1 107.9 116.42 107.86 116.48 107.06" fill="#68bd45"/><polygon points="117.13 106.99 116.81 107.02 116.75 107.83 117.07 107.79 117.13 106.99" fill="#68bd45"/><polygon points="116.3 109.36 115.98 109.39 115.92 110.2 116.24 110.17 116.3 109.36" fill="#68bd45"/><polygon points="116.95 109.29 116.63 109.32 116.57 110.13 116.89 110.09 116.95 109.29" fill="#68bd45"/><polygon points="116.13 111.55 115.81 111.58 115.75 112.39 116.07 112.35 116.13 111.55" fill="#68bd45"/><polygon points="116.78 111.48 116.46 111.51 116.4 112.32 116.72 112.28 116.78 111.48" fill="#68bd45"/><path d="M103.67,97s3.27-3.79,5.87-4v2.72Z" transform="translate(0 0)" fill="#68bd45"/><path d="M124.9,93.64S128.67,88.36,134,92Z" transform="translate(0 0)" fill="#68bd45"/><path d="M142.41,103.77s13,10.08,27.2,14.93c0,0-16,3.14-21.21,1.43,0,0,6.18,5,9.6,6.85,0,0-14.28,1.43-21.45-3.42l2.05,4.09s-3.23.67-5.13-1l2.59-19.53Z" transform="translate(0 0)" fill="#68bd45"/><polyline points="163.73 82.03 161.71 83.47 163.73 88.08 165.31 86.5" fill="#cf9f7a"/><path d="M165.78,86.17s-.22,1,.6,1.11l-2.65.8.37-2.58" transform="translate(0 0)" fill="#cf9f7a"/><path d="M81.66,119.84l-2.38.67a5,5,0,0,0-3.8-.67l-2.35,1,1.17,2.36s1.57-.62,1.33-2c0,0,.24,1.38,2.71,1.19l2.47,3.4,2.95-.55Z" transform="translate(0 0)" fill="#cf9f7a"/><path d="M73.73,124.82a.59.59,0,0,0,.54.43,1.72,1.72,0,0,0,.72-.14l1.65-.58a2,2,0,0,0,.72-.37.69.69,0,0,0,.22-.73,1.66,1.66,0,0,0-1.17-.28,3.62,3.62,0,0,0-1.17.37,9.05,9.05,0,0,0-1,.57C74,124.25,73.68,124.51,73.73,124.82Z" transform="translate(0 0)" fill="#cf9f7a"/><path d="M72.64,122.33a.28.28,0,0,1,.23-.07.33.33,0,0,1,.15.12l.48.58a.72.72,0,0,1,.23.52,2,2,0,0,1-.65.2.72.72,0,0,1-.57-.12.58.58,0,0,1-.15-.23A.89.89,0,0,1,72.64,122.33Z" transform="translate(0 0)" fill="#cf9f7a"/><path d="M78.6,125.32a.36.36,0,0,1-.1.11,4.4,4.4,0,0,1-2.37,1.07,1.1,1.1,0,0,1-.69-.12.48.48,0,0,1-.19-.62.77.77,0,0,1,.46-.27,5.85,5.85,0,0,1,2.52-.56.58.58,0,0,1,.3.11A.24.24,0,0,1,78.6,125.32Z" transform="translate(0 0)" fill="#cf9f7a"/><polygon points="137.4 93.53 148.88 89.68 137.65 96.35 137.4 93.53" fill="#1d788a"/><polygon points="101.88 103.39 97.82 112.8 101.88 107.41 101.88 103.39" fill="#1d788a"/><polygon points="106.6 103.77 115.75 102.53 109.53 98.92 111.99 101.34 106.6 103.77" fill="#1d788a"/><polygon points="126.8 101.34 118.53 102.15 124.16 96.98 122.06 100.72 126.8 101.34" fill="#1d788a"/><polygon points="130.53 122.26 122.66 115.76 129.57 118.31 126.06 113.66 130.53 114.7 127.34 110.2 132.05 111.48 130.53 122.26" fill="#1d788a"/><path d="M114.1,76.11a5.43,5.43,0,0,1,2.79-2,3.14,3.14,0,0,0-.87,1.29,5.7,5.7,0,0,1,2.69-1.31,2.76,2.76,0,0,0-.85,1,11.52,11.52,0,0,1,4.52-.92,7.12,7.12,0,0,0-4.15,2.44,1.41,1.41,0,0,1,.38-1,9.23,9.23,0,0,0-2,1.25,1.65,1.65,0,0,1,.43-1.25,10.54,10.54,0,0,0-2.43,1.93,5,5,0,0,1,.85-1.73,4.75,4.75,0,0,0-1.73,1.08C114.09,76.35,113.77,76.56,114.1,76.11Z" transform="translate(0 0)" fill="#ae762a"/><path d="M142.28,107.41s9.38,6.68,16.24,8.82C158.52,116.23,146.92,115.31,142.28,107.41Z" transform="translate(0 0)" fill="#b5d334"/><path d="M138.45,112.8s5.14,7.65,8.77,10C147.22,122.84,140.36,121.56,138.45,112.8Z" transform="translate(0 0)" fill="#b5d334"/><path d="M115.15,132.05a2.87,2.87,0,0,1,1.54-2.52H106.6v5h10.1A2.87,2.87,0,0,1,115.15,132.05Z" transform="translate(0 0)" fill="#68bd45"/><path d="M119.41,129.53a2.83,2.83,0,0,1,0,5h11.78v-5Z" transform="translate(0 0)" fill="#68bd45"/><polygon points="83.28 120.56 86.45 119.12 87.25 120.56 83.28 120.56" fill="#b5d334"/><polygon points="156.98 86.79 160.59 85.26 157.88 88.24 156.98 86.79" fill="#b5d334"/></svg>