<svg xmlns="http://www.w3.org/2000/svg" viewBox="0 0 253 253"><title>screaming</title><rect width="253" height="253" fill="#fff"/><path d="M39.17,107.35C38.54,98.3,40.25,85,51.68,72.5l-.21,0,2.17-2.66-.39.67.69-1,1.81-2.22.42-.51-3,.07,3.63-4.13c.5-.57,1-1.09,1.46-1.57l-.71.56,1.17-1c.54-.52,1-1,1.54-1.37l-7.87-8c9.76,2.51,24.82,1.81,24.92,1.8h.16c9.9-.44,15.28,2.82,16.06,3.33,3.69,2.24,3.61,4.57,3.27,5.71l-.1.77a15.15,15.15,0,0,1,4.7,5c.78,1.12,2.54,4.51-.34,9.46l.49-.3c.67-.39,1.38-.75,2.1-1.1l4.53-3.14a23.85,23.85,0,0,1,10.39-4.18,18,18,0,0,1,2.88-.13l33.35-2.27-1.43,2.37,60.58-11.54-6.09,5.68c-.34.32-5.73,5.25-15.62,9.55l7.72-1-4.27,4.78a35.7,35.7,0,0,1-9.08,6.62h0l-5.45,5.55c-.22.23-4,3.94-13.35,8l-4.14,4.34a40.7,40.7,0,0,1-12.23,8l-.42.19a33,33,0,0,1-1.1,6.12,33.72,33.72,0,0,1-1.42,4l-.31.73L203,140.23l-8.83,1.48-.64.09h0a71.39,71.39,0,0,1-19.08-.66l7.8,3.47-6.7,1.72a21,21,0,0,1-2.44.42h0a48.9,48.9,0,0,1-9.69.13l-8,1.74s-.32.07-1,.15c-2.11.26-8.11.67-18.08-1.2q-5.16-1-10.68-2.53l-4.46,1.1a16.29,16.29,0,0,1-1.74.3h0c-3.09.38-11.2.77-23.1-3l-11.73,1.85-1,.14A42.79,42.79,0,0,1,66.66,144a36.07,36.07,0,0,1-23-19.24A47.76,47.76,0,0,1,39.17,107.35Z" transform="translate(0 0)" fill="#333472"/><path d="M148.48,78.45a34.56,34.56,0,0,1-5.7,5.32A32,32,0,0,0,138,79.49C144.11,79.06,148.48,78.45,148.48,78.45Z" transform="translate(0 0)" fill="#b51218"/><path d="M163.18,76.21l-20.4.93a67.94,67.94,0,0,0,10.88-6.05L206.9,61S191.17,75.57,163.18,76.21Z" transform="translate(0 0)" fill="#b51218"/><path d="M155.32,88.23l-8.55.93a32,32,0,0,0-2.24-3.31,61.9,61.9,0,0,0,7.72-6.19l42.31-5.21S183.21,87.09,155.32,88.23Z" transform="translate(0 0)" fill="#b51218"/><path d="M180.13,86.48s-7.56,7.66-29.55,12.83A31.72,31.72,0,0,0,148,91.58C158.39,90.11,171.76,88.12,180.13,86.48Z" transform="translate(0 0)" fill="#b51218"/><path d="M162.61,98.75a38.53,38.53,0,0,1-11.47,7.42,32.07,32.07,0,0,0-.22-4.65C155.69,100.53,160,99.53,162.61,98.75Z" transform="translate(0 0)" fill="#b51218"/><path d="M133,76.55a31.77,31.77,0,0,0-22.79-1.8c2.49-1.72,6.87-4.09,11.94-3.87l28.86-2S147.34,75,133,76.55Z" transform="translate(0 0)" fill="#b51218"/><path d="M87.52,86.76a32.93,32.93,0,0,0,7.82-2.46,32.22,32.22,0,0,0-2.71,3.58,30.26,30.26,0,0,1-3.37.58A11.23,11.23,0,0,1,87.52,86.76Z" transform="translate(0 0)" fill="#b51218"/><path d="M98,78.38a4.57,4.57,0,0,0-.82-2.9S92.69,71.65,90,71.29c0,0-5.2-1-6,.4a3.09,3.09,0,0,1,1,.68l2.12,1.24a29.86,29.86,0,0,1,5.92,1.44s1,.31.49-1l.88.58a2.87,2.87,0,0,1,.24,1.25l-.25.62A14.66,14.66,0,0,0,86,75.09a28.23,28.23,0,0,1-4.78-2.74s-1.93-2.15,2.34-4.07c0,0,2-1.41,7.71-2.12,0,0,3.3-.41,4.07-1.66,0,0,3.64,2.32,4.62,4.62C100,69.12,103.07,72.43,98,78.38Z" transform="translate(0 0)" fill="#c0c131"/><path d="M94.92,63.31,94,63.6c-.22-3.18-2.62-3.66-2.62-3.66a5.27,5.27,0,0,1,1.67,3.69l-.63,1.21c-.57.33-2.94,0-2.94,0l-5.54-2.77C71.49,58.4,70,71.86,70,71.86,69,82.95,78.77,89.41,86.3,92.71c1.13.5,2.22.92,3.21,1.28l.79.28.71.24c2.22.73,3.69,1.06,3.69,1.06l-4-.18-.78,0-.85,0-3.82-.18L80,94.89c-9.51-3.32-13.49-12.27-13.49-12.27a15,15,0,0,1-.36-11.22c-7.26,7.83,3.28,21.43,3.28,21.43-8.29-3.21-8.94-8.5-8.94-8.5l-1.14-7.74-.9,6.7L54.83,87.2c.87-11.11,4.33-16,4.33-16a16.31,16.31,0,0,1,3.26-3.3l-4.14.85c3.21-3.92,4.75-4.51,5.26-4.58l-4.25.1c4.56-5.16,7.51-5.46,7.51-5.46l-2.64.33-5.05-5.09C65.88,57,78.27,55.6,78.27,55.6c9.82-.44,14.66,2.94,14.66,2.94,3,1.79,2.2,3.1,2.2,3.1Z" transform="translate(0 0)" fill="#f5f6f6"/><path d="M84.09,82.08s-5.89-.65-8.44-2.33c0,0,2.62,5.74,5.23,7.93l.72.95C69.79,81.35,71.35,72.32,71.35,72.32a12.58,12.58,0,0,1,4.41-8.43,6.73,6.73,0,0,1,5.51-1.09c1.44,4.15,6,2.4,6,2.4l1.29.38-3.66,1.24s-5.66,1.83-4.76,4.93a8.79,8.79,0,0,0,2.72,4.43,13,13,0,0,1-5.14-1.61S79.41,80,84.09,82.08Z" transform="translate(0 0)" fill="#e5e5e1"/><path d="M114.76,122.71l-1.31-.17a54.17,54.17,0,0,1-20.18-7.66l-1-.64c-.91-.58-1.77-1.15-2.58-1.72l-.9-.64-.73-.53a62.32,62.32,0,0,1-7.25-6.21l-.1-.1.11.07c2.44,1.5,4.73,2.8,6.87,4l.68.36.81.42q1.93,1,3.7,1.83l1.21.56c14.05,6.33,20,4.6,20,4.6a108.74,108.74,0,0,1-11.63-9.87c4.3,2.85,8.94,5.48,13.16,7.71l1.25.65c7.3,3.79,13.05,6.24,13.05,6.24A39,39,0,0,1,114.76,122.71Z" transform="translate(0 0)" fill="#b51218"/><path d="M96.38,125.45l-1-.06-.79-.06c-7.23-.73-13.7-4.1-19.09-8.22A73.93,73.93,0,0,1,58.87,98.74,68.2,68.2,0,0,0,76.61,114.5c7.54,4.51,12.82,5.15,12.82,5.15-5.83-4.12-6.56-8.19-6.56-8.19,2.36,1.8,4.51,3.35,6.48,4.69l.82.55,1.1.72.53.34.93.59c8.53,5.35,12.55,6,12.55,6A28.76,28.76,0,0,1,96.38,125.45Z" transform="translate(0 0)" fill="#b51218"/><path d="M63.87,114.87c-4.66-5.41-4.39-9.54-4.39-9.54C65.92,113.4,70.8,118,73.94,120.48a21.86,21.86,0,0,0,4.16,2.8,41.35,41.35,0,0,1-5.29-.27c-27.35-3.23-20.31-34.26-20.31-34.26C52.83,110.5,63.87,114.87,63.87,114.87Z" transform="translate(0 0)" fill="#b51218"/><path d="M145,127.75l-2.06-1.09-1.24-.65-.69-.36-2.48-1.31-1.37-.72-12-6.33a79.87,79.87,0,0,0,12.41.88l1.1,0,.39.15,5.69,2.12.72.27,1.4.52,5.52,2.06,42,15.66s-20.87,3.44-46.26-9.48C147.1,128.9,146,128.34,145,127.75Z" transform="translate(0 0)" fill="#b51218"/><path d="M132.45,134.31l-1.24-.64-.06,0-.84-.39-16.38-7.5-1.19-.54-2.92-1.34a18.77,18.77,0,0,0,3,.93c.39.09.81.18,1.27.26,3.76.68,9.85,1.07,18.69-.4l3.71,1.64,1.37.6,1.33.59.75.33,1.29.57L147.1,131l28.49,12.6s-13,3.32-33.79-5C138.84,137.42,135.72,136,132.45,134.31Z" transform="translate(0 0)" fill="#b51218"/><path d="M109.81,123.86c-.32-.13-.47-.22-.47-.22Z" transform="translate(0 0)" fill="#5357a6"/><path d="M96.66,127.69l.87.05,1.14,0a18,18,0,0,0,8.64-1.81l4.67,2,1.17.5c3.58,1.54,8.5,3.64,13.89,5.9l1.07.45,1.46.61c3.67,1.54,7.49,3.11,11.19,4.62,5.45,2.21,10.65,4.27,14.77,5.78,0,0-5.89,1.23-18.1-1-11.3-2.1-28-7.2-50.48-19.06A42,42,0,0,0,96.66,127.69Z" transform="translate(0 0)" fill="#b51218"/><path d="M67.22,125s2,.29,4.48.51c3.67.33,8.47.54,9.85-.45,0,0,23.46,13.95,39.72,18.39,0,0-19.35,4.77-50.45-16Q69,126.25,67.22,125Z" transform="translate(0 0)" fill="#b51218"/><path d="M54.23,120.8s-4.18-7.56-4.12-12.66c0,0,1.59,5.35,8.13,11.46a69.33,69.33,0,0,0,11.64,9.91,81.27,81.27,0,0,0,16.33,8.79,42.4,42.4,0,0,1-18-4.47A33.23,33.23,0,0,1,54.23,120.8Z" transform="translate(0 0)" fill="#b51218"/><path d="M117.72,112l-1.3-.57c-1.42-.65-2.92-1.39-4.49-2.24l-5.8-3.9a19.42,19.42,0,0,0-5.73-3.24c-.57-.21-1.16-.4-1.79-.57a18.34,18.34,0,0,0-5.28-.61s-1.59.2-4.15.24H87.7c-1.48,0-3.19-.08-5-.26-5.57-.53-12.41-2-18.2-5.75a18.61,18.61,0,0,1-4.54-4.65c3.75,2.71,9.83,7,24.13,7.29q2,0,4.3,0l.81,0,.78,0c.89,0,1.81-.09,2.76-.17a27.58,27.58,0,0,1,9.36.3c.69.14,1.39.32,2.09.54a19.85,19.85,0,0,1,4.86,2.22l9.11,4.58,1.32.67,17.91,9S131.08,117.76,117.72,112Z" transform="translate(0 0)" fill="#b51218"/><path d="M55.3,72.84s-9.39,13.65-6.71,29.6l-2.69-2.09s-2.55,27.95,21.93,38.42a51.13,51.13,0,0,0,17.07,3.77A40.45,40.45,0,0,1,68,141.3a33.53,33.53,0,0,1-21.52-17.92S32.25,96.51,55.3,72.84Z" transform="translate(0 0)" fill="#b51218"/><path d="M129.44,79.86l-.7-.76,0,0A5.9,5.9,0,0,1,127.24,77a30.16,30.16,0,0,1,11.91,6.82c-.35-.18-.73-.35-1.14-.51a15.05,15.05,0,0,0-4-1.06,24.86,24.86,0,0,0-4.24-2Z" transform="translate(0 0)" fill="#c0c131"/><path d="M136.11,83.61a10.51,10.51,0,0,1,1.73.49,16.14,16.14,0,0,1,2.54,1.3c.34.21.66.41,1,.62.34.4.67.8,1,1.21.56.72,1.1,1.47,1.6,2.24s1,1.63,1.44,2.49a29.71,29.71,0,0,1,2.75,7.91c.12.61.23,1.23.31,1.85-.24-.58-.51-1.16-.81-1.74a24.65,24.65,0,0,0-1.38-2.37c-.47-.7-.92-1.34-1.35-1.91A24.87,24.87,0,0,0,136.11,83.61Z" transform="translate(0 0)" fill="#c0c131"/><path d="M145.81,99.38c.17.28.33.57.49.87a20.92,20.92,0,0,1,1,2,15.91,15.91,0,0,1,1.22,5,12.7,12.7,0,0,1-.06,2.39h0a29.79,29.79,0,0,1-2.16,7.78l-3.43-1.36A24.8,24.8,0,0,0,146,100.52Q145.9,99.94,145.81,99.38Z" transform="translate(0 0)" fill="#c0c131"/><path d="M105,82.71a23.78,23.78,0,0,0-3.49,1.18,24.87,24.87,0,0,0-4.86,2.82q-1.2.86-2.41,1.88c.34-.49.7-1,1.06-1.42a29.87,29.87,0,0,1,15-10.2,10.77,10.77,0,0,1,3.33.3A11.56,11.56,0,0,1,117.41,79a24.79,24.79,0,0,0-9,3.29A13.11,13.11,0,0,0,105,82.71Z" transform="translate(0 0)" fill="#c0c131"/><path d="M118.24,77.78a13.63,13.63,0,0,0-2.46-1.17c-.3-.11-.61-.22-.95-.32s-.53-.14-.79-.19l1-.15a29.74,29.74,0,0,1,11.18.72v0a6.52,6.52,0,0,0,1.21,2.78,24.72,24.72,0,0,0-7.75-.73C119.23,78.4,118.73,78.08,118.24,77.78Z" transform="translate(0 0)" fill="#c0c131"/><path d="M98.37,93.82c-1.38-.27-2.27-.42-2.27-.42L92,92.35c.14-.29.29-.57.44-.86,4.9-4.48,9.47-7,13.63-7.6A25,25,0,0,0,98.37,93.82Z" transform="translate(0 0)" fill="#c0c131"/><path d="M132,82.12h-.4l-.07-.08-1.75-1.88a24.86,24.86,0,0,1,4.24,2,13.17,13.17,0,0,0-1.79-.07Z" transform="translate(0 0)" fill="#e3d81c"/><path d="M142,92.42l-1.85-1.66c-.25-.2-.56-.47-.9-.79l-.81-.77c-.56-.53-1.17-1.14-1.82-1.8-1.27-1.28-2.65-2.72-3.89-4a13,13,0,0,1,3.38.24,24.87,24.87,0,0,1,8.78,12.09,27,27,0,0,0-2.62-3Z" transform="translate(0 0)" fill="#e3d81c"/><path d="M142.16,114.47l-3.51-1.87q-.2-1.35-.49-2.74a53,53,0,0,0-1.55-5.72c-.23-.71-.48-1.42-.75-2.14h0a53.83,53.83,0,0,0-3.23-7.51c-.3-.57-.61-1.16-1-1.77-.57-1-1.17-2-1.79-3-.84-1.31-1.72-2.55-2.63-3.71-.33-.42-.65-.84-1-1.23A25.94,25.94,0,0,1,131,83.56l.52.57c1.14,1.25,2.43,2.63,3.66,3.9.6.63,1.19,1.22,1.73,1.76l.4.39c.74.72,1.38,1.32,1.87,1.72l.87.78,1.21,1.09a26.68,26.68,0,0,1,4,4.77c.18.26.35.54.53.84s.12.76.17,1.14a24.8,24.8,0,0,1-3.15,15.54l-1-.39Z" transform="translate(0 0)" fill="#e3d81c"/><path d="M117.46,79a30.06,30.06,0,0,1,5.94,4.82c-.69.29-2.92,1.27-5.89,2.89a12.28,12.28,0,0,0-8.21-4.4c-.31,0-.62,0-.93-.05a24.79,24.79,0,0,1,9-3.29l0,0Z" transform="translate(0 0)" fill="#e3d81c"/><path d="M128,80.19c.11.13.62.71,1.37,1.54l.48.53a22.47,22.47,0,0,0-4.9,1.05A34.93,34.93,0,0,0,121.42,80l-.36-.29c-.44-.35-.89-.68-1.34-1a24.72,24.72,0,0,1,7.75.73l.3.41Z" transform="translate(0 0)" fill="#e3d81c"/><path d="M109.14,83.82a10.91,10.91,0,0,1,7.05,3.66c-.63.36-1.3.75-2,1.16-1,.63-2.13,1.32-3.24,2.06s-2.52,1.74-3.79,2.71c-.84.64-1.63,1.29-2.4,1.95-2.39-.68-4.76-1.2-6.42-1.53a25,25,0,0,1,7.68-9.94A12.53,12.53,0,0,1,109.14,83.82Z" transform="translate(0 0)" fill="#e3d81c"/><path d="M120.77,100.46a21.82,21.82,0,0,0,.22-3.07,19.72,19.72,0,0,0-.23-2.95,17.44,17.44,0,0,0-.84-3.32,15.61,15.61,0,0,0-1.31-2.77l.61-.32c3-1.56,5-2.37,5-2.39h0l.58-.24c.33.38.65.77,1,1.16,1,1.2,1.83,2.4,2.6,3.57s1.43,2.27,2,3.3v0l.1.17q.63,1.14,1.16,2.2a54.14,54.14,0,0,1,2.72,6.37l.09.28v0c.24.63.45,1.25.66,1.86a51.64,51.64,0,0,1,1.49,5.39c.15.67.27,1.32.38,2l-16.72-8.93,0-.18A16.42,16.42,0,0,0,120.77,100.46Z" transform="translate(0 0)" fill="#e3d81c"/><path d="M108.66,94.66l1.24-.91c1.4-1,2.79-1.93,4.12-2.75,1.15-.72,2.25-1.36,3.29-1.94a13.86,13.86,0,0,1,1,2.09,15.85,15.85,0,0,1,.91,3.28,18.45,18.45,0,0,1,.24,2.92,20.45,20.45,0,0,1-.33,3.68c-.09.51-.18.88-.23,1.06l-6.86-3.66A19.74,19.74,0,0,0,106.92,96l1.17-.92Z" transform="translate(0 0)" fill="#e3d81c"/><path d="M86.55,64.41a3.42,3.42,0,0,1-2.89.06s-1.09-.62-.87-1.61a2.18,2.18,0,0,1,1.07.16s.12,1,.72,1a.87.87,0,0,0,.66-.46Z" transform="translate(0 0)" fill="#c0c131"/><path d="M137,121.84c4.11,1.76,8.25,3.42,12.39,5s8.31,3.16,12.51,4.6,8.46,2.71,12.76,3.82a129.29,129.29,0,0,0,13.08,2.7,75.44,75.44,0,0,1-13.34-1.57,111.74,111.74,0,0,1-13-3.49,128.78,128.78,0,0,1-12.53-4.86A102.2,102.2,0,0,1,137,121.84Z" transform="translate(0 0)" fill="#c6b800"/><path d="M123.88,127.81c7.59,3.11,15.13,6.2,22.81,8.94,3.84,1.36,7.71,2.61,11.63,3.72a115,115,0,0,0,11.93,2.73A65.66,65.66,0,0,1,158,141.6a104.56,104.56,0,0,1-11.86-3.39c-3.89-1.33-7.7-2.89-11.43-4.6A96.07,96.07,0,0,1,123.88,127.81Z" transform="translate(0 0)" fill="#c6b800"/><path d="M102,130.5c7.74,2.53,15.38,5.21,23.07,7.73q5.77,1.88,11.6,3.59c3.89,1.13,7.8,2.2,11.75,3.15a94.64,94.64,0,0,1-12-2c-4-.9-7.9-2-11.78-3.24s-7.72-2.61-11.5-4.12A116.76,116.76,0,0,1,102,130.5Z" transform="translate(0 0)" fill="#c6b800"/><path d="M74,127.18c6.15,3,12.27,5.8,18.53,8.35q4.7,1.91,9.5,3.54c3.2,1.09,6.45,2.06,9.74,3a63.38,63.38,0,0,1-10.07-1.86A85,85,0,0,1,92,137a88.07,88.07,0,0,1-9.31-4.3A63.19,63.19,0,0,1,74,127.18Z" transform="translate(0 0)" fill="#c6b800"/><path d="M52.29,114a67.1,67.1,0,0,0,5.15,7,57.12,57.12,0,0,0,6,6.19,45.94,45.94,0,0,0,7,5.05A47.73,47.73,0,0,0,78.3,136a29.19,29.19,0,0,1-8.43-2.65,34.06,34.06,0,0,1-7.43-4.91,37.17,37.17,0,0,1-6-6.57A30.43,30.43,0,0,1,52.29,114Z" transform="translate(0 0)" fill="#c6b800"/><path d="M97.78,99.85a12,12,0,0,1,5,.18,19.64,19.64,0,0,1,4.75,1.82c.74.41,1.47.85,2.17,1.32l2,1.4c1.35.92,2.73,1.78,4.12,2.61a60.76,60.76,0,0,0,8.78,4.21c3,1.19,6.17,2.19,9.33,3.16a63.49,63.49,0,0,1-9.69-2.12,48.47,48.47,0,0,1-9.21-3.86c-1.47-.79-2.88-1.69-4.27-2.6l-2.06-1.38c-.65-.46-1.32-.89-2-1.3a29.37,29.37,0,0,0-4.28-2.13A19.8,19.8,0,0,0,97.78,99.85Z" transform="translate(0 0)" fill="#c6b800"/><path d="M98.64,116.05c2.21.7,4.42,1.34,6.63,1.93s4.44,1.11,6.68,1.53,4.49.79,6.76,1.07,4.55.45,6.87.6a31.63,31.63,0,0,1-7,.51,43,43,0,0,1-7-.79,46.16,46.16,0,0,1-6.73-1.87A32.92,32.92,0,0,1,98.64,116.05Z" transform="translate(0 0)" fill="#c6b800"/><path d="M75.39,115.58c2,1.17,4.09,2.21,6.18,3.18a62.07,62.07,0,0,0,6.4,2.52A51.42,51.42,0,0,0,94.6,123a56.23,56.23,0,0,0,6.88.84,24.53,24.53,0,0,1-7,.27,32.18,32.18,0,0,1-6.93-1.48,36,36,0,0,1-6.46-2.89A27.93,27.93,0,0,1,75.39,115.58Z" transform="translate(0 0)" fill="#c6b800"/><path d="M54.12,106a27.5,27.5,0,0,0,3.56,5.52A28.24,28.24,0,0,0,62.34,116a31.3,31.3,0,0,0,5.52,3.39A53,53,0,0,0,74,121.84a23.18,23.18,0,0,1-12.53-4.69,21.46,21.46,0,0,1-4.67-5A16.6,16.6,0,0,1,54.12,106Z" transform="translate(0 0)" fill="#c6b800"/><path d="M153.06,74.44a224.17,224.17,0,0,0,23.85-3.52,117.25,117.25,0,0,0,22.95-7.11A50.84,50.84,0,0,1,189,69.3a78.17,78.17,0,0,1-11.73,3.34,97.9,97.9,0,0,1-12.06,1.7A79.07,79.07,0,0,1,153.06,74.44Z" transform="translate(0 0)" fill="#c6b800"/><path d="M148.5,85.68c7.08-.79,14.07-1.75,21-3.2,3.44-.73,6.86-1.57,10.23-2.58a100,100,0,0,0,10-3.57,43.3,43.3,0,0,1-9.53,4.91,66.82,66.82,0,0,1-10.33,3,83.44,83.44,0,0,1-10.62,1.47A66.58,66.58,0,0,1,148.5,85.68Z" transform="translate(0 0)" fill="#c6b800"/><path d="M151,95.18C155.18,94,159.31,93.1,163.4,92q3.07-.79,6.11-1.66c2-.59,4-1.22,6.09-1.91A23.38,23.38,0,0,1,170,91.71a40.82,40.82,0,0,1-6.15,2,51.75,51.75,0,0,1-6.35,1.16A37.81,37.81,0,0,1,151,95.18Z" transform="translate(0 0)" fill="#c6b800"/><path d="M34.06,162.39l3.12-2.87a14,14,0,0,0,6.59,4.36c1.51.41,2.33.09,2.33-.79V163c0-.86-.67-1.5-3.43-2.91-4.33-2.2-7.65-4.47-7.65-8.72v-.06c0-3.85,3-5.69,7.85-4.34a17.58,17.58,0,0,1,8.39,4.94l-2.83,3.33a14.13,14.13,0,0,0-5.71-3.56c-1.36-.38-2,0-2,.76v.06c0,.94.69,1.56,3.51,3,4.68,2.3,7.61,4.53,7.61,8.4V164c0,4.22-3.31,5.95-8.25,4.6A18.8,18.8,0,0,1,34.06,162.39Z" transform="translate(0 0)" fill="#b51218"/><path d="M53.86,160.57v-.06c0-6,4.59-9.63,10.83-8.38a13,13,0,0,1,8.76,5.94l-4.31,2.57a7.12,7.12,0,0,0-4.51-3.29c-2.88-.58-4.91,1.43-4.91,4.44v.06a6.56,6.56,0,0,0,4.91,6.55,4.59,4.59,0,0,0,4.66-1.61q2.15,1.93,4.31,3.84c-2,2.35-4.58,3.88-9.14,3A13.62,13.62,0,0,1,53.86,160.57Z" transform="translate(0 0)" fill="#b51218"/><path d="M76.06,154.61q4.9.8,9.81,1.44c3.18.41,5.38,1.48,6.78,3.05a7.06,7.06,0,0,1,1.84,5v.06A5.71,5.71,0,0,1,90.21,170q2.48,3.89,5,7.75-3.33-.33-6.66-.74-2.09-3.39-4.19-6.8h-.06l-2.46-.34v6.26q-2.88-.41-5.75-.88Zm9.54,11.33c2,.26,3.09-.56,3.09-2.06v-.06c0-1.62-1.19-2.59-3.12-2.85l-3.77-.52v5Z" transform="translate(0 0)" fill="#b51218"/><path d="M97.41,157.33q8.38.78,16.79,1.11v4.87q-5.54-.22-11.07-.63v3.13q5,.37,10,.59v4.52q-5-.21-10-.59v3.28q5.61.42,11.22.63v4.87q-8.48-.33-16.94-1.11Z" transform="translate(0 0)" fill="#b51218"/><path d="M124.54,158.52q2.79,0,5.59,0,4.45,10.36,8.9,20.6-3.1.12-6.21.19l-1.52-3.67q-4,.06-8.06,0l-1.49,3.67q-3,0-6.09-.15Q120.09,168.91,124.54,158.52Zm5.08,12.66-2.33-5.86-2.36,5.88Q127.28,171.21,129.62,171.19Z" transform="translate(0 0)" fill="#b51218"/><path d="M141.07,158.34q3.06-.14,6.12-.34,2.49,3.84,5,7.64,2.49-4.21,5-8.45,3.05-.3,6.1-.66v20.68q-2.87.34-5.74.62V166q-2.66,4.31-5.33,8.58H152q-2.65-3.8-5.31-7.65v11.82q-2.83.18-5.67.31Z" transform="translate(0 0)" fill="#b51218"/><path d="M167,156.05q2.9-.38,5.78-.81v20.68q-2.89.43-5.78.81Z" transform="translate(0 0)" fill="#b51218"/><path d="M176.62,154.66q2.68-.43,5.35-.91,4.25,4.7,8.49,9.29V152.11q2.82-.59,5.64-1.22v20.68q-2.49.57-5,1.09-4.39-4.75-8.81-9.63v11.34q-2.83.51-5.67,1Z" transform="translate(0 0)" fill="#b51218"/><path d="M199,160.6v-.06c0-6,4.69-11.83,11-13.57,3.57-1,6.09-.62,8.23.62l-3.3,5a6,6,0,0,0-4.9-.56,7.53,7.53,0,0,0-5.21,7.06v.06c0,3.34,2.31,5.15,5.53,4.25a7.41,7.41,0,0,0,3.25-1.77v-2.51l-4,1.13v-4.2q4.68-1.28,9.33-2.71v9.31a18.32,18.32,0,0,1-8.81,5.76C203.8,170.19,199,166.86,199,160.6Z" transform="translate(0 0)" fill="#b51218"/><path d="M36.09,171.55q5.9,1.81,11.85,3.39v3.54q-3.92-1-7.82-2.18v2.28q3.53,1,7.08,2v3.28q-3.55-.95-7.08-2v2.38q4,1.16,7.93,2.21V190q-6-1.59-12-3.42Z" transform="translate(0 0)" fill="#c6b800"/><path d="M74.47,180.63l4,.67q3.2,8.07,6.41,16.07-2.24-.31-4.48-.65l-1.1-2.85q-2.9-.45-5.79-1l-1.07,2.49q-2.19-.39-4.37-.82Q71.28,187.63,74.47,180.63Zm3.65,9.81-1.67-4.54-1.7,4Z" transform="translate(0 0)" fill="#c6b800"/><path d="M104.29,192v0c0-4.38,3.46-7.53,8.16-7.3a9.45,9.45,0,0,1,6.16,2.42l-2.47,2.86a5.68,5.68,0,0,0-3.66-1.57,3.72,3.72,0,0,0-3.88,3.91v0a4.24,4.24,0,0,0,4.11,4.38,4.14,4.14,0,0,0,2.43-.52v-1.82l-3-.13v-3q3.49.17,7,.27v6.75a9.75,9.75,0,0,1-6.59,2.07A8.31,8.31,0,0,1,104.29,192Z" transform="translate(0 0)" fill="#c6b800"/><path d="M141,185l4.2-.21v11.36q3.67-.21,7.34-.51,0,1.82,0,3.65-5.77.46-11.54.72Z" transform="translate(0 0)" fill="#c6b800"/><path d="M173.72,181.83q6.05-.91,12.08-2.06v3.54q-4,.76-8,1.41V187q3.61-.59,7.2-1.27V189q-3.59.68-7.2,1.27v2.38q4-.66,8.06-1.43v3.54q-6.08,1.16-12.18,2.08Z" transform="translate(0 0)" fill="#c6b800"/><path d="M206,188l2.28-3.37a6.21,6.21,0,0,0,4.79.47c1.1-.31,1.68-.87,1.68-1.52v0c0-.62-.48-.82-2.48-.72-3.14.16-5.57-.11-5.57-3.19v0c0-2.79,2.18-5.37,5.72-6.37,2.5-.71,4.46-.61,6,.21l-2,3.55a6.29,6.29,0,0,0-4.12-.28c-1,.28-1.48.84-1.48,1.38v0c0,.68.51.85,2.55.74,3.39-.23,5.48.23,5.48,3v0c0,3.06-2.37,5.63-5.94,6.65A8.43,8.43,0,0,1,206,188Z" transform="translate(0 0)" fill="#c6b800"/><path d="M35,172.17q5.9,1.81,11.85,3.39v3.54q-3.92-1-7.82-2.18v2.27q3.53,1,7.08,2v3.28q-3.55-.95-7.08-2v2.38Q43,186,47,187.06v3.54q-6-1.59-12-3.42Z" transform="translate(0 0)" fill="#fff"/><path d="M73.41,181.25l4,.67Q80.63,190,83.83,198q-2.24-.31-4.47-.65l-1.1-2.85q-2.9-.46-5.79-1L71.4,196q-2.19-.39-4.37-.82Q70.22,188.25,73.41,181.25Zm3.65,9.81-1.68-4.54-1.7,4Z" transform="translate(0 0)" fill="#fff"/><path d="M103.23,192.59v0c0-4.38,3.46-7.53,8.16-7.3a9.45,9.45,0,0,1,6.16,2.42l-2.47,2.86a5.69,5.69,0,0,0-3.66-1.57,3.72,3.72,0,0,0-3.88,3.91v0a4.24,4.24,0,0,0,4.11,4.38,4.13,4.13,0,0,0,2.43-.52v-1.82l-3-.13v-3q3.49.17,7,.27v6.75a9.76,9.76,0,0,1-6.59,2.07A8.31,8.31,0,0,1,103.23,192.59Z" transform="translate(0 0)" fill="#fff"/><path d="M139.92,185.62l4.2-.21v11.36q3.67-.21,7.34-.51,0,1.82,0,3.65-5.76.46-11.54.72Z" transform="translate(0 0)" fill="#fff"/><path d="M172.66,182.45q6.05-.91,12.08-2.06v3.54q-4,.76-8,1.41v2.27q3.61-.59,7.2-1.27v3.28q-3.59.68-7.2,1.27v2.38q4-.66,8.06-1.43v3.54q-6.08,1.16-12.18,2.08Z" transform="translate(0 0)" fill="#fff"/><path d="M205,188.61l2.28-3.37a6.21,6.21,0,0,0,4.79.47c1.1-.31,1.68-.87,1.68-1.52v0c0-.62-.48-.82-2.48-.72-3.14.16-5.57-.11-5.57-3.19v0c0-2.79,2.18-5.37,5.72-6.37,2.51-.71,4.46-.61,6,.21l-2,3.55a6.31,6.31,0,0,0-4.12-.28c-1,.28-1.47.84-1.47,1.38v0c0,.69.51.85,2.55.74,3.39-.23,5.48.23,5.48,3v0c0,3.06-2.37,5.63-5.94,6.65A8.44,8.44,0,0,1,205,188.61Z" transform="translate(0 0)" fill="#fff"/><path d="M34.11,172.91Q40,174.72,46,176.3v3.54q-3.92-1-7.82-2.18v2.27q3.53,1,7.08,2v3.28q-3.55-.95-7.08-2v2.38q4,1.16,7.93,2.21v3.54q-6-1.59-12-3.42Z" transform="translate(0 0)" fill="#333472"/><path d="M72.49,182l4,.67q3.2,8.07,6.41,16.07-2.24-.31-4.48-.65l-1.1-2.85q-2.9-.46-5.79-1l-1.07,2.49q-2.19-.39-4.37-.82Q69.3,189,72.49,182Zm3.65,9.81-1.67-4.54-1.69,4Z" transform="translate(0 0)" fill="#333472"/><path d="M102.31,193.33v0c0-4.38,3.46-7.53,8.16-7.3a9.45,9.45,0,0,1,6.16,2.42l-2.47,2.86a5.69,5.69,0,0,0-3.66-1.57,3.72,3.72,0,0,0-3.88,3.9v0a4.24,4.24,0,0,0,4.11,4.38,4.15,4.15,0,0,0,2.43-.52v-1.82l-3-.13v-3q3.49.17,7,.27v6.75a9.76,9.76,0,0,1-6.59,2.07A8.31,8.31,0,0,1,102.31,193.33Z" transform="translate(0 0)" fill="#333472"/><path d="M139,186.35q2.1-.09,4.2-.21v11.37q3.67-.21,7.34-.51,0,1.82,0,3.64-5.77.47-11.54.72Z" transform="translate(0 0)" fill="#333472"/><path d="M171.74,183.19q6.05-.91,12.08-2.06v3.54q-4,.76-8,1.41v2.27q3.61-.59,7.2-1.27v3.28q-3.59.68-7.2,1.27V194q4-.66,8.06-1.43v3.54q-6.08,1.16-12.18,2.08Z" transform="translate(0 0)" fill="#333472"/><path d="M204,189.34l2.28-3.37a6.2,6.2,0,0,0,4.79.47c1.09-.31,1.68-.87,1.68-1.52v0c0-.62-.48-.82-2.48-.72-3.14.16-5.57-.11-5.57-3.19v0c0-2.79,2.18-5.37,5.72-6.37,2.5-.71,4.46-.61,6,.21l-2,3.55a6.3,6.3,0,0,0-4.12-.28c-1,.28-1.48.84-1.48,1.38v0c0,.68.51.85,2.55.74,3.39-.22,5.48.23,5.48,3v0c0,3.06-2.37,5.63-5.94,6.65A8.43,8.43,0,0,1,204,189.34Z" transform="translate(0 0)" fill="#333472"/></svg>