<svg id="Layer_1" data-name="Layer 1" xmlns="http://www.w3.org/2000/svg" viewBox="0 0 253 253"><title>sieteocho</title><rect width="253" height="253" fill="#fff"/><path d="M41.56,83.43s-11.11,1.14-11.21,3.49c-2.66,5.73,6.64,14.86,9.43,14.91a10.84,10.84,0,0,0,6.79-2.72c1.44-1.23-10.2-3.65-10.71-6.21-4.14-6.4,5.67-2,9.8-4.34s5.64-7.68,5.64-7.68-6.09,4.52-8,5.52S39.22,84.49,41.56,83.43Z" transform="translate(0 0)" fill="#fbb034"/><path d="M77.44,127.09c-1.76-1.28-5.78,9.27-4.17,9.27s5.92-8,4.17-9.27Z" transform="translate(0 0)" fill="#61c5bb" fill-rule="evenodd"/><path d="M203.93,112.57c-1.53-1.06-2.83,8.42-3.54,12.47s.51,3.78,2.71-2.32,2.36-9.09.83-10.15Z" transform="translate(0 0)" fill="#ffde6c" fill-rule="evenodd"/><path d="M88.85,112.56c-1.71,0-3.42,11.59-3.42,16.72s1.71,2.85,3.71-4.08,1.43-12.64-.28-12.64Z" transform="translate(0 0)" fill="#ef8d9c" fill-rule="evenodd"/><path d="M155.49,129.22c-3.52.7-4.24,5.15-1.18,5.61s2.82-5.94,1.18-5.61Z" transform="translate(0 0)" fill="#c1d82f" fill-rule="evenodd"/><path d="M123.84,110.71c-2.78-.61-10.54,6.48-11.13,20.68s13.33,8.53,15.52-3.85-1.62-16.23-4.4-16.84Z" transform="translate(0 0)" fill="#fbb034" fill-rule="evenodd"/><circle cx="37.39" cy="146.32" transform="translate(-110.2 114.33) rotate(-63.43)" fill="#fff"/><path d="M58.5,112.07c.35-.77.8-1.65,1.29-2.55,1-1.88,2.15-3.77,2.74-4.73.1,2.84-2.81,6.16-4,7.28ZM46.64,121c-4.31-2.86-6.46-5.64-7.15-8.16-.55-8.3,19.65-11.91,21-11.12a4.11,4.11,0,0,1,1,.78c-.91,1.45-5.33,8.56-5.37,10.8,0,1,.68,1.93,1.46,1.91,2.6-.09,11.38-10.6,3.07-15.42-2.71-1.57-7-.92-11.11,1h0C39.84,105.06,38,109,37.84,111.06h0v0a3.76,3.76,0,0,0,0,.92c.2,2.28,1.58,4.46,4.57,7.26.37.32,1.7,1.48,3,2.5.37.28.74.55,1.14.83C58.7,131,67,138.52,58.27,149.31c-3.09,3.83-9.19,5.61-13.47,5.2-4.89-.47-8.49-4.64-7.53-7.59a11.52,11.52,0,0,1,.78-1.84h0a10.69,10.69,0,0,1,3.06-3.65h0a13.55,13.55,0,0,1,6.13-2.7l.22,0,.13,0,.23,0,.56,0,.38,0c.26,0,.5,0,.72,0h.14a4.56,4.56,0,0,1,1.65.38h0a2.57,2.57,0,0,1,.48.28l0-.06a1.87,1.87,0,0,0-.52-.48l-.35-.19h0a4.22,4.22,0,0,0-1-.33,13.86,13.86,0,0,0-8.3,1.51,17.39,17.39,0,0,0-4.29,3.11l0,0a10.24,10.24,0,0,0-1.88,2.91c-4.17,9.87,15.29,17.17,24.89,5.15s1-20.2-13.69-29.92Zm138.81,1.92s-.56-.11-1.08-.18a4.26,4.26,0,0,0-1.31,0c-.23.08-.43,1-.58,1.77s-.26,1.7-.26,1.7l1.6.82,1.63-4.06ZM93,137.23c-.07-3,2.27-6.8,3.51-7.38.52,1.51-.71,4.12-1,4.74A7,7,0,0,1,93,137.23Zm5.23-6.52c-.15-1.28-.93-3-2.1-3.05-2.22,0-5.43,5.78-4.58,10.33-.94.36-1.92.54-2.68.89a5.7,5.7,0,0,0,.93.16,7,7,0,0,0,2-.09,5.75,5.75,0,0,0,3.3,3.58c2.15.94,4.59-.32,6-2.94l-.34-.38a5.26,5.26,0,0,1-5.65,1.28,3.2,3.2,0,0,1-1.88-2c2.67-1.12,5.55-3.37,5-7.77Zm54.35,11,.43-.25c1.65-1,14.8-7.6,16.35-1.2a3.93,3.93,0,0,1-.27,2.63c-2.88-.62-7.69.53-11.12,3.29a10.72,10.72,0,0,1-5.39-4.47Zm7.12,4.93a13,13,0,0,1,9.19-3.38c-1.44,2.46-5.31,4.06-9.19,3.38Zm-16.48-34.1.21.06c.58.68.88,2,.7,5a29.58,29.58,0,0,1-3.93,13.86l0-.83c-.33-8.29,1.4-18.08,3-18ZM122.28,139a6.22,6.22,0,0,1-.84.29c-13.41,3.63-10.74-31.72,2.34-28.12,4.65,1.28,6.73,7.08,4.6,15.24A37.27,37.27,0,0,1,122.28,139Zm31.4-4.8c-3.58-.31-.92-5.48.8-6a5,5,0,0,0,2.28.21c1.25,1.71.33,6.11-3.07,5.82ZM174.41,108c1.55,1.11,2.17,3.24,1.58,4.34-2.43,4.52-8.84,2.55-16.07-.76,3-4.55,10.51-6.44,14.49-3.59Zm-8.55,17.67c-7-4.63-8.31-9.08-6.92-12.5,8,3.82,16.53,6.23,19.4.89,1.18-2.2,0-5.19-2.42-7-5.07-3.64-14.14-1.69-17.58,3.61A108.47,108.47,0,0,1,148,105.11c-33-20.4-57.35-11.6-55.24-.84-.92-7.21,20.11-18.78,53.67,2,2.94,1.82,7,4.24,11.24,6.35-1.68,3.82-.25,8.33,6.47,13.49a34.4,34.4,0,0,1-6.69.79c-1.52-1.65-3.16-.94-3.56.08a6.82,6.82,0,0,0-3.07,3.93c-1.77,5.29,7.46,8.22,8.06.77a6.73,6.73,0,0,0-.57-3.52,26.84,26.84,0,0,0,5.91-2q.77.58,1.62,1.18c12.08,8.37,20.39,15.93,11.66,26.72-3.09,3.82-9.19,5.61-13.47,5.19-4.89-.47-8.49-4.63-7.53-7.59a11.45,11.45,0,0,1,1.78-3.4c6.24,2.06,10.51-1,11.77-4.74a3,3,0,0,1,1,.48l-.2-.28a3.1,3.1,0,0,0-.71-.45,5.81,5.81,0,0,0-4.06-7.6c-4.06-1.21-9.49,1.39-14.29,4.62a24.65,24.65,0,0,1-2.19-8.7l0-2.27-.09-.53a2.61,2.61,0,0,0-.22-.7c-1.09-2.14-2.73-1.23-4.12.23a19.2,19.2,0,0,0-1.9,2.44c-.53.79-.92,1.46-1.1,1.73l-1.57,2.7c-.06-.45-.12-1-.17-1.53A40,40,0,0,0,145.32,118c.18-1.78.43-7.54-2.63-7.6-3.27-.06-4.93,14-3.81,23a10,10,0,0,1-6.89,4.38c-2.53.39-3.2-.74-2.43-3.18,1.17-3.71,4.18-4.91,5.53-4.36.63-.11.76-.13.68-.93-.76-2.8-6.81,1.53-7.75,4.44a20.54,20.54,0,0,1-2.36,2.81,40.14,40.14,0,0,0,4-9.69c2-7.48,1.58-16.74-5.64-18.72-11.87-3.26-17.7,23.86-8.69,31.2a6.93,6.93,0,0,0,5.1,1.82c-1.48,1.55-1.82,2-3.46,2.78-10.27,4.77-16.55-5-12.82-19.62s16.08-18.83,19.32-17.47l-.31-.25c-4.26-1.92-17.41,2.34-21.29,17.54-3.92,15.37,2.17,27.68,14.38,22a21.13,21.13,0,0,0,7-6,15.32,15.32,0,0,0,4.4-4.44c-.12,2.6,1.34,4.75,5.06,4.18,2.52-.39,4.69-2.05,6.48-4.43.06.32.13.62.2.91l.66,3.18a1.8,1.8,0,0,1,.77-.34c.33-.09.7-.18.91-.22,1.1-4.22,5.45-12.13,6.36-10.43l.16,1.35a21.72,21.72,0,0,0,2.28,11.15c-3.06,2.2-6.15,4.83-7.9,6.38-12.81,11.29-35.32,24.44-49.73,12.69a52.23,52.23,0,0,1-4-4.07,23.94,23.94,0,0,0,4,4.19c15.48,13.63,38-.71,50.49-11.68a74.49,74.49,0,0,1,7.86-6.18,13.47,13.47,0,0,0,5.05,5l.26.12a10.31,10.31,0,0,0-1.88,2.91c-4.17,9.88,15.29,17.17,24.89,5.15s1-20.2-13.69-29.92Zm44.66,1.55c.48,1.13-.67,3.2-1.83,4.56.1-2.14.82-4,1.83-4.56Zm-10.34-1a44.05,44.05,0,0,1,.6-6c.9-.1,1.78-.18,2.65-.26-.25.85-.45,1.56-.59,2.08l-.19.68-.11.35c-.37.91-.8,2.18-1.24,3.41s-.79,2.21-1.14,3c0-.88,0-2.6,0-3.21Zm3.64-14.75c1.18.94.8,4,.08,6.81l-1.37.1-1.42.13c.84-4.06,2-7.07,2.72-7Zm-11,14.92c1.21,1.55-1.53,4.93-3.69,5,.61-2.56,2.07-4.59,3.69-5ZM228,127.73a3.81,3.81,0,0,0-.18-1.35c-.49,6.68-4.49,11.79-8.56,12.34-7.06,1-10.16-1.22-10.58-5.19,6.31-4.22,2.48-10.39.09-7.75-1.64,1.8-2.27,4.91-1.76,7.93-1,1.65-3.16,4.78-4.13,4.61-.21,0-.82-.33-1.6-2.71a24.44,24.44,0,0,1-.91-4.61c1.12-2.26,2.16-4.73,3.25-7.42a33.63,33.63,0,0,0,1.28-3.79c7-.66,13.9-1.63,13.87-1.75s-6.88-.25-13.47.12a18.78,18.78,0,0,0,.44-4c0-1.74-.64-4.82-2.59-4.86-1.61,0-3.11,4.5-4,9.41-6.32.58-12.41,1.18-12.41,1.18l.7,2.07s5.57-.82,11.43-1.52a45.82,45.82,0,0,0-.44,5,39.68,39.68,0,0,0,.42,6.05,18.6,18.6,0,0,1-6.76,7.26c-1.77,1.21-2.82.49-3.07,0a8.7,8.7,0,0,1-.25-5.66c1.8.38,5.82-2.16,6-4.88a3,3,0,0,0-1.48-2.88c-3.42-1.69-5.85,5-6.31,7.56l0,.31a22.27,22.27,0,0,1-1.07,2.44c-.66,1.27-1.54,2.63-2.48,3-1.6.64-.35-8.2.11-9.89L182,127.46a9.5,9.5,0,0,1-2.48,3.31c-.49.46-1,.85-1.3,1.13l-.41.33-.18.23,3.63-1.07-.28,1.69c0,.54-.12,1.22-.14,1.95a11.74,11.74,0,0,0,.11,2.23c.24,1.46.9,2.72,2.46,2.95s3-2.84,3.72-4.74c-.09,4.84,2.82,7.52,5.77,5.34a23.6,23.6,0,0,0,6.43-7.74c.16.72.43,1.94.61,2.49,1.4,4.24,2.84,5,4.16,4.18a6.61,6.61,0,0,0,1.83-2.06c.54-.85,1-1.81,1.47-2.65,1.42,5.22,5.39,8,11.85,6.42,5.18-1.28,7.45-5.12,8.72-11.55a10.81,10.81,0,0,0,.09-2.18ZM73.76,135.27c0-6.42,2.75-9.57,3.62-9.32.37,2.92-1.4,6.71-3.62,9.63v-.31ZM86,122.39l3.79-.47a42.29,42.29,0,0,1-3.37,11.17q-.26-1.49-.4-3.07a41.74,41.74,0,0,1,0-7.62Zm3.24-9.47c.25,0,.69.09.86,2.07a27.35,27.35,0,0,1-.1,5.46l-3.79.23c.67-4.79,2.09-7.85,3-7.76ZM83.11,140.7A24.32,24.32,0,0,0,86,136.78c2.2,7.1,6.8,13.19,15.06,14.29-7.67-1.93-12.29-7.78-14.2-15.86A46.6,46.6,0,0,0,91,123.52c.07-.32.18-1,.32-1.81l11.16-1.45v-.63l-11,.71c.44-3.64.57-9.26-2.75-9.56-1.92-.17-3.65,4.18-4.25,10l-6.85.47.64,2.08,6.05-.75A42.06,42.06,0,0,0,85.46,135a17,17,0,0,1-2.22,3.16c-5.76,6.29-8.43,4-9.22.06a20.34,20.34,0,0,0,4.82-8.9c1.67-8.48-7.09-7.51-6.72,5.83a25.15,25.15,0,0,0,.2,2.61,16.28,16.28,0,0,1-4,3.71h-.68a20.57,20.57,0,0,1,.42-3.06c.21-1.13.45-2.25.56-3.07a70.46,70.46,0,0,1,1.49-7.15L68,128l-.13.75-.49,2.95c-.12.81-.25,1.68-.37,2.56-.06.43-.21,1.27-.33,2.27a21,21,0,0,0-.2,3.17c.07,2.07.71,3.7,2.82,2.54a16.59,16.59,0,0,0,3.39-2.59c1.32,5.5,4.93,7.09,10.45,1.06ZM69.64,126s.69-.89,1.31-1.84,1.22-2,.9-2.29a3.93,3.93,0,0,0-1.74-.51c-.7-.1-1.36-.11-1.36-.11l-.51,4.58c.09,0,.44.08.77.11l.62.06Z" transform="translate(0 0)" fill="#231f20"/><path d="M158.07,148.55a23.24,23.24,0,0,1,2.35-2.46c.76-.56,7.8-2.49,7.8-2.49l.67-.29a7.35,7.35,0,0,1,1.37.32c.62.22.42,2.3.42,2.3l1.4-1-.22-1.37-1.75-.25a4,4,0,0,0-1.62-.44c-.92,0-10.24-.36-10.24-.36l-.28,3.76a10,10,0,0,0-2.72,3c-1.4,2.18-11.41,8.84-11.41,8.84s-20.92,9.79-36.7,9.68-24.62-5.48-24.62-5.48L84.08,153l6.94.22s18.49,4.92,29.78-1.79,25.5-9.85,25.5-9.85l7.5-3.58,7.72-3.58s7.49-3.24,11,.67,5.43,9.51,3.31,12.53-7.27,4.92-9.17,4.92-8.06-.9-8.06-.9l-.53-3.08Z" transform="translate(0 0)" fill="#fff"/><path d="M151.21,139s1.17,2.69,2.85,1.79a8.68,8.68,0,0,0,1.62-.78c.67-.45-.62,1.68-2.18,2s-2,.11-2.57-.45a6.93,6.93,0,0,1-1.06-1.74l1.34-.78Z" transform="translate(0 0)" fill="#231f20"/><path d="M211.54,119s-.43,2.18.6,2.23,5.74-1.11,7.7-1.33c0,0-6.22.66-6.84.56s-.24-1.83-.24-1.83" transform="translate(0 0)" fill="#231f20"/><path d="M211.53,118.1s-.58-2.15.44-2.27,5.81.71,7.77.79c0,0-6.25-.22-6.86-.09s-.11,1.84-.11,1.84" transform="translate(0 0)" fill="#231f20"/><ellipse cx="99.1" cy="120.22" rx="3.48" ry="2.43" transform="translate(-6.87 6.01) rotate(-3.36)" fill="#231f20"/><path d="M127.9,161s-4.39,0-2.92-2.24,7.41-.39,5.07,1.36S127.9,161,127.9,161Z" transform="translate(0 0)" fill="#ef8d9c" fill-rule="evenodd"/><path d="M130.24,152.82s-7.21,2.92-8.09,0,5-3.61,9.65-2.34C135.6,151.75,130.24,152.82,130.24,152.82Z" transform="translate(0 0)" fill="#c1d82f" fill-rule="evenodd"/><path d="M118.49,149.38c.13,0,.2.06.2.17q0,.48-2.21,3.21-3.11,3.83-4.22,5.38-2.32,3.32-2.51,5.12t-.72,1.88q-.33,0-.57-.68a3,3,0,0,1-.17-1.33,13.81,13.81,0,0,1,2.14-5.62,27.08,27.08,0,0,1,3.19-4.13q1.66-1.81,1.66-1.88s0,0-.07,0q-2.76,0-5.45.24a9.85,9.85,0,0,0-3.24.57,2.1,2.1,0,0,0-.52,1.18.83.83,0,0,1-.88.77q-.22,0-.44-.7a4.74,4.74,0,0,1-.22-1.42q0-1,.48-1.09l5.1-.85A57.54,57.54,0,0,1,118.49,149.38Z" transform="translate(0 0)" fill="#231f20"/><path d="M134,150.72q.79.59.79.9c0,.12-.1.17-.31.17a2.77,2.77,0,0,1-1.31-.46,10.78,10.78,0,0,0-5.66-1.42,11.85,11.85,0,0,0-4.09.66q-1.79.66-1.9,1.47-.18,1.71,3.43,3.33a16.82,16.82,0,0,1,4.46-2.36,11.67,11.67,0,0,1,3-.83q1.18-.07,1.18.29t-1.49.35a6.07,6.07,0,0,0-2.58,1,18.31,18.31,0,0,0-3,2.21,34.68,34.68,0,0,1,3.43,1.51q1.57.87,1.57,1.77,0,1.18-1.79,2.08a8,8,0,0,1-3.67.85,4.71,4.71,0,0,1-2.56-.61,2.3,2.3,0,0,1-1.11-2.08,4.62,4.62,0,0,1,1.4-3.24q-4.44-1.57-4.44-3.87a2.53,2.53,0,0,1,.07-.57,3.37,3.37,0,0,1,2.38-2.3,12.69,12.69,0,0,1,4.53-.7,19.37,19.37,0,0,1,4.4.49A8.55,8.55,0,0,1,134,150.72Zm-3.58,8.34q0-.55-1.44-1.12l-3.29-1q-1.57,1.63-1.5,2.44,0,.57,1,.92a5.75,5.75,0,0,0,2.07.33,5.38,5.38,0,0,0,2.18-.4Q130.43,159.81,130.43,159.06Z" transform="translate(0 0)" fill="#231f20"/><path d="M149.09,149.38c.13,0,.2.06.2.17q0,.48-2.21,3.21-3.11,3.83-4.22,5.38-2.32,3.32-2.52,5.12t-.72,1.88q-.33,0-.57-.68a3,3,0,0,1-.17-1.33,13.81,13.81,0,0,1,2.14-5.62,27.06,27.06,0,0,1,3.19-4.13q1.66-1.81,1.66-1.88s0,0-.07,0q-2.76,0-5.45.24a9.85,9.85,0,0,0-3.24.57,2.1,2.1,0,0,0-.52,1.18.83.83,0,0,1-.88.77q-.22,0-.44-.7a4.75,4.75,0,0,1-.22-1.42q0-1,.48-1.09l5.1-.85A57.54,57.54,0,0,1,149.09,149.38Z" transform="translate(0 0)" fill="#231f20"/><path d="M38.23,102.69s-8-7.77-9.88-11.62.3-5.59,7.05-7,9-1.2,11.47-3.42c0,0-3.51,4.14-11.05,5.12s-8.88,7.1,4.91,15.7" transform="translate(0 0)" fill="#231f20"/><path d="M38.68,87s6.88-1.82,10.38-8,12.55,7.15,5.24,16.17l-1.42.46s6.21-10.69-1-16.28C51.92,79.28,44.37,88.41,38.68,87Z" transform="translate(0 0)" fill="#231f20"/><path d="M42.47,99.48S41.07,94,37.18,92.3c0,0,5,1.68,6.2,6.14" transform="translate(0 0)" fill="#231f20"/><path d="M51.78,95.68s-2.59-5-.8-8.89c0,0-2.63,4.58-.56,8.71" transform="translate(0 0)" fill="#231f20"/><path d="M39.46,84.16s-6.7,1.24-7.42,3.39" transform="translate(0 0)" fill="#231f20"/><path d="M40.18,107.5c-2.3-1.9-5.07-3.17-1.27-5.39S52.39,95,54.69,94.89s4.84,2.06,2.85,4.92c0,0-.08-3.09-1.74-3S41,101.87,39.62,103.53s1,2.62,1.59,2.62" transform="translate(0 0)" fill="#231f20"/><path d="M123.89,104.84a2.24,2.24,0,1,1-2.24-2.24A2.25,2.25,0,0,1,123.89,104.84Zm-2.24-3.71a3.71,3.71,0,1,0,3.71,3.71A3.68,3.68,0,0,0,121.64,101.13Z" transform="translate(0 0)" fill="#231f20"/><path d="M121.5,84.14s-1.74,2.85.25,5-.68,4.65-.68,4.65,3.41-.62,1.3-4.77S121.5,84.14,121.5,84.14Z" transform="translate(0 0)" fill="#e4e5e6"/><path d="M124.9,91.64s-1.74,2.85.25,5-.68,4.65-.68,4.65,3.41-.62,1.3-4.77S124.9,91.64,124.9,91.64Z" transform="translate(0 0)" fill="#e4e5e6"/><path d="M119,89.47s-1.74,2.85.25,5-.68,4.65-.68,4.65,3.41-.62,1.3-4.77S119,89.47,119,89.47Z" transform="translate(0 0)" fill="#e4e5e6"/><path d="M123.48,78.38s-1.74,2.85.25,5S123,88,123,88s3.41-.62,1.3-4.77S123.48,78.38,123.48,78.38Z" transform="translate(0 0)" fill="#e4e5e6"/></svg>