<svg id="Layer_1" data-name="Layer 1" xmlns="http://www.w3.org/2000/svg" viewBox="0 0 253 253"><title>superior</title><rect width="253" height="253" fill="#fff"/><path d="M62.46,201.07l-3.62-9.67.34-5.7L73.34,181l16.74-3.62,16.74-.34,42.29,2.24,33.14-.17s7.42,0,7.6.86S194,195.72,194,195.72l-4.14,3.8-25,4-57-1Z" fill="#bde7fb"/><path d="M199.91,204a9.4,9.4,0,0,1-9.4,9.4H62.23a9.4,9.4,0,0,1-9.4-9.4h0a9.4,9.4,0,0,1,9.4-9.4H190.51a9.4,9.4,0,0,1,9.4,9.4Z" fill="#ef4135"/><path d="M197.41,204a6.9,6.9,0,0,1-6.9,6.9H62.23a6.9,6.9,0,1,1,0-13.8H190.51A6.91,6.91,0,0,1,197.41,204Zm5,0a11.91,11.91,0,0,0-11.9-11.9H62.23a11.9,11.9,0,0,0,0,23.8H190.51A11.91,11.91,0,0,0,202.41,204Z" fill="#bde7fb"/><path d="M199.91,204a9.4,9.4,0,0,1-9.4,9.4H62.23a9.4,9.4,0,0,1-9.4-9.4h0a9.4,9.4,0,0,1,9.4-9.4H190.51a9.4,9.4,0,0,1,9.4,9.4Z" fill="#ef4135"/><path d="M62.94,207.55l-1.64-6.49v7A1.28,1.28,0,0,1,61,209a1,1,0,0,1-1.37,0,1.27,1.27,0,0,1-.26-.88V200a1,1,0,0,1,.35-.9,1.66,1.66,0,0,1,.94-.23h.64a2.43,2.43,0,0,1,.84.1.7.7,0,0,1,.39.38,5.86,5.86,0,0,1,.28.88l1.48,5.59,1.48-5.59a5.74,5.74,0,0,1,.29-.88.7.7,0,0,1,.39-.38,2.44,2.44,0,0,1,.84-.1H68a1.66,1.66,0,0,1,.94.23,1,1,0,0,1,.35.9v8.07A1.29,1.29,0,0,1,69,209a.89.89,0,0,1-.7.29.86.86,0,0,1-.67-.29,1.27,1.27,0,0,1-.26-.88v-7l-1.64,6.49q-.16.63-.26.93a1.28,1.28,0,0,1-.37.54,1.09,1.09,0,0,1-.75.24,1.1,1.1,0,0,1-1-.56,2.25,2.25,0,0,1-.22-.54Z" fill="#fff"/><path d="M78.08,200.48H73.42V203h4.29a1,1,0,0,1,.71.21.71.71,0,0,1,.23.56.74.74,0,0,1-.23.56,1,1,0,0,1-.71.22H73.42v2.91h4.81a1.05,1.05,0,0,1,.73.23.78.78,0,0,1,.25.6.76.76,0,0,1-.25.59,1.05,1.05,0,0,1-.73.23H72.63a1.32,1.32,0,0,1-1-.3,1.34,1.34,0,0,1-.3-1v-7.67a1.72,1.72,0,0,1,.13-.73.82.82,0,0,1,.41-.41,1.73,1.73,0,0,1,.72-.13h5.45a1.06,1.06,0,0,1,.73.22.74.74,0,0,1,.24.57.75.75,0,0,1-.24.58A1.06,1.06,0,0,1,78.08,200.48Z" fill="#fff"/><path d="M87.39,207.93l-.49-1.28H82.75L82.27,208a4.6,4.6,0,0,1-.49,1,.78.78,0,0,1-.66.27,1,1,0,0,1-.69-.29.87.87,0,0,1-.3-.65,1.46,1.46,0,0,1,.07-.43q.07-.22.23-.62L83,200.65l.27-.68a3.47,3.47,0,0,1,.33-.66,1.36,1.36,0,0,1,.47-.43,1.66,1.66,0,0,1,1.43,0,1.4,1.4,0,0,1,.47.42,2.93,2.93,0,0,1,.3.55l.31.79,2.67,6.58a3.31,3.31,0,0,1,.31,1.09.9.9,0,0,1-.3.65,1,1,0,0,1-.71.3.93.93,0,0,1-.42-.09.86.86,0,0,1-.29-.24,2.14,2.14,0,0,1-.25-.46ZM83.3,205.1h3l-1.54-4.22Z" fill="#fff"/><path d="M96.49,200.59H94.23V208a1.36,1.36,0,0,1-.29,1,1,1,0,0,1-.74.31,1,1,0,0,1-.75-.31,1.35,1.35,0,0,1-.29-.95v-7.41H89.92a1.14,1.14,0,0,1-.79-.23.79.79,0,0,1-.26-.62.78.78,0,0,1,.27-.62,1.17,1.17,0,0,1,.78-.23h6.57a1.16,1.16,0,0,1,.8.24.8.8,0,0,1,.26.62.78.78,0,0,1-.26.62A1.17,1.17,0,0,1,96.49,200.59Z" fill="#fff"/><path d="M106.51,206a3,3,0,0,1-.48,1.66,3.17,3.17,0,0,1-1.4,1.15,5.24,5.24,0,0,1-2.18.42,4.91,4.91,0,0,1-2.49-.57,3.32,3.32,0,0,1-1.13-1.09,2.49,2.49,0,0,1-.43-1.33.9.9,0,0,1,.92-.91.78.78,0,0,1,.55.21,1.64,1.64,0,0,1,.38.62,4.19,4.19,0,0,0,.42.81,1.71,1.71,0,0,0,.64.54,2.36,2.36,0,0,0,1.08.21,2.44,2.44,0,0,0,1.5-.43,1.29,1.29,0,0,0,.58-1.07,1.13,1.13,0,0,0-.31-.82,2,2,0,0,0-.8-.48q-.49-.17-1.31-.36a9.55,9.55,0,0,1-1.84-.6A3,3,0,0,1,99,203a2.44,2.44,0,0,1-.43-1.48,2.54,2.54,0,0,1,.46-1.5,2.9,2.9,0,0,1,1.33-1,5.44,5.44,0,0,1,2-.35,5.06,5.06,0,0,1,1.62.23,3.42,3.42,0,0,1,1.14.62,2.59,2.59,0,0,1,.66.81,1.87,1.87,0,0,1,.21.83,1,1,0,0,1-.26.67.83.83,0,0,1-.65.3.74.74,0,0,1-.54-.18,2.4,2.4,0,0,1-.4-.58,2.64,2.64,0,0,0-.67-.9,2,2,0,0,0-1.26-.32,2.18,2.18,0,0,0-1.29.35,1,1,0,0,0-.49.84.86.86,0,0,0,.17.53,1.42,1.42,0,0,0,.46.38,3.12,3.12,0,0,0,.59.25l1,.26a15.07,15.07,0,0,1,1.56.45,4.75,4.75,0,0,1,1.19.59,2.44,2.44,0,0,1,.77.88A2.82,2.82,0,0,1,106.51,206Z" fill="#fff"/><path d="M112.93,201a2.16,2.16,0,0,1,.34-1.18,2.32,2.32,0,0,1,1-.84,3.53,3.53,0,0,1,1.54-.31,3.29,3.29,0,0,1,1.51.33,2.29,2.29,0,0,1,1,.86,2.11,2.11,0,0,1,.32,1.1,2,2,0,0,1-.52,1.36,6.55,6.55,0,0,1-1.52,1.18l.65.77.58.68q.28.31.51.54c.07-.13.18-.37.32-.73A3.22,3.22,0,0,1,119,204a.65.65,0,0,1,.54-.24.82.82,0,0,1,.58.23.75.75,0,0,1,.25.57,2.65,2.65,0,0,1-.22.87,8.14,8.14,0,0,1-.63,1.24l.82.67a5.5,5.5,0,0,1,.69.62.68.68,0,0,1,.13.43.8.8,0,0,1-.26.61.82.82,0,0,1-.58.25,1.11,1.11,0,0,1-.63-.21q-.31-.21-1.3-1a4.87,4.87,0,0,1-.94.69,4,4,0,0,1-1,.4,5.33,5.33,0,0,1-1.23.13,4.51,4.51,0,0,1-1.56-.25,3.32,3.32,0,0,1-1.15-.68,2.83,2.83,0,0,1-.68-1,2.71,2.71,0,0,1-.22-1.07,2.6,2.6,0,0,1,.64-1.74,4.23,4.23,0,0,1,.74-.67,8.08,8.08,0,0,1,1-.62,7.63,7.63,0,0,1-.79-1.17A2.25,2.25,0,0,1,112.93,201Zm2,3.34a4.07,4.07,0,0,0-1.06.82,1.46,1.46,0,0,0-.35,1,1.51,1.51,0,0,0,.13.61,1.81,1.81,0,0,0,.37.54,1.69,1.69,0,0,0,.57.38,1.81,1.81,0,0,0,.69.13,2.15,2.15,0,0,0,.69-.11,2.5,2.5,0,0,0,.63-.32,5,5,0,0,0,.62-.51,15.16,15.16,0,0,1-1.11-1.13Q115.58,205.22,114.89,204.38Zm.71-1.91a6.59,6.59,0,0,0,1-.76,1,1,0,0,0,.32-.75,1,1,0,0,0-.31-.72,1.22,1.22,0,0,0-1.59,0,.93.93,0,0,0-.32.7,1,1,0,0,0,.12.45,3.12,3.12,0,0,0,.3.48Z" fill="#fff"/><path d="M134,206a3,3,0,0,1-.48,1.66,3.17,3.17,0,0,1-1.4,1.15,5.24,5.24,0,0,1-2.18.42,4.91,4.91,0,0,1-2.49-.57,3.32,3.32,0,0,1-1.13-1.09,2.49,2.49,0,0,1-.43-1.33.9.9,0,0,1,.92-.91.78.78,0,0,1,.55.21,1.63,1.63,0,0,1,.38.62,4.25,4.25,0,0,0,.42.81,1.72,1.72,0,0,0,.64.54,2.36,2.36,0,0,0,1.08.21,2.44,2.44,0,0,0,1.5-.43,1.29,1.29,0,0,0,.58-1.07,1.13,1.13,0,0,0-.31-.82,2,2,0,0,0-.8-.48q-.49-.17-1.31-.36a9.55,9.55,0,0,1-1.84-.6,3,3,0,0,1-1.17-.94,2.44,2.44,0,0,1-.43-1.48,2.55,2.55,0,0,1,.46-1.5,2.9,2.9,0,0,1,1.33-1,5.44,5.44,0,0,1,2-.35,5.06,5.06,0,0,1,1.62.23,3.41,3.41,0,0,1,1.14.62,2.59,2.59,0,0,1,.66.81,1.86,1.86,0,0,1,.21.83,1,1,0,0,1-.26.67.83.83,0,0,1-.65.3.74.74,0,0,1-.54-.18,2.41,2.41,0,0,1-.4-.58,2.63,2.63,0,0,0-.67-.9,2,2,0,0,0-1.25-.32,2.18,2.18,0,0,0-1.29.35,1,1,0,0,0-.49.84.86.86,0,0,0,.17.53,1.42,1.42,0,0,0,.46.38,3.12,3.12,0,0,0,.59.25l1,.26a15.07,15.07,0,0,1,1.56.45,4.74,4.74,0,0,1,1.19.59,2.44,2.44,0,0,1,.77.88A2.82,2.82,0,0,1,134,206Z" fill="#fff"/><path d="M142.43,200.48h-4.65V203h4.29a1,1,0,0,1,.71.21.71.71,0,0,1,.23.56.74.74,0,0,1-.23.56,1,1,0,0,1-.71.22h-4.29v2.91h4.81a1.05,1.05,0,0,1,.73.23.78.78,0,0,1,.25.6.76.76,0,0,1-.25.59,1.05,1.05,0,0,1-.73.23H137a1.32,1.32,0,0,1-1-.3,1.34,1.34,0,0,1-.29-1v-7.67a1.72,1.72,0,0,1,.13-.73.82.82,0,0,1,.41-.41,1.73,1.73,0,0,1,.72-.13h5.45a1.06,1.06,0,0,1,.73.22.74.74,0,0,1,.24.57.75.75,0,0,1-.24.58A1.06,1.06,0,0,1,142.43,200.48Z" fill="#fff"/><path d="M151.75,207.93l-.49-1.28h-4.15l-.49,1.31a4.58,4.58,0,0,1-.49,1,.78.78,0,0,1-.66.27,1,1,0,0,1-.69-.29.87.87,0,0,1-.3-.65,1.46,1.46,0,0,1,.07-.43q.07-.22.23-.62l2.61-6.62.27-.68a3.56,3.56,0,0,1,.33-.66,1.36,1.36,0,0,1,.47-.43,1.66,1.66,0,0,1,1.43,0,1.39,1.39,0,0,1,.47.42,2.93,2.93,0,0,1,.3.55q.12.3.31.79l2.67,6.58a3.31,3.31,0,0,1,.31,1.09.9.9,0,0,1-.3.65,1,1,0,0,1-.71.3.93.93,0,0,1-.42-.09.87.87,0,0,1-.29-.24,2.14,2.14,0,0,1-.25-.46Zm-4.09-2.83h3l-1.54-4.22Z" fill="#fff"/><path d="M161.57,200.48H157.5v2.61h3.4a1,1,0,0,1,.71.21.72.72,0,0,1,.23.56.71.71,0,0,1-.24.56,1,1,0,0,1-.7.21h-3.4V208a1.36,1.36,0,0,1-.29,1,1,1,0,0,1-1.49,0,1.35,1.35,0,0,1-.29-.95v-7.85a1.73,1.73,0,0,1,.13-.73A.82.82,0,0,1,156,199a1.73,1.73,0,0,1,.72-.13h4.87a1.06,1.06,0,0,1,.73.22.74.74,0,0,1,.24.57.75.75,0,0,1-.24.58A1.06,1.06,0,0,1,161.57,200.48Z" fill="#fff"/><path d="M168.56,198.71a5.44,5.44,0,0,1,2.72.64,4.18,4.18,0,0,1,1.72,1.83,6.23,6.23,0,0,1,.58,2.79,6.83,6.83,0,0,1-.32,2.15,4.66,4.66,0,0,1-1,1.68,4.18,4.18,0,0,1-1.57,1.08,6.19,6.19,0,0,1-4.28,0,4.26,4.26,0,0,1-1.58-1.09,4.66,4.66,0,0,1-1-1.69,6.83,6.83,0,0,1-.32-2.14,6.6,6.6,0,0,1,.34-2.16,4.62,4.62,0,0,1,1-1.67,4.21,4.21,0,0,1,1.56-1.05A5.61,5.61,0,0,1,168.56,198.71Zm2.93,5.25a4.79,4.79,0,0,0-.36-1.94,2.71,2.71,0,0,0-1-1.24,2.84,2.84,0,0,0-1.54-.42,2.79,2.79,0,0,0-1.14.23,2.52,2.52,0,0,0-.9.68,3.26,3.26,0,0,0-.6,1.14,5.16,5.16,0,0,0-.22,1.55,5.29,5.29,0,0,0,.22,1.57,3.23,3.23,0,0,0,.62,1.17,2.6,2.6,0,0,0,.92.69,2.9,2.9,0,0,0,2.59-.17A2.74,2.74,0,0,0,171.1,206,4.74,4.74,0,0,0,171.49,204Z" fill="#fff"/><path d="M179.84,198.71a5.44,5.44,0,0,1,2.72.64,4.17,4.17,0,0,1,1.72,1.83,6.23,6.23,0,0,1,.58,2.79,6.83,6.83,0,0,1-.32,2.15,4.66,4.66,0,0,1-1,1.68,4.18,4.18,0,0,1-1.57,1.08,6.19,6.19,0,0,1-4.28,0,4.26,4.26,0,0,1-1.58-1.09,4.66,4.66,0,0,1-1-1.69,6.83,6.83,0,0,1-.32-2.14,6.6,6.6,0,0,1,.34-2.16,4.62,4.62,0,0,1,1-1.67,4.21,4.21,0,0,1,1.56-1.05A5.61,5.61,0,0,1,179.84,198.71Zm2.93,5.25a4.79,4.79,0,0,0-.36-1.94,2.71,2.71,0,0,0-1-1.24,2.84,2.84,0,0,0-1.54-.42,2.79,2.79,0,0,0-1.14.23,2.52,2.52,0,0,0-.9.68,3.26,3.26,0,0,0-.6,1.14A5.16,5.16,0,0,0,177,204a5.29,5.29,0,0,0,.22,1.57,3.23,3.23,0,0,0,.62,1.17,2.6,2.6,0,0,0,.92.69,2.9,2.9,0,0,0,2.59-.17,2.74,2.74,0,0,0,1.06-1.23A4.74,4.74,0,0,0,182.78,204Z" fill="#fff"/><path d="M187.92,198.88h2.69a7.31,7.31,0,0,1,1.8.19,3.32,3.32,0,0,1,1.37.73,5.17,5.17,0,0,1,1.59,4.15,8.16,8.16,0,0,1-.16,1.68,5,5,0,0,1-.49,1.37,4.26,4.26,0,0,1-.86,1.09,3.56,3.56,0,0,1-.9.59,4,4,0,0,1-1,.31,8,8,0,0,1-1.26.09H188a1.68,1.68,0,0,1-.85-.17.79.79,0,0,1-.37-.48,3,3,0,0,1-.09-.8v-7.48a1.08,1.08,0,0,1,1.26-1.27Zm.8,1.63v6.94h1.57c.34,0,.61,0,.81,0a2.48,2.48,0,0,0,.61-.14,1.65,1.65,0,0,0,.54-.31,3.78,3.78,0,0,0,1-3,4.46,4.46,0,0,0-.46-2.27,2,2,0,0,0-1.12-1,5.53,5.53,0,0,0-1.62-.21Z" fill="#fff"/><path d="M212.51,184.61a23.11,23.11,0,0,0-1.57-3,22.75,22.75,0,0,0-1.83-2.54,8.47,8.47,0,0,0,1.53-1.23,8.28,8.28,0,0,0,2.17-5.91,9.2,9.2,0,0,0-.61-3.32,8.35,8.35,0,0,0-1.84-2.86,8.49,8.49,0,0,0-2.77-1.88,9.29,9.29,0,0,0-2.72-.73,26,26,0,0,0-3-.15h-7.63a5,5,0,0,0-5.47,5.46v2.15c-.13-.32-.24-.64-.39-.94a12,12,0,0,0-4.14-4.72c8.84-10,14.1-22.45,14.1-36,0-15.09-6.56-28.85-17.36-39.36l.44-3.35s0-.07,0-.1L179.73,86l-.29,2.24-1.08-1,.19-1.43-1.38-.18-.07.54A68.93,68.93,0,0,0,168,79.81l1.05-1,2.44-2.34-1.72.43c2-1.52,3.22-2.87,3.53-4l.2-.76.43-1.61a14.72,14.72,0,0,0,3.39-10.44l-.08-.85-.86,0-.8,0,.94.9h0v0l-.88,0h-.87c0,.1-.54,10.06-19,13.86-1.73-.63-3.51-1.18-5.31-1.69a26.05,26.05,0,0,0,.38-7.53l-.08-1v0a19.1,19.1,0,0,0,5.3-9.9c1.08-5.66-1.78-10.66-7.47-13.06-6.17-2.59-15.43-1.48-22.49,6.39-5.76-.25-9.78,1.62-13.41,3.32a32.85,32.85,0,0,1-5.31,2.12c-6,1.6-7.8-1.83-7.88-2l0-.07-.06,0-.54-.4v.67A3.74,3.74,0,0,0,101,53.9c2.72,1.6,8,2,14.57-1.63A19.57,19.57,0,0,1,123.85,50h0a52.82,52.82,0,0,1-4.33,5.49l-2.08.88a41,41,0,0,1-5.35,2c-6.09,1.68-8.23-.92-8.25-.94l0,0,0,0-.59-.44.05.74a2.49,2.49,0,0,0,1.44,1.86c1.92,1.09,5.54,1.43,10,.3a29.75,29.75,0,0,1-6.47,3.24,31.66,31.66,0,0,0-6,2.93c-3.45,2.25-5.69,5.48-6.11,8.69l-.25-.1-1-.36-2.23-.81,1.13,2.08.5.92.29.53a72.28,72.28,0,0,0-6.37,3.47c-1-1.49-1.93-3.2-2.92-5l-.89-1.59c-4.73-8.39-9.93-12.76-15.46-13a11.53,11.53,0,0,0-5.74,1.4c-4.87,2.55-8.35,7.83-8.26,12.56a14.05,14.05,0,0,0,2,6.61c4.09,6.8,11.21,7.89,18.1,8.94l.4.06C65,100.88,58.84,114.31,58.84,129c0,15.45,6.87,29.53,18.14,40.12v10.39a4.7,4.7,0,0,1-.59,2.83,2.61,2.61,0,0,1-1.85.46,3.26,3.26,0,0,1-1.69-.3,1.18,1.18,0,0,1-.49-.67,7.92,7.92,0,0,1-.3-2.42V168a5.57,5.57,0,0,0-1.31-3.86,4.77,4.77,0,0,0-3.65-1.57,4.72,4.72,0,0,0-3.61,1.57A5.57,5.57,0,0,0,62.18,168v1.48a7.31,7.31,0,0,0-.59-1.69,8.44,8.44,0,0,0-2.14-2.67A10.38,10.38,0,0,0,56,163.27a14.08,14.08,0,0,0-4.52-.67,14.93,14.93,0,0,0-5.61,1,9.14,9.14,0,0,0-4.16,3.19,8.33,8.33,0,0,0-1.51,4.88,8.08,8.08,0,0,0,1.48,4.88A8.83,8.83,0,0,0,43,177.92a4.5,4.5,0,0,0-1.86,1.14,4.59,4.59,0,0,0-1.33,3.27,8.2,8.2,0,0,0,1.39,4.41,10.11,10.11,0,0,0,3.44,3.33,13.7,13.7,0,0,0,7,1.65,14.46,14.46,0,0,0,6-1.18A9.76,9.76,0,0,0,61.85,187a9.23,9.23,0,0,0,1.08-2.35,9.7,9.7,0,0,0,2.37,4A10,10,0,0,0,69.53,191a18.84,18.84,0,0,0,5.34.68,15.52,15.52,0,0,0,4.71-.66,10.38,10.38,0,0,0,3.91-2.27,9.6,9.6,0,0,0,2.73-4.37,15.25,15.25,0,0,0,.49-2.59v4.47A5.53,5.53,0,0,0,88,190.13a4.93,4.93,0,0,0,7.21,0,5.55,5.55,0,0,0,1.34-3.88v-4h.69a76.24,76.24,0,0,0,11,3.78,5.4,5.4,0,0,0,1.41,3.81,5.46,5.46,0,0,0,4,1.45h12.74a4.88,4.88,0,0,0,3.41-1.19,4.33,4.33,0,0,0,.65-.76,4.79,4.79,0,0,0,.48.7,4.68,4.68,0,0,0,3.71,1.64,4.78,4.78,0,0,0,3.58-1.52,4.89,4.89,0,0,0,1.14-2.28c1.44-.19,2.86-.43,4.26-.7l.15.25c.45.75.83,1.36,1.12,1.79a6.22,6.22,0,0,0,1.6,1.62,4.84,4.84,0,0,0,2.8.83,5.1,5.1,0,0,0,2.35-.54,4.64,4.64,0,0,0,2.1-2.17,4.62,4.62,0,0,0,4.32,2.71,4.79,4.79,0,0,0,3.62-1.54,5.54,5.54,0,0,0,1.34-3.9v-3.11a13.06,13.06,0,0,0,2.55,4.35,12.26,12.26,0,0,0,4.53,3.13,16.63,16.63,0,0,0,11.65,0,12.14,12.14,0,0,0,4.52-3.13,13,13,0,0,0,2.37-3.83v2.55a5.71,5.71,0,0,0,1.23,3.8,4.68,4.68,0,0,0,3.71,1.64,4.77,4.77,0,0,0,3.58-1.52,5.56,5.56,0,0,0,1.34-3.93v-4.75l.15,0a2,2,0,0,1,.65.55,14.51,14.51,0,0,1,1.51,2.21l1.9,3.15c.45.75.83,1.36,1.12,1.79a6.21,6.21,0,0,0,1.6,1.62,4.84,4.84,0,0,0,2.8.83,5.1,5.1,0,0,0,2.35-.54,4.65,4.65,0,0,0,1.79-1.61,4.21,4.21,0,0,0,.71-2.32A6.82,6.82,0,0,0,212.51,184.61ZM147.88,66.31a36.86,36.86,0,0,1-.21,5.32q-1.77-.43-3.58-.78c.11-.82.19-1.53.25-2.16A35.9,35.9,0,0,0,147.88,66.31Z" fill="#231f20"/><path d="M214.81,183.63a25.58,25.58,0,0,0-1.74-3.31,25,25,0,0,0-2-2.83,2.5,2.5,0,0,1-.56,3.68,10.33,10.33,0,0,0,4.82-9.23,11.7,11.7,0,0,0-.77-4.22,10.84,10.84,0,0,0-2.39-3.72,11,11,0,0,0-3.58-2.43,11.66,11.66,0,0,0-3.39-.91,28.61,28.61,0,0,0-3.31-.17h-7.63a7.47,7.47,0,0,0-8,8v2.15a2.5,2.5,0,0,1,4.82-.93l-.09-.23c-.1-.26-.22-.56-.37-.87a14.54,14.54,0,0,0-5-5.69,2.5,2.5,0,0,1,.48,3.73c9.63-10.89,14.73-23.89,14.73-37.61,0-15.17-6.44-29.79-18.12-41.15a2.5,2.5,0,0,1,.74,2.12l.44-3.35c0,.06,0,.12,0,.18a3.07,3.07,0,0,0,.05-.44,1.84,1.84,0,0,1,0,.34,2.5,2.5,0,0,0-2.12-3l-1.67-.22a2.5,2.5,0,0,0-2.8,2.15L177,87.88a2.5,2.5,0,0,1,4.16-1.52l-1.12-1a2.5,2.5,0,0,1,.84,2.21l.19-1.43a2.5,2.5,0,0,0-2.15-2.8l-1.38-.18a2.5,2.5,0,0,0-2.8,2.15l-.07.54a2.5,2.5,0,0,1,4.07-1.6,71.64,71.64,0,0,0-9.41-6.59,2.5,2.5,0,0,1,.46,4l1.05-1,2.44-2.34A2.5,2.5,0,0,0,170.9,74l-1.72.43a2.5,2.5,0,0,1,2.1,4.43c2.57-1.92,4-3.63,4.45-5.38a2.49,2.49,0,0,0,.09-.65,2.46,2.46,0,0,1-.08.63l.2-.75.43-1.61a2.49,2.49,0,0,1-.44.89,17.14,17.14,0,0,0,3.91-12.21l-.08-.85a2.5,2.5,0,0,0-2.61-2.26l-.86,0-.8,0a2.5,2.5,0,0,0-1.61,4.31l.94.9a2.5,2.5,0,0,1,1.73-4.31A2.46,2.46,0,0,1,179,60a2.54,2.54,0,0,0-2.61-2.37l-.88,0h-.75a2.5,2.5,0,0,0-2.5,2.42c0,.26-.88,8.17-17,11.49a2.5,2.5,0,0,1,1.35.1c-1.67-.6-3.46-1.17-5.48-1.74a2.5,2.5,0,0,1,1.79,2.78,28.46,28.46,0,0,0,.4-8.1l-.07-1c0,.06,0,.1,0,.16a2.5,2.5,0,0,1-.71,1.75,21.63,21.63,0,0,0,6-11.18c1.3-6.78-2.22-13-9-15.83s-17.37-1.84-25.32,7a2.5,2.5,0,0,1,2-.83c-6.38-.28-10.92,1.84-14.57,3.55a31,31,0,0,1-4.9,2c-3.83,1-4.92-.57-5-.75l0,.06a2.74,2.74,0,0,0-1.15-1.18,2.42,2.42,0,0,1,.39.24l0,0-.57-.42a2.5,2.5,0,0,0-4,2v.67a6.15,6.15,0,0,0,3.35,5.22c1.61.95,7.6,3.64,17.05-1.6A17,17,0,0,1,124,52.51,2.5,2.5,0,0,1,122.35,48a2.5,2.5,0,0,0-.55.57,50.15,50.15,0,0,1-4.12,5.23,2.5,2.5,0,0,1,.9-.63c-.75.31-1.49.62-2.12.9a39.13,39.13,0,0,1-5,1.91c-4.23,1.17-5.72-.2-5.74-.21l.14.16.07.1a2.75,2.75,0,0,0-.63-.65l-.57-.43a2.5,2.5,0,0,0-4,2.17l.05.74a4.89,4.89,0,0,0,2.69,3.86c2.71,1.55,7.13,1.75,11.82.55a2.5,2.5,0,0,1-2-4.48,27.58,27.58,0,0,1-6,3,34.22,34.22,0,0,0-6.5,3.16C96.68,66.6,94,70.41,93.52,74.4a2.5,2.5,0,0,1,3.44-2l-.31-.13-.18-.06-.87-.32-2.23-.81a2.5,2.5,0,0,0-3.05,3.54l1.13,2.08.5.92.29.53a2.5,2.5,0,0,1,1.11-3.45c-2.25,1.08-4.47,2.29-6.59,3.59a2.5,2.5,0,0,1,3.4.77c-.9-1.38-1.82-3-2.83-4.83l-.1-.17.1.16-.89-1.58.05.1-.06-.11c-5.19-9.19-11.09-14-17.53-14.25a14,14,0,0,0-7,1.68c-5.76,3-9.71,9.11-9.6,14.83a16.42,16.42,0,0,0,2.39,7.85c4.69,7.81,12.75,9,19.87,10.13l.17,0L75,93a2.5,2.5,0,0,1-1.4-4.23C62.45,99.95,56.34,114.25,56.34,129c0,15.57,6.72,30.47,18.92,41.94a2.5,2.5,0,0,1-.79-1.82v10.39A4.14,4.14,0,0,1,74.3,181a.9.9,0,0,1,.11-.17,1.63,1.63,0,0,1,.71-.55,2.5,2.5,0,0,1-.58,0,2.63,2.63,0,0,1-.63-.05,1.3,1.3,0,0,1,.29.15,1.37,1.37,0,0,1,.53.64,5.46,5.46,0,0,1-.17-1.63V168a8,8,0,0,0-2-5.54,7.49,7.49,0,0,0-11,0A8,8,0,0,0,59.68,168v1.48a2.5,2.5,0,0,1,4.94-.53,9.83,9.83,0,0,0-.79-2.26,10.9,10.9,0,0,0-2.76-3.46,12.84,12.84,0,0,0-4.24-2.35,16.57,16.57,0,0,0-5.32-.8A17.41,17.41,0,0,0,45,161.27a11.59,11.59,0,0,0-5.27,4.07,10.79,10.79,0,0,0-2,6.32,10.52,10.52,0,0,0,2,6.36,11.22,11.22,0,0,0,1.62,1.76,2.5,2.5,0,0,1,.9-4.24,7,7,0,0,0-2.88,1.77,7.14,7.14,0,0,0-2,5,10.64,10.64,0,0,0,1.78,5.75,12.59,12.59,0,0,0,4.28,4.14,16.17,16.17,0,0,0,8.23,2,16.94,16.94,0,0,0,7-1.4,12.21,12.21,0,0,0,5.33-4.48,11.75,11.75,0,0,0,1.38-3,2.5,2.5,0,0,1-4.77,0,12.17,12.17,0,0,0,3,5,12.42,12.42,0,0,0,5.27,3,21.29,21.29,0,0,0,6.06.79,18,18,0,0,0,5.47-.78,12.85,12.85,0,0,0,4.84-2.81,12.09,12.09,0,0,0,3.43-5.5,17.58,17.58,0,0,0,.58-3,2.5,2.5,0,0,1-5-.27v4.47a8,8,0,0,0,2,5.52,7.43,7.43,0,0,0,10.92,0,8.07,8.07,0,0,0,2-5.57v-4a2.5,2.5,0,0,1-2.5,2.5h.69a2.5,2.5,0,0,1-1-.2,79,79,0,0,0,11.37,3.9,2.5,2.5,0,0,1-1.87-2.36,7.41,7.41,0,0,0,7.95,7.69h12.74a7.39,7.39,0,0,0,5.1-1.85,6.75,6.75,0,0,0,1-1.2,2.5,2.5,0,0,1-4.23-.16,7.07,7.07,0,0,0,6.36,3.59,7.18,7.18,0,0,0,7.16-5.73,2.5,2.5,0,0,1-2.1,1.91c1.36-.18,2.8-.42,4.4-.72a2.51,2.51,0,0,1-2.61-1.18l.17.28c.45.76.85,1.4,1.19,1.89a8.77,8.77,0,0,0,2.25,2.28,7.3,7.3,0,0,0,4.22,1.27,7.58,7.58,0,0,0,3.49-.82,7.13,7.13,0,0,0,3.22-3.33,2.5,2.5,0,0,1-4.51,0,7.18,7.18,0,0,0,1.15,1.75,7.44,7.44,0,0,0,10.88,0,8.06,8.06,0,0,0,2-5.6v-3.11a2.5,2.5,0,0,1-4.85.85,15.54,15.54,0,0,0,3,5.18,14.74,14.74,0,0,0,5.44,3.77,19.12,19.12,0,0,0,13.53,0,14.62,14.62,0,0,0,5.44-3.77,15.56,15.56,0,0,0,2.83-4.57,2.5,2.5,0,0,1-4.82-.94v2.55a8.13,8.13,0,0,0,1.82,5.42,7.23,7.23,0,0,0,5.62,2.52,7.31,7.31,0,0,0,5.41-2.31,8,8,0,0,0,2-5.64v-4.75a2.5,2.5,0,0,1-3.11,2.42l-.13,0a1.58,1.58,0,0,1-.41-.22l.09.1a12.18,12.18,0,0,1,1.23,1.82l.06.1,1.85,3.07-.09-.17.09.17c.46.77.87,1.42,1.2,1.91a8.75,8.75,0,0,0,2.25,2.28,7.29,7.29,0,0,0,4.22,1.27,7.58,7.58,0,0,0,3.49-.82,7.13,7.13,0,0,0,2.75-2.47,6.67,6.67,0,0,0,1.11-3.68A9,9,0,0,0,214.81,183.63Zm-4.1,3.6a1.73,1.73,0,0,1-.31,1,2.16,2.16,0,0,1-.84.75,2.59,2.59,0,0,1-1.2.26,2.36,2.36,0,0,1-1.38-.39,3.7,3.7,0,0,1-1-1c-.27-.39-.63-1-1-1.66L203,183l.06.1a17.17,17.17,0,0,0-1.8-2.61,4.36,4.36,0,0,0-1.6-1.21,3.84,3.84,0,0,0-.46-.15,2.5,2.5,0,0,0-3.11,2.42v4.75a3.19,3.19,0,0,1-.68,2.23,2.27,2.27,0,0,1-1.75.72,2.22,2.22,0,0,1-1.81-.76,3.32,3.32,0,0,1-.64-2.19V183.7a2.5,2.5,0,0,0-4.82-.94,10.57,10.57,0,0,1-1.91,3.1,9.64,9.64,0,0,1-3.59,2.48,14.15,14.15,0,0,1-9.77,0,9.77,9.77,0,0,1-3.61-2.49,10.59,10.59,0,0,1-2.05-3.52,2.5,2.5,0,0,0-4.85.85v3.11a3.12,3.12,0,0,1-.68,2.2,2.29,2.29,0,0,1-1.78.74,2.23,2.23,0,0,1-1.73-.75,2.31,2.31,0,0,1-.34-.55,2.5,2.5,0,0,0-4.51,0,2.3,2.3,0,0,1-.15.26,2.15,2.15,0,0,1-.84.75,2.59,2.59,0,0,1-1.2.26,2.36,2.36,0,0,1-1.38-.39,3.69,3.69,0,0,1-1-1c-.27-.39-.63-1-1-1.66l-.15-.25a2.51,2.51,0,0,0-2.61-1.18c-1.5.29-2.85.51-4.13.68a2.5,2.5,0,0,0-2.1,1.91,2.47,2.47,0,0,1-.54,1.14,2.28,2.28,0,0,1-1.76.72,2.22,2.22,0,0,1-1.81-.76,2.42,2.42,0,0,1-.23-.34,2.5,2.5,0,0,0-4.23-.16,1.84,1.84,0,0,1-.27.33,2.45,2.45,0,0,1-1.73.54H113.73a3.1,3.1,0,0,1-2.27-.7,3,3,0,0,1-.69-2.11,2.5,2.5,0,0,0-1.87-2.36A74,74,0,0,1,98.25,180a2.5,2.5,0,0,0-1-.2h-.69a2.5,2.5,0,0,0-2.5,2.5v4a3.11,3.11,0,0,1-.69,2.19,2.43,2.43,0,0,1-3.51,0,3.1,3.1,0,0,1-.67-2.17v-4.47a2.5,2.5,0,0,0-5-.27,12.87,12.87,0,0,1-.41,2.17,7.15,7.15,0,0,1-2,3.24,7.89,7.89,0,0,1-3,1.71,13.05,13.05,0,0,1-3.95.54,16.4,16.4,0,0,1-4.63-.58,7.5,7.5,0,0,1-3.18-1.8,7.24,7.24,0,0,1-1.75-3,2.5,2.5,0,0,0-4.77,0,6.75,6.75,0,0,1-.79,1.72,7.3,7.3,0,0,1-3.2,2.65,12,12,0,0,1-5,1,11.28,11.28,0,0,1-5.71-1.31,7.61,7.61,0,0,1-2.58-2.5,5.74,5.74,0,0,1-1-3.07,2.08,2.08,0,0,1,.62-1.52,2,2,0,0,1,.84-.5,2.5,2.5,0,0,0,.9-4.24,6.35,6.35,0,0,1-.91-1,5.64,5.64,0,0,1-1-3.41,5.8,5.8,0,0,1,1.06-3.45,6.68,6.68,0,0,1,3.05-2.31,12.47,12.47,0,0,1,4.67-.8,11.61,11.61,0,0,1,3.71.53,7.89,7.89,0,0,1,2.6,1.42,6,6,0,0,1,1.52,1.87,4.79,4.79,0,0,1,.39,1.11,2.5,2.5,0,0,0,4.94-.53V168a3.19,3.19,0,0,1,.66-2.19,2.22,2.22,0,0,1,1.75-.74,2.28,2.28,0,0,1,1.8.74,3.19,3.19,0,0,1,.66,2.19v11.38a10.18,10.18,0,0,0,.43,3.21,3.68,3.68,0,0,0,1.5,2,5.63,5.63,0,0,0,3.05.71,4.59,4.59,0,0,0,3.82-1.42,7.09,7.09,0,0,0,1.12-4.37V169.11a2.5,2.5,0,0,0-.79-1.82C67.5,156.77,61.34,143.17,61.34,129c0-13.42,5.6-26.47,15.78-36.75A2.5,2.5,0,0,0,75.72,88l-.22,0-.18,0c-6.61-1-12.86-2-16.34-7.76a11.62,11.62,0,0,1-1.68-5.37c-.07-3.77,2.9-8.2,6.92-10.3a9,9,0,0,1,4.48-1.12c4.6.19,9.1,4.13,13.38,11.71.93,1.66.93,1.66,1,1.75L83,76.7c1.06,1.91,2,3.61,3,5.13a2.5,2.5,0,0,0,3.4.77c2-1.21,4.05-2.34,6.15-3.35a2.5,2.5,0,0,0,1.11-3.45l-.29-.53-.5-.92-1.13-2.08a2.5,2.5,0,0,1-3.05,3.54l2.23.81L95,77,94.84,77,95,77a2.5,2.5,0,0,0,3.44-2c.33-2.51,2.2-5.09,5-6.92a29.23,29.23,0,0,1,5.6-2.7,32.1,32.1,0,0,0,7-3.51,2.5,2.5,0,0,0-2-4.48c-3.82,1-6.82.68-8.1-.05a1.11,1.11,0,0,1-.29-.21.69.69,0,0,1,.11.35l-.05-.73a2.5,2.5,0,0,1-4,2.17l.59.44a2.24,2.24,0,0,1-.54-.59l.13.18c.12.15,3.13,4,10.89,1.82a42.81,42.81,0,0,0,5.68-2.14l2-.86a2.5,2.5,0,0,0,.9-.63,55.08,55.08,0,0,0,4.53-5.75,2.49,2.49,0,0,1-.55.57,2.5,2.5,0,0,0-1.64-4.5,22,22,0,0,0-9.39,2.56c-5.68,3.14-10.06,2.86-12.09,1.67-.66-.39-.89-.79-.89-.91v-.67a2.5,2.5,0,0,1-4,2l.54.4a3.46,3.46,0,0,0,.44.28,2.5,2.5,0,0,1-1.11-1.1l0,.07c1,2,4.42,5,10.75,3.26a35.2,35.2,0,0,0,5.72-2.27c3.48-1.62,7.08-3.31,12.24-3.08a2.5,2.5,0,0,0,2-.83c6.31-7,14.42-8,19.66-5.75,4.61,1.94,6.84,5.78,6,10.28a16.5,16.5,0,0,1-4.64,8.62,2.5,2.5,0,0,0-.71,1.75c0,.09,0,.2,0,.29,0-.07.07.93.07.93a23.82,23.82,0,0,1-.36,7,2.5,2.5,0,0,0,1.79,2.78c1.9.54,3.58,1.07,5.13,1.63a2.5,2.5,0,0,0,1.35.1c20.41-4.2,21-15.75,21-16.23a2.5,2.5,0,0,1-2.5,2.42h1l.88,0A2.5,2.5,0,0,1,174,60.31a2.51,2.51,0,0,0,4.84.8,2.49,2.49,0,0,0-.57-2.74l-.94-.9a2.5,2.5,0,0,1-1.61,4.31l.8,0,.86,0a2.5,2.5,0,0,1-2.61-2.26l.08.85A12.08,12.08,0,0,1,172,69a2.49,2.49,0,0,0-.44.89l-.43,1.61a4.34,4.34,0,0,0-.29,1.4,2.49,2.49,0,0,1,.09-.65s-.27.92-2.61,2.67a2.5,2.5,0,0,0,2.1,4.43l1.72-.43a2.5,2.5,0,0,1-2.34-4.23L167.34,77l-1.05,1a2.5,2.5,0,0,0,.46,4,66.64,66.64,0,0,1,8.75,6.13,2.5,2.5,0,0,0,4.07-1.6l.07-.54a2.5,2.5,0,0,1-2.8,2.15l1.38.18a2.5,2.5,0,0,1-2.15-2.8l-.19,1.43a2.5,2.5,0,0,0,.84,2.21l1,.93a2.5,2.5,0,0,0,4.16-1.52l.29-2.24a2.5,2.5,0,0,1-2.8,2.15l1.67.22a2.5,2.5,0,0,1-2.12-3,3.07,3.07,0,0,0-.05.44,1.84,1.84,0,0,1,0-.34c0,.06,0,.12,0,.18l-.44,3.35a2.5,2.5,0,0,0,.74,2.12c10.71,10.41,16.61,23.76,16.61,37.57,0,12.47-4.66,24.33-13.47,34.29a2.5,2.5,0,0,0,.48,3.73,9.6,9.6,0,0,1,3.29,3.75c.06.12.13.29.2.48l.11.29a2.5,2.5,0,0,0,4.82-.93v-2.15a2.55,2.55,0,0,1,3-3h7.63a23.64,23.64,0,0,1,2.72.14,6.83,6.83,0,0,1,2,.52,6.11,6.11,0,0,1,2,1.36,5.85,5.85,0,0,1,1.29,2,6.72,6.72,0,0,1,.44,2.42,5.79,5.79,0,0,1-1.48,4.19,6.1,6.1,0,0,1-1.08.87,2.5,2.5,0,0,0-.56,3.68,20.12,20.12,0,0,1,1.63,2.26,20.77,20.77,0,0,1,1.4,2.65A5.2,5.2,0,0,1,210.71,187.24Z" fill="#bde7fb"/><path d="M145.38,66.4a34.54,34.54,0,0,1-.2,5,2.5,2.5,0,0,1,3.08-2.16c-1.21-.29-2.45-.57-3.69-.81a2.5,2.5,0,0,1,2,2.8c.11-.83.2-1.57.26-2.27a2.5,2.5,0,0,1-1.22,1.92,38.57,38.57,0,0,0,3.79-2.55,2.5,2.5,0,0,1-4-1.89Zm-3.53,2.06c-.06.62-.14,1.29-.24,2a2.5,2.5,0,0,0,2,2.8c1.17.23,2.33.48,3.47.76a2.5,2.5,0,0,0,3.08-2.16,39.36,39.36,0,0,0,.22-5.68,2.5,2.5,0,0,0-4-1.89,33.49,33.49,0,0,1-3.29,2.21A2.5,2.5,0,0,0,141.85,68.46Z" fill="#bde7fb"/><path d="M166.6,179.7l.65-7.25,3-3.5,4.27-1.16,6.09.26,9.45,3.88,2.72-1.29,2.46-1.29,6.34-.13,2.2,1.29s1.29.39,1.29,1.42a3.67,3.67,0,0,1-.78,2.46c-.39.26-.91,2.07-2.2,2.07s-6,.26-6,.26a7,7,0,0,1-3.5,1.68c-2.2.39-7.38.78-7.38.78s-1.55,2.85-2.85,3.5a33.19,33.19,0,0,1-4.79,2.07c-1.68.52-5.18,1.94-6.08,1.68a17,17,0,0,1-3-1.68" fill="#231f20"/><path d="M67.68,183.33l-1.16-10.87-7-3.11-8.42-1.55s-3.5.39-3.75,1.55-1.17,2.46-.65,3,1.94,1.81,1.94,1.81l-.39,2.59-1.55,3.37-.26,3.5s3.88,2.2,4.4,1.94a52.85,52.85,0,0,1,5.57-.65" fill="#231f20"/><ellipse cx="128.58" cy="128.99" rx="69.74" ry="59.64" fill="#231f20"/><ellipse cx="128.58" cy="124.47" rx="63.69" ry="54.46" fill="#2bc5f4"/><path d="M60.78,181.77a6.78,6.78,0,0,1-1.08,3.77,7.19,7.19,0,0,1-3.17,2.62,11.9,11.9,0,0,1-4.94.95,11.14,11.14,0,0,1-5.66-1.29,7.48,7.48,0,0,1-2.55-2.48,5.65,5.65,0,0,1-1-3,2,2,0,0,1,2.09-2.06,1.77,1.77,0,0,1,1.25.47,3.74,3.74,0,0,1,.87,1.4,9.34,9.34,0,0,0,1,1.84A3.87,3.87,0,0,0,49,185.18a5.36,5.36,0,0,0,2.45.48,5.54,5.54,0,0,0,3.39-1,2.91,2.91,0,0,0,1.3-2.42,2.56,2.56,0,0,0-.7-1.87,4.54,4.54,0,0,0-1.82-1.09q-1.12-.38-3-.8a21.71,21.71,0,0,1-4.16-1.36A6.73,6.73,0,0,1,43.83,175a5.51,5.51,0,0,1-1-3.34,5.74,5.74,0,0,1,1-3.38,6.56,6.56,0,0,1,3-2.27,12.38,12.38,0,0,1,4.64-.79,11.49,11.49,0,0,1,3.68.53,7.79,7.79,0,0,1,2.58,1.4A5.85,5.85,0,0,1,59.3,169a4.22,4.22,0,0,1,.47,1.87,2.21,2.21,0,0,1-.59,1.5,1.89,1.89,0,0,1-1.48.67,1.69,1.69,0,0,1-1.22-.41,5.48,5.48,0,0,1-.91-1.33,5.94,5.94,0,0,0-1.52-2,4.48,4.48,0,0,0-2.85-.73,5,5,0,0,0-2.93.8,2.31,2.31,0,0,0-1.12,1.91,1.93,1.93,0,0,0,.38,1.2,3.18,3.18,0,0,0,1,.87,7.05,7.05,0,0,0,1.34.57q.68.21,2.25.6a35.45,35.45,0,0,1,3.55,1,10.78,10.78,0,0,1,2.7,1.34,5.52,5.52,0,0,1,1.74,2A6.37,6.37,0,0,1,60.78,181.77Z" fill="#fff"/><path d="M58.28,181.77a4.3,4.3,0,0,1-.68,2.41,4.72,4.72,0,0,1-2.1,1.7,9.51,9.51,0,0,1-3.91.72,8.77,8.77,0,0,1-4.4-1A4.94,4.94,0,0,1,45.5,184a3.26,3.26,0,0,1-.59-1.68.5.5,0,0,1-.12.28.55.55,0,0,1-.3.15h0a.75.75,0,0,1-.45-.19h0a1.74,1.74,0,0,1,.25.49,11.79,11.79,0,0,0,1.23,2.36,6.36,6.36,0,0,0,2.36,2,7.7,7.7,0,0,0,3.59.76,8,8,0,0,0,4.88-1.46,5.37,5.37,0,0,0,2.31-4.42,5,5,0,0,0-1.42-3.62,7,7,0,0,0-2.8-1.71c-.83-.28-1.89-.57-3.23-.87a19.3,19.3,0,0,1-3.67-1.19,4.24,4.24,0,0,1-1.7-1.33,3.07,3.07,0,0,1-.5-1.87,3.22,3.22,0,0,1,.59-1.95,4.09,4.09,0,0,1,1.9-1.4,10,10,0,0,1,3.7-.61,9.1,9.1,0,0,1,2.88.39,5.39,5.39,0,0,1,1.76.94,3.44,3.44,0,0,1,.88,1,1.8,1.8,0,0,1,.22.77.36.36,0,0,1,0-.17v0a.63.63,0,0,1,.4-.17h0a1.05,1.05,0,0,1,.55.3,3.8,3.8,0,0,1-.44-.71,8.28,8.28,0,0,0-2.14-2.79A6.75,6.75,0,0,0,51.2,166a7.39,7.39,0,0,0-4.39,1.26,4.81,4.81,0,0,0-2.16,3.95,4.45,4.45,0,0,0,.88,2.7,5.69,5.69,0,0,0,1.85,1.56,9.54,9.54,0,0,0,1.82.76c.5.15,1.29.36,2.36.63a33.39,33.39,0,0,1,3.34.95,8.38,8.38,0,0,1,2.08,1,3,3,0,0,1,1,1.1A4,4,0,0,1,58.28,181.77Zm4.1-4.1a8,8,0,0,0-2.51-2.88,13.3,13.3,0,0,0-3.33-1.66,38.25,38.25,0,0,0-3.8-1.08c-1.19-.3-1.8-.47-2.09-.56a4.57,4.57,0,0,1-.87-.37.81.81,0,0,1-.25-.18.62.62,0,0,1,.12.31.46.46,0,0,1-.08.24.83.83,0,0,1,.14-.12A2.64,2.64,0,0,1,51.2,171a2.9,2.9,0,0,1,1.29.18l0,0a3.52,3.52,0,0,1,.86,1.19,7.85,7.85,0,0,0,1.41,2,4.12,4.12,0,0,0,3,1.11A4.42,4.42,0,0,0,61,174a4.71,4.71,0,0,0,1.22-3.16,6.72,6.72,0,0,0-.73-3,8.34,8.34,0,0,0-2.12-2.63,10.29,10.29,0,0,0-3.4-1.86,14,14,0,0,0-4.49-.66,14.9,14.9,0,0,0-5.57,1,9.05,9.05,0,0,0-4.12,3.16,8.21,8.21,0,0,0-1.5,4.82,8,8,0,0,0,1.47,4.82,9.23,9.23,0,0,0,3.63,2.92,24.29,24.29,0,0,0,4.65,1.53c1.17.27,2.09.51,2.75.74a2.1,2.1,0,0,1,.84.48l0,0a.56.56,0,0,1,0,.16c0,.09,0,.19-.3.41a3.18,3.18,0,0,1-1.9.48,3,3,0,0,1-1.3-.2,1.46,1.46,0,0,1-.54-.42,6.94,6.94,0,0,1-.69-1.35,6.06,6.06,0,0,0-1.49-2.3,4.26,4.26,0,0,0-2.95-1.14,4.54,4.54,0,0,0-4.59,4.56,8.12,8.12,0,0,0,1.37,4.35,10,10,0,0,0,3.39,3.3,13.62,13.62,0,0,0,6.93,1.64,14.42,14.42,0,0,0,6-1.17,9.68,9.68,0,0,0,4.23-3.53,9.28,9.28,0,0,0,1.48-5.13A8.86,8.86,0,0,0,62.38,177.67Z" fill="#231f20"/><path d="M64.78,179.16v-11.1a3.09,3.09,0,0,1,.64-2.13,2.15,2.15,0,0,1,1.68-.71,2.21,2.21,0,0,1,1.73.71,3.09,3.09,0,0,1,.64,2.13v11.37a10.38,10.38,0,0,0,.43,3.24,3.75,3.75,0,0,0,1.54,2,5.63,5.63,0,0,0,3.09.72q2.74,0,3.87-1.46a7.16,7.16,0,0,0,1.13-4.42V168.06a3.11,3.11,0,0,1,.63-2.14,2.16,2.16,0,0,1,1.69-.7,2.24,2.24,0,0,1,1.71.7,3,3,0,0,1,.66,2.14v11.11a16.41,16.41,0,0,1-.53,4.52,7,7,0,0,1-2,3.18,7.75,7.75,0,0,1-2.93,1.69,13,13,0,0,1-3.91.53,16.17,16.17,0,0,1-4.59-.57,7.33,7.33,0,0,1-3.14-1.78,7.16,7.16,0,0,1-1.78-3.09A15.66,15.66,0,0,1,64.78,179.16Z" fill="#fff"/><path d="M67.28,179.16v-11.1a1.59,1.59,0,0,1,.06-.55.38.38,0,0,1-.07.09.44.44,0,0,1-.21.12h.1a.43.43,0,0,1-.2-.12.39.39,0,0,1-.07-.09,1.59,1.59,0,0,1,.06.55v11.37a12.7,12.7,0,0,0,.56,4,6.21,6.21,0,0,0,2.54,3.32,8,8,0,0,0,4.45,1.12c2.63,0,4.6-.82,5.85-2.42a9.42,9.42,0,0,0,1.66-6V168.06a1.68,1.68,0,0,1,.06-.57.44.44,0,0,1-.08.11.47.47,0,0,1-.22.13h.1a.39.39,0,0,1-.17-.09.48.48,0,0,1-.08-.11,1.57,1.57,0,0,1,.06.54v11.11a14.07,14.07,0,0,1-.43,3.82,4.49,4.49,0,0,1-1.3,2.06,5.2,5.2,0,0,1-2,1.13,10.56,10.56,0,0,1-3.15.41,13.81,13.81,0,0,1-3.87-.47A4.84,4.84,0,0,1,68.89,185a4.68,4.68,0,0,1-1.15-2A13.3,13.3,0,0,1,67.28,179.16Zm-4.33,5.22a9.66,9.66,0,0,0,2.42,4.14,9.82,9.82,0,0,0,4.18,2.4,18.72,18.72,0,0,0,5.3.68,15.48,15.48,0,0,0,4.66-.65,10.26,10.26,0,0,0,3.87-2.23,9.49,9.49,0,0,0,2.71-4.33,18.67,18.67,0,0,0,.63-5.22V168.06a5.43,5.43,0,0,0-1.33-3.84,4.72,4.72,0,0,0-3.54-1.5,4.63,4.63,0,0,0-3.55,1.53A5.51,5.51,0,0,0,77,168.06v11.47a4.78,4.78,0,0,1-.61,2.89,2.6,2.6,0,0,1-1.9.49,3.27,3.27,0,0,1-1.72-.31,1.25,1.25,0,0,1-.53-.71,8,8,0,0,1-.3-2.45V168.06a5.49,5.49,0,0,0-1.28-3.8,4.68,4.68,0,0,0-3.59-1.54,4.63,4.63,0,0,0-3.54,1.54,5.48,5.48,0,0,0-1.28,3.8v11.1A18.21,18.21,0,0,0,62.95,184.38Z" fill="#231f20"/><path d="M98.27,179.73H94v6.53a3,3,0,0,1-.66,2.12,2.34,2.34,0,0,1-3.38,0,3,3,0,0,1-.65-2.1V168.47a2.9,2.9,0,0,1,.71-2.21,3.25,3.25,0,0,1,2.26-.66h6a16,16,0,0,1,4.12.41,6.12,6.12,0,0,1,2.45,1.31,5.9,5.9,0,0,1,1.57,2.24,7.89,7.89,0,0,1,.54,3,6.58,6.58,0,0,1-2.18,5.36Q102.59,179.73,98.27,179.73ZM97.13,169.1H94v7.13h3.17a9.45,9.45,0,0,0,2.78-.35,3.25,3.25,0,0,0,1.71-1.15,3.42,3.42,0,0,0,.59-2.08,3.54,3.54,0,0,0-.9-2.51Q100.29,169.1,97.13,169.1Z" fill="#fff"/><path d="M98.27,177.23H91.46v9a1.42,1.42,0,0,1-.06.51.32.32,0,0,1,.05-.07.38.38,0,0,1,.19-.09h-.06a.41.41,0,0,1,.19.11.35.35,0,0,1,.06.08,1.44,1.44,0,0,1-.06-.51V168.47a1.78,1.78,0,0,1,.06-.57.62.62,0,0,1-.15.19.5.5,0,0,1-.12.08,2,2,0,0,1,.68-.08h6a13.32,13.32,0,0,1,3.44.31,3.62,3.62,0,0,1,1.48.78,3.4,3.4,0,0,1,.91,1.31,5.45,5.45,0,0,1,.35,2c0,2.12-.73,3-1.29,3.44C102.18,176.81,100.54,177.23,98.27,177.23Zm8.1,2.6a9,9,0,0,0,3.08-7.28,10.42,10.42,0,0,0-.72-3.92,8.41,8.41,0,0,0-2.23-3.18,8.63,8.63,0,0,0-3.44-1.85,18.11,18.11,0,0,0-4.79-.5h-6a5.63,5.63,0,0,0-4,1.33,5.27,5.27,0,0,0-1.51,4v17.81a5.45,5.45,0,0,0,1.29,3.78,4.84,4.84,0,0,0,7.08,0,5.45,5.45,0,0,0,1.32-3.81v-6.53l-2.5,2.5h4.32C101.74,182.23,104.47,181.42,106.37,179.82Z" fill="#231f20"/><path d="M97.13,166.6H91.46v12.13h5.67a11.77,11.77,0,0,0,3.53-.46,5.7,5.7,0,0,0,3-2,5.87,5.87,0,0,0,1.08-3.57,6.05,6.05,0,0,0-1.58-4.22C101.89,167.17,100,166.6,97.13,166.6Zm2.34,5.24a1,1,0,0,1,.23.81,1.14,1.14,0,0,1-.1.6.94.94,0,0,1-.44.24,7,7,0,0,1-2,.24H94l2.5,2.5V169.1L94,171.6h3.17a5.28,5.28,0,0,1,2.45.34Z" fill="#231f20"/><path d="M126.07,169.23H115.51v5.69h9.72a2.33,2.33,0,0,1,1.6.48,1.62,1.62,0,0,1,.53,1.26,1.67,1.67,0,0,1-.52,1.27,2.28,2.28,0,0,1-1.61.49h-9.72V185h10.92a2.41,2.41,0,0,1,1.66.51,1.74,1.74,0,0,1,.56,1.35,1.7,1.7,0,0,1-.56,1.32,2.4,2.4,0,0,1-1.66.51H113.7a2.45,2.45,0,0,1-2.87-2.87V168.47a3.89,3.89,0,0,1,.3-1.65,1.86,1.86,0,0,1,.94-.93,4,4,0,0,1,1.63-.29h12.37a2.4,2.4,0,0,1,1.66.5,1.69,1.69,0,0,1,.54,1.31,1.71,1.71,0,0,1-.54,1.32A2.4,2.4,0,0,1,126.07,169.23Z" fill="#fff"/><path d="M126.07,166.73H113v10.69h12.22a1.1,1.1,0,0,1,.23,0,.82.82,0,0,1-.3-.18.92.92,0,0,1-.3-.6.86.86,0,0,1,.26-.54.85.85,0,0,1,.33-.21,1.12,1.12,0,0,1-.22,0H113v11.63h13.42a1.1,1.1,0,0,1,.24,0,.72.72,0,0,1-.25-.16.81.81,0,0,1-.26-.5.83.83,0,0,1,.26-.53.73.73,0,0,1,.26-.16,1.1,1.1,0,0,1-.24,0H113.7a1.84,1.84,0,0,1-.6-.06.58.58,0,0,1,.17.13.59.59,0,0,1,.12.16,1.81,1.81,0,0,1-.06-.59V168.47a1.77,1.77,0,0,1,.06-.59h0a.64.64,0,0,1-.28.28,1.82,1.82,0,0,1,.59-.06h12.37a1.08,1.08,0,0,1,.26,0,.82.82,0,0,1-.28-.18.66.66,0,0,1,0-1.06.81.81,0,0,1,.28-.18A1.09,1.09,0,0,1,126.07,166.73Zm3.35,3.85a4.35,4.35,0,0,0,0-6.32,4.79,4.79,0,0,0-3.35-1.15H113.7a6.41,6.41,0,0,0-2.67.52,4.37,4.37,0,0,0-2.16,2.15,6.26,6.26,0,0,0-.54,2.71v17.38a4.89,4.89,0,0,0,5.37,5.37h12.73a4.8,4.8,0,0,0,3.34-1.16,4.37,4.37,0,0,0,0-6.37,4.81,4.81,0,0,0-3.34-1.16H115.51L118,185v-6.62l-2.5,2.5h9.72a4.67,4.67,0,0,0,3.33-1.17,4.28,4.28,0,0,0,0-6.2,4.74,4.74,0,0,0-3.28-1.12h-9.72l2.5,2.5v-5.69l-2.5,2.5h10.56A4.8,4.8,0,0,0,129.42,170.57Z" fill="#231f20"/><path d="M138.71,178.85h-1.64v7.4a3.07,3.07,0,0,1-.65,2.15,2.21,2.21,0,0,1-1.69.69,2.16,2.16,0,0,1-1.74-.72,3.21,3.21,0,0,1-.62-2.13V168.47a2.46,2.46,0,0,1,2.87-2.87h7.61a23.2,23.2,0,0,1,2.69.13,6.81,6.81,0,0,1,2,.54,5.86,5.86,0,0,1,1.92,1.31,5.74,5.74,0,0,1,1.27,2,6.62,6.62,0,0,1,.43,2.39,5.79,5.79,0,0,1-1.46,4.14,8.38,8.38,0,0,1-4.43,2.2,8.59,8.59,0,0,1,2.38,2,19.84,19.84,0,0,1,2,2.75,20.46,20.46,0,0,1,1.39,2.63,5.19,5.19,0,0,1,.5,1.61,1.64,1.64,0,0,1-.29.9,2,2,0,0,1-.8.71,2.53,2.53,0,0,1-1.17.26,2.29,2.29,0,0,1-1.32-.37,3.57,3.57,0,0,1-.92-.94q-.39-.57-1-1.67L144.18,183a17.19,17.19,0,0,0-1.8-2.61,4.45,4.45,0,0,0-1.61-1.23A5.55,5.55,0,0,0,138.71,178.85Zm2.67-9.75h-4.31v6.38h4.18a11.66,11.66,0,0,0,2.83-.29,3.32,3.32,0,0,0,1.75-1,2.88,2.88,0,0,0,.61-1.94,3,3,0,0,0-.49-1.7,3,3,0,0,0-1.35-1.1A9.69,9.69,0,0,0,141.38,169.1Z" fill="#fff"/><path d="M138.71,176.35h-4.14v9.9a1.7,1.7,0,0,1-.06.57.52.52,0,0,1,.09-.13.4.4,0,0,1,.18-.1h-.12a.53.53,0,0,1,.25.16l0,.07a1.6,1.6,0,0,1-.07-.58V168.47a1.81,1.81,0,0,1,.06-.58.68.68,0,0,1-.28.28,1.8,1.8,0,0,1,.58-.06h7.61a20.87,20.87,0,0,1,2.4.12,4.36,4.36,0,0,1,1.28.34,3.48,3.48,0,0,1,1.17.79,3.23,3.23,0,0,1,.72,1.13,4.1,4.1,0,0,1,.27,1.5,3.38,3.38,0,0,1-.78,2.42,6.07,6.07,0,0,1-3.14,1.47l-6.66,1.45,6,3.2a6.18,6.18,0,0,1,1.68,1.4,17.57,17.57,0,0,1,1.77,2.4,18.19,18.19,0,0,1,1.22,2.3,5.73,5.73,0,0,1,.32.86,1.17,1.17,0,0,1,0-.22.91.91,0,0,1,.11-.46.46.46,0,0,1,.16-.15l.06,0h-.15a.5.5,0,0,1,.16.07,1.07,1.07,0,0,1-.27-.29c-.22-.33-.55-.85-1-1.54l-1.88-3.12a19.24,19.24,0,0,0-2.07-3,6.92,6.92,0,0,0-2.54-1.89A7.92,7.92,0,0,0,138.71,176.35Zm1.12,5.15a2.07,2.07,0,0,1,.68.57,14.57,14.57,0,0,1,1.52,2.22l1.89,3.14c.47.79.84,1.37,1.13,1.79a6.07,6.07,0,0,0,1.57,1.58,4.75,4.75,0,0,0,2.74.81,5,5,0,0,0,2.3-.53,4.52,4.52,0,0,0,1.75-1.57,4.11,4.11,0,0,0,.7-2.27,6.72,6.72,0,0,0-.7-2.59,23,23,0,0,0-1.56-3,22.37,22.37,0,0,0-2.28-3.09,11.08,11.08,0,0,0-3.09-2.51l-.64,4.65a10.81,10.81,0,0,0,5.71-2.92A8.22,8.22,0,0,0,153.7,172a9.15,9.15,0,0,0-.6-3.29,8.24,8.24,0,0,0-1.82-2.84,8.38,8.38,0,0,0-2.74-1.86,9.22,9.22,0,0,0-2.69-.72,25.74,25.74,0,0,0-3-.15h-7.61a4.9,4.9,0,0,0-5.37,5.37v17.78a5.62,5.62,0,0,0,1.21,3.75,4.6,4.6,0,0,0,3.64,1.61,4.69,4.69,0,0,0,3.51-1.48,5.46,5.46,0,0,0,1.32-3.87v-7.4l-2.5,2.5h1.64A3.12,3.12,0,0,1,139.83,181.5Z" fill="#231f20"/><path d="M141.38,166.6h-6.81V178h6.68a14,14,0,0,0,3.45-.37,5.78,5.78,0,0,0,3-1.79,5.3,5.3,0,0,0,1.21-3.57,5.43,5.43,0,0,0-3.37-5.1A11.22,11.22,0,0,0,141.38,166.6Zm2.25,5.15a.47.47,0,0,1,.24.18.52.52,0,0,1,.07.32,1.11,1.11,0,0,1,0,.37l0-.06a1,1,0,0,1-.48.21,9.27,9.27,0,0,1-2.21.21h-4.18l2.5,2.5V169.1l-2.5,2.5h4.31a9,9,0,0,1,2.28.16Z" fill="#231f20"/><path d="M155.82,186.25V168.06a3.06,3.06,0,0,1,.65-2.13,2.16,2.16,0,0,1,1.67-.71,2.24,2.24,0,0,1,1.71.7,3,3,0,0,1,.66,2.13v18.19a3.06,3.06,0,0,1-.66,2.14,2.22,2.22,0,0,1-1.71.71,2.16,2.16,0,0,1-1.67-.72A3.07,3.07,0,0,1,155.82,186.25Z" fill="#fff"/><path d="M158.32,186.25V168.06a1.6,1.6,0,0,1,.06-.54.37.37,0,0,1-.07.1.41.41,0,0,1-.2.11h.08a.39.39,0,0,1-.17-.09.48.48,0,0,1-.08-.11,1.57,1.57,0,0,1,.06.54v18.19a1.56,1.56,0,0,1-.06.55.48.48,0,0,1,.07-.1.39.39,0,0,1,.17-.1h-.07a.41.41,0,0,1,.2.1.36.36,0,0,1,.06.09A1.54,1.54,0,0,1,158.32,186.25Zm-3.69,3.82a4.64,4.64,0,0,0,3.51,1.53,4.7,4.7,0,0,0,3.55-1.51,5.46,5.46,0,0,0,1.32-3.84V168.06a5.42,5.42,0,0,0-1.33-3.84,4.72,4.72,0,0,0-3.54-1.49,4.64,4.64,0,0,0-3.52,1.52,5.46,5.46,0,0,0-1.3,3.81v18.19A5.47,5.47,0,0,0,154.63,190.07Z" fill="#231f20"/><path d="M175.95,165.23a12.41,12.41,0,0,1,6.19,1.46,9.45,9.45,0,0,1,3.91,4.14,14.08,14.08,0,0,1,1.33,6.31,15.38,15.38,0,0,1-.73,4.87,10.52,10.52,0,0,1-2.18,3.79,9.51,9.51,0,0,1-3.57,2.46,14.12,14.12,0,0,1-9.72,0,9.64,9.64,0,0,1-3.59-2.46,10.52,10.52,0,0,1-2.17-3.83,15.39,15.39,0,0,1-.73-4.84,14.89,14.89,0,0,1,.77-4.88,10.46,10.46,0,0,1,2.22-3.78,9.6,9.6,0,0,1,3.54-2.39A12.79,12.79,0,0,1,175.95,165.23Zm6.67,11.87a10.88,10.88,0,0,0-.82-4.41,6.14,6.14,0,0,0-2.35-2.82,6.46,6.46,0,0,0-3.5-1,6.35,6.35,0,0,0-2.6.53,5.72,5.72,0,0,0-2.06,1.54,7.37,7.37,0,0,0-1.36,2.58,11.68,11.68,0,0,0-.5,3.53,12,12,0,0,0,.5,3.57,7.32,7.32,0,0,0,1.41,2.65,5.9,5.9,0,0,0,2.09,1.57,6.6,6.6,0,0,0,5.9-.38,6.24,6.24,0,0,0,2.4-2.78A10.75,10.75,0,0,0,182.62,177.1Z" fill="#fff"/><path d="M175.95,167.73a10,10,0,0,1,5,1.13,6.94,6.94,0,0,1,2.9,3.07,11.69,11.69,0,0,1,1.07,5.2,12.94,12.94,0,0,1-.6,4.08,8,8,0,0,1-1.66,2.91,7,7,0,0,1-2.65,1.81,10.53,10.53,0,0,1-3.92.67,10.41,10.41,0,0,1-3.92-.69,7.09,7.09,0,0,1-2.67-1.82,8,8,0,0,1-1.65-2.93,13,13,0,0,1-.61-4.05,12.48,12.48,0,0,1,.63-4.07,7.94,7.94,0,0,1,1.68-2.89,7.07,7.07,0,0,1,2.63-1.77A10.36,10.36,0,0,1,175.95,167.73Zm-5.66-4a12.11,12.11,0,0,0-4.45,3,13,13,0,0,0-2.75,4.67,17.45,17.45,0,0,0-.9,5.7,18,18,0,0,0,.86,5.62,13,13,0,0,0,2.69,4.72,12.16,12.16,0,0,0,4.5,3.1,16.6,16.6,0,0,0,11.59,0,12,12,0,0,0,4.49-3.1,13.06,13.06,0,0,0,2.7-4.68,18,18,0,0,0,.85-5.65,16.61,16.61,0,0,0-1.59-7.42,12,12,0,0,0-4.92-5.21,14.92,14.92,0,0,0-7.41-1.78A15.34,15.34,0,0,0,170.29,163.73Z" fill="#231f20"/><path d="M185.12,177.1a13.39,13.39,0,0,0-1-5.42,8.62,8.62,0,0,0-3.31-3.93,9.29,9.29,0,0,0-8.44-.59,8.23,8.23,0,0,0-2.95,2.21,9.87,9.87,0,0,0-1.84,3.45,14.21,14.21,0,0,0-.62,4.29,14.52,14.52,0,0,0,.61,4.32,9.82,9.82,0,0,0,1.9,3.54,8.4,8.4,0,0,0,3,2.22,9.1,9.1,0,0,0,8.19-.52A8.71,8.71,0,0,0,184,182.8,13.24,13.24,0,0,0,185.12,177.1Zm-5.65,3.56a3.78,3.78,0,0,1-1.43,1.71,4.1,4.1,0,0,1-3.61.24,3.4,3.4,0,0,1-1.21-.92,4.9,4.9,0,0,1-.91-1.76,9.56,9.56,0,0,1-.38-2.83,9.22,9.22,0,0,1,.38-2.78,5,5,0,0,1,.88-1.72,3.21,3.21,0,0,1,1.17-.88,3.85,3.85,0,0,1,1.59-.31,4,4,0,0,1,2.18.58,3.67,3.67,0,0,1,1.39,1.71,9.91,9.91,0,0,1,0,7Z" fill="#231f20"/><path d="M197.67,178.85H196v7.4a3.07,3.07,0,0,1-.65,2.15,2.21,2.21,0,0,1-1.69.69,2.16,2.16,0,0,1-1.74-.72,3.21,3.21,0,0,1-.62-2.13V168.47a2.46,2.46,0,0,1,2.87-2.87h7.61a23.2,23.2,0,0,1,2.69.13,6.81,6.81,0,0,1,2,.54,5.86,5.86,0,0,1,1.92,1.31,5.73,5.73,0,0,1,1.27,2,6.62,6.62,0,0,1,.43,2.39,5.79,5.79,0,0,1-1.46,4.14,8.37,8.37,0,0,1-4.43,2.2,8.59,8.59,0,0,1,2.38,2,19.84,19.84,0,0,1,2,2.75,20.46,20.46,0,0,1,1.39,2.63,5.19,5.19,0,0,1,.5,1.61,1.64,1.64,0,0,1-.29.9,2,2,0,0,1-.8.71,2.53,2.53,0,0,1-1.17.26,2.29,2.29,0,0,1-1.32-.37,3.57,3.57,0,0,1-.92-.94q-.39-.57-1-1.67L203.14,183a17.19,17.19,0,0,0-1.8-2.61,4.45,4.45,0,0,0-1.61-1.23A5.55,5.55,0,0,0,197.67,178.85Zm2.67-9.75H196v6.38h4.18a11.65,11.65,0,0,0,2.83-.29,3.32,3.32,0,0,0,1.75-1,2.88,2.88,0,0,0,.61-1.94,3,3,0,0,0-.49-1.7,3,3,0,0,0-1.35-1.1A9.7,9.7,0,0,0,200.34,169.1Z" fill="#fff"/><path d="M197.67,176.35h-4.14v9.9a1.7,1.7,0,0,1-.06.57.53.53,0,0,1,.09-.13.4.4,0,0,1,.18-.1h-.12a.53.53,0,0,1,.25.16l0,.07a1.6,1.6,0,0,1-.07-.58V168.47a1.8,1.8,0,0,1,.06-.58.68.68,0,0,1-.28.28,1.8,1.8,0,0,1,.58-.06h7.61a20.87,20.87,0,0,1,2.4.12,4.37,4.37,0,0,1,1.28.34,3.48,3.48,0,0,1,1.17.79,3.23,3.23,0,0,1,.72,1.13,4.1,4.1,0,0,1,.27,1.5,3.38,3.38,0,0,1-.78,2.42,6.07,6.07,0,0,1-3.14,1.47l-6.66,1.45,6,3.2a6.18,6.18,0,0,1,1.68,1.4,17.57,17.57,0,0,1,1.77,2.4,18.18,18.18,0,0,1,1.22,2.3,5.71,5.71,0,0,1,.32.86,1.16,1.16,0,0,1,0-.22.91.91,0,0,1,.11-.46.46.46,0,0,1,.16-.15l.06,0h-.15a.5.5,0,0,1,.16.07,1.07,1.07,0,0,1-.27-.29c-.22-.33-.55-.85-1-1.54l-1.88-3.12a19.25,19.25,0,0,0-2.07-3,6.93,6.93,0,0,0-2.54-1.89A7.92,7.92,0,0,0,197.67,176.35Zm1.12,5.15a2.07,2.07,0,0,1,.68.57,14.56,14.56,0,0,1,1.52,2.22l1.89,3.14c.47.79.84,1.37,1.13,1.79a6.07,6.07,0,0,0,1.57,1.58,4.75,4.75,0,0,0,2.74.81,5,5,0,0,0,2.3-.53,4.52,4.52,0,0,0,1.75-1.57,4.11,4.11,0,0,0,.7-2.27,6.72,6.72,0,0,0-.7-2.59,23,23,0,0,0-1.56-3,22.37,22.37,0,0,0-2.28-3.09,11.08,11.08,0,0,0-3.09-2.51l-.64,4.65a10.81,10.81,0,0,0,5.71-2.92,8.22,8.22,0,0,0,2.14-5.85,9.15,9.15,0,0,0-.6-3.29,8.24,8.24,0,0,0-1.82-2.84A8.38,8.38,0,0,0,207.5,164a9.22,9.22,0,0,0-2.69-.72,25.74,25.74,0,0,0-3-.15h-7.61a4.9,4.9,0,0,0-5.37,5.37v17.78a5.62,5.62,0,0,0,1.21,3.75,4.6,4.6,0,0,0,3.64,1.61,4.69,4.69,0,0,0,3.51-1.48,5.46,5.46,0,0,0,1.32-3.87v-7.4l-2.5,2.5h1.64A3.12,3.12,0,0,1,198.79,181.5Z" fill="#231f20"/><path d="M200.34,166.6h-6.81V178h6.68a14,14,0,0,0,3.45-.37,5.78,5.78,0,0,0,3-1.79,5.3,5.3,0,0,0,1.21-3.57,5.43,5.43,0,0,0-3.37-5.1A11.22,11.22,0,0,0,200.34,166.6Zm2.25,5.15a.47.47,0,0,1,.24.18.52.52,0,0,1,.07.32,1.11,1.11,0,0,1,0,.37l0-.06a1,1,0,0,1-.48.21,9.27,9.27,0,0,1-2.21.21H196l2.5,2.5V169.1l-2.5,2.5h4.31a9,9,0,0,1,2.28.16Z" fill="#231f20"/><path d="M91.63,179.06s-1.29-6.73-1-7.51,3.88-3.37,3.88-3.37,3.63.26,4.66.52,4.14,2.85,4.14,2.85l7.51,3.11,4.4-2.59,3.37-2.85h9.58l8-.26h10.36l1.81,3.37a27.35,27.35,0,0,1-2.33,3.37,40.76,40.76,0,0,1-3.37,2.59l-6.73,1.81a23.61,23.61,0,0,1-2.85,1.55c-.78.26-3.88,1-3.88,1" fill="#231f20"/><path d="M60.78,181.77a6.78,6.78,0,0,1-1.08,3.77,7.19,7.19,0,0,1-3.17,2.62,11.9,11.9,0,0,1-4.94.95,11.14,11.14,0,0,1-5.66-1.29,7.48,7.48,0,0,1-2.55-2.48,5.65,5.65,0,0,1-1-3,2,2,0,0,1,2.09-2.06,1.77,1.77,0,0,1,1.25.47,3.74,3.74,0,0,1,.87,1.4,9.34,9.34,0,0,0,1,1.84A3.87,3.87,0,0,0,49,185.18a5.36,5.36,0,0,0,2.45.48,5.54,5.54,0,0,0,3.39-1,2.91,2.91,0,0,0,1.3-2.42,2.56,2.56,0,0,0-.7-1.87,4.54,4.54,0,0,0-1.82-1.09q-1.12-.38-3-.8a21.71,21.71,0,0,1-4.16-1.36A6.73,6.73,0,0,1,43.83,175a5.51,5.51,0,0,1-1-3.34,5.74,5.74,0,0,1,1-3.38,6.56,6.56,0,0,1,3-2.27,12.38,12.38,0,0,1,4.64-.79,11.49,11.49,0,0,1,3.68.53,7.79,7.79,0,0,1,2.58,1.4A5.85,5.85,0,0,1,59.3,169a4.22,4.22,0,0,1,.47,1.87,2.21,2.21,0,0,1-.59,1.5,1.89,1.89,0,0,1-1.48.67,1.69,1.69,0,0,1-1.22-.41,5.48,5.48,0,0,1-.91-1.33,5.94,5.94,0,0,0-1.52-2,4.48,4.48,0,0,0-2.85-.73,5,5,0,0,0-2.93.8,2.31,2.31,0,0,0-1.12,1.91,1.93,1.93,0,0,0,.38,1.2,3.18,3.18,0,0,0,1,.87,7.05,7.05,0,0,0,1.34.57q.68.21,2.25.6a35.45,35.45,0,0,1,3.55,1,10.78,10.78,0,0,1,2.7,1.34,5.52,5.52,0,0,1,1.74,2A6.37,6.37,0,0,1,60.78,181.77Z" fill="#fff"/><path d="M64.78,179.16v-11.1a3.09,3.09,0,0,1,.64-2.13,2.15,2.15,0,0,1,1.68-.71,2.21,2.21,0,0,1,1.73.71,3.09,3.09,0,0,1,.64,2.13v11.37a10.38,10.38,0,0,0,.43,3.24,3.75,3.75,0,0,0,1.54,2,5.63,5.63,0,0,0,3.09.72q2.74,0,3.87-1.46a7.16,7.16,0,0,0,1.13-4.42V168.06a3.11,3.11,0,0,1,.63-2.14,2.16,2.16,0,0,1,1.69-.7,2.24,2.24,0,0,1,1.71.7,3,3,0,0,1,.66,2.14v11.11a16.41,16.41,0,0,1-.53,4.52,7,7,0,0,1-2,3.18,7.75,7.75,0,0,1-2.93,1.69,13,13,0,0,1-3.91.53,16.17,16.17,0,0,1-4.59-.57,7.33,7.33,0,0,1-3.14-1.78,7.16,7.16,0,0,1-1.78-3.09A15.66,15.66,0,0,1,64.78,179.16Z" fill="#fff"/><path d="M98.27,179.73H94v6.53a3,3,0,0,1-.66,2.12,2.34,2.34,0,0,1-3.38,0,3,3,0,0,1-.65-2.1V168.47a2.9,2.9,0,0,1,.71-2.21,3.25,3.25,0,0,1,2.26-.66h6a16,16,0,0,1,4.12.41,6.12,6.12,0,0,1,2.45,1.31,5.9,5.9,0,0,1,1.57,2.24,7.89,7.89,0,0,1,.54,3,6.58,6.58,0,0,1-2.18,5.36Q102.59,179.73,98.27,179.73ZM97.13,169.1H94v7.13h3.17a9.45,9.45,0,0,0,2.78-.35,3.25,3.25,0,0,0,1.71-1.15,3.42,3.42,0,0,0,.59-2.08,3.54,3.54,0,0,0-.9-2.51Q100.29,169.1,97.13,169.1Z" fill="#fff"/><path d="M126.07,169.23H115.51v5.69h9.72a2.33,2.33,0,0,1,1.6.48,1.62,1.62,0,0,1,.53,1.26,1.67,1.67,0,0,1-.52,1.27,2.28,2.28,0,0,1-1.61.49h-9.72V185h10.92a2.41,2.41,0,0,1,1.66.51,1.74,1.74,0,0,1,.56,1.35,1.7,1.7,0,0,1-.56,1.32,2.4,2.4,0,0,1-1.66.51H113.7a2.45,2.45,0,0,1-2.87-2.87V168.47a3.89,3.89,0,0,1,.3-1.65,1.86,1.86,0,0,1,.94-.93,4,4,0,0,1,1.63-.29h12.37a2.4,2.4,0,0,1,1.66.5,1.69,1.69,0,0,1,.54,1.31,1.71,1.71,0,0,1-.54,1.32A2.4,2.4,0,0,1,126.07,169.23Z" fill="#fff"/><path d="M138.71,178.85h-1.64v7.4a3.07,3.07,0,0,1-.65,2.15,2.21,2.21,0,0,1-1.69.69,2.16,2.16,0,0,1-1.74-.72,3.21,3.21,0,0,1-.62-2.13V168.47a2.46,2.46,0,0,1,2.87-2.87h7.61a23.2,23.2,0,0,1,2.69.13,6.81,6.81,0,0,1,2,.54,5.86,5.86,0,0,1,1.92,1.31,5.74,5.74,0,0,1,1.27,2,6.62,6.62,0,0,1,.43,2.39,5.79,5.79,0,0,1-1.46,4.14,8.38,8.38,0,0,1-4.43,2.2,8.59,8.59,0,0,1,2.38,2,19.84,19.84,0,0,1,2,2.75,20.46,20.46,0,0,1,1.39,2.63,5.19,5.19,0,0,1,.5,1.61,1.64,1.64,0,0,1-.29.9,2,2,0,0,1-.8.71,2.53,2.53,0,0,1-1.17.26,2.29,2.29,0,0,1-1.32-.37,3.57,3.57,0,0,1-.92-.94q-.39-.57-1-1.67L144.18,183a17.19,17.19,0,0,0-1.8-2.61,4.45,4.45,0,0,0-1.61-1.23A5.55,5.55,0,0,0,138.71,178.85Zm2.67-9.75h-4.31v6.38h4.18a11.66,11.66,0,0,0,2.83-.29,3.32,3.32,0,0,0,1.75-1,2.88,2.88,0,0,0,.61-1.94,3,3,0,0,0-.49-1.7,3,3,0,0,0-1.35-1.1A9.69,9.69,0,0,0,141.38,169.1Z" fill="#fff"/><path d="M155.82,186.25V168.06a3.06,3.06,0,0,1,.65-2.13,2.16,2.16,0,0,1,1.67-.71,2.24,2.24,0,0,1,1.71.7,3,3,0,0,1,.66,2.13v18.19a3.06,3.06,0,0,1-.66,2.14,2.22,2.22,0,0,1-1.71.71,2.16,2.16,0,0,1-1.67-.72A3.07,3.07,0,0,1,155.82,186.25Z" fill="#fff"/><path d="M175.95,165.23a12.41,12.41,0,0,1,6.19,1.46,9.45,9.45,0,0,1,3.91,4.14,14.08,14.08,0,0,1,1.33,6.31,15.38,15.38,0,0,1-.73,4.87,10.52,10.52,0,0,1-2.18,3.79,9.51,9.51,0,0,1-3.57,2.46,14.12,14.12,0,0,1-9.72,0,9.64,9.64,0,0,1-3.59-2.46,10.52,10.52,0,0,1-2.17-3.83,15.39,15.39,0,0,1-.73-4.84,14.89,14.89,0,0,1,.77-4.88,10.46,10.46,0,0,1,2.22-3.78,9.6,9.6,0,0,1,3.54-2.39A12.79,12.79,0,0,1,175.95,165.23Zm6.67,11.87a10.88,10.88,0,0,0-.82-4.41,6.14,6.14,0,0,0-2.35-2.82,6.46,6.46,0,0,0-3.5-1,6.35,6.35,0,0,0-2.6.53,5.72,5.72,0,0,0-2.06,1.54,7.37,7.37,0,0,0-1.36,2.58,11.68,11.68,0,0,0-.5,3.53,12,12,0,0,0,.5,3.57,7.32,7.32,0,0,0,1.41,2.65,5.9,5.9,0,0,0,2.09,1.57,6.6,6.6,0,0,0,5.9-.38,6.24,6.24,0,0,0,2.4-2.78A10.75,10.75,0,0,0,182.62,177.1Z" fill="#fff"/><path d="M197.67,178.85H196v7.4a3.07,3.07,0,0,1-.65,2.15,2.21,2.21,0,0,1-1.69.69,2.16,2.16,0,0,1-1.74-.72,3.21,3.21,0,0,1-.62-2.13V168.47a2.46,2.46,0,0,1,2.87-2.87h7.61a23.2,23.2,0,0,1,2.69.13,6.81,6.81,0,0,1,2,.54,5.86,5.86,0,0,1,1.92,1.31,5.73,5.73,0,0,1,1.27,2,6.62,6.62,0,0,1,.43,2.39,5.79,5.79,0,0,1-1.46,4.14,8.37,8.37,0,0,1-4.43,2.2,8.59,8.59,0,0,1,2.38,2,19.84,19.84,0,0,1,2,2.75,20.46,20.46,0,0,1,1.39,2.63,5.19,5.19,0,0,1,.5,1.61,1.64,1.64,0,0,1-.29.9,2,2,0,0,1-.8.71,2.53,2.53,0,0,1-1.17.26,2.29,2.29,0,0,1-1.32-.37,3.57,3.57,0,0,1-.92-.94q-.39-.57-1-1.67L203.14,183a17.19,17.19,0,0,0-1.8-2.61,4.45,4.45,0,0,0-1.61-1.23A5.55,5.55,0,0,0,197.67,178.85Zm2.67-9.75H196v6.38h4.18a11.65,11.65,0,0,0,2.83-.29,3.32,3.32,0,0,0,1.75-1,2.88,2.88,0,0,0,.61-1.94,3,3,0,0,0-.49-1.7,3,3,0,0,0-1.35-1.1A9.7,9.7,0,0,0,200.34,169.1Z" fill="#fff"/><path d="M146.28,80s3-8.81,1.58-17.3-18.4-9.94-27.6-5.33c-9.37,4.69-16.52,2.74-16.69.3,0,0,2.19,2.83,8.61,1.06s11.47-6.42,23.34-5.42,14.62,6.77,14.88,10.53c.28,4,.59,4.07-1.57,15.81" fill="#ef4135"/><path d="M146.6,80.12c0-.09,3-9,1.6-17.46-.41-2.47-2.13-4.54-5-6-6.1-3.1-16.47-2.92-23.11.41S107.56,60.43,105,59a1.86,1.86,0,0,1-1.1-1.32l-.6.23c.1.12,2.4,3,9,1.18A41.54,41.54,0,0,0,117.71,57c4.41-1.9,9.41-4.06,17.78-3.35,12.58,1.06,14.38,7.5,14.57,10.21l.08,1c.24,3.06.32,4.09-1.64,14.72l.66.12c2-10.72,1.89-11.77,1.65-14.89l-.08-1c-.21-2.89-2.09-9.73-15.19-10.84-8.54-.72-13.62,1.47-18.11,3.4a41,41,0,0,1-5.35,2c-6.09,1.68-8.23-.92-8.25-.94l0,0,0,0-.59-.44.05.74a2.49,2.49,0,0,0,1.44,1.86c2.7,1.54,8.78,1.61,15.74-1.88,6.47-3.25,16.57-3.43,22.5-.41,2.65,1.34,4.24,3.25,4.62,5.5,1.39,8.31-1.54,17-1.57,17.13Z" fill="#231f20"/><path d="M181.37,110.42l-.51-.78-.21.91-.63,2.67a53.06,53.06,0,0,0-16.31,5.61c-3.34,2-4.16,8.5-4.36,12a1.18,1.18,0,0,0-.68.2,2.86,2.86,0,0,0-.94,1.48,31.69,31.69,0,0,1-10.15-1.35,20.42,20.42,0,0,0,.6-8.84c4.58-9.14,2.38-32.53,2-35.79,2.08-.47,12.57-3,17.16-7.39l1.08-1-1.45.36-2.38.59c3-1.69,7.28-4.4,7.83-6.48l.2-.76-.73.29-1.15.45c2.47-2.25,6.23-6.67,5.67-12.46l-.79,0h0c0,.13-.36,13-26.12,15.73-5.65.59-10.28,1.19-14.13,1.87a4.48,4.48,0,0,0-3.25-2.49,3,3,0,0,1,.78-1.69,18.54,18.54,0,0,1,4.28-2.31c6-2.74,16-7.32,17.94-17.56,1-5.22-1.66-9.84-6.94-12.06-6.51-2.74-16.69-1.13-23.63,8.86-6.76,9.73-11.51,11.61-16.09,13.41a30.94,30.94,0,0,0-5.89,2.85c-3.76,2.45-5.91,6-5.77,9.32a14.32,14.32,0,0,0-1.4-.64l-1-.36.5.92,1.11,2a69.17,69.17,0,0,0-1.78,11.54l-.92-.49.2-.42c.08-.16.69-1.64-2.41-3.53-2.46-1.5-4.56-5.26-6.78-9.25l-.89-1.59C78.9,66.23,74,62,68.76,61.81a10.64,10.64,0,0,0-5.29,1.3c-4.59,2.4-7.86,7.34-7.77,11.75A13.13,13.13,0,0,0,57.61,81c3.87,6.44,10.78,7.5,17.47,8.52,4.83.74,9.83,1.5,13.81,4.25l.05,0,.06,0a2.53,2.53,0,0,0,2.84-1.31c.62.28,1.44.66,2.38,1.13.35,10.2,4.65,13.21,5.63,13.77.69,3,9.89,15,18.08,21.06a9.36,9.36,0,0,0,.77,1.68,11,11,0,0,0-2.7,3.29,5.7,5.7,0,0,0-.2,4.26,10.23,10.23,0,0,0-1.39.85,4.55,4.55,0,0,0-1.58,3.34,7.67,7.67,0,0,0-2.32.46,4.13,4.13,0,0,0-2.24,2.73c-.17,0-.33,0-.51,0a3,3,0,0,0-1.93,1.26,4.86,4.86,0,0,0-1-.36,2.36,2.36,0,0,0-1.77.41,3.78,3.78,0,0,0-.86-.64,2.17,2.17,0,0,0-1.87.07,4.52,4.52,0,0,0-.57.3A28.56,28.56,0,0,1,101.7,135c1.51-3.62.4-5.24-.39-5.88-1.51-1.22-4-.84-5.51.22a3.52,3.52,0,0,0-1.24,2.15,5.77,5.77,0,0,0-6.45-2.28c-3.93.89-8.11,4.88-7.61,8.7A6.08,6.08,0,0,0,82.16,141l-.26,0c-3.4.46-4.46,2.15-4.79,3.12a4.13,4.13,0,0,0,1.11,4.18,5,5,0,0,0,5.29,1.07c5.2-1.76,11.45-.64,13.74-.12a8.47,8.47,0,0,0-.31.91,3,3,0,0,0,1,3.29,5.27,5.27,0,0,0,1.86.93,4,4,0,0,0,2.49,3.41,7.11,7.11,0,0,0,3.43.45,5.13,5.13,0,0,0,4.31,2.53,8.85,8.85,0,0,0,3.21-.5,6.59,6.59,0,0,0,4.67.78,12,12,0,0,0,5.77-3.05,7.78,7.78,0,0,0,5.32-.71c3.47-1.74,5.93-5.48,6.23-7a9.3,9.3,0,0,0,5.31-3.33,18.4,18.4,0,0,0,3.8-10.28,11,11,0,0,0,2.17-3c.1-.18.18-.38.27-.57a19.17,19.17,0,0,0,10.34,2.45c-.05.66-.06,1.17-.07,1.32v.31l.3.08a7.56,7.56,0,0,0,2.91.4,8.8,8.8,0,0,0,7.1,2.25c6.2-.6,13.18-6.17,16.6-11.1C188.76,122,181.67,110.89,181.37,110.42ZM168.5,73.9h0ZM97.26,80.3l-.6.27.1-1.18ZM103.44,106a13.31,13.31,0,0,0,2.58-4.83c1.58.88,2.75,1.21,3.5,1a1.36,1.36,0,0,0,.89-1,4.68,4.68,0,0,0,.09-1.69c-.06-.71,0-.82.27-.91a1.2,1.2,0,0,0,.8-1.29c-.06-1-1-2.28-3.06-2.68l-1.38-.31a32.23,32.23,0,0,0-.15-3.94,16.52,16.52,0,0,0-2.84-7.83,16.36,16.36,0,0,0,3.49-.18l5.51-.89c1.35-.23,2.32-.39,3.3-.52,0,0,0,0,.12,0,.5.39,1,2.23,1.19,4.68l0,.32A24.36,24.36,0,0,0,115,91.49c-3.62,9.64.42,26.06,3.43,32.11a14.09,14.09,0,0,0-.65,1.74,4,4,0,0,0-.15.87C112.89,121.9,106.23,114.63,103.44,106Zm73,15.63-.16,0-.08.15L175,124.16l-1.62,0h-.41v.41l0,2.57-1.17-.28-.32-.08-.14.3-1.36,3-1.56.22a38.65,38.65,0,0,1-6.44.88l3-3.32L168,126l.26-.16-.09-.29L168,125l2.9-1.48.48-.25-.38-.39-.57-.58,3-1.75,0,0,0,0,1.83-1.77,1.79-.57,1.16,2.82Zm1.84-4.3,0,0-1.14-1.33,2.6-1.39-.6,2.51Z" fill="#231f20"/><path d="M182.12,109.93l-.51-.78-1.14-1.77-.49,2-.22.91-.63,2.67.75-.68A54.36,54.36,0,0,0,163.24,118c-3.49,2.09-4.54,8.1-4.8,12.77l.9-.85a2.07,2.07,0,0,0-1.19.35,3.61,3.61,0,0,0-1.29,1.94l.83-.61a30.9,30.9,0,0,1-9.84-1.3l.57,1.11a21.22,21.22,0,0,0,.62-9.26l-.08.57c4.63-9.24,2.59-31.85,2.13-36.28l-.7,1c2.1-.47,12.82-3,17.58-7.62l1.08-1,2.44-2.34-3.28.82-1.45.36-2.38.59.66,1.66c5-2.79,7.76-5.16,8.26-7l.2-.76.46-1.71-1.65.64-.73.28-1.15.45.93,1.5c2.48-2.26,6.56-7,6-13.21l-.08-.85-.86,0-.8,0,.94.9h-1.8c0,.11-.63,12.24-25.31,14.84-5.95.63-10.46,1.22-14.19,1.87l1,.5a5.39,5.39,0,0,0-3.91-3l.73,1a2.15,2.15,0,0,1,.53-1.2,19.78,19.78,0,0,1,4-2.13C143.73,69.29,154,64.59,156,53.9c1.08-5.66-1.78-10.66-7.47-13.06C141.73,38,131.08,39.61,123.85,50c-6.61,9.51-11.22,11.33-15.69,13.09a31.66,31.66,0,0,0-6,2.93c-4,2.59-6.33,6.46-6.18,10.11l1.31-.84a15.6,15.6,0,0,0-1.49-.69l-1-.36-2.23-.81,1.13,2.08.5.92,1.11,2-.09-.63a70.52,70.52,0,0,0-1.8,11.69l1.31-.74-.89-.48.38,1.16.18-.38c.2-.41,1-2.46-2.74-4.72-2.26-1.38-4.3-5-6.46-8.92l-.89-1.59c-4.73-8.39-9.93-12.76-15.46-13a11.53,11.53,0,0,0-5.74,1.4c-4.87,2.55-8.35,7.83-8.26,12.56a14.05,14.05,0,0,0,2,6.61c4.09,6.8,11.21,7.89,18.1,8.94,4.73.72,9.63,1.47,13.44,4.1l.12.08a1,1,0,0,0,.19.08l.06,0A3.44,3.44,0,0,0,92.61,93l-1.14.37c.51.23,1.34.61,2.35,1.11l-.5-.77c.36,10.49,4.76,13.77,6.09,14.52l-.43-.58c.79,3.45,10.38,15.65,18.42,21.58l-.32-.44a10.29,10.29,0,0,0,.84,1.85l.22-1.15a12,12,0,0,0-2.92,3.56,6.59,6.59,0,0,0-.29,4.94l.46-1a11.18,11.18,0,0,0-1.52.92,5.38,5.38,0,0,0-1.95,4l.86-.81a8.57,8.57,0,0,0-2.59.51,5,5,0,0,0-2.78,3.28l.82-.6h-.11l-.47,0a3.84,3.84,0,0,0-2.54,1.6l1.1-.25a5.69,5.69,0,0,0-1.17-.43,3.21,3.21,0,0,0-2.46.53l1.11.13a4.62,4.62,0,0,0-1.06-.79,3,3,0,0,0-2.66,0,5.17,5.17,0,0,0-.69.36l1.37.75a27.72,27.72,0,0,1,1.86-10.86c1.74-4.16.33-6.13-.66-6.92-1.91-1.54-4.82-1.05-6.59.19a4.36,4.36,0,0,0-1.6,2.68l1.61-.3a6.64,6.64,0,0,0-7.39-2.65c-4.39,1-8.87,5.35-8.3,9.69a6.94,6.94,0,0,0,1.89,3.66l.57-1.49H82l-.19,0c-3.88.52-5.12,2.56-5.52,3.73a5,5,0,0,0,1.32,5.1,5.9,5.9,0,0,0,6.21,1.28c4.94-1.67,10.92-.62,13.26-.09L96.42,149a9.34,9.34,0,0,0-.34,1,3.88,3.88,0,0,0,1.32,4.22,6.23,6.23,0,0,0,2.18,1.1l-.64-.77a4.88,4.88,0,0,0,3,4.14,8.11,8.11,0,0,0,3.88.52l-.86-.43a6,6,0,0,0,5,3,9.86,9.86,0,0,0,3.54-.55l-.75-.08a7.47,7.47,0,0,0,5.3.9,13,13,0,0,0,6.23-3.29l-.83.23a8.69,8.69,0,0,0,5.93-.78c3.84-1.93,6.37-5.92,6.71-7.62l-.7.71a10.18,10.18,0,0,0,5.82-3.63,19.3,19.3,0,0,0,4-10.85l-.28.64a11.93,11.93,0,0,0,2.36-3.19c.08-.16.16-.33.23-.48l.06-.12-1.29.4a20.21,20.21,0,0,0,10.81,2.58l-.9-1c-.05.67-.07,1.19-.07,1.36s0,.33,0,.33V138l.69.18.3.08a8.18,8.18,0,0,0,3.32.41l-.79-.22a9.66,9.66,0,0,0,7.8,2.48c6.46-.62,13.71-6.38,17.25-11.49C189.83,122.07,182.44,110.42,182.12,109.93Zm1.13,18.49c-3.31,4.77-10,10.15-15.95,10.72a7.94,7.94,0,0,1-6.41-2l-.34-.31-.45.09a7,7,0,0,1-2.51-.39l-.31-.08.68.89V137c0-.17,0-.65.07-1.26l.08-1h-1a18.47,18.47,0,0,1-9.86-2.32l-.87-.53-.42.93-.06.13c-.06.14-.12.27-.19.39a10.15,10.15,0,0,1-2,2.72l-.27.26v.38a17.58,17.58,0,0,1-3.59,9.72,8.43,8.43,0,0,1-4.8,3l-.58.12-.12.59c-.23,1.16-2.46,4.71-5.75,6.36a6.81,6.81,0,0,1-4.71.64l-.48-.11-.35.34a11.08,11.08,0,0,1-5.31,2.82,5.64,5.64,0,0,1-4-.67l-.36-.22-.4.13a8,8,0,0,1-2.88.46,4.2,4.2,0,0,1-3.58-2.1l-.3-.49-.57.06a6.23,6.23,0,0,1-3-.38,3.08,3.08,0,0,1-1.95-2.68l-.06-.6-.58-.17a4.48,4.48,0,0,1-1.54-.77,2.1,2.1,0,0,1-.72-2.36,7.43,7.43,0,0,1,.27-.81l.39-1-1-.23c-2.49-.56-8.86-1.68-14.23.14a4.14,4.14,0,0,1-4.36-.85,3.22,3.22,0,0,1-.89-3.25c.26-.77,1.14-2.13,4.06-2.52h.24l1.74-.2-1.17-1.3a5.2,5.2,0,0,1-1.44-2.69c-.43-3.3,3.43-6.91,6.91-7.7A4.88,4.88,0,0,1,93.82,132L95,133.62l.47-2a2.73,2.73,0,0,1,.88-1.63c1.22-.86,3.27-1.2,4.43-.26s1.08,2.55.13,4.83a29.55,29.55,0,0,0-2,11.6l0,1.57,1.33-.82a3.42,3.42,0,0,1,.45-.24,1.36,1.36,0,0,1,1.09-.11,2.82,2.82,0,0,1,.65.48l.5.51.61-.38a1.56,1.56,0,0,1,1.08-.3,4,4,0,0,1,.81.29l.65.32.45-.58a2.16,2.16,0,0,1,1.32-.92l.32,0h.12l.62,0s.2-.58.2-.58a3.35,3.35,0,0,1,1.69-2.18,6.88,6.88,0,0,1,2.05-.41l.78,0,.08-.78a3.73,3.73,0,0,1,1.21-2.7,9.09,9.09,0,0,1,1.27-.77l.66-.33-.2-.71a4.87,4.87,0,0,1,.12-3.58,10.24,10.24,0,0,1,2.47-3l.6-.48-.39-.67a8.42,8.42,0,0,1-.7-1.52l-.09-.27-.23-.17c-8.1-6-17.09-17.74-17.74-20.54l-.09-.39-.35-.2c-.81-.45-4.84-3.21-5.18-13l0-.53-.48-.24c-1-.52-1.88-.91-2.41-1.14l-.74-.33-.41.7a1.61,1.61,0,0,1-1.81.9l.2.11-.05,0c-4.15-2.87-9.25-3.65-14.19-4.4-6.48-1-13.18-2-16.83-8.09a12.19,12.19,0,0,1-1.78-5.72c-.08-4.09,3-8.69,7.29-10.93a9.74,9.74,0,0,1,4.84-1.2c4.86.2,9.56,4.26,14,12.07l.89,1.58c2.28,4.09,4.43,8,7.09,9.58,2,1.2,2.16,2.13,2.07,2.39v0l-.19.4-.36.76.73.41.94.51,1.23.64.08-1.38a68.81,68.81,0,0,1,1.76-11.39l.08-.33-.16-.3-1.11-2-.5-.92L94.14,76l1,.36a13.67,13.67,0,0,1,1.29.6l1.37.71-.06-1.54c-.12-3,1.93-6.29,5.37-8.53a30.18,30.18,0,0,1,5.72-2.76C113.53,62.92,118.4,61,125.32,51c6.66-9.59,16.36-11.15,22.55-8.55,4.86,2,7.32,6.28,6.4,11.06-1.87,9.78-11.61,14.24-17.43,16.91A18.1,18.1,0,0,0,132.3,73a3.89,3.89,0,0,0-1,2.18l-.14.87.87.16a3.59,3.59,0,0,1,2.6,2l.29.62.67-.12c3.7-.65,8.17-1.24,14.07-1.86,26.62-2.8,26.92-16.49,26.92-16.62h-1.8v.94l.94,0,.8,0-.94-.81c.52,5.46-3.15,9.68-5.39,11.71l.93,1.5,1.15-.45.73-.28-1.19-1.07-.2.76c-.35,1.31-3.12,3.52-7.4,5.92l.66,1.66,2.38-.59,1.45-.36-.84-1.52-1.08,1C162.32,82.77,152,85.24,150,85.7l-.78.17.08.8c.28,2.67,2.55,26.32-2,35.29l-.14.27.05.3a19.56,19.56,0,0,1-.57,8.41l-.25.83.82.28a32.83,32.83,0,0,0,10.46,1.4h.63l.2-.59c.25-.74.49-1,.58-1a.29.29,0,0,1,.18,0h.86l0-.86c.33-5.9,1.76-10,3.92-11.33a52.17,52.17,0,0,1,16-5.49l.61-.08.14-.6.63-2.67.21-.91-1.63.28.5.78C180.9,111.35,187.68,122,183.25,128.42Z" fill="#231f20"/><path d="M167.67,74.24l.49-1.16.82,1.59Zm1.18.5.82-.34-.33-.82-.42-1.06-.93.66S168.83,74.75,168.85,74.74Z" fill="#231f20"/><path d="M96.89,79.48l-.6.27,1.26.9.1-1.18L96,79.82l.5.91Zm-1-.17-.1,1.18L95.64,82,97,81.38l.6-.27.89-.4-.46-.85-.5-.91-1.43-2.63Z" fill="#231f20"/><path d="M104.09,106.57a14.14,14.14,0,0,0,2.78-5.16l-1.29.5c1.86,1,3.21,1.36,4.23,1a2.25,2.25,0,0,0,1.47-1.6,5.51,5.51,0,0,0,.12-2,3.27,3.27,0,0,1,0-.42.62.62,0,0,1-.34.44,2.1,2.1,0,0,0,1.43-2.21c-.08-1.34-1.3-3-3.78-3.51l-1.35-.3.69.9a33.6,33.6,0,0,0-.16-4,17.46,17.46,0,0,0-3-8.25l-.8,1.41a17.22,17.22,0,0,0,3.68-.19l5.51-.89c1.36-.23,2.32-.39,3.28-.52a.76.76,0,0,1-.57-.14l0,0c.15.17.62,1.28.88,4.09l0,.32.16-.6a25,25,0,0,0-2.9,5.81c-3.68,9.82.24,26.33,3.47,32.83v-.77a14.9,14.9,0,0,0-.69,1.85,4.78,4.78,0,0,0-.18,1.07l1.5-.6c-4.85-4.45-11.21-11.5-13.91-19.87Zm14.4,19.71a3.16,3.16,0,0,1,.11-.67,13.3,13.3,0,0,1,.61-1.63l.17-.39-.19-.38c-3-6.07-6.84-22.19-3.39-31.39a23.28,23.28,0,0,1,2.68-5.4l.19-.27,0-.33,0-.32c-.19-2-.6-4.57-1.52-5.3a1,1,0,0,0-.82-.23c-1,.13-1.93.29-3.28.52l-5.52.89a15.43,15.43,0,0,1-3.29.17l-1.84-.11,1,1.52a15.66,15.66,0,0,1,2.69,7.41,31.83,31.83,0,0,1,.15,3.83l0,.73.71.17,1.42.31c1.65.33,2.3,1.29,2.34,1.85,0,.15,0,.33-.18.39-1,.33-.93,1.2-.88,1.84a3.87,3.87,0,0,1-.07,1.39.46.46,0,0,1-.31.37c-.23.08-.95.14-2.78-.88l-1-.53-.34,1a12.42,12.42,0,0,1-2.38,4.49l-.37.39.16.51C105.4,115,112,122.28,117,126.88l1.37,1.26Z" fill="#231f20"/><path d="M176.18,120.73l-.16,0-.36.11-.17.33-.08.15-1.23,2.37.81-.48-1.62,0H172l0,.93v.41l0,2.57,1.11-.89L172,126l-.32-.08-.73-.18-.3.68-.14.3-1.36,3,.69-.52-1.56.22a38.63,38.63,0,0,1-6.33.87l.69,1.5,3-3.32-.2.17,3.06-1.89.27-.17.59-.37-.21-.67-.09-.29-.17-.53-.45,1.07,2.9-1.48.48-.25,1.08-.55-.84-.87-.38-.39-.57-.59-.19,1.4,3-1.75.1-.06a1,1,0,0,0,.12-.1l0,0,1.82-1.76-.35.21,1.79-.57-1.1-.52,1.16,2.82.56-1.2Zm2.94-.07L178,117.84l-.31-.77-.79.25-1.79.57-.2.06-.15.15-1.83,1.77.14-.1,0,0-3,1.75-1,.58.8.82.57.58.37.38.23-1.42-.48.25-2.9,1.48-.68.35.23.73.17.52.09.29.38-1-.26.16-3.06,1.89-.11.07-.09.1-3,3.32L160,132.15l2.07,0a39.36,39.36,0,0,0,6.61-.9l1.49-.21.49-.07.2-.45,1.36-3,.14-.3-1,.51.32.08,1.18.28,1.12.27,0-1.16,0-2.57v-.41l-.91.91h.41l1.62,0h.56l.25-.49,1.23-2.38.08-.15-.53.45.16,0,1.84-.59.93-.29Z" fill="#231f20"/><path d="M178.92,116.65l-1.14-1.33-.25,1.38,2.6-1.39-1.3-1-.6,2.51.6-.65-.82.26A8.42,8.42,0,0,0,178.92,116.65Zm1.05.58.6-2.51.46-1.95-1.76.95-2.6,1.39-1,.53.73.85,1.15,1.33.39.45a2.45,2.45,0,0,0,.6-.13l.82-.26.48-.15Z" fill="#231f20"/><path d="M97.82,149.06s-16.12-5.17-16.92-11.25,11.35-13.24,14.33-4.08a129.66,129.66,0,0,1,4.08,15.13Z" fill="#ef4135"/><path d="M98,148.64h0c-.16-.05-15.86-5.16-16.61-10.88-.44-3.38,3.37-6.95,7-7.76,1.82-.41,5.09-.46,6.51,3.88a131,131,0,0,1,4.07,15.07l.38-.53-1.49.2Zm1.8.15a131.35,131.35,0,0,0-4.1-15.19c-1.18-3.61-4-5.28-7.56-4.47-3.95.9-8.15,4.91-7.65,8.75.82,6.28,16.56,11.4,17.23,11.62l.1,0h.1l1.49-.2.47-.06Z" fill="#231f20"/><path d="M99.48,147.94a29.41,29.41,0,0,1,1.86-13.14c2.65-6.37-2.65-7-5.31-5.18S94.83,141.3,99.48,147.94Z" fill="#ef4135"/><path d="M99.92,147.88h0A29.18,29.18,0,0,1,101.75,135c1.52-3.66.4-5.29-.41-5.94-1.53-1.23-4-.86-5.57.22-3,2.14-1.24,12.4,3.34,18.94l1,1.46ZM96.28,130c1.24-.87,3.31-1.21,4.49-.26s1.1,2.58.14,4.89A29.57,29.57,0,0,0,99,148l.81-.31C95.36,141.27,93.89,131.66,96.28,130Z" fill="#231f20"/><path d="M98.28,149.16s-8.24-2.35-14.9-.1c-5.87,2-9.39-6.54-1.43-7.6S97.75,148.76,98.28,149.16Z" fill="#ef4135"/><path d="M98.4,148.73c-.34-.1-8.46-2.37-15.16-.09a4.2,4.2,0,0,1-4.42-.86,3.28,3.28,0,0,1-.9-3.31c.46-1.36,1.91-2.26,4.1-2.55,3.17-.42,8.46.49,15.59,7.24.24.22.34.32.41.37ZM81.9,141c-3.43.46-4.5,2.17-4.83,3.16a4.18,4.18,0,0,0,1.12,4.23,5.08,5.08,0,0,0,5.34,1.08c6.44-2.18,14.55.08,14.63.11l.39-.79-.33-.3C90.83,141.51,85.27,140.57,81.9,141Z" fill="#231f20"/><path d="M103.26,147.44a2.36,2.36,0,0,0-1.24-1.28c-1.07-.59-3.78.8-4.69,4.18s3.66,4.17,4.21,3.9S103.64,148,103.26,147.44Z" fill="#ef4135"/><path d="M103.7,147.33a2.75,2.75,0,0,0-1.46-1.57,2.21,2.21,0,0,0-1.92.07,6.5,6.5,0,0,0-3.42,4.39,3,3,0,0,0,1,3.34c1.2,1,3.22,1.37,3.81,1.08.17-.09.54-.27,1.28-3,.31-1.14,1-3.86.61-4.47Zm-2.35,6.5h0a4.6,4.6,0,0,1-3.06-1.13,2.13,2.13,0,0,1-.54-2.23,5.6,5.6,0,0,1,2.9-3.8,1.4,1.4,0,0,1,1.13-.11,2,2,0,0,1,1,1l0,.06,0,.06,0,0a20.07,20.07,0,0,1-1.58,6.24Z" fill="#231f20"/><path d="M106.8,147.68a3.12,3.12,0,0,0-2.05-1.27c-1.59-.39-4.59,2.53-4.56,7.46s6.2,4.26,6.82,3.68S107.49,148.34,106.8,147.68Z" fill="#ef4135"/><path d="M107.19,147.47a3.55,3.55,0,0,0-2.34-1.49,2.65,2.65,0,0,0-2.21.69c-1.42,1.12-2.93,3.6-2.91,7.21a4.09,4.09,0,0,0,2.56,4c1.95.83,4.48.47,5,0,.14-.13.55-.52.54-4.51,0-1.25-.07-5.38-.74-6Zm-.51,9.75h0a5.87,5.87,0,0,1-4.27-.24,3.22,3.22,0,0,1-1.8-3.11,8.28,8.28,0,0,1,2.57-6.5,1.87,1.87,0,0,1,1.44-.52,2.74,2.74,0,0,1,1.77,1l0,.06.05.05,0,0c.53.78.68,8.41.19,9.28Z" fill="#231f20"/><path d="M158.68,132.91s-9.24.7-14.9-3.08c0,0,3.39,6.3,15.62,5.35" fill="#ef4135"/><path d="M158.65,132.46h0c-.09,0-9.16.65-14.61-3l-.65.59c.14.27,3.67,6.55,16,5.59l-.07-.89c-11.8.92-15.15-5.06-15.19-5.12l-.65.59c5.72,3.82,14.8,3.18,15.18,3.15Z" fill="#231f20"/><path d="M111,146.17a4.16,4.16,0,0,0-3.15-.63c-2.17.24-4.58,5.28-2.27,11.44s9.73,2.47,10.23,1.46S112.13,146.67,111,146.17Z" fill="#ef4135"/><path d="M111.26,145.83a4.59,4.59,0,0,0-3.5-.75,3.4,3.4,0,0,0-2.33,1.81c-1.25,2-2,5.78-.31,10.24a5.3,5.3,0,0,0,4.94,3.76c2.77.14,5.7-1.42,6.12-2.26.28-.56-.19-2.47-1.38-5.7-.41-1.12-2.53-6.7-3.65-7.18Zm4.1,12.4h0A7.86,7.86,0,0,1,110,160a4.42,4.42,0,0,1-4-3.17c-1.56-4.16-.85-7.69.23-9.45a2.6,2.6,0,0,1,1.67-1.39,3.79,3.79,0,0,1,2.81.53l.05,0,.07,0h0c1,.59,4.86,10.52,4.58,11.68Z" fill="#231f20"/><path d="M114.77,142.62s-1.49-.81-4.12.13-4.17,7.95.52,15,12.88.23,13.21-1.18S116.38,142.9,114.77,142.62Z" fill="#ef4135"/><path d="M115,142.23c-.07,0-1.7-.89-4.49.1a4.24,4.24,0,0,0-2.31,2.87c-1,2.87-.77,7.73,2.61,12.77a6.7,6.7,0,0,0,7.14,3.2c3.51-.64,6.64-3.51,6.88-4.53s-1.73-4.12-3.41-6.64c-.51-.77-5-7.55-6.57-7.82Zm9,14.21c-.13.55-2.86,3.24-6.17,3.85a5.8,5.8,0,0,1-6.24-2.81c-3.2-4.78-3.35-9.45-2.5-12a3.45,3.45,0,0,1,1.75-2.3,5,5,0,0,1,3.76-.16l.06,0h.07c1.41.34,9.37,11.84,9.25,13.38Z" fill="#231f20"/><path d="M119.3,137.38s-2-.43-4.66,1.52-2.12,10.45,5.57,16.89,14.77-4,14.67-5.74S121.23,137.16,119.3,137.38Z" fill="#ef4135"/><path d="M119.4,136.94c-.09,0-2.19-.44-5,1.59a5,5,0,0,0-1.64,4c-.13,3.57,1.69,9,7.19,13.63A7.87,7.87,0,0,0,129,157.4c3.77-1.88,6.36-6.14,6.29-7.37s-3.83-4.5-6.07-6.4c-.84-.71-8.23-6.9-10-6.7Zm15,13.14c0,.82-2.36,4.79-5.8,6.52-2.81,1.41-5.55,1-8.14-1.14-5.26-4.41-7-9.71-6.87-12.91a4.19,4.19,0,0,1,1.27-3.28c2.48-1.79,4.29-1.45,4.31-1.44l-.11,0,.12.06h.13C120.93,137.65,134.19,148.42,134.44,150.08Z" fill="#231f20"/><path d="M120.75,129.48s-2.35.56-4.39,4.18,2.62,12.89,14.09,16.07,14.29-12.35,13.37-14.24S122.76,128.21,120.75,129.48Z" fill="#ef4135"/><path d="M120.64,129c-.1,0-2.57.65-4.68,4.4-.77,1.36-.68,3.4.23,5.6,1.64,3.94,6.21,8.93,14.13,11.13a9.32,9.32,0,0,0,10.27-3.1c3.35-4,4.28-10.41,3.62-11.78-.59-1.21-6.07-2.92-9.29-3.84-.51-.15-12.52-3.55-14.43-2.35Zm22.77,6.64c.47,1-.33,7-3.5,10.81a8.38,8.38,0,0,1-9.34,2.8c-7.61-2.11-12-6.86-13.54-10.61-.81-1.94-.91-3.69-.28-4.81,1.92-3.41,4.08-4,4.1-4l.07,0,.06,0c.69-.43,5.44.21,12.21,2S143.15,135.19,143.41,135.68Z" fill="#231f20"/><path d="M121.74,120.06s-2.33,1.14-3.62,5.4,5.74,12.88,18.49,13.53,12.07-16.26,10.67-18S123.55,118.26,121.74,120.06Z" fill="#ef4135"/><path d="M121.54,119.66c-.1,0-2.53,1.27-3.85,5.67-.48,1.59.08,3.7,1.54,5.77,2.63,3.73,8.57,7.88,17.36,8.33a10,10,0,0,0,10-5.62c2.56-5,2-11.86,1-13.12s-7-1.64-10.61-1.85c-4.8-.28-14.24-.46-15.6.9Zm25.39,1.59c.73.91,1.29,7.42-1.14,12.15a9,9,0,0,1-9.16,5.14c-8.47-.43-14.16-4.39-16.67-8-1.3-1.85-1.82-3.67-1.42-5,1.2-4,3.37-5.11,3.39-5.12l.06,0,.05-.05c.69-.69,6.85-1.11,14.91-.64C143.71,120.14,146.62,120.86,146.93,121.25Z" fill="#231f20"/><path d="M176,60.18s0,13.34-26.48,16.12-30.65,5.77-34.24,15.33c-4.16,11.1,1.84,30.79,4.58,33.64,4.58,4.78,19.8,5.87,26.48-1s3.38-38,3.38-38,12.34-2.59,17.32-7.37l-5.57,1.39s9.75-4.78,10.55-7.76l-3.58,1.39S176.84,68.54,176,60.18Z" fill="#ef4135"/><path d="M175.6,60.18h0c0,.13-.37,13-26.07,15.68-26.41,2.78-30.88,5.66-34.61,15.62-4.15,11.08,1.78,31.09,4.67,34.11,2.32,2.42,7.32,4,12.75,4,6,0,11.27-1.8,14.37-5,6.84-7,3.65-37.11,3.51-38.38l-.35.49c.51-.11,12.53-2.67,17.54-7.48L168.62,78l-1.64.41-5.57,1.39.31.84c1-.5,10-5,10.79-8.05l.23-.86-.83.32-3.58,1.39.41.8c.35-.23,8.58-5.62,7.77-14.16Zm-7,14.15,3.58-1.39-.6-.53c-.61,2.29-7.65,6.17-10.31,7.48l.31.84,5.57-1.39-.42-.76c-4.83,4.64-17,7.22-17.1,7.25l-.4.08,0,.4c0,.31,3.28,30.92-3.26,37.66-2.94,3-7.94,4.75-13.73,4.73-5.2,0-9.95-1.48-12.1-3.73-2.81-2.93-8.53-22.37-4.48-33.17,3.58-9.54,7.94-12.31,33.86-15,13.82-1.45,20.38-5.83,23.45-9.25,3.39-3.77,3.42-7.17,3.42-7.32l-.9,0c.76,8-7.28,13.26-7.36,13.31Z" fill="#231f20"/><path d="M116.37,80.45c1.16-.16,1.63,3.72,1.75,5.08,0,0,4.51-5.84,13.91-6.94,0,0-1.12-3.53.62-5.27,2.7-2.71,19.53-6.16,22.11-19.67,2.44-12.78-18.24-19.6-29.85-2.9-9.68,13.93-15.31,11.94-22.09,16.37-8.69,5.67-7.36,16.61,4.73,14.74C112.43,81.1,114.4,80.72,116.37,80.45Z" fill="#fff"/><path d="M116.43,80.89s0,0,.08,0c.48.38.95,2.24,1.17,4.64l.11,1.14.7-.9A21.08,21.08,0,0,1,132.08,79l.54-.06-.16-.52s-1-3.29.51-4.82a18.58,18.58,0,0,1,4.27-2.3c6-2.74,16-7.33,18-17.6,1-5.25-1.67-9.89-7-12.12-6.53-2.75-16.73-1.14-23.7,8.88-6.76,9.72-11.49,11.59-16.07,13.4a31,31,0,0,0-5.9,2.85c-4.6,3-6.81,7.72-5.37,11.48,1.29,3.37,5.18,4.89,10.42,4.08l5.51-.89C114.48,81.19,115.45,81,116.43,80.89Zm-8.94.52c-4.78.74-8.31-.57-9.44-3.51s.29-7.31,5-10.4a29.77,29.77,0,0,1,5.74-2.77c4.7-1.86,9.57-3.77,16.48-13.72,6.68-9.61,16.4-11.18,22.61-8.56,4.89,2.05,7.35,6.31,6.43,11.12-1.87,9.81-11.63,14.28-17.46,16.95A18.18,18.18,0,0,0,132.33,73c-1.91,1.91-.78,5.57-.73,5.73l.38-.58c-9.48,1.11-14,6.87-14.21,7.11l.8.23c-.15-1.64-.55-4.51-1.5-5.26a1,1,0,0,0-.76-.22c-1,.14-2,.3-3.32.53Z" fill="#231f20"/><path d="M146.12,98.4s-5.58,13.8-21.5-2.12c0,0-2.37.58-2.62,4,0,0,1.29-2.14,2.34-2.24,0,0,10.9,6.37,12.59,7.42s3.28,1.19,4.58-.2A23.59,23.59,0,0,0,146.12,98.4Z" fill="#231f20"/><path d="M145.74,99.25s.65-1,.8-.55a.94.94,0,0,0-1.17-.95s1.14.1,0,2" fill="#231f20"/><path d="M136.57,107.43s3.32,2.92,5.84-.27C142.4,107.16,140.42,113,136.57,107.43Z" fill="#231f20"/><path d="M131.36,75.61a4.07,4.07,0,0,0-4,3.56,5.57,5.57,0,1,0,3.33,5.1q0-.29,0-.57a4.14,4.14,0,0,0,.73.07,4.08,4.08,0,1,0,0-8.16Z" fill="#fff"/><path d="M131.36,75.16a4.53,4.53,0,0,0-4.47,4l.63-.35a6,6,0,1,0,3.6,5.51,6.15,6.15,0,0,0,0-.62l-.53.49a4.46,4.46,0,0,0,.81.08,4.53,4.53,0,1,0,0-9.06ZM135,79.69a3.59,3.59,0,0,1-4.28,3.56l-.59-.11.06.59a5.2,5.2,0,0,1,0,.52,5.13,5.13,0,1,1-3.06-4.69l.55.24.08-.6a3.62,3.62,0,0,1,7.21.46Z" fill="#231f20"/><path d="M122.5,130.78s-15.92-11.15-19.91-26.28a2.17,2.17,0,0,0-2.39,2.65C100.47,110.08,113.48,126.8,122.5,130.78Z" fill="#ef4135"/><path d="M122.76,130.42h0c-.16-.11-15.84-11.23-19.73-26l-.08-.3-.31,0a2.94,2.94,0,0,0-2.18.72,2.88,2.88,0,0,0-.7,2.42c.28,3,13.47,20,22.56,24Zm-22.1-23.3a1.7,1.7,0,0,1,1.9-2.17l-.39-.33c4,15.11,19.92,26.42,20.08,26.53l.44-.78C113.62,126.38,100.87,109.56,100.65,107.12Z" fill="#231f20"/><path d="M103.12,105.7s4.51-4.64,3.45-15.39S95.29,75.84,95.29,75.84l2.52,4.65L96.62,81l2.26,1.19-1.33,1.06,1.59.8-1.19,1.06,2.12,1.06-2,1.19,1.86,1.06-1.73,1.06,1.73,1.59-1.19,1.06,1.86,1.33-2.12.93,1.33,1.19-1.46.93,2.12.93.66,1.86-1.33.66s1.33,2.26.93,3.32-1.46,2.79-.8,3.45S103.12,105.7,103.12,105.7Z" fill="#ef4135"/><path d="M103.45,106c.19-.2,4.65-4.92,3.58-15.75S95.55,75.46,95.45,75.42L94.33,75l.57,1,2.52,4.65.21-.63-1.19.53-.85.38.82.43,2.26,1.19-.07-.75-1.33,1.06-.55.44.63.31,1.59.8-.1-.74-1.19,1.06-.5.44.59.3,2.12,1.06,0-.79-2,1.19-.66.39.67.38,1.86,1.06v-.77L98,89.13l-.51.31.44.4,1.73,1.59v-.67l-1.19,1.06L98,92.2l.46.33,1.86,1.33.08-.78L98.3,94l-.64.28.52.47,1.33,1.19.06-.71-1.46.93-.71.45.77.34,2.12.93-.24-.26.66,1.86.22-.55-1.33.66-.43.22.24.41c.51.86,1.12,2.34.9,2.93-.08.23-.2.49-.33.77-.51,1.13-1.09,2.42-.36,3.15s2.91-.43,3.76-1l0,0Zm-3.19.43c-.29-.29.23-1.45.54-2.15.13-.3.26-.58.35-.83.46-1.23-.82-3.45-1-3.7l-.19.63,1.33-.66.36-.18-.13-.38-.66-1.86-.06-.18-.18-.08-2.12-.93.06.79L100,96l.5-.32-.44-.4-1.33-1.19-.12.75,2.12-.93.73-.32-.64-.46L99,91.8l0,.7,1.19-1.06.37-.33-.36-.34-1.73-1.59-.07.71,1.73-1.06.65-.4-.66-.38L98.3,87v.78l2-1.2.7-.42-.73-.37-2.12-1.06.1.74,1.19-1.06.5-.44-.59-.3-1.59-.8.08.75,1.33-1.06.54-.43-.61-.32-2.26-1.2,0,.81L98,80.9l.44-.2-.23-.43-2.52-4.65-.55.64c.1,0,10,3.76,11,14.09s-3.28,15-3.33,15l.07-.06c-1.19.81-2.4,1.27-2.61,1.11Z" fill="#231f20"/><path d="M90.73,91.62a56.32,56.32,0,0,1,11.62,6.54c5.1,3.92,7.28,4.27,7.67,2.82s-.44-2.53.62-2.88.61-2.64-2.22-3.2S96.32,92,90.89,88" fill="#fff"/><path d="M90.57,92h0a56.3,56.3,0,0,1,11.52,6.48c3.72,2.86,6.16,4,7.45,3.61a1.41,1.41,0,0,0,.93-1,4.75,4.75,0,0,0,.1-1.71c-.06-.74,0-.78.23-.86a1.25,1.25,0,0,0,.83-1.35c-.06-1-1.06-2.32-3.1-2.73-3.06-.61-12.14-3-17.36-6.79l-.53.73c6.45,4.66,17.6,6.92,17.71,6.94,1.68.33,2.35,1.32,2.38,1.9,0,.13,0,.37-.21.44-1,.31-.9,1.13-.85,1.79a3.94,3.94,0,0,1-.07,1.4.52.52,0,0,1-.35.41c-.44.15-2,.11-6.62-3.47A57.24,57.24,0,0,0,90.9,91.2Z" fill="#231f20"/><path d="M63.66,63.46c-4.21,2.2-7.64,6.93-7.56,11.39a12.8,12.8,0,0,0,1.85,6c6.51,10.83,21.52,6,31.16,12.65a2.21,2.21,0,0,0,2.61-1.58c.85-2.09,1.47-3.35,1.47-3.35s.62-1.26-2.26-3-5.21-6.38-7.81-11c-2.9-5.14-7.78-12.05-14.38-12.32A10.22,10.22,0,0,0,63.66,63.46Z" fill="#d59f0f"/><path d="M63.45,63.06c-4.61,2.41-7.89,7.36-7.8,11.79A13.19,13.19,0,0,0,57.56,81c3.88,6.46,10.81,7.52,17.5,8.54,4.83.74,9.82,1.5,13.79,4.24l.06,0,.07,0a2.66,2.66,0,0,0,3.16-1.84C93,90,93.59,88.74,93.6,88.73c.08-.17.71-1.69-2.43-3.6-2.45-1.49-4.54-5.25-6.76-9.23l-.89-1.59C78.94,66.19,74,62,68.77,61.76A10.69,10.69,0,0,0,63.45,63.06Zm5.28-.41c4.88.2,9.59,4.27,14,12.09l.89,1.59c2.28,4.09,4.42,7.94,7.08,9.56,2.42,1.47,2.09,2.45,2.09,2.46s-.63,1.28-1.48,3.36c-.67,1.65-1.93,1.35-2.07,1.31h0l.09,0c-4.14-2.86-9.24-3.64-14.16-4.39-6.79-1-13.2-2-16.87-8.12a12.22,12.22,0,0,1-1.79-5.75c-.08-4.11,3-8.72,7.32-11A9.8,9.8,0,0,1,68.73,62.65Z" fill="#231f20"/><path d="M100.2,107.16S90.65,102.78,96.49,78L96.22,81s2.65,1.06,2.26,1.06-.93,1.19-.93,1.19l1.59.8L97.29,85l2.79,1.19-2,1.19,1.86,1.06-2.12,1.06,2.39,1.19L99.14,92.3l1.46,1.19L99,94.69l1.06.93-1.72.93,2.52,1.06S102.33,101.32,100.2,107.16Z" fill="#ef4135"/><path d="M100.39,106.75h0c-.09,0-9.13-4.61-3.47-28.68L96,77.93,95.78,81l0,.33.31.12a22.71,22.71,0,0,1,2.16.95.42.42,0,0,1-.12-.45l.39-.3c-.57,0-1,.79-1.34,1.46l-.17.39.38.19,1.59.8v-.8l-1.86.93-.87.43.89.38,2.79,1.19-.05-.8-2,1.19-.66.39.67.38,1.86,1.06,0-.79-2.12,1.06-.8.4.8.4L100,91.11l-.17-.65L98.77,92l-.23.34.32.26,1.46,1.19,0-.71-1.59,1.19-.44.33.42.37,1.06.93.08-.73-1.72.93-.83.45.87.36L100.69,98l-.24-.25s1.36,3.65-.67,9.24Zm.65-9.56-2.52-1.06,0,.81,1.73-.93.57-.31-.49-.43-1.06-.93,0,.7,1.59-1.19.46-.34-.44-.36L99.43,92l.09.6L100.58,91l.28-.42-.46-.23L98,89.11v.8l2.12-1.06.75-.38-.73-.42L98.3,87v.78l2-1.2.75-.45-.81-.35-2.79-1.19,0,.81,1.86-.93.8-.4-.8-.4-1.59-.8.21.58a2.93,2.93,0,0,1,.6-.94.2.2,0,0,1-.08,0h.37s.11-.38.11-.38c.08-.39.09-.48-2.57-1.55l.28.46L96.94,78l-.89-.14c-5.86,24.89,3.56,29.52,4,29.71l.44.2.17-.46c2.16-5.93.72-9.71.66-9.87l-.07-.18Z" fill="#231f20"/><path d="M159.68,133.2s-.21-11.4,4.22-14a51.26,51.26,0,0,1,16.81-5.64l-4.24,2.27,1.47,1.7-2.82.89-1.9,1.84-3.39,2,.92.95-3.2,1.63.27.85-3.11,1.91Z" fill="#ef4135"/><path d="M160.13,133.2h0c0-.11-.15-11.17,4-13.65A51,51,0,0,1,180.75,114l-.26-.84-4.24,2.27-.49.27.37.42,1.47,1.7.2-.72L175,118l-.1,0-.07.07-1.9,1.84.08-.06-3.39,2-.49.29.4.41.92.95.12-.71-3.2,1.63-.34.17.12.36.27.85.19-.52-3.11,1.92-.06,0,0,0-5,5.63Zm4.82-5.23,3.11-1.91.3-.18-.11-.33-.27-.84-.22.54,3.2-1.63.54-.28-.42-.44-.92-.95-.09.7,3.39-2,0,0,0,0,1.9-1.84-.18.11,2.82-.89.65-.21-.44-.52-1.47-1.7-.13.69,4.24-2.27-.26-.84a52.07,52.07,0,0,0-17,5.7c-4.6,2.75-4.45,14-4.44,14.44l0,1.14.76-.85,5-5.63Z" fill="#231f20"/><path d="M168.62,145.77a1,1,0,0,1-1.13.84h0a1,1,0,0,1-.84-1.13l5.95-41a1,1,0,0,1,1.13-.84h0a1,1,0,0,1,.84,1.13Z" fill="#231f20"/><path d="M157.47,137s.1-6.54,2.23-5.67,8.79-.62,8.79-.62l1.78-.25,1.45-3.25,1.67.4,0-3.08,1.87,0,1.35-2.59,2.25-.71L177.47,118l2-.63,1.59-6.7s7.31,11.32,2.63,18.07-16.57,15.17-23.3,8.62C160.36,137.33,160.17,137.7,157.47,137Z" fill="#ef4135"/><path d="M157.92,137h0c0-1.86.42-4.72,1.2-5.24a.4.4,0,0,1,.41,0c2.24.92,8.78-.53,9.06-.59l1.74-.25.25,0,.1-.23,1.45-3.25-.51.25,1.67.4.56.13v-.58l0-3.08-.46.46,1.87,0h.28l.13-.25,1.35-2.6-.26.22,2.25-.71.46-.15-.19-.45-1.35-3.29-.28.6,2-.62.24-.08.06-.25,1.59-6.7-.82.14c.07.11,7.09,11.15,2.64,17.57-3.31,4.78-10,10.17-16,10.75a8,8,0,0,1-6.63-2.19l-.43-.42-.28.54a.35.35,0,0,1,.16-.17,6.2,6.2,0,0,1-2.54-.39Zm2.13.64a8.84,8.84,0,0,0,7.35,2.44c6.21-.6,13.2-6.18,16.63-11.13,4.79-6.92-2.32-18.1-2.62-18.57l-.57-.89-.25,1-1.59,6.7.3-.32-2,.63-.46.15.19.45,1.35,3.29.28-.6-2.25.71-.18.06-.09.16-1.35,2.6.4-.24-1.87,0h-.46v.46l0,3.08.55-.44-1.67-.4-.36-.09-.15.34-1.45,3.25.35-.26-1.78.25c-1.85.41-6.91,1.32-8.56.65a1.29,1.29,0,0,0-1.25.1c-1.46,1-1.59,5.15-1.61,6v.35l.34.09c2.68.69,3.23.43,3.4.09Z" fill="#231f20"/><path d="M179.73,86l-1.52,11.65c-.07.55-.39,1-.72.91S177,98,177,97.45l1.52-11.65-1.38-.18-1.52,11.64c-.07.55-.39,1-.72.91s-.53-.52-.46-1.06L176,85.47l-1.38-.18-1.52,11.65c-.07.55-.39,1-.72.91s-.54-.52-.46-1.06l1.52-11.65-1.67-.22,0,.1-2,15.3a4.88,4.88,0,1,0,9.67,1.26l2-15.3s0-.07,0-.1Z" fill="#231f20"/><path d="M121,56.07s-3.85,8.49-11.68,10.75c0,0,3.19-2.52,3.19-4.51l2.12-.8,2-1.72,2.26-2.39Z" fill="#231f20"/><path d="M141.61,68.54s-6,3.32-11.94,3.45-7.83,2.79-7.83,2.79,4.25-3.58,10.35-.53" fill="#231f20"/><path d="M110.82,81.15s6.77-1.46,7.7-2.52c0,0,0,1.86-3.19,2.26" fill="#231f20"/><ellipse cx="124.69" cy="85.13" rx="1.53" ry="1.92" fill="#231f20"/><ellipse cx="131.39" cy="81.12" rx="1.26" ry="1.53" fill="#231f20"/><circle cx="123.36" cy="84.15" r="0.45" fill="#fff"/><circle cx="124.69" cy="86.04" r="0.45" fill="#00afef"/><circle cx="131.42" cy="81.9" r="0.45" fill="#00afef"/><circle cx="130.6" cy="80.01" r="0.45" fill="#fff"/><path d="M139,83.56s3.51-11.1,2.72-22.19S124.6,46.86,115.37,52c-9.4,5.21-16.19,2-16.19-1.13,0,0,1.93,3.85,8.27,2.15s11.55-7.25,23-4.87,13.7,10.08,13.7,14.95c0,5.21.3,5.32-2.6,20.27" fill="#ef4135"/><path d="M139.35,83.67c0-.11,3.52-11.29,2.73-22.32-.29-4-2.65-7.42-6.66-9.6-6-3.23-14.46-3.26-20.22-.07-6.34,3.51-11.34,3.15-13.9,1.64a3.1,3.1,0,0,1-1.79-2.48l-.64.15s2.12,4.08,8.65,2.33A33.25,33.25,0,0,0,113,51.15c4.39-2,9.37-4.37,17.41-2.7,12.12,2.52,13.43,11.06,13.43,14.62v1.3c0,4,0,5.33-2.6,18.9l.66.13c2.64-13.64,2.64-15,2.61-19v-1.3c0-3.72-1.36-12.65-14-15.28-8.25-1.72-13.34.66-17.83,2.75a32.85,32.85,0,0,1-5.31,2.12c-6,1.6-7.8-1.83-7.88-2l0-.07-.06,0-.54-.4v.67A3.74,3.74,0,0,0,101,53.9c2.72,1.6,8,2,14.57-1.63,5.57-3.09,13.8-3.05,19.57.08,2.69,1.46,6,4.21,6.31,9.05.78,10.9-2.67,22-2.7,22.07Z" fill="#231f20"/><path d="M127.68,128.79a14.18,14.18,0,0,1-3,6.3s-1.79,4.78-6.3,6.57c0,0-2.06,3.52-4.84,3.65,0,0-1.33,2.59-5.24,2.79a4.87,4.87,0,0,1-3.32.4,4,4,0,0,1-3.12-.4A6.59,6.59,0,0,1,99.41,147l-.33.26s2.12.93,2.19,1.73c0,0,2.59-.66,3.12,1.13,0,0,2.32-2.39,3.85-.33,0,0,2.92-3.05,5.57-2.26,0,0,2.32-4.31,6.1-4.11,0,0,2.52-6.24,6.64-6.9,0,0,.53-6.44,4-7.17" fill="#231f20"/><path d="M117.52,99.4s.2,17.12,7,26.08C124.49,125.47,115.53,116.91,117.52,99.4Z" fill="#231f20"/><path d="M183.15,125.08a20.21,20.21,0,0,1-10.62,10.35" fill="#231f20"/><path d="M162,138.61s-2.65-2.25-2.25-4.11c0,0-.66,2.65.53,3.71" fill="#231f20"/><path d="M61.32,71.46a5.92,5.92,0,0,0,1.86,8c4.64,3.45,19.38,6.1,21.23,9,0,0-.4-2.12-5.31-4.11S59.73,79.29,61.32,71.46Z" fill="#231f20"/><path d="M145.46,85.53a17.77,17.77,0,0,0,9-.8l-4.38,2.39A11.68,11.68,0,0,1,145.46,85.53Z" fill="#231f20"/></svg>