<?xml version="1.0" encoding="UTF-8" standalone="no"?>
<svg width="347px" height="347px" viewBox="0 0 347 347" version="1.1" xmlns="http://www.w3.org/2000/svg" xmlns:xlink="http://www.w3.org/1999/xlink">
    <!-- Generator: Sketch 3.8.3 (29802) - http://www.bohemiancoding.com/sketch -->
    <title>Bitmap</title>
    <desc>Created with Sketch.</desc>
    <defs></defs>
    <g id="UI" stroke="none" stroke-width="1" fill="none" fill-rule="evenodd">
        <g id="2-1-1-Logo-communicate" transform="translate(-173.000000, -2498.000000)">
            <g id="example-1-copy-3" transform="translate(173.000000, 2498.000000)">
                <g id="Bitmap">
                    <rect id="Mask" fill="#FFFFFF" x="0" y="0" width="347" height="347"></rect>
                    <g id="zebra-1" transform="translate(55.000000, 84.000000)">
                        <g id="Layer_1">
                            <rect id="Rectangle-path" fill="#2A2F30" x="64.8" y="0" width="104.44" height="104.44"></rect>
                            <path d="M110.29,12.7 L110.29,18.55 C110.271307,18.8849499 110.294825,19.2209209 110.36,19.55 C110.578677,20.4632451 110.676181,21.4013037 110.65,22.34 C110.643642,22.6382574 110.667092,22.936404 110.72,23.23 C111.100363,25.2879116 111.284523,27.3772827 111.27,29.47 C111.27,29.96 111.42,30.47 111.48,30.92 C111.79,33.41 112.4,35.83 111.9,38.48 C111.68,39.66 111.46,40.03 110.83,39.98 C110.478089,39.9128785 110.2154,39.617353 110.19,39.26 C109.7,37.55 109.1,35.97 108.71,34.14 C108.42,32.8 108.27,31.41 108.02,30.07 C107.55,27.58 107.14,25.07 106.69,22.55 C106.42,21.04 106.11,19.55 105.82,18.06 C105.816242,18.0200883 105.816242,17.9799117 105.82,17.94 C105.816386,16.4183039 105.621525,14.9030955 105.24,13.43 C105.194439,13.1787152 105.194439,12.9212848 105.24,12.67 L101.39,12.67 C101.51,13.48 101.62,14.29 101.73,15.1 C101.84,15.91 101.98,16.85 102.12,17.73 C102.161902,18.0522304 102.232175,18.3701316 102.33,18.68 C102.674569,19.8265197 102.895821,21.0065322 102.99,22.2 C103.18,23.71 103.5,25.2 103.78,26.64 C104.06,28.08 104.3,29.5 104.58,30.91 C104.75,31.75 105.01,32.54 105.17,33.39 C105.48,35.02 105.72,36.69 106.05,38.3 C106.38,39.91 106.76,41.21 107.05,42.67 C107.18,43.22 107.19,43.85 107.32,44.4 C107.678505,45.8177961 107.889625,47.268827 107.95,48.73 C107.993687,49.456705 108.093991,50.1788954 108.25,50.89 L115.07,44.07 L115.07,43.51 C114.99,41.32 115.15,39.15 115.16,36.97 L115.16,34.37 C115.16,33.69 115.31,33.02 115.36,32.37 C115.48,30.71 115.64,29.04 115.66,27.37 C115.588437,26.5749404 115.588437,25.7750596 115.66,24.98 C115.685696,24.7640952 115.685696,24.5459048 115.66,24.33 C115.58,23.05 115.49,21.77 115.42,20.49 L115.42,19.08 C115.448275,18.5236924 115.448275,17.9663076 115.42,17.41 C115.261842,15.8316293 115.418189,14.2375635 115.88,12.72 L110.13,12.72 L110.29,12.7 Z M125.78,16.77 C125.756574,16.8892725 125.723122,17.0063548 125.68,17.12 C125.166008,18.0693826 124.766546,19.0764302 124.49,20.12 C124.441974,20.3005539 124.312581,20.4484315 124.14,20.52 C123.594352,20.9004917 123.231968,21.4911774 123.14,22.15 C122.98,22.67 122.78,23.15 122.66,23.72 C122.48,24.59 122.34,25.49 122.19,26.38 C122.14,26.71 122.13,27.06 122.09,27.38 C122.023953,28.7054505 121.79901,30.0181776 121.42,31.29 C121.227557,32.2013946 121.120428,33.1287337 121.1,34.06 C120.99,35.06 120.85,35.98 120.74,36.95 C120.717165,37.2462273 120.717165,37.5437727 120.74,37.84 L120.74,38.33 L125.74,33.33 C125.74,33.33 125.74,33.33 125.74,33.26 C125.768807,32.7972878 125.842486,32.3384672 125.96,31.89 C126.48,29.89 127.08,27.98 127.52,25.94 C127.994669,23.8707676 128.69207,21.8590354 129.6,19.94 C130.35,18.26 131.22,16.73 131.92,14.94 C132.25,14.12 132.66,13.39 132.99,12.57 L126.96,12.57 C126.454473,13.9352191 126.063129,15.3400413 125.79,16.77 L125.78,16.77 Z M93.31,53.77 C93.31,53.09 93.19,52.41 93.12,51.77 C93.0612938,51.3455147 93.0245781,50.9182775 93.01,50.49 C93.01,47.43 92.53,44.49 92.3,41.49 C92.22,40.49 92.01,39.49 91.87,38.49 C91.798068,38.1142323 91.7612427,37.7325886 91.76,37.35 C91.7928703,36.4209655 91.6952524,35.4919129 91.47,34.59 C91.1018556,32.9084999 90.8744027,31.1992583 90.79,29.48 C90.7,27.74 90.36,26.04 90.16,24.32 C90.02,23.18 89.95,22.01 89.8,20.87 C89.49,18.46 89.15,16.07 88.8,13.67 C88.8,13.35 88.73,13.04 88.69,12.67 L84.85,12.67 C84.91,13.46 84.98,14.25 85.02,15.04 C85.1,16.51 85.11,17.99 85.2,19.45 C85.36,22.12 85.52,24.8 85.76,27.45 C85.96,29.7 86.36,31.91 86.52,34.17 C86.6393038,35.846341 86.8462535,37.5152899 87.14,39.17 C87.48,41.06 87.86,42.92 88.14,44.8 C88.42,46.68 89.14,48.52 89.34,50.61 C89.49,52.17 89.86,53.61 90.09,55.2 C90.27,56.41 90.37,57.65 90.5,58.87 C90.61,59.87 90.75,60.81 90.8,61.79 C90.86,63 90.8,64.22 90.85,65.44 C90.85,66.32 90.93,67.21 90.97,68.09 L93.48,65.58 C93.48,64.3 93.41,63.03 93.38,61.76 C93.42,59.14 93.39,56.46 93.32,53.77 L93.31,53.77 Z M136.31,12.7 C135.31,16.8 134.36,21.27 133.62,25.64 L146.54,12.7 L136.29,12.7 L136.31,12.7 Z M80.23,36.44 C80.3976363,35.444081 80.6485158,34.4639784 80.98,33.51 C82.2683367,29.9469401 82.7299644,26.1376565 82.33,22.37 C82.15,19.88 81.94,17.37 81.75,14.92 C81.69,14.18 81.64,13.44 81.59,12.7 L77.52,12.7 L77.52,48 C78.2536287,46.0748677 78.8092857,44.0865529 79.18,42.06 C79.51,40.19 79.85,38.31 80.23,36.44 L80.23,36.44 Z M82.23,71.44 C81.7888931,71.9119013 81.2295493,72.2571753 80.61,72.44 C79.9032033,72.8268814 79.2619656,73.3229968 78.71,73.91 C78.3376629,74.3026696 77.9365498,74.6670141 77.51,75 L77.51,81.7 L86.39,72.82 C85.83,72.42 85.3,71.82 84.73,71.37 C83.96,70.79 83.06,70.41 82.27,71.47 L82.23,71.44 Z M101.83,40.77 C101.73,40.15 101.67,39.5 101.6,38.86 C101.37,36.86 101.17,34.86 100.89,32.92 C100.66,31.28 100.35,29.69 100.08,28.07 C99.81,26.45 99.61,25.07 99.34,23.59 C99.14,22.54 98.85,21.59 98.66,20.48 C98.42,19.14 98.24,17.76 98.03,16.4 C97.82,15.04 97.64,13.9 97.43,12.66 L92.64,12.66 C92.72,13.3 92.82,13.93 92.95,14.56 C93.2,15.77 93.37,17.03 93.59,18.27 C93.81,19.51 94.02,20.45 94.18,21.57 C94.42,23.28 94.62,25.01 94.84,26.73 C94.96,27.65 95.1,28.57 95.21,29.5 C95.38,30.89 95.54,32.29 95.71,33.69 C95.88,35.09 96.05,36.22 96.2,37.49 C96.28,38.17 96.33,38.86 96.37,39.55 C96.54,42.3 96.56,45.08 96.9,47.81 C97.0031163,49.1073428 97.0264936,50.4097924 96.97,51.71 C96.9624024,52.7396507 96.8956256,53.7680135 96.77,54.79 C96.59,56.31 96.57,57.89 96.54,59.45 L96.54,62.69 L103.4,55.83 L103.4,54.53 C103.418194,52.2506107 103.287919,49.9724561 103.01,47.71 C102.68,45.4 102.25,43.11 101.87,40.8 L101.83,40.77 Z M88.23,57.26 C87.3705448,55.4810412 86.6126616,53.6547762 85.96,51.79 C85.8628566,51.5944912 85.7267307,51.4209306 85.56,51.28 C85.2243146,51.0659613 85.0475682,50.6731915 85.11,50.28 C85.2,49.68 85.5,49.93 85.72,49.93 C85.76899,49.9138596 85.8135143,49.88646 85.85,49.85 C85.8824243,49.7806339 85.9027181,49.7062231 85.91,49.63 C85.59,47.74 85.68,45.76 85.49,43.85 C85.3,41.94 85.02,39.97 84.7,38.07 C84.52,36.98 83.97,36.42 83.53,36.82 C83.1281887,37.2470698 82.8514486,37.7763353 82.73,38.35 C82.536141,39.3400339 82.4124996,40.3425317 82.36,41.35 C82.26,42.63 82.21,43.93 82.16,45.22 L82.16,47.41 C82.06,48.47 81.89,49.51 81.7,50.54 C81.6244644,50.9156824 81.4894315,51.2768954 81.3,51.61 C80.23,53.53 79.18,55.47 78.07,57.32 C77.9032568,57.5945038 77.7195674,57.8583485 77.52,58.11 L77.52,69.33 C78.0932818,68.8030249 78.6125231,68.2201346 79.07,67.59 C79.78,66.59 80.64,66.14 81.36,65.21 C82.1386593,64.3741368 82.6625188,63.3333562 82.87,62.21 C82.9596256,61.5772125 83.0063988,60.9390929 83.01,60.3 C82.9528225,59.877802 83.080366,59.4514424 83.36,59.13 C83.69,58.88 83.88,59.31 84.02,59.69 C84.47,60.87 84.87,62.1 85.3,63.3 C85.57,64.06 85.87,64.79 86.15,65.54 C86.2366155,65.7074335 86.3005122,65.8856717 86.34,66.07 C86.4096309,66.4862469 86.5891476,66.8763505 86.86,67.2 C87.47,68.35 88.25,69.2 88.86,70.39 L90.45,68.8 C90.31,67.48 90.15,66.17 90,64.86 C89.7601234,62.2576771 89.1645775,59.7005308 88.23,57.26 L88.23,57.26 Z" id="Shape" fill="#FFFFFF"></path>
                            <polygon id="Shape" fill="#FFFFFF" points="87.52 91.74 156.54 22.71 156.54 91.74"></polygon>
                            <rect id="Rectangle-path" fill="#2A2F30" x="1" y="156.41" width="235.91" height="23.59"></rect>
                            <polygon id="Shape" fill="#2A2F30" points="0.96 151.21 0.96 144.4 27.96 126.46 0.96 126.46 0.96 119.65 39.68 119.65 39.68 126.46 12.77 144.4 39.68 144.4 39.68 151.21"></polygon>
                            <polygon id="Shape" fill="#2A2F30" points="49.15 151.21 49.15 119.65 87.15 119.65 87.15 126.46 57.09 126.46 57.09 132.14 83.55 132.14 83.55 138.27 57.09 138.27 57.09 144.4 88.33 144.4 88.33 151.21"></polygon>
                            <path d="M136.96,142.46 C136.999861,143.837768 136.722737,145.206283 136.15,146.46 C135.639714,147.520739 134.890014,148.448451 133.96,149.17 C132.992135,149.900313 131.886682,150.427529 130.71,150.72 C129.403734,151.058078 128.059293,151.226133 126.71,151.22 L97.12,151.22 L97.12,119.65 L126.69,119.65 C128.090327,119.637594 129.486026,119.812477 130.84,120.17 C132.021764,120.474353 133.128114,121.019018 134.09,121.77 C135.007577,122.510938 135.734491,123.460728 136.21,124.54 C136.754236,125.829663 137.016757,127.220688 136.98,128.62 C136.955833,129.560501 136.773275,130.490197 136.44,131.37 C136.129124,132.186501 135.686598,132.946564 135.13,133.62 C134.428289,134.445108 133.530943,135.081158 132.52,135.47 C133.538661,135.916255 134.434161,136.602462 135.13,137.47 C135.680348,138.173391 136.12194,138.955446 136.44,139.79 C136.760954,140.644792 136.936711,141.547236 136.96,142.46 L136.96,142.46 Z M129.34,129.34 C129.372022,128.743557 129.233261,128.150353 128.94,127.63 C128.694486,127.2398 128.349272,126.922203 127.94,126.71 C127.579929,126.521528 127.191476,126.39317 126.79,126.33 C126.47599,126.276584 126.158455,126.246502 125.84,126.24 L105.05,126.24 L105.05,132.51 L125.88,132.51 C126.158438,132.499537 126.435791,132.469462 126.71,132.42 C127.11649,132.348514 127.50633,132.202747 127.86,131.99 C128.261881,131.733097 128.603097,131.391881 128.86,130.99 C129.189904,130.50759 129.361186,129.934321 129.35,129.35 L129.34,129.34 Z M129.34,141.51 C129.372022,140.913557 129.233261,140.320353 128.94,139.8 C128.69077,139.405171 128.347083,139.078669 127.94,138.85 C127.583589,138.649151 127.19412,138.513684 126.79,138.45 C126.475971,138.396729 126.158446,138.366647 125.84,138.36 L105.05,138.36 L105.05,144.63 L125.88,144.63 C126.158508,144.62051 126.435931,144.590428 126.71,144.54 C127.113683,144.469054 127.502484,144.330438 127.86,144.13 C128.261289,143.893565 128.60331,143.568645 128.86,143.18 C129.193921,142.692004 129.365391,142.111106 129.35,141.52 L129.34,141.51 Z" id="Shape" fill="#2A2F30"></path>
                            <path d="M184.44,130 C184.462472,131.238118 184.28001,132.471427 183.9,133.65 C183.578505,134.631262 183.098854,135.553408 182.48,136.38 C181.919097,137.121768 181.244035,137.769827 180.48,138.3 C179.784963,138.789316 179.036889,139.198576 178.25,139.52 L183.75,151.2 L175.27,151.2 L170.27,140.43 L153.69,140.43 L153.69,151.2 L145.76,151.2 L145.76,119.65 L174.12,119.65 C175.134328,119.680268 176.141432,119.831334 177.12,120.1 C178.342561,120.41839 179.495416,120.960909 180.52,121.7 C181.660835,122.535092 182.600438,123.614782 183.27,124.86 C184.091994,126.445506 184.49476,128.214921 184.44,130 L184.44,130 Z M176.5,130 C176.527409,129.36449 176.385942,128.733065 176.09,128.17 C175.846631,127.736082 175.503943,127.365979 175.09,127.09 C174.727399,126.847305 174.324424,126.671216 173.9,126.57 C173.572076,126.492108 173.236939,126.44854 172.9,126.44 L153.69,126.44 L153.69,133.61 L172.96,133.61 C173.252008,133.591049 173.540714,133.537336 173.82,133.45 C174.244278,133.328749 174.646139,133.139638 175.01,132.89 C175.435625,132.600611 175.796567,132.226048 176.07,131.79 C176.387419,131.248737 176.540313,130.626739 176.51,130 L176.5,130 Z" id="Shape" fill="#2A2F30"></path>
                            <path d="M228.49,151.21 L224.84,144.9 L202.61,144.9 L198.96,151.21 L190.53,151.21 L208.65,119.65 L218.79,119.65 L236.96,151.21 L228.53,151.21 L228.49,151.21 Z M213.75,125.56 L206.54,138.09 L220.96,138.09 L213.75,125.56 Z" id="Shape" fill="#2A2F30"></path>
                            <path d="M34.82,175.55 L33.12,172.61 L22.77,172.61 L21.07,175.55 L17.15,175.55 L25.58,160.86 L30.3,160.86 L38.73,175.55 L34.82,175.55 L34.82,175.55 Z M27.96,163.61 L24.6,169.44 L31.31,169.44 L27.96,163.61 Z" id="Shape" fill="#FFFFFF"></path>
                            <path d="M68.38,165.69 C68.41258,166.520225 68.226358,167.34443 67.84,168.08 C67.5150922,168.664761 67.0683453,169.172893 66.53,169.57 C66.053708,169.914651 65.5181529,170.16887 64.95,170.32 C64.5068111,170.444667 64.0501506,170.51518 63.59,170.53 L54.09,170.53 L54.09,175.53 L50.38,175.53 L50.38,160.86 L63.58,160.86 C64.0600315,160.872923 64.5367757,160.943428 65,161.07 C65.5684692,161.220267 66.104177,161.474559 66.58,161.82 C67.1114314,162.207891 67.5488796,162.710273 67.86,163.29 C68.2350762,164.032596 68.4140769,164.858754 68.38,165.69 L68.38,165.69 Z M64.69,165.69 C64.7020193,165.394933 64.6365104,165.101867 64.5,164.84 C64.3878142,164.6397 64.2302734,164.46846 64.04,164.34 C63.8697387,164.226136 63.6798748,164.144766 63.48,164.1 C63.3324836,164.064465 63.1816735,164.044357 63.03,164.04 L54.03,164.04 L54.03,167.38 L63.03,167.38 C63.1656084,167.372359 63.2998557,167.348865 63.43,167.31 C63.6221524,167.235767 63.8011068,167.131096 63.96,167 C64.1563411,166.865121 64.323079,166.691577 64.45,166.49 C64.6041261,166.251433 64.6873528,165.974011 64.69,165.69 L64.69,165.69 Z" id="Shape" fill="#FFFFFF"></path>
                            <path d="M98.63,165.69 C98.6630521,166.520269 98.4768028,167.344594 98.09,168.08 C97.7650922,168.664761 97.3183453,169.172893 96.78,169.57 C96.303708,169.914651 95.7681529,170.16887 95.2,170.32 C94.7568111,170.444667 94.3001506,170.51518 93.84,170.53 L84.34,170.53 L84.34,175.53 L80.65,175.53 L80.65,160.86 L93.85,160.86 C94.3300821,160.87234 94.8068961,160.942855 95.27,161.07 C95.8384692,161.220267 96.374177,161.474559 96.85,161.82 C97.3816641,162.207638 97.8191628,162.710078 98.13,163.29 C98.4990155,164.03413 98.6711588,164.860417 98.63,165.69 L98.63,165.69 Z M94.94,165.69 C94.9524904,165.394891 94.8869546,165.101704 94.75,164.84 C94.6384281,164.639255 94.4807672,164.467885 94.29,164.34 C94.1198498,164.225932 93.9299463,164.144544 93.73,164.1 C93.582497,164.064393 93.4316794,164.044284 93.28,164.04 L84.28,164.04 L84.28,167.38 L93.28,167.38 C93.4156084,167.372359 93.5498557,167.348865 93.68,167.31 C93.8795937,167.254445 94.0687574,167.166619 94.24,167.05 C94.4361595,166.914907 94.602858,166.741404 94.73,166.54 C94.8899778,166.286057 94.9700975,165.989963 94.96,165.69 L94.94,165.69 Z" id="Shape" fill="#FFFFFF"></path>
                            <path d="M127.18,175.55 L125.48,172.61 L115.14,172.61 L113.44,175.55 L109.52,175.55 L117.96,160.86 L122.68,160.86 L131.11,175.55 L127.19,175.55 L127.18,175.55 Z M120.32,163.61 L116.96,169.44 L123.67,169.44 L120.32,163.61 Z" id="Shape" fill="#FFFFFF"></path>
                            <path d="M160.75,165.69 C160.75987,166.266504 160.675423,166.840745 160.5,167.39 C160.349642,167.846035 160.126786,168.274864 159.84,168.66 C159.580024,169.001412 159.26984,169.301481 158.92,169.55 C158.60822,169.775541 158.272932,169.966655 157.92,170.12 L160.48,175.55 L156.54,175.55 L154.19,170.55 L146.49,170.55 L146.49,175.55 L142.8,175.55 L142.8,160.86 L155.96,160.86 C156.436726,160.873144 156.910134,160.943651 157.37,161.07 C157.94189,161.21933 158.481045,161.473648 158.96,161.82 C159.491664,162.207638 159.929163,162.710078 160.24,163.29 C160.612893,164.033065 160.788512,164.859511 160.75,165.69 L160.75,165.69 Z M157.06,165.69 C157.072968,165.394848 157.007404,165.101539 156.87,164.84 C156.758119,164.639479 156.600519,164.468174 156.41,164.34 C156.239739,164.226136 156.049875,164.144766 155.85,164.1 C155.702484,164.064465 155.551674,164.044357 155.4,164.04 L146.4,164.04 L146.4,167.38 L155.4,167.38 C155.535598,167.372268 155.669835,167.348776 155.8,167.31 C155.99941,167.253946 156.188495,167.166156 156.36,167.05 C156.556159,166.914907 156.722858,166.741404 156.85,166.54 C157.002974,166.283856 157.076089,165.987913 157.06,165.69 L157.06,165.69 Z" id="Shape" fill="#FFFFFF"></path>
                            <polygon id="Shape" fill="#FFFFFF" points="173.34 175.55 173.34 160.86 191.03 160.86 191.03 164 177.03 164 177.03 166.64 189.34 166.64 189.34 169.49 177.03 169.49 177.03 172.34 191.57 172.34 191.57 175.51 173.34 175.51"></polygon>
                            <polygon id="Shape" fill="#FFFFFF" points="204.05 175.55 204.05 160.86 207.74 160.86 207.74 172.38 220.74 172.38 220.74 175.55"></polygon>
                        </g>
                    </g>
                </g>
            </g>
        </g>
    </g>
</svg>